<?xml version="1.0" encoding="UTF-8" standalone="no"?><svg xmlns="http://www.w3.org/2000/svg" xmlns:xlink="http://www.w3.org/1999/xlink" contentScriptType="application/ecmascript" contentStyleType="text/css" height="267px" preserveAspectRatio="none" style="width:276px;height:267px;" version="1.1" viewBox="0 0 276 267" width="276px" zoomAndPan="magnify"><defs><filter height="300%" id="fhld7mrltq0u1" width="300%" x="-1" y="-1"><feGaussianBlur result="blurOut" stdDeviation="2.0"/><feColorMatrix in="blurOut" result="blurOut2" type="matrix" values="0 0 0 0 0 0 0 0 0 0 0 0 0 0 0 0 0 0 .4 0"/><feOffset dx="4.0" dy="4.0" in="blurOut2" result="blurOut3"/><feBlend in="SourceGraphic" in2="blurOut3" mode="normal"/></filter></defs><g><!--class co.com.sofka.cargame.infra.repo.MongoEventStoreRepository--><a href="MongoEventStoreRepository.html" target="_top" xlink:actuate="onRequest" xlink:show="new" xlink:title="MongoEventStoreRepository.html" xlink:type="simple"><rect fill="#FEFECE" filter="url(#fhld7mrltq0u1)" height="89.6953" id="co.com.sofka.cargame.infra.repo.MongoEventStoreRepository" style="stroke: #A80036; stroke-width: 1.5;" width="254" x="8.5" y="144"/><ellipse cx="41.95" cy="164.0938" fill="#ADD1B2" rx="11" ry="11" style="stroke: #A80036; stroke-width: 1.0;"/><path d="M44.7156,159.9688 Q44.8719,159.75 45.0594,159.6406 Q45.2469,159.5313 45.4656,159.5313 Q45.8406,159.5313 46.075,159.7969 Q46.3094,160.0469 46.3094,160.6563 L46.3094,162.1094 Q46.3094,162.7188 46.075,162.9844 Q45.8406,163.25 45.4656,163.25 Q45.1219,163.25 44.9188,163.0469 Q44.7156,162.8594 44.6063,162.3438 Q44.5594,161.9844 44.3719,161.7969 Q44.0438,161.4219 43.4344,161.2031 Q42.825,160.9844 42.2,160.9844 Q41.4344,160.9844 40.7938,161.3125 Q40.1688,161.6406 39.6688,162.3906 Q39.1844,163.1406 39.1844,164.1719 L39.1844,165.2656 Q39.1844,166.5 40.075,167.3281 Q40.9656,168.1406 42.5594,168.1406 Q43.4969,168.1406 44.1531,167.8906 Q44.5438,167.7344 44.9656,167.2969 Q45.2313,167.0313 45.3719,166.9531 Q45.5281,166.875 45.7313,166.875 Q46.0594,166.875 46.3094,167.1406 Q46.575,167.3906 46.575,167.7344 Q46.575,168.0781 46.2313,168.4844 Q45.7313,169.0625 44.9344,169.3906 Q43.8563,169.8438 42.5594,169.8438 Q41.0438,169.8438 39.8406,169.2188 Q38.8563,168.7188 38.1688,167.6563 Q37.4813,166.5781 37.4813,165.2969 L37.4813,164.1406 Q37.4813,162.8125 38.0906,161.6719 Q38.7156,160.5156 39.8094,159.9063 Q40.9031,159.2813 42.1375,159.2813 Q42.8719,159.2813 43.5125,159.4531 Q44.1688,159.6094 44.7156,159.9688 Z "/><text fill="#000000" font-family="sans-serif" font-size="14" lengthAdjust="spacingAndGlyphs" textLength="181" x="60.05" y="163.5332">MongoEventStoreRepository</text><text fill="#000000" font-family="sans-serif" font-size="10" lengthAdjust="spacingAndGlyphs" textLength="155" x="73.05" y="176.9902">co.com.sofka.cargame.infra.repo</text><line style="stroke: #A80036; stroke-width: 1.5;" x1="9.5" x2="261.5" y1="184.1875" y2="184.1875"/><ellipse cx="19.5" cy="196.6055" fill="#84BE84" rx="3" ry="3" style="stroke: #038048; stroke-width: 1.0;"/><text fill="#000000" font-family="sans-serif" font-size="11" lengthAdjust="spacingAndGlyphs" textLength="220" x="28.5" y="199.6064">MongoEventStoreRepository(MongoTemplate)</text><ellipse cx="19.5" cy="210.4414" fill="#84BE84" rx="3" ry="3" style="stroke: #038048; stroke-width: 1.0;"/><text fill="#000000" font-family="sans-serif" font-size="11" lengthAdjust="spacingAndGlyphs" textLength="228" x="28.5" y="213.4424">getEventsBy(String, String): List&lt;DomainEvent&gt;</text><ellipse cx="19.5" cy="224.2773" fill="#84BE84" rx="3" ry="3" style="stroke: #038048; stroke-width: 1.0;"/><text fill="#000000" font-family="sans-serif" font-size="11" lengthAdjust="spacingAndGlyphs" textLength="212" x="28.5" y="227.2783">saveEvent(String, String, StoredEvent): void</text></a><!--class co.com.sofka.infraestructure.repository.EventStoreRepository--><rect fill="#FEFECE" filter="url(#fhld7mrltq0u1)" height="75.8594" id="co.com.sofka.infraestructure.repository.EventStoreRepository" style="stroke: #A80036; stroke-width: 1.5;" width="259" x="6" y="8"/><ellipse cx="42.6" cy="28.0938" fill="#B4A7E5" rx="11" ry="11" style="stroke: #A80036; stroke-width: 1.0;"/><path d="M43.5531,24.7344 L43.5531,31.3906 L45.2719,31.3906 Q45.8813,31.3906 46.1469,31.625 Q46.4125,31.8594 46.4125,32.25 Q46.4125,32.625 46.1469,32.8594 Q45.8813,33.0938 45.2719,33.0938 L40.1313,33.0938 Q39.5219,33.0938 39.2563,32.8594 Q38.9906,32.625 38.9906,32.2344 Q38.9906,31.8594 39.2563,31.625 Q39.5219,31.3906 40.1313,31.3906 L41.85,31.3906 L41.85,24.7344 L40.1313,24.7344 Q39.5219,24.7344 39.2563,24.5 Q38.9906,24.2656 38.9906,23.875 Q38.9906,23.5 39.2563,23.2656 Q39.5219,23.0313 40.1313,23.0313 L45.2719,23.0313 Q45.8813,23.0313 46.1469,23.2656 Q46.4125,23.5 46.4125,23.875 Q46.4125,24.2656 46.1469,24.5 Q45.8813,24.7344 45.2719,24.7344 L43.5531,24.7344 Z "/><text fill="#000000" font-family="sans-serif" font-size="14" font-style="italic" lengthAdjust="spacingAndGlyphs" textLength="137" x="82.4" y="27.5332">EventStoreRepository</text><text fill="#000000" font-family="sans-serif" font-size="10" font-style="italic" lengthAdjust="spacingAndGlyphs" textLength="179" x="61.4" y="40.9902">co.com.sofka.infraestructure.repository</text><line style="stroke: #A80036; stroke-width: 1.5;" x1="7" x2="264" y1="48.1875" y2="48.1875"/><ellipse cx="17" cy="60.6055" fill="#84BE84" rx="3" ry="3" style="stroke: #038048; stroke-width: 1.0;"/><text fill="#000000" font-family="sans-serif" font-size="11" font-style="italic" lengthAdjust="spacingAndGlyphs" textLength="233" x="26" y="63.6064">getEventsBy(String, String): List&lt;DomainEvent&gt;</text><ellipse cx="17" cy="74.4414" fill="#84BE84" rx="3" ry="3" style="stroke: #038048; stroke-width: 1.0;"/><text fill="#000000" font-family="sans-serif" font-size="11" font-style="italic" lengthAdjust="spacingAndGlyphs" textLength="213" x="26" y="77.4424">saveEvent(String, String, StoredEvent): void</text><!--link co.com.sofka.infraestructure.repository.EventStoreRepository to co.com.sofka.cargame.infra.repo.MongoEventStoreRepository--><path d="M135.5,104.09 C135.5,117.37 135.5,131.31 135.5,143.93 " fill="none" id="co.com.sofka.infraestructure.repository.EventStoreRepository-co.com.sofka.cargame.infra.repo.MongoEventStoreRepository" style="stroke: #A80036; stroke-width: 1.0; stroke-dasharray: 7.0,7.0;"/><polygon fill="none" points="128.5,104.05,135.5,84.05,142.5,104.05,128.5,104.05" style="stroke: #A80036; stroke-width: 1.0;"/><text fill="#888888" font-family="sans-serif" font-size="10" lengthAdjust="spacingAndGlyphs" textLength="190" x="46.5" y="254.3809">UMLDoclet 2.0.10, PlantUML 1.2019.08</text><!--
@startuml
    set namespaceSeparator none
    hide empty fields
    hide empty methods

    class "<size:14>MongoEventStoreRepository\n<size:10>co.com.sofka.cargame.infra.repo" as co.com.sofka.cargame.infra.repo.MongoEventStoreRepository [[MongoEventStoreRepository.html]] {
        +MongoEventStoreRepository(MongoTemplate)
        +getEventsBy(String, String): List<DomainEvent>
        +saveEvent(String, String, StoredEvent): void
    }

    interface "<size:14>EventStoreRepository\n<size:10>co.com.sofka.infraestructure.repository" as co.com.sofka.infraestructure.repository.EventStoreRepository {
        {abstract} +getEventsBy(String, String): List<DomainEvent>
        {abstract} +saveEvent(String, String, StoredEvent): void
    }

    co.com.sofka.infraestructure.repository.EventStoreRepository <|.. co.com.sofka.cargame.infra.repo.MongoEventStoreRepository

    center footer UMLDoclet 2.0.10, PlantUML 1.2019.08
@enduml

PlantUML version 1.2019.08(Sat Jul 13 14:25:14 COT 2019)
(APACHE source distribution)
Java Runtime: Java(TM) SE Runtime Environment
JVM: Java HotSpot(TM) 64-Bit Server VM
Java Version: 11.0.11+9-LTS-194
Operating System: Windows 10
OS Version: 10.0
Default Encoding: Cp1252
Language: es
Country: CO
--></g></svg>