<?xml version="1.0" encoding="UTF-8" standalone="no"?><svg xmlns="http://www.w3.org/2000/svg" xmlns:xlink="http://www.w3.org/1999/xlink" contentScriptType="application/ecmascript" contentStyleType="text/css" height="380px" preserveAspectRatio="none" style="width:563px;height:380px;" version="1.1" viewBox="0 0 563 380" width="563px" zoomAndPan="magnify"><defs><filter height="300%" id="f1byqftuo7uw9c" width="300%" x="-1" y="-1"><feGaussianBlur result="blurOut" stdDeviation="2.0"/><feColorMatrix in="blurOut" result="blurOut2" type="matrix" values="0 0 0 0 0 0 0 0 0 0 0 0 0 0 0 0 0 0 .4 0"/><feOffset dx="4.0" dy="4.0" in="blurOut2" result="blurOut3"/><feBlend in="SourceGraphic" in2="blurOut3" mode="normal"/></filter></defs><g><!--cluster co.com.sofka.cargame.infra.repo--><polygon fill="#FFFFFF" filter="url(#f1byqftuo7uw9c)" points="26,176,261,176,268,199.6094,541,199.6094,541,331,26,331,26,176" style="stroke: #000000; stroke-width: 1.5;"/><line style="stroke: #000000; stroke-width: 1.5;" x1="26" x2="268" y1="199.6094" y2="199.6094"/><text fill="#000000" font-family="sans-serif" font-size="14" font-weight="bold" lengthAdjust="spacingAndGlyphs" textLength="229" x="30" y="192.5332">co.com.sofka.cargame.infra.repo</text><!--cluster co.com.sofka.infraestructure.repository--><polygon fill="#FFFFFF" filter="url(#f1byqftuo7uw9c)" points="22,24,306,24,313,47.6094,316,47.6094,316,152,22,152,22,24" style="stroke: #000000; stroke-width: 1.5;"/><line style="stroke: #000000; stroke-width: 1.5;" x1="22" x2="313" y1="47.6094" y2="47.6094"/><text fill="#000000" font-family="sans-serif" font-size="14" font-weight="bold" lengthAdjust="spacingAndGlyphs" textLength="278" x="26" y="40.5332">co.com.sofka.infraestructure.repository</text><!--class co.com.sofka.cargame.infra.repo.DocumentEventStored--><a href="DocumentEventStored.html" target="_top" xlink:actuate="onRequest" xlink:show="new" xlink:title="DocumentEventStored.html" xlink:type="simple"><rect fill="#FEFECE" filter="url(#f1byqftuo7uw9c)" height="103.3438" id="co.com.sofka.cargame.infra.repo.DocumentEventStored" style="stroke: #A80036; stroke-width: 1.5;" width="193" x="331.5" y="212"/><ellipse cx="363.6" cy="228" fill="#ADD1B2" rx="11" ry="11" style="stroke: #A80036; stroke-width: 1.0;"/><path d="M366.3656,223.875 Q366.5219,223.6563 366.7094,223.5469 Q366.8969,223.4375 367.1156,223.4375 Q367.4906,223.4375 367.725,223.7031 Q367.9594,223.9531 367.9594,224.5625 L367.9594,226.0156 Q367.9594,226.625 367.725,226.8906 Q367.4906,227.1563 367.1156,227.1563 Q366.7719,227.1563 366.5688,226.9531 Q366.3656,226.7656 366.2563,226.25 Q366.2094,225.8906 366.0219,225.7031 Q365.6938,225.3281 365.0844,225.1094 Q364.475,224.8906 363.85,224.8906 Q363.0844,224.8906 362.4438,225.2188 Q361.8188,225.5469 361.3188,226.2969 Q360.8344,227.0469 360.8344,228.0781 L360.8344,229.1719 Q360.8344,230.4063 361.725,231.2344 Q362.6156,232.0469 364.2094,232.0469 Q365.1469,232.0469 365.8031,231.7969 Q366.1938,231.6406 366.6156,231.2031 Q366.8813,230.9375 367.0219,230.8594 Q367.1781,230.7813 367.3813,230.7813 Q367.7094,230.7813 367.9594,231.0469 Q368.225,231.2969 368.225,231.6406 Q368.225,231.9844 367.8813,232.3906 Q367.3813,232.9688 366.5844,233.2969 Q365.5063,233.75 364.2094,233.75 Q362.6938,233.75 361.4906,233.125 Q360.5063,232.625 359.8188,231.5625 Q359.1313,230.4844 359.1313,229.2031 L359.1313,228.0469 Q359.1313,226.7188 359.7406,225.5781 Q360.3656,224.4219 361.4594,223.8125 Q362.5531,223.1875 363.7875,223.1875 Q364.5219,223.1875 365.1625,223.3594 Q365.8188,223.5156 366.3656,223.875 Z "/><text fill="#000000" font-family="sans-serif" font-size="12" lengthAdjust="spacingAndGlyphs" textLength="123" x="381.4" y="232.9102">DocumentEventStored</text><line style="stroke: #A80036; stroke-width: 1.5;" x1="332.5" x2="523.5" y1="244" y2="244"/><line style="stroke: #A80036; stroke-width: 1.5;" x1="332.5" x2="523.5" y1="252" y2="252"/><ellipse cx="342.5" cy="264.418" fill="#84BE84" rx="3" ry="3" style="stroke: #038048; stroke-width: 1.0;"/><text fill="#000000" font-family="sans-serif" font-size="11" lengthAdjust="spacingAndGlyphs" textLength="138" x="351.5" y="267.4189">getAggregateRootId(): String</text><ellipse cx="342.5" cy="278.2539" fill="#84BE84" rx="3" ry="3" style="stroke: #038048; stroke-width: 1.0;"/><text fill="#000000" font-family="sans-serif" font-size="11" lengthAdjust="spacingAndGlyphs" textLength="158" x="351.5" y="281.2549">setAggregateRootId(String): void</text><ellipse cx="342.5" cy="292.0898" fill="#84BE84" rx="3" ry="3" style="stroke: #038048; stroke-width: 1.0;"/><text fill="#000000" font-family="sans-serif" font-size="11" lengthAdjust="spacingAndGlyphs" textLength="147" x="351.5" y="295.0908">getStoredEvent(): StoredEvent</text><ellipse cx="342.5" cy="305.9258" fill="#84BE84" rx="3" ry="3" style="stroke: #038048; stroke-width: 1.0;"/><text fill="#000000" font-family="sans-serif" font-size="11" lengthAdjust="spacingAndGlyphs" textLength="167" x="351.5" y="308.9268">setStoredEvent(StoredEvent): void</text></a><!--class co.com.sofka.cargame.infra.repo.MongoEventStoreRepository--><a href="MongoEventStoreRepository.html" target="_top" xlink:actuate="onRequest" xlink:show="new" xlink:title="MongoEventStoreRepository.html" xlink:type="simple"><rect fill="#FEFECE" filter="url(#f1byqftuo7uw9c)" height="89.5078" id="co.com.sofka.cargame.infra.repo.MongoEventStoreRepository" style="stroke: #A80036; stroke-width: 1.5;" width="254" x="42" y="218.5"/><ellipse cx="87.25" cy="234.5" fill="#ADD1B2" rx="11" ry="11" style="stroke: #A80036; stroke-width: 1.0;"/><path d="M90.0156,230.375 Q90.1719,230.1563 90.3594,230.0469 Q90.5469,229.9375 90.7656,229.9375 Q91.1406,229.9375 91.375,230.2031 Q91.6094,230.4531 91.6094,231.0625 L91.6094,232.5156 Q91.6094,233.125 91.375,233.3906 Q91.1406,233.6563 90.7656,233.6563 Q90.4219,233.6563 90.2188,233.4531 Q90.0156,233.2656 89.9063,232.75 Q89.8594,232.3906 89.6719,232.2031 Q89.3438,231.8281 88.7344,231.6094 Q88.125,231.3906 87.5,231.3906 Q86.7344,231.3906 86.0938,231.7188 Q85.4688,232.0469 84.9688,232.7969 Q84.4844,233.5469 84.4844,234.5781 L84.4844,235.6719 Q84.4844,236.9063 85.375,237.7344 Q86.2656,238.5469 87.8594,238.5469 Q88.7969,238.5469 89.4531,238.2969 Q89.8438,238.1406 90.2656,237.7031 Q90.5313,237.4375 90.6719,237.3594 Q90.8281,237.2813 91.0313,237.2813 Q91.3594,237.2813 91.6094,237.5469 Q91.875,237.7969 91.875,238.1406 Q91.875,238.4844 91.5313,238.8906 Q91.0313,239.4688 90.2344,239.7969 Q89.1563,240.25 87.8594,240.25 Q86.3438,240.25 85.1406,239.625 Q84.1563,239.125 83.4688,238.0625 Q82.7813,236.9844 82.7813,235.7031 L82.7813,234.5469 Q82.7813,233.2188 83.3906,232.0781 Q84.0156,230.9219 85.1094,230.3125 Q86.2031,229.6875 87.4375,229.6875 Q88.1719,229.6875 88.8125,229.8594 Q89.4688,230.0156 90.0156,230.375 Z "/><text fill="#000000" font-family="sans-serif" font-size="12" lengthAdjust="spacingAndGlyphs" textLength="155" x="107.75" y="239.4102">MongoEventStoreRepository</text><line style="stroke: #A80036; stroke-width: 1.5;" x1="43" x2="295" y1="250.5" y2="250.5"/><line style="stroke: #A80036; stroke-width: 1.5;" x1="43" x2="295" y1="258.5" y2="258.5"/><ellipse cx="53" cy="270.918" fill="#84BE84" rx="3" ry="3" style="stroke: #038048; stroke-width: 1.0;"/><text fill="#000000" font-family="sans-serif" font-size="11" lengthAdjust="spacingAndGlyphs" textLength="220" x="62" y="273.9189">MongoEventStoreRepository(MongoTemplate)</text><ellipse cx="53" cy="284.7539" fill="#84BE84" rx="3" ry="3" style="stroke: #038048; stroke-width: 1.0;"/><text fill="#000000" font-family="sans-serif" font-size="11" lengthAdjust="spacingAndGlyphs" textLength="228" x="62" y="287.7549">getEventsBy(String, String): List&lt;DomainEvent&gt;</text><ellipse cx="53" cy="298.5898" fill="#84BE84" rx="3" ry="3" style="stroke: #038048; stroke-width: 1.0;"/><text fill="#000000" font-family="sans-serif" font-size="11" lengthAdjust="spacingAndGlyphs" textLength="212" x="62" y="301.5908">saveEvent(String, String, StoredEvent): void</text></a><!--class co.com.sofka.infraestructure.repository.EventStoreRepository--><rect fill="#FEFECE" filter="url(#f1byqftuo7uw9c)" height="75.6719" id="co.com.sofka.infraestructure.repository.EventStoreRepository" style="stroke: #A80036; stroke-width: 1.5;" width="259" x="39.5" y="60"/><ellipse cx="105.25" cy="76" fill="#B4A7E5" rx="11" ry="11" style="stroke: #A80036; stroke-width: 1.0;"/><path d="M106.2031,72.6406 L106.2031,79.2969 L107.9219,79.2969 Q108.5313,79.2969 108.7969,79.5313 Q109.0625,79.7656 109.0625,80.1563 Q109.0625,80.5313 108.7969,80.7656 Q108.5313,81 107.9219,81 L102.7813,81 Q102.1719,81 101.9063,80.7656 Q101.6406,80.5313 101.6406,80.1406 Q101.6406,79.7656 101.9063,79.5313 Q102.1719,79.2969 102.7813,79.2969 L104.5,79.2969 L104.5,72.6406 L102.7813,72.6406 Q102.1719,72.6406 101.9063,72.4063 Q101.6406,72.1719 101.6406,71.7813 Q101.6406,71.4063 101.9063,71.1719 Q102.1719,70.9375 102.7813,70.9375 L107.9219,70.9375 Q108.5313,70.9375 108.7969,71.1719 Q109.0625,71.4063 109.0625,71.7813 Q109.0625,72.1719 108.7969,72.4063 Q108.5313,72.6406 107.9219,72.6406 L106.2031,72.6406 Z "/><text fill="#000000" font-family="sans-serif" font-size="12" font-style="italic" lengthAdjust="spacingAndGlyphs" textLength="119" x="125.75" y="80.9102">EventStoreRepository</text><line style="stroke: #A80036; stroke-width: 1.5;" x1="40.5" x2="297.5" y1="92" y2="92"/><line style="stroke: #A80036; stroke-width: 1.5;" x1="40.5" x2="297.5" y1="100" y2="100"/><ellipse cx="50.5" cy="112.418" fill="#84BE84" rx="3" ry="3" style="stroke: #038048; stroke-width: 1.0;"/><text fill="#000000" font-family="sans-serif" font-size="11" font-style="italic" lengthAdjust="spacingAndGlyphs" textLength="233" x="59.5" y="115.4189">getEventsBy(String, String): List&lt;DomainEvent&gt;</text><ellipse cx="50.5" cy="126.2539" fill="#84BE84" rx="3" ry="3" style="stroke: #038048; stroke-width: 1.0;"/><text fill="#000000" font-family="sans-serif" font-size="11" font-style="italic" lengthAdjust="spacingAndGlyphs" textLength="213" x="59.5" y="129.2549">saveEvent(String, String, StoredEvent): void</text><!--link co.com.sofka.infraestructure.repository.EventStoreRepository to co.com.sofka.cargame.infra.repo.MongoEventStoreRepository--><path d="M169,156.26 C169,176.61 169,199.19 169,218.29 " fill="none" id="co.com.sofka.infraestructure.repository.EventStoreRepository-co.com.sofka.cargame.infra.repo.MongoEventStoreRepository" style="stroke: #A80036; stroke-width: 1.0; stroke-dasharray: 7.0,7.0;"/><polygon fill="none" points="162,156.1,169,136.1,176,156.1,162,156.1" style="stroke: #A80036; stroke-width: 1.0;"/><text fill="#888888" font-family="sans-serif" font-size="10" lengthAdjust="spacingAndGlyphs" textLength="190" x="192.5" y="367.3809">UMLDoclet 2.0.10, PlantUML 1.2019.08</text><!--
@startuml
    namespace co.com.sofka.cargame.infra.repo {

        class DocumentEventStored [[DocumentEventStored.html]] {
            +getAggregateRootId(): String
            +setAggregateRootId(String): void
            +getStoredEvent(): StoredEvent
            +setStoredEvent(StoredEvent): void
        }

        class MongoEventStoreRepository [[MongoEventStoreRepository.html]] {
            +MongoEventStoreRepository(MongoTemplate)
            +getEventsBy(String, String): List<DomainEvent>
            +saveEvent(String, String, StoredEvent): void
        }

        co.com.sofka.infraestructure.repository.EventStoreRepository <|.. MongoEventStoreRepository
    }

    namespace co.com.sofka.infraestructure.repository {
        interface EventStoreRepository {
            {abstract} +getEventsBy(String, String): List<DomainEvent>
            {abstract} +saveEvent(String, String, StoredEvent): void
        }
    }

    center footer UMLDoclet 2.0.10, PlantUML 1.2019.08
@enduml

PlantUML version 1.2019.08(Sat Jul 13 14:25:14 COT 2019)
(APACHE source distribution)
Java Runtime: Java(TM) SE Runtime Environment
JVM: Java HotSpot(TM) 64-Bit Server VM
Java Version: 11.0.11+9-LTS-194
Operating System: Windows 10
OS Version: 10.0
Default Encoding: Cp1252
Language: es
Country: CO
--></g></svg>