<?xml version="1.0" encoding="UTF-8" standalone="no"?><svg xmlns="http://www.w3.org/2000/svg" xmlns:xlink="http://www.w3.org/1999/xlink" contentScriptType="application/ecmascript" contentStyleType="text/css" height="543px" preserveAspectRatio="none" style="width:897px;height:543px;" version="1.1" viewBox="0 0 897 543" width="897px" zoomAndPan="magnify"><defs><filter height="300%" id="fosav3cl07bc9" width="300%" x="-1" y="-1"><feGaussianBlur result="blurOut" stdDeviation="2.0"/><feColorMatrix in="blurOut" result="blurOut2" type="matrix" values="0 0 0 0 0 0 0 0 0 0 0 0 0 0 0 0 0 0 .4 0"/><feOffset dx="4.0" dy="4.0" in="blurOut2" result="blurOut3"/><feBlend in="SourceGraphic" in2="blurOut3" mode="normal"/></filter></defs><g><!--cluster co.com.sofka.cargame.domain.juego.values--><polygon fill="#FFFFFF" filter="url(#fosav3cl07bc9)" points="22,162,334,162,341,185.6094,875,185.6094,875,494,22,494,22,162" style="stroke: #000000; stroke-width: 1.5;"/><line style="stroke: #000000; stroke-width: 1.5;" x1="22" x2="341" y1="185.6094" y2="185.6094"/><text fill="#000000" font-family="sans-serif" font-size="14" font-weight="bold" lengthAdjust="spacingAndGlyphs" textLength="306" x="26" y="178.5332">co.com.sofka.cargame.domain.juego.values</text><!--cluster co.com.sofka.domain.generic--><polygon fill="#FFFFFF" filter="url(#fosav3cl07bc9)" points="427,24,638,24,645,47.6094,676,47.6094,676,138,427,138,427,24" style="stroke: #000000; stroke-width: 1.5;"/><line style="stroke: #000000; stroke-width: 1.5;" x1="427" x2="645" y1="47.6094" y2="47.6094"/><text fill="#000000" font-family="sans-serif" font-size="14" font-weight="bold" lengthAdjust="spacingAndGlyphs" textLength="205" x="431" y="40.5332">co.com.sofka.domain.generic</text><!--class co.com.sofka.cargame.domain.juego.values.JuegoId--><a href="JuegoId.html" target="_top" xlink:actuate="onRequest" xlink:show="new" xlink:title="JuegoId.html" xlink:type="simple"><rect fill="#FEFECE" filter="url(#fosav3cl07bc9)" height="75.6719" id="co.com.sofka.cargame.domain.juego.values.JuegoId" style="stroke: #A80036; stroke-width: 1.5;" width="115" x="743.5" y="218.5"/><ellipse cx="776.05" cy="234.5" fill="#ADD1B2" rx="11" ry="11" style="stroke: #A80036; stroke-width: 1.0;"/><path d="M778.8156,230.375 Q778.9719,230.1563 779.1594,230.0469 Q779.3469,229.9375 779.5656,229.9375 Q779.9406,229.9375 780.175,230.2031 Q780.4094,230.4531 780.4094,231.0625 L780.4094,232.5156 Q780.4094,233.125 780.175,233.3906 Q779.9406,233.6563 779.5656,233.6563 Q779.2219,233.6563 779.0188,233.4531 Q778.8156,233.2656 778.7063,232.75 Q778.6594,232.3906 778.4719,232.2031 Q778.1438,231.8281 777.5344,231.6094 Q776.925,231.3906 776.3,231.3906 Q775.5344,231.3906 774.8938,231.7188 Q774.2688,232.0469 773.7688,232.7969 Q773.2844,233.5469 773.2844,234.5781 L773.2844,235.6719 Q773.2844,236.9063 774.175,237.7344 Q775.0656,238.5469 776.6594,238.5469 Q777.5969,238.5469 778.2531,238.2969 Q778.6438,238.1406 779.0656,237.7031 Q779.3313,237.4375 779.4719,237.3594 Q779.6281,237.2813 779.8313,237.2813 Q780.1594,237.2813 780.4094,237.5469 Q780.675,237.7969 780.675,238.1406 Q780.675,238.4844 780.3313,238.8906 Q779.8313,239.4688 779.0344,239.7969 Q777.9563,240.25 776.6594,240.25 Q775.1438,240.25 773.9406,239.625 Q772.9563,239.125 772.2688,238.0625 Q771.5813,236.9844 771.5813,235.7031 L771.5813,234.5469 Q771.5813,233.2188 772.1906,232.0781 Q772.8156,230.9219 773.9094,230.3125 Q775.0031,229.6875 776.2375,229.6875 Q776.9719,229.6875 777.6125,229.8594 Q778.2688,230.0156 778.8156,230.375 Z "/><text fill="#000000" font-family="sans-serif" font-size="12" lengthAdjust="spacingAndGlyphs" textLength="44" x="793.95" y="239.4102">JuegoId</text><line style="stroke: #A80036; stroke-width: 1.5;" x1="744.5" x2="857.5" y1="250.5" y2="250.5"/><line style="stroke: #A80036; stroke-width: 1.5;" x1="744.5" x2="857.5" y1="258.5" y2="258.5"/><ellipse cx="754.5" cy="270.918" fill="#84BE84" rx="3" ry="3" style="stroke: #038048; stroke-width: 1.0;"/><text fill="#000000" font-family="sans-serif" font-size="11" lengthAdjust="spacingAndGlyphs" textLength="45" x="763.5" y="273.9189">JuegoId()</text><ellipse cx="754.5" cy="284.7539" fill="#84BE84" rx="3" ry="3" style="stroke: #038048; stroke-width: 1.0;"/><text fill="#000000" font-family="sans-serif" font-size="11" lengthAdjust="spacingAndGlyphs" text-decoration="underline" textLength="89" x="763.5" y="287.7549">of(String): JuegoId</text></a><!--class co.com.sofka.cargame.domain.juego.values.JugadorId--><a href="JugadorId.html" target="_top" xlink:actuate="onRequest" xlink:show="new" xlink:title="JugadorId.html" xlink:type="simple"><rect fill="#FEFECE" filter="url(#fosav3cl07bc9)" height="61.8359" id="co.com.sofka.cargame.domain.juego.values.JugadorId" style="stroke: #A80036; stroke-width: 1.5;" width="125" x="583.5" y="225.5"/><ellipse cx="615.6" cy="241.5" fill="#ADD1B2" rx="11" ry="11" style="stroke: #A80036; stroke-width: 1.0;"/><path d="M618.3656,237.375 Q618.5219,237.1563 618.7094,237.0469 Q618.8969,236.9375 619.1156,236.9375 Q619.4906,236.9375 619.725,237.2031 Q619.9594,237.4531 619.9594,238.0625 L619.9594,239.5156 Q619.9594,240.125 619.725,240.3906 Q619.4906,240.6563 619.1156,240.6563 Q618.7719,240.6563 618.5688,240.4531 Q618.3656,240.2656 618.2563,239.75 Q618.2094,239.3906 618.0219,239.2031 Q617.6938,238.8281 617.0844,238.6094 Q616.475,238.3906 615.85,238.3906 Q615.0844,238.3906 614.4438,238.7188 Q613.8188,239.0469 613.3188,239.7969 Q612.8344,240.5469 612.8344,241.5781 L612.8344,242.6719 Q612.8344,243.9063 613.725,244.7344 Q614.6156,245.5469 616.2094,245.5469 Q617.1469,245.5469 617.8031,245.2969 Q618.1938,245.1406 618.6156,244.7031 Q618.8813,244.4375 619.0219,244.3594 Q619.1781,244.2813 619.3813,244.2813 Q619.7094,244.2813 619.9594,244.5469 Q620.225,244.7969 620.225,245.1406 Q620.225,245.4844 619.8813,245.8906 Q619.3813,246.4688 618.5844,246.7969 Q617.5063,247.25 616.2094,247.25 Q614.6938,247.25 613.4906,246.625 Q612.5063,246.125 611.8188,245.0625 Q611.1313,243.9844 611.1313,242.7031 L611.1313,241.5469 Q611.1313,240.2188 611.7406,239.0781 Q612.3656,237.9219 613.4594,237.3125 Q614.5531,236.6875 615.7875,236.6875 Q616.5219,236.6875 617.1625,236.8594 Q617.8188,237.0156 618.3656,237.375 Z "/><text fill="#000000" font-family="sans-serif" font-size="12" lengthAdjust="spacingAndGlyphs" textLength="55" x="633.4" y="246.4102">JugadorId</text><line style="stroke: #A80036; stroke-width: 1.5;" x1="584.5" x2="707.5" y1="257.5" y2="257.5"/><line style="stroke: #A80036; stroke-width: 1.5;" x1="584.5" x2="707.5" y1="265.5" y2="265.5"/><ellipse cx="594.5" cy="277.918" fill="#84BE84" rx="3" ry="3" style="stroke: #038048; stroke-width: 1.0;"/><text fill="#000000" font-family="sans-serif" font-size="11" lengthAdjust="spacingAndGlyphs" text-decoration="underline" textLength="99" x="603.5" y="280.9189">of(String): JugadorId</text></a><!--class co.com.sofka.cargame.domain.juego.values.Nombre--><a href="Nombre.html" target="_top" xlink:actuate="onRequest" xlink:show="new" xlink:title="Nombre.html" xlink:type="simple"><rect fill="#FEFECE" filter="url(#fosav3cl07bc9)" height="75.6719" id="co.com.sofka.cargame.domain.juego.values.Nombre" style="stroke: #A80036; stroke-width: 1.5;" width="99" x="449.5" y="218.5"/><ellipse cx="474.4" cy="234.5" fill="#ADD1B2" rx="11" ry="11" style="stroke: #A80036; stroke-width: 1.0;"/><path d="M477.1656,230.375 Q477.3219,230.1563 477.5094,230.0469 Q477.6969,229.9375 477.9156,229.9375 Q478.2906,229.9375 478.525,230.2031 Q478.7594,230.4531 478.7594,231.0625 L478.7594,232.5156 Q478.7594,233.125 478.525,233.3906 Q478.2906,233.6563 477.9156,233.6563 Q477.5719,233.6563 477.3688,233.4531 Q477.1656,233.2656 477.0563,232.75 Q477.0094,232.3906 476.8219,232.2031 Q476.4938,231.8281 475.8844,231.6094 Q475.275,231.3906 474.65,231.3906 Q473.8844,231.3906 473.2438,231.7188 Q472.6188,232.0469 472.1188,232.7969 Q471.6344,233.5469 471.6344,234.5781 L471.6344,235.6719 Q471.6344,236.9063 472.525,237.7344 Q473.4156,238.5469 475.0094,238.5469 Q475.9469,238.5469 476.6031,238.2969 Q476.9938,238.1406 477.4156,237.7031 Q477.6813,237.4375 477.8219,237.3594 Q477.9781,237.2813 478.1813,237.2813 Q478.5094,237.2813 478.7594,237.5469 Q479.025,237.7969 479.025,238.1406 Q479.025,238.4844 478.6813,238.8906 Q478.1813,239.4688 477.3844,239.7969 Q476.3063,240.25 475.0094,240.25 Q473.4938,240.25 472.2906,239.625 Q471.3063,239.125 470.6188,238.0625 Q469.9313,236.9844 469.9313,235.7031 L469.9313,234.5469 Q469.9313,233.2188 470.5406,232.0781 Q471.1656,230.9219 472.2594,230.3125 Q473.3531,229.6875 474.5875,229.6875 Q475.3219,229.6875 475.9625,229.8594 Q476.6188,230.0156 477.1656,230.375 Z "/><text fill="#000000" font-family="sans-serif" font-size="12" lengthAdjust="spacingAndGlyphs" textLength="45" x="490.6" y="239.4102">Nombre</text><line style="stroke: #A80036; stroke-width: 1.5;" x1="450.5" x2="547.5" y1="250.5" y2="250.5"/><line style="stroke: #A80036; stroke-width: 1.5;" x1="450.5" x2="547.5" y1="258.5" y2="258.5"/><ellipse cx="460.5" cy="270.918" fill="#84BE84" rx="3" ry="3" style="stroke: #038048; stroke-width: 1.0;"/><text fill="#000000" font-family="sans-serif" font-size="11" lengthAdjust="spacingAndGlyphs" textLength="73" x="469.5" y="273.9189">Nombre(String)</text><ellipse cx="460.5" cy="284.7539" fill="#84BE84" rx="3" ry="3" style="stroke: #038048; stroke-width: 1.0;"/><text fill="#000000" font-family="sans-serif" font-size="11" lengthAdjust="spacingAndGlyphs" textLength="68" x="469.5" y="287.7549">value(): String</text></a><!--class co.com.sofka.cargame.domain.juego.values.Pista--><a href="Pista.html" target="_top" xlink:actuate="onRequest" xlink:show="new" xlink:title="Pista.html" xlink:type="simple"><rect fill="#FEFECE" filter="url(#fosav3cl07bc9)" height="75.6719" id="co.com.sofka.cargame.domain.juego.values.Pista" style="stroke: #A80036; stroke-width: 1.5;" width="129" x="285.5" y="218.5"/><ellipse cx="331.75" cy="234.5" fill="#ADD1B2" rx="11" ry="11" style="stroke: #A80036; stroke-width: 1.0;"/><path d="M334.5156,230.375 Q334.6719,230.1563 334.8594,230.0469 Q335.0469,229.9375 335.2656,229.9375 Q335.6406,229.9375 335.875,230.2031 Q336.1094,230.4531 336.1094,231.0625 L336.1094,232.5156 Q336.1094,233.125 335.875,233.3906 Q335.6406,233.6563 335.2656,233.6563 Q334.9219,233.6563 334.7188,233.4531 Q334.5156,233.2656 334.4063,232.75 Q334.3594,232.3906 334.1719,232.2031 Q333.8438,231.8281 333.2344,231.6094 Q332.625,231.3906 332,231.3906 Q331.2344,231.3906 330.5938,231.7188 Q329.9688,232.0469 329.4688,232.7969 Q328.9844,233.5469 328.9844,234.5781 L328.9844,235.6719 Q328.9844,236.9063 329.875,237.7344 Q330.7656,238.5469 332.3594,238.5469 Q333.2969,238.5469 333.9531,238.2969 Q334.3438,238.1406 334.7656,237.7031 Q335.0313,237.4375 335.1719,237.3594 Q335.3281,237.2813 335.5313,237.2813 Q335.8594,237.2813 336.1094,237.5469 Q336.375,237.7969 336.375,238.1406 Q336.375,238.4844 336.0313,238.8906 Q335.5313,239.4688 334.7344,239.7969 Q333.6563,240.25 332.3594,240.25 Q330.8438,240.25 329.6406,239.625 Q328.6563,239.125 327.9688,238.0625 Q327.2813,236.9844 327.2813,235.7031 L327.2813,234.5469 Q327.2813,233.2188 327.8906,232.0781 Q328.5156,230.9219 329.6094,230.3125 Q330.7031,229.6875 331.9375,229.6875 Q332.6719,229.6875 333.3125,229.8594 Q333.9688,230.0156 334.5156,230.375 Z "/><text fill="#000000" font-family="sans-serif" font-size="12" lengthAdjust="spacingAndGlyphs" textLength="28" x="352.25" y="239.4102">Pista</text><line style="stroke: #A80036; stroke-width: 1.5;" x1="286.5" x2="413.5" y1="250.5" y2="250.5"/><line style="stroke: #A80036; stroke-width: 1.5;" x1="286.5" x2="413.5" y1="258.5" y2="258.5"/><ellipse cx="296.5" cy="270.918" fill="#84BE84" rx="3" ry="3" style="stroke: #038048; stroke-width: 1.0;"/><text fill="#000000" font-family="sans-serif" font-size="11" lengthAdjust="spacingAndGlyphs" textLength="103" x="305.5" y="273.9189">Pista(Integer, Integer)</text><ellipse cx="296.5" cy="284.7539" fill="#84BE84" rx="3" ry="3" style="stroke: #038048; stroke-width: 1.0;"/><text fill="#000000" font-family="sans-serif" font-size="11" lengthAdjust="spacingAndGlyphs" textLength="74" x="305.5" y="287.7549">value(): Values</text></a><!--class co.com.sofka.cargame.domain.juego.values.Pista.Values--><a href="Pista.Values.html" target="_top" xlink:actuate="onRequest" xlink:show="new" xlink:title="Pista.Values.html" xlink:type="simple"><rect fill="#FEFECE" filter="url(#fosav3cl07bc9)" height="75.6719" id="co.com.sofka.cargame.domain.juego.values.Pista.Values" style="stroke: #A80036; stroke-width: 1.5;" width="165" x="267.5" y="388.5"/><ellipse cx="311.75" cy="404.5" fill="#B4A7E5" rx="11" ry="11" style="stroke: #A80036; stroke-width: 1.0;"/><path d="M312.7031,401.1406 L312.7031,407.7969 L314.4219,407.7969 Q315.0313,407.7969 315.2969,408.0313 Q315.5625,408.2656 315.5625,408.6563 Q315.5625,409.0313 315.2969,409.2656 Q315.0313,409.5 314.4219,409.5 L309.2813,409.5 Q308.6719,409.5 308.4063,409.2656 Q308.1406,409.0313 308.1406,408.6406 Q308.1406,408.2656 308.4063,408.0313 Q308.6719,407.7969 309.2813,407.7969 L311,407.7969 L311,401.1406 L309.2813,401.1406 Q308.6719,401.1406 308.4063,400.9063 Q308.1406,400.6719 308.1406,400.2813 Q308.1406,399.9063 308.4063,399.6719 Q308.6719,399.4375 309.2813,399.4375 L314.4219,399.4375 Q315.0313,399.4375 315.2969,399.6719 Q315.5625,399.9063 315.5625,400.2813 Q315.5625,400.6719 315.2969,400.9063 Q315.0313,401.1406 314.4219,401.1406 L312.7031,401.1406 Z "/><text fill="#000000" font-family="sans-serif" font-size="12" font-style="italic" lengthAdjust="spacingAndGlyphs" textLength="68" x="332.25" y="409.4102">Pista.Values</text><line style="stroke: #A80036; stroke-width: 1.5;" x1="268.5" x2="431.5" y1="420.5" y2="420.5"/><line style="stroke: #A80036; stroke-width: 1.5;" x1="268.5" x2="431.5" y1="428.5" y2="428.5"/><ellipse cx="278.5" cy="440.918" fill="#84BE84" rx="3" ry="3" style="stroke: #038048; stroke-width: 1.0;"/><text fill="#000000" font-family="sans-serif" font-size="11" font-style="italic" lengthAdjust="spacingAndGlyphs" textLength="100" x="287.5" y="443.9189">kilometros(): Integer</text><ellipse cx="278.5" cy="454.7539" fill="#84BE84" rx="3" ry="3" style="stroke: #038048; stroke-width: 1.0;"/><text fill="#000000" font-family="sans-serif" font-size="11" font-style="italic" lengthAdjust="spacingAndGlyphs" textLength="139" x="287.5" y="457.7549">numeroDeCarriles(): Integer</text></a><!--class co.com.sofka.cargame.domain.juego.values.Podio--><a href="Podio.html" target="_top" xlink:actuate="onRequest" xlink:show="new" xlink:title="Podio.html" xlink:type="simple"><rect fill="#FEFECE" filter="url(#fosav3cl07bc9)" height="117.1797" id="co.com.sofka.cargame.domain.juego.values.Podio" style="stroke: #A80036; stroke-width: 1.5;" width="212" x="38" y="198"/><ellipse cx="123.75" cy="214" fill="#ADD1B2" rx="11" ry="11" style="stroke: #A80036; stroke-width: 1.0;"/><path d="M126.5156,209.875 Q126.6719,209.6563 126.8594,209.5469 Q127.0469,209.4375 127.2656,209.4375 Q127.6406,209.4375 127.875,209.7031 Q128.1094,209.9531 128.1094,210.5625 L128.1094,212.0156 Q128.1094,212.625 127.875,212.8906 Q127.6406,213.1563 127.2656,213.1563 Q126.9219,213.1563 126.7188,212.9531 Q126.5156,212.7656 126.4063,212.25 Q126.3594,211.8906 126.1719,211.7031 Q125.8438,211.3281 125.2344,211.1094 Q124.625,210.8906 124,210.8906 Q123.2344,210.8906 122.5938,211.2188 Q121.9688,211.5469 121.4688,212.2969 Q120.9844,213.0469 120.9844,214.0781 L120.9844,215.1719 Q120.9844,216.4063 121.875,217.2344 Q122.7656,218.0469 124.3594,218.0469 Q125.2969,218.0469 125.9531,217.7969 Q126.3438,217.6406 126.7656,217.2031 Q127.0313,216.9375 127.1719,216.8594 Q127.3281,216.7813 127.5313,216.7813 Q127.8594,216.7813 128.1094,217.0469 Q128.375,217.2969 128.375,217.6406 Q128.375,217.9844 128.0313,218.3906 Q127.5313,218.9688 126.7344,219.2969 Q125.6563,219.75 124.3594,219.75 Q122.8438,219.75 121.6406,219.125 Q120.6563,218.625 119.9688,217.5625 Q119.2813,216.4844 119.2813,215.2031 L119.2813,214.0469 Q119.2813,212.7188 119.8906,211.5781 Q120.5156,210.4219 121.6094,209.8125 Q122.7031,209.1875 123.9375,209.1875 Q124.6719,209.1875 125.3125,209.3594 Q125.9688,209.5156 126.5156,209.875 Z "/><text fill="#000000" font-family="sans-serif" font-size="12" lengthAdjust="spacingAndGlyphs" textLength="32" x="144.25" y="218.9102">Podio</text><line style="stroke: #A80036; stroke-width: 1.5;" x1="39" x2="249" y1="230" y2="230"/><line style="stroke: #A80036; stroke-width: 1.5;" x1="39" x2="249" y1="238" y2="238"/><ellipse cx="49" cy="250.418" fill="#84BE84" rx="3" ry="3" style="stroke: #038048; stroke-width: 1.0;"/><text fill="#000000" font-family="sans-serif" font-size="11" lengthAdjust="spacingAndGlyphs" textLength="34" x="58" y="253.4189">Podio()</text><ellipse cx="49" cy="264.2539" fill="#84BE84" rx="3" ry="3" style="stroke: #038048; stroke-width: 1.0;"/><text fill="#000000" font-family="sans-serif" font-size="11" lengthAdjust="spacingAndGlyphs" textLength="173" x="58" y="267.2549">asignarPrimerLugar(Jugador): Podio</text><ellipse cx="49" cy="278.0898" fill="#84BE84" rx="3" ry="3" style="stroke: #038048; stroke-width: 1.0;"/><text fill="#000000" font-family="sans-serif" font-size="11" lengthAdjust="spacingAndGlyphs" textLength="186" x="58" y="281.0908">asignarSegundoLugar(Jugador): Podio</text><ellipse cx="49" cy="291.9258" fill="#84BE84" rx="3" ry="3" style="stroke: #038048; stroke-width: 1.0;"/><text fill="#000000" font-family="sans-serif" font-size="11" lengthAdjust="spacingAndGlyphs" textLength="175" x="58" y="294.9268">asignarTercerLugar(Jugador): Podio</text><ellipse cx="49" cy="305.7617" fill="#84BE84" rx="3" ry="3" style="stroke: #038048; stroke-width: 1.0;"/><text fill="#000000" font-family="sans-serif" font-size="11" lengthAdjust="spacingAndGlyphs" textLength="68" x="58" y="308.7627">value(): Props</text></a><!--class co.com.sofka.cargame.domain.juego.values.Podio.Props--><a href="Podio.Props.html" target="_top" xlink:actuate="onRequest" xlink:show="new" xlink:title="Podio.Props.html" xlink:type="simple"><rect fill="#FEFECE" filter="url(#fosav3cl07bc9)" height="103.3438" id="co.com.sofka.cargame.domain.juego.values.Podio.Props" style="stroke: #A80036; stroke-width: 1.5;" width="150" x="69" y="375"/><ellipse cx="106.95" cy="391" fill="#B4A7E5" rx="11" ry="11" style="stroke: #A80036; stroke-width: 1.0;"/><path d="M107.9031,387.6406 L107.9031,394.2969 L109.6219,394.2969 Q110.2313,394.2969 110.4969,394.5313 Q110.7625,394.7656 110.7625,395.1563 Q110.7625,395.5313 110.4969,395.7656 Q110.2313,396 109.6219,396 L104.4813,396 Q103.8719,396 103.6063,395.7656 Q103.3406,395.5313 103.3406,395.1406 Q103.3406,394.7656 103.6063,394.5313 Q103.8719,394.2969 104.4813,394.2969 L106.2,394.2969 L106.2,387.6406 L104.4813,387.6406 Q103.8719,387.6406 103.6063,387.4063 Q103.3406,387.1719 103.3406,386.7813 Q103.3406,386.4063 103.6063,386.1719 Q103.8719,385.9375 104.4813,385.9375 L109.6219,385.9375 Q110.2313,385.9375 110.4969,386.1719 Q110.7625,386.4063 110.7625,386.7813 Q110.7625,387.1719 110.4969,387.4063 Q110.2313,387.6406 109.6219,387.6406 L107.9031,387.6406 Z "/><text fill="#000000" font-family="sans-serif" font-size="12" font-style="italic" lengthAdjust="spacingAndGlyphs" textLength="67" x="126.05" y="395.9102">Podio.Props</text><line style="stroke: #A80036; stroke-width: 1.5;" x1="70" x2="218" y1="407" y2="407"/><line style="stroke: #A80036; stroke-width: 1.5;" x1="70" x2="218" y1="415" y2="415"/><ellipse cx="80" cy="427.418" fill="#84BE84" rx="3" ry="3" style="stroke: #038048; stroke-width: 1.0;"/><text fill="#000000" font-family="sans-serif" font-size="11" font-style="italic" lengthAdjust="spacingAndGlyphs" textLength="114" x="89" y="430.4189">primerLugar(): Jugador</text><ellipse cx="80" cy="441.2539" fill="#84BE84" rx="3" ry="3" style="stroke: #038048; stroke-width: 1.0;"/><text fill="#000000" font-family="sans-serif" font-size="11" font-style="italic" lengthAdjust="spacingAndGlyphs" textLength="124" x="89" y="444.2549">segundoLugar(): Jugador</text><ellipse cx="80" cy="455.0898" fill="#84BE84" rx="3" ry="3" style="stroke: #038048; stroke-width: 1.0;"/><text fill="#000000" font-family="sans-serif" font-size="11" font-style="italic" lengthAdjust="spacingAndGlyphs" textLength="111" x="89" y="458.0908">tercerLugar(): Jugador</text><ellipse cx="80" cy="468.9258" fill="#84BE84" rx="3" ry="3" style="stroke: #038048; stroke-width: 1.0;"/><text fill="#000000" font-family="sans-serif" font-size="11" font-style="italic" lengthAdjust="spacingAndGlyphs" textLength="105" x="89" y="471.9268">estaLLeno(): Boolean</text></a><!--class co.com.sofka.domain.generic.Identity--><rect fill="#FEFECE" filter="url(#fosav3cl07bc9)" height="48" id="co.com.sofka.domain.generic.Identity" style="stroke: #A80036; stroke-width: 1.5;" width="70" x="590" y="67"/><ellipse cx="605" cy="83" fill="#ADD1B2" rx="11" ry="11" style="stroke: #A80036; stroke-width: 1.0;"/><path d="M607.7656,78.875 Q607.9219,78.6563 608.1094,78.5469 Q608.2969,78.4375 608.5156,78.4375 Q608.8906,78.4375 609.125,78.7031 Q609.3594,78.9531 609.3594,79.5625 L609.3594,81.0156 Q609.3594,81.625 609.125,81.8906 Q608.8906,82.1563 608.5156,82.1563 Q608.1719,82.1563 607.9688,81.9531 Q607.7656,81.7656 607.6563,81.25 Q607.6094,80.8906 607.4219,80.7031 Q607.0938,80.3281 606.4844,80.1094 Q605.875,79.8906 605.25,79.8906 Q604.4844,79.8906 603.8438,80.2188 Q603.2188,80.5469 602.7188,81.2969 Q602.2344,82.0469 602.2344,83.0781 L602.2344,84.1719 Q602.2344,85.4063 603.125,86.2344 Q604.0156,87.0469 605.6094,87.0469 Q606.5469,87.0469 607.2031,86.7969 Q607.5938,86.6406 608.0156,86.2031 Q608.2813,85.9375 608.4219,85.8594 Q608.5781,85.7813 608.7813,85.7813 Q609.1094,85.7813 609.3594,86.0469 Q609.625,86.2969 609.625,86.6406 Q609.625,86.9844 609.2813,87.3906 Q608.7813,87.9688 607.9844,88.2969 Q606.9063,88.75 605.6094,88.75 Q604.0938,88.75 602.8906,88.125 Q601.9063,87.625 601.2188,86.5625 Q600.5313,85.4844 600.5313,84.2031 L600.5313,83.0469 Q600.5313,81.7188 601.1406,80.5781 Q601.7656,79.4219 602.8594,78.8125 Q603.9531,78.1875 605.1875,78.1875 Q605.9219,78.1875 606.5625,78.3594 Q607.2188,78.5156 607.7656,78.875 Z "/><text fill="#000000" font-family="sans-serif" font-size="12" lengthAdjust="spacingAndGlyphs" textLength="38" x="619" y="87.9102">Identity</text><line style="stroke: #A80036; stroke-width: 1.5;" x1="591" x2="659" y1="99" y2="99"/><line style="stroke: #A80036; stroke-width: 1.5;" x1="591" x2="659" y1="107" y2="107"/><!--class co.com.sofka.domain.generic.ValueObject--><rect fill="#FEFECE" filter="url(#fosav3cl07bc9)" height="61.8359" id="co.com.sofka.domain.generic.ValueObject" style="stroke: #A80036; stroke-width: 1.5;" width="111" x="443.5" y="60"/><ellipse cx="458.5" cy="76" fill="#B4A7E5" rx="11" ry="11" style="stroke: #A80036; stroke-width: 1.0;"/><path d="M459.4531,72.6406 L459.4531,79.2969 L461.1719,79.2969 Q461.7813,79.2969 462.0469,79.5313 Q462.3125,79.7656 462.3125,80.1563 Q462.3125,80.5313 462.0469,80.7656 Q461.7813,81 461.1719,81 L456.0313,81 Q455.4219,81 455.1563,80.7656 Q454.8906,80.5313 454.8906,80.1406 Q454.8906,79.7656 455.1563,79.5313 Q455.4219,79.2969 456.0313,79.2969 L457.75,79.2969 L457.75,72.6406 L456.0313,72.6406 Q455.4219,72.6406 455.1563,72.4063 Q454.8906,72.1719 454.8906,71.7813 Q454.8906,71.4063 455.1563,71.1719 Q455.4219,70.9375 456.0313,70.9375 L461.1719,70.9375 Q461.7813,70.9375 462.0469,71.1719 Q462.3125,71.4063 462.3125,71.7813 Q462.3125,72.1719 462.0469,72.4063 Q461.7813,72.6406 461.1719,72.6406 L459.4531,72.6406 Z "/><text fill="#000000" font-family="sans-serif" font-size="12" font-style="italic" lengthAdjust="spacingAndGlyphs" textLength="68" x="472.5" y="80.9102">ValueObject</text><rect fill="#FFFFFF" height="17.0938" style="stroke: #000000; stroke-width: 1.0; stroke-dasharray: 2.0,2.0;" width="9" x="548.5" y="57"/><text fill="#000000" font-family="sans-serif" font-size="12" font-style="italic" lengthAdjust="spacingAndGlyphs" textLength="7" x="549.5" y="70.457">T</text><line style="stroke: #A80036; stroke-width: 1.5;" x1="444.5" x2="553.5" y1="92" y2="92"/><line style="stroke: #A80036; stroke-width: 1.5;" x1="444.5" x2="553.5" y1="100" y2="100"/><ellipse cx="454.5" cy="112.418" fill="#84BE84" rx="3" ry="3" style="stroke: #038048; stroke-width: 1.0;"/><text fill="#000000" font-family="sans-serif" font-size="11" font-style="italic" lengthAdjust="spacingAndGlyphs" textLength="47" x="463.5" y="115.4189">value(): T</text><!--link co.com.sofka.domain.generic.Identity to co.com.sofka.cargame.domain.juego.values.JuegoId--><path d="M677.91,119.28 C694.26,129.03 711.72,140.89 726,154 C746.5,172.81 765.12,197.94 778.68,218.49 " fill="none" id="co.com.sofka.domain.generic.Identity-co.com.sofka.cargame.domain.juego.values.JuegoId" style="stroke: #A80036; stroke-width: 1.0;"/><polygon fill="none" points="674.41,125.34,660.47,109.39,681.32,113.17,674.41,125.34" style="stroke: #A80036; stroke-width: 1.0;"/><!--link co.com.sofka.domain.generic.Identity to co.com.sofka.cargame.domain.juego.values.JugadorId--><path d="M630.56,135.32 C634.21,163.69 638.88,200.05 642.12,225.32 " fill="none" id="co.com.sofka.domain.generic.Identity-co.com.sofka.cargame.domain.juego.values.JugadorId" style="stroke: #A80036; stroke-width: 1.0;"/><polygon fill="none" points="623.57,135.81,627.96,115.08,637.46,134.02,623.57,135.81" style="stroke: #A80036; stroke-width: 1.0;"/><!--link co.com.sofka.domain.generic.ValueObject to co.com.sofka.cargame.domain.juego.values.Nombre--><path d="M499,142.51 C499,167.03 499,195.96 499,218.41 " fill="none" id="co.com.sofka.domain.generic.ValueObject-co.com.sofka.cargame.domain.juego.values.Nombre" style="stroke: #A80036; stroke-width: 1.0; stroke-dasharray: 7.0,7.0;"/><polygon fill="none" points="492,142.37,499,122.37,506,142.37,492,142.37" style="stroke: #A80036; stroke-width: 1.0;"/><!--link co.com.sofka.domain.generic.ValueObject to co.com.sofka.cargame.domain.juego.values.Pista--><path d="M449.75,136.04 C443.64,141.95 437.58,148.03 432,154 C412.97,174.35 393.3,198.58 377.99,218.26 " fill="none" id="co.com.sofka.domain.generic.ValueObject-co.com.sofka.cargame.domain.juego.values.Pista" style="stroke: #A80036; stroke-width: 1.0; stroke-dasharray: 7.0,7.0;"/><polygon fill="none" points="444.98,130.91,464.35,122.3,454.57,141.11,444.98,130.91" style="stroke: #A80036; stroke-width: 1.0;"/><!--link co.com.sofka.cargame.domain.juego.values.Pista to co.com.sofka.cargame.domain.juego.values.Pista.Values--><path d="M350,309.93 C350,335.35 350,365.28 350,388.32 " fill="none" id="co.com.sofka.cargame.domain.juego.values.Pista-co.com.sofka.cargame.domain.juego.values.Pista.Values" style="stroke: #A80036; stroke-width: 1.0;"/><ellipse cx="350" cy="302.78" fill="#FFFFFF" rx="8" ry="8" style="stroke: #A80036; stroke-width: 1.0;"/><line style="stroke: #A80036; stroke-width: 1.0;" x1="350" x2="350" y1="310.78" y2="294.78"/><line style="stroke: #A80036; stroke-width: 1.0;" x1="342" x2="358" y1="302.78" y2="302.78"/><!--link co.com.sofka.domain.generic.ValueObject to co.com.sofka.cargame.domain.juego.values.Podio--><path d="M423.67,103.85 C377.03,113.18 316.92,128.9 268,154 C245.48,165.56 223.3,181.72 204.06,197.76 " fill="none" id="co.com.sofka.domain.generic.ValueObject-co.com.sofka.cargame.domain.juego.values.Podio" style="stroke: #A80036; stroke-width: 1.0; stroke-dasharray: 7.0,7.0;"/><polygon fill="none" points="422.45,96.95,443.41,100.12,425.06,110.71,422.45,96.95" style="stroke: #A80036; stroke-width: 1.0;"/><!--link co.com.sofka.cargame.domain.juego.values.Podio to co.com.sofka.cargame.domain.juego.values.Podio.Props--><path d="M144,330.62 C144,345.55 144,360.94 144,374.87 " fill="none" id="co.com.sofka.cargame.domain.juego.values.Podio-co.com.sofka.cargame.domain.juego.values.Podio.Props" style="stroke: #A80036; stroke-width: 1.0;"/><ellipse cx="144" cy="323.32" fill="#FFFFFF" rx="8" ry="8" style="stroke: #A80036; stroke-width: 1.0;"/><line style="stroke: #A80036; stroke-width: 1.0;" x1="144" x2="144" y1="331.32" y2="315.32"/><line style="stroke: #A80036; stroke-width: 1.0;" x1="136" x2="152" y1="323.32" y2="323.32"/><text fill="#888888" font-family="sans-serif" font-size="10" lengthAdjust="spacingAndGlyphs" textLength="190" x="359.5" y="530.3809">UMLDoclet 2.0.10, PlantUML 1.2019.08</text><!--
@startuml
    namespace co.com.sofka.cargame.domain.juego.values {

        class JuegoId [[JuegoId.html]] {
            +JuegoId()
            {static} +of(String): JuegoId
        }

        class JugadorId [[JugadorId.html]] {
            {static} +of(String): JugadorId
        }

        class Nombre [[Nombre.html]] {
            +Nombre(String)
            +value(): String
        }

        class Pista [[Pista.html]] {
            +Pista(Integer, Integer)
            +value(): Values
        }

        interface co.com.sofka.cargame.domain.juego.values.Pista.Values [[Pista.Values.html]] {
            {abstract} +kilometros(): Integer
            {abstract} +numeroDeCarriles(): Integer
        }

        class Podio [[Podio.html]] {
            +Podio()
            +asignarPrimerLugar(Jugador): Podio
            +asignarSegundoLugar(Jugador): Podio
            +asignarTercerLugar(Jugador): Podio
            +value(): Props
        }

        interface co.com.sofka.cargame.domain.juego.values.Podio.Props [[Podio.Props.html]] {
            {abstract} +primerLugar(): Jugador
            {abstract} +segundoLugar(): Jugador
            {abstract} +tercerLugar(): Jugador
            {abstract} +estaLLeno(): Boolean
        }

        co.com.sofka.domain.generic.Identity <|- - JuegoId
        co.com.sofka.domain.generic.Identity <|- - JugadorId
        co.com.sofka.domain.generic.ValueObject <|.. Nombre
        co.com.sofka.domain.generic.ValueObject <|.. Pista
        Pista +- - co.com.sofka.cargame.domain.juego.values.Pista.Values
        co.com.sofka.domain.generic.ValueObject <|.. Podio
        Podio +- - co.com.sofka.cargame.domain.juego.values.Podio.Props
    }

    namespace co.com.sofka.domain.generic {
        class Identity {
        }
        interface ValueObject<T> {
            {abstract} +value(): T
        }
    }

    center footer UMLDoclet 2.0.10, PlantUML 1.2019.08
@enduml

PlantUML version 1.2019.08(Sat Jul 13 14:25:14 COT 2019)
(APACHE source distribution)
Java Runtime: Java(TM) SE Runtime Environment
JVM: Java HotSpot(TM) 64-Bit Server VM
Java Version: 11.0.11+9-LTS-194
Operating System: Windows 10
OS Version: 10.0
Default Encoding: Cp1252
Language: es
Country: CO
--></g></svg>