<?xml version="1.0" encoding="UTF-8" standalone="no"?><svg xmlns="http://www.w3.org/2000/svg" xmlns:xlink="http://www.w3.org/1999/xlink" contentScriptType="application/ecmascript" contentStyleType="text/css" height="339px" preserveAspectRatio="none" style="width:258px;height:339px;" version="1.1" viewBox="0 0 258 339" width="258px" zoomAndPan="magnify"><defs><filter height="300%" id="fkzw941lurkzj" width="300%" x="-1" y="-1"><feGaussianBlur result="blurOut" stdDeviation="2.0"/><feColorMatrix in="blurOut" result="blurOut2" type="matrix" values="0 0 0 0 0 0 0 0 0 0 0 0 0 0 0 0 0 0 .4 0"/><feOffset dx="4.0" dy="4.0" in="blurOut2" result="blurOut3"/><feBlend in="SourceGraphic" in2="blurOut3" mode="normal"/></filter></defs><g><!--class co.com.sofka.cargame.domain.juego.values.Pista--><a href="Pista.html" target="_top" xlink:actuate="onRequest" xlink:show="new" xlink:title="Pista.html" xlink:type="simple"><rect fill="#FEFECE" filter="url(#fkzw941lurkzj)" height="75.8594" id="co.com.sofka.cargame.domain.juego.values.Pista" style="stroke: #A80036; stroke-width: 1.5;" width="241" x="6" y="130"/><ellipse cx="21" cy="150.0938" fill="#ADD1B2" rx="11" ry="11" style="stroke: #A80036; stroke-width: 1.0;"/><path d="M23.7656,145.9688 Q23.9219,145.75 24.1094,145.6406 Q24.2969,145.5313 24.5156,145.5313 Q24.8906,145.5313 25.125,145.7969 Q25.3594,146.0469 25.3594,146.6563 L25.3594,148.1094 Q25.3594,148.7188 25.125,148.9844 Q24.8906,149.25 24.5156,149.25 Q24.1719,149.25 23.9688,149.0469 Q23.7656,148.8594 23.6563,148.3438 Q23.6094,147.9844 23.4219,147.7969 Q23.0938,147.4219 22.4844,147.2031 Q21.875,146.9844 21.25,146.9844 Q20.4844,146.9844 19.8438,147.3125 Q19.2188,147.6406 18.7188,148.3906 Q18.2344,149.1406 18.2344,150.1719 L18.2344,151.2656 Q18.2344,152.5 19.125,153.3281 Q20.0156,154.1406 21.6094,154.1406 Q22.5469,154.1406 23.2031,153.8906 Q23.5938,153.7344 24.0156,153.2969 Q24.2813,153.0313 24.4219,152.9531 Q24.5781,152.875 24.7813,152.875 Q25.1094,152.875 25.3594,153.1406 Q25.625,153.3906 25.625,153.7344 Q25.625,154.0781 25.2813,154.4844 Q24.7813,155.0625 23.9844,155.3906 Q22.9063,155.8438 21.6094,155.8438 Q20.0938,155.8438 18.8906,155.2188 Q17.9063,154.7188 17.2188,153.6563 Q16.5313,152.5781 16.5313,151.2969 L16.5313,150.1406 Q16.5313,148.8125 17.1406,147.6719 Q17.7656,146.5156 18.8594,145.9063 Q19.9531,145.2813 21.1875,145.2813 Q21.9219,145.2813 22.5625,145.4531 Q23.2188,145.6094 23.7656,145.9688 Z "/><text fill="#000000" font-family="sans-serif" font-size="14" lengthAdjust="spacingAndGlyphs" textLength="31" x="124" y="149.5332">Pista</text><text fill="#000000" font-family="sans-serif" font-size="10" lengthAdjust="spacingAndGlyphs" textLength="209" x="35" y="162.9902">co.com.sofka.cargame.domain.juego.values</text><line style="stroke: #A80036; stroke-width: 1.5;" x1="7" x2="246" y1="170.1875" y2="170.1875"/><ellipse cx="17" cy="182.6055" fill="#84BE84" rx="3" ry="3" style="stroke: #038048; stroke-width: 1.0;"/><text fill="#000000" font-family="sans-serif" font-size="11" lengthAdjust="spacingAndGlyphs" textLength="103" x="26" y="185.6064">Pista(Integer, Integer)</text><ellipse cx="17" cy="196.4414" fill="#84BE84" rx="3" ry="3" style="stroke: #038048; stroke-width: 1.0;"/><text fill="#000000" font-family="sans-serif" font-size="11" lengthAdjust="spacingAndGlyphs" textLength="74" x="26" y="199.4424">value(): Values</text></a><!--class co.com.sofka.domain.generic.ValueObject--><rect fill="#FEFECE" filter="url(#fkzw941lurkzj)" height="62.0234" id="co.com.sofka.domain.generic.ValueObject" style="stroke: #A80036; stroke-width: 1.5;" width="209" x="22" y="8"/><ellipse cx="37" cy="28.0938" fill="#B4A7E5" rx="11" ry="11" style="stroke: #A80036; stroke-width: 1.0;"/><path d="M37.9531,24.7344 L37.9531,31.3906 L39.6719,31.3906 Q40.2813,31.3906 40.5469,31.625 Q40.8125,31.8594 40.8125,32.25 Q40.8125,32.625 40.5469,32.8594 Q40.2813,33.0938 39.6719,33.0938 L34.5313,33.0938 Q33.9219,33.0938 33.6563,32.8594 Q33.3906,32.625 33.3906,32.2344 Q33.3906,31.8594 33.6563,31.625 Q33.9219,31.3906 34.5313,31.3906 L36.25,31.3906 L36.25,24.7344 L34.5313,24.7344 Q33.9219,24.7344 33.6563,24.5 Q33.3906,24.2656 33.3906,23.875 Q33.3906,23.5 33.6563,23.2656 Q33.9219,23.0313 34.5313,23.0313 L39.6719,23.0313 Q40.2813,23.0313 40.5469,23.2656 Q40.8125,23.5 40.8125,23.875 Q40.8125,24.2656 40.5469,24.5 Q40.2813,24.7344 39.6719,24.7344 L37.9531,24.7344 Z "/><text fill="#000000" font-family="sans-serif" font-size="14" font-style="italic" lengthAdjust="spacingAndGlyphs" textLength="77" x="80" y="27.5332">ValueObject</text><text fill="#000000" font-family="sans-serif" font-size="10" font-style="italic" lengthAdjust="spacingAndGlyphs" textLength="135" x="51" y="40.9902">co.com.sofka.domain.generic</text><rect fill="#FFFFFF" height="17.0938" style="stroke: #000000; stroke-width: 1.0; stroke-dasharray: 2.0,2.0;" width="40" x="194" y="5"/><text fill="#000000" font-family="sans-serif" font-size="12" font-style="italic" lengthAdjust="spacingAndGlyphs" textLength="38" x="195" y="18.457">Values</text><line style="stroke: #A80036; stroke-width: 1.5;" x1="23" x2="230" y1="48.1875" y2="48.1875"/><ellipse cx="33" cy="60.6055" fill="#84BE84" rx="3" ry="3" style="stroke: #038048; stroke-width: 1.0;"/><text fill="#000000" font-family="sans-serif" font-size="11" font-style="italic" lengthAdjust="spacingAndGlyphs" textLength="74" x="42" y="63.6064">value(): Values</text><!--class co.com.sofka.cargame.domain.juego.values.Pista.Values--><a href="Pista.Values.html" target="_top" xlink:actuate="onRequest" xlink:show="new" xlink:title="Pista.Values.html" xlink:type="simple"><rect fill="#FEFECE" filter="url(#fkzw941lurkzj)" height="40.1875" id="co.com.sofka.cargame.domain.juego.values.Pista.Values" style="stroke: #A80036; stroke-width: 1.5;" width="234" x="9.5" y="266"/><ellipse cx="24.5" cy="286.0938" fill="#B4A7E5" rx="11" ry="11" style="stroke: #A80036; stroke-width: 1.0;"/><path d="M25.4531,282.7344 L25.4531,289.3906 L27.1719,289.3906 Q27.7813,289.3906 28.0469,289.625 Q28.3125,289.8594 28.3125,290.25 Q28.3125,290.625 28.0469,290.8594 Q27.7813,291.0938 27.1719,291.0938 L22.0313,291.0938 Q21.4219,291.0938 21.1563,290.8594 Q20.8906,290.625 20.8906,290.2344 Q20.8906,289.8594 21.1563,289.625 Q21.4219,289.3906 22.0313,289.3906 L23.75,289.3906 L23.75,282.7344 L22.0313,282.7344 Q21.4219,282.7344 21.1563,282.5 Q20.8906,282.2656 20.8906,281.875 Q20.8906,281.5 21.1563,281.2656 Q21.4219,281.0313 22.0313,281.0313 L27.1719,281.0313 Q27.7813,281.0313 28.0469,281.2656 Q28.3125,281.5 28.3125,281.875 Q28.3125,282.2656 28.0469,282.5 Q27.7813,282.7344 27.1719,282.7344 L25.4531,282.7344 Z "/><text fill="#000000" font-family="sans-serif" font-size="14" font-style="italic" lengthAdjust="spacingAndGlyphs" textLength="78" x="100.5" y="285.5332">Pista.Values</text><text fill="#000000" font-family="sans-serif" font-size="10" font-style="italic" lengthAdjust="spacingAndGlyphs" textLength="202" x="38.5" y="298.9902">co.com.sofka.cargame.domain.juego.values</text></a><!--link co.com.sofka.domain.generic.ValueObject to co.com.sofka.cargame.domain.juego.values.Pista--><path d="M126.5,90.43 C126.5,103.59 126.5,117.53 126.5,129.86 " fill="none" id="co.com.sofka.domain.generic.ValueObject-co.com.sofka.cargame.domain.juego.values.Pista" style="stroke: #A80036; stroke-width: 1.0; stroke-dasharray: 7.0,7.0;"/><polygon fill="none" points="119.5,90.1,126.5,70.1,133.5,90.1,119.5,90.1" style="stroke: #A80036; stroke-width: 1.0;"/><!--link co.com.sofka.cargame.domain.juego.values.Pista to co.com.sofka.cargame.domain.juego.values.Pista.Values--><path d="M126.5,221.48 C126.5,237.29 126.5,253.66 126.5,265.82 " fill="none" id="co.com.sofka.cargame.domain.juego.values.Pista-co.com.sofka.cargame.domain.juego.values.Pista.Values" style="stroke: #A80036; stroke-width: 1.0;"/><ellipse cx="126.5" cy="214.02" fill="#FFFFFF" rx="8" ry="8" style="stroke: #A80036; stroke-width: 1.0;"/><line style="stroke: #A80036; stroke-width: 1.0;" x1="126.5" x2="126.5" y1="222.02" y2="206.02"/><line style="stroke: #A80036; stroke-width: 1.0;" x1="118.5" x2="134.5" y1="214.02" y2="214.02"/><text fill="#888888" font-family="sans-serif" font-size="10" lengthAdjust="spacingAndGlyphs" textLength="190" x="37.5" y="326.3809">UMLDoclet 2.0.10, PlantUML 1.2019.08</text><!--
@startuml
    set namespaceSeparator none
    hide empty fields
    hide empty methods

    class "<size:14>Pista\n<size:10>co.com.sofka.cargame.domain.juego.values" as co.com.sofka.cargame.domain.juego.values.Pista [[Pista.html]] {
        +Pista(Integer, Integer)
        +value(): Values
    }

    interface "<size:14>ValueObject\n<size:10>co.com.sofka.domain.generic" as co.com.sofka.domain.generic.ValueObject<Values> {
        {abstract} +value(): Values
    }
    interface "<size:14>Pista.Values\n<size:10>co.com.sofka.cargame.domain.juego.values" as co.com.sofka.cargame.domain.juego.values.Pista.Values [[Pista.Values.html]]

    co.com.sofka.domain.generic.ValueObject <|.. co.com.sofka.cargame.domain.juego.values.Pista
    co.com.sofka.cargame.domain.juego.values.Pista +- - co.com.sofka.cargame.domain.juego.values.Pista.Values

    center footer UMLDoclet 2.0.10, PlantUML 1.2019.08
@enduml

PlantUML version 1.2019.08(Sat Jul 13 14:25:14 COT 2019)
(APACHE source distribution)
Java Runtime: Java(TM) SE Runtime Environment
JVM: Java HotSpot(TM) 64-Bit Server VM
Java Version: 11.0.11+9-LTS-194
Operating System: Windows 10
OS Version: 10.0
Default Encoding: Cp1252
Language: es
Country: CO
--></g></svg>