<?xml version="1.0" encoding="UTF-8" standalone="no"?><svg xmlns="http://www.w3.org/2000/svg" xmlns:xlink="http://www.w3.org/1999/xlink" contentScriptType="application/ecmascript" contentStyleType="text/css" height="217px" preserveAspectRatio="none" style="width:258px;height:217px;" version="1.1" viewBox="0 0 258 217" width="258px" zoomAndPan="magnify"><defs><filter height="300%" id="f1jsttj159eoj7" width="300%" x="-1" y="-1"><feGaussianBlur result="blurOut" stdDeviation="2.0"/><feColorMatrix in="blurOut" result="blurOut2" type="matrix" values="0 0 0 0 0 0 0 0 0 0 0 0 0 0 0 0 0 0 .4 0"/><feOffset dx="4.0" dy="4.0" in="blurOut2" result="blurOut3"/><feBlend in="SourceGraphic" in2="blurOut3" mode="normal"/></filter></defs><g><!--class co.com.sofka.cargame.domain.juego.events.JuegoCreado--><a href="JuegoCreado.html" target="_top" xlink:actuate="onRequest" xlink:show="new" xlink:title="JuegoCreado.html" xlink:type="simple"><rect fill="#FEFECE" filter="url(#f1jsttj159eoj7)" height="75.8594" id="co.com.sofka.cargame.domain.juego.events.JuegoCreado" style="stroke: #A80036; stroke-width: 1.5;" width="241" x="6" y="108"/><ellipse cx="21" cy="128.0938" fill="#ADD1B2" rx="11" ry="11" style="stroke: #A80036; stroke-width: 1.0;"/><path d="M23.7656,123.9688 Q23.9219,123.75 24.1094,123.6406 Q24.2969,123.5313 24.5156,123.5313 Q24.8906,123.5313 25.125,123.7969 Q25.3594,124.0469 25.3594,124.6563 L25.3594,126.1094 Q25.3594,126.7188 25.125,126.9844 Q24.8906,127.25 24.5156,127.25 Q24.1719,127.25 23.9688,127.0469 Q23.7656,126.8594 23.6563,126.3438 Q23.6094,125.9844 23.4219,125.7969 Q23.0938,125.4219 22.4844,125.2031 Q21.875,124.9844 21.25,124.9844 Q20.4844,124.9844 19.8438,125.3125 Q19.2188,125.6406 18.7188,126.3906 Q18.2344,127.1406 18.2344,128.1719 L18.2344,129.2656 Q18.2344,130.5 19.125,131.3281 Q20.0156,132.1406 21.6094,132.1406 Q22.5469,132.1406 23.2031,131.8906 Q23.5938,131.7344 24.0156,131.2969 Q24.2813,131.0313 24.4219,130.9531 Q24.5781,130.875 24.7813,130.875 Q25.1094,130.875 25.3594,131.1406 Q25.625,131.3906 25.625,131.7344 Q25.625,132.0781 25.2813,132.4844 Q24.7813,133.0625 23.9844,133.3906 Q22.9063,133.8438 21.6094,133.8438 Q20.0938,133.8438 18.8906,133.2188 Q17.9063,132.7188 17.2188,131.6563 Q16.5313,130.5781 16.5313,129.2969 L16.5313,128.1406 Q16.5313,126.8125 17.1406,125.6719 Q17.7656,124.5156 18.8594,123.9063 Q19.9531,123.2813 21.1875,123.2813 Q21.9219,123.2813 22.5625,123.4531 Q23.2188,123.6094 23.7656,123.9688 Z "/><text fill="#000000" font-family="sans-serif" font-size="14" lengthAdjust="spacingAndGlyphs" textLength="85" x="97" y="127.5332">JuegoCreado</text><text fill="#000000" font-family="sans-serif" font-size="10" lengthAdjust="spacingAndGlyphs" textLength="209" x="35" y="140.9902">co.com.sofka.cargame.domain.juego.events</text><line style="stroke: #A80036; stroke-width: 1.5;" x1="7" x2="246" y1="148.1875" y2="148.1875"/><ellipse cx="17" cy="160.6055" fill="#84BE84" rx="3" ry="3" style="stroke: #038048; stroke-width: 1.0;"/><text fill="#000000" font-family="sans-serif" font-size="11" lengthAdjust="spacingAndGlyphs" textLength="95" x="26" y="163.6064">JuegoCreado(Pista)</text><ellipse cx="17" cy="174.4414" fill="#84BE84" rx="3" ry="3" style="stroke: #038048; stroke-width: 1.0;"/><text fill="#000000" font-family="sans-serif" font-size="11" lengthAdjust="spacingAndGlyphs" textLength="75" x="26" y="177.4424">getPista(): Pista</text></a><!--class co.com.sofka.domain.generic.DomainEvent--><rect fill="#FEFECE" filter="url(#f1jsttj159eoj7)" height="40.1875" id="co.com.sofka.domain.generic.DomainEvent" style="stroke: #A80036; stroke-width: 1.5;" width="167" x="43" y="8"/><ellipse cx="58" cy="28.0938" fill="#A9DCDF" rx="11" ry="11" style="stroke: #A80036; stroke-width: 1.0;"/><path d="M60.1875,29.8594 L56.0469,29.8594 L55.625,30.8906 L56.0469,30.8906 Q56.6563,30.8906 56.9219,31.125 Q57.1875,31.3594 57.1875,31.75 Q57.1875,32.125 56.9219,32.3594 Q56.6563,32.5938 56.0469,32.5938 L53.75,32.5938 Q53.1406,32.5938 52.8906,32.3594 Q52.625,32.125 52.625,31.7344 Q52.625,31.3594 52.9063,31.125 Q53.1719,30.875 53.7969,30.8906 L56.4688,24.2344 L55.3594,24.2344 Q54.75,24.2344 54.4844,24 Q54.2188,23.7656 54.2188,23.375 Q54.2188,23 54.4844,22.7656 Q54.75,22.5313 55.3594,22.5313 L59.0313,22.5313 L62.4219,30.8906 Q63.0156,30.8906 63.2031,31.0313 Q63.5938,31.2969 63.5938,31.75 Q63.5938,32.125 63.3281,32.3594 Q63.0781,32.5938 62.4688,32.5938 L60.1719,32.5938 Q59.5625,32.5938 59.2969,32.3594 Q59.0313,32.125 59.0313,31.7344 Q59.0313,31.3594 59.2969,31.125 Q59.5625,30.8906 60.1719,30.8906 L60.5938,30.8906 L60.1875,29.8594 Z M59.4688,28.1563 L58.1094,24.7813 L56.7344,28.1563 L59.4688,28.1563 Z "/><text fill="#000000" font-family="sans-serif" font-size="14" font-style="italic" lengthAdjust="spacingAndGlyphs" textLength="83" x="98" y="27.5332">DomainEvent</text><text fill="#000000" font-family="sans-serif" font-size="10" font-style="italic" lengthAdjust="spacingAndGlyphs" textLength="135" x="72" y="40.9902">co.com.sofka.domain.generic</text><!--link co.com.sofka.domain.generic.DomainEvent to co.com.sofka.cargame.domain.juego.events.JuegoCreado--><path d="M126.5,68.49 C126.5,81.27 126.5,95.39 126.5,107.99 " fill="none" id="co.com.sofka.domain.generic.DomainEvent-co.com.sofka.cargame.domain.juego.events.JuegoCreado" style="stroke: #A80036; stroke-width: 1.0;"/><polygon fill="none" points="119.5,68.16,126.5,48.16,133.5,68.16,119.5,68.16" style="stroke: #A80036; stroke-width: 1.0;"/><text fill="#888888" font-family="sans-serif" font-size="10" lengthAdjust="spacingAndGlyphs" textLength="190" x="37.5" y="204.3809">UMLDoclet 2.0.10, PlantUML 1.2019.08</text><!--
@startuml
    set namespaceSeparator none
    hide empty fields
    hide empty methods

    class "<size:14>JuegoCreado\n<size:10>co.com.sofka.cargame.domain.juego.events" as co.com.sofka.cargame.domain.juego.events.JuegoCreado [[JuegoCreado.html]] {
        +JuegoCreado(Pista)
        +getPista(): Pista
    }

    abstract class "<size:14>DomainEvent\n<size:10>co.com.sofka.domain.generic" as co.com.sofka.domain.generic.DomainEvent

    co.com.sofka.domain.generic.DomainEvent <|- - co.com.sofka.cargame.domain.juego.events.JuegoCreado

    center footer UMLDoclet 2.0.10, PlantUML 1.2019.08
@enduml

PlantUML version 1.2019.08(Sat Jul 13 14:25:14 COT 2019)
(APACHE source distribution)
Java Runtime: Java(TM) SE Runtime Environment
JVM: Java HotSpot(TM) 64-Bit Server VM
Java Version: 11.0.11+9-LTS-194
Operating System: Windows 10
OS Version: 10.0
Default Encoding: Cp1252
Language: es
Country: CO
--></g></svg>