<?xml version="1.0" encoding="UTF-8" standalone="no"?><svg xmlns="http://www.w3.org/2000/svg" xmlns:xlink="http://www.w3.org/1999/xlink" contentScriptType="application/ecmascript" contentStyleType="text/css" height="217px" preserveAspectRatio="none" style="width:386px;height:217px;" version="1.1" viewBox="0 0 386 217" width="386px" zoomAndPan="magnify"><defs><filter height="300%" id="fcer9au4ya5hg" width="300%" x="-1" y="-1"><feGaussianBlur result="blurOut" stdDeviation="2.0"/><feColorMatrix in="blurOut" result="blurOut2" type="matrix" values="0 0 0 0 0 0 0 0 0 0 0 0 0 0 0 0 0 0 .4 0"/><feOffset dx="4.0" dy="4.0" in="blurOut2" result="blurOut3"/><feBlend in="SourceGraphic" in2="blurOut3" mode="normal"/></filter></defs><g><!--class co.com.sofka.cargame.domain.juego.events.JuegoFinalizado--><a href="JuegoFinalizado.html" target="_top" xlink:actuate="onRequest" xlink:show="new" xlink:title="JuegoFinalizado.html" xlink:type="simple"><rect fill="#FEFECE" filter="url(#fcer9au4ya5hg)" height="75.8594" id="co.com.sofka.cargame.domain.juego.events.JuegoFinalizado" style="stroke: #A80036; stroke-width: 1.5;" width="241" x="70" y="108"/><ellipse cx="85" cy="128.0938" fill="#ADD1B2" rx="11" ry="11" style="stroke: #A80036; stroke-width: 1.0;"/><path d="M87.7656,123.9688 Q87.9219,123.75 88.1094,123.6406 Q88.2969,123.5313 88.5156,123.5313 Q88.8906,123.5313 89.125,123.7969 Q89.3594,124.0469 89.3594,124.6563 L89.3594,126.1094 Q89.3594,126.7188 89.125,126.9844 Q88.8906,127.25 88.5156,127.25 Q88.1719,127.25 87.9688,127.0469 Q87.7656,126.8594 87.6563,126.3438 Q87.6094,125.9844 87.4219,125.7969 Q87.0938,125.4219 86.4844,125.2031 Q85.875,124.9844 85.25,124.9844 Q84.4844,124.9844 83.8438,125.3125 Q83.2188,125.6406 82.7188,126.3906 Q82.2344,127.1406 82.2344,128.1719 L82.2344,129.2656 Q82.2344,130.5 83.125,131.3281 Q84.0156,132.1406 85.6094,132.1406 Q86.5469,132.1406 87.2031,131.8906 Q87.5938,131.7344 88.0156,131.2969 Q88.2813,131.0313 88.4219,130.9531 Q88.5781,130.875 88.7813,130.875 Q89.1094,130.875 89.3594,131.1406 Q89.625,131.3906 89.625,131.7344 Q89.625,132.0781 89.2813,132.4844 Q88.7813,133.0625 87.9844,133.3906 Q86.9063,133.8438 85.6094,133.8438 Q84.0938,133.8438 82.8906,133.2188 Q81.9063,132.7188 81.2188,131.6563 Q80.5313,130.5781 80.5313,129.2969 L80.5313,128.1406 Q80.5313,126.8125 81.1406,125.6719 Q81.7656,124.5156 82.8594,123.9063 Q83.9531,123.2813 85.1875,123.2813 Q85.9219,123.2813 86.5625,123.4531 Q87.2188,123.6094 87.7656,123.9688 Z "/><text fill="#000000" font-family="sans-serif" font-size="14" lengthAdjust="spacingAndGlyphs" textLength="102" x="152.5" y="127.5332">JuegoFinalizado</text><text fill="#000000" font-family="sans-serif" font-size="10" lengthAdjust="spacingAndGlyphs" textLength="209" x="99" y="140.9902">co.com.sofka.cargame.domain.juego.events</text><line style="stroke: #A80036; stroke-width: 1.5;" x1="71" x2="310" y1="148.1875" y2="148.1875"/><ellipse cx="81" cy="160.6055" fill="#84BE84" rx="3" ry="3" style="stroke: #038048; stroke-width: 1.0;"/><text fill="#000000" font-family="sans-serif" font-size="11" lengthAdjust="spacingAndGlyphs" textLength="111" x="90" y="163.6064">JuegoFinalizado(Podio)</text><ellipse cx="81" cy="174.4414" fill="#84BE84" rx="3" ry="3" style="stroke: #038048; stroke-width: 1.0;"/><text fill="#000000" font-family="sans-serif" font-size="11" lengthAdjust="spacingAndGlyphs" textLength="81" x="90" y="177.4424">getPodio(): Podio</text></a><!--class co.com.sofka.domain.generic.DomainEvent--><rect fill="#FEFECE" filter="url(#fcer9au4ya5hg)" height="40.1875" id="co.com.sofka.domain.generic.DomainEvent" style="stroke: #A80036; stroke-width: 1.5;" width="167" x="6" y="8"/><ellipse cx="21" cy="28.0938" fill="#A9DCDF" rx="11" ry="11" style="stroke: #A80036; stroke-width: 1.0;"/><path d="M23.1875,29.8594 L19.0469,29.8594 L18.625,30.8906 L19.0469,30.8906 Q19.6563,30.8906 19.9219,31.125 Q20.1875,31.3594 20.1875,31.75 Q20.1875,32.125 19.9219,32.3594 Q19.6563,32.5938 19.0469,32.5938 L16.75,32.5938 Q16.1406,32.5938 15.8906,32.3594 Q15.625,32.125 15.625,31.7344 Q15.625,31.3594 15.9063,31.125 Q16.1719,30.875 16.7969,30.8906 L19.4688,24.2344 L18.3594,24.2344 Q17.75,24.2344 17.4844,24 Q17.2188,23.7656 17.2188,23.375 Q17.2188,23 17.4844,22.7656 Q17.75,22.5313 18.3594,22.5313 L22.0313,22.5313 L25.4219,30.8906 Q26.0156,30.8906 26.2031,31.0313 Q26.5938,31.2969 26.5938,31.75 Q26.5938,32.125 26.3281,32.3594 Q26.0781,32.5938 25.4688,32.5938 L23.1719,32.5938 Q22.5625,32.5938 22.2969,32.3594 Q22.0313,32.125 22.0313,31.7344 Q22.0313,31.3594 22.2969,31.125 Q22.5625,30.8906 23.1719,30.8906 L23.5938,30.8906 L23.1875,29.8594 Z M22.4688,28.1563 L21.1094,24.7813 L19.7344,28.1563 L22.4688,28.1563 Z "/><text fill="#000000" font-family="sans-serif" font-size="14" font-style="italic" lengthAdjust="spacingAndGlyphs" textLength="83" x="61" y="27.5332">DomainEvent</text><text fill="#000000" font-family="sans-serif" font-size="10" font-style="italic" lengthAdjust="spacingAndGlyphs" textLength="135" x="35" y="40.9902">co.com.sofka.domain.generic</text><!--class co.com.sofka.domain.generic.Incremental--><rect fill="#FEFECE" filter="url(#fcer9au4ya5hg)" height="40.1875" id="co.com.sofka.domain.generic.Incremental" style="stroke: #A80036; stroke-width: 1.5;" width="167" x="208" y="8"/><ellipse cx="223" cy="28.0938" fill="#B4A7E5" rx="11" ry="11" style="stroke: #A80036; stroke-width: 1.0;"/><path d="M223.9531,24.7344 L223.9531,31.3906 L225.6719,31.3906 Q226.2813,31.3906 226.5469,31.625 Q226.8125,31.8594 226.8125,32.25 Q226.8125,32.625 226.5469,32.8594 Q226.2813,33.0938 225.6719,33.0938 L220.5313,33.0938 Q219.9219,33.0938 219.6563,32.8594 Q219.3906,32.625 219.3906,32.2344 Q219.3906,31.8594 219.6563,31.625 Q219.9219,31.3906 220.5313,31.3906 L222.25,31.3906 L222.25,24.7344 L220.5313,24.7344 Q219.9219,24.7344 219.6563,24.5 Q219.3906,24.2656 219.3906,23.875 Q219.3906,23.5 219.6563,23.2656 Q219.9219,23.0313 220.5313,23.0313 L225.6719,23.0313 Q226.2813,23.0313 226.5469,23.2656 Q226.8125,23.5 226.8125,23.875 Q226.8125,24.2656 226.5469,24.5 Q226.2813,24.7344 225.6719,24.7344 L223.9531,24.7344 Z "/><text fill="#000000" font-family="sans-serif" font-size="14" font-style="italic" lengthAdjust="spacingAndGlyphs" textLength="74" x="267.5" y="27.5332">Incremental</text><text fill="#000000" font-family="sans-serif" font-size="10" font-style="italic" lengthAdjust="spacingAndGlyphs" textLength="135" x="237" y="40.9902">co.com.sofka.domain.generic</text><!--link co.com.sofka.domain.generic.DomainEvent to co.com.sofka.cargame.domain.juego.events.JuegoFinalizado--><path d="M119.42,63.37 C131.65,77.41 145.82,93.68 158.27,107.99 " fill="none" id="co.com.sofka.domain.generic.DomainEvent-co.com.sofka.cargame.domain.juego.events.JuegoFinalizado" style="stroke: #A80036; stroke-width: 1.0;"/><polygon fill="none" points="114.03,67.84,106.18,48.16,124.59,58.64,114.03,67.84" style="stroke: #A80036; stroke-width: 1.0;"/><!--link co.com.sofka.domain.generic.Incremental to co.com.sofka.cargame.domain.juego.events.JuegoFinalizado--><path d="M261.58,63.37 C249.35,77.41 235.18,93.68 222.73,107.99 " fill="none" id="co.com.sofka.domain.generic.Incremental-co.com.sofka.cargame.domain.juego.events.JuegoFinalizado" style="stroke: #A80036; stroke-width: 1.0; stroke-dasharray: 7.0,7.0;"/><polygon fill="none" points="256.41,58.64,274.82,48.16,266.97,67.84,256.41,58.64" style="stroke: #A80036; stroke-width: 1.0;"/><text fill="#888888" font-family="sans-serif" font-size="10" lengthAdjust="spacingAndGlyphs" textLength="190" x="101.5" y="204.3809">UMLDoclet 2.0.10, PlantUML 1.2019.08</text><!--
@startuml
    set namespaceSeparator none
    hide empty fields
    hide empty methods

    class "<size:14>JuegoFinalizado\n<size:10>co.com.sofka.cargame.domain.juego.events" as co.com.sofka.cargame.domain.juego.events.JuegoFinalizado [[JuegoFinalizado.html]] {
        +JuegoFinalizado(Podio)
        +getPodio(): Podio
    }

    abstract class "<size:14>DomainEvent\n<size:10>co.com.sofka.domain.generic" as co.com.sofka.domain.generic.DomainEvent
    interface "<size:14>Incremental\n<size:10>co.com.sofka.domain.generic" as co.com.sofka.domain.generic.Incremental

    co.com.sofka.domain.generic.DomainEvent <|- - co.com.sofka.cargame.domain.juego.events.JuegoFinalizado
    co.com.sofka.domain.generic.Incremental <|.. co.com.sofka.cargame.domain.juego.events.JuegoFinalizado

    center footer UMLDoclet 2.0.10, PlantUML 1.2019.08
@enduml

PlantUML version 1.2019.08(Sat Jul 13 14:25:14 COT 2019)
(APACHE source distribution)
Java Runtime: Java(TM) SE Runtime Environment
JVM: Java HotSpot(TM) 64-Bit Server VM
Java Version: 11.0.11+9-LTS-194
Operating System: Windows 10
OS Version: 10.0
Default Encoding: Cp1252
Language: es
Country: CO
--></g></svg>