<?xml version="1.0" encoding="UTF-8" standalone="no"?><svg xmlns="http://www.w3.org/2000/svg" xmlns:xlink="http://www.w3.org/1999/xlink" contentScriptType="application/ecmascript" contentStyleType="text/css" height="394px" preserveAspectRatio="none" style="width:1454px;height:394px;" version="1.1" viewBox="0 0 1454 394" width="1454px" zoomAndPan="magnify"><defs><filter height="300%" id="ftnf4dnpmbvfp" width="300%" x="-1" y="-1"><feGaussianBlur result="blurOut" stdDeviation="2.0"/><feColorMatrix in="blurOut" result="blurOut2" type="matrix" values="0 0 0 0 0 0 0 0 0 0 0 0 0 0 0 0 0 0 .4 0"/><feOffset dx="4.0" dy="4.0" in="blurOut2" result="blurOut3"/><feBlend in="SourceGraphic" in2="blurOut3" mode="normal"/></filter></defs><g><!--cluster co.com.sofka.cargame.domain.juego.events--><polygon fill="#FFFFFF" filter="url(#ftnf4dnpmbvfp)" points="22,190,336,190,343,213.6094,1432,213.6094,1432,345,22,345,22,190" style="stroke: #000000; stroke-width: 1.5;"/><line style="stroke: #000000; stroke-width: 1.5;" x1="22" x2="343" y1="213.6094" y2="213.6094"/><text fill="#000000" font-family="sans-serif" font-size="14" font-weight="bold" lengthAdjust="spacingAndGlyphs" textLength="308" x="26" y="206.5332">co.com.sofka.cargame.domain.juego.events</text><!--cluster co.com.sofka.domain.generic--><polygon fill="#FFFFFF" filter="url(#ftnf4dnpmbvfp)" points="626,24,837,24,844,47.6094,899,47.6094,899,166,626,166,626,24" style="stroke: #000000; stroke-width: 1.5;"/><line style="stroke: #000000; stroke-width: 1.5;" x1="626" x2="844" y1="47.6094" y2="47.6094"/><text fill="#000000" font-family="sans-serif" font-size="14" font-weight="bold" lengthAdjust="spacingAndGlyphs" textLength="205" x="630" y="40.5332">co.com.sofka.domain.generic</text><!--class co.com.sofka.cargame.domain.juego.events.JuegoCreado--><a href="JuegoCreado.html" target="_top" xlink:actuate="onRequest" xlink:show="new" xlink:title="JuegoCreado.html" xlink:type="simple"><rect fill="#FEFECE" filter="url(#ftnf4dnpmbvfp)" height="75.6719" id="co.com.sofka.cargame.domain.juego.events.JuegoCreado" style="stroke: #A80036; stroke-width: 1.5;" width="121" x="1294.5" y="239.5"/><ellipse cx="1315.8" cy="255.5" fill="#ADD1B2" rx="11" ry="11" style="stroke: #A80036; stroke-width: 1.0;"/><path d="M1318.5656,251.375 Q1318.7219,251.1563 1318.9094,251.0469 Q1319.0969,250.9375 1319.3156,250.9375 Q1319.6906,250.9375 1319.925,251.2031 Q1320.1594,251.4531 1320.1594,252.0625 L1320.1594,253.5156 Q1320.1594,254.125 1319.925,254.3906 Q1319.6906,254.6563 1319.3156,254.6563 Q1318.9719,254.6563 1318.7688,254.4531 Q1318.5656,254.2656 1318.4563,253.75 Q1318.4094,253.3906 1318.2219,253.2031 Q1317.8938,252.8281 1317.2844,252.6094 Q1316.675,252.3906 1316.05,252.3906 Q1315.2844,252.3906 1314.6438,252.7188 Q1314.0188,253.0469 1313.5188,253.7969 Q1313.0344,254.5469 1313.0344,255.5781 L1313.0344,256.6719 Q1313.0344,257.9063 1313.925,258.7344 Q1314.8156,259.5469 1316.4094,259.5469 Q1317.3469,259.5469 1318.0031,259.2969 Q1318.3938,259.1406 1318.8156,258.7031 Q1319.0813,258.4375 1319.2219,258.3594 Q1319.3781,258.2813 1319.5813,258.2813 Q1319.9094,258.2813 1320.1594,258.5469 Q1320.425,258.7969 1320.425,259.1406 Q1320.425,259.4844 1320.0813,259.8906 Q1319.5813,260.4688 1318.7844,260.7969 Q1317.7063,261.25 1316.4094,261.25 Q1314.8938,261.25 1313.6906,260.625 Q1312.7063,260.125 1312.0188,259.0625 Q1311.3313,257.9844 1311.3313,256.7031 L1311.3313,255.5469 Q1311.3313,254.2188 1311.9406,253.0781 Q1312.5656,251.9219 1313.6594,251.3125 Q1314.7531,250.6875 1315.9875,250.6875 Q1316.7219,250.6875 1317.3625,250.8594 Q1318.0188,251.0156 1318.5656,251.375 Z "/><text fill="#000000" font-family="sans-serif" font-size="12" lengthAdjust="spacingAndGlyphs" textLength="75" x="1331.2" y="260.4102">JuegoCreado</text><line style="stroke: #A80036; stroke-width: 1.5;" x1="1295.5" x2="1414.5" y1="271.5" y2="271.5"/><line style="stroke: #A80036; stroke-width: 1.5;" x1="1295.5" x2="1414.5" y1="279.5" y2="279.5"/><ellipse cx="1305.5" cy="291.918" fill="#84BE84" rx="3" ry="3" style="stroke: #038048; stroke-width: 1.0;"/><text fill="#000000" font-family="sans-serif" font-size="11" lengthAdjust="spacingAndGlyphs" textLength="95" x="1314.5" y="294.9189">JuegoCreado(Pista)</text><ellipse cx="1305.5" cy="305.7539" fill="#84BE84" rx="3" ry="3" style="stroke: #038048; stroke-width: 1.0;"/><text fill="#000000" font-family="sans-serif" font-size="11" lengthAdjust="spacingAndGlyphs" textLength="75" x="1314.5" y="308.7549">getPista(): Pista</text></a><!--class co.com.sofka.cargame.domain.juego.events.JuegoFinalizado--><a href="JuegoFinalizado.html" target="_top" xlink:actuate="onRequest" xlink:show="new" xlink:title="JuegoFinalizado.html" xlink:type="simple"><rect fill="#FEFECE" filter="url(#ftnf4dnpmbvfp)" height="75.6719" id="co.com.sofka.cargame.domain.juego.events.JuegoFinalizado" style="stroke: #A80036; stroke-width: 1.5;" width="137" x="1122.5" y="239.5"/><ellipse cx="1144.25" cy="255.5" fill="#ADD1B2" rx="11" ry="11" style="stroke: #A80036; stroke-width: 1.0;"/><path d="M1147.0156,251.375 Q1147.1719,251.1563 1147.3594,251.0469 Q1147.5469,250.9375 1147.7656,250.9375 Q1148.1406,250.9375 1148.375,251.2031 Q1148.6094,251.4531 1148.6094,252.0625 L1148.6094,253.5156 Q1148.6094,254.125 1148.375,254.3906 Q1148.1406,254.6563 1147.7656,254.6563 Q1147.4219,254.6563 1147.2188,254.4531 Q1147.0156,254.2656 1146.9063,253.75 Q1146.8594,253.3906 1146.6719,253.2031 Q1146.3438,252.8281 1145.7344,252.6094 Q1145.125,252.3906 1144.5,252.3906 Q1143.7344,252.3906 1143.0938,252.7188 Q1142.4688,253.0469 1141.9688,253.7969 Q1141.4844,254.5469 1141.4844,255.5781 L1141.4844,256.6719 Q1141.4844,257.9063 1142.375,258.7344 Q1143.2656,259.5469 1144.8594,259.5469 Q1145.7969,259.5469 1146.4531,259.2969 Q1146.8438,259.1406 1147.2656,258.7031 Q1147.5313,258.4375 1147.6719,258.3594 Q1147.8281,258.2813 1148.0313,258.2813 Q1148.3594,258.2813 1148.6094,258.5469 Q1148.875,258.7969 1148.875,259.1406 Q1148.875,259.4844 1148.5313,259.8906 Q1148.0313,260.4688 1147.2344,260.7969 Q1146.1563,261.25 1144.8594,261.25 Q1143.3438,261.25 1142.1406,260.625 Q1141.1563,260.125 1140.4688,259.0625 Q1139.7813,257.9844 1139.7813,256.7031 L1139.7813,255.5469 Q1139.7813,254.2188 1140.3906,253.0781 Q1141.0156,251.9219 1142.1094,251.3125 Q1143.2031,250.6875 1144.4375,250.6875 Q1145.1719,250.6875 1145.8125,250.8594 Q1146.4688,251.0156 1147.0156,251.375 Z "/><text fill="#000000" font-family="sans-serif" font-size="12" lengthAdjust="spacingAndGlyphs" textLength="90" x="1159.75" y="260.4102">JuegoFinalizado</text><line style="stroke: #A80036; stroke-width: 1.5;" x1="1123.5" x2="1258.5" y1="271.5" y2="271.5"/><line style="stroke: #A80036; stroke-width: 1.5;" x1="1123.5" x2="1258.5" y1="279.5" y2="279.5"/><ellipse cx="1133.5" cy="291.918" fill="#84BE84" rx="3" ry="3" style="stroke: #038048; stroke-width: 1.0;"/><text fill="#000000" font-family="sans-serif" font-size="11" lengthAdjust="spacingAndGlyphs" textLength="111" x="1142.5" y="294.9189">JuegoFinalizado(Podio)</text><ellipse cx="1133.5" cy="305.7539" fill="#84BE84" rx="3" ry="3" style="stroke: #038048; stroke-width: 1.0;"/><text fill="#000000" font-family="sans-serif" font-size="11" lengthAdjust="spacingAndGlyphs" textLength="81" x="1142.5" y="308.7549">getPodio(): Podio</text></a><!--class co.com.sofka.cargame.domain.juego.events.JuegoIniciado--><a href="JuegoIniciado.html" target="_top" xlink:actuate="onRequest" xlink:show="new" xlink:title="JuegoIniciado.html" xlink:type="simple"><rect fill="#FEFECE" filter="url(#ftnf4dnpmbvfp)" height="48" id="co.com.sofka.cargame.domain.juego.events.JuegoIniciado" style="stroke: #A80036; stroke-width: 1.5;" width="109" x="978.5" y="253.5"/><ellipse cx="993.5" cy="269.5" fill="#ADD1B2" rx="11" ry="11" style="stroke: #A80036; stroke-width: 1.0;"/><path d="M996.2656,265.375 Q996.4219,265.1563 996.6094,265.0469 Q996.7969,264.9375 997.0156,264.9375 Q997.3906,264.9375 997.625,265.2031 Q997.8594,265.4531 997.8594,266.0625 L997.8594,267.5156 Q997.8594,268.125 997.625,268.3906 Q997.3906,268.6563 997.0156,268.6563 Q996.6719,268.6563 996.4688,268.4531 Q996.2656,268.2656 996.1563,267.75 Q996.1094,267.3906 995.9219,267.2031 Q995.5938,266.8281 994.9844,266.6094 Q994.375,266.3906 993.75,266.3906 Q992.9844,266.3906 992.3438,266.7188 Q991.7188,267.0469 991.2188,267.7969 Q990.7344,268.5469 990.7344,269.5781 L990.7344,270.6719 Q990.7344,271.9063 991.625,272.7344 Q992.5156,273.5469 994.1094,273.5469 Q995.0469,273.5469 995.7031,273.2969 Q996.0938,273.1406 996.5156,272.7031 Q996.7813,272.4375 996.9219,272.3594 Q997.0781,272.2813 997.2813,272.2813 Q997.6094,272.2813 997.8594,272.5469 Q998.125,272.7969 998.125,273.1406 Q998.125,273.4844 997.7813,273.8906 Q997.2813,274.4688 996.4844,274.7969 Q995.4063,275.25 994.1094,275.25 Q992.5938,275.25 991.3906,274.625 Q990.4063,274.125 989.7188,273.0625 Q989.0313,271.9844 989.0313,270.7031 L989.0313,269.5469 Q989.0313,268.2188 989.6406,267.0781 Q990.2656,265.9219 991.3594,265.3125 Q992.4531,264.6875 993.6875,264.6875 Q994.4219,264.6875 995.0625,264.8594 Q995.7188,265.0156 996.2656,265.375 Z "/><text fill="#000000" font-family="sans-serif" font-size="12" lengthAdjust="spacingAndGlyphs" textLength="77" x="1007.5" y="274.4102">JuegoIniciado</text><line style="stroke: #A80036; stroke-width: 1.5;" x1="979.5" x2="1086.5" y1="285.5" y2="285.5"/><line style="stroke: #A80036; stroke-width: 1.5;" x1="979.5" x2="1086.5" y1="293.5" y2="293.5"/></a><!--class co.com.sofka.cargame.domain.juego.events.JugadorCreado--><a href="JugadorCreado.html" target="_top" xlink:actuate="onRequest" xlink:show="new" xlink:title="JugadorCreado.html" xlink:type="simple"><rect fill="#FEFECE" filter="url(#ftnf4dnpmbvfp)" height="103.3438" id="co.com.sofka.cargame.domain.juego.events.JugadorCreado" style="stroke: #A80036; stroke-width: 1.5;" width="229" x="714.5" y="226"/><ellipse cx="781.75" cy="242" fill="#ADD1B2" rx="11" ry="11" style="stroke: #A80036; stroke-width: 1.0;"/><path d="M784.5156,237.875 Q784.6719,237.6563 784.8594,237.5469 Q785.0469,237.4375 785.2656,237.4375 Q785.6406,237.4375 785.875,237.7031 Q786.1094,237.9531 786.1094,238.5625 L786.1094,240.0156 Q786.1094,240.625 785.875,240.8906 Q785.6406,241.1563 785.2656,241.1563 Q784.9219,241.1563 784.7188,240.9531 Q784.5156,240.7656 784.4063,240.25 Q784.3594,239.8906 784.1719,239.7031 Q783.8438,239.3281 783.2344,239.1094 Q782.625,238.8906 782,238.8906 Q781.2344,238.8906 780.5938,239.2188 Q779.9688,239.5469 779.4688,240.2969 Q778.9844,241.0469 778.9844,242.0781 L778.9844,243.1719 Q778.9844,244.4063 779.875,245.2344 Q780.7656,246.0469 782.3594,246.0469 Q783.2969,246.0469 783.9531,245.7969 Q784.3438,245.6406 784.7656,245.2031 Q785.0313,244.9375 785.1719,244.8594 Q785.3281,244.7813 785.5313,244.7813 Q785.8594,244.7813 786.1094,245.0469 Q786.375,245.2969 786.375,245.6406 Q786.375,245.9844 786.0313,246.3906 Q785.5313,246.9688 784.7344,247.2969 Q783.6563,247.75 782.3594,247.75 Q780.8438,247.75 779.6406,247.125 Q778.6563,246.625 777.9688,245.5625 Q777.2813,244.4844 777.2813,243.2031 L777.2813,242.0469 Q777.2813,240.7188 777.8906,239.5781 Q778.5156,238.4219 779.6094,237.8125 Q780.7031,237.1875 781.9375,237.1875 Q782.6719,237.1875 783.3125,237.3594 Q783.9688,237.5156 784.5156,237.875 Z "/><text fill="#000000" font-family="sans-serif" font-size="12" lengthAdjust="spacingAndGlyphs" textLength="86" x="802.25" y="246.9102">JugadorCreado</text><line style="stroke: #A80036; stroke-width: 1.5;" x1="715.5" x2="942.5" y1="258" y2="258"/><line style="stroke: #A80036; stroke-width: 1.5;" x1="715.5" x2="942.5" y1="266" y2="266"/><ellipse cx="725.5" cy="278.418" fill="#84BE84" rx="3" ry="3" style="stroke: #038048; stroke-width: 1.0;"/><text fill="#000000" font-family="sans-serif" font-size="11" lengthAdjust="spacingAndGlyphs" textLength="203" x="734.5" y="281.4189">JugadorCreado(JugadorId, Nombre, Color)</text><ellipse cx="725.5" cy="292.2539" fill="#84BE84" rx="3" ry="3" style="stroke: #038048; stroke-width: 1.0;"/><text fill="#000000" font-family="sans-serif" font-size="11" lengthAdjust="spacingAndGlyphs" textLength="79" x="734.5" y="295.2549">getColor(): Color</text><ellipse cx="725.5" cy="306.0898" fill="#84BE84" rx="3" ry="3" style="stroke: #038048; stroke-width: 1.0;"/><text fill="#000000" font-family="sans-serif" font-size="11" lengthAdjust="spacingAndGlyphs" textLength="123" x="734.5" y="309.0908">getJugadorId(): JugadorId</text><ellipse cx="725.5" cy="319.9258" fill="#84BE84" rx="3" ry="3" style="stroke: #038048; stroke-width: 1.0;"/><text fill="#000000" font-family="sans-serif" font-size="11" lengthAdjust="spacingAndGlyphs" textLength="103" x="734.5" y="322.9268">getNombre(): Nombre</text></a><!--class co.com.sofka.cargame.domain.juego.events.PrimerLugarAsignado--><a href="PrimerLugarAsignado.html" target="_top" xlink:actuate="onRequest" xlink:show="new" xlink:title="PrimerLugarAsignado.html" xlink:type="simple"><rect fill="#FEFECE" filter="url(#ftnf4dnpmbvfp)" height="75.6719" id="co.com.sofka.cargame.domain.juego.events.PrimerLugarAsignado" style="stroke: #A80036; stroke-width: 1.5;" width="185" x="494.5" y="239.5"/><ellipse cx="523.9" cy="255.5" fill="#ADD1B2" rx="11" ry="11" style="stroke: #A80036; stroke-width: 1.0;"/><path d="M526.6656,251.375 Q526.8219,251.1563 527.0094,251.0469 Q527.1969,250.9375 527.4156,250.9375 Q527.7906,250.9375 528.025,251.2031 Q528.2594,251.4531 528.2594,252.0625 L528.2594,253.5156 Q528.2594,254.125 528.025,254.3906 Q527.7906,254.6563 527.4156,254.6563 Q527.0719,254.6563 526.8688,254.4531 Q526.6656,254.2656 526.5563,253.75 Q526.5094,253.3906 526.3219,253.2031 Q525.9938,252.8281 525.3844,252.6094 Q524.775,252.3906 524.15,252.3906 Q523.3844,252.3906 522.7438,252.7188 Q522.1188,253.0469 521.6188,253.7969 Q521.1344,254.5469 521.1344,255.5781 L521.1344,256.6719 Q521.1344,257.9063 522.025,258.7344 Q522.9156,259.5469 524.5094,259.5469 Q525.4469,259.5469 526.1031,259.2969 Q526.4938,259.1406 526.9156,258.7031 Q527.1813,258.4375 527.3219,258.3594 Q527.4781,258.2813 527.6813,258.2813 Q528.0094,258.2813 528.2594,258.5469 Q528.525,258.7969 528.525,259.1406 Q528.525,259.4844 528.1813,259.8906 Q527.6813,260.4688 526.8844,260.7969 Q525.8063,261.25 524.5094,261.25 Q522.9938,261.25 521.7906,260.625 Q520.8063,260.125 520.1188,259.0625 Q519.4313,257.9844 519.4313,256.7031 L519.4313,255.5469 Q519.4313,254.2188 520.0406,253.0781 Q520.6656,251.9219 521.7594,251.3125 Q522.8531,250.6875 524.0875,250.6875 Q524.8219,250.6875 525.4625,250.8594 Q526.1188,251.0156 526.6656,251.375 Z "/><text fill="#000000" font-family="sans-serif" font-size="12" lengthAdjust="spacingAndGlyphs" textLength="121" x="541.1" y="260.4102">PrimerLugarAsignado</text><line style="stroke: #A80036; stroke-width: 1.5;" x1="495.5" x2="678.5" y1="271.5" y2="271.5"/><line style="stroke: #A80036; stroke-width: 1.5;" x1="495.5" x2="678.5" y1="279.5" y2="279.5"/><ellipse cx="505.5" cy="291.918" fill="#84BE84" rx="3" ry="3" style="stroke: #038048; stroke-width: 1.0;"/><text fill="#000000" font-family="sans-serif" font-size="11" lengthAdjust="spacingAndGlyphs" textLength="159" x="514.5" y="294.9189">PrimerLugarAsignado(JugadorId)</text><ellipse cx="505.5" cy="305.7539" fill="#84BE84" rx="3" ry="3" style="stroke: #038048; stroke-width: 1.0;"/><text fill="#000000" font-family="sans-serif" font-size="11" lengthAdjust="spacingAndGlyphs" textLength="123" x="514.5" y="308.7549">getJugadorId(): JugadorId</text></a><!--class co.com.sofka.cargame.domain.juego.events.SegundoLugarAsignado--><a href="SegundoLugarAsignado.html" target="_top" xlink:actuate="onRequest" xlink:show="new" xlink:title="SegundoLugarAsignado.html" xlink:type="simple"><rect fill="#FEFECE" filter="url(#ftnf4dnpmbvfp)" height="75.6719" id="co.com.sofka.cargame.domain.juego.events.SegundoLugarAsignado" style="stroke: #A80036; stroke-width: 1.5;" width="198" x="261" y="239.5"/><ellipse cx="290.4" cy="255.5" fill="#ADD1B2" rx="11" ry="11" style="stroke: #A80036; stroke-width: 1.0;"/><path d="M293.1656,251.375 Q293.3219,251.1563 293.5094,251.0469 Q293.6969,250.9375 293.9156,250.9375 Q294.2906,250.9375 294.525,251.2031 Q294.7594,251.4531 294.7594,252.0625 L294.7594,253.5156 Q294.7594,254.125 294.525,254.3906 Q294.2906,254.6563 293.9156,254.6563 Q293.5719,254.6563 293.3688,254.4531 Q293.1656,254.2656 293.0563,253.75 Q293.0094,253.3906 292.8219,253.2031 Q292.4938,252.8281 291.8844,252.6094 Q291.275,252.3906 290.65,252.3906 Q289.8844,252.3906 289.2438,252.7188 Q288.6188,253.0469 288.1188,253.7969 Q287.6344,254.5469 287.6344,255.5781 L287.6344,256.6719 Q287.6344,257.9063 288.525,258.7344 Q289.4156,259.5469 291.0094,259.5469 Q291.9469,259.5469 292.6031,259.2969 Q292.9938,259.1406 293.4156,258.7031 Q293.6813,258.4375 293.8219,258.3594 Q293.9781,258.2813 294.1813,258.2813 Q294.5094,258.2813 294.7594,258.5469 Q295.025,258.7969 295.025,259.1406 Q295.025,259.4844 294.6813,259.8906 Q294.1813,260.4688 293.3844,260.7969 Q292.3063,261.25 291.0094,261.25 Q289.4938,261.25 288.2906,260.625 Q287.3063,260.125 286.6188,259.0625 Q285.9313,257.9844 285.9313,256.7031 L285.9313,255.5469 Q285.9313,254.2188 286.5406,253.0781 Q287.1656,251.9219 288.2594,251.3125 Q289.3531,250.6875 290.5875,250.6875 Q291.3219,250.6875 291.9625,250.8594 Q292.6188,251.0156 293.1656,251.375 Z "/><text fill="#000000" font-family="sans-serif" font-size="12" lengthAdjust="spacingAndGlyphs" textLength="134" x="307.6" y="260.4102">SegundoLugarAsignado</text><line style="stroke: #A80036; stroke-width: 1.5;" x1="262" x2="458" y1="271.5" y2="271.5"/><line style="stroke: #A80036; stroke-width: 1.5;" x1="262" x2="458" y1="279.5" y2="279.5"/><ellipse cx="272" cy="291.918" fill="#84BE84" rx="3" ry="3" style="stroke: #038048; stroke-width: 1.0;"/><text fill="#000000" font-family="sans-serif" font-size="11" lengthAdjust="spacingAndGlyphs" textLength="172" x="281" y="294.9189">SegundoLugarAsignado(JugadorId)</text><ellipse cx="272" cy="305.7539" fill="#84BE84" rx="3" ry="3" style="stroke: #038048; stroke-width: 1.0;"/><text fill="#000000" font-family="sans-serif" font-size="11" lengthAdjust="spacingAndGlyphs" textLength="123" x="281" y="308.7549">getJugadorId(): JugadorId</text></a><!--class co.com.sofka.cargame.domain.juego.events.TercerLugarAsignado--><a href="TercerLugarAsignado.html" target="_top" xlink:actuate="onRequest" xlink:show="new" xlink:title="TercerLugarAsignado.html" xlink:type="simple"><rect fill="#FEFECE" filter="url(#ftnf4dnpmbvfp)" height="75.6719" id="co.com.sofka.cargame.domain.juego.events.TercerLugarAsignado" style="stroke: #A80036; stroke-width: 1.5;" width="187" x="38.5" y="239.5"/><ellipse cx="69.7" cy="255.5" fill="#ADD1B2" rx="11" ry="11" style="stroke: #A80036; stroke-width: 1.0;"/><path d="M72.4656,251.375 Q72.6219,251.1563 72.8094,251.0469 Q72.9969,250.9375 73.2156,250.9375 Q73.5906,250.9375 73.825,251.2031 Q74.0594,251.4531 74.0594,252.0625 L74.0594,253.5156 Q74.0594,254.125 73.825,254.3906 Q73.5906,254.6563 73.2156,254.6563 Q72.8719,254.6563 72.6688,254.4531 Q72.4656,254.2656 72.3563,253.75 Q72.3094,253.3906 72.1219,253.2031 Q71.7938,252.8281 71.1844,252.6094 Q70.575,252.3906 69.95,252.3906 Q69.1844,252.3906 68.5438,252.7188 Q67.9188,253.0469 67.4188,253.7969 Q66.9344,254.5469 66.9344,255.5781 L66.9344,256.6719 Q66.9344,257.9063 67.825,258.7344 Q68.7156,259.5469 70.3094,259.5469 Q71.2469,259.5469 71.9031,259.2969 Q72.2938,259.1406 72.7156,258.7031 Q72.9813,258.4375 73.1219,258.3594 Q73.2781,258.2813 73.4813,258.2813 Q73.8094,258.2813 74.0594,258.5469 Q74.325,258.7969 74.325,259.1406 Q74.325,259.4844 73.9813,259.8906 Q73.4813,260.4688 72.6844,260.7969 Q71.6063,261.25 70.3094,261.25 Q68.7938,261.25 67.5906,260.625 Q66.6063,260.125 65.9188,259.0625 Q65.2313,257.9844 65.2313,256.7031 L65.2313,255.5469 Q65.2313,254.2188 65.8406,253.0781 Q66.4656,251.9219 67.5594,251.3125 Q68.6531,250.6875 69.8875,250.6875 Q70.6219,250.6875 71.2625,250.8594 Q71.9188,251.0156 72.4656,251.375 Z "/><text fill="#000000" font-family="sans-serif" font-size="12" lengthAdjust="spacingAndGlyphs" textLength="119" x="87.3" y="260.4102">TercerLugarAsignado</text><line style="stroke: #A80036; stroke-width: 1.5;" x1="39.5" x2="224.5" y1="271.5" y2="271.5"/><line style="stroke: #A80036; stroke-width: 1.5;" x1="39.5" x2="224.5" y1="279.5" y2="279.5"/><ellipse cx="49.5" cy="291.918" fill="#84BE84" rx="3" ry="3" style="stroke: #038048; stroke-width: 1.0;"/><text fill="#000000" font-family="sans-serif" font-size="11" lengthAdjust="spacingAndGlyphs" textLength="161" x="58.5" y="294.9189">TercerLugarAsignado(JugadorId)</text><ellipse cx="49.5" cy="305.7539" fill="#84BE84" rx="3" ry="3" style="stroke: #038048; stroke-width: 1.0;"/><text fill="#000000" font-family="sans-serif" font-size="11" lengthAdjust="spacingAndGlyphs" textLength="123" x="58.5" y="308.7549">getJugadorId(): JugadorId</text></a><!--class co.com.sofka.domain.generic.DomainEvent--><rect fill="#FEFECE" filter="url(#ftnf4dnpmbvfp)" height="89.5078" id="co.com.sofka.domain.generic.DomainEvent" style="stroke: #A80036; stroke-width: 1.5;" width="107" x="775.5" y="60"/><ellipse cx="790.5" cy="76" fill="#A9DCDF" rx="11" ry="11" style="stroke: #A80036; stroke-width: 1.0;"/><path d="M792.6875,77.7656 L788.5469,77.7656 L788.125,78.7969 L788.5469,78.7969 Q789.1563,78.7969 789.4219,79.0313 Q789.6875,79.2656 789.6875,79.6563 Q789.6875,80.0313 789.4219,80.2656 Q789.1563,80.5 788.5469,80.5 L786.25,80.5 Q785.6406,80.5 785.3906,80.2656 Q785.125,80.0313 785.125,79.6406 Q785.125,79.2656 785.4063,79.0313 Q785.6719,78.7813 786.2969,78.7969 L788.9688,72.1406 L787.8594,72.1406 Q787.25,72.1406 786.9844,71.9063 Q786.7188,71.6719 786.7188,71.2813 Q786.7188,70.9063 786.9844,70.6719 Q787.25,70.4375 787.8594,70.4375 L791.5313,70.4375 L794.9219,78.7969 Q795.5156,78.7969 795.7031,78.9375 Q796.0938,79.2031 796.0938,79.6563 Q796.0938,80.0313 795.8281,80.2656 Q795.5781,80.5 794.9688,80.5 L792.6719,80.5 Q792.0625,80.5 791.7969,80.2656 Q791.5313,80.0313 791.5313,79.6406 Q791.5313,79.2656 791.7969,79.0313 Q792.0625,78.7969 792.6719,78.7969 L793.0938,78.7969 L792.6875,77.7656 Z M791.9688,76.0625 L790.6094,72.6875 L789.2344,76.0625 L791.9688,76.0625 Z "/><text fill="#000000" font-family="sans-serif" font-size="12" font-style="italic" lengthAdjust="spacingAndGlyphs" textLength="75" x="804.5" y="80.9102">DomainEvent</text><line style="stroke: #A80036; stroke-width: 1.5;" x1="776.5" x2="881.5" y1="92" y2="92"/><ellipse cx="786.5" cy="104.418" fill="none" rx="3" ry="3" style="stroke: #038048; stroke-width: 1.0;"/><text fill="#000000" font-family="sans-serif" font-size="11" lengthAdjust="spacingAndGlyphs" textLength="66" x="795.5" y="107.4189">when: Instant</text><ellipse cx="786.5" cy="118.2539" fill="none" rx="3" ry="3" style="stroke: #038048; stroke-width: 1.0;"/><text fill="#000000" font-family="sans-serif" font-size="11" lengthAdjust="spacingAndGlyphs" textLength="49" x="795.5" y="121.2549">uuid: UUID</text><ellipse cx="786.5" cy="132.0898" fill="none" rx="3" ry="3" style="stroke: #038048; stroke-width: 1.0;"/><text fill="#000000" font-family="sans-serif" font-size="11" lengthAdjust="spacingAndGlyphs" textLength="55" x="795.5" y="135.0908">type: String</text><line style="stroke: #A80036; stroke-width: 1.5;" x1="776.5" x2="881.5" y1="141.5078" y2="141.5078"/><!--class co.com.sofka.domain.generic.Incremental--><rect fill="#FEFECE" filter="url(#ftnf4dnpmbvfp)" height="48" id="co.com.sofka.domain.generic.Incremental" style="stroke: #A80036; stroke-width: 1.5;" width="98" x="642" y="81"/><ellipse cx="657" cy="97" fill="#B4A7E5" rx="11" ry="11" style="stroke: #A80036; stroke-width: 1.0;"/><path d="M657.9531,93.6406 L657.9531,100.2969 L659.6719,100.2969 Q660.2813,100.2969 660.5469,100.5313 Q660.8125,100.7656 660.8125,101.1563 Q660.8125,101.5313 660.5469,101.7656 Q660.2813,102 659.6719,102 L654.5313,102 Q653.9219,102 653.6563,101.7656 Q653.3906,101.5313 653.3906,101.1406 Q653.3906,100.7656 653.6563,100.5313 Q653.9219,100.2969 654.5313,100.2969 L656.25,100.2969 L656.25,93.6406 L654.5313,93.6406 Q653.9219,93.6406 653.6563,93.4063 Q653.3906,93.1719 653.3906,92.7813 Q653.3906,92.4063 653.6563,92.1719 Q653.9219,91.9375 654.5313,91.9375 L659.6719,91.9375 Q660.2813,91.9375 660.5469,92.1719 Q660.8125,92.4063 660.8125,92.7813 Q660.8125,93.1719 660.5469,93.4063 Q660.2813,93.6406 659.6719,93.6406 L657.9531,93.6406 Z "/><text fill="#000000" font-family="sans-serif" font-size="12" font-style="italic" lengthAdjust="spacingAndGlyphs" textLength="66" x="671" y="101.9102">Incremental</text><line style="stroke: #A80036; stroke-width: 1.5;" x1="643" x2="739" y1="113" y2="113"/><line style="stroke: #A80036; stroke-width: 1.5;" x1="643" x2="739" y1="121" y2="121"/><!--link co.com.sofka.domain.generic.DomainEvent to co.com.sofka.cargame.domain.juego.events.JuegoCreado--><path d="M902.77,112.25 C1013.05,122.62 1214.61,145.91 1277,182 C1300.57,195.63 1320.07,219.26 1333.68,239.48 " fill="none" id="co.com.sofka.domain.generic.DomainEvent-co.com.sofka.cargame.domain.juego.events.JuegoCreado" style="stroke: #A80036; stroke-width: 1.0;"/><polygon fill="none" points="901.92,119.2,882.64,110.4,903.2,105.26,901.92,119.2" style="stroke: #A80036; stroke-width: 1.0;"/><!--link co.com.sofka.domain.generic.DomainEvent to co.com.sofka.cargame.domain.juego.events.JuegoFinalizado--><path d="M902.57,114.8 C960.92,124.38 1042.72,143.76 1105,182 C1128.82,196.62 1150.03,219.74 1165.42,239.46 " fill="none" id="co.com.sofka.domain.generic.DomainEvent-co.com.sofka.cargame.domain.juego.events.JuegoFinalizado" style="stroke: #A80036; stroke-width: 1.0;"/><polygon fill="none" points="901.32,121.69,882.6,111.76,903.43,107.85,901.32,121.69" style="stroke: #A80036; stroke-width: 1.0;"/><!--link co.com.sofka.domain.generic.Incremental to co.com.sofka.cargame.domain.juego.events.JuegoFinalizado--><path d="M719.37,144.75 C730.07,156.33 743.25,167.63 758,174 C793.4,189.3 1069.91,166 1105,182 C1131.24,193.96 1153.01,218.14 1168.08,239.05 " fill="none" id="co.com.sofka.domain.generic.Incremental-co.com.sofka.cargame.domain.juego.events.JuegoFinalizado" style="stroke: #A80036; stroke-width: 1.0; stroke-dasharray: 7.0,7.0;"/><polygon fill="none" points="713.86,149.07,706.43,129.23,724.61,140.1,713.86,149.07" style="stroke: #A80036; stroke-width: 1.0;"/><!--link co.com.sofka.domain.generic.DomainEvent to co.com.sofka.cargame.domain.juego.events.JuegoIniciado--><path d="M900.38,140.27 C921.08,151.96 942.95,166.13 961,182 C984.86,202.97 1006.07,232.91 1019.18,253.44 " fill="none" id="co.com.sofka.domain.generic.DomainEvent-co.com.sofka.cargame.domain.juego.events.JuegoIniciado" style="stroke: #A80036; stroke-width: 1.0;"/><polygon fill="none" points="896.87,146.33,882.61,130.65,903.53,134.01,896.87,146.33" style="stroke: #A80036; stroke-width: 1.0;"/><!--link co.com.sofka.domain.generic.Incremental to co.com.sofka.cargame.domain.juego.events.JuegoIniciado--><path d="M719.44,144.61 C730.13,156.18 743.31,167.51 758,174 C799.29,192.25 920.95,161.17 961,182 C990.46,197.32 1011.34,230.75 1022.78,253.45 " fill="none" id="co.com.sofka.domain.generic.Incremental-co.com.sofka.cargame.domain.juego.events.JuegoIniciado" style="stroke: #A80036; stroke-width: 1.0; stroke-dasharray: 7.0,7.0;"/><polygon fill="none" points="713.94,148.95,706.47,129.12,724.68,139.97,713.94,148.95" style="stroke: #A80036; stroke-width: 1.0;"/><!--link co.com.sofka.domain.generic.DomainEvent to co.com.sofka.cargame.domain.juego.events.JugadorCreado--><path d="M829,170.57 C829,188.82 829,208.42 829,225.74 " fill="none" id="co.com.sofka.domain.generic.DomainEvent-co.com.sofka.cargame.domain.juego.events.JugadorCreado" style="stroke: #A80036; stroke-width: 1.0;"/><polygon fill="none" points="822,170.35,829,150.35,836,170.35,822,170.35" style="stroke: #A80036; stroke-width: 1.0;"/><!--link co.com.sofka.domain.generic.Incremental to co.com.sofka.cargame.domain.juego.events.JugadorCreado--><path d="M722.6,145.04 C742,169.01 767.05,199.96 787.97,225.81 " fill="none" id="co.com.sofka.domain.generic.Incremental-co.com.sofka.cargame.domain.juego.events.JugadorCreado" style="stroke: #A80036; stroke-width: 1.0; stroke-dasharray: 7.0,7.0;"/><polygon fill="none" points="717.04,149.3,709.9,129.35,727.92,140.49,717.04,149.3" style="stroke: #A80036; stroke-width: 1.0;"/><!--link co.com.sofka.domain.generic.DomainEvent to co.com.sofka.cargame.domain.juego.events.PrimerLugarAsignado--><path d="M776.12,163.01 C770.34,167.22 764.27,170.99 758,174 C733.34,185.82 721.97,170.85 697,182 C667.58,195.14 640.08,218.77 619.93,239.11 " fill="none" id="co.com.sofka.domain.generic.DomainEvent-co.com.sofka.cargame.domain.juego.events.PrimerLugarAsignado" style="stroke: #A80036; stroke-width: 1.0;"/><polygon fill="none" points="771.68,157.59,791.55,150.21,780.62,168.37,771.68,157.59" style="stroke: #A80036; stroke-width: 1.0;"/><!--link co.com.sofka.domain.generic.Incremental to co.com.sofka.cargame.domain.juego.events.PrimerLugarAsignado--><path d="M666.14,146.76 C648.96,174.92 626.31,212.06 609.64,239.38 " fill="none" id="co.com.sofka.domain.generic.Incremental-co.com.sofka.cargame.domain.juego.events.PrimerLugarAsignado" style="stroke: #A80036; stroke-width: 1.0; stroke-dasharray: 7.0,7.0;"/><polygon fill="none" points="660.37,142.78,676.76,129.35,672.32,150.07,660.37,142.78" style="stroke: #A80036; stroke-width: 1.0;"/><!--link co.com.sofka.domain.generic.DomainEvent to co.com.sofka.cargame.domain.juego.events.SegundoLugarAsignado--><path d="M777.64,162.84 C771.44,167.27 764.86,171.13 758,174 C729.18,186.05 506.3,171.17 477,182 C444.92,193.86 415.03,218.32 393.49,239.39 " fill="none" id="co.com.sofka.domain.generic.DomainEvent-co.com.sofka.cargame.domain.juego.events.SegundoLugarAsignado" style="stroke: #A80036; stroke-width: 1.0;"/><polygon fill="none" points="773.21,157.41,793.08,150.05,782.14,168.2,773.21,157.41" style="stroke: #A80036; stroke-width: 1.0;"/><!--link co.com.sofka.domain.generic.Incremental to co.com.sofka.cargame.domain.juego.events.SegundoLugarAsignado--><path d="M622.32,123.93 C579.05,136.76 522.89,156.31 477,182 C448.86,197.75 420.64,220.3 398.97,239.42 " fill="none" id="co.com.sofka.domain.generic.Incremental-co.com.sofka.cargame.domain.juego.events.SegundoLugarAsignado" style="stroke: #A80036; stroke-width: 1.0; stroke-dasharray: 7.0,7.0;"/><polygon fill="none" points="620.67,117.12,641.82,118.34,624.52,130.58,620.67,117.12" style="stroke: #A80036; stroke-width: 1.0;"/><!--link co.com.sofka.domain.generic.DomainEvent to co.com.sofka.cargame.domain.juego.events.TercerLugarAsignado--><path d="M777.68,162.93 C771.47,167.34 764.88,171.18 758,174 C705.16,195.7 297.49,161.97 244,182 C212.79,193.68 184.19,218.16 163.71,239.27 " fill="none" id="co.com.sofka.domain.generic.DomainEvent-co.com.sofka.cargame.domain.juego.events.TercerLugarAsignado" style="stroke: #A80036; stroke-width: 1.0;"/><polygon fill="none" points="773.25,157.5,793.13,150.17,782.16,168.3,773.25,157.5" style="stroke: #A80036; stroke-width: 1.0;"/><!--link co.com.sofka.domain.generic.Incremental to co.com.sofka.cargame.domain.juego.events.TercerLugarAsignado--><path d="M621.76,106.62 C530.95,109.87 368.56,124.17 244,182 C214.69,195.61 186.9,218.97 166.33,239.06 " fill="none" id="co.com.sofka.domain.generic.Incremental-co.com.sofka.cargame.domain.juego.events.TercerLugarAsignado" style="stroke: #A80036; stroke-width: 1.0; stroke-dasharray: 7.0,7.0;"/><polygon fill="none" points="621.7,99.62,641.89,106.04,622.1,113.61,621.7,99.62" style="stroke: #A80036; stroke-width: 1.0;"/><text fill="#888888" font-family="sans-serif" font-size="10" lengthAdjust="spacingAndGlyphs" textLength="190" x="638" y="381.3809">UMLDoclet 2.0.10, PlantUML 1.2019.08</text><!--
@startuml
    namespace co.com.sofka.cargame.domain.juego.events {

        class JuegoCreado [[JuegoCreado.html]] {
            +JuegoCreado(Pista)
            +getPista(): Pista
        }

        class JuegoFinalizado [[JuegoFinalizado.html]] {
            +JuegoFinalizado(Podio)
            +getPodio(): Podio
        }

        class JuegoIniciado [[JuegoIniciado.html]]

        class JugadorCreado [[JugadorCreado.html]] {
            +JugadorCreado(JugadorId, Nombre, Color)
            +getColor(): Color
            +getJugadorId(): JugadorId
            +getNombre(): Nombre
        }

        class PrimerLugarAsignado [[PrimerLugarAsignado.html]] {
            +PrimerLugarAsignado(JugadorId)
            +getJugadorId(): JugadorId
        }

        class SegundoLugarAsignado [[SegundoLugarAsignado.html]] {
            +SegundoLugarAsignado(JugadorId)
            +getJugadorId(): JugadorId
        }

        class TercerLugarAsignado [[TercerLugarAsignado.html]] {
            +TercerLugarAsignado(JugadorId)
            +getJugadorId(): JugadorId
        }

        co.com.sofka.domain.generic.DomainEvent <|- - JuegoCreado
        co.com.sofka.domain.generic.DomainEvent <|- - JuegoFinalizado
        co.com.sofka.domain.generic.Incremental <|.. JuegoFinalizado
        co.com.sofka.domain.generic.DomainEvent <|- - JuegoIniciado
        co.com.sofka.domain.generic.Incremental <|.. JuegoIniciado
        co.com.sofka.domain.generic.DomainEvent <|- - JugadorCreado
        co.com.sofka.domain.generic.Incremental <|.. JugadorCreado
        co.com.sofka.domain.generic.DomainEvent <|- - PrimerLugarAsignado
        co.com.sofka.domain.generic.Incremental <|.. PrimerLugarAsignado
        co.com.sofka.domain.generic.DomainEvent <|- - SegundoLugarAsignado
        co.com.sofka.domain.generic.Incremental <|.. SegundoLugarAsignado
        co.com.sofka.domain.generic.DomainEvent <|- - TercerLugarAsignado
        co.com.sofka.domain.generic.Incremental <|.. TercerLugarAsignado
    }

    namespace co.com.sofka.domain.generic {
        abstract class DomainEvent {
            +when: Instant
            +uuid: UUID
            +type: String
        }
        interface Incremental
    }

    center footer UMLDoclet 2.0.10, PlantUML 1.2019.08
@enduml

PlantUML version 1.2019.08(Sat Jul 13 14:25:14 COT 2019)
(APACHE source distribution)
Java Runtime: Java(TM) SE Runtime Environment
JVM: Java HotSpot(TM) 64-Bit Server VM
Java Version: 11.0.11+9-LTS-194
Operating System: Windows 10
OS Version: 10.0
Default Encoding: Cp1252
Language: es
Country: CO
--></g></svg>