<?xml version="1.0" encoding="UTF-8" standalone="no"?><svg xmlns="http://www.w3.org/2000/svg" xmlns:xlink="http://www.w3.org/1999/xlink" contentScriptType="application/ecmascript" contentStyleType="text/css" height="103px" preserveAspectRatio="none" style="width:331px;height:103px;" version="1.1" viewBox="0 0 331 103" width="331px" zoomAndPan="magnify"><defs><filter height="300%" id="fl8r2jdrmolt1" width="300%" x="-1" y="-1"><feGaussianBlur result="blurOut" stdDeviation="2.0"/><feColorMatrix in="blurOut" result="blurOut2" type="matrix" values="0 0 0 0 0 0 0 0 0 0 0 0 0 0 0 0 0 0 .4 0"/><feOffset dx="4.0" dy="4.0" in="blurOut2" result="blurOut3"/><feBlend in="SourceGraphic" in2="blurOut3" mode="normal"/></filter></defs><g><!--class co.com.sofka.cargame.usecase.services.CarrilCarroService--><a href="CarrilCarroService.html" target="_top" xlink:actuate="onRequest" xlink:show="new" xlink:title="CarrilCarroService.html" xlink:type="simple"><rect fill="#FEFECE" filter="url(#fl8r2jdrmolt1)" height="62.0234" id="co.com.sofka.cargame.usecase.services.CarrilCarroService" style="stroke: #A80036; stroke-width: 1.5;" width="314" x="6" y="8"/><ellipse cx="66.25" cy="28.0938" fill="#B4A7E5" rx="11" ry="11" style="stroke: #A80036; stroke-width: 1.0;"/><path d="M67.2031,24.7344 L67.2031,31.3906 L68.9219,31.3906 Q69.5313,31.3906 69.7969,31.625 Q70.0625,31.8594 70.0625,32.25 Q70.0625,32.625 69.7969,32.8594 Q69.5313,33.0938 68.9219,33.0938 L63.7813,33.0938 Q63.1719,33.0938 62.9063,32.8594 Q62.6406,32.625 62.6406,32.2344 Q62.6406,31.8594 62.9063,31.625 Q63.1719,31.3906 63.7813,31.3906 L65.5,31.3906 L65.5,24.7344 L63.7813,24.7344 Q63.1719,24.7344 62.9063,24.5 Q62.6406,24.2656 62.6406,23.875 Q62.6406,23.5 62.9063,23.2656 Q63.1719,23.0313 63.7813,23.0313 L68.9219,23.0313 Q69.5313,23.0313 69.7969,23.2656 Q70.0625,23.5 70.0625,23.875 Q70.0625,24.2656 69.7969,24.5 Q69.5313,24.7344 68.9219,24.7344 L67.2031,24.7344 Z "/><text fill="#000000" font-family="sans-serif" font-size="14" font-style="italic" lengthAdjust="spacingAndGlyphs" textLength="116" x="121.25" y="27.5332">CarrilCarroService</text><text fill="#000000" font-family="sans-serif" font-size="10" font-style="italic" lengthAdjust="spacingAndGlyphs" textLength="185" x="86.75" y="40.9902">co.com.sofka.cargame.usecase.services</text><line style="stroke: #A80036; stroke-width: 1.5;" x1="7" x2="319" y1="48.1875" y2="48.1875"/><ellipse cx="17" cy="60.6055" fill="#84BE84" rx="3" ry="3" style="stroke: #038048; stroke-width: 1.0;"/><text fill="#000000" font-family="sans-serif" font-size="11" font-style="italic" lengthAdjust="spacingAndGlyphs" textLength="288" x="26" y="63.6064">getCarrosSobreCarriles(JuegoId): List&lt;CarroSobreCarril&gt;</text></a><text fill="#888888" font-family="sans-serif" font-size="10" lengthAdjust="spacingAndGlyphs" textLength="190" x="74" y="90.3809">UMLDoclet 2.0.10, PlantUML 1.2019.08</text><!--
@startuml
    set namespaceSeparator none
    hide empty fields
    hide empty methods

    interface "<size:14>CarrilCarroService\n<size:10>co.com.sofka.cargame.usecase.services" as co.com.sofka.cargame.usecase.services.CarrilCarroService [[CarrilCarroService.html]] {
        {abstract} +getCarrosSobreCarriles(JuegoId): List<CarroSobreCarril>
    }

    center footer UMLDoclet 2.0.10, PlantUML 1.2019.08
@enduml

PlantUML version 1.2019.08(Sat Jul 13 14:25:14 COT 2019)
(APACHE source distribution)
Java Runtime: Java(TM) SE Runtime Environment
JVM: Java HotSpot(TM) 64-Bit Server VM
Java Version: 11.0.11+9-LTS-194
Operating System: Windows 10
OS Version: 10.0
Default Encoding: Cp1252
Language: es
Country: CO
--></g></svg>