<?xml version="1.0" encoding="UTF-8" standalone="no"?><svg xmlns="http://www.w3.org/2000/svg" xmlns:xlink="http://www.w3.org/1999/xlink" contentScriptType="application/ecmascript" contentStyleType="text/css" height="309px" preserveAspectRatio="none" style="width:623px;height:309px;" version="1.1" viewBox="0 0 623 309" width="623px" zoomAndPan="magnify"><defs><filter height="300%" id="f1uisqdxs2wauc" width="300%" x="-1" y="-1"><feGaussianBlur result="blurOut" stdDeviation="2.0"/><feColorMatrix in="blurOut" result="blurOut2" type="matrix" values="0 0 0 0 0 0 0 0 0 0 0 0 0 0 0 0 0 0 .4 0"/><feOffset dx="4.0" dy="4.0" in="blurOut2" result="blurOut3"/><feBlend in="SourceGraphic" in2="blurOut3" mode="normal"/></filter></defs><g><!--cluster co.com.sofka.cargame.usecase.services--><polygon fill="#FFFFFF" filter="url(#f1uisqdxs2wauc)" points="22,24,312,24,319,47.6094,601,47.6094,601,260,22,260,22,24" style="stroke: #000000; stroke-width: 1.5;"/><line style="stroke: #000000; stroke-width: 1.5;" x1="22" x2="319" y1="47.6094" y2="47.6094"/><text fill="#000000" font-family="sans-serif" font-size="14" font-weight="bold" lengthAdjust="spacingAndGlyphs" textLength="284" x="26" y="40.5332">co.com.sofka.cargame.usecase.services</text><!--class co.com.sofka.cargame.usecase.services.CarrilCarroService--><a href="CarrilCarroService.html" target="_top" xlink:actuate="onRequest" xlink:show="new" xlink:title="CarrilCarroService.html" xlink:type="simple"><rect fill="#FEFECE" filter="url(#f1uisqdxs2wauc)" height="61.8359" id="co.com.sofka.cargame.usecase.services.CarrilCarroService" style="stroke: #A80036; stroke-width: 1.5;" width="314" x="38" y="60"/><ellipse cx="139.75" cy="76" fill="#B4A7E5" rx="11" ry="11" style="stroke: #A80036; stroke-width: 1.0;"/><path d="M140.7031,72.6406 L140.7031,79.2969 L142.4219,79.2969 Q143.0313,79.2969 143.2969,79.5313 Q143.5625,79.7656 143.5625,80.1563 Q143.5625,80.5313 143.2969,80.7656 Q143.0313,81 142.4219,81 L137.2813,81 Q136.6719,81 136.4063,80.7656 Q136.1406,80.5313 136.1406,80.1406 Q136.1406,79.7656 136.4063,79.5313 Q136.6719,79.2969 137.2813,79.2969 L139,79.2969 L139,72.6406 L137.2813,72.6406 Q136.6719,72.6406 136.4063,72.4063 Q136.1406,72.1719 136.1406,71.7813 Q136.1406,71.4063 136.4063,71.1719 Q136.6719,70.9375 137.2813,70.9375 L142.4219,70.9375 Q143.0313,70.9375 143.2969,71.1719 Q143.5625,71.4063 143.5625,71.7813 Q143.5625,72.1719 143.2969,72.4063 Q143.0313,72.6406 142.4219,72.6406 L140.7031,72.6406 Z "/><text fill="#000000" font-family="sans-serif" font-size="12" font-style="italic" lengthAdjust="spacingAndGlyphs" textLength="102" x="160.25" y="80.9102">CarrilCarroService</text><line style="stroke: #A80036; stroke-width: 1.5;" x1="39" x2="351" y1="92" y2="92"/><line style="stroke: #A80036; stroke-width: 1.5;" x1="39" x2="351" y1="100" y2="100"/><ellipse cx="49" cy="112.418" fill="#84BE84" rx="3" ry="3" style="stroke: #038048; stroke-width: 1.0;"/><text fill="#000000" font-family="sans-serif" font-size="11" font-style="italic" lengthAdjust="spacingAndGlyphs" textLength="288" x="58" y="115.4189">getCarrosSobreCarriles(JuegoId): List&lt;CarroSobreCarril&gt;</text></a><!--class co.com.sofka.cargame.usecase.services.CarroService--><a href="CarroService.html" target="_top" xlink:actuate="onRequest" xlink:show="new" xlink:title="CarroService.html" xlink:type="simple"><rect fill="#FEFECE" filter="url(#f1uisqdxs2wauc)" height="61.8359" id="co.com.sofka.cargame.usecase.services.CarroService" style="stroke: #A80036; stroke-width: 1.5;" width="198" x="387" y="60"/><ellipse cx="445.75" cy="76" fill="#B4A7E5" rx="11" ry="11" style="stroke: #A80036; stroke-width: 1.0;"/><path d="M446.7031,72.6406 L446.7031,79.2969 L448.4219,79.2969 Q449.0313,79.2969 449.2969,79.5313 Q449.5625,79.7656 449.5625,80.1563 Q449.5625,80.5313 449.2969,80.7656 Q449.0313,81 448.4219,81 L443.2813,81 Q442.6719,81 442.4063,80.7656 Q442.1406,80.5313 442.1406,80.1406 Q442.1406,79.7656 442.4063,79.5313 Q442.6719,79.2969 443.2813,79.2969 L445,79.2969 L445,72.6406 L443.2813,72.6406 Q442.6719,72.6406 442.4063,72.4063 Q442.1406,72.1719 442.1406,71.7813 Q442.1406,71.4063 442.4063,71.1719 Q442.6719,70.9375 443.2813,70.9375 L448.4219,70.9375 Q449.0313,70.9375 449.2969,71.1719 Q449.5625,71.4063 449.5625,71.7813 Q449.5625,72.1719 449.2969,72.4063 Q449.0313,72.6406 448.4219,72.6406 L446.7031,72.6406 Z "/><text fill="#000000" font-family="sans-serif" font-size="12" font-style="italic" lengthAdjust="spacingAndGlyphs" textLength="72" x="466.25" y="80.9102">CarroService</text><line style="stroke: #A80036; stroke-width: 1.5;" x1="388" x2="584" y1="92" y2="92"/><line style="stroke: #A80036; stroke-width: 1.5;" x1="388" x2="584" y1="100" y2="100"/><ellipse cx="398" cy="112.418" fill="#84BE84" rx="3" ry="3" style="stroke: #038048; stroke-width: 1.0;"/><text fill="#000000" font-family="sans-serif" font-size="11" font-style="italic" lengthAdjust="spacingAndGlyphs" textLength="172" x="407" y="115.4189">getConductorIdPor(CarroId): String</text></a><!--class co.com.sofka.cargame.usecase.services.JuegoService--><a href="JuegoService.html" target="_top" xlink:actuate="onRequest" xlink:show="new" xlink:title="JuegoService.html" xlink:type="simple"><rect fill="#FEFECE" filter="url(#f1uisqdxs2wauc)" height="61.8359" id="co.com.sofka.cargame.usecase.services.JuegoService" style="stroke: #A80036; stroke-width: 1.5;" width="181" x="104.5" y="182"/><ellipse cx="153.25" cy="198" fill="#B4A7E5" rx="11" ry="11" style="stroke: #A80036; stroke-width: 1.0;"/><path d="M154.2031,194.6406 L154.2031,201.2969 L155.9219,201.2969 Q156.5313,201.2969 156.7969,201.5313 Q157.0625,201.7656 157.0625,202.1563 Q157.0625,202.5313 156.7969,202.7656 Q156.5313,203 155.9219,203 L150.7813,203 Q150.1719,203 149.9063,202.7656 Q149.6406,202.5313 149.6406,202.1406 Q149.6406,201.7656 149.9063,201.5313 Q150.1719,201.2969 150.7813,201.2969 L152.5,201.2969 L152.5,194.6406 L150.7813,194.6406 Q150.1719,194.6406 149.9063,194.4063 Q149.6406,194.1719 149.6406,193.7813 Q149.6406,193.4063 149.9063,193.1719 Q150.1719,192.9375 150.7813,192.9375 L155.9219,192.9375 Q156.5313,192.9375 156.7969,193.1719 Q157.0625,193.4063 157.0625,193.7813 Q157.0625,194.1719 156.7969,194.4063 Q156.5313,194.6406 155.9219,194.6406 L154.2031,194.6406 Z "/><text fill="#000000" font-family="sans-serif" font-size="12" font-style="italic" lengthAdjust="spacingAndGlyphs" textLength="75" x="173.75" y="202.9102">JuegoService</text><line style="stroke: #A80036; stroke-width: 1.5;" x1="105.5" x2="284.5" y1="214" y2="214"/><line style="stroke: #A80036; stroke-width: 1.5;" x1="105.5" x2="284.5" y1="222" y2="222"/><ellipse cx="115.5" cy="234.418" fill="#84BE84" rx="3" ry="3" style="stroke: #038048; stroke-width: 1.0;"/><text fill="#000000" font-family="sans-serif" font-size="11" font-style="italic" lengthAdjust="spacingAndGlyphs" textLength="155" x="124.5" y="237.4189">getKilometros(JuegoId): Integer</text></a><!--link co.com.sofka.cargame.usecase.services.CarrilCarroService to co.com.sofka.cargame.usecase.services.CarroService--><!--link co.com.sofka.cargame.usecase.services.CarrilCarroService to co.com.sofka.cargame.usecase.services.JuegoService--><text fill="#888888" font-family="sans-serif" font-size="10" lengthAdjust="spacingAndGlyphs" textLength="190" x="222.5" y="296.3809">UMLDoclet 2.0.10, PlantUML 1.2019.08</text><!--
@startuml
    namespace co.com.sofka.cargame.usecase.services {

        interface CarrilCarroService [[CarrilCarroService.html]] {
            {abstract} +getCarrosSobreCarriles(JuegoId): List<CarroSobreCarril>
        }

        interface CarroService [[CarroService.html]] {
            {abstract} +getConductorIdPor(CarroId): String
        }

        interface JuegoService [[JuegoService.html]] {
            {abstract} +getKilometros(JuegoId): Integer
        }

    }

    center footer UMLDoclet 2.0.10, PlantUML 1.2019.08
@enduml

PlantUML version 1.2019.08(Sat Jul 13 14:25:14 COT 2019)
(APACHE source distribution)
Java Runtime: Java(TM) SE Runtime Environment
JVM: Java HotSpot(TM) 64-Bit Server VM
Java Version: 11.0.11+9-LTS-194
Operating System: Windows 10
OS Version: 10.0
Default Encoding: Cp1252
Language: es
Country: CO
--></g></svg>