<?xml version="1.0" encoding="UTF-8" standalone="no"?><svg xmlns="http://www.w3.org/2000/svg" xmlns:xlink="http://www.w3.org/1999/xlink" contentScriptType="application/ecmascript" contentStyleType="text/css" height="325px" preserveAspectRatio="none" style="width:363px;height:325px;" version="1.1" viewBox="0 0 363 325" width="363px" zoomAndPan="magnify"><defs><filter height="300%" id="f1ohz3n5mzptzi" width="300%" x="-1" y="-1"><feGaussianBlur result="blurOut" stdDeviation="2.0"/><feColorMatrix in="blurOut" result="blurOut2" type="matrix" values="0 0 0 0 0 0 0 0 0 0 0 0 0 0 0 0 0 0 .4 0"/><feOffset dx="4.0" dy="4.0" in="blurOut2" result="blurOut3"/><feBlend in="SourceGraphic" in2="blurOut3" mode="normal"/></filter></defs><g><!--cluster co.com.sofka.cargame.domain.carro.values--><polygon fill="#FFFFFF" filter="url(#f1ohz3n5mzptzi)" points="22,148,331,148,338,171.6094,341,171.6094,341,276,22,276,22,148" style="stroke: #000000; stroke-width: 1.5;"/><line style="stroke: #000000; stroke-width: 1.5;" x1="22" x2="338" y1="171.6094" y2="171.6094"/><text fill="#000000" font-family="sans-serif" font-size="14" font-weight="bold" lengthAdjust="spacingAndGlyphs" textLength="303" x="26" y="164.5332">co.com.sofka.cargame.domain.carro.values</text><!--cluster co.com.sofka.domain.generic--><polygon fill="#FFFFFF" filter="url(#f1ohz3n5mzptzi)" points="83,24,294,24,301,47.6094,304,47.6094,304,124,83,124,83,24" style="stroke: #000000; stroke-width: 1.5;"/><line style="stroke: #000000; stroke-width: 1.5;" x1="83" x2="301" y1="47.6094" y2="47.6094"/><text fill="#000000" font-family="sans-serif" font-size="14" font-weight="bold" lengthAdjust="spacingAndGlyphs" textLength="205" x="87" y="40.5332">co.com.sofka.domain.generic</text><!--class co.com.sofka.cargame.domain.carro.values.CarroId--><a href="CarroId.html" target="_top" xlink:actuate="onRequest" xlink:show="new" xlink:title="CarroId.html" xlink:type="simple"><rect fill="#FEFECE" filter="url(#f1ohz3n5mzptzi)" height="75.6719" id="co.com.sofka.cargame.domain.carro.values.CarroId" style="stroke: #A80036; stroke-width: 1.5;" width="113" x="197.5" y="184"/><ellipse cx="230.5" cy="200" fill="#ADD1B2" rx="11" ry="11" style="stroke: #A80036; stroke-width: 1.0;"/><path d="M233.2656,195.875 Q233.4219,195.6563 233.6094,195.5469 Q233.7969,195.4375 234.0156,195.4375 Q234.3906,195.4375 234.625,195.7031 Q234.8594,195.9531 234.8594,196.5625 L234.8594,198.0156 Q234.8594,198.625 234.625,198.8906 Q234.3906,199.1563 234.0156,199.1563 Q233.6719,199.1563 233.4688,198.9531 Q233.2656,198.7656 233.1563,198.25 Q233.1094,197.8906 232.9219,197.7031 Q232.5938,197.3281 231.9844,197.1094 Q231.375,196.8906 230.75,196.8906 Q229.9844,196.8906 229.3438,197.2188 Q228.7188,197.5469 228.2188,198.2969 Q227.7344,199.0469 227.7344,200.0781 L227.7344,201.1719 Q227.7344,202.4063 228.625,203.2344 Q229.5156,204.0469 231.1094,204.0469 Q232.0469,204.0469 232.7031,203.7969 Q233.0938,203.6406 233.5156,203.2031 Q233.7813,202.9375 233.9219,202.8594 Q234.0781,202.7813 234.2813,202.7813 Q234.6094,202.7813 234.8594,203.0469 Q235.125,203.2969 235.125,203.6406 Q235.125,203.9844 234.7813,204.3906 Q234.2813,204.9688 233.4844,205.2969 Q232.4063,205.75 231.1094,205.75 Q229.5938,205.75 228.3906,205.125 Q227.4063,204.625 226.7188,203.5625 Q226.0313,202.4844 226.0313,201.2031 L226.0313,200.0469 Q226.0313,198.7188 226.6406,197.5781 Q227.2656,196.4219 228.3594,195.8125 Q229.4531,195.1875 230.6875,195.1875 Q231.4219,195.1875 232.0625,195.3594 Q232.7188,195.5156 233.2656,195.875 Z "/><text fill="#000000" font-family="sans-serif" font-size="12" lengthAdjust="spacingAndGlyphs" textLength="41" x="248.5" y="204.9102">CarroId</text><line style="stroke: #A80036; stroke-width: 1.5;" x1="198.5" x2="309.5" y1="216" y2="216"/><line style="stroke: #A80036; stroke-width: 1.5;" x1="198.5" x2="309.5" y1="224" y2="224"/><ellipse cx="208.5" cy="236.418" fill="#84BE84" rx="3" ry="3" style="stroke: #038048; stroke-width: 1.0;"/><text fill="#000000" font-family="sans-serif" font-size="11" lengthAdjust="spacingAndGlyphs" textLength="43" x="217.5" y="239.4189">CarroId()</text><ellipse cx="208.5" cy="250.2539" fill="#84BE84" rx="3" ry="3" style="stroke: #038048; stroke-width: 1.0;"/><text fill="#000000" font-family="sans-serif" font-size="11" lengthAdjust="spacingAndGlyphs" text-decoration="underline" textLength="87" x="217.5" y="253.2549">of(String): CarroId</text></a><!--class co.com.sofka.cargame.domain.carro.values.Cedula--><a href="Cedula.html" target="_top" xlink:actuate="onRequest" xlink:show="new" xlink:title="Cedula.html" xlink:type="simple"><rect fill="#FEFECE" filter="url(#f1ohz3n5mzptzi)" height="75.6719" id="co.com.sofka.cargame.domain.carro.values.Cedula" style="stroke: #A80036; stroke-width: 1.5;" width="111" x="51.5" y="184"/><ellipse cx="84.05" cy="200" fill="#ADD1B2" rx="11" ry="11" style="stroke: #A80036; stroke-width: 1.0;"/><path d="M86.8156,195.875 Q86.9719,195.6563 87.1594,195.5469 Q87.3469,195.4375 87.5656,195.4375 Q87.9406,195.4375 88.175,195.7031 Q88.4094,195.9531 88.4094,196.5625 L88.4094,198.0156 Q88.4094,198.625 88.175,198.8906 Q87.9406,199.1563 87.5656,199.1563 Q87.2219,199.1563 87.0188,198.9531 Q86.8156,198.7656 86.7063,198.25 Q86.6594,197.8906 86.4719,197.7031 Q86.1438,197.3281 85.5344,197.1094 Q84.925,196.8906 84.3,196.8906 Q83.5344,196.8906 82.8938,197.2188 Q82.2688,197.5469 81.7688,198.2969 Q81.2844,199.0469 81.2844,200.0781 L81.2844,201.1719 Q81.2844,202.4063 82.175,203.2344 Q83.0656,204.0469 84.6594,204.0469 Q85.5969,204.0469 86.2531,203.7969 Q86.6438,203.6406 87.0656,203.2031 Q87.3313,202.9375 87.4719,202.8594 Q87.6281,202.7813 87.8313,202.7813 Q88.1594,202.7813 88.4094,203.0469 Q88.675,203.2969 88.675,203.6406 Q88.675,203.9844 88.3313,204.3906 Q87.8313,204.9688 87.0344,205.2969 Q85.9563,205.75 84.6594,205.75 Q83.1438,205.75 81.9406,205.125 Q80.9563,204.625 80.2688,203.5625 Q79.5813,202.4844 79.5813,201.2031 L79.5813,200.0469 Q79.5813,198.7188 80.1906,197.5781 Q80.8156,196.4219 81.9094,195.8125 Q83.0031,195.1875 84.2375,195.1875 Q84.9719,195.1875 85.6125,195.3594 Q86.2688,195.5156 86.8156,195.875 Z "/><text fill="#000000" font-family="sans-serif" font-size="12" lengthAdjust="spacingAndGlyphs" textLength="40" x="101.95" y="204.9102">Cedula</text><line style="stroke: #A80036; stroke-width: 1.5;" x1="52.5" x2="161.5" y1="216" y2="216"/><line style="stroke: #A80036; stroke-width: 1.5;" x1="52.5" x2="161.5" y1="224" y2="224"/><ellipse cx="62.5" cy="236.418" fill="#84BE84" rx="3" ry="3" style="stroke: #038048; stroke-width: 1.0;"/><text fill="#000000" font-family="sans-serif" font-size="11" lengthAdjust="spacingAndGlyphs" textLength="41" x="71.5" y="239.4189">Cedula()</text><ellipse cx="62.5" cy="250.2539" fill="#84BE84" rx="3" ry="3" style="stroke: #038048; stroke-width: 1.0;"/><text fill="#000000" font-family="sans-serif" font-size="11" lengthAdjust="spacingAndGlyphs" text-decoration="underline" textLength="85" x="71.5" y="253.2549">of(String): Cedula</text></a><!--class co.com.sofka.domain.generic.Identity--><rect fill="#FEFECE" filter="url(#f1ohz3n5mzptzi)" height="48" id="co.com.sofka.domain.generic.Identity" style="stroke: #A80036; stroke-width: 1.5;" width="70" x="109" y="60"/><ellipse cx="124" cy="76" fill="#ADD1B2" rx="11" ry="11" style="stroke: #A80036; stroke-width: 1.0;"/><path d="M126.7656,71.875 Q126.9219,71.6563 127.1094,71.5469 Q127.2969,71.4375 127.5156,71.4375 Q127.8906,71.4375 128.125,71.7031 Q128.3594,71.9531 128.3594,72.5625 L128.3594,74.0156 Q128.3594,74.625 128.125,74.8906 Q127.8906,75.1563 127.5156,75.1563 Q127.1719,75.1563 126.9688,74.9531 Q126.7656,74.7656 126.6563,74.25 Q126.6094,73.8906 126.4219,73.7031 Q126.0938,73.3281 125.4844,73.1094 Q124.875,72.8906 124.25,72.8906 Q123.4844,72.8906 122.8438,73.2188 Q122.2188,73.5469 121.7188,74.2969 Q121.2344,75.0469 121.2344,76.0781 L121.2344,77.1719 Q121.2344,78.4063 122.125,79.2344 Q123.0156,80.0469 124.6094,80.0469 Q125.5469,80.0469 126.2031,79.7969 Q126.5938,79.6406 127.0156,79.2031 Q127.2813,78.9375 127.4219,78.8594 Q127.5781,78.7813 127.7813,78.7813 Q128.1094,78.7813 128.3594,79.0469 Q128.625,79.2969 128.625,79.6406 Q128.625,79.9844 128.2813,80.3906 Q127.7813,80.9688 126.9844,81.2969 Q125.9063,81.75 124.6094,81.75 Q123.0938,81.75 121.8906,81.125 Q120.9063,80.625 120.2188,79.5625 Q119.5313,78.4844 119.5313,77.2031 L119.5313,76.0469 Q119.5313,74.7188 120.1406,73.5781 Q120.7656,72.4219 121.8594,71.8125 Q122.9531,71.1875 124.1875,71.1875 Q124.9219,71.1875 125.5625,71.3594 Q126.2188,71.5156 126.7656,71.875 Z "/><text fill="#000000" font-family="sans-serif" font-size="12" lengthAdjust="spacingAndGlyphs" textLength="38" x="138" y="80.9102">Identity</text><line style="stroke: #A80036; stroke-width: 1.5;" x1="110" x2="178" y1="92" y2="92"/><line style="stroke: #A80036; stroke-width: 1.5;" x1="110" x2="178" y1="100" y2="100"/><!--link co.com.sofka.domain.generic.Identity to co.com.sofka.cargame.domain.carro.values.CarroId--><path d="M175.41,123.83 C190.68,142.72 208.95,165.3 224.03,183.94 " fill="none" id="co.com.sofka.domain.generic.Identity-co.com.sofka.cargame.domain.carro.values.CarroId" style="stroke: #A80036; stroke-width: 1.0;"/><polygon fill="none" points="169.79,128.02,162.66,108.07,180.68,119.22,169.79,128.02" style="stroke: #A80036; stroke-width: 1.0;"/><!--link co.com.sofka.domain.generic.Identity to co.com.sofka.cargame.domain.carro.values.Cedula--><path d="M132.41,127.62 C127.49,145.68 121.82,166.53 117.08,183.94 " fill="none" id="co.com.sofka.domain.generic.Identity-co.com.sofka.cargame.domain.carro.values.Cedula" style="stroke: #A80036; stroke-width: 1.0;"/><polygon fill="none" points="125.72,125.53,137.72,108.07,139.23,129.21,125.72,125.53" style="stroke: #A80036; stroke-width: 1.0;"/><text fill="#888888" font-family="sans-serif" font-size="10" lengthAdjust="spacingAndGlyphs" textLength="190" x="92.5" y="312.3809">UMLDoclet 2.0.10, PlantUML 1.2019.08</text><!--
@startuml
    namespace co.com.sofka.cargame.domain.carro.values {

        class CarroId [[CarroId.html]] {
            +CarroId()
            {static} +of(String): CarroId
        }

        class Cedula [[Cedula.html]] {
            +Cedula()
            {static} +of(String): Cedula
        }

        co.com.sofka.domain.generic.Identity <|- - CarroId
        co.com.sofka.domain.generic.Identity <|- - Cedula
    }

    namespace co.com.sofka.domain.generic {
        class Identity {
        }
    }

    center footer UMLDoclet 2.0.10, PlantUML 1.2019.08
@enduml

PlantUML version 1.2019.08(Sat Jul 13 14:25:14 COT 2019)
(APACHE source distribution)
Java Runtime: Java(TM) SE Runtime Environment
JVM: Java HotSpot(TM) 64-Bit Server VM
Java Version: 11.0.11+9-LTS-194
Operating System: Windows 10
OS Version: 10.0
Default Encoding: Cp1252
Language: es
Country: CO
--></g></svg>