<?xml version="1.0" encoding="UTF-8" standalone="no"?><svg xmlns="http://www.w3.org/2000/svg" xmlns:xlink="http://www.w3.org/1999/xlink" contentScriptType="application/ecmascript" contentStyleType="text/css" height="272px" preserveAspectRatio="none" style="width:287px;height:272px;" version="1.1" viewBox="0 0 287 272" width="287px" zoomAndPan="magnify"><defs><filter height="300%" id="f1iu7zt719x5yi" width="300%" x="-1" y="-1"><feGaussianBlur result="blurOut" stdDeviation="2.0"/><feColorMatrix in="blurOut" result="blurOut2" type="matrix" values="0 0 0 0 0 0 0 0 0 0 0 0 0 0 0 0 0 0 .4 0"/><feOffset dx="4.0" dy="4.0" in="blurOut2" result="blurOut3"/><feBlend in="SourceGraphic" in2="blurOut3" mode="normal"/></filter></defs><g><!--class co.com.sofka.cargame.domain.juego.command.CrearJuegoCommand--><a href="CrearJuegoCommand.html" target="_top" xlink:actuate="onRequest" xlink:show="new" xlink:title="CrearJuegoCommand.html" xlink:type="simple"><rect fill="#FEFECE" filter="url(#f1iu7zt719x5yi)" height="131.2031" id="co.com.sofka.cargame.domain.juego.command.CrearJuegoCommand" style="stroke: #A80036; stroke-width: 1.5;" width="270" x="6" y="108"/><ellipse cx="25.95" cy="128.0938" fill="#ADD1B2" rx="11" ry="11" style="stroke: #A80036; stroke-width: 1.0;"/><path d="M28.7156,123.9688 Q28.8719,123.75 29.0594,123.6406 Q29.2469,123.5313 29.4656,123.5313 Q29.8406,123.5313 30.075,123.7969 Q30.3094,124.0469 30.3094,124.6563 L30.3094,126.1094 Q30.3094,126.7188 30.075,126.9844 Q29.8406,127.25 29.4656,127.25 Q29.1219,127.25 28.9188,127.0469 Q28.7156,126.8594 28.6063,126.3438 Q28.5594,125.9844 28.3719,125.7969 Q28.0438,125.4219 27.4344,125.2031 Q26.825,124.9844 26.2,124.9844 Q25.4344,124.9844 24.7938,125.3125 Q24.1688,125.6406 23.6688,126.3906 Q23.1844,127.1406 23.1844,128.1719 L23.1844,129.2656 Q23.1844,130.5 24.075,131.3281 Q24.9656,132.1406 26.5594,132.1406 Q27.4969,132.1406 28.1531,131.8906 Q28.5438,131.7344 28.9656,131.2969 Q29.2313,131.0313 29.3719,130.9531 Q29.5281,130.875 29.7313,130.875 Q30.0594,130.875 30.3094,131.1406 Q30.575,131.3906 30.575,131.7344 Q30.575,132.0781 30.2313,132.4844 Q29.7313,133.0625 28.9344,133.3906 Q27.8563,133.8438 26.5594,133.8438 Q25.0438,133.8438 23.8406,133.2188 Q22.8563,132.7188 22.1688,131.6563 Q21.4813,130.5781 21.4813,129.2969 L21.4813,128.1406 Q21.4813,126.8125 22.0906,125.6719 Q22.7156,124.5156 23.8094,123.9063 Q24.9031,123.2813 26.1375,123.2813 Q26.8719,123.2813 27.5125,123.4531 Q28.1688,123.6094 28.7156,123.9688 Z "/><text fill="#000000" font-family="sans-serif" font-size="14" lengthAdjust="spacingAndGlyphs" textLength="138" x="85.55" y="127.5332">CrearJuegoCommand</text><text fill="#000000" font-family="sans-serif" font-size="10" lengthAdjust="spacingAndGlyphs" textLength="227" x="41.05" y="140.9902">co.com.sofka.cargame.domain.juego.command</text><line style="stroke: #A80036; stroke-width: 1.5;" x1="7" x2="275" y1="148.1875" y2="148.1875"/><ellipse cx="17" cy="160.6055" fill="#84BE84" rx="3" ry="3" style="stroke: #038048; stroke-width: 1.0;"/><text fill="#000000" font-family="sans-serif" font-size="11" lengthAdjust="spacingAndGlyphs" textLength="111" x="26" y="163.6064">CrearJuegoCommand()</text><ellipse cx="17" cy="174.4414" fill="#84BE84" rx="3" ry="3" style="stroke: #038048; stroke-width: 1.0;"/><text fill="#000000" font-family="sans-serif" font-size="11" lengthAdjust="spacingAndGlyphs" textLength="244" x="26" y="177.4424">CrearJuegoCommand(Integer, Map&lt;String, String&gt;)</text><ellipse cx="17" cy="188.2773" fill="#84BE84" rx="3" ry="3" style="stroke: #038048; stroke-width: 1.0;"/><text fill="#000000" font-family="sans-serif" font-size="11" lengthAdjust="spacingAndGlyphs" textLength="174" x="26" y="191.2783">getJugadores(): Map&lt;String, String&gt;</text><ellipse cx="17" cy="202.1133" fill="#84BE84" rx="3" ry="3" style="stroke: #038048; stroke-width: 1.0;"/><text fill="#000000" font-family="sans-serif" font-size="11" lengthAdjust="spacingAndGlyphs" textLength="194" x="26" y="205.1143">setJugadores(Map&lt;String, String&gt;): void</text><ellipse cx="17" cy="215.9492" fill="#84BE84" rx="3" ry="3" style="stroke: #038048; stroke-width: 1.0;"/><text fill="#000000" font-family="sans-serif" font-size="11" lengthAdjust="spacingAndGlyphs" textLength="112" x="26" y="218.9502">getKilometros(): Integer</text><ellipse cx="17" cy="229.7852" fill="#84BE84" rx="3" ry="3" style="stroke: #038048; stroke-width: 1.0;"/><text fill="#000000" font-family="sans-serif" font-size="11" lengthAdjust="spacingAndGlyphs" textLength="132" x="26" y="232.7861">setKilometros(Integer): void</text></a><!--class co.com.sofka.domain.generic.Command--><rect fill="#FEFECE" filter="url(#f1iu7zt719x5yi)" height="40.1875" id="co.com.sofka.domain.generic.Command" style="stroke: #A80036; stroke-width: 1.5;" width="167" x="57.5" y="8"/><ellipse cx="72.5" cy="28.0938" fill="#B4A7E5" rx="11" ry="11" style="stroke: #A80036; stroke-width: 1.0;"/><path d="M73.4531,24.7344 L73.4531,31.3906 L75.1719,31.3906 Q75.7813,31.3906 76.0469,31.625 Q76.3125,31.8594 76.3125,32.25 Q76.3125,32.625 76.0469,32.8594 Q75.7813,33.0938 75.1719,33.0938 L70.0313,33.0938 Q69.4219,33.0938 69.1563,32.8594 Q68.8906,32.625 68.8906,32.2344 Q68.8906,31.8594 69.1563,31.625 Q69.4219,31.3906 70.0313,31.3906 L71.75,31.3906 L71.75,24.7344 L70.0313,24.7344 Q69.4219,24.7344 69.1563,24.5 Q68.8906,24.2656 68.8906,23.875 Q68.8906,23.5 69.1563,23.2656 Q69.4219,23.0313 70.0313,23.0313 L75.1719,23.0313 Q75.7813,23.0313 76.0469,23.2656 Q76.3125,23.5 76.3125,23.875 Q76.3125,24.2656 76.0469,24.5 Q75.7813,24.7344 75.1719,24.7344 L73.4531,24.7344 Z "/><text fill="#000000" font-family="sans-serif" font-size="14" font-style="italic" lengthAdjust="spacingAndGlyphs" textLength="64" x="122" y="27.5332">Command</text><text fill="#000000" font-family="sans-serif" font-size="10" font-style="italic" lengthAdjust="spacingAndGlyphs" textLength="135" x="86.5" y="40.9902">co.com.sofka.domain.generic</text><!--link co.com.sofka.domain.generic.Command to co.com.sofka.cargame.domain.juego.command.CrearJuegoCommand--><path d="M141,68.46 C141,80.65 141,94.4 141,107.82 " fill="none" id="co.com.sofka.domain.generic.Command-co.com.sofka.cargame.domain.juego.command.CrearJuegoCommand" style="stroke: #A80036; stroke-width: 1.0; stroke-dasharray: 7.0,7.0;"/><polygon fill="none" points="134,68.06,141,48.06,148,68.06,134,68.06" style="stroke: #A80036; stroke-width: 1.0;"/><text fill="#888888" font-family="sans-serif" font-size="10" lengthAdjust="spacingAndGlyphs" textLength="190" x="52" y="259.3809">UMLDoclet 2.0.10, PlantUML 1.2019.08</text><!--
@startuml
    set namespaceSeparator none
    hide empty fields
    hide empty methods

    class "<size:14>CrearJuegoCommand\n<size:10>co.com.sofka.cargame.domain.juego.command" as co.com.sofka.cargame.domain.juego.command.CrearJuegoCommand [[CrearJuegoCommand.html]] {
        +CrearJuegoCommand()
        +CrearJuegoCommand(Integer, Map<String, String>)
        +getJugadores(): Map<String, String>
        +setJugadores(Map<String, String>): void
        +getKilometros(): Integer
        +setKilometros(Integer): void
    }

    interface "<size:14>Command\n<size:10>co.com.sofka.domain.generic" as co.com.sofka.domain.generic.Command

    co.com.sofka.domain.generic.Command <|.. co.com.sofka.cargame.domain.juego.command.CrearJuegoCommand

    center footer UMLDoclet 2.0.10, PlantUML 1.2019.08
@enduml

PlantUML version 1.2019.08(Sat Jul 13 14:25:14 COT 2019)
(APACHE source distribution)
Java Runtime: Java(TM) SE Runtime Environment
JVM: Java HotSpot(TM) 64-Bit Server VM
Java Version: 11.0.11+9-LTS-194
Operating System: Windows 10
OS Version: 10.0
Default Encoding: Cp1252
Language: es
Country: CO
--></g></svg>