<?xml version="1.0" encoding="UTF-8" standalone="no"?><svg xmlns="http://www.w3.org/2000/svg" xmlns:xlink="http://www.w3.org/1999/xlink" contentScriptType="application/ecmascript" contentStyleType="text/css" height="380px" preserveAspectRatio="none" style="width:555px;height:380px;" version="1.1" viewBox="0 0 555 380" width="555px" zoomAndPan="magnify"><defs><filter height="300%" id="f1nsdsvpmia1y1" width="300%" x="-1" y="-1"><feGaussianBlur result="blurOut" stdDeviation="2.0"/><feColorMatrix in="blurOut" result="blurOut2" type="matrix" values="0 0 0 0 0 0 0 0 0 0 0 0 0 0 0 0 0 0 .4 0"/><feOffset dx="4.0" dy="4.0" in="blurOut2" result="blurOut3"/><feBlend in="SourceGraphic" in2="blurOut3" mode="normal"/></filter></defs><g><!--cluster co.com.sofka.cargame.domain.juego.command--><polygon fill="#FFFFFF" filter="url(#f1nsdsvpmia1y1)" points="22,148,354,148,361,171.6094,533,171.6094,533,331,22,331,22,148" style="stroke: #000000; stroke-width: 1.5;"/><line style="stroke: #000000; stroke-width: 1.5;" x1="22" x2="361" y1="171.6094" y2="171.6094"/><text fill="#000000" font-family="sans-serif" font-size="14" font-weight="bold" lengthAdjust="spacingAndGlyphs" textLength="326" x="26" y="164.5332">co.com.sofka.cargame.domain.juego.command</text><!--cluster co.com.sofka.domain.generic--><polygon fill="#FFFFFF" filter="url(#f1nsdsvpmia1y1)" points="171,24,382,24,389,47.6094,392,47.6094,392,124,171,124,171,24" style="stroke: #000000; stroke-width: 1.5;"/><line style="stroke: #000000; stroke-width: 1.5;" x1="171" x2="389" y1="47.6094" y2="47.6094"/><text fill="#000000" font-family="sans-serif" font-size="14" font-weight="bold" lengthAdjust="spacingAndGlyphs" textLength="205" x="175" y="40.5332">co.com.sofka.domain.generic</text><!--class co.com.sofka.cargame.domain.juego.command.CrearJuegoCommand--><a href="CrearJuegoCommand.html" target="_top" xlink:actuate="onRequest" xlink:show="new" xlink:title="CrearJuegoCommand.html" xlink:type="simple"><rect fill="#FEFECE" filter="url(#f1nsdsvpmia1y1)" height="131.0156" id="co.com.sofka.cargame.domain.juego.command.CrearJuegoCommand" style="stroke: #A80036; stroke-width: 1.5;" width="270" x="247" y="184"/><ellipse cx="315.75" cy="200" fill="#ADD1B2" rx="11" ry="11" style="stroke: #A80036; stroke-width: 1.0;"/><path d="M318.5156,195.875 Q318.6719,195.6563 318.8594,195.5469 Q319.0469,195.4375 319.2656,195.4375 Q319.6406,195.4375 319.875,195.7031 Q320.1094,195.9531 320.1094,196.5625 L320.1094,198.0156 Q320.1094,198.625 319.875,198.8906 Q319.6406,199.1563 319.2656,199.1563 Q318.9219,199.1563 318.7188,198.9531 Q318.5156,198.7656 318.4063,198.25 Q318.3594,197.8906 318.1719,197.7031 Q317.8438,197.3281 317.2344,197.1094 Q316.625,196.8906 316,196.8906 Q315.2344,196.8906 314.5938,197.2188 Q313.9688,197.5469 313.4688,198.2969 Q312.9844,199.0469 312.9844,200.0781 L312.9844,201.1719 Q312.9844,202.4063 313.875,203.2344 Q314.7656,204.0469 316.3594,204.0469 Q317.2969,204.0469 317.9531,203.7969 Q318.3438,203.6406 318.7656,203.2031 Q319.0313,202.9375 319.1719,202.8594 Q319.3281,202.7813 319.5313,202.7813 Q319.8594,202.7813 320.1094,203.0469 Q320.375,203.2969 320.375,203.6406 Q320.375,203.9844 320.0313,204.3906 Q319.5313,204.9688 318.7344,205.2969 Q317.6563,205.75 316.3594,205.75 Q314.8438,205.75 313.6406,205.125 Q312.6563,204.625 311.9688,203.5625 Q311.2813,202.4844 311.2813,201.2031 L311.2813,200.0469 Q311.2813,198.7188 311.8906,197.5781 Q312.5156,196.4219 313.6094,195.8125 Q314.7031,195.1875 315.9375,195.1875 Q316.6719,195.1875 317.3125,195.3594 Q317.9688,195.5156 318.5156,195.875 Z "/><text fill="#000000" font-family="sans-serif" font-size="12" lengthAdjust="spacingAndGlyphs" textLength="124" x="336.25" y="204.9102">CrearJuegoCommand</text><line style="stroke: #A80036; stroke-width: 1.5;" x1="248" x2="516" y1="216" y2="216"/><line style="stroke: #A80036; stroke-width: 1.5;" x1="248" x2="516" y1="224" y2="224"/><ellipse cx="258" cy="236.418" fill="#84BE84" rx="3" ry="3" style="stroke: #038048; stroke-width: 1.0;"/><text fill="#000000" font-family="sans-serif" font-size="11" lengthAdjust="spacingAndGlyphs" textLength="111" x="267" y="239.4189">CrearJuegoCommand()</text><ellipse cx="258" cy="250.2539" fill="#84BE84" rx="3" ry="3" style="stroke: #038048; stroke-width: 1.0;"/><text fill="#000000" font-family="sans-serif" font-size="11" lengthAdjust="spacingAndGlyphs" textLength="244" x="267" y="253.2549">CrearJuegoCommand(Integer, Map&lt;String, String&gt;)</text><ellipse cx="258" cy="264.0898" fill="#84BE84" rx="3" ry="3" style="stroke: #038048; stroke-width: 1.0;"/><text fill="#000000" font-family="sans-serif" font-size="11" lengthAdjust="spacingAndGlyphs" textLength="174" x="267" y="267.0908">getJugadores(): Map&lt;String, String&gt;</text><ellipse cx="258" cy="277.9258" fill="#84BE84" rx="3" ry="3" style="stroke: #038048; stroke-width: 1.0;"/><text fill="#000000" font-family="sans-serif" font-size="11" lengthAdjust="spacingAndGlyphs" textLength="194" x="267" y="280.9268">setJugadores(Map&lt;String, String&gt;): void</text><ellipse cx="258" cy="291.7617" fill="#84BE84" rx="3" ry="3" style="stroke: #038048; stroke-width: 1.0;"/><text fill="#000000" font-family="sans-serif" font-size="11" lengthAdjust="spacingAndGlyphs" textLength="112" x="267" y="294.7627">getKilometros(): Integer</text><ellipse cx="258" cy="305.5977" fill="#84BE84" rx="3" ry="3" style="stroke: #038048; stroke-width: 1.0;"/><text fill="#000000" font-family="sans-serif" font-size="11" lengthAdjust="spacingAndGlyphs" textLength="132" x="267" y="308.5986">setKilometros(Integer): void</text></a><!--class co.com.sofka.cargame.domain.juego.command.InicarJuegoCommand--><a href="InicarJuegoCommand.html" target="_top" xlink:actuate="onRequest" xlink:show="new" xlink:title="InicarJuegoCommand.html" xlink:type="simple"><rect fill="#FEFECE" filter="url(#f1nsdsvpmia1y1)" height="103.3438" id="co.com.sofka.cargame.domain.juego.command.InicarJuegoCommand" style="stroke: #A80036; stroke-width: 1.5;" width="173" x="38.5" y="198"/><ellipse cx="61.6" cy="214" fill="#ADD1B2" rx="11" ry="11" style="stroke: #A80036; stroke-width: 1.0;"/><path d="M64.3656,209.875 Q64.5219,209.6563 64.7094,209.5469 Q64.8969,209.4375 65.1156,209.4375 Q65.4906,209.4375 65.725,209.7031 Q65.9594,209.9531 65.9594,210.5625 L65.9594,212.0156 Q65.9594,212.625 65.725,212.8906 Q65.4906,213.1563 65.1156,213.1563 Q64.7719,213.1563 64.5688,212.9531 Q64.3656,212.7656 64.2563,212.25 Q64.2094,211.8906 64.0219,211.7031 Q63.6938,211.3281 63.0844,211.1094 Q62.475,210.8906 61.85,210.8906 Q61.0844,210.8906 60.4438,211.2188 Q59.8188,211.5469 59.3188,212.2969 Q58.8344,213.0469 58.8344,214.0781 L58.8344,215.1719 Q58.8344,216.4063 59.725,217.2344 Q60.6156,218.0469 62.2094,218.0469 Q63.1469,218.0469 63.8031,217.7969 Q64.1938,217.6406 64.6156,217.2031 Q64.8813,216.9375 65.0219,216.8594 Q65.1781,216.7813 65.3813,216.7813 Q65.7094,216.7813 65.9594,217.0469 Q66.225,217.2969 66.225,217.6406 Q66.225,217.9844 65.8813,218.3906 Q65.3813,218.9688 64.5844,219.2969 Q63.5063,219.75 62.2094,219.75 Q60.6938,219.75 59.4906,219.125 Q58.5063,218.625 57.8188,217.5625 Q57.1313,216.4844 57.1313,215.2031 L57.1313,214.0469 Q57.1313,212.7188 57.7406,211.5781 Q58.3656,210.4219 59.4594,209.8125 Q60.5531,209.1875 61.7875,209.1875 Q62.5219,209.1875 63.1625,209.3594 Q63.8188,209.5156 64.3656,209.875 Z "/><text fill="#000000" font-family="sans-serif" font-size="12" lengthAdjust="spacingAndGlyphs" textLength="123" x="77.4" y="218.9102">InicarJuegoCommand</text><line style="stroke: #A80036; stroke-width: 1.5;" x1="39.5" x2="210.5" y1="230" y2="230"/><line style="stroke: #A80036; stroke-width: 1.5;" x1="39.5" x2="210.5" y1="238" y2="238"/><ellipse cx="49.5" cy="250.418" fill="#84BE84" rx="3" ry="3" style="stroke: #038048; stroke-width: 1.0;"/><text fill="#000000" font-family="sans-serif" font-size="11" lengthAdjust="spacingAndGlyphs" textLength="110" x="58.5" y="253.4189">InicarJuegoCommand()</text><ellipse cx="49.5" cy="264.2539" fill="#84BE84" rx="3" ry="3" style="stroke: #038048; stroke-width: 1.0;"/><text fill="#000000" font-family="sans-serif" font-size="11" lengthAdjust="spacingAndGlyphs" textLength="147" x="58.5" y="267.2549">InicarJuegoCommand(JuegoId)</text><ellipse cx="49.5" cy="278.0898" fill="#84BE84" rx="3" ry="3" style="stroke: #038048; stroke-width: 1.0;"/><text fill="#000000" font-family="sans-serif" font-size="11" lengthAdjust="spacingAndGlyphs" textLength="103" x="58.5" y="281.0908">getJuegoId(): JuegoId</text><ellipse cx="49.5" cy="291.9258" fill="#84BE84" rx="3" ry="3" style="stroke: #038048; stroke-width: 1.0;"/><text fill="#000000" font-family="sans-serif" font-size="11" lengthAdjust="spacingAndGlyphs" textLength="123" x="58.5" y="294.9268">setJuegoId(JuegoId): void</text></a><!--class co.com.sofka.domain.generic.Command--><rect fill="#FEFECE" filter="url(#f1nsdsvpmia1y1)" height="48" id="co.com.sofka.domain.generic.Command" style="stroke: #A80036; stroke-width: 1.5;" width="91" x="207.5" y="60"/><ellipse cx="222.5" cy="76" fill="#B4A7E5" rx="11" ry="11" style="stroke: #A80036; stroke-width: 1.0;"/><path d="M223.4531,72.6406 L223.4531,79.2969 L225.1719,79.2969 Q225.7813,79.2969 226.0469,79.5313 Q226.3125,79.7656 226.3125,80.1563 Q226.3125,80.5313 226.0469,80.7656 Q225.7813,81 225.1719,81 L220.0313,81 Q219.4219,81 219.1563,80.7656 Q218.8906,80.5313 218.8906,80.1406 Q218.8906,79.7656 219.1563,79.5313 Q219.4219,79.2969 220.0313,79.2969 L221.75,79.2969 L221.75,72.6406 L220.0313,72.6406 Q219.4219,72.6406 219.1563,72.4063 Q218.8906,72.1719 218.8906,71.7813 Q218.8906,71.4063 219.1563,71.1719 Q219.4219,70.9375 220.0313,70.9375 L225.1719,70.9375 Q225.7813,70.9375 226.0469,71.1719 Q226.3125,71.4063 226.3125,71.7813 Q226.3125,72.1719 226.0469,72.4063 Q225.7813,72.6406 225.1719,72.6406 L223.4531,72.6406 Z "/><text fill="#000000" font-family="sans-serif" font-size="12" font-style="italic" lengthAdjust="spacingAndGlyphs" textLength="59" x="236.5" y="80.9102">Command</text><line style="stroke: #A80036; stroke-width: 1.5;" x1="208.5" x2="297.5" y1="92" y2="92"/><line style="stroke: #A80036; stroke-width: 1.5;" x1="208.5" x2="297.5" y1="100" y2="100"/><!--link co.com.sofka.domain.generic.Command to co.com.sofka.cargame.domain.juego.command.CrearJuegoCommand--><path d="M283.71,123.93 C297.86,141.86 315.03,163.62 331.04,183.91 " fill="none" id="co.com.sofka.domain.generic.Command-co.com.sofka.cargame.domain.juego.command.CrearJuegoCommand" style="stroke: #A80036; stroke-width: 1.0; stroke-dasharray: 7.0,7.0;"/><polygon fill="none" points="278.1,128.12,271.21,108.08,289.09,119.44,278.1,128.12" style="stroke: #A80036; stroke-width: 1.0;"/><!--link co.com.sofka.domain.generic.Command to co.com.sofka.cargame.domain.juego.command.InicarJuegoCommand--><path d="M222.43,124.05 C205.09,146.19 183.22,174.14 164.59,197.94 " fill="none" id="co.com.sofka.domain.generic.Command-co.com.sofka.cargame.domain.juego.command.InicarJuegoCommand" style="stroke: #A80036; stroke-width: 1.0; stroke-dasharray: 7.0,7.0;"/><polygon fill="none" points="217.09,119.51,234.93,108.08,228.12,128.14,217.09,119.51" style="stroke: #A80036; stroke-width: 1.0;"/><text fill="#888888" font-family="sans-serif" font-size="10" lengthAdjust="spacingAndGlyphs" textLength="190" x="188.5" y="367.3809">UMLDoclet 2.0.10, PlantUML 1.2019.08</text><!--
@startuml
    namespace co.com.sofka.cargame.domain.juego.command {

        class CrearJuegoCommand [[CrearJuegoCommand.html]] {
            +CrearJuegoCommand()
            +CrearJuegoCommand(Integer, Map<String, String>)
            +getJugadores(): Map<String, String>
            +setJugadores(Map<String, String>): void
            +getKilometros(): Integer
            +setKilometros(Integer): void
        }

        class InicarJuegoCommand [[InicarJuegoCommand.html]] {
            +InicarJuegoCommand()
            +InicarJuegoCommand(JuegoId)
            +getJuegoId(): JuegoId
            +setJuegoId(JuegoId): void
        }

        co.com.sofka.domain.generic.Command <|.. CrearJuegoCommand
        co.com.sofka.domain.generic.Command <|.. InicarJuegoCommand
    }

    namespace co.com.sofka.domain.generic {
        interface Command
    }

    center footer UMLDoclet 2.0.10, PlantUML 1.2019.08
@enduml

PlantUML version 1.2019.08(Sat Jul 13 14:25:14 COT 2019)
(APACHE source distribution)
Java Runtime: Java(TM) SE Runtime Environment
JVM: Java HotSpot(TM) 64-Bit Server VM
Java Version: 11.0.11+9-LTS-194
Operating System: Windows 10
OS Version: 10.0
Default Encoding: Cp1252
Language: es
Country: CO
--></g></svg>