<?xml version="1.0" encoding="UTF-8" standalone="no"?><svg xmlns="http://www.w3.org/2000/svg" xmlns:xlink="http://www.w3.org/1999/xlink" contentScriptType="application/ecmascript" contentStyleType="text/css" height="239px" preserveAspectRatio="none" style="width:474px;height:239px;" version="1.1" viewBox="0 0 474 239" width="474px" zoomAndPan="magnify"><defs><filter height="300%" id="fun6v5imhy16i" width="300%" x="-1" y="-1"><feGaussianBlur result="blurOut" stdDeviation="2.0"/><feColorMatrix in="blurOut" result="blurOut2" type="matrix" values="0 0 0 0 0 0 0 0 0 0 0 0 0 0 0 0 0 0 .4 0"/><feOffset dx="4.0" dy="4.0" in="blurOut2" result="blurOut3"/><feBlend in="SourceGraphic" in2="blurOut3" mode="normal"/></filter></defs><g><!--class co.com.sofka.cargame.usecase.listeners.MotorJuegoUseCase--><a href="MotorJuegoUseCase.html" target="_top" xlink:actuate="onRequest" xlink:show="new" xlink:title="MotorJuegoUseCase.html" xlink:type="simple"><rect fill="#FEFECE" filter="url(#fun6v5imhy16i)" height="75.8594" id="co.com.sofka.cargame.usecase.listeners.MotorJuegoUseCase" style="stroke: #A80036; stroke-width: 1.5;" width="408" x="29" y="130"/><ellipse cx="134.25" cy="150.0938" fill="#ADD1B2" rx="11" ry="11" style="stroke: #A80036; stroke-width: 1.0;"/><path d="M137.0156,145.9688 Q137.1719,145.75 137.3594,145.6406 Q137.5469,145.5313 137.7656,145.5313 Q138.1406,145.5313 138.375,145.7969 Q138.6094,146.0469 138.6094,146.6563 L138.6094,148.1094 Q138.6094,148.7188 138.375,148.9844 Q138.1406,149.25 137.7656,149.25 Q137.4219,149.25 137.2188,149.0469 Q137.0156,148.8594 136.9063,148.3438 Q136.8594,147.9844 136.6719,147.7969 Q136.3438,147.4219 135.7344,147.2031 Q135.125,146.9844 134.5,146.9844 Q133.7344,146.9844 133.0938,147.3125 Q132.4688,147.6406 131.9688,148.3906 Q131.4844,149.1406 131.4844,150.1719 L131.4844,151.2656 Q131.4844,152.5 132.375,153.3281 Q133.2656,154.1406 134.8594,154.1406 Q135.7969,154.1406 136.4531,153.8906 Q136.8438,153.7344 137.2656,153.2969 Q137.5313,153.0313 137.6719,152.9531 Q137.8281,152.875 138.0313,152.875 Q138.3594,152.875 138.6094,153.1406 Q138.875,153.3906 138.875,153.7344 Q138.875,154.0781 138.5313,154.4844 Q138.0313,155.0625 137.2344,155.3906 Q136.1563,155.8438 134.8594,155.8438 Q133.3438,155.8438 132.1406,155.2188 Q131.1563,154.7188 130.4688,153.6563 Q129.7813,152.5781 129.7813,151.2969 L129.7813,150.1406 Q129.7813,148.8125 130.3906,147.6719 Q131.0156,146.5156 132.1094,145.9063 Q133.2031,145.2813 134.4375,145.2813 Q135.1719,145.2813 135.8125,145.4531 Q136.4688,145.6094 137.0156,145.9688 Z "/><text fill="#000000" font-family="sans-serif" font-size="14" lengthAdjust="spacingAndGlyphs" textLength="131" x="183.75" y="149.5332">MotorJuegoUseCase</text><text fill="#000000" font-family="sans-serif" font-size="10" lengthAdjust="spacingAndGlyphs" textLength="189" x="154.75" y="162.9902">co.com.sofka.cargame.usecase.listeners</text><line style="stroke: #A80036; stroke-width: 1.5;" x1="30" x2="436" y1="170.1875" y2="170.1875"/><ellipse cx="40" cy="182.6055" fill="#84BE84" rx="3" ry="3" style="stroke: #038048; stroke-width: 1.0;"/><text fill="#000000" font-family="sans-serif" font-size="11" lengthAdjust="spacingAndGlyphs" textLength="382" x="49" y="185.6064">MotorJuegoUseCase(MoverCarroUseCase, Subscriber&lt;? super DomainEvent&gt;)</text><ellipse cx="40" cy="196.4414" fill="#84BE84" rx="3" ry="3" style="stroke: #038048; stroke-width: 1.0;"/><text fill="#000000" font-family="sans-serif" font-size="11" lengthAdjust="spacingAndGlyphs" textLength="267" x="49" y="199.4424">executeUseCase(TriggeredEvent&lt;JuegoIniciado&gt;): void</text></a><!--class co.com.sofka.business.generic.UseCase--><rect fill="#FEFECE" filter="url(#fun6v5imhy16i)" height="62.0234" id="co.com.sofka.business.generic.UseCase" style="stroke: #A80036; stroke-width: 1.5;" width="454" x="6" y="8"/><ellipse cx="21" cy="28.0938" fill="#A9DCDF" rx="11" ry="11" style="stroke: #A80036; stroke-width: 1.0;"/><path d="M23.1875,29.8594 L19.0469,29.8594 L18.625,30.8906 L19.0469,30.8906 Q19.6563,30.8906 19.9219,31.125 Q20.1875,31.3594 20.1875,31.75 Q20.1875,32.125 19.9219,32.3594 Q19.6563,32.5938 19.0469,32.5938 L16.75,32.5938 Q16.1406,32.5938 15.8906,32.3594 Q15.625,32.125 15.625,31.7344 Q15.625,31.3594 15.9063,31.125 Q16.1719,30.875 16.7969,30.8906 L19.4688,24.2344 L18.3594,24.2344 Q17.75,24.2344 17.4844,24 Q17.2188,23.7656 17.2188,23.375 Q17.2188,23 17.4844,22.7656 Q17.75,22.5313 18.3594,22.5313 L22.0313,22.5313 L25.4219,30.8906 Q26.0156,30.8906 26.2031,31.0313 Q26.5938,31.2969 26.5938,31.75 Q26.5938,32.125 26.3281,32.3594 Q26.0781,32.5938 25.4688,32.5938 L23.1719,32.5938 Q22.5625,32.5938 22.2969,32.3594 Q22.0313,32.125 22.0313,31.7344 Q22.0313,31.3594 22.2969,31.125 Q22.5625,30.8906 23.1719,30.8906 L23.5938,30.8906 L23.1875,29.8594 Z M22.4688,28.1563 L21.1094,24.7813 L19.7344,28.1563 L22.4688,28.1563 Z "/><text fill="#000000" font-family="sans-serif" font-size="14" font-style="italic" lengthAdjust="spacingAndGlyphs" textLength="58" x="77.5" y="27.5332">UseCase</text><text fill="#000000" font-family="sans-serif" font-size="10" font-style="italic" lengthAdjust="spacingAndGlyphs" textLength="143" x="35" y="40.9902">co.com.sofka.business.generic</text><rect fill="#FFFFFF" height="17.0938" style="stroke: #000000; stroke-width: 1.0; stroke-dasharray: 2.0,2.0;" width="277" x="186" y="5"/><text fill="#000000" font-family="sans-serif" font-size="12" font-style="italic" lengthAdjust="spacingAndGlyphs" textLength="275" x="187" y="18.457">TriggeredEvent&lt;JuegoIniciado&gt;, ResponseEvents</text><line style="stroke: #A80036; stroke-width: 1.5;" x1="7" x2="459" y1="48.1875" y2="48.1875"/><ellipse cx="17" cy="60.6055" fill="#84BE84" rx="3" ry="3" style="stroke: #038048; stroke-width: 1.0;"/><text fill="#000000" font-family="sans-serif" font-size="11" font-style="italic" lengthAdjust="spacingAndGlyphs" textLength="274" x="26" y="63.6064">executeUseCase(TriggeredEvent&lt;JuegoIniciado&gt;): void</text><!--link co.com.sofka.business.generic.UseCase to co.com.sofka.cargame.usecase.listeners.MotorJuegoUseCase--><path d="M233,90.43 C233,103.59 233,117.53 233,129.86 " fill="none" id="co.com.sofka.business.generic.UseCase-co.com.sofka.cargame.usecase.listeners.MotorJuegoUseCase" style="stroke: #A80036; stroke-width: 1.0;"/><polygon fill="none" points="226,90.1,233,70.1,240,90.1,226,90.1" style="stroke: #A80036; stroke-width: 1.0;"/><text fill="#888888" font-family="sans-serif" font-size="10" lengthAdjust="spacingAndGlyphs" textLength="190" x="144" y="226.3809">UMLDoclet 2.0.10, PlantUML 1.2019.08</text><!--
@startuml
    set namespaceSeparator none
    hide empty fields
    hide empty methods

    class "<size:14>MotorJuegoUseCase\n<size:10>co.com.sofka.cargame.usecase.listeners" as co.com.sofka.cargame.usecase.listeners.MotorJuegoUseCase [[MotorJuegoUseCase.html]] {
        +MotorJuegoUseCase(MoverCarroUseCase, Subscriber<? super DomainEvent>)
        +executeUseCase(TriggeredEvent<JuegoIniciado>): void
    }

    abstract class "<size:14>UseCase\n<size:10>co.com.sofka.business.generic" as co.com.sofka.business.generic.UseCase<TriggeredEvent<JuegoIniciado>, ResponseEvents> {
        {abstract} +executeUseCase(TriggeredEvent<JuegoIniciado>): void
    }

    co.com.sofka.business.generic.UseCase <|- - co.com.sofka.cargame.usecase.listeners.MotorJuegoUseCase

    center footer UMLDoclet 2.0.10, PlantUML 1.2019.08
@enduml

PlantUML version 1.2019.08(Sat Jul 13 14:25:14 COT 2019)
(APACHE source distribution)
Java Runtime: Java(TM) SE Runtime Environment
JVM: Java HotSpot(TM) 64-Bit Server VM
Java Version: 11.0.11+9-LTS-194
Operating System: Windows 10
OS Version: 10.0
Default Encoding: Cp1252
Language: es
Country: CO
--></g></svg>