<?xml version="1.0" encoding="UTF-8" standalone="no"?><svg xmlns="http://www.w3.org/2000/svg" xmlns:xlink="http://www.w3.org/1999/xlink" contentScriptType="application/ecmascript" contentStyleType="text/css" height="225px" preserveAspectRatio="none" style="width:518px;height:225px;" version="1.1" viewBox="0 0 518 225" width="518px" zoomAndPan="magnify"><defs><filter height="300%" id="fuk9v80oz75bv" width="300%" x="-1" y="-1"><feGaussianBlur result="blurOut" stdDeviation="2.0"/><feColorMatrix in="blurOut" result="blurOut2" type="matrix" values="0 0 0 0 0 0 0 0 0 0 0 0 0 0 0 0 0 0 .4 0"/><feOffset dx="4.0" dy="4.0" in="blurOut2" result="blurOut3"/><feBlend in="SourceGraphic" in2="blurOut3" mode="normal"/></filter></defs><g><!--class co.com.sofka.cargame.usecase.listeners.MoverCarroEnCarrilUseCase--><a href="MoverCarroEnCarrilUseCase.html" target="_top" xlink:actuate="onRequest" xlink:show="new" xlink:title="MoverCarroEnCarrilUseCase.html" xlink:type="simple"><rect fill="#FEFECE" filter="url(#fuk9v80oz75bv)" height="62.0234" id="co.com.sofka.cargame.usecase.listeners.MoverCarroEnCarrilUseCase" style="stroke: #A80036; stroke-width: 1.5;" width="327" x="91.5" y="130"/><ellipse cx="156.25" cy="150.0938" fill="#ADD1B2" rx="11" ry="11" style="stroke: #A80036; stroke-width: 1.0;"/><path d="M159.0156,145.9688 Q159.1719,145.75 159.3594,145.6406 Q159.5469,145.5313 159.7656,145.5313 Q160.1406,145.5313 160.375,145.7969 Q160.6094,146.0469 160.6094,146.6563 L160.6094,148.1094 Q160.6094,148.7188 160.375,148.9844 Q160.1406,149.25 159.7656,149.25 Q159.4219,149.25 159.2188,149.0469 Q159.0156,148.8594 158.9063,148.3438 Q158.8594,147.9844 158.6719,147.7969 Q158.3438,147.4219 157.7344,147.2031 Q157.125,146.9844 156.5,146.9844 Q155.7344,146.9844 155.0938,147.3125 Q154.4688,147.6406 153.9688,148.3906 Q153.4844,149.1406 153.4844,150.1719 L153.4844,151.2656 Q153.4844,152.5 154.375,153.3281 Q155.2656,154.1406 156.8594,154.1406 Q157.7969,154.1406 158.4531,153.8906 Q158.8438,153.7344 159.2656,153.2969 Q159.5313,153.0313 159.6719,152.9531 Q159.8281,152.875 160.0313,152.875 Q160.3594,152.875 160.6094,153.1406 Q160.875,153.3906 160.875,153.7344 Q160.875,154.0781 160.5313,154.4844 Q160.0313,155.0625 159.2344,155.3906 Q158.1563,155.8438 156.8594,155.8438 Q155.3438,155.8438 154.1406,155.2188 Q153.1563,154.7188 152.4688,153.6563 Q151.7813,152.5781 151.7813,151.2969 L151.7813,150.1406 Q151.7813,148.8125 152.3906,147.6719 Q153.0156,146.5156 154.1094,145.9063 Q155.2031,145.2813 156.4375,145.2813 Q157.1719,145.2813 157.8125,145.4531 Q158.4688,145.6094 159.0156,145.9688 Z "/><text fill="#000000" font-family="sans-serif" font-size="14" lengthAdjust="spacingAndGlyphs" textLength="183" x="179.75" y="149.5332">MoverCarroEnCarrilUseCase</text><text fill="#000000" font-family="sans-serif" font-size="10" lengthAdjust="spacingAndGlyphs" textLength="189" x="176.75" y="162.9902">co.com.sofka.cargame.usecase.listeners</text><line style="stroke: #A80036; stroke-width: 1.5;" x1="92.5" x2="417.5" y1="170.1875" y2="170.1875"/><ellipse cx="102.5" cy="182.6055" fill="#84BE84" rx="3" ry="3" style="stroke: #038048; stroke-width: 1.0;"/><text fill="#000000" font-family="sans-serif" font-size="11" lengthAdjust="spacingAndGlyphs" textLength="301" x="111.5" y="185.6064">executeUseCase(TriggeredEvent&lt;KilometrajeCambiado&gt;): void</text></a><!--class co.com.sofka.business.generic.UseCase--><rect fill="#FEFECE" filter="url(#fuk9v80oz75bv)" height="62.0234" id="co.com.sofka.business.generic.UseCase" style="stroke: #A80036; stroke-width: 1.5;" width="498" x="6" y="8"/><ellipse cx="21" cy="28.0938" fill="#A9DCDF" rx="11" ry="11" style="stroke: #A80036; stroke-width: 1.0;"/><path d="M23.1875,29.8594 L19.0469,29.8594 L18.625,30.8906 L19.0469,30.8906 Q19.6563,30.8906 19.9219,31.125 Q20.1875,31.3594 20.1875,31.75 Q20.1875,32.125 19.9219,32.3594 Q19.6563,32.5938 19.0469,32.5938 L16.75,32.5938 Q16.1406,32.5938 15.8906,32.3594 Q15.625,32.125 15.625,31.7344 Q15.625,31.3594 15.9063,31.125 Q16.1719,30.875 16.7969,30.8906 L19.4688,24.2344 L18.3594,24.2344 Q17.75,24.2344 17.4844,24 Q17.2188,23.7656 17.2188,23.375 Q17.2188,23 17.4844,22.7656 Q17.75,22.5313 18.3594,22.5313 L22.0313,22.5313 L25.4219,30.8906 Q26.0156,30.8906 26.2031,31.0313 Q26.5938,31.2969 26.5938,31.75 Q26.5938,32.125 26.3281,32.3594 Q26.0781,32.5938 25.4688,32.5938 L23.1719,32.5938 Q22.5625,32.5938 22.2969,32.3594 Q22.0313,32.125 22.0313,31.7344 Q22.0313,31.3594 22.2969,31.125 Q22.5625,30.8906 23.1719,30.8906 L23.5938,30.8906 L23.1875,29.8594 Z M22.4688,28.1563 L21.1094,24.7813 L19.7344,28.1563 L22.4688,28.1563 Z "/><text fill="#000000" font-family="sans-serif" font-size="14" font-style="italic" lengthAdjust="spacingAndGlyphs" textLength="58" x="77.5" y="27.5332">UseCase</text><text fill="#000000" font-family="sans-serif" font-size="10" font-style="italic" lengthAdjust="spacingAndGlyphs" textLength="143" x="35" y="40.9902">co.com.sofka.business.generic</text><rect fill="#FFFFFF" height="17.0938" style="stroke: #000000; stroke-width: 1.0; stroke-dasharray: 2.0,2.0;" width="321" x="186" y="5"/><text fill="#000000" font-family="sans-serif" font-size="12" font-style="italic" lengthAdjust="spacingAndGlyphs" textLength="319" x="187" y="18.457">TriggeredEvent&lt;KilometrajeCambiado&gt;, ResponseEvents</text><line style="stroke: #A80036; stroke-width: 1.5;" x1="7" x2="503" y1="48.1875" y2="48.1875"/><ellipse cx="17" cy="60.6055" fill="#84BE84" rx="3" ry="3" style="stroke: #038048; stroke-width: 1.0;"/><text fill="#000000" font-family="sans-serif" font-size="11" font-style="italic" lengthAdjust="spacingAndGlyphs" textLength="312" x="26" y="63.6064">executeUseCase(TriggeredEvent&lt;KilometrajeCambiado&gt;): void</text><!--link co.com.sofka.business.generic.UseCase to co.com.sofka.cargame.usecase.listeners.MoverCarroEnCarrilUseCase--><path d="M255,90.37 C255,103.75 255,117.79 255,129.73 " fill="none" id="co.com.sofka.business.generic.UseCase-co.com.sofka.cargame.usecase.listeners.MoverCarroEnCarrilUseCase" style="stroke: #A80036; stroke-width: 1.0;"/><polygon fill="none" points="248,90.28,255,70.28,262,90.28,248,90.28" style="stroke: #A80036; stroke-width: 1.0;"/><text fill="#888888" font-family="sans-serif" font-size="10" lengthAdjust="spacingAndGlyphs" textLength="190" x="166" y="212.3809">UMLDoclet 2.0.10, PlantUML 1.2019.08</text><!--
@startuml
    set namespaceSeparator none
    hide empty fields
    hide empty methods

    class "<size:14>MoverCarroEnCarrilUseCase\n<size:10>co.com.sofka.cargame.usecase.listeners" as co.com.sofka.cargame.usecase.listeners.MoverCarroEnCarrilUseCase [[MoverCarroEnCarrilUseCase.html]] {
        +executeUseCase(TriggeredEvent<KilometrajeCambiado>): void
    }

    abstract class "<size:14>UseCase\n<size:10>co.com.sofka.business.generic" as co.com.sofka.business.generic.UseCase<TriggeredEvent<KilometrajeCambiado>, ResponseEvents> {
        {abstract} +executeUseCase(TriggeredEvent<KilometrajeCambiado>): void
    }

    co.com.sofka.business.generic.UseCase <|- - co.com.sofka.cargame.usecase.listeners.MoverCarroEnCarrilUseCase

    center footer UMLDoclet 2.0.10, PlantUML 1.2019.08
@enduml

PlantUML version 1.2019.08(Sat Jul 13 14:25:14 COT 2019)
(APACHE source distribution)
Java Runtime: Java(TM) SE Runtime Environment
JVM: Java HotSpot(TM) 64-Bit Server VM
Java Version: 11.0.11+9-LTS-194
Operating System: Windows 10
OS Version: 10.0
Default Encoding: Cp1252
Language: es
Country: CO
--></g></svg>