<?xml version="1.0" encoding="UTF-8" standalone="no"?><svg xmlns="http://www.w3.org/2000/svg" xmlns:xlink="http://www.w3.org/1999/xlink" contentScriptType="application/ecmascript" contentStyleType="text/css" height="339px" preserveAspectRatio="none" style="width:2236px;height:339px;" version="1.1" viewBox="0 0 2236 339" width="2236px" zoomAndPan="magnify"><defs><filter height="300%" id="fvmmte77zklpq" width="300%" x="-1" y="-1"><feGaussianBlur result="blurOut" stdDeviation="2.0"/><feColorMatrix in="blurOut" result="blurOut2" type="matrix" values="0 0 0 0 0 0 0 0 0 0 0 0 0 0 0 0 0 0 .4 0"/><feOffset dx="4.0" dy="4.0" in="blurOut2" result="blurOut3"/><feBlend in="SourceGraphic" in2="blurOut3" mode="normal"/></filter></defs><g><!--cluster co.com.sofka.cargame.usecase.listeners--><polygon fill="#FFFFFF" filter="url(#fvmmte77zklpq)" points="22,162,313,162,320,185.6094,2214,185.6094,2214,290,22,290,22,162" style="stroke: #000000; stroke-width: 1.5;"/><line style="stroke: #000000; stroke-width: 1.5;" x1="22" x2="320" y1="185.6094" y2="185.6094"/><text fill="#000000" font-family="sans-serif" font-size="14" font-weight="bold" lengthAdjust="spacingAndGlyphs" textLength="285" x="26" y="178.5332">co.com.sofka.cargame.usecase.listeners</text><!--cluster co.com.sofka.business.generic--><polygon fill="#FFFFFF" filter="url(#fvmmte77zklpq)" points="931,24,1155,24,1162,47.6094,1349,47.6094,1349,138,931,138,931,24" style="stroke: #000000; stroke-width: 1.5;"/><line style="stroke: #000000; stroke-width: 1.5;" x1="931" x2="1162" y1="47.6094" y2="47.6094"/><text fill="#000000" font-family="sans-serif" font-size="14" font-weight="bold" lengthAdjust="spacingAndGlyphs" textLength="218" x="935" y="40.5332">co.com.sofka.business.generic</text><!--class co.com.sofka.cargame.usecase.listeners.AsinarAPodioUseCase--><a href="AsinarAPodioUseCase.html" target="_top" xlink:actuate="onRequest" xlink:show="new" xlink:title="AsinarAPodioUseCase.html" xlink:type="simple"><rect fill="#FEFECE" filter="url(#fvmmte77zklpq)" height="61.8359" id="co.com.sofka.cargame.usecase.listeners.AsinarAPodioUseCase" style="stroke: #A80036; stroke-width: 1.5;" width="351" x="1846.5" y="205"/><ellipse cx="1954.25" cy="221" fill="#ADD1B2" rx="11" ry="11" style="stroke: #A80036; stroke-width: 1.0;"/><path d="M1957.0156,216.875 Q1957.1719,216.6563 1957.3594,216.5469 Q1957.5469,216.4375 1957.7656,216.4375 Q1958.1406,216.4375 1958.375,216.7031 Q1958.6094,216.9531 1958.6094,217.5625 L1958.6094,219.0156 Q1958.6094,219.625 1958.375,219.8906 Q1958.1406,220.1563 1957.7656,220.1563 Q1957.4219,220.1563 1957.2188,219.9531 Q1957.0156,219.7656 1956.9063,219.25 Q1956.8594,218.8906 1956.6719,218.7031 Q1956.3438,218.3281 1955.7344,218.1094 Q1955.125,217.8906 1954.5,217.8906 Q1953.7344,217.8906 1953.0938,218.2188 Q1952.4688,218.5469 1951.9688,219.2969 Q1951.4844,220.0469 1951.4844,221.0781 L1951.4844,222.1719 Q1951.4844,223.4063 1952.375,224.2344 Q1953.2656,225.0469 1954.8594,225.0469 Q1955.7969,225.0469 1956.4531,224.7969 Q1956.8438,224.6406 1957.2656,224.2031 Q1957.5313,223.9375 1957.6719,223.8594 Q1957.8281,223.7813 1958.0313,223.7813 Q1958.3594,223.7813 1958.6094,224.0469 Q1958.875,224.2969 1958.875,224.6406 Q1958.875,224.9844 1958.5313,225.3906 Q1958.0313,225.9688 1957.2344,226.2969 Q1956.1563,226.75 1954.8594,226.75 Q1953.3438,226.75 1952.1406,226.125 Q1951.1563,225.625 1950.4688,224.5625 Q1949.7813,223.4844 1949.7813,222.2031 L1949.7813,221.0469 Q1949.7813,219.7188 1950.3906,218.5781 Q1951.0156,217.4219 1952.1094,216.8125 Q1953.2031,216.1875 1954.4375,216.1875 Q1955.1719,216.1875 1955.8125,216.3594 Q1956.4688,216.5156 1957.0156,216.875 Z "/><text fill="#000000" font-family="sans-serif" font-size="12" lengthAdjust="spacingAndGlyphs" textLength="127" x="1974.75" y="225.9102">AsinarAPodioUseCase</text><line style="stroke: #A80036; stroke-width: 1.5;" x1="1847.5" x2="2196.5" y1="237" y2="237"/><line style="stroke: #A80036; stroke-width: 1.5;" x1="1847.5" x2="2196.5" y1="245" y2="245"/><ellipse cx="1857.5" cy="257.418" fill="#84BE84" rx="3" ry="3" style="stroke: #038048; stroke-width: 1.0;"/><text fill="#000000" font-family="sans-serif" font-size="11" lengthAdjust="spacingAndGlyphs" textLength="325" x="1866.5" y="260.4189">executeUseCase(TriggeredEvent&lt;CarroFinalizoSuRecorrido&gt;): void</text></a><!--class co.com.sofka.cargame.usecase.listeners.CrearCarrilUseCase--><a href="CrearCarrilUseCase.html" target="_top" xlink:actuate="onRequest" xlink:show="new" xlink:title="CrearCarrilUseCase.html" xlink:type="simple"><rect fill="#FEFECE" filter="url(#fvmmte77zklpq)" height="61.8359" id="co.com.sofka.cargame.usecase.listeners.CrearCarrilUseCase" style="stroke: #A80036; stroke-width: 1.5;" width="290" x="1521" y="205"/><ellipse cx="1604.75" cy="221" fill="#ADD1B2" rx="11" ry="11" style="stroke: #A80036; stroke-width: 1.0;"/><path d="M1607.5156,216.875 Q1607.6719,216.6563 1607.8594,216.5469 Q1608.0469,216.4375 1608.2656,216.4375 Q1608.6406,216.4375 1608.875,216.7031 Q1609.1094,216.9531 1609.1094,217.5625 L1609.1094,219.0156 Q1609.1094,219.625 1608.875,219.8906 Q1608.6406,220.1563 1608.2656,220.1563 Q1607.9219,220.1563 1607.7188,219.9531 Q1607.5156,219.7656 1607.4063,219.25 Q1607.3594,218.8906 1607.1719,218.7031 Q1606.8438,218.3281 1606.2344,218.1094 Q1605.625,217.8906 1605,217.8906 Q1604.2344,217.8906 1603.5938,218.2188 Q1602.9688,218.5469 1602.4688,219.2969 Q1601.9844,220.0469 1601.9844,221.0781 L1601.9844,222.1719 Q1601.9844,223.4063 1602.875,224.2344 Q1603.7656,225.0469 1605.3594,225.0469 Q1606.2969,225.0469 1606.9531,224.7969 Q1607.3438,224.6406 1607.7656,224.2031 Q1608.0313,223.9375 1608.1719,223.8594 Q1608.3281,223.7813 1608.5313,223.7813 Q1608.8594,223.7813 1609.1094,224.0469 Q1609.375,224.2969 1609.375,224.6406 Q1609.375,224.9844 1609.0313,225.3906 Q1608.5313,225.9688 1607.7344,226.2969 Q1606.6563,226.75 1605.3594,226.75 Q1603.8438,226.75 1602.6406,226.125 Q1601.6563,225.625 1600.9688,224.5625 Q1600.2813,223.4844 1600.2813,222.2031 L1600.2813,221.0469 Q1600.2813,219.7188 1600.8906,218.5781 Q1601.5156,217.4219 1602.6094,216.8125 Q1603.7031,216.1875 1604.9375,216.1875 Q1605.6719,216.1875 1606.3125,216.3594 Q1606.9688,216.5156 1607.5156,216.875 Z "/><text fill="#000000" font-family="sans-serif" font-size="12" lengthAdjust="spacingAndGlyphs" textLength="114" x="1625.25" y="225.9102">CrearCarrilUseCase</text><line style="stroke: #A80036; stroke-width: 1.5;" x1="1522" x2="1810" y1="237" y2="237"/><line style="stroke: #A80036; stroke-width: 1.5;" x1="1522" x2="1810" y1="245" y2="245"/><ellipse cx="1532" cy="257.418" fill="#84BE84" rx="3" ry="3" style="stroke: #038048; stroke-width: 1.0;"/><text fill="#000000" font-family="sans-serif" font-size="11" lengthAdjust="spacingAndGlyphs" textLength="264" x="1541" y="260.4189">executeUseCase(TriggeredEvent&lt;CarroCreado&gt;): void</text></a><!--class co.com.sofka.cargame.usecase.listeners.CrearCarroUseCase--><a href="CrearCarroUseCase.html" target="_top" xlink:actuate="onRequest" xlink:show="new" xlink:title="CrearCarroUseCase.html" xlink:type="simple"><rect fill="#FEFECE" filter="url(#fvmmte77zklpq)" height="61.8359" id="co.com.sofka.cargame.usecase.listeners.CrearCarroUseCase" style="stroke: #A80036; stroke-width: 1.5;" width="302" x="1184" y="205"/><ellipse cx="1273.25" cy="221" fill="#ADD1B2" rx="11" ry="11" style="stroke: #A80036; stroke-width: 1.0;"/><path d="M1276.0156,216.875 Q1276.1719,216.6563 1276.3594,216.5469 Q1276.5469,216.4375 1276.7656,216.4375 Q1277.1406,216.4375 1277.375,216.7031 Q1277.6094,216.9531 1277.6094,217.5625 L1277.6094,219.0156 Q1277.6094,219.625 1277.375,219.8906 Q1277.1406,220.1563 1276.7656,220.1563 Q1276.4219,220.1563 1276.2188,219.9531 Q1276.0156,219.7656 1275.9063,219.25 Q1275.8594,218.8906 1275.6719,218.7031 Q1275.3438,218.3281 1274.7344,218.1094 Q1274.125,217.8906 1273.5,217.8906 Q1272.7344,217.8906 1272.0938,218.2188 Q1271.4688,218.5469 1270.9688,219.2969 Q1270.4844,220.0469 1270.4844,221.0781 L1270.4844,222.1719 Q1270.4844,223.4063 1271.375,224.2344 Q1272.2656,225.0469 1273.8594,225.0469 Q1274.7969,225.0469 1275.4531,224.7969 Q1275.8438,224.6406 1276.2656,224.2031 Q1276.5313,223.9375 1276.6719,223.8594 Q1276.8281,223.7813 1277.0313,223.7813 Q1277.3594,223.7813 1277.6094,224.0469 Q1277.875,224.2969 1277.875,224.6406 Q1277.875,224.9844 1277.5313,225.3906 Q1277.0313,225.9688 1276.2344,226.2969 Q1275.1563,226.75 1273.8594,226.75 Q1272.3438,226.75 1271.1406,226.125 Q1270.1563,225.625 1269.4688,224.5625 Q1268.7813,223.4844 1268.7813,222.2031 L1268.7813,221.0469 Q1268.7813,219.7188 1269.3906,218.5781 Q1270.0156,217.4219 1271.1094,216.8125 Q1272.2031,216.1875 1273.4375,216.1875 Q1274.1719,216.1875 1274.8125,216.3594 Q1275.4688,216.5156 1276.0156,216.875 Z "/><text fill="#000000" font-family="sans-serif" font-size="12" lengthAdjust="spacingAndGlyphs" textLength="115" x="1293.75" y="225.9102">CrearCarroUseCase</text><line style="stroke: #A80036; stroke-width: 1.5;" x1="1185" x2="1485" y1="237" y2="237"/><line style="stroke: #A80036; stroke-width: 1.5;" x1="1185" x2="1485" y1="245" y2="245"/><ellipse cx="1195" cy="257.418" fill="#84BE84" rx="3" ry="3" style="stroke: #038048; stroke-width: 1.0;"/><text fill="#000000" font-family="sans-serif" font-size="11" lengthAdjust="spacingAndGlyphs" textLength="276" x="1204" y="260.4189">executeUseCase(TriggeredEvent&lt;JugadorCreado&gt;): void</text></a><!--class co.com.sofka.cargame.usecase.listeners.MotorJuegoUseCase--><a href="MotorJuegoUseCase.html" target="_top" xlink:actuate="onRequest" xlink:show="new" xlink:title="MotorJuegoUseCase.html" xlink:type="simple"><rect fill="#FEFECE" filter="url(#fvmmte77zklpq)" height="75.6719" id="co.com.sofka.cargame.usecase.listeners.MotorJuegoUseCase" style="stroke: #A80036; stroke-width: 1.5;" width="408" x="741" y="198"/><ellipse cx="882.25" cy="214" fill="#ADD1B2" rx="11" ry="11" style="stroke: #A80036; stroke-width: 1.0;"/><path d="M885.0156,209.875 Q885.1719,209.6563 885.3594,209.5469 Q885.5469,209.4375 885.7656,209.4375 Q886.1406,209.4375 886.375,209.7031 Q886.6094,209.9531 886.6094,210.5625 L886.6094,212.0156 Q886.6094,212.625 886.375,212.8906 Q886.1406,213.1563 885.7656,213.1563 Q885.4219,213.1563 885.2188,212.9531 Q885.0156,212.7656 884.9063,212.25 Q884.8594,211.8906 884.6719,211.7031 Q884.3438,211.3281 883.7344,211.1094 Q883.125,210.8906 882.5,210.8906 Q881.7344,210.8906 881.0938,211.2188 Q880.4688,211.5469 879.9688,212.2969 Q879.4844,213.0469 879.4844,214.0781 L879.4844,215.1719 Q879.4844,216.4063 880.375,217.2344 Q881.2656,218.0469 882.8594,218.0469 Q883.7969,218.0469 884.4531,217.7969 Q884.8438,217.6406 885.2656,217.2031 Q885.5313,216.9375 885.6719,216.8594 Q885.8281,216.7813 886.0313,216.7813 Q886.3594,216.7813 886.6094,217.0469 Q886.875,217.2969 886.875,217.6406 Q886.875,217.9844 886.5313,218.3906 Q886.0313,218.9688 885.2344,219.2969 Q884.1563,219.75 882.8594,219.75 Q881.3438,219.75 880.1406,219.125 Q879.1563,218.625 878.4688,217.5625 Q877.7813,216.4844 877.7813,215.2031 L877.7813,214.0469 Q877.7813,212.7188 878.3906,211.5781 Q879.0156,210.4219 880.1094,209.8125 Q881.2031,209.1875 882.4375,209.1875 Q883.1719,209.1875 883.8125,209.3594 Q884.4688,209.5156 885.0156,209.875 Z "/><text fill="#000000" font-family="sans-serif" font-size="12" lengthAdjust="spacingAndGlyphs" textLength="117" x="902.75" y="218.9102">MotorJuegoUseCase</text><line style="stroke: #A80036; stroke-width: 1.5;" x1="742" x2="1148" y1="230" y2="230"/><line style="stroke: #A80036; stroke-width: 1.5;" x1="742" x2="1148" y1="238" y2="238"/><ellipse cx="752" cy="250.418" fill="#84BE84" rx="3" ry="3" style="stroke: #038048; stroke-width: 1.0;"/><text fill="#000000" font-family="sans-serif" font-size="11" lengthAdjust="spacingAndGlyphs" textLength="382" x="761" y="253.4189">MotorJuegoUseCase(MoverCarroUseCase, Subscriber&lt;? super DomainEvent&gt;)</text><ellipse cx="752" cy="264.2539" fill="#84BE84" rx="3" ry="3" style="stroke: #038048; stroke-width: 1.0;"/><text fill="#000000" font-family="sans-serif" font-size="11" lengthAdjust="spacingAndGlyphs" textLength="267" x="761" y="267.2549">executeUseCase(TriggeredEvent&lt;JuegoIniciado&gt;): void</text></a><!--class co.com.sofka.cargame.usecase.listeners.MoverCarroEnCarrilUseCase--><a href="MoverCarroEnCarrilUseCase.html" target="_top" xlink:actuate="onRequest" xlink:show="new" xlink:title="MoverCarroEnCarrilUseCase.html" xlink:type="simple"><rect fill="#FEFECE" filter="url(#fvmmte77zklpq)" height="61.8359" id="co.com.sofka.cargame.usecase.listeners.MoverCarroEnCarrilUseCase" style="stroke: #A80036; stroke-width: 1.5;" width="327" x="378.5" y="205"/><ellipse cx="457.25" cy="221" fill="#ADD1B2" rx="11" ry="11" style="stroke: #A80036; stroke-width: 1.0;"/><path d="M460.0156,216.875 Q460.1719,216.6563 460.3594,216.5469 Q460.5469,216.4375 460.7656,216.4375 Q461.1406,216.4375 461.375,216.7031 Q461.6094,216.9531 461.6094,217.5625 L461.6094,219.0156 Q461.6094,219.625 461.375,219.8906 Q461.1406,220.1563 460.7656,220.1563 Q460.4219,220.1563 460.2188,219.9531 Q460.0156,219.7656 459.9063,219.25 Q459.8594,218.8906 459.6719,218.7031 Q459.3438,218.3281 458.7344,218.1094 Q458.125,217.8906 457.5,217.8906 Q456.7344,217.8906 456.0938,218.2188 Q455.4688,218.5469 454.9688,219.2969 Q454.4844,220.0469 454.4844,221.0781 L454.4844,222.1719 Q454.4844,223.4063 455.375,224.2344 Q456.2656,225.0469 457.8594,225.0469 Q458.7969,225.0469 459.4531,224.7969 Q459.8438,224.6406 460.2656,224.2031 Q460.5313,223.9375 460.6719,223.8594 Q460.8281,223.7813 461.0313,223.7813 Q461.3594,223.7813 461.6094,224.0469 Q461.875,224.2969 461.875,224.6406 Q461.875,224.9844 461.5313,225.3906 Q461.0313,225.9688 460.2344,226.2969 Q459.1563,226.75 457.8594,226.75 Q456.3438,226.75 455.1406,226.125 Q454.1563,225.625 453.4688,224.5625 Q452.7813,223.4844 452.7813,222.2031 L452.7813,221.0469 Q452.7813,219.7188 453.3906,218.5781 Q454.0156,217.4219 455.1094,216.8125 Q456.2031,216.1875 457.4375,216.1875 Q458.1719,216.1875 458.8125,216.3594 Q459.4688,216.5156 460.0156,216.875 Z "/><text fill="#000000" font-family="sans-serif" font-size="12" lengthAdjust="spacingAndGlyphs" textLength="161" x="477.75" y="225.9102">MoverCarroEnCarrilUseCase</text><line style="stroke: #A80036; stroke-width: 1.5;" x1="379.5" x2="704.5" y1="237" y2="237"/><line style="stroke: #A80036; stroke-width: 1.5;" x1="379.5" x2="704.5" y1="245" y2="245"/><ellipse cx="389.5" cy="257.418" fill="#84BE84" rx="3" ry="3" style="stroke: #038048; stroke-width: 1.0;"/><text fill="#000000" font-family="sans-serif" font-size="11" lengthAdjust="spacingAndGlyphs" textLength="301" x="398.5" y="260.4189">executeUseCase(TriggeredEvent&lt;KilometrajeCambiado&gt;): void</text></a><!--class co.com.sofka.cargame.usecase.listeners.NotificarGanadoresUseCase--><a href="NotificarGanadoresUseCase.html" target="_top" xlink:actuate="onRequest" xlink:show="new" xlink:title="NotificarGanadoresUseCase.html" xlink:type="simple"><rect fill="#FEFECE" filter="url(#fvmmte77zklpq)" height="61.8359" id="co.com.sofka.cargame.usecase.listeners.NotificarGanadoresUseCase" style="stroke: #A80036; stroke-width: 1.5;" width="305" x="38.5" y="205"/><ellipse cx="106.75" cy="221" fill="#ADD1B2" rx="11" ry="11" style="stroke: #A80036; stroke-width: 1.0;"/><path d="M109.5156,216.875 Q109.6719,216.6563 109.8594,216.5469 Q110.0469,216.4375 110.2656,216.4375 Q110.6406,216.4375 110.875,216.7031 Q111.1094,216.9531 111.1094,217.5625 L111.1094,219.0156 Q111.1094,219.625 110.875,219.8906 Q110.6406,220.1563 110.2656,220.1563 Q109.9219,220.1563 109.7188,219.9531 Q109.5156,219.7656 109.4063,219.25 Q109.3594,218.8906 109.1719,218.7031 Q108.8438,218.3281 108.2344,218.1094 Q107.625,217.8906 107,217.8906 Q106.2344,217.8906 105.5938,218.2188 Q104.9688,218.5469 104.4688,219.2969 Q103.9844,220.0469 103.9844,221.0781 L103.9844,222.1719 Q103.9844,223.4063 104.875,224.2344 Q105.7656,225.0469 107.3594,225.0469 Q108.2969,225.0469 108.9531,224.7969 Q109.3438,224.6406 109.7656,224.2031 Q110.0313,223.9375 110.1719,223.8594 Q110.3281,223.7813 110.5313,223.7813 Q110.8594,223.7813 111.1094,224.0469 Q111.375,224.2969 111.375,224.6406 Q111.375,224.9844 111.0313,225.3906 Q110.5313,225.9688 109.7344,226.2969 Q108.6563,226.75 107.3594,226.75 Q105.8438,226.75 104.6406,226.125 Q103.6563,225.625 102.9688,224.5625 Q102.2813,223.4844 102.2813,222.2031 L102.2813,221.0469 Q102.2813,219.7188 102.8906,218.5781 Q103.5156,217.4219 104.6094,216.8125 Q105.7031,216.1875 106.9375,216.1875 Q107.6719,216.1875 108.3125,216.3594 Q108.9688,216.5156 109.5156,216.875 Z "/><text fill="#000000" font-family="sans-serif" font-size="12" lengthAdjust="spacingAndGlyphs" textLength="160" x="127.25" y="225.9102">NotificarGanadoresUseCase</text><line style="stroke: #A80036; stroke-width: 1.5;" x1="39.5" x2="342.5" y1="237" y2="237"/><line style="stroke: #A80036; stroke-width: 1.5;" x1="39.5" x2="342.5" y1="245" y2="245"/><ellipse cx="49.5" cy="257.418" fill="#84BE84" rx="3" ry="3" style="stroke: #038048; stroke-width: 1.0;"/><text fill="#000000" font-family="sans-serif" font-size="11" lengthAdjust="spacingAndGlyphs" textLength="279" x="58.5" y="260.4189">executeUseCase(TriggeredEvent&lt;JuegoFinalizado&gt;): void</text></a><!--class co.com.sofka.business.generic.UseCase--><rect fill="#FEFECE" filter="url(#fvmmte77zklpq)" height="61.8359" id="co.com.sofka.business.generic.UseCase" style="stroke: #A80036; stroke-width: 1.5;" width="386" x="947" y="60"/><ellipse cx="962" cy="76" fill="#A9DCDF" rx="11" ry="11" style="stroke: #A80036; stroke-width: 1.0;"/><path d="M964.1875,77.7656 L960.0469,77.7656 L959.625,78.7969 L960.0469,78.7969 Q960.6563,78.7969 960.9219,79.0313 Q961.1875,79.2656 961.1875,79.6563 Q961.1875,80.0313 960.9219,80.2656 Q960.6563,80.5 960.0469,80.5 L957.75,80.5 Q957.1406,80.5 956.8906,80.2656 Q956.625,80.0313 956.625,79.6406 Q956.625,79.2656 956.9063,79.0313 Q957.1719,78.7813 957.7969,78.7969 L960.4688,72.1406 L959.3594,72.1406 Q958.75,72.1406 958.4844,71.9063 Q958.2188,71.6719 958.2188,71.2813 Q958.2188,70.9063 958.4844,70.6719 Q958.75,70.4375 959.3594,70.4375 L963.0313,70.4375 L966.4219,78.7969 Q967.0156,78.7969 967.2031,78.9375 Q967.5938,79.2031 967.5938,79.6563 Q967.5938,80.0313 967.3281,80.2656 Q967.0781,80.5 966.4688,80.5 L964.1719,80.5 Q963.5625,80.5 963.2969,80.2656 Q963.0313,80.0313 963.0313,79.6406 Q963.0313,79.2656 963.2969,79.0313 Q963.5625,78.7969 964.1719,78.7969 L964.5938,78.7969 L964.1875,77.7656 Z M963.4688,76.0625 L962.1094,72.6875 L960.7344,76.0625 L963.4688,76.0625 Z "/><text fill="#000000" font-family="sans-serif" font-size="12" font-style="italic" lengthAdjust="spacingAndGlyphs" textLength="51" x="976" y="80.9102">UseCase</text><rect fill="#FFFFFF" height="17.0938" style="stroke: #000000; stroke-width: 1.0; stroke-dasharray: 2.0,2.0;" width="301" x="1035" y="57"/><text fill="#000000" font-family="sans-serif" font-size="12" font-style="italic" lengthAdjust="spacingAndGlyphs" textLength="299" x="1036" y="70.457">Q extends RequestValues, P extends ResponseValues</text><line style="stroke: #A80036; stroke-width: 1.5;" x1="948" x2="1332" y1="92" y2="92"/><line style="stroke: #A80036; stroke-width: 1.5;" x1="948" x2="1332" y1="100" y2="100"/><ellipse cx="958" cy="112.418" fill="#84BE84" rx="3" ry="3" style="stroke: #038048; stroke-width: 1.0;"/><text fill="#000000" font-family="sans-serif" font-size="11" font-style="italic" lengthAdjust="spacingAndGlyphs" textLength="247" x="967" y="115.4189">executeUseCase(Q extends RequestValues): void</text><!--link co.com.sofka.business.generic.UseCase to co.com.sofka.cargame.usecase.listeners.AsinarAPodioUseCase--><path d="M1353.47,94.36 C1491,99.99 1672.66,115.15 1829,154 C1875.9,165.65 1926.16,187.06 1963.63,204.94 " fill="none" id="co.com.sofka.business.generic.UseCase-co.com.sofka.cargame.usecase.listeners.AsinarAPodioUseCase" style="stroke: #A80036; stroke-width: 1.0;"/><polygon fill="none" points="1352.79,101.34,1333.08,93.58,1353.33,87.35,1352.79,101.34" style="stroke: #A80036; stroke-width: 1.0;"/><!--link co.com.sofka.business.generic.UseCase to co.com.sofka.cargame.usecase.listeners.CrearCarrilUseCase--><path d="M1353.2,117.5 C1403.36,126.45 1456.13,138.34 1504,154 C1543,166.76 1584.34,187.56 1615.49,204.89 " fill="none" id="co.com.sofka.business.generic.UseCase-co.com.sofka.cargame.usecase.listeners.CrearCarrilUseCase" style="stroke: #A80036; stroke-width: 1.0;"/><polygon fill="none" points="1351.9,124.37,1333.38,114.08,1354.28,110.58,1351.9,124.37" style="stroke: #A80036; stroke-width: 1.0;"/><!--link co.com.sofka.business.generic.UseCase to co.com.sofka.cargame.usecase.listeners.CrearCarroUseCase--><path d="M1197.78,134.37 C1228.73,157.07 1266.11,184.48 1294.04,204.96 " fill="none" id="co.com.sofka.business.generic.UseCase-co.com.sofka.cargame.usecase.listeners.CrearCarroUseCase" style="stroke: #A80036; stroke-width: 1.0;"/><polygon fill="none" points="1193.34,139.8,1181.35,122.33,1201.62,128.51,1193.34,139.8" style="stroke: #A80036; stroke-width: 1.0;"/><!--link co.com.sofka.business.generic.UseCase to co.com.sofka.cargame.usecase.listeners.MotorJuegoUseCase--><path d="M1082.28,134.33 C1054.78,154.5 1022.18,178.4 995.65,197.85 " fill="none" id="co.com.sofka.business.generic.UseCase-co.com.sofka.cargame.usecase.listeners.MotorJuegoUseCase" style="stroke: #A80036; stroke-width: 1.0;"/><polygon fill="none" points="1078.38,128.51,1098.65,122.33,1086.66,139.8,1078.38,128.51" style="stroke: #A80036; stroke-width: 1.0;"/><!--link co.com.sofka.business.generic.UseCase to co.com.sofka.cargame.usecase.listeners.MoverCarroEnCarrilUseCase--><path d="M926.67,112.51 C860.87,121.84 788.73,135.15 724,154 C680.5,166.67 633.86,187.58 598.69,204.98 " fill="none" id="co.com.sofka.business.generic.UseCase-co.com.sofka.cargame.usecase.listeners.MoverCarroEnCarrilUseCase" style="stroke: #A80036; stroke-width: 1.0;"/><polygon fill="none" points="926.1,105.52,946.87,109.74,928,119.39,926.1,105.52" style="stroke: #A80036; stroke-width: 1.0;"/><!--link co.com.sofka.business.generic.UseCase to co.com.sofka.cargame.usecase.listeners.NotificarGanadoresUseCase--><path d="M926.56,100.28 C733.37,109.35 463.83,126.42 361,154 C318.84,165.31 274.43,186.85 241.57,204.88 " fill="none" id="co.com.sofka.business.generic.UseCase-co.com.sofka.cargame.usecase.listeners.NotificarGanadoresUseCase" style="stroke: #A80036; stroke-width: 1.0;"/><polygon fill="none" points="926.47,93.27,946.77,99.34,927.11,107.26,926.47,93.27" style="stroke: #A80036; stroke-width: 1.0;"/><text fill="#888888" font-family="sans-serif" font-size="10" lengthAdjust="spacingAndGlyphs" textLength="190" x="1029" y="326.3809">UMLDoclet 2.0.10, PlantUML 1.2019.08</text><!--
@startuml
    namespace co.com.sofka.cargame.usecase.listeners {

        class AsinarAPodioUseCase [[AsinarAPodioUseCase.html]] {
            +executeUseCase(TriggeredEvent<CarroFinalizoSuRecorrido>): void
        }

        class CrearCarrilUseCase [[CrearCarrilUseCase.html]] {
            +executeUseCase(TriggeredEvent<CarroCreado>): void
        }

        class CrearCarroUseCase [[CrearCarroUseCase.html]] {
            +executeUseCase(TriggeredEvent<JugadorCreado>): void
        }

        class MotorJuegoUseCase [[MotorJuegoUseCase.html]] {
            +MotorJuegoUseCase(MoverCarroUseCase, Subscriber<? super DomainEvent>)
            +executeUseCase(TriggeredEvent<JuegoIniciado>): void
        }

        class MoverCarroEnCarrilUseCase [[MoverCarroEnCarrilUseCase.html]] {
            +executeUseCase(TriggeredEvent<KilometrajeCambiado>): void
        }

        class NotificarGanadoresUseCase [[NotificarGanadoresUseCase.html]] {
            +executeUseCase(TriggeredEvent<JuegoFinalizado>): void
        }

        co.com.sofka.business.generic.UseCase <|- - AsinarAPodioUseCase
        co.com.sofka.business.generic.UseCase <|- - CrearCarrilUseCase
        co.com.sofka.business.generic.UseCase <|- - CrearCarroUseCase
        co.com.sofka.business.generic.UseCase <|- - MotorJuegoUseCase
        co.com.sofka.business.generic.UseCase <|- - MoverCarroEnCarrilUseCase
        co.com.sofka.business.generic.UseCase <|- - NotificarGanadoresUseCase
    }

    namespace co.com.sofka.business.generic {
        abstract class UseCase<Q extends RequestValues, P extends ResponseValues> {
            {abstract} +executeUseCase(Q extends RequestValues): void
        }
    }

    center footer UMLDoclet 2.0.10, PlantUML 1.2019.08
@enduml

PlantUML version 1.2019.08(Sat Jul 13 14:25:14 COT 2019)
(APACHE source distribution)
Java Runtime: Java(TM) SE Runtime Environment
JVM: Java HotSpot(TM) 64-Bit Server VM
Java Version: 11.0.11+9-LTS-194
Operating System: Windows 10
OS Version: 10.0
Default Encoding: Cp1252
Language: es
Country: CO
--></g></svg>