<?xml version="1.0" encoding="UTF-8" standalone="no"?><svg xmlns="http://www.w3.org/2000/svg" xmlns:xlink="http://www.w3.org/1999/xlink" contentScriptType="application/ecmascript" contentStyleType="text/css" height="349px" preserveAspectRatio="none" style="width:238px;height:349px;" version="1.1" viewBox="0 0 238 349" width="238px" zoomAndPan="magnify"><defs><filter height="300%" id="fziganb3omx3e" width="300%" x="-1" y="-1"><feGaussianBlur result="blurOut" stdDeviation="2.0"/><feColorMatrix in="blurOut" result="blurOut2" type="matrix" values="0 0 0 0 0 0 0 0 0 0 0 0 0 0 0 0 0 0 .4 0"/><feOffset dx="4.0" dy="4.0" in="blurOut2" result="blurOut3"/><feBlend in="SourceGraphic" in2="blurOut3" mode="normal"/></filter></defs><g><!--class co.com.sofka.cargame.domain.carro.Carro--><a href="Carro.html" target="_top" xlink:actuate="onRequest" xlink:show="new" xlink:title="Carro.html" xlink:type="simple"><rect fill="#FEFECE" filter="url(#fziganb3omx3e)" height="208.3828" id="co.com.sofka.cargame.domain.carro.Carro" style="stroke: #A80036; stroke-width: 1.5;" width="221" x="6" y="108"/><ellipse cx="28.2" cy="128.0938" fill="#ADD1B2" rx="11" ry="11" style="stroke: #A80036; stroke-width: 1.0;"/><path d="M30.9656,123.9688 Q31.1219,123.75 31.3094,123.6406 Q31.4969,123.5313 31.7156,123.5313 Q32.0906,123.5313 32.325,123.7969 Q32.5594,124.0469 32.5594,124.6563 L32.5594,126.1094 Q32.5594,126.7188 32.325,126.9844 Q32.0906,127.25 31.7156,127.25 Q31.3719,127.25 31.1688,127.0469 Q30.9656,126.8594 30.8563,126.3438 Q30.8094,125.9844 30.6219,125.7969 Q30.2938,125.4219 29.6844,125.2031 Q29.075,124.9844 28.45,124.9844 Q27.6844,124.9844 27.0438,125.3125 Q26.4188,125.6406 25.9188,126.3906 Q25.4344,127.1406 25.4344,128.1719 L25.4344,129.2656 Q25.4344,130.5 26.325,131.3281 Q27.2156,132.1406 28.8094,132.1406 Q29.7469,132.1406 30.4031,131.8906 Q30.7938,131.7344 31.2156,131.2969 Q31.4813,131.0313 31.6219,130.9531 Q31.7781,130.875 31.9813,130.875 Q32.3094,130.875 32.5594,131.1406 Q32.825,131.3906 32.825,131.7344 Q32.825,132.0781 32.4813,132.4844 Q31.9813,133.0625 31.1844,133.3906 Q30.1063,133.8438 28.8094,133.8438 Q27.2938,133.8438 26.0906,133.2188 Q25.1063,132.7188 24.4188,131.6563 Q23.7313,130.5781 23.7313,129.2969 L23.7313,128.1406 Q23.7313,126.8125 24.3406,125.6719 Q24.9656,124.5156 26.0594,123.9063 Q27.1531,123.2813 28.3875,123.2813 Q29.1219,123.2813 29.7625,123.4531 Q30.4188,123.6094 30.9656,123.9688 Z "/><text fill="#000000" font-family="sans-serif" font-size="14" lengthAdjust="spacingAndGlyphs" textLength="36" x="112.3" y="127.5332">Carro</text><text fill="#000000" font-family="sans-serif" font-size="10" lengthAdjust="spacingAndGlyphs" textLength="173" x="43.8" y="140.9902">co.com.sofka.cargame.domain.carro</text><line style="stroke: #A80036; stroke-width: 1.5;" x1="7" x2="226" y1="148.1875" y2="148.1875"/><polygon fill="none" points="17,155.6055,21,159.6055,17,163.6055,13,159.6055" style="stroke: #B38D22; stroke-width: 1.0;"/><text fill="#000000" font-family="sans-serif" font-size="11" lengthAdjust="spacingAndGlyphs" textLength="105" x="26" y="163.6064">conductor: Conductor</text><polygon fill="none" points="17,169.4414,21,173.4414,17,177.4414,13,173.4414" style="stroke: #B38D22; stroke-width: 1.0;"/><text fill="#000000" font-family="sans-serif" font-size="11" lengthAdjust="spacingAndGlyphs" textLength="82" x="26" y="177.4424">distancia: Integer</text><polygon fill="none" points="17,183.2773,21,187.2773,17,191.2773,13,187.2773" style="stroke: #B38D22; stroke-width: 1.0;"/><text fill="#000000" font-family="sans-serif" font-size="11" lengthAdjust="spacingAndGlyphs" textLength="55" x="26" y="191.2783">color: Color</text><polygon fill="none" points="17,197.1133,21,201.1133,17,205.1133,13,201.1133" style="stroke: #B38D22; stroke-width: 1.0;"/><text fill="#000000" font-family="sans-serif" font-size="11" lengthAdjust="spacingAndGlyphs" textLength="77" x="26" y="205.1143">juegoId: JuegoId</text><line style="stroke: #A80036; stroke-width: 1.5;" x1="7" x2="226" y1="211.5313" y2="211.5313"/><ellipse cx="17" cy="223.9492" fill="#84BE84" rx="3" ry="3" style="stroke: #038048; stroke-width: 1.0;"/><text fill="#000000" font-family="sans-serif" font-size="11" lengthAdjust="spacingAndGlyphs" textLength="144" x="26" y="226.9502">Carro(CarroId, JuegoId, Color)</text><ellipse cx="17" cy="237.7852" fill="#84BE84" rx="3" ry="3" style="stroke: #038048; stroke-width: 1.0;"/><text fill="#000000" font-family="sans-serif" font-size="11" lengthAdjust="spacingAndGlyphs" text-decoration="underline" textLength="195" x="26" y="240.7861">from(CarroId, List&lt;DomainEvent&gt;): Carro</text><ellipse cx="17" cy="251.6211" fill="#84BE84" rx="3" ry="3" style="stroke: #038048; stroke-width: 1.0;"/><text fill="#000000" font-family="sans-serif" font-size="11" lengthAdjust="spacingAndGlyphs" textLength="187" x="26" y="254.6221">asignarConductor(String, Cedula): void</text><ellipse cx="17" cy="265.457" fill="#84BE84" rx="3" ry="3" style="stroke: #038048; stroke-width: 1.0;"/><text fill="#000000" font-family="sans-serif" font-size="11" lengthAdjust="spacingAndGlyphs" textLength="144" x="26" y="268.458">avanzarEnCarril(CarrilId): void</text><ellipse cx="17" cy="279.293" fill="#84BE84" rx="3" ry="3" style="stroke: #038048; stroke-width: 1.0;"/><text fill="#000000" font-family="sans-serif" font-size="11" lengthAdjust="spacingAndGlyphs" textLength="113" x="26" y="282.2939">conductor(): Conductor</text><ellipse cx="17" cy="293.1289" fill="#84BE84" rx="3" ry="3" style="stroke: #038048; stroke-width: 1.0;"/><text fill="#000000" font-family="sans-serif" font-size="11" lengthAdjust="spacingAndGlyphs" textLength="90" x="26" y="296.1299">distancia(): Integer</text><ellipse cx="17" cy="306.9648" fill="#84BE84" rx="3" ry="3" style="stroke: #038048; stroke-width: 1.0;"/><text fill="#000000" font-family="sans-serif" font-size="11" lengthAdjust="spacingAndGlyphs" textLength="66" x="26" y="309.9658">color(): String</text></a><!--class co.com.sofka.domain.generic.AggregateEvent--><rect fill="#FEFECE" filter="url(#fziganb3omx3e)" height="40.1875" id="co.com.sofka.domain.generic.AggregateEvent" style="stroke: #A80036; stroke-width: 1.5;" width="213" x="10" y="8"/><ellipse cx="25" cy="28.0938" fill="#A9DCDF" rx="11" ry="11" style="stroke: #A80036; stroke-width: 1.0;"/><path d="M27.1875,29.8594 L23.0469,29.8594 L22.625,30.8906 L23.0469,30.8906 Q23.6563,30.8906 23.9219,31.125 Q24.1875,31.3594 24.1875,31.75 Q24.1875,32.125 23.9219,32.3594 Q23.6563,32.5938 23.0469,32.5938 L20.75,32.5938 Q20.1406,32.5938 19.8906,32.3594 Q19.625,32.125 19.625,31.7344 Q19.625,31.3594 19.9063,31.125 Q20.1719,30.875 20.7969,30.8906 L23.4688,24.2344 L22.3594,24.2344 Q21.75,24.2344 21.4844,24 Q21.2188,23.7656 21.2188,23.375 Q21.2188,23 21.4844,22.7656 Q21.75,22.5313 22.3594,22.5313 L26.0313,22.5313 L29.4219,30.8906 Q30.0156,30.8906 30.2031,31.0313 Q30.5938,31.2969 30.5938,31.75 Q30.5938,32.125 30.3281,32.3594 Q30.0781,32.5938 29.4688,32.5938 L27.1719,32.5938 Q26.5625,32.5938 26.2969,32.3594 Q26.0313,32.125 26.0313,31.7344 Q26.0313,31.3594 26.2969,31.125 Q26.5625,30.8906 27.1719,30.8906 L27.5938,30.8906 L27.1875,29.8594 Z M26.4688,28.1563 L25.1094,24.7813 L23.7344,28.1563 L26.4688,28.1563 Z "/><text fill="#000000" font-family="sans-serif" font-size="14" font-style="italic" lengthAdjust="spacingAndGlyphs" textLength="101" x="56" y="27.5332">AggregateEvent</text><text fill="#000000" font-family="sans-serif" font-size="10" font-style="italic" lengthAdjust="spacingAndGlyphs" textLength="135" x="39" y="40.9902">co.com.sofka.domain.generic</text><rect fill="#FFFFFF" height="17.0938" style="stroke: #000000; stroke-width: 1.0; stroke-dasharray: 2.0,2.0;" width="44" x="182" y="5"/><text fill="#000000" font-family="sans-serif" font-size="12" font-style="italic" lengthAdjust="spacingAndGlyphs" textLength="42" x="183" y="18.457">CarroId</text><!--link co.com.sofka.domain.generic.AggregateEvent to co.com.sofka.cargame.domain.carro.Carro--><path d="M116.5,68.43 C116.5,80.29 116.5,93.89 116.5,107.88 " fill="none" id="co.com.sofka.domain.generic.AggregateEvent-co.com.sofka.cargame.domain.carro.Carro" style="stroke: #A80036; stroke-width: 1.0;"/><polygon fill="none" points="109.5,68.13,116.5,48.13,123.5,68.13,109.5,68.13" style="stroke: #A80036; stroke-width: 1.0;"/><text fill="#888888" font-family="sans-serif" font-size="10" lengthAdjust="spacingAndGlyphs" textLength="190" x="27.5" y="336.3809">UMLDoclet 2.0.10, PlantUML 1.2019.08</text><!--
@startuml
    set namespaceSeparator none
    hide empty fields
    hide empty methods

    class "<size:14>Carro\n<size:10>co.com.sofka.cargame.domain.carro" as co.com.sofka.cargame.domain.carro.Carro [[Carro.html]] {
        #conductor: Conductor
        #distancia: Integer
        #color: Color
        #juegoId: JuegoId
        +Carro(CarroId, JuegoId, Color)
        {static} +from(CarroId, List<DomainEvent>): Carro
        +asignarConductor(String, Cedula): void
        +avanzarEnCarril(CarrilId): void
        +conductor(): Conductor
        +distancia(): Integer
        +color(): String
    }

    abstract class "<size:14>AggregateEvent\n<size:10>co.com.sofka.domain.generic" as co.com.sofka.domain.generic.AggregateEvent<CarroId>

    co.com.sofka.domain.generic.AggregateEvent <|- - co.com.sofka.cargame.domain.carro.Carro

    center footer UMLDoclet 2.0.10, PlantUML 1.2019.08
@enduml

PlantUML version 1.2019.08(Sat Jul 13 14:25:14 COT 2019)
(APACHE source distribution)
Java Runtime: Java(TM) SE Runtime Environment
JVM: Java HotSpot(TM) 64-Bit Server VM
Java Version: 11.0.11+9-LTS-194
Operating System: Windows 10
OS Version: 10.0
Default Encoding: Cp1252
Language: es
Country: CO
--></g></svg>