<?xml version="1.0" encoding="UTF-8" standalone="no"?><svg xmlns="http://www.w3.org/2000/svg" xmlns:xlink="http://www.w3.org/1999/xlink" contentScriptType="application/ecmascript" contentStyleType="text/css" height="231px" preserveAspectRatio="none" style="width:231px;height:231px;" version="1.1" viewBox="0 0 231 231" width="231px" zoomAndPan="magnify"><defs><filter height="300%" id="f1cizfl2euzf32" width="300%" x="-1" y="-1"><feGaussianBlur result="blurOut" stdDeviation="2.0"/><feColorMatrix in="blurOut" result="blurOut2" type="matrix" values="0 0 0 0 0 0 0 0 0 0 0 0 0 0 0 0 0 0 .4 0"/><feOffset dx="4.0" dy="4.0" in="blurOut2" result="blurOut3"/><feBlend in="SourceGraphic" in2="blurOut3" mode="normal"/></filter></defs><g><!--class co.com.sofka.cargame.domain.carro.Conductor--><a href="Conductor.html" target="_top" xlink:actuate="onRequest" xlink:show="new" xlink:title="Conductor.html" xlink:type="simple"><rect fill="#FEFECE" filter="url(#f1cizfl2euzf32)" height="89.6953" id="co.com.sofka.cargame.domain.carro.Conductor" style="stroke: #A80036; stroke-width: 1.5;" width="205" x="9" y="108"/><ellipse cx="24" cy="128.0938" fill="#ADD1B2" rx="11" ry="11" style="stroke: #A80036; stroke-width: 1.0;"/><path d="M26.7656,123.9688 Q26.9219,123.75 27.1094,123.6406 Q27.2969,123.5313 27.5156,123.5313 Q27.8906,123.5313 28.125,123.7969 Q28.3594,124.0469 28.3594,124.6563 L28.3594,126.1094 Q28.3594,126.7188 28.125,126.9844 Q27.8906,127.25 27.5156,127.25 Q27.1719,127.25 26.9688,127.0469 Q26.7656,126.8594 26.6563,126.3438 Q26.6094,125.9844 26.4219,125.7969 Q26.0938,125.4219 25.4844,125.2031 Q24.875,124.9844 24.25,124.9844 Q23.4844,124.9844 22.8438,125.3125 Q22.2188,125.6406 21.7188,126.3906 Q21.2344,127.1406 21.2344,128.1719 L21.2344,129.2656 Q21.2344,130.5 22.125,131.3281 Q23.0156,132.1406 24.6094,132.1406 Q25.5469,132.1406 26.2031,131.8906 Q26.5938,131.7344 27.0156,131.2969 Q27.2813,131.0313 27.4219,130.9531 Q27.5781,130.875 27.7813,130.875 Q28.1094,130.875 28.3594,131.1406 Q28.625,131.3906 28.625,131.7344 Q28.625,132.0781 28.2813,132.4844 Q27.7813,133.0625 26.9844,133.3906 Q25.9063,133.8438 24.6094,133.8438 Q23.0938,133.8438 21.8906,133.2188 Q20.9063,132.7188 20.2188,131.6563 Q19.5313,130.5781 19.5313,129.2969 L19.5313,128.1406 Q19.5313,126.8125 20.1406,125.6719 Q20.7656,124.5156 21.8594,123.9063 Q22.9531,123.2813 24.1875,123.2813 Q24.9219,123.2813 25.5625,123.4531 Q26.2188,123.6094 26.7656,123.9688 Z "/><text fill="#000000" font-family="sans-serif" font-size="14" lengthAdjust="spacingAndGlyphs" textLength="66" x="91.5" y="127.5332">Conductor</text><text fill="#000000" font-family="sans-serif" font-size="10" lengthAdjust="spacingAndGlyphs" textLength="173" x="38" y="140.9902">co.com.sofka.cargame.domain.carro</text><line style="stroke: #A80036; stroke-width: 1.5;" x1="10" x2="213" y1="148.1875" y2="148.1875"/><ellipse cx="20" cy="160.6055" fill="#84BE84" rx="3" ry="3" style="stroke: #038048; stroke-width: 1.0;"/><text fill="#000000" font-family="sans-serif" font-size="11" lengthAdjust="spacingAndGlyphs" textLength="125" x="29" y="163.6064">Conductor(Cedula, String)</text><ellipse cx="20" cy="174.4414" fill="#84BE84" rx="3" ry="3" style="stroke: #038048; stroke-width: 1.0;"/><text fill="#000000" font-family="sans-serif" font-size="11" lengthAdjust="spacingAndGlyphs" textLength="78" x="29" y="177.4424">nombre(): String</text><ellipse cx="20" cy="188.2773" fill="#84BE84" rx="3" ry="3" style="stroke: #038048; stroke-width: 1.0;"/><text fill="#000000" font-family="sans-serif" font-size="11" lengthAdjust="spacingAndGlyphs" textLength="102" x="29" y="191.2783">lanzarDado(): Integer</text></a><!--class co.com.sofka.domain.generic.Entity--><rect fill="#FEFECE" filter="url(#f1cizfl2euzf32)" height="40.1875" id="co.com.sofka.domain.generic.Entity" style="stroke: #A80036; stroke-width: 1.5;" width="211" x="6" y="8"/><ellipse cx="21" cy="28.0938" fill="#A9DCDF" rx="11" ry="11" style="stroke: #A80036; stroke-width: 1.0;"/><path d="M23.1875,29.8594 L19.0469,29.8594 L18.625,30.8906 L19.0469,30.8906 Q19.6563,30.8906 19.9219,31.125 Q20.1875,31.3594 20.1875,31.75 Q20.1875,32.125 19.9219,32.3594 Q19.6563,32.5938 19.0469,32.5938 L16.75,32.5938 Q16.1406,32.5938 15.8906,32.3594 Q15.625,32.125 15.625,31.7344 Q15.625,31.3594 15.9063,31.125 Q16.1719,30.875 16.7969,30.8906 L19.4688,24.2344 L18.3594,24.2344 Q17.75,24.2344 17.4844,24 Q17.2188,23.7656 17.2188,23.375 Q17.2188,23 17.4844,22.7656 Q17.75,22.5313 18.3594,22.5313 L22.0313,22.5313 L25.4219,30.8906 Q26.0156,30.8906 26.2031,31.0313 Q26.5938,31.2969 26.5938,31.75 Q26.5938,32.125 26.3281,32.3594 Q26.0781,32.5938 25.4688,32.5938 L23.1719,32.5938 Q22.5625,32.5938 22.2969,32.3594 Q22.0313,32.125 22.0313,31.7344 Q22.0313,31.3594 22.2969,31.125 Q22.5625,30.8906 23.1719,30.8906 L23.5938,30.8906 L23.1875,29.8594 Z M22.4688,28.1563 L21.1094,24.7813 L19.7344,28.1563 L22.4688,28.1563 Z "/><text fill="#000000" font-family="sans-serif" font-size="14" font-style="italic" lengthAdjust="spacingAndGlyphs" textLength="35" x="85" y="27.5332">Entity</text><text fill="#000000" font-family="sans-serif" font-size="10" font-style="italic" lengthAdjust="spacingAndGlyphs" textLength="135" x="35" y="40.9902">co.com.sofka.domain.generic</text><rect fill="#FFFFFF" height="17.0938" style="stroke: #000000; stroke-width: 1.0; stroke-dasharray: 2.0,2.0;" width="42" x="178" y="5"/><text fill="#000000" font-family="sans-serif" font-size="12" font-style="italic" lengthAdjust="spacingAndGlyphs" textLength="40" x="179" y="18.457">Cedula</text><!--link co.com.sofka.domain.generic.Entity to co.com.sofka.cargame.domain.carro.Conductor--><path d="M111.5,68.25 C111.5,80.89 111.5,94.98 111.5,107.94 " fill="none" id="co.com.sofka.domain.generic.Entity-co.com.sofka.cargame.domain.carro.Conductor" style="stroke: #A80036; stroke-width: 1.0;"/><polygon fill="none" points="104.5,68.22,111.5,48.22,118.5,68.22,104.5,68.22" style="stroke: #A80036; stroke-width: 1.0;"/><text fill="#888888" font-family="sans-serif" font-size="10" lengthAdjust="spacingAndGlyphs" textLength="190" x="22.5" y="218.3809">UMLDoclet 2.0.10, PlantUML 1.2019.08</text><!--
@startuml
    set namespaceSeparator none
    hide empty fields
    hide empty methods

    class "<size:14>Conductor\n<size:10>co.com.sofka.cargame.domain.carro" as co.com.sofka.cargame.domain.carro.Conductor [[Conductor.html]] {
        +Conductor(Cedula, String)
        +nombre(): String
        +lanzarDado(): Integer
    }

    abstract class "<size:14>Entity\n<size:10>co.com.sofka.domain.generic" as co.com.sofka.domain.generic.Entity<Cedula>

    co.com.sofka.domain.generic.Entity <|- - co.com.sofka.cargame.domain.carro.Conductor

    center footer UMLDoclet 2.0.10, PlantUML 1.2019.08
@enduml

PlantUML version 1.2019.08(Sat Jul 13 14:25:14 COT 2019)
(APACHE source distribution)
Java Runtime: Java(TM) SE Runtime Environment
JVM: Java HotSpot(TM) 64-Bit Server VM
Java Version: 11.0.11+9-LTS-194
Operating System: Windows 10
OS Version: 10.0
Default Encoding: Cp1252
Language: es
Country: CO
--></g></svg>