<?xml version="1.0" encoding="UTF-8" standalone="no"?><svg xmlns="http://www.w3.org/2000/svg" xmlns:xlink="http://www.w3.org/1999/xlink" contentScriptType="application/ecmascript" contentStyleType="text/css" height="626px" preserveAspectRatio="none" style="width:797px;height:626px;" version="1.1" viewBox="0 0 797 626" width="797px" zoomAndPan="magnify"><defs><filter height="300%" id="fg7hohjbw05yh" width="300%" x="-1" y="-1"><feGaussianBlur result="blurOut" stdDeviation="2.0"/><feColorMatrix in="blurOut" result="blurOut2" type="matrix" values="0 0 0 0 0 0 0 0 0 0 0 0 0 0 0 0 0 0 .4 0"/><feOffset dx="4.0" dy="4.0" in="blurOut2" result="blurOut3"/><feBlend in="SourceGraphic" in2="blurOut3" mode="normal"/></filter></defs><g><!--cluster co.com.sofka.cargame.domain.carro--><polygon fill="#FFFFFF" filter="url(#fg7hohjbw05yh)" points="94,171,352,171,359,194.6094,508,194.6094,508,577,94,577,94,171" style="stroke: #000000; stroke-width: 1.5;"/><line style="stroke: #000000; stroke-width: 1.5;" x1="94" x2="359" y1="194.6094" y2="194.6094"/><text fill="#000000" font-family="sans-serif" font-size="14" font-weight="bold" lengthAdjust="spacingAndGlyphs" textLength="252" x="98" y="187.5332">co.com.sofka.cargame.domain.carro</text><!--cluster co.com.sofka.domain.generic--><polygon fill="#FFFFFF" filter="url(#fg7hohjbw05yh)" points="22,24,233,24,240,47.6094,775,47.6094,775,138,22,138,22,24" style="stroke: #000000; stroke-width: 1.5;"/><line style="stroke: #000000; stroke-width: 1.5;" x1="22" x2="240" y1="47.6094" y2="47.6094"/><text fill="#000000" font-family="sans-serif" font-size="14" font-weight="bold" lengthAdjust="spacingAndGlyphs" textLength="205" x="26" y="40.5332">co.com.sofka.domain.generic</text><!--class co.com.sofka.cargame.domain.carro.Carro--><a href="Carro.html" target="_top" xlink:actuate="onRequest" xlink:show="new" xlink:title="Carro.html" xlink:type="simple"><rect fill="#FEFECE" filter="url(#fg7hohjbw05yh)" height="186.3594" id="co.com.sofka.cargame.domain.carro.Carro" style="stroke: #A80036; stroke-width: 1.5;" width="221" x="110.5" y="207"/><ellipse cx="201.25" cy="223" fill="#ADD1B2" rx="11" ry="11" style="stroke: #A80036; stroke-width: 1.0;"/><path d="M204.0156,218.875 Q204.1719,218.6563 204.3594,218.5469 Q204.5469,218.4375 204.7656,218.4375 Q205.1406,218.4375 205.375,218.7031 Q205.6094,218.9531 205.6094,219.5625 L205.6094,221.0156 Q205.6094,221.625 205.375,221.8906 Q205.1406,222.1563 204.7656,222.1563 Q204.4219,222.1563 204.2188,221.9531 Q204.0156,221.7656 203.9063,221.25 Q203.8594,220.8906 203.6719,220.7031 Q203.3438,220.3281 202.7344,220.1094 Q202.125,219.8906 201.5,219.8906 Q200.7344,219.8906 200.0938,220.2188 Q199.4688,220.5469 198.9688,221.2969 Q198.4844,222.0469 198.4844,223.0781 L198.4844,224.1719 Q198.4844,225.4063 199.375,226.2344 Q200.2656,227.0469 201.8594,227.0469 Q202.7969,227.0469 203.4531,226.7969 Q203.8438,226.6406 204.2656,226.2031 Q204.5313,225.9375 204.6719,225.8594 Q204.8281,225.7813 205.0313,225.7813 Q205.3594,225.7813 205.6094,226.0469 Q205.875,226.2969 205.875,226.6406 Q205.875,226.9844 205.5313,227.3906 Q205.0313,227.9688 204.2344,228.2969 Q203.1563,228.75 201.8594,228.75 Q200.3438,228.75 199.1406,228.125 Q198.1563,227.625 197.4688,226.5625 Q196.7813,225.4844 196.7813,224.2031 L196.7813,223.0469 Q196.7813,221.7188 197.3906,220.5781 Q198.0156,219.4219 199.1094,218.8125 Q200.2031,218.1875 201.4375,218.1875 Q202.1719,218.1875 202.8125,218.3594 Q203.4688,218.5156 204.0156,218.875 Z "/><text fill="#000000" font-family="sans-serif" font-size="12" lengthAdjust="spacingAndGlyphs" textLength="31" x="221.75" y="227.9102">Carro</text><line style="stroke: #A80036; stroke-width: 1.5;" x1="111.5" x2="330.5" y1="239" y2="239"/><polygon fill="none" points="121.5,246.418,125.5,250.418,121.5,254.418,117.5,250.418" style="stroke: #B38D22; stroke-width: 1.0;"/><text fill="#000000" font-family="sans-serif" font-size="11" lengthAdjust="spacingAndGlyphs" textLength="82" x="130.5" y="254.4189">distancia: Integer</text><polygon fill="none" points="121.5,260.2539,125.5,264.2539,121.5,268.2539,117.5,264.2539" style="stroke: #B38D22; stroke-width: 1.0;"/><text fill="#000000" font-family="sans-serif" font-size="11" lengthAdjust="spacingAndGlyphs" textLength="55" x="130.5" y="268.2549">color: Color</text><polygon fill="none" points="121.5,274.0898,125.5,278.0898,121.5,282.0898,117.5,278.0898" style="stroke: #B38D22; stroke-width: 1.0;"/><text fill="#000000" font-family="sans-serif" font-size="11" lengthAdjust="spacingAndGlyphs" textLength="77" x="130.5" y="282.0908">juegoId: JuegoId</text><line style="stroke: #A80036; stroke-width: 1.5;" x1="111.5" x2="330.5" y1="288.5078" y2="288.5078"/><ellipse cx="121.5" cy="300.9258" fill="#84BE84" rx="3" ry="3" style="stroke: #038048; stroke-width: 1.0;"/><text fill="#000000" font-family="sans-serif" font-size="11" lengthAdjust="spacingAndGlyphs" textLength="144" x="130.5" y="303.9268">Carro(CarroId, JuegoId, Color)</text><ellipse cx="121.5" cy="314.7617" fill="#84BE84" rx="3" ry="3" style="stroke: #038048; stroke-width: 1.0;"/><text fill="#000000" font-family="sans-serif" font-size="11" lengthAdjust="spacingAndGlyphs" text-decoration="underline" textLength="195" x="130.5" y="317.7627">from(CarroId, List&lt;DomainEvent&gt;): Carro</text><ellipse cx="121.5" cy="328.5977" fill="#84BE84" rx="3" ry="3" style="stroke: #038048; stroke-width: 1.0;"/><text fill="#000000" font-family="sans-serif" font-size="11" lengthAdjust="spacingAndGlyphs" textLength="187" x="130.5" y="331.5986">asignarConductor(String, Cedula): void</text><ellipse cx="121.5" cy="342.4336" fill="#84BE84" rx="3" ry="3" style="stroke: #038048; stroke-width: 1.0;"/><text fill="#000000" font-family="sans-serif" font-size="11" lengthAdjust="spacingAndGlyphs" textLength="144" x="130.5" y="345.4346">avanzarEnCarril(CarrilId): void</text><ellipse cx="121.5" cy="356.2695" fill="#84BE84" rx="3" ry="3" style="stroke: #038048; stroke-width: 1.0;"/><text fill="#000000" font-family="sans-serif" font-size="11" lengthAdjust="spacingAndGlyphs" textLength="113" x="130.5" y="359.2705">conductor(): Conductor</text><ellipse cx="121.5" cy="370.1055" fill="#84BE84" rx="3" ry="3" style="stroke: #038048; stroke-width: 1.0;"/><text fill="#000000" font-family="sans-serif" font-size="11" lengthAdjust="spacingAndGlyphs" textLength="90" x="130.5" y="373.1064">distancia(): Integer</text><ellipse cx="121.5" cy="383.9414" fill="#84BE84" rx="3" ry="3" style="stroke: #038048; stroke-width: 1.0;"/><text fill="#000000" font-family="sans-serif" font-size="11" lengthAdjust="spacingAndGlyphs" textLength="66" x="130.5" y="386.9424">color(): String</text></a><!--class co.com.sofka.cargame.domain.carro.CarroChange--><a href="CarroChange.html" target="_top" xlink:actuate="onRequest" xlink:show="new" xlink:title="CarroChange.html" xlink:type="simple"><rect fill="#FEFECE" filter="url(#fg7hohjbw05yh)" height="61.8359" id="co.com.sofka.cargame.domain.carro.CarroChange" style="stroke: #A80036; stroke-width: 1.5;" width="125" x="366.5" y="269"/><ellipse cx="389.6" cy="285" fill="#ADD1B2" rx="11" ry="11" style="stroke: #A80036; stroke-width: 1.0;"/><path d="M392.3656,280.875 Q392.5219,280.6563 392.7094,280.5469 Q392.8969,280.4375 393.1156,280.4375 Q393.4906,280.4375 393.725,280.7031 Q393.9594,280.9531 393.9594,281.5625 L393.9594,283.0156 Q393.9594,283.625 393.725,283.8906 Q393.4906,284.1563 393.1156,284.1563 Q392.7719,284.1563 392.5688,283.9531 Q392.3656,283.7656 392.2563,283.25 Q392.2094,282.8906 392.0219,282.7031 Q391.6938,282.3281 391.0844,282.1094 Q390.475,281.8906 389.85,281.8906 Q389.0844,281.8906 388.4438,282.2188 Q387.8188,282.5469 387.3188,283.2969 Q386.8344,284.0469 386.8344,285.0781 L386.8344,286.1719 Q386.8344,287.4063 387.725,288.2344 Q388.6156,289.0469 390.2094,289.0469 Q391.1469,289.0469 391.8031,288.7969 Q392.1938,288.6406 392.6156,288.2031 Q392.8813,287.9375 393.0219,287.8594 Q393.1781,287.7813 393.3813,287.7813 Q393.7094,287.7813 393.9594,288.0469 Q394.225,288.2969 394.225,288.6406 Q394.225,288.9844 393.8813,289.3906 Q393.3813,289.9688 392.5844,290.2969 Q391.5063,290.75 390.2094,290.75 Q388.6938,290.75 387.4906,290.125 Q386.5063,289.625 385.8188,288.5625 Q385.1313,287.4844 385.1313,286.2031 L385.1313,285.0469 Q385.1313,283.7188 385.7406,282.5781 Q386.3656,281.4219 387.4594,280.8125 Q388.5531,280.1875 389.7875,280.1875 Q390.5219,280.1875 391.1625,280.3594 Q391.8188,280.5156 392.3656,280.875 Z "/><text fill="#000000" font-family="sans-serif" font-size="12" lengthAdjust="spacingAndGlyphs" textLength="75" x="405.4" y="289.9102">CarroChange</text><line style="stroke: #A80036; stroke-width: 1.5;" x1="367.5" x2="490.5" y1="301" y2="301"/><line style="stroke: #A80036; stroke-width: 1.5;" x1="367.5" x2="490.5" y1="309" y2="309"/><ellipse cx="377.5" cy="321.418" fill="#84BE84" rx="3" ry="3" style="stroke: #038048; stroke-width: 1.0;"/><text fill="#000000" font-family="sans-serif" font-size="11" lengthAdjust="spacingAndGlyphs" textLength="99" x="386.5" y="324.4189">CarroChange(Carro)</text></a><!--class co.com.sofka.cargame.domain.carro.Conductor--><a href="Conductor.html" target="_top" xlink:actuate="onRequest" xlink:show="new" xlink:title="Conductor.html" xlink:type="simple"><rect fill="#FEFECE" filter="url(#fg7hohjbw05yh)" height="89.5078" id="co.com.sofka.cargame.domain.carro.Conductor" style="stroke: #A80036; stroke-width: 1.5;" width="151" x="291.5" y="471"/><ellipse cx="334.4" cy="487" fill="#ADD1B2" rx="11" ry="11" style="stroke: #A80036; stroke-width: 1.0;"/><path d="M337.1656,482.875 Q337.3219,482.6563 337.5094,482.5469 Q337.6969,482.4375 337.9156,482.4375 Q338.2906,482.4375 338.525,482.7031 Q338.7594,482.9531 338.7594,483.5625 L338.7594,485.0156 Q338.7594,485.625 338.525,485.8906 Q338.2906,486.1563 337.9156,486.1563 Q337.5719,486.1563 337.3688,485.9531 Q337.1656,485.7656 337.0563,485.25 Q337.0094,484.8906 336.8219,484.7031 Q336.4938,484.3281 335.8844,484.1094 Q335.275,483.8906 334.65,483.8906 Q333.8844,483.8906 333.2438,484.2188 Q332.6188,484.5469 332.1188,485.2969 Q331.6344,486.0469 331.6344,487.0781 L331.6344,488.1719 Q331.6344,489.4063 332.525,490.2344 Q333.4156,491.0469 335.0094,491.0469 Q335.9469,491.0469 336.6031,490.7969 Q336.9938,490.6406 337.4156,490.2031 Q337.6813,489.9375 337.8219,489.8594 Q337.9781,489.7813 338.1813,489.7813 Q338.5094,489.7813 338.7594,490.0469 Q339.025,490.2969 339.025,490.6406 Q339.025,490.9844 338.6813,491.3906 Q338.1813,491.9688 337.3844,492.2969 Q336.3063,492.75 335.0094,492.75 Q333.4938,492.75 332.2906,492.125 Q331.3063,491.625 330.6188,490.5625 Q329.9313,489.4844 329.9313,488.2031 L329.9313,487.0469 Q329.9313,485.7188 330.5406,484.5781 Q331.1656,483.4219 332.2594,482.8125 Q333.3531,482.1875 334.5875,482.1875 Q335.3219,482.1875 335.9625,482.3594 Q336.6188,482.5156 337.1656,482.875 Z "/><text fill="#000000" font-family="sans-serif" font-size="12" lengthAdjust="spacingAndGlyphs" textLength="57" x="354.6" y="491.9102">Conductor</text><line style="stroke: #A80036; stroke-width: 1.5;" x1="292.5" x2="441.5" y1="503" y2="503"/><line style="stroke: #A80036; stroke-width: 1.5;" x1="292.5" x2="441.5" y1="511" y2="511"/><ellipse cx="302.5" cy="523.418" fill="#84BE84" rx="3" ry="3" style="stroke: #038048; stroke-width: 1.0;"/><text fill="#000000" font-family="sans-serif" font-size="11" lengthAdjust="spacingAndGlyphs" textLength="125" x="311.5" y="526.4189">Conductor(Cedula, String)</text><ellipse cx="302.5" cy="537.2539" fill="#84BE84" rx="3" ry="3" style="stroke: #038048; stroke-width: 1.0;"/><text fill="#000000" font-family="sans-serif" font-size="11" lengthAdjust="spacingAndGlyphs" textLength="78" x="311.5" y="540.2549">nombre(): String</text><ellipse cx="302.5" cy="551.0898" fill="#84BE84" rx="3" ry="3" style="stroke: #038048; stroke-width: 1.0;"/><text fill="#000000" font-family="sans-serif" font-size="11" lengthAdjust="spacingAndGlyphs" textLength="102" x="311.5" y="554.0908">lanzarDado(): Integer</text></a><!--class co.com.sofka.domain.generic.AggregateEvent--><rect fill="#FEFECE" filter="url(#fg7hohjbw05yh)" height="48" id="co.com.sofka.domain.generic.AggregateEvent" style="stroke: #A80036; stroke-width: 1.5;" width="220" x="38" y="67"/><ellipse cx="53" cy="83" fill="#A9DCDF" rx="11" ry="11" style="stroke: #A80036; stroke-width: 1.0;"/><path d="M55.1875,84.7656 L51.0469,84.7656 L50.625,85.7969 L51.0469,85.7969 Q51.6563,85.7969 51.9219,86.0313 Q52.1875,86.2656 52.1875,86.6563 Q52.1875,87.0313 51.9219,87.2656 Q51.6563,87.5 51.0469,87.5 L48.75,87.5 Q48.1406,87.5 47.8906,87.2656 Q47.625,87.0313 47.625,86.6406 Q47.625,86.2656 47.9063,86.0313 Q48.1719,85.7813 48.7969,85.7969 L51.4688,79.1406 L50.3594,79.1406 Q49.75,79.1406 49.4844,78.9063 Q49.2188,78.6719 49.2188,78.2813 Q49.2188,77.9063 49.4844,77.6719 Q49.75,77.4375 50.3594,77.4375 L54.0313,77.4375 L57.4219,85.7969 Q58.0156,85.7969 58.2031,85.9375 Q58.5938,86.2031 58.5938,86.6563 Q58.5938,87.0313 58.3281,87.2656 Q58.0781,87.5 57.4688,87.5 L55.1719,87.5 Q54.5625,87.5 54.2969,87.2656 Q54.0313,87.0313 54.0313,86.6406 Q54.0313,86.2656 54.2969,86.0313 Q54.5625,85.7969 55.1719,85.7969 L55.5938,85.7969 L55.1875,84.7656 Z M54.4688,83.0625 L53.1094,79.6875 L51.7344,83.0625 L54.4688,83.0625 Z "/><text fill="#000000" font-family="sans-serif" font-size="12" font-style="italic" lengthAdjust="spacingAndGlyphs" textLength="88" x="67" y="87.9102">AggregateEvent</text><rect fill="#FFFFFF" height="17.0938" style="stroke: #000000; stroke-width: 1.0; stroke-dasharray: 2.0,2.0;" width="98" x="163" y="64"/><text fill="#000000" font-family="sans-serif" font-size="12" font-style="italic" lengthAdjust="spacingAndGlyphs" textLength="96" x="164" y="77.457">T extends Identity</text><line style="stroke: #A80036; stroke-width: 1.5;" x1="39" x2="257" y1="99" y2="99"/><line style="stroke: #A80036; stroke-width: 1.5;" x1="39" x2="257" y1="107" y2="107"/><!--class co.com.sofka.domain.generic.EventChange--><rect fill="#FEFECE" filter="url(#fg7hohjbw05yh)" height="61.8359" id="co.com.sofka.domain.generic.EventChange" style="stroke: #A80036; stroke-width: 1.5;" width="271" x="293.5" y="60"/><ellipse cx="387.25" cy="76" fill="#A9DCDF" rx="11" ry="11" style="stroke: #A80036; stroke-width: 1.0;"/><path d="M389.4375,77.7656 L385.2969,77.7656 L384.875,78.7969 L385.2969,78.7969 Q385.9063,78.7969 386.1719,79.0313 Q386.4375,79.2656 386.4375,79.6563 Q386.4375,80.0313 386.1719,80.2656 Q385.9063,80.5 385.2969,80.5 L383,80.5 Q382.3906,80.5 382.1406,80.2656 Q381.875,80.0313 381.875,79.6406 Q381.875,79.2656 382.1563,79.0313 Q382.4219,78.7813 383.0469,78.7969 L385.7188,72.1406 L384.6094,72.1406 Q384,72.1406 383.7344,71.9063 Q383.4688,71.6719 383.4688,71.2813 Q383.4688,70.9063 383.7344,70.6719 Q384,70.4375 384.6094,70.4375 L388.2813,70.4375 L391.6719,78.7969 Q392.2656,78.7969 392.4531,78.9375 Q392.8438,79.2031 392.8438,79.6563 Q392.8438,80.0313 392.5781,80.2656 Q392.3281,80.5 391.7188,80.5 L389.4219,80.5 Q388.8125,80.5 388.5469,80.2656 Q388.2813,80.0313 388.2813,79.6406 Q388.2813,79.2656 388.5469,79.0313 Q388.8125,78.7969 389.4219,78.7969 L389.8438,78.7969 L389.4375,77.7656 Z M388.7188,76.0625 L387.3594,72.6875 L385.9844,76.0625 L388.7188,76.0625 Z "/><text fill="#000000" font-family="sans-serif" font-size="12" font-style="italic" lengthAdjust="spacingAndGlyphs" textLength="75" x="407.75" y="80.9102">EventChange</text><line style="stroke: #A80036; stroke-width: 1.5;" x1="294.5" x2="563.5" y1="92" y2="92"/><polygon fill="none" points="304.5,99.418,308.5,103.418,304.5,107.418,300.5,103.418" style="stroke: #B38D22; stroke-width: 1.0;"/><text fill="#000000" font-family="sans-serif" font-size="11" lengthAdjust="spacingAndGlyphs" textLength="245" x="313.5" y="107.4189">behaviors: Set&lt;Consumer&lt;? super DomainEvent&gt;&gt;</text><line style="stroke: #A80036; stroke-width: 1.5;" x1="294.5" x2="563.5" y1="113.8359" y2="113.8359"/><!--class co.com.sofka.domain.generic.Entity--><rect fill="#FEFECE" filter="url(#fg7hohjbw05yh)" height="61.8359" id="co.com.sofka.domain.generic.Entity" style="stroke: #A80036; stroke-width: 1.5;" width="159" x="599.5" y="60"/><ellipse cx="614.5" cy="76" fill="#A9DCDF" rx="11" ry="11" style="stroke: #A80036; stroke-width: 1.0;"/><path d="M616.6875,77.7656 L612.5469,77.7656 L612.125,78.7969 L612.5469,78.7969 Q613.1563,78.7969 613.4219,79.0313 Q613.6875,79.2656 613.6875,79.6563 Q613.6875,80.0313 613.4219,80.2656 Q613.1563,80.5 612.5469,80.5 L610.25,80.5 Q609.6406,80.5 609.3906,80.2656 Q609.125,80.0313 609.125,79.6406 Q609.125,79.2656 609.4063,79.0313 Q609.6719,78.7813 610.2969,78.7969 L612.9688,72.1406 L611.8594,72.1406 Q611.25,72.1406 610.9844,71.9063 Q610.7188,71.6719 610.7188,71.2813 Q610.7188,70.9063 610.9844,70.6719 Q611.25,70.4375 611.8594,70.4375 L615.5313,70.4375 L618.9219,78.7969 Q619.5156,78.7969 619.7031,78.9375 Q620.0938,79.2031 620.0938,79.6563 Q620.0938,80.0313 619.8281,80.2656 Q619.5781,80.5 618.9688,80.5 L616.6719,80.5 Q616.0625,80.5 615.7969,80.2656 Q615.5313,80.0313 615.5313,79.6406 Q615.5313,79.2656 615.7969,79.0313 Q616.0625,78.7969 616.6719,78.7969 L617.0938,78.7969 L616.6875,77.7656 Z M615.9688,76.0625 L614.6094,72.6875 L613.2344,76.0625 L615.9688,76.0625 Z "/><text fill="#000000" font-family="sans-serif" font-size="12" font-style="italic" lengthAdjust="spacingAndGlyphs" textLength="30" x="628.5" y="80.9102">Entity</text><rect fill="#FFFFFF" height="17.0938" style="stroke: #000000; stroke-width: 1.0; stroke-dasharray: 2.0,2.0;" width="95" x="666.5" y="57"/><text fill="#000000" font-family="sans-serif" font-size="12" font-style="italic" lengthAdjust="spacingAndGlyphs" textLength="93" x="667.5" y="70.457">I extends Identity</text><line style="stroke: #A80036; stroke-width: 1.5;" x1="600.5" x2="757.5" y1="92" y2="92"/><polygon fill="none" points="610.5,99.418,614.5,103.418,610.5,107.418,606.5,103.418" style="stroke: #B38D22; stroke-width: 1.0;"/><text fill="#000000" font-family="sans-serif" font-size="11" lengthAdjust="spacingAndGlyphs" textLength="121" x="619.5" y="107.4189">entityId: I extends Identity</text><line style="stroke: #A80036; stroke-width: 1.5;" x1="600.5" x2="757.5" y1="113.8359" y2="113.8359"/><!--link co.com.sofka.domain.generic.AggregateEvent to co.com.sofka.cargame.domain.carro.Carro--><path d="M162.94,134.35 C170.33,155.33 179.57,181.53 188.49,206.82 " fill="none" id="co.com.sofka.domain.generic.AggregateEvent-co.com.sofka.cargame.domain.carro.Carro" style="stroke: #A80036; stroke-width: 1.0;"/><polygon fill="none" points="156.28,136.53,156.23,115.34,169.49,131.88,156.28,136.53" style="stroke: #A80036; stroke-width: 1.0;"/><!--link co.com.sofka.cargame.domain.carro.Carro to co.com.sofka.cargame.domain.carro.Conductor--><path d="M283.98,393.31 C301.2,418.55 319.18,444.9 333.98,466.6 " fill="none" id="co.com.sofka.cargame.domain.carro.Carro-co.com.sofka.cargame.domain.carro.Conductor" style="stroke: #A80036; stroke-width: 1.0;"/><polygon fill="#A80036" points="336.9,470.88,335.1359,461.1904,334.0838,466.7486,328.5256,465.6964,336.9,470.88" style="stroke: #A80036; stroke-width: 1.0;"/><text fill="#000000" font-family="sans-serif" font-size="13" lengthAdjust="spacingAndGlyphs" textLength="57" x="316" y="437.4951">conductor</text><!--link co.com.sofka.domain.generic.EventChange to co.com.sofka.cargame.domain.carro.CarroChange--><path d="M429,142.12 C429,181.72 429,235.66 429,268.86 " fill="none" id="co.com.sofka.domain.generic.EventChange-co.com.sofka.cargame.domain.carro.CarroChange" style="stroke: #A80036; stroke-width: 1.0;"/><polygon fill="none" points="422,142.1,429,122.1,436,142.1,422,142.1" style="stroke: #A80036; stroke-width: 1.0;"/><!--link co.com.sofka.domain.generic.Entity to co.com.sofka.cargame.domain.carro.Conductor--><path d="M657.88,140.83 C629.52,203.2 574.99,312.65 509,393 C485.38,421.76 454.48,449.2 427.54,470.74 " fill="none" id="co.com.sofka.domain.generic.Entity-co.com.sofka.cargame.domain.carro.Conductor" style="stroke: #A80036; stroke-width: 1.0;"/><polygon fill="none" points="651.6,137.74,666.15,122.33,664.38,143.45,651.6,137.74" style="stroke: #A80036; stroke-width: 1.0;"/><text fill="#888888" font-family="sans-serif" font-size="10" lengthAdjust="spacingAndGlyphs" textLength="190" x="309.5" y="613.3809">UMLDoclet 2.0.10, PlantUML 1.2019.08</text><!--
@startuml
    namespace co.com.sofka.cargame.domain.carro {

        class Carro [[Carro.html]] {
            #distancia: Integer
            #color: Color
            #juegoId: JuegoId
            +Carro(CarroId, JuegoId, Color)
            {static} +from(CarroId, List<DomainEvent>): Carro
            +asignarConductor(String, Cedula): void
            +avanzarEnCarril(CarrilId): void
            +conductor(): Conductor
            +distancia(): Integer
            +color(): String
        }

        class CarroChange [[CarroChange.html]] {
            +CarroChange(Carro)
        }

        class Conductor [[Conductor.html]] {
            +Conductor(Cedula, String)
            +nombre(): String
            +lanzarDado(): Integer
        }

        co.com.sofka.domain.generic.AggregateEvent <|- - Carro
        Carro - -> Conductor: conductor
        co.com.sofka.domain.generic.EventChange <|- - CarroChange
        co.com.sofka.domain.generic.Entity <|- - Conductor
    }

    namespace co.com.sofka.domain.generic {
        abstract class AggregateEvent<T extends Identity> {
        }
        abstract class EventChange {
            #behaviors: Set<Consumer<? super DomainEvent>>
        }
        abstract class Entity<I extends Identity> {
            #entityId: I extends Identity
        }
    }

    center footer UMLDoclet 2.0.10, PlantUML 1.2019.08
@enduml

PlantUML version 1.2019.08(Sat Jul 13 14:25:14 COT 2019)
(APACHE source distribution)
Java Runtime: Java(TM) SE Runtime Environment
JVM: Java HotSpot(TM) 64-Bit Server VM
Java Version: 11.0.11+9-LTS-194
Operating System: Windows 10
OS Version: 10.0
Default Encoding: Cp1252
Language: es
Country: CO
--></g></svg>