<?xml version="1.0" encoding="UTF-8" standalone="no"?><svg xmlns="http://www.w3.org/2000/svg" xmlns:xlink="http://www.w3.org/1999/xlink" contentScriptType="application/ecmascript" contentStyleType="text/css" height="405px" preserveAspectRatio="none" style="width:263px;height:405px;" version="1.1" viewBox="0 0 263 405" width="263px" zoomAndPan="magnify"><defs><filter height="300%" id="fqc1wkm4podig" width="300%" x="-1" y="-1"><feGaussianBlur result="blurOut" stdDeviation="2.0"/><feColorMatrix in="blurOut" result="blurOut2" type="matrix" values="0 0 0 0 0 0 0 0 0 0 0 0 0 0 0 0 0 0 .4 0"/><feOffset dx="4.0" dy="4.0" in="blurOut2" result="blurOut3"/><feBlend in="SourceGraphic" in2="blurOut3" mode="normal"/></filter></defs><g><!--class co.com.sofka.cargame.domain.juego.Juego--><a href="Juego.html" target="_top" xlink:actuate="onRequest" xlink:show="new" xlink:title="Juego.html" xlink:type="simple"><rect fill="#FEFECE" filter="url(#fqc1wkm4podig)" height="263.7266" id="co.com.sofka.cargame.domain.juego.Juego" style="stroke: #A80036; stroke-width: 1.5;" width="246" x="6" y="108"/><ellipse cx="38.1" cy="128.0938" fill="#ADD1B2" rx="11" ry="11" style="stroke: #A80036; stroke-width: 1.0;"/><path d="M40.8656,123.9688 Q41.0219,123.75 41.2094,123.6406 Q41.3969,123.5313 41.6156,123.5313 Q41.9906,123.5313 42.225,123.7969 Q42.4594,124.0469 42.4594,124.6563 L42.4594,126.1094 Q42.4594,126.7188 42.225,126.9844 Q41.9906,127.25 41.6156,127.25 Q41.2719,127.25 41.0688,127.0469 Q40.8656,126.8594 40.7563,126.3438 Q40.7094,125.9844 40.5219,125.7969 Q40.1938,125.4219 39.5844,125.2031 Q38.975,124.9844 38.35,124.9844 Q37.5844,124.9844 36.9438,125.3125 Q36.3188,125.6406 35.8188,126.3906 Q35.3344,127.1406 35.3344,128.1719 L35.3344,129.2656 Q35.3344,130.5 36.225,131.3281 Q37.1156,132.1406 38.7094,132.1406 Q39.6469,132.1406 40.3031,131.8906 Q40.6938,131.7344 41.1156,131.2969 Q41.3813,131.0313 41.5219,130.9531 Q41.6781,130.875 41.8813,130.875 Q42.2094,130.875 42.4594,131.1406 Q42.725,131.3906 42.725,131.7344 Q42.725,132.0781 42.3813,132.4844 Q41.8813,133.0625 41.0844,133.3906 Q40.0063,133.8438 38.7094,133.8438 Q37.1938,133.8438 35.9906,133.2188 Q35.0063,132.7188 34.3188,131.6563 Q33.6313,130.5781 33.6313,129.2969 L33.6313,128.1406 Q33.6313,126.8125 34.2406,125.6719 Q34.8656,124.5156 35.9594,123.9063 Q37.0531,123.2813 38.2875,123.2813 Q39.0219,123.2813 39.6625,123.4531 Q40.3188,123.6094 40.8656,123.9688 Z "/><text fill="#000000" font-family="sans-serif" font-size="14" lengthAdjust="spacingAndGlyphs" textLength="38" x="124.9" y="127.5332">Juego</text><text fill="#000000" font-family="sans-serif" font-size="10" lengthAdjust="spacingAndGlyphs" textLength="176" x="55.9" y="140.9902">co.com.sofka.cargame.domain.juego</text><line style="stroke: #A80036; stroke-width: 1.5;" x1="7" x2="251" y1="148.1875" y2="148.1875"/><polygon fill="none" points="17,155.6055,21,159.6055,17,163.6055,13,159.6055" style="stroke: #B38D22; stroke-width: 1.0;"/><text fill="#000000" font-family="sans-serif" font-size="11" lengthAdjust="spacingAndGlyphs" textLength="178" x="26" y="163.6064">jugadores: Map&lt;JugadorId, Jugador&gt;</text><polygon fill="none" points="17,169.4414,21,173.4414,17,177.4414,13,173.4414" style="stroke: #B38D22; stroke-width: 1.0;"/><text fill="#000000" font-family="sans-serif" font-size="11" lengthAdjust="spacingAndGlyphs" textLength="52" x="26" y="177.4424">pista: Pista</text><polygon fill="none" points="17,183.2773,21,187.2773,17,191.2773,13,187.2773" style="stroke: #B38D22; stroke-width: 1.0;"/><text fill="#000000" font-family="sans-serif" font-size="11" lengthAdjust="spacingAndGlyphs" textLength="83" x="26" y="191.2783">jugando: Boolean</text><polygon fill="none" points="17,197.1133,21,201.1133,17,205.1133,13,201.1133" style="stroke: #B38D22; stroke-width: 1.0;"/><text fill="#000000" font-family="sans-serif" font-size="11" lengthAdjust="spacingAndGlyphs" textLength="58" x="26" y="205.1143">podio: Podio</text><line style="stroke: #A80036; stroke-width: 1.5;" x1="7" x2="251" y1="211.5313" y2="211.5313"/><ellipse cx="17" cy="223.9492" fill="#84BE84" rx="3" ry="3" style="stroke: #038048; stroke-width: 1.0;"/><text fill="#000000" font-family="sans-serif" font-size="11" lengthAdjust="spacingAndGlyphs" textLength="103" x="26" y="226.9502">Juego(JuegoId, Pista)</text><ellipse cx="17" cy="237.7852" fill="#84BE84" rx="3" ry="3" style="stroke: #038048; stroke-width: 1.0;"/><text fill="#000000" font-family="sans-serif" font-size="11" lengthAdjust="spacingAndGlyphs" text-decoration="underline" textLength="199" x="26" y="240.7861">from(JuegoId, List&lt;DomainEvent&gt;): Juego</text><ellipse cx="17" cy="251.6211" fill="#84BE84" rx="3" ry="3" style="stroke: #038048; stroke-width: 1.0;"/><text fill="#000000" font-family="sans-serif" font-size="11" lengthAdjust="spacingAndGlyphs" textLength="220" x="26" y="254.6221">crearJugador(JugadorId, Nombre, Color): void</text><ellipse cx="17" cy="265.457" fill="#84BE84" rx="3" ry="3" style="stroke: #038048; stroke-width: 1.0;"/><text fill="#000000" font-family="sans-serif" font-size="11" lengthAdjust="spacingAndGlyphs" textLength="175" x="26" y="268.458">asignarPrimerLugar(JugadorId): void</text><ellipse cx="17" cy="279.293" fill="#84BE84" rx="3" ry="3" style="stroke: #038048; stroke-width: 1.0;"/><text fill="#000000" font-family="sans-serif" font-size="11" lengthAdjust="spacingAndGlyphs" textLength="188" x="26" y="282.2939">asignarSegundoLugar(JugadorId): void</text><ellipse cx="17" cy="293.1289" fill="#84BE84" rx="3" ry="3" style="stroke: #038048; stroke-width: 1.0;"/><text fill="#000000" font-family="sans-serif" font-size="11" lengthAdjust="spacingAndGlyphs" textLength="177" x="26" y="296.1299">asignarTercerLugar(JugadorId): void</text><ellipse cx="17" cy="306.9648" fill="#84BE84" rx="3" ry="3" style="stroke: #038048; stroke-width: 1.0;"/><text fill="#000000" font-family="sans-serif" font-size="11" lengthAdjust="spacingAndGlyphs" textLength="91" x="26" y="309.9658">iniciarJuego(): void</text><ellipse cx="17" cy="320.8008" fill="#84BE84" rx="3" ry="3" style="stroke: #038048; stroke-width: 1.0;"/><text fill="#000000" font-family="sans-serif" font-size="11" lengthAdjust="spacingAndGlyphs" textLength="186" x="26" y="323.8018">jugadores(): Map&lt;JugadorId, Jugador&gt;</text><ellipse cx="17" cy="334.6367" fill="#84BE84" rx="3" ry="3" style="stroke: #038048; stroke-width: 1.0;"/><text fill="#000000" font-family="sans-serif" font-size="11" lengthAdjust="spacingAndGlyphs" textLength="71" x="26" y="337.6377">pista(): Values</text><ellipse cx="17" cy="348.4727" fill="#84BE84" rx="3" ry="3" style="stroke: #038048; stroke-width: 1.0;"/><text fill="#000000" font-family="sans-serif" font-size="11" lengthAdjust="spacingAndGlyphs" textLength="91" x="26" y="351.4736">jugando(): Boolean</text><ellipse cx="17" cy="362.3086" fill="#84BE84" rx="3" ry="3" style="stroke: #038048; stroke-width: 1.0;"/><text fill="#000000" font-family="sans-serif" font-size="11" lengthAdjust="spacingAndGlyphs" textLength="68" x="26" y="365.3096">podio(): Props</text></a><!--class co.com.sofka.domain.generic.AggregateEvent--><rect fill="#FEFECE" filter="url(#fqc1wkm4podig)" height="40.1875" id="co.com.sofka.domain.generic.AggregateEvent" style="stroke: #A80036; stroke-width: 1.5;" width="216" x="21" y="8"/><ellipse cx="36" cy="28.0938" fill="#A9DCDF" rx="11" ry="11" style="stroke: #A80036; stroke-width: 1.0;"/><path d="M38.1875,29.8594 L34.0469,29.8594 L33.625,30.8906 L34.0469,30.8906 Q34.6563,30.8906 34.9219,31.125 Q35.1875,31.3594 35.1875,31.75 Q35.1875,32.125 34.9219,32.3594 Q34.6563,32.5938 34.0469,32.5938 L31.75,32.5938 Q31.1406,32.5938 30.8906,32.3594 Q30.625,32.125 30.625,31.7344 Q30.625,31.3594 30.9063,31.125 Q31.1719,30.875 31.7969,30.8906 L34.4688,24.2344 L33.3594,24.2344 Q32.75,24.2344 32.4844,24 Q32.2188,23.7656 32.2188,23.375 Q32.2188,23 32.4844,22.7656 Q32.75,22.5313 33.3594,22.5313 L37.0313,22.5313 L40.4219,30.8906 Q41.0156,30.8906 41.2031,31.0313 Q41.5938,31.2969 41.5938,31.75 Q41.5938,32.125 41.3281,32.3594 Q41.0781,32.5938 40.4688,32.5938 L38.1719,32.5938 Q37.5625,32.5938 37.2969,32.3594 Q37.0313,32.125 37.0313,31.7344 Q37.0313,31.3594 37.2969,31.125 Q37.5625,30.8906 38.1719,30.8906 L38.5938,30.8906 L38.1875,29.8594 Z M37.4688,28.1563 L36.1094,24.7813 L34.7344,28.1563 L37.4688,28.1563 Z "/><text fill="#000000" font-family="sans-serif" font-size="14" font-style="italic" lengthAdjust="spacingAndGlyphs" textLength="101" x="67" y="27.5332">AggregateEvent</text><text fill="#000000" font-family="sans-serif" font-size="10" font-style="italic" lengthAdjust="spacingAndGlyphs" textLength="135" x="50" y="40.9902">co.com.sofka.domain.generic</text><rect fill="#FFFFFF" height="17.0938" style="stroke: #000000; stroke-width: 1.0; stroke-dasharray: 2.0,2.0;" width="47" x="193" y="5"/><text fill="#000000" font-family="sans-serif" font-size="12" font-style="italic" lengthAdjust="spacingAndGlyphs" textLength="45" x="194" y="18.457">JuegoId</text><!--link co.com.sofka.domain.generic.AggregateEvent to co.com.sofka.cargame.domain.juego.Juego--><path d="M129,68.07 C129,79.86 129,93.51 129,107.85 " fill="none" id="co.com.sofka.domain.generic.AggregateEvent-co.com.sofka.cargame.domain.juego.Juego" style="stroke: #A80036; stroke-width: 1.0;"/><polygon fill="none" points="122,68.01,129,48.01,136,68.01,122,68.01" style="stroke: #A80036; stroke-width: 1.0;"/><text fill="#888888" font-family="sans-serif" font-size="10" lengthAdjust="spacingAndGlyphs" textLength="190" x="40" y="392.3809">UMLDoclet 2.0.10, PlantUML 1.2019.08</text><!--
@startuml
    set namespaceSeparator none
    hide empty fields
    hide empty methods

    class "<size:14>Juego\n<size:10>co.com.sofka.cargame.domain.juego" as co.com.sofka.cargame.domain.juego.Juego [[Juego.html]] {
        #jugadores: Map<JugadorId, Jugador>
        #pista: Pista
        #jugando: Boolean
        #podio: Podio
        +Juego(JuegoId, Pista)
        {static} +from(JuegoId, List<DomainEvent>): Juego
        +crearJugador(JugadorId, Nombre, Color): void
        +asignarPrimerLugar(JugadorId): void
        +asignarSegundoLugar(JugadorId): void
        +asignarTercerLugar(JugadorId): void
        +iniciarJuego(): void
        +jugadores(): Map<JugadorId, Jugador>
        +pista(): Values
        +jugando(): Boolean
        +podio(): Props
    }

    abstract class "<size:14>AggregateEvent\n<size:10>co.com.sofka.domain.generic" as co.com.sofka.domain.generic.AggregateEvent<JuegoId>

    co.com.sofka.domain.generic.AggregateEvent <|- - co.com.sofka.cargame.domain.juego.Juego

    center footer UMLDoclet 2.0.10, PlantUML 1.2019.08
@enduml

PlantUML version 1.2019.08(Sat Jul 13 14:25:14 COT 2019)
(APACHE source distribution)
Java Runtime: Java(TM) SE Runtime Environment
JVM: Java HotSpot(TM) 64-Bit Server VM
Java Version: 11.0.11+9-LTS-194
Operating System: Windows 10
OS Version: 10.0
Default Encoding: Cp1252
Language: es
Country: CO
--></g></svg>