<?xml version="1.0" encoding="UTF-8" standalone="no"?><svg xmlns="http://www.w3.org/2000/svg" xmlns:xlink="http://www.w3.org/1999/xlink" contentScriptType="application/ecmascript" contentStyleType="text/css" height="245px" preserveAspectRatio="none" style="width:247px;height:245px;" version="1.1" viewBox="0 0 247 245" width="247px" zoomAndPan="magnify"><defs><filter height="300%" id="f1w3o58693nd96" width="300%" x="-1" y="-1"><feGaussianBlur result="blurOut" stdDeviation="2.0"/><feColorMatrix in="blurOut" result="blurOut2" type="matrix" values="0 0 0 0 0 0 0 0 0 0 0 0 0 0 0 0 0 0 .4 0"/><feOffset dx="4.0" dy="4.0" in="blurOut2" result="blurOut3"/><feBlend in="SourceGraphic" in2="blurOut3" mode="normal"/></filter></defs><g><!--class co.com.sofka.cargame.domain.juego.Jugador--><a href="Jugador.html" target="_top" xlink:actuate="onRequest" xlink:show="new" xlink:title="Jugador.html" xlink:type="simple"><rect fill="#FEFECE" filter="url(#f1w3o58693nd96)" height="103.5313" id="co.com.sofka.cargame.domain.juego.Jugador" style="stroke: #A80036; stroke-width: 1.5;" width="208" x="15.5" y="108"/><ellipse cx="30.5" cy="128.0938" fill="#ADD1B2" rx="11" ry="11" style="stroke: #A80036; stroke-width: 1.0;"/><path d="M33.2656,123.9688 Q33.4219,123.75 33.6094,123.6406 Q33.7969,123.5313 34.0156,123.5313 Q34.3906,123.5313 34.625,123.7969 Q34.8594,124.0469 34.8594,124.6563 L34.8594,126.1094 Q34.8594,126.7188 34.625,126.9844 Q34.3906,127.25 34.0156,127.25 Q33.6719,127.25 33.4688,127.0469 Q33.2656,126.8594 33.1563,126.3438 Q33.1094,125.9844 32.9219,125.7969 Q32.5938,125.4219 31.9844,125.2031 Q31.375,124.9844 30.75,124.9844 Q29.9844,124.9844 29.3438,125.3125 Q28.7188,125.6406 28.2188,126.3906 Q27.7344,127.1406 27.7344,128.1719 L27.7344,129.2656 Q27.7344,130.5 28.625,131.3281 Q29.5156,132.1406 31.1094,132.1406 Q32.0469,132.1406 32.7031,131.8906 Q33.0938,131.7344 33.5156,131.2969 Q33.7813,131.0313 33.9219,130.9531 Q34.0781,130.875 34.2813,130.875 Q34.6094,130.875 34.8594,131.1406 Q35.125,131.3906 35.125,131.7344 Q35.125,132.0781 34.7813,132.4844 Q34.2813,133.0625 33.4844,133.3906 Q32.4063,133.8438 31.1094,133.8438 Q29.5938,133.8438 28.3906,133.2188 Q27.4063,132.7188 26.7188,131.6563 Q26.0313,130.5781 26.0313,129.2969 L26.0313,128.1406 Q26.0313,126.8125 26.6406,125.6719 Q27.2656,124.5156 28.3594,123.9063 Q29.4531,123.2813 30.6875,123.2813 Q31.4219,123.2813 32.0625,123.4531 Q32.7188,123.6094 33.2656,123.9688 Z "/><text fill="#000000" font-family="sans-serif" font-size="14" lengthAdjust="spacingAndGlyphs" textLength="51" x="107" y="127.5332">Jugador</text><text fill="#000000" font-family="sans-serif" font-size="10" lengthAdjust="spacingAndGlyphs" textLength="176" x="44.5" y="140.9902">co.com.sofka.cargame.domain.juego</text><line style="stroke: #A80036; stroke-width: 1.5;" x1="16.5" x2="222.5" y1="148.1875" y2="148.1875"/><ellipse cx="26.5" cy="160.6055" fill="#84BE84" rx="3" ry="3" style="stroke: #038048; stroke-width: 1.0;"/><text fill="#000000" font-family="sans-serif" font-size="11" lengthAdjust="spacingAndGlyphs" textLength="168" x="35.5" y="163.6064">Jugador(JugadorId, Nombre, Color)</text><ellipse cx="26.5" cy="174.4414" fill="#84BE84" rx="3" ry="3" style="stroke: #038048; stroke-width: 1.0;"/><text fill="#000000" font-family="sans-serif" font-size="11" lengthAdjust="spacingAndGlyphs" textLength="87" x="35.5" y="177.4424">nombre(): Nombre</text><ellipse cx="26.5" cy="188.2773" fill="#84BE84" rx="3" ry="3" style="stroke: #038048; stroke-width: 1.0;"/><text fill="#000000" font-family="sans-serif" font-size="11" lengthAdjust="spacingAndGlyphs" textLength="63" x="35.5" y="191.2783">color(): Color</text><ellipse cx="26.5" cy="202.1133" fill="#84BE84" rx="3" ry="3" style="stroke: #038048; stroke-width: 1.0;"/><text fill="#000000" font-family="sans-serif" font-size="11" lengthAdjust="spacingAndGlyphs" textLength="136" x="35.5" y="205.1143">asignarPuntos(Integer): void</text></a><!--class co.com.sofka.domain.generic.Entity--><rect fill="#FEFECE" filter="url(#f1w3o58693nd96)" height="40.1875" id="co.com.sofka.domain.generic.Entity" style="stroke: #A80036; stroke-width: 1.5;" width="227" x="6" y="8"/><ellipse cx="21" cy="28.0938" fill="#A9DCDF" rx="11" ry="11" style="stroke: #A80036; stroke-width: 1.0;"/><path d="M23.1875,29.8594 L19.0469,29.8594 L18.625,30.8906 L19.0469,30.8906 Q19.6563,30.8906 19.9219,31.125 Q20.1875,31.3594 20.1875,31.75 Q20.1875,32.125 19.9219,32.3594 Q19.6563,32.5938 19.0469,32.5938 L16.75,32.5938 Q16.1406,32.5938 15.8906,32.3594 Q15.625,32.125 15.625,31.7344 Q15.625,31.3594 15.9063,31.125 Q16.1719,30.875 16.7969,30.8906 L19.4688,24.2344 L18.3594,24.2344 Q17.75,24.2344 17.4844,24 Q17.2188,23.7656 17.2188,23.375 Q17.2188,23 17.4844,22.7656 Q17.75,22.5313 18.3594,22.5313 L22.0313,22.5313 L25.4219,30.8906 Q26.0156,30.8906 26.2031,31.0313 Q26.5938,31.2969 26.5938,31.75 Q26.5938,32.125 26.3281,32.3594 Q26.0781,32.5938 25.4688,32.5938 L23.1719,32.5938 Q22.5625,32.5938 22.2969,32.3594 Q22.0313,32.125 22.0313,31.7344 Q22.0313,31.3594 22.2969,31.125 Q22.5625,30.8906 23.1719,30.8906 L23.5938,30.8906 L23.1875,29.8594 Z M22.4688,28.1563 L21.1094,24.7813 L19.7344,28.1563 L22.4688,28.1563 Z "/><text fill="#000000" font-family="sans-serif" font-size="14" font-style="italic" lengthAdjust="spacingAndGlyphs" textLength="35" x="85" y="27.5332">Entity</text><text fill="#000000" font-family="sans-serif" font-size="10" font-style="italic" lengthAdjust="spacingAndGlyphs" textLength="135" x="35" y="40.9902">co.com.sofka.domain.generic</text><rect fill="#FFFFFF" height="17.0938" style="stroke: #000000; stroke-width: 1.0; stroke-dasharray: 2.0,2.0;" width="58" x="178" y="5"/><text fill="#000000" font-family="sans-serif" font-size="12" font-style="italic" lengthAdjust="spacingAndGlyphs" textLength="56" x="179" y="18.457">JugadorId</text><!--link co.com.sofka.domain.generic.Entity to co.com.sofka.cargame.domain.juego.Jugador--><path d="M119.5,68.49 C119.5,80.93 119.5,94.86 119.5,107.99 " fill="none" id="co.com.sofka.domain.generic.Entity-co.com.sofka.cargame.domain.juego.Jugador" style="stroke: #A80036; stroke-width: 1.0;"/><polygon fill="none" points="112.5,68.18,119.5,48.18,126.5,68.18,112.5,68.18" style="stroke: #A80036; stroke-width: 1.0;"/><text fill="#888888" font-family="sans-serif" font-size="10" lengthAdjust="spacingAndGlyphs" textLength="190" x="30.5" y="232.3809">UMLDoclet 2.0.10, PlantUML 1.2019.08</text><!--
@startuml
    set namespaceSeparator none
    hide empty fields
    hide empty methods

    class "<size:14>Jugador\n<size:10>co.com.sofka.cargame.domain.juego" as co.com.sofka.cargame.domain.juego.Jugador [[Jugador.html]] {
        +Jugador(JugadorId, Nombre, Color)
        +nombre(): Nombre
        +color(): Color
        +asignarPuntos(Integer): void
    }

    abstract class "<size:14>Entity\n<size:10>co.com.sofka.domain.generic" as co.com.sofka.domain.generic.Entity<JugadorId>

    co.com.sofka.domain.generic.Entity <|- - co.com.sofka.cargame.domain.juego.Jugador

    center footer UMLDoclet 2.0.10, PlantUML 1.2019.08
@enduml

PlantUML version 1.2019.08(Sat Jul 13 14:25:14 COT 2019)
(APACHE source distribution)
Java Runtime: Java(TM) SE Runtime Environment
JVM: Java HotSpot(TM) 64-Bit Server VM
Java Version: 11.0.11+9-LTS-194
Operating System: Windows 10
OS Version: 10.0
Default Encoding: Cp1252
Language: es
Country: CO
--></g></svg>