<?xml version="1.0" encoding="UTF-8" standalone="no"?><svg xmlns="http://www.w3.org/2000/svg" xmlns:xlink="http://www.w3.org/1999/xlink" contentScriptType="application/ecmascript" contentStyleType="text/css" height="650px" preserveAspectRatio="none" style="width:797px;height:650px;" version="1.1" viewBox="0 0 797 650" width="797px" zoomAndPan="magnify"><defs><filter height="300%" id="f1qsb7mphzhy1p" width="300%" x="-1" y="-1"><feGaussianBlur result="blurOut" stdDeviation="2.0"/><feColorMatrix in="blurOut" result="blurOut2" type="matrix" values="0 0 0 0 0 0 0 0 0 0 0 0 0 0 0 0 0 0 .4 0"/><feOffset dx="4.0" dy="4.0" in="blurOut2" result="blurOut3"/><feBlend in="SourceGraphic" in2="blurOut3" mode="normal"/></filter></defs><g><!--cluster co.com.sofka.cargame.domain.juego--><polygon fill="#FFFFFF" filter="url(#f1qsb7mphzhy1p)" points="54,171,315,171,322,194.6094,752,194.6094,752,451,54,451,54,171" style="stroke: #000000; stroke-width: 1.5;"/><line style="stroke: #000000; stroke-width: 1.5;" x1="54" x2="322" y1="194.6094" y2="194.6094"/><text fill="#000000" font-family="sans-serif" font-size="14" font-weight="bold" lengthAdjust="spacingAndGlyphs" textLength="255" x="58" y="187.5332">co.com.sofka.cargame.domain.juego</text><!--cluster co.com.sofka.domain.generic--><polygon fill="#FFFFFF" filter="url(#f1qsb7mphzhy1p)" points="22,24,233,24,240,47.6094,775,47.6094,775,138,22,138,22,24" style="stroke: #000000; stroke-width: 1.5;"/><line style="stroke: #000000; stroke-width: 1.5;" x1="22" x2="240" y1="47.6094" y2="47.6094"/><text fill="#000000" font-family="sans-serif" font-size="14" font-weight="bold" lengthAdjust="spacingAndGlyphs" textLength="205" x="26" y="40.5332">co.com.sofka.domain.generic</text><!--cluster co.com.sofka.cargame.domain.juego.values--><polygon fill="#FFFFFF" filter="url(#f1qsb7mphzhy1p)" points="68,501,380,501,387,524.6094,390,524.6094,390,601,68,601,68,501" style="stroke: #000000; stroke-width: 1.5;"/><line style="stroke: #000000; stroke-width: 1.5;" x1="68" x2="387" y1="524.6094" y2="524.6094"/><text fill="#000000" font-family="sans-serif" font-size="14" font-weight="bold" lengthAdjust="spacingAndGlyphs" textLength="306" x="72" y="517.5332">co.com.sofka.cargame.domain.juego.values</text><!--class co.com.sofka.cargame.domain.juego.Juego--><a href="Juego.html" target="_top" xlink:actuate="onRequest" xlink:show="new" xlink:title="Juego.html" xlink:type="simple"><rect fill="#FEFECE" filter="url(#f1qsb7mphzhy1p)" height="227.8672" id="co.com.sofka.cargame.domain.juego.Juego" style="stroke: #A80036; stroke-width: 1.5;" width="246" x="70" y="207"/><ellipse cx="171.75" cy="223" fill="#ADD1B2" rx="11" ry="11" style="stroke: #A80036; stroke-width: 1.0;"/><path d="M174.5156,218.875 Q174.6719,218.6563 174.8594,218.5469 Q175.0469,218.4375 175.2656,218.4375 Q175.6406,218.4375 175.875,218.7031 Q176.1094,218.9531 176.1094,219.5625 L176.1094,221.0156 Q176.1094,221.625 175.875,221.8906 Q175.6406,222.1563 175.2656,222.1563 Q174.9219,222.1563 174.7188,221.9531 Q174.5156,221.7656 174.4063,221.25 Q174.3594,220.8906 174.1719,220.7031 Q173.8438,220.3281 173.2344,220.1094 Q172.625,219.8906 172,219.8906 Q171.2344,219.8906 170.5938,220.2188 Q169.9688,220.5469 169.4688,221.2969 Q168.9844,222.0469 168.9844,223.0781 L168.9844,224.1719 Q168.9844,225.4063 169.875,226.2344 Q170.7656,227.0469 172.3594,227.0469 Q173.2969,227.0469 173.9531,226.7969 Q174.3438,226.6406 174.7656,226.2031 Q175.0313,225.9375 175.1719,225.8594 Q175.3281,225.7813 175.5313,225.7813 Q175.8594,225.7813 176.1094,226.0469 Q176.375,226.2969 176.375,226.6406 Q176.375,226.9844 176.0313,227.3906 Q175.5313,227.9688 174.7344,228.2969 Q173.6563,228.75 172.3594,228.75 Q170.8438,228.75 169.6406,228.125 Q168.6563,227.625 167.9688,226.5625 Q167.2813,225.4844 167.2813,224.2031 L167.2813,223.0469 Q167.2813,221.7188 167.8906,220.5781 Q168.5156,219.4219 169.6094,218.8125 Q170.7031,218.1875 171.9375,218.1875 Q172.6719,218.1875 173.3125,218.3594 Q173.9688,218.5156 174.5156,218.875 Z "/><text fill="#000000" font-family="sans-serif" font-size="12" lengthAdjust="spacingAndGlyphs" textLength="34" x="192.25" y="227.9102">Juego</text><line style="stroke: #A80036; stroke-width: 1.5;" x1="71" x2="315" y1="239" y2="239"/><polygon fill="none" points="81,246.418,85,250.418,81,254.418,77,250.418" style="stroke: #B38D22; stroke-width: 1.0;"/><text fill="#000000" font-family="sans-serif" font-size="11" lengthAdjust="spacingAndGlyphs" textLength="178" x="90" y="254.4189">jugadores: Map&lt;JugadorId, Jugador&gt;</text><polygon fill="none" points="81,260.2539,85,264.2539,81,268.2539,77,264.2539" style="stroke: #B38D22; stroke-width: 1.0;"/><text fill="#000000" font-family="sans-serif" font-size="11" lengthAdjust="spacingAndGlyphs" textLength="83" x="90" y="268.2549">jugando: Boolean</text><line style="stroke: #A80036; stroke-width: 1.5;" x1="71" x2="315" y1="274.6719" y2="274.6719"/><ellipse cx="81" cy="287.0898" fill="#84BE84" rx="3" ry="3" style="stroke: #038048; stroke-width: 1.0;"/><text fill="#000000" font-family="sans-serif" font-size="11" lengthAdjust="spacingAndGlyphs" textLength="103" x="90" y="290.0908">Juego(JuegoId, Pista)</text><ellipse cx="81" cy="300.9258" fill="#84BE84" rx="3" ry="3" style="stroke: #038048; stroke-width: 1.0;"/><text fill="#000000" font-family="sans-serif" font-size="11" lengthAdjust="spacingAndGlyphs" text-decoration="underline" textLength="199" x="90" y="303.9268">from(JuegoId, List&lt;DomainEvent&gt;): Juego</text><ellipse cx="81" cy="314.7617" fill="#84BE84" rx="3" ry="3" style="stroke: #038048; stroke-width: 1.0;"/><text fill="#000000" font-family="sans-serif" font-size="11" lengthAdjust="spacingAndGlyphs" textLength="220" x="90" y="317.7627">crearJugador(JugadorId, Nombre, Color): void</text><ellipse cx="81" cy="328.5977" fill="#84BE84" rx="3" ry="3" style="stroke: #038048; stroke-width: 1.0;"/><text fill="#000000" font-family="sans-serif" font-size="11" lengthAdjust="spacingAndGlyphs" textLength="175" x="90" y="331.5986">asignarPrimerLugar(JugadorId): void</text><ellipse cx="81" cy="342.4336" fill="#84BE84" rx="3" ry="3" style="stroke: #038048; stroke-width: 1.0;"/><text fill="#000000" font-family="sans-serif" font-size="11" lengthAdjust="spacingAndGlyphs" textLength="188" x="90" y="345.4346">asignarSegundoLugar(JugadorId): void</text><ellipse cx="81" cy="356.2695" fill="#84BE84" rx="3" ry="3" style="stroke: #038048; stroke-width: 1.0;"/><text fill="#000000" font-family="sans-serif" font-size="11" lengthAdjust="spacingAndGlyphs" textLength="177" x="90" y="359.2705">asignarTercerLugar(JugadorId): void</text><ellipse cx="81" cy="370.1055" fill="#84BE84" rx="3" ry="3" style="stroke: #038048; stroke-width: 1.0;"/><text fill="#000000" font-family="sans-serif" font-size="11" lengthAdjust="spacingAndGlyphs" textLength="91" x="90" y="373.1064">iniciarJuego(): void</text><ellipse cx="81" cy="383.9414" fill="#84BE84" rx="3" ry="3" style="stroke: #038048; stroke-width: 1.0;"/><text fill="#000000" font-family="sans-serif" font-size="11" lengthAdjust="spacingAndGlyphs" textLength="186" x="90" y="386.9424">jugadores(): Map&lt;JugadorId, Jugador&gt;</text><ellipse cx="81" cy="397.7773" fill="#84BE84" rx="3" ry="3" style="stroke: #038048; stroke-width: 1.0;"/><text fill="#000000" font-family="sans-serif" font-size="11" lengthAdjust="spacingAndGlyphs" textLength="71" x="90" y="400.7783">pista(): Values</text><ellipse cx="81" cy="411.6133" fill="#84BE84" rx="3" ry="3" style="stroke: #038048; stroke-width: 1.0;"/><text fill="#000000" font-family="sans-serif" font-size="11" lengthAdjust="spacingAndGlyphs" textLength="91" x="90" y="414.6143">jugando(): Boolean</text><ellipse cx="81" cy="425.4492" fill="#84BE84" rx="3" ry="3" style="stroke: #038048; stroke-width: 1.0;"/><text fill="#000000" font-family="sans-serif" font-size="11" lengthAdjust="spacingAndGlyphs" textLength="68" x="90" y="428.4502">podio(): Props</text></a><!--class co.com.sofka.cargame.domain.juego.JuegoEventChange--><a href="JuegoEventChange.html" target="_top" xlink:actuate="onRequest" xlink:show="new" xlink:title="JuegoEventChange.html" xlink:type="simple"><rect fill="#FEFECE" filter="url(#f1qsb7mphzhy1p)" height="61.8359" id="co.com.sofka.cargame.domain.juego.JuegoEventChange" style="stroke: #A80036; stroke-width: 1.5;" width="156" x="351" y="290"/><ellipse cx="373.2" cy="306" fill="#ADD1B2" rx="11" ry="11" style="stroke: #A80036; stroke-width: 1.0;"/><path d="M375.9656,301.875 Q376.1219,301.6563 376.3094,301.5469 Q376.4969,301.4375 376.7156,301.4375 Q377.0906,301.4375 377.325,301.7031 Q377.5594,301.9531 377.5594,302.5625 L377.5594,304.0156 Q377.5594,304.625 377.325,304.8906 Q377.0906,305.1563 376.7156,305.1563 Q376.3719,305.1563 376.1688,304.9531 Q375.9656,304.7656 375.8563,304.25 Q375.8094,303.8906 375.6219,303.7031 Q375.2938,303.3281 374.6844,303.1094 Q374.075,302.8906 373.45,302.8906 Q372.6844,302.8906 372.0438,303.2188 Q371.4188,303.5469 370.9188,304.2969 Q370.4344,305.0469 370.4344,306.0781 L370.4344,307.1719 Q370.4344,308.4063 371.325,309.2344 Q372.2156,310.0469 373.8094,310.0469 Q374.7469,310.0469 375.4031,309.7969 Q375.7938,309.6406 376.2156,309.2031 Q376.4813,308.9375 376.6219,308.8594 Q376.7781,308.7813 376.9813,308.7813 Q377.3094,308.7813 377.5594,309.0469 Q377.825,309.2969 377.825,309.6406 Q377.825,309.9844 377.4813,310.3906 Q376.9813,310.9688 376.1844,311.2969 Q375.1063,311.75 373.8094,311.75 Q372.2938,311.75 371.0906,311.125 Q370.1063,310.625 369.4188,309.5625 Q368.7313,308.4844 368.7313,307.2031 L368.7313,306.0469 Q368.7313,304.7188 369.3406,303.5781 Q369.9656,302.4219 371.0594,301.8125 Q372.1531,301.1875 373.3875,301.1875 Q374.1219,301.1875 374.7625,301.3594 Q375.4188,301.5156 375.9656,301.875 Z "/><text fill="#000000" font-family="sans-serif" font-size="12" lengthAdjust="spacingAndGlyphs" textLength="108" x="388.8" y="310.9102">JuegoEventChange</text><line style="stroke: #A80036; stroke-width: 1.5;" x1="352" x2="506" y1="322" y2="322"/><line style="stroke: #A80036; stroke-width: 1.5;" x1="352" x2="506" y1="330" y2="330"/><ellipse cx="362" cy="342.418" fill="#84BE84" rx="3" ry="3" style="stroke: #038048; stroke-width: 1.0;"/><text fill="#000000" font-family="sans-serif" font-size="11" lengthAdjust="spacingAndGlyphs" textLength="130" x="371" y="345.4189">JuegoEventChange(Juego)</text></a><!--class co.com.sofka.cargame.domain.juego.Jugador--><a href="Jugador.html" target="_top" xlink:actuate="onRequest" xlink:show="new" xlink:title="Jugador.html" xlink:type="simple"><rect fill="#FEFECE" filter="url(#f1qsb7mphzhy1p)" height="103.3438" id="co.com.sofka.cargame.domain.juego.Jugador" style="stroke: #A80036; stroke-width: 1.5;" width="194" x="542" y="269.5"/><ellipse cx="612.25" cy="285.5" fill="#ADD1B2" rx="11" ry="11" style="stroke: #A80036; stroke-width: 1.0;"/><path d="M615.0156,281.375 Q615.1719,281.1563 615.3594,281.0469 Q615.5469,280.9375 615.7656,280.9375 Q616.1406,280.9375 616.375,281.2031 Q616.6094,281.4531 616.6094,282.0625 L616.6094,283.5156 Q616.6094,284.125 616.375,284.3906 Q616.1406,284.6563 615.7656,284.6563 Q615.4219,284.6563 615.2188,284.4531 Q615.0156,284.2656 614.9063,283.75 Q614.8594,283.3906 614.6719,283.2031 Q614.3438,282.8281 613.7344,282.6094 Q613.125,282.3906 612.5,282.3906 Q611.7344,282.3906 611.0938,282.7188 Q610.4688,283.0469 609.9688,283.7969 Q609.4844,284.5469 609.4844,285.5781 L609.4844,286.6719 Q609.4844,287.9063 610.375,288.7344 Q611.2656,289.5469 612.8594,289.5469 Q613.7969,289.5469 614.4531,289.2969 Q614.8438,289.1406 615.2656,288.7031 Q615.5313,288.4375 615.6719,288.3594 Q615.8281,288.2813 616.0313,288.2813 Q616.3594,288.2813 616.6094,288.5469 Q616.875,288.7969 616.875,289.1406 Q616.875,289.4844 616.5313,289.8906 Q616.0313,290.4688 615.2344,290.7969 Q614.1563,291.25 612.8594,291.25 Q611.3438,291.25 610.1406,290.625 Q609.1563,290.125 608.4688,289.0625 Q607.7813,287.9844 607.7813,286.7031 L607.7813,285.5469 Q607.7813,284.2188 608.3906,283.0781 Q609.0156,281.9219 610.1094,281.3125 Q611.2031,280.6875 612.4375,280.6875 Q613.1719,280.6875 613.8125,280.8594 Q614.4688,281.0156 615.0156,281.375 Z "/><text fill="#000000" font-family="sans-serif" font-size="12" lengthAdjust="spacingAndGlyphs" textLength="45" x="632.75" y="290.4102">Jugador</text><line style="stroke: #A80036; stroke-width: 1.5;" x1="543" x2="735" y1="301.5" y2="301.5"/><line style="stroke: #A80036; stroke-width: 1.5;" x1="543" x2="735" y1="309.5" y2="309.5"/><ellipse cx="553" cy="321.918" fill="#84BE84" rx="3" ry="3" style="stroke: #038048; stroke-width: 1.0;"/><text fill="#000000" font-family="sans-serif" font-size="11" lengthAdjust="spacingAndGlyphs" textLength="168" x="562" y="324.9189">Jugador(JugadorId, Nombre, Color)</text><ellipse cx="553" cy="335.7539" fill="#84BE84" rx="3" ry="3" style="stroke: #038048; stroke-width: 1.0;"/><text fill="#000000" font-family="sans-serif" font-size="11" lengthAdjust="spacingAndGlyphs" textLength="87" x="562" y="338.7549">nombre(): Nombre</text><ellipse cx="553" cy="349.5898" fill="#84BE84" rx="3" ry="3" style="stroke: #038048; stroke-width: 1.0;"/><text fill="#000000" font-family="sans-serif" font-size="11" lengthAdjust="spacingAndGlyphs" textLength="63" x="562" y="352.5908">color(): Color</text><ellipse cx="553" cy="363.4258" fill="#84BE84" rx="3" ry="3" style="stroke: #038048; stroke-width: 1.0;"/><text fill="#000000" font-family="sans-serif" font-size="11" lengthAdjust="spacingAndGlyphs" textLength="136" x="562" y="366.4268">asignarPuntos(Integer): void</text></a><!--class co.com.sofka.domain.generic.AggregateEvent--><rect fill="#FEFECE" filter="url(#f1qsb7mphzhy1p)" height="48" id="co.com.sofka.domain.generic.AggregateEvent" style="stroke: #A80036; stroke-width: 1.5;" width="220" x="38" y="67"/><ellipse cx="53" cy="83" fill="#A9DCDF" rx="11" ry="11" style="stroke: #A80036; stroke-width: 1.0;"/><path d="M55.1875,84.7656 L51.0469,84.7656 L50.625,85.7969 L51.0469,85.7969 Q51.6563,85.7969 51.9219,86.0313 Q52.1875,86.2656 52.1875,86.6563 Q52.1875,87.0313 51.9219,87.2656 Q51.6563,87.5 51.0469,87.5 L48.75,87.5 Q48.1406,87.5 47.8906,87.2656 Q47.625,87.0313 47.625,86.6406 Q47.625,86.2656 47.9063,86.0313 Q48.1719,85.7813 48.7969,85.7969 L51.4688,79.1406 L50.3594,79.1406 Q49.75,79.1406 49.4844,78.9063 Q49.2188,78.6719 49.2188,78.2813 Q49.2188,77.9063 49.4844,77.6719 Q49.75,77.4375 50.3594,77.4375 L54.0313,77.4375 L57.4219,85.7969 Q58.0156,85.7969 58.2031,85.9375 Q58.5938,86.2031 58.5938,86.6563 Q58.5938,87.0313 58.3281,87.2656 Q58.0781,87.5 57.4688,87.5 L55.1719,87.5 Q54.5625,87.5 54.2969,87.2656 Q54.0313,87.0313 54.0313,86.6406 Q54.0313,86.2656 54.2969,86.0313 Q54.5625,85.7969 55.1719,85.7969 L55.5938,85.7969 L55.1875,84.7656 Z M54.4688,83.0625 L53.1094,79.6875 L51.7344,83.0625 L54.4688,83.0625 Z "/><text fill="#000000" font-family="sans-serif" font-size="12" font-style="italic" lengthAdjust="spacingAndGlyphs" textLength="88" x="67" y="87.9102">AggregateEvent</text><rect fill="#FFFFFF" height="17.0938" style="stroke: #000000; stroke-width: 1.0; stroke-dasharray: 2.0,2.0;" width="98" x="163" y="64"/><text fill="#000000" font-family="sans-serif" font-size="12" font-style="italic" lengthAdjust="spacingAndGlyphs" textLength="96" x="164" y="77.457">T extends Identity</text><line style="stroke: #A80036; stroke-width: 1.5;" x1="39" x2="257" y1="99" y2="99"/><line style="stroke: #A80036; stroke-width: 1.5;" x1="39" x2="257" y1="107" y2="107"/><!--class co.com.sofka.domain.generic.EventChange--><rect fill="#FEFECE" filter="url(#f1qsb7mphzhy1p)" height="61.8359" id="co.com.sofka.domain.generic.EventChange" style="stroke: #A80036; stroke-width: 1.5;" width="271" x="293.5" y="60"/><ellipse cx="387.25" cy="76" fill="#A9DCDF" rx="11" ry="11" style="stroke: #A80036; stroke-width: 1.0;"/><path d="M389.4375,77.7656 L385.2969,77.7656 L384.875,78.7969 L385.2969,78.7969 Q385.9063,78.7969 386.1719,79.0313 Q386.4375,79.2656 386.4375,79.6563 Q386.4375,80.0313 386.1719,80.2656 Q385.9063,80.5 385.2969,80.5 L383,80.5 Q382.3906,80.5 382.1406,80.2656 Q381.875,80.0313 381.875,79.6406 Q381.875,79.2656 382.1563,79.0313 Q382.4219,78.7813 383.0469,78.7969 L385.7188,72.1406 L384.6094,72.1406 Q384,72.1406 383.7344,71.9063 Q383.4688,71.6719 383.4688,71.2813 Q383.4688,70.9063 383.7344,70.6719 Q384,70.4375 384.6094,70.4375 L388.2813,70.4375 L391.6719,78.7969 Q392.2656,78.7969 392.4531,78.9375 Q392.8438,79.2031 392.8438,79.6563 Q392.8438,80.0313 392.5781,80.2656 Q392.3281,80.5 391.7188,80.5 L389.4219,80.5 Q388.8125,80.5 388.5469,80.2656 Q388.2813,80.0313 388.2813,79.6406 Q388.2813,79.2656 388.5469,79.0313 Q388.8125,78.7969 389.4219,78.7969 L389.8438,78.7969 L389.4375,77.7656 Z M388.7188,76.0625 L387.3594,72.6875 L385.9844,76.0625 L388.7188,76.0625 Z "/><text fill="#000000" font-family="sans-serif" font-size="12" font-style="italic" lengthAdjust="spacingAndGlyphs" textLength="75" x="407.75" y="80.9102">EventChange</text><line style="stroke: #A80036; stroke-width: 1.5;" x1="294.5" x2="563.5" y1="92" y2="92"/><polygon fill="none" points="304.5,99.418,308.5,103.418,304.5,107.418,300.5,103.418" style="stroke: #B38D22; stroke-width: 1.0;"/><text fill="#000000" font-family="sans-serif" font-size="11" lengthAdjust="spacingAndGlyphs" textLength="245" x="313.5" y="107.4189">behaviors: Set&lt;Consumer&lt;? super DomainEvent&gt;&gt;</text><line style="stroke: #A80036; stroke-width: 1.5;" x1="294.5" x2="563.5" y1="113.8359" y2="113.8359"/><!--class co.com.sofka.domain.generic.Entity--><rect fill="#FEFECE" filter="url(#f1qsb7mphzhy1p)" height="61.8359" id="co.com.sofka.domain.generic.Entity" style="stroke: #A80036; stroke-width: 1.5;" width="159" x="599.5" y="60"/><ellipse cx="614.5" cy="76" fill="#A9DCDF" rx="11" ry="11" style="stroke: #A80036; stroke-width: 1.0;"/><path d="M616.6875,77.7656 L612.5469,77.7656 L612.125,78.7969 L612.5469,78.7969 Q613.1563,78.7969 613.4219,79.0313 Q613.6875,79.2656 613.6875,79.6563 Q613.6875,80.0313 613.4219,80.2656 Q613.1563,80.5 612.5469,80.5 L610.25,80.5 Q609.6406,80.5 609.3906,80.2656 Q609.125,80.0313 609.125,79.6406 Q609.125,79.2656 609.4063,79.0313 Q609.6719,78.7813 610.2969,78.7969 L612.9688,72.1406 L611.8594,72.1406 Q611.25,72.1406 610.9844,71.9063 Q610.7188,71.6719 610.7188,71.2813 Q610.7188,70.9063 610.9844,70.6719 Q611.25,70.4375 611.8594,70.4375 L615.5313,70.4375 L618.9219,78.7969 Q619.5156,78.7969 619.7031,78.9375 Q620.0938,79.2031 620.0938,79.6563 Q620.0938,80.0313 619.8281,80.2656 Q619.5781,80.5 618.9688,80.5 L616.6719,80.5 Q616.0625,80.5 615.7969,80.2656 Q615.5313,80.0313 615.5313,79.6406 Q615.5313,79.2656 615.7969,79.0313 Q616.0625,78.7969 616.6719,78.7969 L617.0938,78.7969 L616.6875,77.7656 Z M615.9688,76.0625 L614.6094,72.6875 L613.2344,76.0625 L615.9688,76.0625 Z "/><text fill="#000000" font-family="sans-serif" font-size="12" font-style="italic" lengthAdjust="spacingAndGlyphs" textLength="30" x="628.5" y="80.9102">Entity</text><rect fill="#FFFFFF" height="17.0938" style="stroke: #000000; stroke-width: 1.0; stroke-dasharray: 2.0,2.0;" width="95" x="666.5" y="57"/><text fill="#000000" font-family="sans-serif" font-size="12" font-style="italic" lengthAdjust="spacingAndGlyphs" textLength="93" x="667.5" y="70.457">I extends Identity</text><line style="stroke: #A80036; stroke-width: 1.5;" x1="600.5" x2="757.5" y1="92" y2="92"/><polygon fill="none" points="610.5,99.418,614.5,103.418,610.5,107.418,606.5,103.418" style="stroke: #B38D22; stroke-width: 1.0;"/><text fill="#000000" font-family="sans-serif" font-size="11" lengthAdjust="spacingAndGlyphs" textLength="121" x="619.5" y="107.4189">entityId: I extends Identity</text><line style="stroke: #A80036; stroke-width: 1.5;" x1="600.5" x2="757.5" y1="113.8359" y2="113.8359"/><!--class co.com.sofka.cargame.domain.juego.values.Pista--><rect fill="#FEFECE" filter="url(#f1qsb7mphzhy1p)" height="48" id="co.com.sofka.cargame.domain.juego.values.Pista" style="stroke: #A80036; stroke-width: 1.5;" width="60" x="111" y="537"/><ellipse cx="126" cy="553" fill="#ADD1B2" rx="11" ry="11" style="stroke: #A80036; stroke-width: 1.0;"/><path d="M128.7656,548.875 Q128.9219,548.6563 129.1094,548.5469 Q129.2969,548.4375 129.5156,548.4375 Q129.8906,548.4375 130.125,548.7031 Q130.3594,548.9531 130.3594,549.5625 L130.3594,551.0156 Q130.3594,551.625 130.125,551.8906 Q129.8906,552.1563 129.5156,552.1563 Q129.1719,552.1563 128.9688,551.9531 Q128.7656,551.7656 128.6563,551.25 Q128.6094,550.8906 128.4219,550.7031 Q128.0938,550.3281 127.4844,550.1094 Q126.875,549.8906 126.25,549.8906 Q125.4844,549.8906 124.8438,550.2188 Q124.2188,550.5469 123.7188,551.2969 Q123.2344,552.0469 123.2344,553.0781 L123.2344,554.1719 Q123.2344,555.4063 124.125,556.2344 Q125.0156,557.0469 126.6094,557.0469 Q127.5469,557.0469 128.2031,556.7969 Q128.5938,556.6406 129.0156,556.2031 Q129.2813,555.9375 129.4219,555.8594 Q129.5781,555.7813 129.7813,555.7813 Q130.1094,555.7813 130.3594,556.0469 Q130.625,556.2969 130.625,556.6406 Q130.625,556.9844 130.2813,557.3906 Q129.7813,557.9688 128.9844,558.2969 Q127.9063,558.75 126.6094,558.75 Q125.0938,558.75 123.8906,558.125 Q122.9063,557.625 122.2188,556.5625 Q121.5313,555.4844 121.5313,554.2031 L121.5313,553.0469 Q121.5313,551.7188 122.1406,550.5781 Q122.7656,549.4219 123.8594,548.8125 Q124.9531,548.1875 126.1875,548.1875 Q126.9219,548.1875 127.5625,548.3594 Q128.2188,548.5156 128.7656,548.875 Z "/><text fill="#000000" font-family="sans-serif" font-size="12" lengthAdjust="spacingAndGlyphs" textLength="28" x="140" y="557.9102">Pista</text><line style="stroke: #A80036; stroke-width: 1.5;" x1="112" x2="170" y1="569" y2="569"/><line style="stroke: #A80036; stroke-width: 1.5;" x1="112" x2="170" y1="577" y2="577"/><!--class co.com.sofka.cargame.domain.juego.values.Podio--><rect fill="#FEFECE" filter="url(#f1qsb7mphzhy1p)" height="48" id="co.com.sofka.cargame.domain.juego.values.Podio" style="stroke: #A80036; stroke-width: 1.5;" width="64" x="206" y="537"/><ellipse cx="221" cy="553" fill="#ADD1B2" rx="11" ry="11" style="stroke: #A80036; stroke-width: 1.0;"/><path d="M223.7656,548.875 Q223.9219,548.6563 224.1094,548.5469 Q224.2969,548.4375 224.5156,548.4375 Q224.8906,548.4375 225.125,548.7031 Q225.3594,548.9531 225.3594,549.5625 L225.3594,551.0156 Q225.3594,551.625 225.125,551.8906 Q224.8906,552.1563 224.5156,552.1563 Q224.1719,552.1563 223.9688,551.9531 Q223.7656,551.7656 223.6563,551.25 Q223.6094,550.8906 223.4219,550.7031 Q223.0938,550.3281 222.4844,550.1094 Q221.875,549.8906 221.25,549.8906 Q220.4844,549.8906 219.8438,550.2188 Q219.2188,550.5469 218.7188,551.2969 Q218.2344,552.0469 218.2344,553.0781 L218.2344,554.1719 Q218.2344,555.4063 219.125,556.2344 Q220.0156,557.0469 221.6094,557.0469 Q222.5469,557.0469 223.2031,556.7969 Q223.5938,556.6406 224.0156,556.2031 Q224.2813,555.9375 224.4219,555.8594 Q224.5781,555.7813 224.7813,555.7813 Q225.1094,555.7813 225.3594,556.0469 Q225.625,556.2969 225.625,556.6406 Q225.625,556.9844 225.2813,557.3906 Q224.7813,557.9688 223.9844,558.2969 Q222.9063,558.75 221.6094,558.75 Q220.0938,558.75 218.8906,558.125 Q217.9063,557.625 217.2188,556.5625 Q216.5313,555.4844 216.5313,554.2031 L216.5313,553.0469 Q216.5313,551.7188 217.1406,550.5781 Q217.7656,549.4219 218.8594,548.8125 Q219.9531,548.1875 221.1875,548.1875 Q221.9219,548.1875 222.5625,548.3594 Q223.2188,548.5156 223.7656,548.875 Z "/><text fill="#000000" font-family="sans-serif" font-size="12" lengthAdjust="spacingAndGlyphs" textLength="32" x="235" y="557.9102">Podio</text><line style="stroke: #A80036; stroke-width: 1.5;" x1="207" x2="269" y1="569" y2="569"/><line style="stroke: #A80036; stroke-width: 1.5;" x1="207" x2="269" y1="577" y2="577"/><!--link co.com.sofka.domain.generic.AggregateEvent to co.com.sofka.cargame.domain.juego.Juego--><path d="M156.45,134.81 C160.51,155.38 165.58,181.09 170.65,206.76 " fill="none" id="co.com.sofka.domain.generic.AggregateEvent-co.com.sofka.cargame.domain.juego.Juego" style="stroke: #A80036; stroke-width: 1.0;"/><polygon fill="none" points="149.57,136.09,152.56,115.12,163.3,133.38,149.57,136.09" style="stroke: #A80036; stroke-width: 1.0;"/><!--link co.com.sofka.cargame.domain.juego.Juego to co.com.sofka.cargame.domain.juego.values.Pista--><path d="M168.29,435.08 C160.47,470.91 152.48,507.46 147.19,531.69 " fill="none" id="co.com.sofka.cargame.domain.juego.Juego-co.com.sofka.cargame.domain.juego.values.Pista" style="stroke: #A80036; stroke-width: 1.0;"/><polygon fill="#A80036" points="146.1,536.66,151.9129,528.7095,147.1574,531.7731,144.0938,527.0176,146.1,536.66" style="stroke: #A80036; stroke-width: 1.0;"/><text fill="#000000" font-family="sans-serif" font-size="13" lengthAdjust="spacingAndGlyphs" textLength="28" x="162" y="481.4951">pista</text><!--link co.com.sofka.cargame.domain.juego.Juego to co.com.sofka.cargame.domain.juego.values.Podio--><path d="M214.38,435.08 C221.15,470.91 228.07,507.46 232.65,531.69 " fill="none" id="co.com.sofka.cargame.domain.juego.Juego-co.com.sofka.cargame.domain.juego.values.Podio" style="stroke: #A80036; stroke-width: 1.0;"/><polygon fill="#A80036" points="233.59,536.66,235.8494,527.0738,232.6617,531.7469,227.9885,528.5592,233.59,536.66" style="stroke: #A80036; stroke-width: 1.0;"/><text fill="#000000" font-family="sans-serif" font-size="13" lengthAdjust="spacingAndGlyphs" textLength="31" x="225" y="481.4951">podio</text><!--link co.com.sofka.domain.generic.EventChange to co.com.sofka.cargame.domain.juego.JuegoEventChange--><path d="M429,142.39 C429,187.59 429,252.41 429,289.96 " fill="none" id="co.com.sofka.domain.generic.EventChange-co.com.sofka.cargame.domain.juego.JuegoEventChange" style="stroke: #A80036; stroke-width: 1.0;"/><polygon fill="none" points="422,142.28,429,122.28,436,142.28,422,142.28" style="stroke: #A80036; stroke-width: 1.0;"/><!--link co.com.sofka.domain.generic.Entity to co.com.sofka.cargame.domain.juego.Jugador--><path d="M670.19,142.21 C663.56,180.01 654.51,231.61 647.86,269.49 " fill="none" id="co.com.sofka.domain.generic.Entity-co.com.sofka.cargame.domain.juego.Jugador" style="stroke: #A80036; stroke-width: 1.0;"/><polygon fill="none" points="663.34,140.77,673.69,122.28,677.13,143.19,663.34,140.77" style="stroke: #A80036; stroke-width: 1.0;"/><text fill="#888888" font-family="sans-serif" font-size="10" lengthAdjust="spacingAndGlyphs" textLength="190" x="309.5" y="637.3809">UMLDoclet 2.0.10, PlantUML 1.2019.08</text><!--
@startuml
    namespace co.com.sofka.cargame.domain.juego {

        class Juego [[Juego.html]] {
            #jugadores: Map<JugadorId, Jugador>
            #jugando: Boolean
            +Juego(JuegoId, Pista)
            {static} +from(JuegoId, List<DomainEvent>): Juego
            +crearJugador(JugadorId, Nombre, Color): void
            +asignarPrimerLugar(JugadorId): void
            +asignarSegundoLugar(JugadorId): void
            +asignarTercerLugar(JugadorId): void
            +iniciarJuego(): void
            +jugadores(): Map<JugadorId, Jugador>
            +pista(): Values
            +jugando(): Boolean
            +podio(): Props
        }

        class JuegoEventChange [[JuegoEventChange.html]] {
            +JuegoEventChange(Juego)
        }

        class Jugador [[Jugador.html]] {
            +Jugador(JugadorId, Nombre, Color)
            +nombre(): Nombre
            +color(): Color
            +asignarPuntos(Integer): void
        }

        co.com.sofka.domain.generic.AggregateEvent <|- - Juego
        Juego - -> co.com.sofka.cargame.domain.juego.values.Pista: pista
        Juego - -> co.com.sofka.cargame.domain.juego.values.Podio: podio
        co.com.sofka.domain.generic.EventChange <|- - JuegoEventChange
        co.com.sofka.domain.generic.Entity <|- - Jugador
    }

    namespace co.com.sofka.domain.generic {
        abstract class AggregateEvent<T extends Identity> {
        }
        abstract class EventChange {
            #behaviors: Set<Consumer<? super DomainEvent>>
        }
        abstract class Entity<I extends Identity> {
            #entityId: I extends Identity
        }
    }

    center footer UMLDoclet 2.0.10, PlantUML 1.2019.08
@enduml

PlantUML version 1.2019.08(Sat Jul 13 14:25:14 COT 2019)
(APACHE source distribution)
Java Runtime: Java(TM) SE Runtime Environment
JVM: Java HotSpot(TM) 64-Bit Server VM
Java Version: 11.0.11+9-LTS-194
Operating System: Windows 10
OS Version: 10.0
Default Encoding: Cp1252
Language: es
Country: CO
--></g></svg>