<?xml version="1.0" encoding="UTF-8" standalone="no"?><svg xmlns="http://www.w3.org/2000/svg" xmlns:xlink="http://www.w3.org/1999/xlink" contentScriptType="application/ecmascript" contentStyleType="text/css" height="394px" preserveAspectRatio="none" style="width:754px;height:394px;" version="1.1" viewBox="0 0 754 394" width="754px" zoomAndPan="magnify"><defs><filter height="300%" id="f1sgvc93bubsus" width="300%" x="-1" y="-1"><feGaussianBlur result="blurOut" stdDeviation="2.0"/><feColorMatrix in="blurOut" result="blurOut2" type="matrix" values="0 0 0 0 0 0 0 0 0 0 0 0 0 0 0 0 0 0 .4 0"/><feOffset dx="4.0" dy="4.0" in="blurOut2" result="blurOut3"/><feBlend in="SourceGraphic" in2="blurOut3" mode="normal"/></filter></defs><g><!--cluster co.com.sofka.cargame.domain.carro.events--><polygon fill="#FFFFFF" filter="url(#f1sgvc93bubsus)" points="22,190,333,190,340,213.6094,732,213.6094,732,345,22,345,22,190" style="stroke: #000000; stroke-width: 1.5;"/><line style="stroke: #000000; stroke-width: 1.5;" x1="22" x2="340" y1="213.6094" y2="213.6094"/><text fill="#000000" font-family="sans-serif" font-size="14" font-weight="bold" lengthAdjust="spacingAndGlyphs" textLength="305" x="26" y="206.5332">co.com.sofka.cargame.domain.carro.events</text><!--cluster co.com.sofka.domain.generic--><polygon fill="#FFFFFF" filter="url(#f1sgvc93bubsus)" points="174,24,385,24,392,47.6094,447,47.6094,447,166,174,166,174,24" style="stroke: #000000; stroke-width: 1.5;"/><line style="stroke: #000000; stroke-width: 1.5;" x1="174" x2="392" y1="47.6094" y2="47.6094"/><text fill="#000000" font-family="sans-serif" font-size="14" font-weight="bold" lengthAdjust="spacingAndGlyphs" textLength="205" x="178" y="40.5332">co.com.sofka.domain.generic</text><!--class co.com.sofka.cargame.domain.carro.events.CarroCreado--><a href="CarroCreado.html" target="_top" xlink:actuate="onRequest" xlink:show="new" xlink:title="CarroCreado.html" xlink:type="simple"><rect fill="#FEFECE" filter="url(#f1sgvc93bubsus)" height="103.3438" id="co.com.sofka.cargame.domain.carro.events.CarroCreado" style="stroke: #A80036; stroke-width: 1.5;" width="205" x="510.5" y="226"/><ellipse cx="572.75" cy="242" fill="#ADD1B2" rx="11" ry="11" style="stroke: #A80036; stroke-width: 1.0;"/><path d="M575.5156,237.875 Q575.6719,237.6563 575.8594,237.5469 Q576.0469,237.4375 576.2656,237.4375 Q576.6406,237.4375 576.875,237.7031 Q577.1094,237.9531 577.1094,238.5625 L577.1094,240.0156 Q577.1094,240.625 576.875,240.8906 Q576.6406,241.1563 576.2656,241.1563 Q575.9219,241.1563 575.7188,240.9531 Q575.5156,240.7656 575.4063,240.25 Q575.3594,239.8906 575.1719,239.7031 Q574.8438,239.3281 574.2344,239.1094 Q573.625,238.8906 573,238.8906 Q572.2344,238.8906 571.5938,239.2188 Q570.9688,239.5469 570.4688,240.2969 Q569.9844,241.0469 569.9844,242.0781 L569.9844,243.1719 Q569.9844,244.4063 570.875,245.2344 Q571.7656,246.0469 573.3594,246.0469 Q574.2969,246.0469 574.9531,245.7969 Q575.3438,245.6406 575.7656,245.2031 Q576.0313,244.9375 576.1719,244.8594 Q576.3281,244.7813 576.5313,244.7813 Q576.8594,244.7813 577.1094,245.0469 Q577.375,245.2969 577.375,245.6406 Q577.375,245.9844 577.0313,246.3906 Q576.5313,246.9688 575.7344,247.2969 Q574.6563,247.75 573.3594,247.75 Q571.8438,247.75 570.6406,247.125 Q569.6563,246.625 568.9688,245.5625 Q568.2813,244.4844 568.2813,243.2031 L568.2813,242.0469 Q568.2813,240.7188 568.8906,239.5781 Q569.5156,238.4219 570.6094,237.8125 Q571.7031,237.1875 572.9375,237.1875 Q573.6719,237.1875 574.3125,237.3594 Q574.9688,237.5156 575.5156,237.875 Z "/><text fill="#000000" font-family="sans-serif" font-size="12" lengthAdjust="spacingAndGlyphs" textLength="72" x="593.25" y="246.9102">CarroCreado</text><line style="stroke: #A80036; stroke-width: 1.5;" x1="511.5" x2="714.5" y1="258" y2="258"/><line style="stroke: #A80036; stroke-width: 1.5;" x1="511.5" x2="714.5" y1="266" y2="266"/><ellipse cx="521.5" cy="278.418" fill="#84BE84" rx="3" ry="3" style="stroke: #038048; stroke-width: 1.0;"/><text fill="#000000" font-family="sans-serif" font-size="11" lengthAdjust="spacingAndGlyphs" textLength="179" x="530.5" y="281.4189">CarroCreado(CarroId, JuegoId, Color)</text><ellipse cx="521.5" cy="292.2539" fill="#84BE84" rx="3" ry="3" style="stroke: #038048; stroke-width: 1.0;"/><text fill="#000000" font-family="sans-serif" font-size="11" lengthAdjust="spacingAndGlyphs" textLength="103" x="530.5" y="295.2549">getJuegoId(): JuegoId</text><ellipse cx="521.5" cy="306.0898" fill="#84BE84" rx="3" ry="3" style="stroke: #038048; stroke-width: 1.0;"/><text fill="#000000" font-family="sans-serif" font-size="11" lengthAdjust="spacingAndGlyphs" textLength="90" x="530.5" y="309.0908">getPlaca(): CarroId</text><ellipse cx="521.5" cy="319.9258" fill="#84BE84" rx="3" ry="3" style="stroke: #038048; stroke-width: 1.0;"/><text fill="#000000" font-family="sans-serif" font-size="11" lengthAdjust="spacingAndGlyphs" textLength="79" x="530.5" y="322.9268">getColor(): Color</text></a><!--class co.com.sofka.cargame.domain.carro.events.ConductorAsignado--><a href="ConductorAsignado.html" target="_top" xlink:actuate="onRequest" xlink:show="new" xlink:title="ConductorAsignado.html" xlink:type="simple"><rect fill="#FEFECE" filter="url(#f1sgvc93bubsus)" height="89.5078" id="co.com.sofka.cargame.domain.carro.events.ConductorAsignado" style="stroke: #A80036; stroke-width: 1.5;" width="197" x="278.5" y="232.5"/><ellipse cx="318.7" cy="248.5" fill="#ADD1B2" rx="11" ry="11" style="stroke: #A80036; stroke-width: 1.0;"/><path d="M321.4656,244.375 Q321.6219,244.1563 321.8094,244.0469 Q321.9969,243.9375 322.2156,243.9375 Q322.5906,243.9375 322.825,244.2031 Q323.0594,244.4531 323.0594,245.0625 L323.0594,246.5156 Q323.0594,247.125 322.825,247.3906 Q322.5906,247.6563 322.2156,247.6563 Q321.8719,247.6563 321.6688,247.4531 Q321.4656,247.2656 321.3563,246.75 Q321.3094,246.3906 321.1219,246.2031 Q320.7938,245.8281 320.1844,245.6094 Q319.575,245.3906 318.95,245.3906 Q318.1844,245.3906 317.5438,245.7188 Q316.9188,246.0469 316.4188,246.7969 Q315.9344,247.5469 315.9344,248.5781 L315.9344,249.6719 Q315.9344,250.9063 316.825,251.7344 Q317.7156,252.5469 319.3094,252.5469 Q320.2469,252.5469 320.9031,252.2969 Q321.2938,252.1406 321.7156,251.7031 Q321.9813,251.4375 322.1219,251.3594 Q322.2781,251.2813 322.4813,251.2813 Q322.8094,251.2813 323.0594,251.5469 Q323.325,251.7969 323.325,252.1406 Q323.325,252.4844 322.9813,252.8906 Q322.4813,253.4688 321.6844,253.7969 Q320.6063,254.25 319.3094,254.25 Q317.7938,254.25 316.5906,253.625 Q315.6063,253.125 314.9188,252.0625 Q314.2313,250.9844 314.2313,249.7031 L314.2313,248.5469 Q314.2313,247.2188 314.8406,246.0781 Q315.4656,244.9219 316.5594,244.3125 Q317.6531,243.6875 318.8875,243.6875 Q319.6219,243.6875 320.2625,243.8594 Q320.9188,244.0156 321.4656,244.375 Z "/><text fill="#000000" font-family="sans-serif" font-size="12" lengthAdjust="spacingAndGlyphs" textLength="109" x="338.3" y="253.4102">ConductorAsignado</text><line style="stroke: #A80036; stroke-width: 1.5;" x1="279.5" x2="474.5" y1="264.5" y2="264.5"/><line style="stroke: #A80036; stroke-width: 1.5;" x1="279.5" x2="474.5" y1="272.5" y2="272.5"/><ellipse cx="289.5" cy="284.918" fill="#84BE84" rx="3" ry="3" style="stroke: #038048; stroke-width: 1.0;"/><text fill="#000000" font-family="sans-serif" font-size="11" lengthAdjust="spacingAndGlyphs" textLength="171" x="298.5" y="287.9189">ConductorAsignado(String, Cedula)</text><ellipse cx="289.5" cy="298.7539" fill="#84BE84" rx="3" ry="3" style="stroke: #038048; stroke-width: 1.0;"/><text fill="#000000" font-family="sans-serif" font-size="11" lengthAdjust="spacingAndGlyphs" textLength="94" x="298.5" y="301.7549">getNombre(): String</text><ellipse cx="289.5" cy="312.5898" fill="#84BE84" rx="3" ry="3" style="stroke: #038048; stroke-width: 1.0;"/><text fill="#000000" font-family="sans-serif" font-size="11" lengthAdjust="spacingAndGlyphs" textLength="95" x="298.5" y="315.5908">getCedula(): Cedula</text></a><!--class co.com.sofka.cargame.domain.carro.events.KilometrajeCambiado--><a href="KilometrajeCambiado.html" target="_top" xlink:actuate="onRequest" xlink:show="new" xlink:title="KilometrajeCambiado.html" xlink:type="simple"><rect fill="#FEFECE" filter="url(#f1sgvc93bubsus)" height="89.5078" id="co.com.sofka.cargame.domain.carro.events.KilometrajeCambiado" style="stroke: #A80036; stroke-width: 1.5;" width="205" x="38.5" y="232.5"/><ellipse cx="76.9" cy="248.5" fill="#ADD1B2" rx="11" ry="11" style="stroke: #A80036; stroke-width: 1.0;"/><path d="M79.6656,244.375 Q79.8219,244.1563 80.0094,244.0469 Q80.1969,243.9375 80.4156,243.9375 Q80.7906,243.9375 81.025,244.2031 Q81.2594,244.4531 81.2594,245.0625 L81.2594,246.5156 Q81.2594,247.125 81.025,247.3906 Q80.7906,247.6563 80.4156,247.6563 Q80.0719,247.6563 79.8688,247.4531 Q79.6656,247.2656 79.5563,246.75 Q79.5094,246.3906 79.3219,246.2031 Q78.9938,245.8281 78.3844,245.6094 Q77.775,245.3906 77.15,245.3906 Q76.3844,245.3906 75.7438,245.7188 Q75.1188,246.0469 74.6188,246.7969 Q74.1344,247.5469 74.1344,248.5781 L74.1344,249.6719 Q74.1344,250.9063 75.025,251.7344 Q75.9156,252.5469 77.5094,252.5469 Q78.4469,252.5469 79.1031,252.2969 Q79.4938,252.1406 79.9156,251.7031 Q80.1813,251.4375 80.3219,251.3594 Q80.4781,251.2813 80.6813,251.2813 Q81.0094,251.2813 81.2594,251.5469 Q81.525,251.7969 81.525,252.1406 Q81.525,252.4844 81.1813,252.8906 Q80.6813,253.4688 79.8844,253.7969 Q78.8063,254.25 77.5094,254.25 Q75.9938,254.25 74.7906,253.625 Q73.8063,253.125 73.1188,252.0625 Q72.4313,250.9844 72.4313,249.7031 L72.4313,248.5469 Q72.4313,247.2188 73.0406,246.0781 Q73.6656,244.9219 74.7594,244.3125 Q75.8531,243.6875 77.0875,243.6875 Q77.8219,243.6875 78.4625,243.8594 Q79.1188,244.0156 79.6656,244.375 Z "/><text fill="#000000" font-family="sans-serif" font-size="12" lengthAdjust="spacingAndGlyphs" textLength="121" x="96.1" y="253.4102">KilometrajeCambiado</text><line style="stroke: #A80036; stroke-width: 1.5;" x1="39.5" x2="242.5" y1="264.5" y2="264.5"/><line style="stroke: #A80036; stroke-width: 1.5;" x1="39.5" x2="242.5" y1="272.5" y2="272.5"/><ellipse cx="49.5" cy="284.918" fill="#84BE84" rx="3" ry="3" style="stroke: #038048; stroke-width: 1.0;"/><text fill="#000000" font-family="sans-serif" font-size="11" lengthAdjust="spacingAndGlyphs" textLength="179" x="58.5" y="287.9189">KilometrajeCambiado(Integer, CarrilId)</text><ellipse cx="49.5" cy="298.7539" fill="#84BE84" rx="3" ry="3" style="stroke: #038048; stroke-width: 1.0;"/><text fill="#000000" font-family="sans-serif" font-size="11" lengthAdjust="spacingAndGlyphs" textLength="95" x="58.5" y="301.7549">getCarrilId(): CarrilId</text><ellipse cx="49.5" cy="312.5898" fill="#84BE84" rx="3" ry="3" style="stroke: #038048; stroke-width: 1.0;"/><text fill="#000000" font-family="sans-serif" font-size="11" lengthAdjust="spacingAndGlyphs" textLength="106" x="58.5" y="315.5908">getDistancia(): Integer</text></a><!--class co.com.sofka.domain.generic.DomainEvent--><rect fill="#FEFECE" filter="url(#f1sgvc93bubsus)" height="89.5078" id="co.com.sofka.domain.generic.DomainEvent" style="stroke: #A80036; stroke-width: 1.5;" width="107" x="323.5" y="60"/><ellipse cx="338.5" cy="76" fill="#A9DCDF" rx="11" ry="11" style="stroke: #A80036; stroke-width: 1.0;"/><path d="M340.6875,77.7656 L336.5469,77.7656 L336.125,78.7969 L336.5469,78.7969 Q337.1563,78.7969 337.4219,79.0313 Q337.6875,79.2656 337.6875,79.6563 Q337.6875,80.0313 337.4219,80.2656 Q337.1563,80.5 336.5469,80.5 L334.25,80.5 Q333.6406,80.5 333.3906,80.2656 Q333.125,80.0313 333.125,79.6406 Q333.125,79.2656 333.4063,79.0313 Q333.6719,78.7813 334.2969,78.7969 L336.9688,72.1406 L335.8594,72.1406 Q335.25,72.1406 334.9844,71.9063 Q334.7188,71.6719 334.7188,71.2813 Q334.7188,70.9063 334.9844,70.6719 Q335.25,70.4375 335.8594,70.4375 L339.5313,70.4375 L342.9219,78.7969 Q343.5156,78.7969 343.7031,78.9375 Q344.0938,79.2031 344.0938,79.6563 Q344.0938,80.0313 343.8281,80.2656 Q343.5781,80.5 342.9688,80.5 L340.6719,80.5 Q340.0625,80.5 339.7969,80.2656 Q339.5313,80.0313 339.5313,79.6406 Q339.5313,79.2656 339.7969,79.0313 Q340.0625,78.7969 340.6719,78.7969 L341.0938,78.7969 L340.6875,77.7656 Z M339.9688,76.0625 L338.6094,72.6875 L337.2344,76.0625 L339.9688,76.0625 Z "/><text fill="#000000" font-family="sans-serif" font-size="12" font-style="italic" lengthAdjust="spacingAndGlyphs" textLength="75" x="352.5" y="80.9102">DomainEvent</text><line style="stroke: #A80036; stroke-width: 1.5;" x1="324.5" x2="429.5" y1="92" y2="92"/><ellipse cx="334.5" cy="104.418" fill="none" rx="3" ry="3" style="stroke: #038048; stroke-width: 1.0;"/><text fill="#000000" font-family="sans-serif" font-size="11" lengthAdjust="spacingAndGlyphs" textLength="66" x="343.5" y="107.4189">when: Instant</text><ellipse cx="334.5" cy="118.2539" fill="none" rx="3" ry="3" style="stroke: #038048; stroke-width: 1.0;"/><text fill="#000000" font-family="sans-serif" font-size="11" lengthAdjust="spacingAndGlyphs" textLength="49" x="343.5" y="121.2549">uuid: UUID</text><ellipse cx="334.5" cy="132.0898" fill="none" rx="3" ry="3" style="stroke: #038048; stroke-width: 1.0;"/><text fill="#000000" font-family="sans-serif" font-size="11" lengthAdjust="spacingAndGlyphs" textLength="55" x="343.5" y="135.0908">type: String</text><line style="stroke: #A80036; stroke-width: 1.5;" x1="324.5" x2="429.5" y1="141.5078" y2="141.5078"/><!--class co.com.sofka.domain.generic.Incremental--><rect fill="#FEFECE" filter="url(#f1sgvc93bubsus)" height="48" id="co.com.sofka.domain.generic.Incremental" style="stroke: #A80036; stroke-width: 1.5;" width="98" x="190" y="81"/><ellipse cx="205" cy="97" fill="#B4A7E5" rx="11" ry="11" style="stroke: #A80036; stroke-width: 1.0;"/><path d="M205.9531,93.6406 L205.9531,100.2969 L207.6719,100.2969 Q208.2813,100.2969 208.5469,100.5313 Q208.8125,100.7656 208.8125,101.1563 Q208.8125,101.5313 208.5469,101.7656 Q208.2813,102 207.6719,102 L202.5313,102 Q201.9219,102 201.6563,101.7656 Q201.3906,101.5313 201.3906,101.1406 Q201.3906,100.7656 201.6563,100.5313 Q201.9219,100.2969 202.5313,100.2969 L204.25,100.2969 L204.25,93.6406 L202.5313,93.6406 Q201.9219,93.6406 201.6563,93.4063 Q201.3906,93.1719 201.3906,92.7813 Q201.3906,92.4063 201.6563,92.1719 Q201.9219,91.9375 202.5313,91.9375 L207.6719,91.9375 Q208.2813,91.9375 208.5469,92.1719 Q208.8125,92.4063 208.8125,92.7813 Q208.8125,93.1719 208.5469,93.4063 Q208.2813,93.6406 207.6719,93.6406 L205.9531,93.6406 Z "/><text fill="#000000" font-family="sans-serif" font-size="12" font-style="italic" lengthAdjust="spacingAndGlyphs" textLength="66" x="219" y="101.9102">Incremental</text><line style="stroke: #A80036; stroke-width: 1.5;" x1="191" x2="287" y1="113" y2="113"/><line style="stroke: #A80036; stroke-width: 1.5;" x1="191" x2="287" y1="121" y2="121"/><!--link co.com.sofka.domain.generic.DomainEvent to co.com.sofka.cargame.domain.carro.events.CarroCreado--><path d="M447.53,150.8 C462.7,160.83 478.51,171.58 493,182 C512.16,195.78 532.5,211.4 550.89,225.92 " fill="none" id="co.com.sofka.domain.generic.DomainEvent-co.com.sofka.cargame.domain.carro.events.CarroCreado" style="stroke: #A80036; stroke-width: 1.0;"/><polygon fill="none" points="443.69,156.66,430.79,139.85,451.35,144.94,443.69,156.66" style="stroke: #A80036; stroke-width: 1.0;"/><!--link co.com.sofka.domain.generic.DomainEvent to co.com.sofka.cargame.domain.carro.events.ConductorAsignado--><path d="M377,170.6 C377,191.22 377,213.55 377,232.37 " fill="none" id="co.com.sofka.domain.generic.DomainEvent-co.com.sofka.cargame.domain.carro.events.ConductorAsignado" style="stroke: #A80036; stroke-width: 1.0;"/><polygon fill="none" points="370,170.35,377,150.35,384,170.35,370,170.35" style="stroke: #A80036; stroke-width: 1.0;"/><!--link co.com.sofka.domain.generic.Incremental to co.com.sofka.cargame.domain.carro.events.ConductorAsignado--><path d="M270.66,145.12 C291.73,171.15 319.46,205.41 341.32,232.41 " fill="none" id="co.com.sofka.domain.generic.Incremental-co.com.sofka.cargame.domain.carro.events.ConductorAsignado" style="stroke: #A80036; stroke-width: 1.0; stroke-dasharray: 7.0,7.0;"/><polygon fill="none" points="265.04,149.3,257.9,129.35,275.92,140.49,265.04,149.3" style="stroke: #A80036; stroke-width: 1.0;"/><!--link co.com.sofka.domain.generic.DomainEvent to co.com.sofka.cargame.domain.carro.events.KilometrajeCambiado--><path d="M323.49,163.06 C317.89,167.2 312.03,170.94 306,174 C287.89,183.2 279.54,173.69 261,182 C233.66,194.26 207.07,214.11 185.9,232.46 " fill="none" id="co.com.sofka.domain.generic.DomainEvent-co.com.sofka.cargame.domain.carro.events.KilometrajeCambiado" style="stroke: #A80036; stroke-width: 1.0;"/><polygon fill="none" points="319.13,157.59,338.97,150.17,328.09,168.34,319.13,157.59" style="stroke: #A80036; stroke-width: 1.0;"/><!--link co.com.sofka.domain.generic.Incremental to co.com.sofka.cargame.domain.carro.events.KilometrajeCambiado--><path d="M215.44,146.99 C200.62,172.78 181.49,206.05 166.34,232.41 " fill="none" id="co.com.sofka.domain.generic.Incremental-co.com.sofka.cargame.domain.carro.events.KilometrajeCambiado" style="stroke: #A80036; stroke-width: 1.0; stroke-dasharray: 7.0,7.0;"/><polygon fill="none" points="209.54,143.2,225.58,129.35,221.68,150.18,209.54,143.2" style="stroke: #A80036; stroke-width: 1.0;"/><text fill="#888888" font-family="sans-serif" font-size="10" lengthAdjust="spacingAndGlyphs" textLength="190" x="288" y="381.3809">UMLDoclet 2.0.10, PlantUML 1.2019.08</text><!--
@startuml
    namespace co.com.sofka.cargame.domain.carro.events {

        class CarroCreado [[CarroCreado.html]] {
            +CarroCreado(CarroId, JuegoId, Color)
            +getJuegoId(): JuegoId
            +getPlaca(): CarroId
            +getColor(): Color
        }

        class ConductorAsignado [[ConductorAsignado.html]] {
            +ConductorAsignado(String, Cedula)
            +getNombre(): String
            +getCedula(): Cedula
        }

        class KilometrajeCambiado [[KilometrajeCambiado.html]] {
            +KilometrajeCambiado(Integer, CarrilId)
            +getCarrilId(): CarrilId
            +getDistancia(): Integer
        }

        co.com.sofka.domain.generic.DomainEvent <|- - CarroCreado
        co.com.sofka.domain.generic.DomainEvent <|- - ConductorAsignado
        co.com.sofka.domain.generic.Incremental <|.. ConductorAsignado
        co.com.sofka.domain.generic.DomainEvent <|- - KilometrajeCambiado
        co.com.sofka.domain.generic.Incremental <|.. KilometrajeCambiado
    }

    namespace co.com.sofka.domain.generic {
        abstract class DomainEvent {
            +when: Instant
            +uuid: UUID
            +type: String
        }
        interface Incremental
    }

    center footer UMLDoclet 2.0.10, PlantUML 1.2019.08
@enduml

PlantUML version 1.2019.08(Sat Jul 13 14:25:14 COT 2019)
(APACHE source distribution)
Java Runtime: Java(TM) SE Runtime Environment
JVM: Java HotSpot(TM) 64-Bit Server VM
Java Version: 11.0.11+9-LTS-194
Operating System: Windows 10
OS Version: 10.0
Default Encoding: Cp1252
Language: es
Country: CO
--></g></svg>