<?xml version="1.0" encoding="UTF-8" standalone="no"?><svg xmlns="http://www.w3.org/2000/svg" xmlns:xlink="http://www.w3.org/1999/xlink" contentScriptType="application/ecmascript" contentStyleType="text/css" height="339px" preserveAspectRatio="none" style="width:363px;height:339px;" version="1.1" viewBox="0 0 363 339" width="363px" zoomAndPan="magnify"><defs><filter height="300%" id="flplliq167vn4" width="300%" x="-1" y="-1"><feGaussianBlur result="blurOut" stdDeviation="2.0"/><feColorMatrix in="blurOut" result="blurOut2" type="matrix" values="0 0 0 0 0 0 0 0 0 0 0 0 0 0 0 0 0 0 .4 0"/><feOffset dx="4.0" dy="4.0" in="blurOut2" result="blurOut3"/><feBlend in="SourceGraphic" in2="blurOut3" mode="normal"/></filter></defs><g><!--class co.com.sofka.cargame.infra.services.CarrilCarroQueryService--><a href="CarrilCarroQueryService.html" target="_top" xlink:actuate="onRequest" xlink:show="new" xlink:title="CarrilCarroQueryService.html" xlink:type="simple"><rect fill="#FEFECE" filter="url(#flplliq167vn4)" height="75.8594" id="co.com.sofka.cargame.infra.services.CarrilCarroQueryService" style="stroke: #A80036; stroke-width: 1.5;" width="301" x="28.5" y="130"/><ellipse cx="89.25" cy="150.0938" fill="#ADD1B2" rx="11" ry="11" style="stroke: #A80036; stroke-width: 1.0;"/><path d="M92.0156,145.9688 Q92.1719,145.75 92.3594,145.6406 Q92.5469,145.5313 92.7656,145.5313 Q93.1406,145.5313 93.375,145.7969 Q93.6094,146.0469 93.6094,146.6563 L93.6094,148.1094 Q93.6094,148.7188 93.375,148.9844 Q93.1406,149.25 92.7656,149.25 Q92.4219,149.25 92.2188,149.0469 Q92.0156,148.8594 91.9063,148.3438 Q91.8594,147.9844 91.6719,147.7969 Q91.3438,147.4219 90.7344,147.2031 Q90.125,146.9844 89.5,146.9844 Q88.7344,146.9844 88.0938,147.3125 Q87.4688,147.6406 86.9688,148.3906 Q86.4844,149.1406 86.4844,150.1719 L86.4844,151.2656 Q86.4844,152.5 87.375,153.3281 Q88.2656,154.1406 89.8594,154.1406 Q90.7969,154.1406 91.4531,153.8906 Q91.8438,153.7344 92.2656,153.2969 Q92.5313,153.0313 92.6719,152.9531 Q92.8281,152.875 93.0313,152.875 Q93.3594,152.875 93.6094,153.1406 Q93.875,153.3906 93.875,153.7344 Q93.875,154.0781 93.5313,154.4844 Q93.0313,155.0625 92.2344,155.3906 Q91.1563,155.8438 89.8594,155.8438 Q88.3438,155.8438 87.1406,155.2188 Q86.1563,154.7188 85.4688,153.6563 Q84.7813,152.5781 84.7813,151.2969 L84.7813,150.1406 Q84.7813,148.8125 85.3906,147.6719 Q86.0156,146.5156 87.1094,145.9063 Q88.2031,145.2813 89.4375,145.2813 Q90.1719,145.2813 90.8125,145.4531 Q91.4688,145.6094 92.0156,145.9688 Z "/><text fill="#000000" font-family="sans-serif" font-size="14" lengthAdjust="spacingAndGlyphs" textLength="156" x="117.25" y="149.5332">CarrilCarroQueryService</text><text fill="#000000" font-family="sans-serif" font-size="10" lengthAdjust="spacingAndGlyphs" textLength="171" x="109.75" y="162.9902">co.com.sofka.cargame.infra.services</text><line style="stroke: #A80036; stroke-width: 1.5;" x1="29.5" x2="328.5" y1="170.1875" y2="170.1875"/><ellipse cx="39.5" cy="182.6055" fill="#84BE84" rx="3" ry="3" style="stroke: #038048; stroke-width: 1.0;"/><text fill="#000000" font-family="sans-serif" font-size="11" lengthAdjust="spacingAndGlyphs" textLength="202" x="48.5" y="185.6064">CarrilCarroQueryService(MongoTemplate)</text><ellipse cx="39.5" cy="196.4414" fill="#84BE84" rx="3" ry="3" style="stroke: #038048; stroke-width: 1.0;"/><text fill="#000000" font-family="sans-serif" font-size="11" lengthAdjust="spacingAndGlyphs" textLength="275" x="48.5" y="199.4424">getCarrosSobreCarriles(JuegoId): List&lt;CarroSobreCarril&gt;</text></a><!--class co.com.sofka.cargame.usecase.services.CarrilCarroService--><a href="../../usecase/services/CarrilCarroService.html" target="_top" xlink:actuate="onRequest" xlink:show="new" xlink:title="../../usecase/services/CarrilCarroService.html" xlink:type="simple"><rect fill="#FEFECE" filter="url(#flplliq167vn4)" height="62.0234" id="co.com.sofka.cargame.usecase.services.CarrilCarroService" style="stroke: #A80036; stroke-width: 1.5;" width="314" x="22" y="8"/><ellipse cx="82.25" cy="28.0938" fill="#B4A7E5" rx="11" ry="11" style="stroke: #A80036; stroke-width: 1.0;"/><path d="M83.2031,24.7344 L83.2031,31.3906 L84.9219,31.3906 Q85.5313,31.3906 85.7969,31.625 Q86.0625,31.8594 86.0625,32.25 Q86.0625,32.625 85.7969,32.8594 Q85.5313,33.0938 84.9219,33.0938 L79.7813,33.0938 Q79.1719,33.0938 78.9063,32.8594 Q78.6406,32.625 78.6406,32.2344 Q78.6406,31.8594 78.9063,31.625 Q79.1719,31.3906 79.7813,31.3906 L81.5,31.3906 L81.5,24.7344 L79.7813,24.7344 Q79.1719,24.7344 78.9063,24.5 Q78.6406,24.2656 78.6406,23.875 Q78.6406,23.5 78.9063,23.2656 Q79.1719,23.0313 79.7813,23.0313 L84.9219,23.0313 Q85.5313,23.0313 85.7969,23.2656 Q86.0625,23.5 86.0625,23.875 Q86.0625,24.2656 85.7969,24.5 Q85.5313,24.7344 84.9219,24.7344 L83.2031,24.7344 Z "/><text fill="#000000" font-family="sans-serif" font-size="14" font-style="italic" lengthAdjust="spacingAndGlyphs" textLength="116" x="137.25" y="27.5332">CarrilCarroService</text><text fill="#000000" font-family="sans-serif" font-size="10" font-style="italic" lengthAdjust="spacingAndGlyphs" textLength="185" x="102.75" y="40.9902">co.com.sofka.cargame.usecase.services</text><line style="stroke: #A80036; stroke-width: 1.5;" x1="23" x2="335" y1="48.1875" y2="48.1875"/><ellipse cx="33" cy="60.6055" fill="#84BE84" rx="3" ry="3" style="stroke: #038048; stroke-width: 1.0;"/><text fill="#000000" font-family="sans-serif" font-size="11" font-style="italic" lengthAdjust="spacingAndGlyphs" textLength="288" x="42" y="63.6064">getCarrosSobreCarriles(JuegoId): List&lt;CarroSobreCarril&gt;</text></a><!--class co.com.sofka.cargame.infra.services.CarrilCarroQueryService.CarroSobreCarrilRecord--><a href="CarrilCarroQueryService.CarroSobreCarrilRecord.html" target="_top" xlink:actuate="onRequest" xlink:show="new" xlink:title="CarrilCarroQueryService.CarroSobreCarrilRecord.html" xlink:type="simple"><rect fill="#FEFECE" filter="url(#flplliq167vn4)" height="40.1875" id="co.com.sofka.cargame.infra.services.CarrilCarroQueryService.CarroSobreCarrilRecord" style="stroke: #A80036; stroke-width: 1.5;" width="346" x="6" y="266"/><ellipse cx="21" cy="286.0938" fill="#ADD1B2" rx="11" ry="11" style="stroke: #A80036; stroke-width: 1.0;"/><path d="M23.7656,281.9688 Q23.9219,281.75 24.1094,281.6406 Q24.2969,281.5313 24.5156,281.5313 Q24.8906,281.5313 25.125,281.7969 Q25.3594,282.0469 25.3594,282.6563 L25.3594,284.1094 Q25.3594,284.7188 25.125,284.9844 Q24.8906,285.25 24.5156,285.25 Q24.1719,285.25 23.9688,285.0469 Q23.7656,284.8594 23.6563,284.3438 Q23.6094,283.9844 23.4219,283.7969 Q23.0938,283.4219 22.4844,283.2031 Q21.875,282.9844 21.25,282.9844 Q20.4844,282.9844 19.8438,283.3125 Q19.2188,283.6406 18.7188,284.3906 Q18.2344,285.1406 18.2344,286.1719 L18.2344,287.2656 Q18.2344,288.5 19.125,289.3281 Q20.0156,290.1406 21.6094,290.1406 Q22.5469,290.1406 23.2031,289.8906 Q23.5938,289.7344 24.0156,289.2969 Q24.2813,289.0313 24.4219,288.9531 Q24.5781,288.875 24.7813,288.875 Q25.1094,288.875 25.3594,289.1406 Q25.625,289.3906 25.625,289.7344 Q25.625,290.0781 25.2813,290.4844 Q24.7813,291.0625 23.9844,291.3906 Q22.9063,291.8438 21.6094,291.8438 Q20.0938,291.8438 18.8906,291.2188 Q17.9063,290.7188 17.2188,289.6563 Q16.5313,288.5781 16.5313,287.2969 L16.5313,286.1406 Q16.5313,284.8125 17.1406,283.6719 Q17.7656,282.5156 18.8594,281.9063 Q19.9531,281.2813 21.1875,281.2813 Q21.9219,281.2813 22.5625,281.4531 Q23.2188,281.6094 23.7656,281.9688 Z "/><text fill="#000000" font-family="sans-serif" font-size="14" lengthAdjust="spacingAndGlyphs" textLength="314" x="35" y="285.5332">CarrilCarroQueryService.CarroSobreCarrilRecord</text><text fill="#000000" font-family="sans-serif" font-size="10" lengthAdjust="spacingAndGlyphs" textLength="171" x="106.5" y="298.9902">co.com.sofka.cargame.infra.services</text></a><!--link co.com.sofka.cargame.usecase.services.CarrilCarroService to co.com.sofka.cargame.infra.services.CarrilCarroQueryService--><path d="M179,90.43 C179,103.59 179,117.53 179,129.86 " fill="none" id="co.com.sofka.cargame.usecase.services.CarrilCarroService-co.com.sofka.cargame.infra.services.CarrilCarroQueryService" style="stroke: #A80036; stroke-width: 1.0; stroke-dasharray: 7.0,7.0;"/><polygon fill="none" points="172,90.1,179,70.1,186,90.1,172,90.1" style="stroke: #A80036; stroke-width: 1.0;"/><!--link co.com.sofka.cargame.infra.services.CarrilCarroQueryService to co.com.sofka.cargame.infra.services.CarrilCarroQueryService.CarroSobreCarrilRecord--><path d="M179,221.48 C179,237.29 179,253.66 179,265.82 " fill="none" id="co.com.sofka.cargame.infra.services.CarrilCarroQueryService-co.com.sofka.cargame.infra.services.CarrilCarroQueryService.CarroSobreCarrilRecord" style="stroke: #A80036; stroke-width: 1.0;"/><ellipse cx="179" cy="214.02" fill="#FFFFFF" rx="8" ry="8" style="stroke: #A80036; stroke-width: 1.0;"/><line style="stroke: #A80036; stroke-width: 1.0;" x1="179" x2="179" y1="222.02" y2="206.02"/><line style="stroke: #A80036; stroke-width: 1.0;" x1="171" x2="187" y1="214.02" y2="214.02"/><text fill="#888888" font-family="sans-serif" font-size="10" lengthAdjust="spacingAndGlyphs" textLength="190" x="90" y="326.3809">UMLDoclet 2.0.10, PlantUML 1.2019.08</text><!--
@startuml
    set namespaceSeparator none
    hide empty fields
    hide empty methods

    class "<size:14>CarrilCarroQueryService\n<size:10>co.com.sofka.cargame.infra.services" as co.com.sofka.cargame.infra.services.CarrilCarroQueryService [[CarrilCarroQueryService.html]] {
        +CarrilCarroQueryService(MongoTemplate)
        +getCarrosSobreCarriles(JuegoId): List<CarroSobreCarril>
    }

    interface "<size:14>CarrilCarroService\n<size:10>co.com.sofka.cargame.usecase.services" as co.com.sofka.cargame.usecase.services.CarrilCarroService [[../../usecase/services/CarrilCarroService.html]] {
        {abstract} +getCarrosSobreCarriles(JuegoId): List<CarroSobreCarril>
    }
    class "<size:14>CarrilCarroQueryService.CarroSobreCarrilRecord\n<size:10>co.com.sofka.cargame.infra.services" as co.com.sofka.cargame.infra.services.CarrilCarroQueryService.CarroSobreCarrilRecord [[CarrilCarroQueryService.CarroSobreCarrilRecord.html]]

    co.com.sofka.cargame.usecase.services.CarrilCarroService <|.. co.com.sofka.cargame.infra.services.CarrilCarroQueryService
    co.com.sofka.cargame.infra.services.CarrilCarroQueryService +- - co.com.sofka.cargame.infra.services.CarrilCarroQueryService.CarroSobreCarrilRecord

    center footer UMLDoclet 2.0.10, PlantUML 1.2019.08
@enduml

PlantUML version 1.2019.08(Sat Jul 13 14:25:14 COT 2019)
(APACHE source distribution)
Java Runtime: Java(TM) SE Runtime Environment
JVM: Java HotSpot(TM) 64-Bit Server VM
Java Version: 11.0.11+9-LTS-194
Operating System: Windows 10
OS Version: 10.0
Default Encoding: Cp1252
Language: es
Country: CO
--></g></svg>