<?xml version="1.0" encoding="UTF-8" standalone="no"?><svg xmlns="http://www.w3.org/2000/svg" xmlns:xlink="http://www.w3.org/1999/xlink" contentScriptType="application/ecmascript" contentStyleType="text/css" height="217px" preserveAspectRatio="none" style="width:567px;height:217px;" version="1.1" viewBox="0 0 567 217" width="567px" zoomAndPan="magnify"><defs><filter height="300%" id="fkpm6b3cox95a" width="300%" x="-1" y="-1"><feGaussianBlur result="blurOut" stdDeviation="2.0"/><feColorMatrix in="blurOut" result="blurOut2" type="matrix" values="0 0 0 0 0 0 0 0 0 0 0 0 0 0 0 0 0 0 .4 0"/><feOffset dx="4.0" dy="4.0" in="blurOut2" result="blurOut3"/><feBlend in="SourceGraphic" in2="blurOut3" mode="normal"/></filter></defs><g><!--class co.com.sofka.cargame.infra.services.CarrilCarroQueryService.CarroSobreCarrilRecord.CarroAgregadoACarrail.CarroId--><a href="CarrilCarroQueryService.CarroSobreCarrilRecord.CarroAgregadoACarrail.CarroId.html" target="_top" xlink:actuate="onRequest" xlink:show="new" xlink:title="CarrilCarroQueryService.CarroSobreCarrilRecord.CarroAgregadoACarrail.CarroId.html" xlink:type="simple"><rect fill="#FEFECE" filter="url(#fkpm6b3cox95a)" height="75.8594" id="co.com.sofka.cargame.infra.services.CarrilCarroQueryService.CarroSobreCarrilRecord.CarroAgregadoACarrail.CarroId" style="stroke: #A80036; stroke-width: 1.5;" width="550" x="6" y="108"/><ellipse cx="21" cy="128.0938" fill="#ADD1B2" rx="11" ry="11" style="stroke: #A80036; stroke-width: 1.0;"/><path d="M23.7656,123.9688 Q23.9219,123.75 24.1094,123.6406 Q24.2969,123.5313 24.5156,123.5313 Q24.8906,123.5313 25.125,123.7969 Q25.3594,124.0469 25.3594,124.6563 L25.3594,126.1094 Q25.3594,126.7188 25.125,126.9844 Q24.8906,127.25 24.5156,127.25 Q24.1719,127.25 23.9688,127.0469 Q23.7656,126.8594 23.6563,126.3438 Q23.6094,125.9844 23.4219,125.7969 Q23.0938,125.4219 22.4844,125.2031 Q21.875,124.9844 21.25,124.9844 Q20.4844,124.9844 19.8438,125.3125 Q19.2188,125.6406 18.7188,126.3906 Q18.2344,127.1406 18.2344,128.1719 L18.2344,129.2656 Q18.2344,130.5 19.125,131.3281 Q20.0156,132.1406 21.6094,132.1406 Q22.5469,132.1406 23.2031,131.8906 Q23.5938,131.7344 24.0156,131.2969 Q24.2813,131.0313 24.4219,130.9531 Q24.5781,130.875 24.7813,130.875 Q25.1094,130.875 25.3594,131.1406 Q25.625,131.3906 25.625,131.7344 Q25.625,132.0781 25.2813,132.4844 Q24.7813,133.0625 23.9844,133.3906 Q22.9063,133.8438 21.6094,133.8438 Q20.0938,133.8438 18.8906,133.2188 Q17.9063,132.7188 17.2188,131.6563 Q16.5313,130.5781 16.5313,129.2969 L16.5313,128.1406 Q16.5313,126.8125 17.1406,125.6719 Q17.7656,124.5156 18.8594,123.9063 Q19.9531,123.2813 21.1875,123.2813 Q21.9219,123.2813 22.5625,123.4531 Q23.2188,123.6094 23.7656,123.9688 Z "/><text fill="#000000" font-family="sans-serif" font-size="14" lengthAdjust="spacingAndGlyphs" textLength="518" x="35" y="127.5332">CarrilCarroQueryService.CarroSobreCarrilRecord.CarroAgregadoACarrail.CarroId</text><text fill="#000000" font-family="sans-serif" font-size="10" lengthAdjust="spacingAndGlyphs" textLength="171" x="208.5" y="140.9902">co.com.sofka.cargame.infra.services</text><line style="stroke: #A80036; stroke-width: 1.5;" x1="7" x2="555" y1="148.1875" y2="148.1875"/><ellipse cx="17" cy="160.6055" fill="#84BE84" rx="3" ry="3" style="stroke: #038048; stroke-width: 1.0;"/><text fill="#000000" font-family="sans-serif" font-size="11" lengthAdjust="spacingAndGlyphs" textLength="78" x="26" y="163.6064">getUuid(): String</text><ellipse cx="17" cy="174.4414" fill="#84BE84" rx="3" ry="3" style="stroke: #038048; stroke-width: 1.0;"/><text fill="#000000" font-family="sans-serif" font-size="11" lengthAdjust="spacingAndGlyphs" textLength="98" x="26" y="177.4424">setUuid(String): void</text></a><!--class co.com.sofka.cargame.infra.services.CarrilCarroQueryService.CarroSobreCarrilRecord.CarroAgregadoACarrail--><a href="CarrilCarroQueryService.CarroSobreCarrilRecord.CarroAgregadoACarrail.html" target="_top" xlink:actuate="onRequest" xlink:show="new" xlink:title="CarrilCarroQueryService.CarroSobreCarrilRecord.CarroAgregadoACarrail.html" xlink:type="simple"><rect fill="#FEFECE" filter="url(#fkpm6b3cox95a)" height="40.1875" id="co.com.sofka.cargame.infra.services.CarrilCarroQueryService.CarroSobreCarrilRecord.CarroAgregadoACarrail" style="stroke: #A80036; stroke-width: 1.5;" width="499" x="31.5" y="8"/><ellipse cx="46.5" cy="28.0938" fill="#ADD1B2" rx="11" ry="11" style="stroke: #A80036; stroke-width: 1.0;"/><path d="M49.2656,23.9688 Q49.4219,23.75 49.6094,23.6406 Q49.7969,23.5313 50.0156,23.5313 Q50.3906,23.5313 50.625,23.7969 Q50.8594,24.0469 50.8594,24.6563 L50.8594,26.1094 Q50.8594,26.7188 50.625,26.9844 Q50.3906,27.25 50.0156,27.25 Q49.6719,27.25 49.4688,27.0469 Q49.2656,26.8594 49.1563,26.3438 Q49.1094,25.9844 48.9219,25.7969 Q48.5938,25.4219 47.9844,25.2031 Q47.375,24.9844 46.75,24.9844 Q45.9844,24.9844 45.3438,25.3125 Q44.7188,25.6406 44.2188,26.3906 Q43.7344,27.1406 43.7344,28.1719 L43.7344,29.2656 Q43.7344,30.5 44.625,31.3281 Q45.5156,32.1406 47.1094,32.1406 Q48.0469,32.1406 48.7031,31.8906 Q49.0938,31.7344 49.5156,31.2969 Q49.7813,31.0313 49.9219,30.9531 Q50.0781,30.875 50.2813,30.875 Q50.6094,30.875 50.8594,31.1406 Q51.125,31.3906 51.125,31.7344 Q51.125,32.0781 50.7813,32.4844 Q50.2813,33.0625 49.4844,33.3906 Q48.4063,33.8438 47.1094,33.8438 Q45.5938,33.8438 44.3906,33.2188 Q43.4063,32.7188 42.7188,31.6563 Q42.0313,30.5781 42.0313,29.2969 L42.0313,28.1406 Q42.0313,26.8125 42.6406,25.6719 Q43.2656,24.5156 44.3594,23.9063 Q45.4531,23.2813 46.6875,23.2813 Q47.4219,23.2813 48.0625,23.4531 Q48.7188,23.6094 49.2656,23.9688 Z "/><text fill="#000000" font-family="sans-serif" font-size="14" lengthAdjust="spacingAndGlyphs" textLength="467" x="60.5" y="27.5332">CarrilCarroQueryService.CarroSobreCarrilRecord.CarroAgregadoACarrail</text><text fill="#000000" font-family="sans-serif" font-size="10" lengthAdjust="spacingAndGlyphs" textLength="171" x="208.5" y="40.9902">co.com.sofka.cargame.infra.services</text></a><!--link co.com.sofka.cargame.infra.services.CarrilCarroQueryService.CarroSobreCarrilRecord.CarroAgregadoACarrail to co.com.sofka.cargame.infra.services.CarrilCarroQueryService.CarroSobreCarrilRecord.CarroAgregadoACarrail.CarroId--><path d="M281,63.37 C281,77.41 281,93.68 281,107.99 " fill="none" id="co.com.sofka.cargame.infra.services.CarrilCarroQueryService.CarroSobreCarrilRecord.CarroAgregadoACarrail-co.com.sofka.cargame.infra.services.CarrilCarroQueryService.CarroSobreCarrilRecord.CarroAgregadoACarrail.CarroId" style="stroke: #A80036; stroke-width: 1.0;"/><ellipse cx="281" cy="56.16" fill="#FFFFFF" rx="8" ry="8" style="stroke: #A80036; stroke-width: 1.0;"/><line style="stroke: #A80036; stroke-width: 1.0;" x1="281" x2="281" y1="64.16" y2="48.16"/><line style="stroke: #A80036; stroke-width: 1.0;" x1="273" x2="289" y1="56.16" y2="56.16"/><text fill="#888888" font-family="sans-serif" font-size="10" lengthAdjust="spacingAndGlyphs" textLength="190" x="192" y="204.3809">UMLDoclet 2.0.10, PlantUML 1.2019.08</text><!--
@startuml
    set namespaceSeparator none
    hide empty fields
    hide empty methods

    class "<size:14>CarrilCarroQueryService.CarroSobreCarrilRecord.CarroAgregadoACarrail.CarroId\n<size:10>co.com.sofka.cargame.infra.services" as co.com.sofka.cargame.infra.services.CarrilCarroQueryService.CarroSobreCarrilRecord.CarroAgregadoACarrail.CarroId [[CarrilCarroQueryService.CarroSobreCarrilRecord.CarroAgregadoACarrail.CarroId.html]] {
        +getUuid(): String
        +setUuid(String): void
    }

    class "<size:14>CarrilCarroQueryService.CarroSobreCarrilRecord.CarroAgregadoACarrail\n<size:10>co.com.sofka.cargame.infra.services" as co.com.sofka.cargame.infra.services.CarrilCarroQueryService.CarroSobreCarrilRecord.CarroAgregadoACarrail [[CarrilCarroQueryService.CarroSobreCarrilRecord.CarroAgregadoACarrail.html]]

    co.com.sofka.cargame.infra.services.CarrilCarroQueryService.CarroSobreCarrilRecord.CarroAgregadoACarrail +- - co.com.sofka.cargame.infra.services.CarrilCarroQueryService.CarroSobreCarrilRecord.CarroAgregadoACarrail.CarroId

    center footer UMLDoclet 2.0.10, PlantUML 1.2019.08
@enduml

PlantUML version 1.2019.08(Sat Jul 13 14:25:14 COT 2019)
(APACHE source distribution)
Java Runtime: Java(TM) SE Runtime Environment
JVM: Java HotSpot(TM) 64-Bit Server VM
Java Version: 11.0.11+9-LTS-194
Operating System: Windows 10
OS Version: 10.0
Default Encoding: Cp1252
Language: es
Country: CO
--></g></svg>