<?xml version="1.0" encoding="UTF-8" standalone="no"?><svg xmlns="http://www.w3.org/2000/svg" xmlns:xlink="http://www.w3.org/1999/xlink" contentScriptType="application/ecmascript" contentStyleType="text/css" height="317px" preserveAspectRatio="none" style="width:567px;height:317px;" version="1.1" viewBox="0 0 567 317" width="567px" zoomAndPan="magnify"><defs><filter height="300%" id="f6rc2oc8zpwdj" width="300%" x="-1" y="-1"><feGaussianBlur result="blurOut" stdDeviation="2.0"/><feColorMatrix in="blurOut" result="blurOut2" type="matrix" values="0 0 0 0 0 0 0 0 0 0 0 0 0 0 0 0 0 0 .4 0"/><feOffset dx="4.0" dy="4.0" in="blurOut2" result="blurOut3"/><feBlend in="SourceGraphic" in2="blurOut3" mode="normal"/></filter></defs><g><!--class co.com.sofka.cargame.infra.services.CarrilCarroQueryService.CarroSobreCarrilRecord.CarroAgregadoACarrail--><a href="CarrilCarroQueryService.CarroSobreCarrilRecord.CarroAgregadoACarrail.html" target="_top" xlink:actuate="onRequest" xlink:show="new" xlink:title="CarrilCarroQueryService.CarroSobreCarrilRecord.CarroAgregadoACarrail.html" xlink:type="simple"><rect fill="#FEFECE" filter="url(#f6rc2oc8zpwdj)" height="75.8594" id="co.com.sofka.cargame.infra.services.CarrilCarroQueryService.CarroSobreCarrilRecord.CarroAgregadoACarrail" style="stroke: #A80036; stroke-width: 1.5;" width="499" x="31.5" y="108"/><ellipse cx="46.5" cy="128.0938" fill="#ADD1B2" rx="11" ry="11" style="stroke: #A80036; stroke-width: 1.0;"/><path d="M49.2656,123.9688 Q49.4219,123.75 49.6094,123.6406 Q49.7969,123.5313 50.0156,123.5313 Q50.3906,123.5313 50.625,123.7969 Q50.8594,124.0469 50.8594,124.6563 L50.8594,126.1094 Q50.8594,126.7188 50.625,126.9844 Q50.3906,127.25 50.0156,127.25 Q49.6719,127.25 49.4688,127.0469 Q49.2656,126.8594 49.1563,126.3438 Q49.1094,125.9844 48.9219,125.7969 Q48.5938,125.4219 47.9844,125.2031 Q47.375,124.9844 46.75,124.9844 Q45.9844,124.9844 45.3438,125.3125 Q44.7188,125.6406 44.2188,126.3906 Q43.7344,127.1406 43.7344,128.1719 L43.7344,129.2656 Q43.7344,130.5 44.625,131.3281 Q45.5156,132.1406 47.1094,132.1406 Q48.0469,132.1406 48.7031,131.8906 Q49.0938,131.7344 49.5156,131.2969 Q49.7813,131.0313 49.9219,130.9531 Q50.0781,130.875 50.2813,130.875 Q50.6094,130.875 50.8594,131.1406 Q51.125,131.3906 51.125,131.7344 Q51.125,132.0781 50.7813,132.4844 Q50.2813,133.0625 49.4844,133.3906 Q48.4063,133.8438 47.1094,133.8438 Q45.5938,133.8438 44.3906,133.2188 Q43.4063,132.7188 42.7188,131.6563 Q42.0313,130.5781 42.0313,129.2969 L42.0313,128.1406 Q42.0313,126.8125 42.6406,125.6719 Q43.2656,124.5156 44.3594,123.9063 Q45.4531,123.2813 46.6875,123.2813 Q47.4219,123.2813 48.0625,123.4531 Q48.7188,123.6094 49.2656,123.9688 Z "/><text fill="#000000" font-family="sans-serif" font-size="14" lengthAdjust="spacingAndGlyphs" textLength="467" x="60.5" y="127.5332">CarrilCarroQueryService.CarroSobreCarrilRecord.CarroAgregadoACarrail</text><text fill="#000000" font-family="sans-serif" font-size="10" lengthAdjust="spacingAndGlyphs" textLength="171" x="208.5" y="140.9902">co.com.sofka.cargame.infra.services</text><line style="stroke: #A80036; stroke-width: 1.5;" x1="32.5" x2="529.5" y1="148.1875" y2="148.1875"/><ellipse cx="42.5" cy="160.6055" fill="#84BE84" rx="3" ry="3" style="stroke: #038048; stroke-width: 1.0;"/><text fill="#000000" font-family="sans-serif" font-size="11" lengthAdjust="spacingAndGlyphs" textLength="99" x="51.5" y="163.6064">getCarroId(): CarroId</text><ellipse cx="42.5" cy="174.4414" fill="#84BE84" rx="3" ry="3" style="stroke: #038048; stroke-width: 1.0;"/><text fill="#000000" font-family="sans-serif" font-size="11" lengthAdjust="spacingAndGlyphs" textLength="119" x="51.5" y="177.4424">setCarroId(CarroId): void</text></a><!--class co.com.sofka.cargame.infra.services.CarrilCarroQueryService.CarroSobreCarrilRecord--><a href="CarrilCarroQueryService.CarroSobreCarrilRecord.html" target="_top" xlink:actuate="onRequest" xlink:show="new" xlink:title="CarrilCarroQueryService.CarroSobreCarrilRecord.html" xlink:type="simple"><rect fill="#FEFECE" filter="url(#f6rc2oc8zpwdj)" height="40.1875" id="co.com.sofka.cargame.infra.services.CarrilCarroQueryService.CarroSobreCarrilRecord" style="stroke: #A80036; stroke-width: 1.5;" width="346" x="108" y="8"/><ellipse cx="123" cy="28.0938" fill="#ADD1B2" rx="11" ry="11" style="stroke: #A80036; stroke-width: 1.0;"/><path d="M125.7656,23.9688 Q125.9219,23.75 126.1094,23.6406 Q126.2969,23.5313 126.5156,23.5313 Q126.8906,23.5313 127.125,23.7969 Q127.3594,24.0469 127.3594,24.6563 L127.3594,26.1094 Q127.3594,26.7188 127.125,26.9844 Q126.8906,27.25 126.5156,27.25 Q126.1719,27.25 125.9688,27.0469 Q125.7656,26.8594 125.6563,26.3438 Q125.6094,25.9844 125.4219,25.7969 Q125.0938,25.4219 124.4844,25.2031 Q123.875,24.9844 123.25,24.9844 Q122.4844,24.9844 121.8438,25.3125 Q121.2188,25.6406 120.7188,26.3906 Q120.2344,27.1406 120.2344,28.1719 L120.2344,29.2656 Q120.2344,30.5 121.125,31.3281 Q122.0156,32.1406 123.6094,32.1406 Q124.5469,32.1406 125.2031,31.8906 Q125.5938,31.7344 126.0156,31.2969 Q126.2813,31.0313 126.4219,30.9531 Q126.5781,30.875 126.7813,30.875 Q127.1094,30.875 127.3594,31.1406 Q127.625,31.3906 127.625,31.7344 Q127.625,32.0781 127.2813,32.4844 Q126.7813,33.0625 125.9844,33.3906 Q124.9063,33.8438 123.6094,33.8438 Q122.0938,33.8438 120.8906,33.2188 Q119.9063,32.7188 119.2188,31.6563 Q118.5313,30.5781 118.5313,29.2969 L118.5313,28.1406 Q118.5313,26.8125 119.1406,25.6719 Q119.7656,24.5156 120.8594,23.9063 Q121.9531,23.2813 123.1875,23.2813 Q123.9219,23.2813 124.5625,23.4531 Q125.2188,23.6094 125.7656,23.9688 Z "/><text fill="#000000" font-family="sans-serif" font-size="14" lengthAdjust="spacingAndGlyphs" textLength="314" x="137" y="27.5332">CarrilCarroQueryService.CarroSobreCarrilRecord</text><text fill="#000000" font-family="sans-serif" font-size="10" lengthAdjust="spacingAndGlyphs" textLength="171" x="208.5" y="40.9902">co.com.sofka.cargame.infra.services</text></a><!--class co.com.sofka.cargame.infra.services.CarrilCarroQueryService.CarroSobreCarrilRecord.CarroAgregadoACarrail.CarroId--><a href="CarrilCarroQueryService.CarroSobreCarrilRecord.CarroAgregadoACarrail.CarroId.html" target="_top" xlink:actuate="onRequest" xlink:show="new" xlink:title="CarrilCarroQueryService.CarroSobreCarrilRecord.CarroAgregadoACarrail.CarroId.html" xlink:type="simple"><rect fill="#FEFECE" filter="url(#f6rc2oc8zpwdj)" height="40.1875" id="co.com.sofka.cargame.infra.services.CarrilCarroQueryService.CarroSobreCarrilRecord.CarroAgregadoACarrail.CarroId" style="stroke: #A80036; stroke-width: 1.5;" width="550" x="6" y="244"/><ellipse cx="21" cy="264.0938" fill="#ADD1B2" rx="11" ry="11" style="stroke: #A80036; stroke-width: 1.0;"/><path d="M23.7656,259.9688 Q23.9219,259.75 24.1094,259.6406 Q24.2969,259.5313 24.5156,259.5313 Q24.8906,259.5313 25.125,259.7969 Q25.3594,260.0469 25.3594,260.6563 L25.3594,262.1094 Q25.3594,262.7188 25.125,262.9844 Q24.8906,263.25 24.5156,263.25 Q24.1719,263.25 23.9688,263.0469 Q23.7656,262.8594 23.6563,262.3438 Q23.6094,261.9844 23.4219,261.7969 Q23.0938,261.4219 22.4844,261.2031 Q21.875,260.9844 21.25,260.9844 Q20.4844,260.9844 19.8438,261.3125 Q19.2188,261.6406 18.7188,262.3906 Q18.2344,263.1406 18.2344,264.1719 L18.2344,265.2656 Q18.2344,266.5 19.125,267.3281 Q20.0156,268.1406 21.6094,268.1406 Q22.5469,268.1406 23.2031,267.8906 Q23.5938,267.7344 24.0156,267.2969 Q24.2813,267.0313 24.4219,266.9531 Q24.5781,266.875 24.7813,266.875 Q25.1094,266.875 25.3594,267.1406 Q25.625,267.3906 25.625,267.7344 Q25.625,268.0781 25.2813,268.4844 Q24.7813,269.0625 23.9844,269.3906 Q22.9063,269.8438 21.6094,269.8438 Q20.0938,269.8438 18.8906,269.2188 Q17.9063,268.7188 17.2188,267.6563 Q16.5313,266.5781 16.5313,265.2969 L16.5313,264.1406 Q16.5313,262.8125 17.1406,261.6719 Q17.7656,260.5156 18.8594,259.9063 Q19.9531,259.2813 21.1875,259.2813 Q21.9219,259.2813 22.5625,259.4531 Q23.2188,259.6094 23.7656,259.9688 Z "/><text fill="#000000" font-family="sans-serif" font-size="14" lengthAdjust="spacingAndGlyphs" textLength="518" x="35" y="263.5332">CarrilCarroQueryService.CarroSobreCarrilRecord.CarroAgregadoACarrail.CarroId</text><text fill="#000000" font-family="sans-serif" font-size="10" lengthAdjust="spacingAndGlyphs" textLength="171" x="208.5" y="276.9902">co.com.sofka.cargame.infra.services</text></a><!--link co.com.sofka.cargame.infra.services.CarrilCarroQueryService.CarroSobreCarrilRecord to co.com.sofka.cargame.infra.services.CarrilCarroQueryService.CarroSobreCarrilRecord.CarroAgregadoACarrail--><path d="M281,63.37 C281,77.41 281,93.68 281,107.99 " fill="none" id="co.com.sofka.cargame.infra.services.CarrilCarroQueryService.CarroSobreCarrilRecord-co.com.sofka.cargame.infra.services.CarrilCarroQueryService.CarroSobreCarrilRecord.CarroAgregadoACarrail" style="stroke: #A80036; stroke-width: 1.0;"/><ellipse cx="281" cy="56.16" fill="#FFFFFF" rx="8" ry="8" style="stroke: #A80036; stroke-width: 1.0;"/><line style="stroke: #A80036; stroke-width: 1.0;" x1="281" x2="281" y1="64.16" y2="48.16"/><line style="stroke: #A80036; stroke-width: 1.0;" x1="273" x2="289" y1="56.16" y2="56.16"/><!--link co.com.sofka.cargame.infra.services.CarrilCarroQueryService.CarroSobreCarrilRecord.CarroAgregadoACarrail to co.com.sofka.cargame.infra.services.CarrilCarroQueryService.CarroSobreCarrilRecord.CarroAgregadoACarrail.CarroId--><path d="M281,199.48 C281,215.29 281,231.66 281,243.82 " fill="none" id="co.com.sofka.cargame.infra.services.CarrilCarroQueryService.CarroSobreCarrilRecord.CarroAgregadoACarrail-co.com.sofka.cargame.infra.services.CarrilCarroQueryService.CarroSobreCarrilRecord.CarroAgregadoACarrail.CarroId" style="stroke: #A80036; stroke-width: 1.0;"/><ellipse cx="281" cy="192.02" fill="#FFFFFF" rx="8" ry="8" style="stroke: #A80036; stroke-width: 1.0;"/><line style="stroke: #A80036; stroke-width: 1.0;" x1="281" x2="281" y1="200.02" y2="184.02"/><line style="stroke: #A80036; stroke-width: 1.0;" x1="273" x2="289" y1="192.02" y2="192.02"/><text fill="#888888" font-family="sans-serif" font-size="10" lengthAdjust="spacingAndGlyphs" textLength="190" x="192" y="304.3809">UMLDoclet 2.0.10, PlantUML 1.2019.08</text><!--
@startuml
    set namespaceSeparator none
    hide empty fields
    hide empty methods

    class "<size:14>CarrilCarroQueryService.CarroSobreCarrilRecord.CarroAgregadoACarrail\n<size:10>co.com.sofka.cargame.infra.services" as co.com.sofka.cargame.infra.services.CarrilCarroQueryService.CarroSobreCarrilRecord.CarroAgregadoACarrail [[CarrilCarroQueryService.CarroSobreCarrilRecord.CarroAgregadoACarrail.html]] {
        +getCarroId(): CarroId
        +setCarroId(CarroId): void
    }

    class "<size:14>CarrilCarroQueryService.CarroSobreCarrilRecord\n<size:10>co.com.sofka.cargame.infra.services" as co.com.sofka.cargame.infra.services.CarrilCarroQueryService.CarroSobreCarrilRecord [[CarrilCarroQueryService.CarroSobreCarrilRecord.html]]
    class "<size:14>CarrilCarroQueryService.CarroSobreCarrilRecord.CarroAgregadoACarrail.CarroId\n<size:10>co.com.sofka.cargame.infra.services" as co.com.sofka.cargame.infra.services.CarrilCarroQueryService.CarroSobreCarrilRecord.CarroAgregadoACarrail.CarroId [[CarrilCarroQueryService.CarroSobreCarrilRecord.CarroAgregadoACarrail.CarroId.html]]

    co.com.sofka.cargame.infra.services.CarrilCarroQueryService.CarroSobreCarrilRecord +- - co.com.sofka.cargame.infra.services.CarrilCarroQueryService.CarroSobreCarrilRecord.CarroAgregadoACarrail
    co.com.sofka.cargame.infra.services.CarrilCarroQueryService.CarroSobreCarrilRecord.CarroAgregadoACarrail +- - co.com.sofka.cargame.infra.services.CarrilCarroQueryService.CarroSobreCarrilRecord.CarroAgregadoACarrail.CarroId

    center footer UMLDoclet 2.0.10, PlantUML 1.2019.08
@enduml

PlantUML version 1.2019.08(Sat Jul 13 14:25:14 COT 2019)
(APACHE source distribution)
Java Runtime: Java(TM) SE Runtime Environment
JVM: Java HotSpot(TM) 64-Bit Server VM
Java Version: 11.0.11+9-LTS-194
Operating System: Windows 10
OS Version: 10.0
Default Encoding: Cp1252
Language: es
Country: CO
--></g></svg>