<?xml version="1.0" encoding="UTF-8" standalone="no"?><svg xmlns="http://www.w3.org/2000/svg" xmlns:xlink="http://www.w3.org/1999/xlink" contentScriptType="application/ecmascript" contentStyleType="text/css" height="339px" preserveAspectRatio="none" style="width:495px;height:339px;" version="1.1" viewBox="0 0 495 339" width="495px" zoomAndPan="magnify"><defs><filter height="300%" id="f1803zo2kl1v8y" width="300%" x="-1" y="-1"><feGaussianBlur result="blurOut" stdDeviation="2.0"/><feColorMatrix in="blurOut" result="blurOut2" type="matrix" values="0 0 0 0 0 0 0 0 0 0 0 0 0 0 0 0 0 0 .4 0"/><feOffset dx="4.0" dy="4.0" in="blurOut2" result="blurOut3"/><feBlend in="SourceGraphic" in2="blurOut3" mode="normal"/></filter></defs><g><!--class co.com.sofka.cargame.infra.services.CarroQueryService--><a href="CarroQueryService.html" target="_top" xlink:actuate="onRequest" xlink:show="new" xlink:title="CarroQueryService.html" xlink:type="simple"><rect fill="#FEFECE" filter="url(#f1803zo2kl1v8y)" height="75.8594" id="co.com.sofka.cargame.infra.services.CarroQueryService" style="stroke: #A80036; stroke-width: 1.5;" width="203" x="152.5" y="130"/><ellipse cx="167.5" cy="150.0938" fill="#ADD1B2" rx="11" ry="11" style="stroke: #A80036; stroke-width: 1.0;"/><path d="M170.2656,145.9688 Q170.4219,145.75 170.6094,145.6406 Q170.7969,145.5313 171.0156,145.5313 Q171.3906,145.5313 171.625,145.7969 Q171.8594,146.0469 171.8594,146.6563 L171.8594,148.1094 Q171.8594,148.7188 171.625,148.9844 Q171.3906,149.25 171.0156,149.25 Q170.6719,149.25 170.4688,149.0469 Q170.2656,148.8594 170.1563,148.3438 Q170.1094,147.9844 169.9219,147.7969 Q169.5938,147.4219 168.9844,147.2031 Q168.375,146.9844 167.75,146.9844 Q166.9844,146.9844 166.3438,147.3125 Q165.7188,147.6406 165.2188,148.3906 Q164.7344,149.1406 164.7344,150.1719 L164.7344,151.2656 Q164.7344,152.5 165.625,153.3281 Q166.5156,154.1406 168.1094,154.1406 Q169.0469,154.1406 169.7031,153.8906 Q170.0938,153.7344 170.5156,153.2969 Q170.7813,153.0313 170.9219,152.9531 Q171.0781,152.875 171.2813,152.875 Q171.6094,152.875 171.8594,153.1406 Q172.125,153.3906 172.125,153.7344 Q172.125,154.0781 171.7813,154.4844 Q171.2813,155.0625 170.4844,155.3906 Q169.4063,155.8438 168.1094,155.8438 Q166.5938,155.8438 165.3906,155.2188 Q164.4063,154.7188 163.7188,153.6563 Q163.0313,152.5781 163.0313,151.2969 L163.0313,150.1406 Q163.0313,148.8125 163.6406,147.6719 Q164.2656,146.5156 165.3594,145.9063 Q166.4531,145.2813 167.6875,145.2813 Q168.4219,145.2813 169.0625,145.4531 Q169.7188,145.6094 170.2656,145.9688 Z "/><text fill="#000000" font-family="sans-serif" font-size="14" lengthAdjust="spacingAndGlyphs" textLength="122" x="206" y="149.5332">CarroQueryService</text><text fill="#000000" font-family="sans-serif" font-size="10" lengthAdjust="spacingAndGlyphs" textLength="171" x="181.5" y="162.9902">co.com.sofka.cargame.infra.services</text><line style="stroke: #A80036; stroke-width: 1.5;" x1="153.5" x2="354.5" y1="170.1875" y2="170.1875"/><ellipse cx="163.5" cy="182.6055" fill="#84BE84" rx="3" ry="3" style="stroke: #038048; stroke-width: 1.0;"/><text fill="#000000" font-family="sans-serif" font-size="11" lengthAdjust="spacingAndGlyphs" textLength="177" x="172.5" y="185.6064">CarroQueryService(MongoTemplate)</text><ellipse cx="163.5" cy="196.4414" fill="#84BE84" rx="3" ry="3" style="stroke: #038048; stroke-width: 1.0;"/><text fill="#000000" font-family="sans-serif" font-size="11" lengthAdjust="spacingAndGlyphs" textLength="166" x="172.5" y="199.4424">getConductorIdPor(CarroId): String</text></a><!--class co.com.sofka.cargame.usecase.services.CarroService--><a href="../../usecase/services/CarroService.html" target="_top" xlink:actuate="onRequest" xlink:show="new" xlink:title="../../usecase/services/CarroService.html" xlink:type="simple"><rect fill="#FEFECE" filter="url(#f1803zo2kl1v8y)" height="62.0234" id="co.com.sofka.cargame.usecase.services.CarroService" style="stroke: #A80036; stroke-width: 1.5;" width="217" x="145.5" y="8"/><ellipse cx="160.5" cy="28.0938" fill="#B4A7E5" rx="11" ry="11" style="stroke: #A80036; stroke-width: 1.0;"/><path d="M161.4531,24.7344 L161.4531,31.3906 L163.1719,31.3906 Q163.7813,31.3906 164.0469,31.625 Q164.3125,31.8594 164.3125,32.25 Q164.3125,32.625 164.0469,32.8594 Q163.7813,33.0938 163.1719,33.0938 L158.0313,33.0938 Q157.4219,33.0938 157.1563,32.8594 Q156.8906,32.625 156.8906,32.2344 Q156.8906,31.8594 157.1563,31.625 Q157.4219,31.3906 158.0313,31.3906 L159.75,31.3906 L159.75,24.7344 L158.0313,24.7344 Q157.4219,24.7344 157.1563,24.5 Q156.8906,24.2656 156.8906,23.875 Q156.8906,23.5 157.1563,23.2656 Q157.4219,23.0313 158.0313,23.0313 L163.1719,23.0313 Q163.7813,23.0313 164.0469,23.2656 Q164.3125,23.5 164.3125,23.875 Q164.3125,24.2656 164.0469,24.5 Q163.7813,24.7344 163.1719,24.7344 L161.4531,24.7344 Z "/><text fill="#000000" font-family="sans-serif" font-size="14" font-style="italic" lengthAdjust="spacingAndGlyphs" textLength="82" x="226" y="27.5332">CarroService</text><text fill="#000000" font-family="sans-serif" font-size="10" font-style="italic" lengthAdjust="spacingAndGlyphs" textLength="185" x="174.5" y="40.9902">co.com.sofka.cargame.usecase.services</text><line style="stroke: #A80036; stroke-width: 1.5;" x1="146.5" x2="361.5" y1="48.1875" y2="48.1875"/><ellipse cx="156.5" cy="60.6055" fill="#84BE84" rx="3" ry="3" style="stroke: #038048; stroke-width: 1.0;"/><text fill="#000000" font-family="sans-serif" font-size="11" font-style="italic" lengthAdjust="spacingAndGlyphs" textLength="172" x="165.5" y="63.6064">getConductorIdPor(CarroId): String</text></a><!--class co.com.sofka.cargame.infra.services.CarroQueryService.CarroRecord--><a href="CarroQueryService.CarroRecord.html" target="_top" xlink:actuate="onRequest" xlink:show="new" xlink:title="CarroQueryService.CarroRecord.html" xlink:type="simple"><rect fill="#FEFECE" filter="url(#f1803zo2kl1v8y)" height="40.1875" id="co.com.sofka.cargame.infra.services.CarroQueryService.CarroRecord" style="stroke: #A80036; stroke-width: 1.5;" width="240" x="6" y="266"/><ellipse cx="21" cy="286.0938" fill="#ADD1B2" rx="11" ry="11" style="stroke: #A80036; stroke-width: 1.0;"/><path d="M23.7656,281.9688 Q23.9219,281.75 24.1094,281.6406 Q24.2969,281.5313 24.5156,281.5313 Q24.8906,281.5313 25.125,281.7969 Q25.3594,282.0469 25.3594,282.6563 L25.3594,284.1094 Q25.3594,284.7188 25.125,284.9844 Q24.8906,285.25 24.5156,285.25 Q24.1719,285.25 23.9688,285.0469 Q23.7656,284.8594 23.6563,284.3438 Q23.6094,283.9844 23.4219,283.7969 Q23.0938,283.4219 22.4844,283.2031 Q21.875,282.9844 21.25,282.9844 Q20.4844,282.9844 19.8438,283.3125 Q19.2188,283.6406 18.7188,284.3906 Q18.2344,285.1406 18.2344,286.1719 L18.2344,287.2656 Q18.2344,288.5 19.125,289.3281 Q20.0156,290.1406 21.6094,290.1406 Q22.5469,290.1406 23.2031,289.8906 Q23.5938,289.7344 24.0156,289.2969 Q24.2813,289.0313 24.4219,288.9531 Q24.5781,288.875 24.7813,288.875 Q25.1094,288.875 25.3594,289.1406 Q25.625,289.3906 25.625,289.7344 Q25.625,290.0781 25.2813,290.4844 Q24.7813,291.0625 23.9844,291.3906 Q22.9063,291.8438 21.6094,291.8438 Q20.0938,291.8438 18.8906,291.2188 Q17.9063,290.7188 17.2188,289.6563 Q16.5313,288.5781 16.5313,287.2969 L16.5313,286.1406 Q16.5313,284.8125 17.1406,283.6719 Q17.7656,282.5156 18.8594,281.9063 Q19.9531,281.2813 21.1875,281.2813 Q21.9219,281.2813 22.5625,281.4531 Q23.2188,281.6094 23.7656,281.9688 Z "/><text fill="#000000" font-family="sans-serif" font-size="14" lengthAdjust="spacingAndGlyphs" textLength="208" x="35" y="285.5332">CarroQueryService.CarroRecord</text><text fill="#000000" font-family="sans-serif" font-size="10" lengthAdjust="spacingAndGlyphs" textLength="171" x="53.5" y="298.9902">co.com.sofka.cargame.infra.services</text></a><!--class co.com.sofka.cargame.infra.services.CarroQueryService.Cedula--><a href="CarroQueryService.Cedula.html" target="_top" xlink:actuate="onRequest" xlink:show="new" xlink:title="CarroQueryService.Cedula.html" xlink:type="simple"><rect fill="#FEFECE" filter="url(#f1803zo2kl1v8y)" height="40.1875" id="co.com.sofka.cargame.infra.services.CarroQueryService.Cedula" style="stroke: #A80036; stroke-width: 1.5;" width="203" x="281.5" y="266"/><ellipse cx="296.5" cy="286.0938" fill="#ADD1B2" rx="11" ry="11" style="stroke: #A80036; stroke-width: 1.0;"/><path d="M299.2656,281.9688 Q299.4219,281.75 299.6094,281.6406 Q299.7969,281.5313 300.0156,281.5313 Q300.3906,281.5313 300.625,281.7969 Q300.8594,282.0469 300.8594,282.6563 L300.8594,284.1094 Q300.8594,284.7188 300.625,284.9844 Q300.3906,285.25 300.0156,285.25 Q299.6719,285.25 299.4688,285.0469 Q299.2656,284.8594 299.1563,284.3438 Q299.1094,283.9844 298.9219,283.7969 Q298.5938,283.4219 297.9844,283.2031 Q297.375,282.9844 296.75,282.9844 Q295.9844,282.9844 295.3438,283.3125 Q294.7188,283.6406 294.2188,284.3906 Q293.7344,285.1406 293.7344,286.1719 L293.7344,287.2656 Q293.7344,288.5 294.625,289.3281 Q295.5156,290.1406 297.1094,290.1406 Q298.0469,290.1406 298.7031,289.8906 Q299.0938,289.7344 299.5156,289.2969 Q299.7813,289.0313 299.9219,288.9531 Q300.0781,288.875 300.2813,288.875 Q300.6094,288.875 300.8594,289.1406 Q301.125,289.3906 301.125,289.7344 Q301.125,290.0781 300.7813,290.4844 Q300.2813,291.0625 299.4844,291.3906 Q298.4063,291.8438 297.1094,291.8438 Q295.5938,291.8438 294.3906,291.2188 Q293.4063,290.7188 292.7188,289.6563 Q292.0313,288.5781 292.0313,287.2969 L292.0313,286.1406 Q292.0313,284.8125 292.6406,283.6719 Q293.2656,282.5156 294.3594,281.9063 Q295.4531,281.2813 296.6875,281.2813 Q297.4219,281.2813 298.0625,281.4531 Q298.7188,281.6094 299.2656,281.9688 Z "/><text fill="#000000" font-family="sans-serif" font-size="14" lengthAdjust="spacingAndGlyphs" textLength="171" x="310.5" y="285.5332">CarroQueryService.Cedula</text><text fill="#000000" font-family="sans-serif" font-size="10" lengthAdjust="spacingAndGlyphs" textLength="171" x="310.5" y="298.9902">co.com.sofka.cargame.infra.services</text></a><!--link co.com.sofka.cargame.usecase.services.CarroService to co.com.sofka.cargame.infra.services.CarroQueryService--><path d="M254,90.43 C254,103.59 254,117.53 254,129.86 " fill="none" id="co.com.sofka.cargame.usecase.services.CarroService-co.com.sofka.cargame.infra.services.CarroQueryService" style="stroke: #A80036; stroke-width: 1.0; stroke-dasharray: 7.0,7.0;"/><polygon fill="none" points="247,90.1,254,70.1,261,90.1,247,90.1" style="stroke: #A80036; stroke-width: 1.0;"/><!--link co.com.sofka.cargame.infra.services.CarroQueryService to co.com.sofka.cargame.infra.services.CarroQueryService.CarroRecord--><path d="M201.79,216.31 C182.65,233.66 162.05,252.33 147.16,265.82 " fill="none" id="co.com.sofka.cargame.infra.services.CarroQueryService-co.com.sofka.cargame.infra.services.CarroQueryService.CarroRecord" style="stroke: #A80036; stroke-width: 1.0;"/><ellipse cx="207.2184" cy="211.3881" fill="#FFFFFF" rx="8" ry="8" style="stroke: #A80036; stroke-width: 1.0;"/><line style="stroke: #A80036; stroke-width: 1.0;" x1="201.2869" x2="213.15" y1="216.7562" y2="206.02"/><line style="stroke: #A80036; stroke-width: 1.0;" x1="201.8503" x2="212.5865" y1="205.4565" y2="217.3197"/><!--link co.com.sofka.cargame.infra.services.CarroQueryService to co.com.sofka.cargame.infra.services.CarroQueryService.Cedula--><path d="M306.34,216.07 C325.71,233.49 346.6,252.27 361.67,265.82 " fill="none" id="co.com.sofka.cargame.infra.services.CarroQueryService-co.com.sofka.cargame.infra.services.CarroQueryService.Cedula" style="stroke: #A80036; stroke-width: 1.0;"/><ellipse cx="301.116" cy="211.3721" fill="#FFFFFF" rx="8" ry="8" style="stroke: #A80036; stroke-width: 1.0;"/><line style="stroke: #A80036; stroke-width: 1.0;" x1="307.0619" x2="295.17" y1="216.7243" y2="206.02"/><line style="stroke: #A80036; stroke-width: 1.0;" x1="295.7638" x2="306.4681" y1="217.3181" y2="205.4262"/><text fill="#888888" font-family="sans-serif" font-size="10" lengthAdjust="spacingAndGlyphs" textLength="190" x="156.5" y="326.3809">UMLDoclet 2.0.10, PlantUML 1.2019.08</text><!--
@startuml
    set namespaceSeparator none
    hide empty fields
    hide empty methods

    class "<size:14>CarroQueryService\n<size:10>co.com.sofka.cargame.infra.services" as co.com.sofka.cargame.infra.services.CarroQueryService [[CarroQueryService.html]] {
        +CarroQueryService(MongoTemplate)
        +getConductorIdPor(CarroId): String
    }

    interface "<size:14>CarroService\n<size:10>co.com.sofka.cargame.usecase.services" as co.com.sofka.cargame.usecase.services.CarroService [[../../usecase/services/CarroService.html]] {
        {abstract} +getConductorIdPor(CarroId): String
    }
    class "<size:14>CarroQueryService.CarroRecord\n<size:10>co.com.sofka.cargame.infra.services" as co.com.sofka.cargame.infra.services.CarroQueryService.CarroRecord [[CarroQueryService.CarroRecord.html]]
    class "<size:14>CarroQueryService.Cedula\n<size:10>co.com.sofka.cargame.infra.services" as co.com.sofka.cargame.infra.services.CarroQueryService.Cedula [[CarroQueryService.Cedula.html]]

    co.com.sofka.cargame.usecase.services.CarroService <|.. co.com.sofka.cargame.infra.services.CarroQueryService
    co.com.sofka.cargame.infra.services.CarroQueryService +- - co.com.sofka.cargame.infra.services.CarroQueryService.CarroRecord
    co.com.sofka.cargame.infra.services.CarroQueryService +- - co.com.sofka.cargame.infra.services.CarroQueryService.Cedula

    center footer UMLDoclet 2.0.10, PlantUML 1.2019.08
@enduml

PlantUML version 1.2019.08(Sat Jul 13 14:25:14 COT 2019)
(APACHE source distribution)
Java Runtime: Java(TM) SE Runtime Environment
JVM: Java HotSpot(TM) 64-Bit Server VM
Java Version: 11.0.11+9-LTS-194
Operating System: Windows 10
OS Version: 10.0
Default Encoding: Cp1252
Language: es
Country: CO
--></g></svg>