<?xml version="1.0" encoding="UTF-8" standalone="no"?><svg xmlns="http://www.w3.org/2000/svg" xmlns:xlink="http://www.w3.org/1999/xlink" contentScriptType="application/ecmascript" contentStyleType="text/css" height="345px" preserveAspectRatio="none" style="width:516px;height:345px;" version="1.1" viewBox="0 0 516 345" width="516px" zoomAndPan="magnify"><defs><filter height="300%" id="f11kfiy4ttvl99" width="300%" x="-1" y="-1"><feGaussianBlur result="blurOut" stdDeviation="2.0"/><feColorMatrix in="blurOut" result="blurOut2" type="matrix" values="0 0 0 0 0 0 0 0 0 0 0 0 0 0 0 0 0 0 .4 0"/><feOffset dx="4.0" dy="4.0" in="blurOut2" result="blurOut3"/><feBlend in="SourceGraphic" in2="blurOut3" mode="normal"/></filter></defs><g><!--class co.com.sofka.cargame.infra.services.CarrilCarroQueryService.CarroSobreCarrilRecord--><a href="CarrilCarroQueryService.CarroSobreCarrilRecord.html" target="_top" xlink:actuate="onRequest" xlink:show="new" xlink:title="CarrilCarroQueryService.CarroSobreCarrilRecord.html" xlink:type="simple"><rect fill="#FEFECE" filter="url(#f11kfiy4ttvl99)" height="103.5313" id="co.com.sofka.cargame.infra.services.CarrilCarroQueryService.CarroSobreCarrilRecord" style="stroke: #A80036; stroke-width: 1.5;" width="346" x="82.5" y="108"/><ellipse cx="97.5" cy="128.0938" fill="#ADD1B2" rx="11" ry="11" style="stroke: #A80036; stroke-width: 1.0;"/><path d="M100.2656,123.9688 Q100.4219,123.75 100.6094,123.6406 Q100.7969,123.5313 101.0156,123.5313 Q101.3906,123.5313 101.625,123.7969 Q101.8594,124.0469 101.8594,124.6563 L101.8594,126.1094 Q101.8594,126.7188 101.625,126.9844 Q101.3906,127.25 101.0156,127.25 Q100.6719,127.25 100.4688,127.0469 Q100.2656,126.8594 100.1563,126.3438 Q100.1094,125.9844 99.9219,125.7969 Q99.5938,125.4219 98.9844,125.2031 Q98.375,124.9844 97.75,124.9844 Q96.9844,124.9844 96.3438,125.3125 Q95.7188,125.6406 95.2188,126.3906 Q94.7344,127.1406 94.7344,128.1719 L94.7344,129.2656 Q94.7344,130.5 95.625,131.3281 Q96.5156,132.1406 98.1094,132.1406 Q99.0469,132.1406 99.7031,131.8906 Q100.0938,131.7344 100.5156,131.2969 Q100.7813,131.0313 100.9219,130.9531 Q101.0781,130.875 101.2813,130.875 Q101.6094,130.875 101.8594,131.1406 Q102.125,131.3906 102.125,131.7344 Q102.125,132.0781 101.7813,132.4844 Q101.2813,133.0625 100.4844,133.3906 Q99.4063,133.8438 98.1094,133.8438 Q96.5938,133.8438 95.3906,133.2188 Q94.4063,132.7188 93.7188,131.6563 Q93.0313,130.5781 93.0313,129.2969 L93.0313,128.1406 Q93.0313,126.8125 93.6406,125.6719 Q94.2656,124.5156 95.3594,123.9063 Q96.4531,123.2813 97.6875,123.2813 Q98.4219,123.2813 99.0625,123.4531 Q99.7188,123.6094 100.2656,123.9688 Z "/><text fill="#000000" font-family="sans-serif" font-size="14" lengthAdjust="spacingAndGlyphs" textLength="314" x="111.5" y="127.5332">CarrilCarroQueryService.CarroSobreCarrilRecord</text><text fill="#000000" font-family="sans-serif" font-size="10" lengthAdjust="spacingAndGlyphs" textLength="171" x="183" y="140.9902">co.com.sofka.cargame.infra.services</text><line style="stroke: #A80036; stroke-width: 1.5;" x1="83.5" x2="427.5" y1="148.1875" y2="148.1875"/><ellipse cx="93.5" cy="160.6055" fill="#84BE84" rx="3" ry="3" style="stroke: #038048; stroke-width: 1.0;"/><text fill="#000000" font-family="sans-serif" font-size="11" lengthAdjust="spacingAndGlyphs" textLength="138" x="102.5" y="163.6064">getAggregateRootId(): String</text><ellipse cx="93.5" cy="174.4414" fill="#84BE84" rx="3" ry="3" style="stroke: #038048; stroke-width: 1.0;"/><text fill="#000000" font-family="sans-serif" font-size="11" lengthAdjust="spacingAndGlyphs" textLength="158" x="102.5" y="177.4424">setAggregateRootId(String): void</text><ellipse cx="93.5" cy="188.2773" fill="#84BE84" rx="3" ry="3" style="stroke: #038048; stroke-width: 1.0;"/><text fill="#000000" font-family="sans-serif" font-size="11" lengthAdjust="spacingAndGlyphs" textLength="286" x="102.5" y="191.2783">getCarroAgregadoACarrail(): List&lt;CarroAgregadoACarrail&gt;</text><ellipse cx="93.5" cy="202.1133" fill="#84BE84" rx="3" ry="3" style="stroke: #038048; stroke-width: 1.0;"/><text fill="#000000" font-family="sans-serif" font-size="11" lengthAdjust="spacingAndGlyphs" textLength="306" x="102.5" y="205.1143">setCarroAgregadoACarrail(List&lt;CarroAgregadoACarrail&gt;): void</text></a><!--class co.com.sofka.cargame.infra.services.CarrilCarroQueryService--><a href="CarrilCarroQueryService.html" target="_top" xlink:actuate="onRequest" xlink:show="new" xlink:title="CarrilCarroQueryService.html" xlink:type="simple"><rect fill="#FEFECE" filter="url(#f11kfiy4ttvl99)" height="40.1875" id="co.com.sofka.cargame.infra.services.CarrilCarroQueryService" style="stroke: #A80036; stroke-width: 1.5;" width="203" x="154" y="8"/><ellipse cx="169" cy="28.0938" fill="#ADD1B2" rx="11" ry="11" style="stroke: #A80036; stroke-width: 1.0;"/><path d="M171.7656,23.9688 Q171.9219,23.75 172.1094,23.6406 Q172.2969,23.5313 172.5156,23.5313 Q172.8906,23.5313 173.125,23.7969 Q173.3594,24.0469 173.3594,24.6563 L173.3594,26.1094 Q173.3594,26.7188 173.125,26.9844 Q172.8906,27.25 172.5156,27.25 Q172.1719,27.25 171.9688,27.0469 Q171.7656,26.8594 171.6563,26.3438 Q171.6094,25.9844 171.4219,25.7969 Q171.0938,25.4219 170.4844,25.2031 Q169.875,24.9844 169.25,24.9844 Q168.4844,24.9844 167.8438,25.3125 Q167.2188,25.6406 166.7188,26.3906 Q166.2344,27.1406 166.2344,28.1719 L166.2344,29.2656 Q166.2344,30.5 167.125,31.3281 Q168.0156,32.1406 169.6094,32.1406 Q170.5469,32.1406 171.2031,31.8906 Q171.5938,31.7344 172.0156,31.2969 Q172.2813,31.0313 172.4219,30.9531 Q172.5781,30.875 172.7813,30.875 Q173.1094,30.875 173.3594,31.1406 Q173.625,31.3906 173.625,31.7344 Q173.625,32.0781 173.2813,32.4844 Q172.7813,33.0625 171.9844,33.3906 Q170.9063,33.8438 169.6094,33.8438 Q168.0938,33.8438 166.8906,33.2188 Q165.9063,32.7188 165.2188,31.6563 Q164.5313,30.5781 164.5313,29.2969 L164.5313,28.1406 Q164.5313,26.8125 165.1406,25.6719 Q165.7656,24.5156 166.8594,23.9063 Q167.9531,23.2813 169.1875,23.2813 Q169.9219,23.2813 170.5625,23.4531 Q171.2188,23.6094 171.7656,23.9688 Z "/><text fill="#000000" font-family="sans-serif" font-size="14" lengthAdjust="spacingAndGlyphs" textLength="156" x="190.5" y="27.5332">CarrilCarroQueryService</text><text fill="#000000" font-family="sans-serif" font-size="10" lengthAdjust="spacingAndGlyphs" textLength="171" x="183" y="40.9902">co.com.sofka.cargame.infra.services</text></a><!--class co.com.sofka.cargame.infra.services.CarrilCarroQueryService.CarroSobreCarrilRecord.CarroAgregadoACarrail--><a href="CarrilCarroQueryService.CarroSobreCarrilRecord.CarroAgregadoACarrail.html" target="_top" xlink:actuate="onRequest" xlink:show="new" xlink:title="CarrilCarroQueryService.CarroSobreCarrilRecord.CarroAgregadoACarrail.html" xlink:type="simple"><rect fill="#FEFECE" filter="url(#f11kfiy4ttvl99)" height="40.1875" id="co.com.sofka.cargame.infra.services.CarrilCarroQueryService.CarroSobreCarrilRecord.CarroAgregadoACarrail" style="stroke: #A80036; stroke-width: 1.5;" width="499" x="6" y="272"/><ellipse cx="21" cy="292.0938" fill="#ADD1B2" rx="11" ry="11" style="stroke: #A80036; stroke-width: 1.0;"/><path d="M23.7656,287.9688 Q23.9219,287.75 24.1094,287.6406 Q24.2969,287.5313 24.5156,287.5313 Q24.8906,287.5313 25.125,287.7969 Q25.3594,288.0469 25.3594,288.6563 L25.3594,290.1094 Q25.3594,290.7188 25.125,290.9844 Q24.8906,291.25 24.5156,291.25 Q24.1719,291.25 23.9688,291.0469 Q23.7656,290.8594 23.6563,290.3438 Q23.6094,289.9844 23.4219,289.7969 Q23.0938,289.4219 22.4844,289.2031 Q21.875,288.9844 21.25,288.9844 Q20.4844,288.9844 19.8438,289.3125 Q19.2188,289.6406 18.7188,290.3906 Q18.2344,291.1406 18.2344,292.1719 L18.2344,293.2656 Q18.2344,294.5 19.125,295.3281 Q20.0156,296.1406 21.6094,296.1406 Q22.5469,296.1406 23.2031,295.8906 Q23.5938,295.7344 24.0156,295.2969 Q24.2813,295.0313 24.4219,294.9531 Q24.5781,294.875 24.7813,294.875 Q25.1094,294.875 25.3594,295.1406 Q25.625,295.3906 25.625,295.7344 Q25.625,296.0781 25.2813,296.4844 Q24.7813,297.0625 23.9844,297.3906 Q22.9063,297.8438 21.6094,297.8438 Q20.0938,297.8438 18.8906,297.2188 Q17.9063,296.7188 17.2188,295.6563 Q16.5313,294.5781 16.5313,293.2969 L16.5313,292.1406 Q16.5313,290.8125 17.1406,289.6719 Q17.7656,288.5156 18.8594,287.9063 Q19.9531,287.2813 21.1875,287.2813 Q21.9219,287.2813 22.5625,287.4531 Q23.2188,287.6094 23.7656,287.9688 Z "/><text fill="#000000" font-family="sans-serif" font-size="14" lengthAdjust="spacingAndGlyphs" textLength="467" x="35" y="291.5332">CarrilCarroQueryService.CarroSobreCarrilRecord.CarroAgregadoACarrail</text><text fill="#000000" font-family="sans-serif" font-size="10" lengthAdjust="spacingAndGlyphs" textLength="171" x="183" y="304.9902">co.com.sofka.cargame.infra.services</text></a><!--link co.com.sofka.cargame.infra.services.CarrilCarroQueryService to co.com.sofka.cargame.infra.services.CarrilCarroQueryService.CarroSobreCarrilRecord--><path d="M255.5,63.44 C255.5,77.09 255.5,93.06 255.5,107.99 " fill="none" id="co.com.sofka.cargame.infra.services.CarrilCarroQueryService-co.com.sofka.cargame.infra.services.CarrilCarroQueryService.CarroSobreCarrilRecord" style="stroke: #A80036; stroke-width: 1.0;"/><ellipse cx="255.5" cy="56.18" fill="#FFFFFF" rx="8" ry="8" style="stroke: #A80036; stroke-width: 1.0;"/><line style="stroke: #A80036; stroke-width: 1.0;" x1="255.5" x2="255.5" y1="64.18" y2="48.18"/><line style="stroke: #A80036; stroke-width: 1.0;" x1="247.5" x2="263.5" y1="56.18" y2="56.18"/><!--link co.com.sofka.cargame.infra.services.CarrilCarroQueryService.CarroSobreCarrilRecord to co.com.sofka.cargame.infra.services.CarrilCarroQueryService.CarroSobreCarrilRecord.CarroAgregadoACarrail--><path d="M255.5,227.03 C255.5,243.49 255.5,259.87 255.5,271.93 " fill="none" id="co.com.sofka.cargame.infra.services.CarrilCarroQueryService.CarroSobreCarrilRecord-co.com.sofka.cargame.infra.services.CarrilCarroQueryService.CarroSobreCarrilRecord.CarroAgregadoACarrail" style="stroke: #A80036; stroke-width: 1.0;"/><ellipse cx="255.5" cy="220.01" fill="#FFFFFF" rx="8" ry="8" style="stroke: #A80036; stroke-width: 1.0;"/><line style="stroke: #A80036; stroke-width: 1.0;" x1="255.5" x2="255.5" y1="228.01" y2="212.01"/><line style="stroke: #A80036; stroke-width: 1.0;" x1="247.5" x2="263.5" y1="220.01" y2="220.01"/><text fill="#888888" font-family="sans-serif" font-size="10" lengthAdjust="spacingAndGlyphs" textLength="190" x="166.5" y="332.3809">UMLDoclet 2.0.10, PlantUML 1.2019.08</text><!--
@startuml
    set namespaceSeparator none
    hide empty fields
    hide empty methods

    class "<size:14>CarrilCarroQueryService.CarroSobreCarrilRecord\n<size:10>co.com.sofka.cargame.infra.services" as co.com.sofka.cargame.infra.services.CarrilCarroQueryService.CarroSobreCarrilRecord [[CarrilCarroQueryService.CarroSobreCarrilRecord.html]] {
        +getAggregateRootId(): String
        +setAggregateRootId(String): void
        +getCarroAgregadoACarrail(): List<CarroAgregadoACarrail>
        +setCarroAgregadoACarrail(List<CarroAgregadoACarrail>): void
    }

    class "<size:14>CarrilCarroQueryService\n<size:10>co.com.sofka.cargame.infra.services" as co.com.sofka.cargame.infra.services.CarrilCarroQueryService [[CarrilCarroQueryService.html]]
    class "<size:14>CarrilCarroQueryService.CarroSobreCarrilRecord.CarroAgregadoACarrail\n<size:10>co.com.sofka.cargame.infra.services" as co.com.sofka.cargame.infra.services.CarrilCarroQueryService.CarroSobreCarrilRecord.CarroAgregadoACarrail [[CarrilCarroQueryService.CarroSobreCarrilRecord.CarroAgregadoACarrail.html]]

    co.com.sofka.cargame.infra.services.CarrilCarroQueryService +- - co.com.sofka.cargame.infra.services.CarrilCarroQueryService.CarroSobreCarrilRecord
    co.com.sofka.cargame.infra.services.CarrilCarroQueryService.CarroSobreCarrilRecord +- - co.com.sofka.cargame.infra.services.CarrilCarroQueryService.CarroSobreCarrilRecord.CarroAgregadoACarrail

    center footer UMLDoclet 2.0.10, PlantUML 1.2019.08
@enduml

PlantUML version 1.2019.08(Sat Jul 13 14:25:14 COT 2019)
(APACHE source distribution)
Java Runtime: Java(TM) SE Runtime Environment
JVM: Java HotSpot(TM) 64-Bit Server VM
Java Version: 11.0.11+9-LTS-194
Operating System: Windows 10
OS Version: 10.0
Default Encoding: Cp1252
Language: es
Country: CO
--></g></svg>