<?xml version="1.0" encoding="UTF-8" standalone="no"?><svg xmlns="http://www.w3.org/2000/svg" xmlns:xlink="http://www.w3.org/1999/xlink" contentScriptType="application/ecmascript" contentStyleType="text/css" height="339px" preserveAspectRatio="none" style="width:261px;height:339px;" version="1.1" viewBox="0 0 261 339" width="261px" zoomAndPan="magnify"><defs><filter height="300%" id="f1qktrtbjwp7ew" width="300%" x="-1" y="-1"><feGaussianBlur result="blurOut" stdDeviation="2.0"/><feColorMatrix in="blurOut" result="blurOut2" type="matrix" values="0 0 0 0 0 0 0 0 0 0 0 0 0 0 0 0 0 0 .4 0"/><feOffset dx="4.0" dy="4.0" in="blurOut2" result="blurOut3"/><feBlend in="SourceGraphic" in2="blurOut3" mode="normal"/></filter></defs><g><!--class co.com.sofka.cargame.infra.services.JuegoQueryService--><a href="JuegoQueryService.html" target="_top" xlink:actuate="onRequest" xlink:show="new" xlink:title="JuegoQueryService.html" xlink:type="simple"><rect fill="#FEFECE" filter="url(#f1qktrtbjwp7ew)" height="75.8594" id="co.com.sofka.cargame.infra.services.JuegoQueryService" style="stroke: #A80036; stroke-width: 1.5;" width="205" x="25.5" y="130"/><ellipse cx="41.4" cy="150.0938" fill="#ADD1B2" rx="11" ry="11" style="stroke: #A80036; stroke-width: 1.0;"/><path d="M44.1656,145.9688 Q44.3219,145.75 44.5094,145.6406 Q44.6969,145.5313 44.9156,145.5313 Q45.2906,145.5313 45.525,145.7969 Q45.7594,146.0469 45.7594,146.6563 L45.7594,148.1094 Q45.7594,148.7188 45.525,148.9844 Q45.2906,149.25 44.9156,149.25 Q44.5719,149.25 44.3688,149.0469 Q44.1656,148.8594 44.0563,148.3438 Q44.0094,147.9844 43.8219,147.7969 Q43.4938,147.4219 42.8844,147.2031 Q42.275,146.9844 41.65,146.9844 Q40.8844,146.9844 40.2438,147.3125 Q39.6188,147.6406 39.1188,148.3906 Q38.6344,149.1406 38.6344,150.1719 L38.6344,151.2656 Q38.6344,152.5 39.525,153.3281 Q40.4156,154.1406 42.0094,154.1406 Q42.9469,154.1406 43.6031,153.8906 Q43.9938,153.7344 44.4156,153.2969 Q44.6813,153.0313 44.8219,152.9531 Q44.9781,152.875 45.1813,152.875 Q45.5094,152.875 45.7594,153.1406 Q46.025,153.3906 46.025,153.7344 Q46.025,154.0781 45.6813,154.4844 Q45.1813,155.0625 44.3844,155.3906 Q43.3063,155.8438 42.0094,155.8438 Q40.4938,155.8438 39.2906,155.2188 Q38.3063,154.7188 37.6188,153.6563 Q36.9313,152.5781 36.9313,151.2969 L36.9313,150.1406 Q36.9313,148.8125 37.5406,147.6719 Q38.1656,146.5156 39.2594,145.9063 Q40.3531,145.2813 41.5875,145.2813 Q42.3219,145.2813 42.9625,145.4531 Q43.6188,145.6094 44.1656,145.9688 Z "/><text fill="#000000" font-family="sans-serif" font-size="14" lengthAdjust="spacingAndGlyphs" textLength="124" x="79.1" y="149.5332">JuegoQueryService</text><text fill="#000000" font-family="sans-serif" font-size="10" lengthAdjust="spacingAndGlyphs" textLength="171" x="55.6" y="162.9902">co.com.sofka.cargame.infra.services</text><line style="stroke: #A80036; stroke-width: 1.5;" x1="26.5" x2="229.5" y1="170.1875" y2="170.1875"/><ellipse cx="36.5" cy="182.6055" fill="#84BE84" rx="3" ry="3" style="stroke: #038048; stroke-width: 1.0;"/><text fill="#000000" font-family="sans-serif" font-size="11" lengthAdjust="spacingAndGlyphs" textLength="179" x="45.5" y="185.6064">JuegoQueryService(MongoTemplate)</text><ellipse cx="36.5" cy="196.4414" fill="#84BE84" rx="3" ry="3" style="stroke: #038048; stroke-width: 1.0;"/><text fill="#000000" font-family="sans-serif" font-size="11" lengthAdjust="spacingAndGlyphs" textLength="149" x="45.5" y="199.4424">getKilometros(JuegoId): Integer</text></a><!--class co.com.sofka.cargame.usecase.services.JuegoService--><a href="../../usecase/services/JuegoService.html" target="_top" xlink:actuate="onRequest" xlink:show="new" xlink:title="../../usecase/services/JuegoService.html" xlink:type="simple"><rect fill="#FEFECE" filter="url(#f1qktrtbjwp7ew)" height="62.0234" id="co.com.sofka.cargame.usecase.services.JuegoService" style="stroke: #A80036; stroke-width: 1.5;" width="217" x="19.5" y="8"/><ellipse cx="34.5" cy="28.0938" fill="#B4A7E5" rx="11" ry="11" style="stroke: #A80036; stroke-width: 1.0;"/><path d="M35.4531,24.7344 L35.4531,31.3906 L37.1719,31.3906 Q37.7813,31.3906 38.0469,31.625 Q38.3125,31.8594 38.3125,32.25 Q38.3125,32.625 38.0469,32.8594 Q37.7813,33.0938 37.1719,33.0938 L32.0313,33.0938 Q31.4219,33.0938 31.1563,32.8594 Q30.8906,32.625 30.8906,32.2344 Q30.8906,31.8594 31.1563,31.625 Q31.4219,31.3906 32.0313,31.3906 L33.75,31.3906 L33.75,24.7344 L32.0313,24.7344 Q31.4219,24.7344 31.1563,24.5 Q30.8906,24.2656 30.8906,23.875 Q30.8906,23.5 31.1563,23.2656 Q31.4219,23.0313 32.0313,23.0313 L37.1719,23.0313 Q37.7813,23.0313 38.0469,23.2656 Q38.3125,23.5 38.3125,23.875 Q38.3125,24.2656 38.0469,24.5 Q37.7813,24.7344 37.1719,24.7344 L35.4531,24.7344 Z "/><text fill="#000000" font-family="sans-serif" font-size="14" font-style="italic" lengthAdjust="spacingAndGlyphs" textLength="85" x="98.5" y="27.5332">JuegoService</text><text fill="#000000" font-family="sans-serif" font-size="10" font-style="italic" lengthAdjust="spacingAndGlyphs" textLength="185" x="48.5" y="40.9902">co.com.sofka.cargame.usecase.services</text><line style="stroke: #A80036; stroke-width: 1.5;" x1="20.5" x2="235.5" y1="48.1875" y2="48.1875"/><ellipse cx="30.5" cy="60.6055" fill="#84BE84" rx="3" ry="3" style="stroke: #038048; stroke-width: 1.0;"/><text fill="#000000" font-family="sans-serif" font-size="11" font-style="italic" lengthAdjust="spacingAndGlyphs" textLength="155" x="39.5" y="63.6064">getKilometros(JuegoId): Integer</text></a><!--class co.com.sofka.cargame.infra.services.JuegoQueryService.JuegoRecord--><a href="JuegoQueryService.JuegoRecord.html" target="_top" xlink:actuate="onRequest" xlink:show="new" xlink:title="JuegoQueryService.JuegoRecord.html" xlink:type="simple"><rect fill="#FEFECE" filter="url(#f1qktrtbjwp7ew)" height="40.1875" id="co.com.sofka.cargame.infra.services.JuegoQueryService.JuegoRecord" style="stroke: #A80036; stroke-width: 1.5;" width="244" x="6" y="266"/><ellipse cx="21" cy="286.0938" fill="#ADD1B2" rx="11" ry="11" style="stroke: #A80036; stroke-width: 1.0;"/><path d="M23.7656,281.9688 Q23.9219,281.75 24.1094,281.6406 Q24.2969,281.5313 24.5156,281.5313 Q24.8906,281.5313 25.125,281.7969 Q25.3594,282.0469 25.3594,282.6563 L25.3594,284.1094 Q25.3594,284.7188 25.125,284.9844 Q24.8906,285.25 24.5156,285.25 Q24.1719,285.25 23.9688,285.0469 Q23.7656,284.8594 23.6563,284.3438 Q23.6094,283.9844 23.4219,283.7969 Q23.0938,283.4219 22.4844,283.2031 Q21.875,282.9844 21.25,282.9844 Q20.4844,282.9844 19.8438,283.3125 Q19.2188,283.6406 18.7188,284.3906 Q18.2344,285.1406 18.2344,286.1719 L18.2344,287.2656 Q18.2344,288.5 19.125,289.3281 Q20.0156,290.1406 21.6094,290.1406 Q22.5469,290.1406 23.2031,289.8906 Q23.5938,289.7344 24.0156,289.2969 Q24.2813,289.0313 24.4219,288.9531 Q24.5781,288.875 24.7813,288.875 Q25.1094,288.875 25.3594,289.1406 Q25.625,289.3906 25.625,289.7344 Q25.625,290.0781 25.2813,290.4844 Q24.7813,291.0625 23.9844,291.3906 Q22.9063,291.8438 21.6094,291.8438 Q20.0938,291.8438 18.8906,291.2188 Q17.9063,290.7188 17.2188,289.6563 Q16.5313,288.5781 16.5313,287.2969 L16.5313,286.1406 Q16.5313,284.8125 17.1406,283.6719 Q17.7656,282.5156 18.8594,281.9063 Q19.9531,281.2813 21.1875,281.2813 Q21.9219,281.2813 22.5625,281.4531 Q23.2188,281.6094 23.7656,281.9688 Z "/><text fill="#000000" font-family="sans-serif" font-size="14" lengthAdjust="spacingAndGlyphs" textLength="212" x="35" y="285.5332">JuegoQueryService.JuegoRecord</text><text fill="#000000" font-family="sans-serif" font-size="10" lengthAdjust="spacingAndGlyphs" textLength="171" x="55.5" y="298.9902">co.com.sofka.cargame.infra.services</text></a><!--link co.com.sofka.cargame.usecase.services.JuegoService to co.com.sofka.cargame.infra.services.JuegoQueryService--><path d="M128,90.43 C128,103.59 128,117.53 128,129.86 " fill="none" id="co.com.sofka.cargame.usecase.services.JuegoService-co.com.sofka.cargame.infra.services.JuegoQueryService" style="stroke: #A80036; stroke-width: 1.0; stroke-dasharray: 7.0,7.0;"/><polygon fill="none" points="121,90.1,128,70.1,135,90.1,121,90.1" style="stroke: #A80036; stroke-width: 1.0;"/><!--link co.com.sofka.cargame.infra.services.JuegoQueryService to co.com.sofka.cargame.infra.services.JuegoQueryService.JuegoRecord--><path d="M128,221.48 C128,237.29 128,253.66 128,265.82 " fill="none" id="co.com.sofka.cargame.infra.services.JuegoQueryService-co.com.sofka.cargame.infra.services.JuegoQueryService.JuegoRecord" style="stroke: #A80036; stroke-width: 1.0;"/><ellipse cx="128" cy="214.02" fill="#FFFFFF" rx="8" ry="8" style="stroke: #A80036; stroke-width: 1.0;"/><line style="stroke: #A80036; stroke-width: 1.0;" x1="128" x2="128" y1="222.02" y2="206.02"/><line style="stroke: #A80036; stroke-width: 1.0;" x1="120" x2="136" y1="214.02" y2="214.02"/><text fill="#888888" font-family="sans-serif" font-size="10" lengthAdjust="spacingAndGlyphs" textLength="190" x="39" y="326.3809">UMLDoclet 2.0.10, PlantUML 1.2019.08</text><!--
@startuml
    set namespaceSeparator none
    hide empty fields
    hide empty methods

    class "<size:14>JuegoQueryService\n<size:10>co.com.sofka.cargame.infra.services" as co.com.sofka.cargame.infra.services.JuegoQueryService [[JuegoQueryService.html]] {
        +JuegoQueryService(MongoTemplate)
        +getKilometros(JuegoId): Integer
    }

    interface "<size:14>JuegoService\n<size:10>co.com.sofka.cargame.usecase.services" as co.com.sofka.cargame.usecase.services.JuegoService [[../../usecase/services/JuegoService.html]] {
        {abstract} +getKilometros(JuegoId): Integer
    }
    class "<size:14>JuegoQueryService.JuegoRecord\n<size:10>co.com.sofka.cargame.infra.services" as co.com.sofka.cargame.infra.services.JuegoQueryService.JuegoRecord [[JuegoQueryService.JuegoRecord.html]]

    co.com.sofka.cargame.usecase.services.JuegoService <|.. co.com.sofka.cargame.infra.services.JuegoQueryService
    co.com.sofka.cargame.infra.services.JuegoQueryService +- - co.com.sofka.cargame.infra.services.JuegoQueryService.JuegoRecord

    center footer UMLDoclet 2.0.10, PlantUML 1.2019.08
@enduml

PlantUML version 1.2019.08(Sat Jul 13 14:25:14 COT 2019)
(APACHE source distribution)
Java Runtime: Java(TM) SE Runtime Environment
JVM: Java HotSpot(TM) 64-Bit Server VM
Java Version: 11.0.11+9-LTS-194
Operating System: Windows 10
OS Version: 10.0
Default Encoding: Cp1252
Language: es
Country: CO
--></g></svg>