<?xml version="1.0" encoding="UTF-8" standalone="no"?><svg xmlns="http://www.w3.org/2000/svg" xmlns:xlink="http://www.w3.org/1999/xlink" contentScriptType="application/ecmascript" contentStyleType="text/css" height="793px" preserveAspectRatio="none" style="width:911px;height:793px;" version="1.1" viewBox="0 0 911 793" width="911px" zoomAndPan="magnify"><defs><filter height="300%" id="fuj73igzopnoi" width="300%" x="-1" y="-1"><feGaussianBlur result="blurOut" stdDeviation="2.0"/><feColorMatrix in="blurOut" result="blurOut2" type="matrix" values="0 0 0 0 0 0 0 0 0 0 0 0 0 0 0 0 0 0 .4 0"/><feOffset dx="4.0" dy="4.0" in="blurOut2" result="blurOut3"/><feBlend in="SourceGraphic" in2="blurOut3" mode="normal"/></filter></defs><g><!--cluster co.com.sofka.cargame.infra.services--><polygon fill="#FFFFFF" filter="url(#fuj73igzopnoi)" points="23,171,286,171,293,194.6094,889,194.6094,889,744,23,744,23,171" style="stroke: #000000; stroke-width: 1.5;"/><line style="stroke: #000000; stroke-width: 1.5;" x1="23" x2="293" y1="194.6094" y2="194.6094"/><text fill="#000000" font-family="sans-serif" font-size="14" font-weight="bold" lengthAdjust="spacingAndGlyphs" textLength="257" x="27" y="187.5332">co.com.sofka.cargame.infra.services</text><!--cluster co.com.sofka.cargame.usecase.services--><polygon fill="#FFFFFF" filter="url(#fuj73igzopnoi)" points="22,24,312,24,319,47.6094,818,47.6094,818,138,22,138,22,24" style="stroke: #000000; stroke-width: 1.5;"/><line style="stroke: #000000; stroke-width: 1.5;" x1="22" x2="319" y1="47.6094" y2="47.6094"/><text fill="#000000" font-family="sans-serif" font-size="14" font-weight="bold" lengthAdjust="spacingAndGlyphs" textLength="284" x="26" y="40.5332">co.com.sofka.cargame.usecase.services</text><!--class co.com.sofka.cargame.infra.services.CarrilCarroQueryService--><a href="CarrilCarroQueryService.html" target="_top" xlink:actuate="onRequest" xlink:show="new" xlink:title="CarrilCarroQueryService.html" xlink:type="simple"><rect fill="#FEFECE" filter="url(#fuj73igzopnoi)" height="75.6719" id="co.com.sofka.cargame.infra.services.CarrilCarroQueryService" style="stroke: #A80036; stroke-width: 1.5;" width="301" x="40.5" y="207"/><ellipse cx="120.25" cy="223" fill="#ADD1B2" rx="11" ry="11" style="stroke: #A80036; stroke-width: 1.0;"/><path d="M123.0156,218.875 Q123.1719,218.6563 123.3594,218.5469 Q123.5469,218.4375 123.7656,218.4375 Q124.1406,218.4375 124.375,218.7031 Q124.6094,218.9531 124.6094,219.5625 L124.6094,221.0156 Q124.6094,221.625 124.375,221.8906 Q124.1406,222.1563 123.7656,222.1563 Q123.4219,222.1563 123.2188,221.9531 Q123.0156,221.7656 122.9063,221.25 Q122.8594,220.8906 122.6719,220.7031 Q122.3438,220.3281 121.7344,220.1094 Q121.125,219.8906 120.5,219.8906 Q119.7344,219.8906 119.0938,220.2188 Q118.4688,220.5469 117.9688,221.2969 Q117.4844,222.0469 117.4844,223.0781 L117.4844,224.1719 Q117.4844,225.4063 118.375,226.2344 Q119.2656,227.0469 120.8594,227.0469 Q121.7969,227.0469 122.4531,226.7969 Q122.8438,226.6406 123.2656,226.2031 Q123.5313,225.9375 123.6719,225.8594 Q123.8281,225.7813 124.0313,225.7813 Q124.3594,225.7813 124.6094,226.0469 Q124.875,226.2969 124.875,226.6406 Q124.875,226.9844 124.5313,227.3906 Q124.0313,227.9688 123.2344,228.2969 Q122.1563,228.75 120.8594,228.75 Q119.3438,228.75 118.1406,228.125 Q117.1563,227.625 116.4688,226.5625 Q115.7813,225.4844 115.7813,224.2031 L115.7813,223.0469 Q115.7813,221.7188 116.3906,220.5781 Q117.0156,219.4219 118.1094,218.8125 Q119.2031,218.1875 120.4375,218.1875 Q121.1719,218.1875 121.8125,218.3594 Q122.4688,218.5156 123.0156,218.875 Z "/><text fill="#000000" font-family="sans-serif" font-size="12" lengthAdjust="spacingAndGlyphs" textLength="133" x="140.75" y="227.9102">CarrilCarroQueryService</text><line style="stroke: #A80036; stroke-width: 1.5;" x1="41.5" x2="340.5" y1="239" y2="239"/><line style="stroke: #A80036; stroke-width: 1.5;" x1="41.5" x2="340.5" y1="247" y2="247"/><ellipse cx="51.5" cy="259.418" fill="#84BE84" rx="3" ry="3" style="stroke: #038048; stroke-width: 1.0;"/><text fill="#000000" font-family="sans-serif" font-size="11" lengthAdjust="spacingAndGlyphs" textLength="202" x="60.5" y="262.4189">CarrilCarroQueryService(MongoTemplate)</text><ellipse cx="51.5" cy="273.2539" fill="#84BE84" rx="3" ry="3" style="stroke: #038048; stroke-width: 1.0;"/><text fill="#000000" font-family="sans-serif" font-size="11" lengthAdjust="spacingAndGlyphs" textLength="275" x="60.5" y="276.2549">getCarrosSobreCarriles(JuegoId): List&lt;CarroSobreCarril&gt;</text></a><!--class co.com.sofka.cargame.infra.services.CarrilCarroQueryService.CarroSobreCarrilRecord--><a href="CarrilCarroQueryService.CarroSobreCarrilRecord.html" target="_top" xlink:actuate="onRequest" xlink:show="new" xlink:title="CarrilCarroQueryService.CarroSobreCarrilRecord.html" xlink:type="simple"><rect fill="#FEFECE" filter="url(#fuj73igzopnoi)" height="75.6719" id="co.com.sofka.cargame.infra.services.CarrilCarroQueryService.CarroSobreCarrilRecord" style="stroke: #A80036; stroke-width: 1.5;" width="302" x="39" y="344"/><ellipse cx="54" cy="360" fill="#ADD1B2" rx="11" ry="11" style="stroke: #A80036; stroke-width: 1.0;"/><path d="M56.7656,355.875 Q56.9219,355.6563 57.1094,355.5469 Q57.2969,355.4375 57.5156,355.4375 Q57.8906,355.4375 58.125,355.7031 Q58.3594,355.9531 58.3594,356.5625 L58.3594,358.0156 Q58.3594,358.625 58.125,358.8906 Q57.8906,359.1563 57.5156,359.1563 Q57.1719,359.1563 56.9688,358.9531 Q56.7656,358.7656 56.6563,358.25 Q56.6094,357.8906 56.4219,357.7031 Q56.0938,357.3281 55.4844,357.1094 Q54.875,356.8906 54.25,356.8906 Q53.4844,356.8906 52.8438,357.2188 Q52.2188,357.5469 51.7188,358.2969 Q51.2344,359.0469 51.2344,360.0781 L51.2344,361.1719 Q51.2344,362.4063 52.125,363.2344 Q53.0156,364.0469 54.6094,364.0469 Q55.5469,364.0469 56.2031,363.7969 Q56.5938,363.6406 57.0156,363.2031 Q57.2813,362.9375 57.4219,362.8594 Q57.5781,362.7813 57.7813,362.7813 Q58.1094,362.7813 58.3594,363.0469 Q58.625,363.2969 58.625,363.6406 Q58.625,363.9844 58.2813,364.3906 Q57.7813,364.9688 56.9844,365.2969 Q55.9063,365.75 54.6094,365.75 Q53.0938,365.75 51.8906,365.125 Q50.9063,364.625 50.2188,363.5625 Q49.5313,362.4844 49.5313,361.2031 L49.5313,360.0469 Q49.5313,358.7188 50.1406,357.5781 Q50.7656,356.4219 51.8594,355.8125 Q52.9531,355.1875 54.1875,355.1875 Q54.9219,355.1875 55.5625,355.3594 Q56.2188,355.5156 56.7656,355.875 Z "/><text fill="#000000" font-family="sans-serif" font-size="12" lengthAdjust="spacingAndGlyphs" textLength="270" x="68" y="364.9102">CarrilCarroQueryService.CarroSobreCarrilRecord</text><line style="stroke: #A80036; stroke-width: 1.5;" x1="40" x2="340" y1="376" y2="376"/><line style="stroke: #A80036; stroke-width: 1.5;" x1="40" x2="340" y1="384" y2="384"/><ellipse cx="50" cy="396.418" fill="#84BE84" rx="3" ry="3" style="stroke: #038048; stroke-width: 1.0;"/><text fill="#000000" font-family="sans-serif" font-size="11" lengthAdjust="spacingAndGlyphs" textLength="138" x="59" y="399.4189">getAggregateRootId(): String</text><ellipse cx="50" cy="410.2539" fill="#84BE84" rx="3" ry="3" style="stroke: #038048; stroke-width: 1.0;"/><text fill="#000000" font-family="sans-serif" font-size="11" lengthAdjust="spacingAndGlyphs" textLength="158" x="59" y="413.2549">setAggregateRootId(String): void</text></a><!--class co.com.sofka.cargame.infra.services.CarrilCarroQueryService.CarroSobreCarrilRecord.CarroAgregadoACarrail--><a href="CarrilCarroQueryService.CarroSobreCarrilRecord.CarroAgregadoACarrail.html" target="_top" xlink:actuate="onRequest" xlink:show="new" xlink:title="CarrilCarroQueryService.CarroSobreCarrilRecord.CarroAgregadoACarrail.html" xlink:type="simple"><rect fill="#FEFECE" filter="url(#fuj73igzopnoi)" height="48" id="co.com.sofka.cargame.infra.services.CarrilCarroQueryService.CarroSobreCarrilRecord.CarroAgregadoACarrail" style="stroke: #A80036; stroke-width: 1.5;" width="433" x="39.5" y="512"/><ellipse cx="54.5" cy="528" fill="#ADD1B2" rx="11" ry="11" style="stroke: #A80036; stroke-width: 1.0;"/><path d="M57.2656,523.875 Q57.4219,523.6563 57.6094,523.5469 Q57.7969,523.4375 58.0156,523.4375 Q58.3906,523.4375 58.625,523.7031 Q58.8594,523.9531 58.8594,524.5625 L58.8594,526.0156 Q58.8594,526.625 58.625,526.8906 Q58.3906,527.1563 58.0156,527.1563 Q57.6719,527.1563 57.4688,526.9531 Q57.2656,526.7656 57.1563,526.25 Q57.1094,525.8906 56.9219,525.7031 Q56.5938,525.3281 55.9844,525.1094 Q55.375,524.8906 54.75,524.8906 Q53.9844,524.8906 53.3438,525.2188 Q52.7188,525.5469 52.2188,526.2969 Q51.7344,527.0469 51.7344,528.0781 L51.7344,529.1719 Q51.7344,530.4063 52.625,531.2344 Q53.5156,532.0469 55.1094,532.0469 Q56.0469,532.0469 56.7031,531.7969 Q57.0938,531.6406 57.5156,531.2031 Q57.7813,530.9375 57.9219,530.8594 Q58.0781,530.7813 58.2813,530.7813 Q58.6094,530.7813 58.8594,531.0469 Q59.125,531.2969 59.125,531.6406 Q59.125,531.9844 58.7813,532.3906 Q58.2813,532.9688 57.4844,533.2969 Q56.4063,533.75 55.1094,533.75 Q53.5938,533.75 52.3906,533.125 Q51.4063,532.625 50.7188,531.5625 Q50.0313,530.4844 50.0313,529.2031 L50.0313,528.0469 Q50.0313,526.7188 50.6406,525.5781 Q51.2656,524.4219 52.3594,523.8125 Q53.4531,523.1875 54.6875,523.1875 Q55.4219,523.1875 56.0625,523.3594 Q56.7188,523.5156 57.2656,523.875 Z "/><text fill="#000000" font-family="sans-serif" font-size="12" lengthAdjust="spacingAndGlyphs" textLength="401" x="68.5" y="532.9102">CarrilCarroQueryService.CarroSobreCarrilRecord.CarroAgregadoACarrail</text><line style="stroke: #A80036; stroke-width: 1.5;" x1="40.5" x2="471.5" y1="544" y2="544"/><line style="stroke: #A80036; stroke-width: 1.5;" x1="40.5" x2="471.5" y1="552" y2="552"/></a><!--class co.com.sofka.cargame.infra.services.CarrilCarroQueryService.CarroSobreCarrilRecord.CarroAgregadoACarrail.CarroId--><a href="CarrilCarroQueryService.CarroSobreCarrilRecord.CarroAgregadoACarrail.CarroId.html" target="_top" xlink:actuate="onRequest" xlink:show="new" xlink:title="CarrilCarroQueryService.CarroSobreCarrilRecord.CarroAgregadoACarrail.CarroId.html" xlink:type="simple"><rect fill="#FEFECE" filter="url(#fuj73igzopnoi)" height="75.6719" id="co.com.sofka.cargame.infra.services.CarrilCarroQueryService.CarroSobreCarrilRecord.CarroAgregadoACarrail.CarroId" style="stroke: #A80036; stroke-width: 1.5;" width="477" x="51.5" y="652"/><ellipse cx="66.5" cy="668" fill="#ADD1B2" rx="11" ry="11" style="stroke: #A80036; stroke-width: 1.0;"/><path d="M69.2656,663.875 Q69.4219,663.6563 69.6094,663.5469 Q69.7969,663.4375 70.0156,663.4375 Q70.3906,663.4375 70.625,663.7031 Q70.8594,663.9531 70.8594,664.5625 L70.8594,666.0156 Q70.8594,666.625 70.625,666.8906 Q70.3906,667.1563 70.0156,667.1563 Q69.6719,667.1563 69.4688,666.9531 Q69.2656,666.7656 69.1563,666.25 Q69.1094,665.8906 68.9219,665.7031 Q68.5938,665.3281 67.9844,665.1094 Q67.375,664.8906 66.75,664.8906 Q65.9844,664.8906 65.3438,665.2188 Q64.7188,665.5469 64.2188,666.2969 Q63.7344,667.0469 63.7344,668.0781 L63.7344,669.1719 Q63.7344,670.4063 64.625,671.2344 Q65.5156,672.0469 67.1094,672.0469 Q68.0469,672.0469 68.7031,671.7969 Q69.0938,671.6406 69.5156,671.2031 Q69.7813,670.9375 69.9219,670.8594 Q70.0781,670.7813 70.2813,670.7813 Q70.6094,670.7813 70.8594,671.0469 Q71.125,671.2969 71.125,671.6406 Q71.125,671.9844 70.7813,672.3906 Q70.2813,672.9688 69.4844,673.2969 Q68.4063,673.75 67.1094,673.75 Q65.5938,673.75 64.3906,673.125 Q63.4063,672.625 62.7188,671.5625 Q62.0313,670.4844 62.0313,669.2031 L62.0313,668.0469 Q62.0313,666.7188 62.6406,665.5781 Q63.2656,664.4219 64.3594,663.8125 Q65.4531,663.1875 66.6875,663.1875 Q67.4219,663.1875 68.0625,663.3594 Q68.7188,663.5156 69.2656,663.875 Z "/><text fill="#000000" font-family="sans-serif" font-size="12" lengthAdjust="spacingAndGlyphs" textLength="445" x="80.5" y="672.9102">CarrilCarroQueryService.CarroSobreCarrilRecord.CarroAgregadoACarrail.CarroId</text><line style="stroke: #A80036; stroke-width: 1.5;" x1="52.5" x2="527.5" y1="684" y2="684"/><line style="stroke: #A80036; stroke-width: 1.5;" x1="52.5" x2="527.5" y1="692" y2="692"/><ellipse cx="62.5" cy="704.418" fill="#84BE84" rx="3" ry="3" style="stroke: #038048; stroke-width: 1.0;"/><text fill="#000000" font-family="sans-serif" font-size="11" lengthAdjust="spacingAndGlyphs" textLength="78" x="71.5" y="707.4189">getUuid(): String</text><ellipse cx="62.5" cy="718.2539" fill="#84BE84" rx="3" ry="3" style="stroke: #038048; stroke-width: 1.0;"/><text fill="#000000" font-family="sans-serif" font-size="11" lengthAdjust="spacingAndGlyphs" textLength="98" x="71.5" y="721.2549">setUuid(String): void</text></a><!--class co.com.sofka.cargame.infra.services.CarroQueryService--><a href="CarroQueryService.html" target="_top" xlink:actuate="onRequest" xlink:show="new" xlink:title="CarroQueryService.html" xlink:type="simple"><rect fill="#FEFECE" filter="url(#fuj73igzopnoi)" height="75.6719" id="co.com.sofka.cargame.infra.services.CarroQueryService" style="stroke: #A80036; stroke-width: 1.5;" width="203" x="384.5" y="207"/><ellipse cx="430.25" cy="223" fill="#ADD1B2" rx="11" ry="11" style="stroke: #A80036; stroke-width: 1.0;"/><path d="M433.0156,218.875 Q433.1719,218.6563 433.3594,218.5469 Q433.5469,218.4375 433.7656,218.4375 Q434.1406,218.4375 434.375,218.7031 Q434.6094,218.9531 434.6094,219.5625 L434.6094,221.0156 Q434.6094,221.625 434.375,221.8906 Q434.1406,222.1563 433.7656,222.1563 Q433.4219,222.1563 433.2188,221.9531 Q433.0156,221.7656 432.9063,221.25 Q432.8594,220.8906 432.6719,220.7031 Q432.3438,220.3281 431.7344,220.1094 Q431.125,219.8906 430.5,219.8906 Q429.7344,219.8906 429.0938,220.2188 Q428.4688,220.5469 427.9688,221.2969 Q427.4844,222.0469 427.4844,223.0781 L427.4844,224.1719 Q427.4844,225.4063 428.375,226.2344 Q429.2656,227.0469 430.8594,227.0469 Q431.7969,227.0469 432.4531,226.7969 Q432.8438,226.6406 433.2656,226.2031 Q433.5313,225.9375 433.6719,225.8594 Q433.8281,225.7813 434.0313,225.7813 Q434.3594,225.7813 434.6094,226.0469 Q434.875,226.2969 434.875,226.6406 Q434.875,226.9844 434.5313,227.3906 Q434.0313,227.9688 433.2344,228.2969 Q432.1563,228.75 430.8594,228.75 Q429.3438,228.75 428.1406,228.125 Q427.1563,227.625 426.4688,226.5625 Q425.7813,225.4844 425.7813,224.2031 L425.7813,223.0469 Q425.7813,221.7188 426.3906,220.5781 Q427.0156,219.4219 428.1094,218.8125 Q429.2031,218.1875 430.4375,218.1875 Q431.1719,218.1875 431.8125,218.3594 Q432.4688,218.5156 433.0156,218.875 Z "/><text fill="#000000" font-family="sans-serif" font-size="12" lengthAdjust="spacingAndGlyphs" textLength="103" x="450.75" y="227.9102">CarroQueryService</text><line style="stroke: #A80036; stroke-width: 1.5;" x1="385.5" x2="586.5" y1="239" y2="239"/><line style="stroke: #A80036; stroke-width: 1.5;" x1="385.5" x2="586.5" y1="247" y2="247"/><ellipse cx="395.5" cy="259.418" fill="#84BE84" rx="3" ry="3" style="stroke: #038048; stroke-width: 1.0;"/><text fill="#000000" font-family="sans-serif" font-size="11" lengthAdjust="spacingAndGlyphs" textLength="177" x="404.5" y="262.4189">CarroQueryService(MongoTemplate)</text><ellipse cx="395.5" cy="273.2539" fill="#84BE84" rx="3" ry="3" style="stroke: #038048; stroke-width: 1.0;"/><text fill="#000000" font-family="sans-serif" font-size="11" lengthAdjust="spacingAndGlyphs" textLength="166" x="404.5" y="276.2549">getConductorIdPor(CarroId): String</text></a><!--class co.com.sofka.cargame.infra.services.CarroQueryService.CarroRecord--><a href="CarroQueryService.CarroRecord.html" target="_top" xlink:actuate="onRequest" xlink:show="new" xlink:title="CarroQueryService.CarroRecord.html" xlink:type="simple"><rect fill="#FEFECE" filter="url(#fuj73igzopnoi)" height="75.6719" id="co.com.sofka.cargame.infra.services.CarroQueryService.CarroRecord" style="stroke: #A80036; stroke-width: 1.5;" width="209" x="413.5" y="344"/><ellipse cx="428.5" cy="360" fill="#ADD1B2" rx="11" ry="11" style="stroke: #A80036; stroke-width: 1.0;"/><path d="M431.2656,355.875 Q431.4219,355.6563 431.6094,355.5469 Q431.7969,355.4375 432.0156,355.4375 Q432.3906,355.4375 432.625,355.7031 Q432.8594,355.9531 432.8594,356.5625 L432.8594,358.0156 Q432.8594,358.625 432.625,358.8906 Q432.3906,359.1563 432.0156,359.1563 Q431.6719,359.1563 431.4688,358.9531 Q431.2656,358.7656 431.1563,358.25 Q431.1094,357.8906 430.9219,357.7031 Q430.5938,357.3281 429.9844,357.1094 Q429.375,356.8906 428.75,356.8906 Q427.9844,356.8906 427.3438,357.2188 Q426.7188,357.5469 426.2188,358.2969 Q425.7344,359.0469 425.7344,360.0781 L425.7344,361.1719 Q425.7344,362.4063 426.625,363.2344 Q427.5156,364.0469 429.1094,364.0469 Q430.0469,364.0469 430.7031,363.7969 Q431.0938,363.6406 431.5156,363.2031 Q431.7813,362.9375 431.9219,362.8594 Q432.0781,362.7813 432.2813,362.7813 Q432.6094,362.7813 432.8594,363.0469 Q433.125,363.2969 433.125,363.6406 Q433.125,363.9844 432.7813,364.3906 Q432.2813,364.9688 431.4844,365.2969 Q430.4063,365.75 429.1094,365.75 Q427.5938,365.75 426.3906,365.125 Q425.4063,364.625 424.7188,363.5625 Q424.0313,362.4844 424.0313,361.2031 L424.0313,360.0469 Q424.0313,358.7188 424.6406,357.5781 Q425.2656,356.4219 426.3594,355.8125 Q427.4531,355.1875 428.6875,355.1875 Q429.4219,355.1875 430.0625,355.3594 Q430.7188,355.5156 431.2656,355.875 Z "/><text fill="#000000" font-family="sans-serif" font-size="12" lengthAdjust="spacingAndGlyphs" textLength="177" x="442.5" y="364.9102">CarroQueryService.CarroRecord</text><line style="stroke: #A80036; stroke-width: 1.5;" x1="414.5" x2="621.5" y1="376" y2="376"/><line style="stroke: #A80036; stroke-width: 1.5;" x1="414.5" x2="621.5" y1="384" y2="384"/><ellipse cx="424.5" cy="396.418" fill="#84BE84" rx="3" ry="3" style="stroke: #038048; stroke-width: 1.0;"/><text fill="#000000" font-family="sans-serif" font-size="11" lengthAdjust="spacingAndGlyphs" textLength="94" x="433.5" y="399.4189">getNombre(): String</text><ellipse cx="424.5" cy="410.2539" fill="#84BE84" rx="3" ry="3" style="stroke: #038048; stroke-width: 1.0;"/><text fill="#000000" font-family="sans-serif" font-size="11" lengthAdjust="spacingAndGlyphs" textLength="114" x="433.5" y="413.2549">setNombre(String): void</text></a><!--class co.com.sofka.cargame.infra.services.CarroQueryService.Cedula--><a href="CarroQueryService.Cedula.html" target="_top" xlink:actuate="onRequest" xlink:show="new" xlink:title="CarroQueryService.Cedula.html" xlink:type="simple"><rect fill="#FEFECE" filter="url(#fuj73igzopnoi)" height="75.6719" id="co.com.sofka.cargame.infra.services.CarroQueryService.Cedula" style="stroke: #A80036; stroke-width: 1.5;" width="178" x="508" y="498"/><ellipse cx="523" cy="514" fill="#ADD1B2" rx="11" ry="11" style="stroke: #A80036; stroke-width: 1.0;"/><path d="M525.7656,509.875 Q525.9219,509.6563 526.1094,509.5469 Q526.2969,509.4375 526.5156,509.4375 Q526.8906,509.4375 527.125,509.7031 Q527.3594,509.9531 527.3594,510.5625 L527.3594,512.0156 Q527.3594,512.625 527.125,512.8906 Q526.8906,513.1563 526.5156,513.1563 Q526.1719,513.1563 525.9688,512.9531 Q525.7656,512.7656 525.6563,512.25 Q525.6094,511.8906 525.4219,511.7031 Q525.0938,511.3281 524.4844,511.1094 Q523.875,510.8906 523.25,510.8906 Q522.4844,510.8906 521.8438,511.2188 Q521.2188,511.5469 520.7188,512.2969 Q520.2344,513.0469 520.2344,514.0781 L520.2344,515.1719 Q520.2344,516.4063 521.125,517.2344 Q522.0156,518.0469 523.6094,518.0469 Q524.5469,518.0469 525.2031,517.7969 Q525.5938,517.6406 526.0156,517.2031 Q526.2813,516.9375 526.4219,516.8594 Q526.5781,516.7813 526.7813,516.7813 Q527.1094,516.7813 527.3594,517.0469 Q527.625,517.2969 527.625,517.6406 Q527.625,517.9844 527.2813,518.3906 Q526.7813,518.9688 525.9844,519.2969 Q524.9063,519.75 523.6094,519.75 Q522.0938,519.75 520.8906,519.125 Q519.9063,518.625 519.2188,517.5625 Q518.5313,516.4844 518.5313,515.2031 L518.5313,514.0469 Q518.5313,512.7188 519.1406,511.5781 Q519.7656,510.4219 520.8594,509.8125 Q521.9531,509.1875 523.1875,509.1875 Q523.9219,509.1875 524.5625,509.3594 Q525.2188,509.5156 525.7656,509.875 Z "/><text fill="#000000" font-family="sans-serif" font-size="12" lengthAdjust="spacingAndGlyphs" textLength="146" x="537" y="518.9102">CarroQueryService.Cedula</text><line style="stroke: #A80036; stroke-width: 1.5;" x1="509" x2="685" y1="530" y2="530"/><line style="stroke: #A80036; stroke-width: 1.5;" x1="509" x2="685" y1="538" y2="538"/><ellipse cx="519" cy="550.418" fill="#84BE84" rx="3" ry="3" style="stroke: #038048; stroke-width: 1.0;"/><text fill="#000000" font-family="sans-serif" font-size="11" lengthAdjust="spacingAndGlyphs" textLength="78" x="528" y="553.4189">getUuid(): String</text><ellipse cx="519" cy="564.2539" fill="#84BE84" rx="3" ry="3" style="stroke: #038048; stroke-width: 1.0;"/><text fill="#000000" font-family="sans-serif" font-size="11" lengthAdjust="spacingAndGlyphs" textLength="98" x="528" y="567.2549">setUuid(String): void</text></a><!--class co.com.sofka.cargame.infra.services.JuegoQueryService--><a href="JuegoQueryService.html" target="_top" xlink:actuate="onRequest" xlink:show="new" xlink:title="JuegoQueryService.html" xlink:type="simple"><rect fill="#FEFECE" filter="url(#fuj73igzopnoi)" height="75.6719" id="co.com.sofka.cargame.infra.services.JuegoQueryService" style="stroke: #A80036; stroke-width: 1.5;" width="205" x="642.5" y="207"/><ellipse cx="687.75" cy="223" fill="#ADD1B2" rx="11" ry="11" style="stroke: #A80036; stroke-width: 1.0;"/><path d="M690.5156,218.875 Q690.6719,218.6563 690.8594,218.5469 Q691.0469,218.4375 691.2656,218.4375 Q691.6406,218.4375 691.875,218.7031 Q692.1094,218.9531 692.1094,219.5625 L692.1094,221.0156 Q692.1094,221.625 691.875,221.8906 Q691.6406,222.1563 691.2656,222.1563 Q690.9219,222.1563 690.7188,221.9531 Q690.5156,221.7656 690.4063,221.25 Q690.3594,220.8906 690.1719,220.7031 Q689.8438,220.3281 689.2344,220.1094 Q688.625,219.8906 688,219.8906 Q687.2344,219.8906 686.5938,220.2188 Q685.9688,220.5469 685.4688,221.2969 Q684.9844,222.0469 684.9844,223.0781 L684.9844,224.1719 Q684.9844,225.4063 685.875,226.2344 Q686.7656,227.0469 688.3594,227.0469 Q689.2969,227.0469 689.9531,226.7969 Q690.3438,226.6406 690.7656,226.2031 Q691.0313,225.9375 691.1719,225.8594 Q691.3281,225.7813 691.5313,225.7813 Q691.8594,225.7813 692.1094,226.0469 Q692.375,226.2969 692.375,226.6406 Q692.375,226.9844 692.0313,227.3906 Q691.5313,227.9688 690.7344,228.2969 Q689.6563,228.75 688.3594,228.75 Q686.8438,228.75 685.6406,228.125 Q684.6563,227.625 683.9688,226.5625 Q683.2813,225.4844 683.2813,224.2031 L683.2813,223.0469 Q683.2813,221.7188 683.8906,220.5781 Q684.5156,219.4219 685.6094,218.8125 Q686.7031,218.1875 687.9375,218.1875 Q688.6719,218.1875 689.3125,218.3594 Q689.9688,218.5156 690.5156,218.875 Z "/><text fill="#000000" font-family="sans-serif" font-size="12" lengthAdjust="spacingAndGlyphs" textLength="106" x="708.25" y="227.9102">JuegoQueryService</text><line style="stroke: #A80036; stroke-width: 1.5;" x1="643.5" x2="846.5" y1="239" y2="239"/><line style="stroke: #A80036; stroke-width: 1.5;" x1="643.5" x2="846.5" y1="247" y2="247"/><ellipse cx="653.5" cy="259.418" fill="#84BE84" rx="3" ry="3" style="stroke: #038048; stroke-width: 1.0;"/><text fill="#000000" font-family="sans-serif" font-size="11" lengthAdjust="spacingAndGlyphs" textLength="179" x="662.5" y="262.4189">JuegoQueryService(MongoTemplate)</text><ellipse cx="653.5" cy="273.2539" fill="#84BE84" rx="3" ry="3" style="stroke: #038048; stroke-width: 1.0;"/><text fill="#000000" font-family="sans-serif" font-size="11" lengthAdjust="spacingAndGlyphs" textLength="149" x="662.5" y="276.2549">getKilometros(JuegoId): Integer</text></a><!--class co.com.sofka.cargame.infra.services.JuegoQueryService.JuegoRecord--><a href="JuegoQueryService.JuegoRecord.html" target="_top" xlink:actuate="onRequest" xlink:show="new" xlink:title="JuegoQueryService.JuegoRecord.html" xlink:type="simple"><rect fill="#FEFECE" filter="url(#fuj73igzopnoi)" height="75.6719" id="co.com.sofka.cargame.infra.services.JuegoQueryService.JuegoRecord" style="stroke: #A80036; stroke-width: 1.5;" width="215" x="657.5" y="344"/><ellipse cx="672.5" cy="360" fill="#ADD1B2" rx="11" ry="11" style="stroke: #A80036; stroke-width: 1.0;"/><path d="M675.2656,355.875 Q675.4219,355.6563 675.6094,355.5469 Q675.7969,355.4375 676.0156,355.4375 Q676.3906,355.4375 676.625,355.7031 Q676.8594,355.9531 676.8594,356.5625 L676.8594,358.0156 Q676.8594,358.625 676.625,358.8906 Q676.3906,359.1563 676.0156,359.1563 Q675.6719,359.1563 675.4688,358.9531 Q675.2656,358.7656 675.1563,358.25 Q675.1094,357.8906 674.9219,357.7031 Q674.5938,357.3281 673.9844,357.1094 Q673.375,356.8906 672.75,356.8906 Q671.9844,356.8906 671.3438,357.2188 Q670.7188,357.5469 670.2188,358.2969 Q669.7344,359.0469 669.7344,360.0781 L669.7344,361.1719 Q669.7344,362.4063 670.625,363.2344 Q671.5156,364.0469 673.1094,364.0469 Q674.0469,364.0469 674.7031,363.7969 Q675.0938,363.6406 675.5156,363.2031 Q675.7813,362.9375 675.9219,362.8594 Q676.0781,362.7813 676.2813,362.7813 Q676.6094,362.7813 676.8594,363.0469 Q677.125,363.2969 677.125,363.6406 Q677.125,363.9844 676.7813,364.3906 Q676.2813,364.9688 675.4844,365.2969 Q674.4063,365.75 673.1094,365.75 Q671.5938,365.75 670.3906,365.125 Q669.4063,364.625 668.7188,363.5625 Q668.0313,362.4844 668.0313,361.2031 L668.0313,360.0469 Q668.0313,358.7188 668.6406,357.5781 Q669.2656,356.4219 670.3594,355.8125 Q671.4531,355.1875 672.6875,355.1875 Q673.4219,355.1875 674.0625,355.3594 Q674.7188,355.5156 675.2656,355.875 Z "/><text fill="#000000" font-family="sans-serif" font-size="12" lengthAdjust="spacingAndGlyphs" textLength="183" x="686.5" y="364.9102">JuegoQueryService.JuegoRecord</text><line style="stroke: #A80036; stroke-width: 1.5;" x1="658.5" x2="871.5" y1="376" y2="376"/><line style="stroke: #A80036; stroke-width: 1.5;" x1="658.5" x2="871.5" y1="384" y2="384"/><ellipse cx="668.5" cy="396.418" fill="#84BE84" rx="3" ry="3" style="stroke: #038048; stroke-width: 1.0;"/><text fill="#000000" font-family="sans-serif" font-size="11" lengthAdjust="spacingAndGlyphs" textLength="75" x="677.5" y="399.4189">getPista(): Pista</text><ellipse cx="668.5" cy="410.2539" fill="#84BE84" rx="3" ry="3" style="stroke: #038048; stroke-width: 1.0;"/><text fill="#000000" font-family="sans-serif" font-size="11" lengthAdjust="spacingAndGlyphs" textLength="95" x="677.5" y="413.2549">setPista(Pista): void</text></a><!--class co.com.sofka.cargame.usecase.services.CarrilCarroService--><a href="../../usecase/services/CarrilCarroService.html" target="_top" xlink:actuate="onRequest" xlink:show="new" xlink:title="../../usecase/services/CarrilCarroService.html" xlink:type="simple"><rect fill="#FEFECE" filter="url(#fuj73igzopnoi)" height="61.8359" id="co.com.sofka.cargame.usecase.services.CarrilCarroService" style="stroke: #A80036; stroke-width: 1.5;" width="314" x="38" y="60"/><ellipse cx="139.75" cy="76" fill="#B4A7E5" rx="11" ry="11" style="stroke: #A80036; stroke-width: 1.0;"/><path d="M140.7031,72.6406 L140.7031,79.2969 L142.4219,79.2969 Q143.0313,79.2969 143.2969,79.5313 Q143.5625,79.7656 143.5625,80.1563 Q143.5625,80.5313 143.2969,80.7656 Q143.0313,81 142.4219,81 L137.2813,81 Q136.6719,81 136.4063,80.7656 Q136.1406,80.5313 136.1406,80.1406 Q136.1406,79.7656 136.4063,79.5313 Q136.6719,79.2969 137.2813,79.2969 L139,79.2969 L139,72.6406 L137.2813,72.6406 Q136.6719,72.6406 136.4063,72.4063 Q136.1406,72.1719 136.1406,71.7813 Q136.1406,71.4063 136.4063,71.1719 Q136.6719,70.9375 137.2813,70.9375 L142.4219,70.9375 Q143.0313,70.9375 143.2969,71.1719 Q143.5625,71.4063 143.5625,71.7813 Q143.5625,72.1719 143.2969,72.4063 Q143.0313,72.6406 142.4219,72.6406 L140.7031,72.6406 Z "/><text fill="#000000" font-family="sans-serif" font-size="12" font-style="italic" lengthAdjust="spacingAndGlyphs" textLength="102" x="160.25" y="80.9102">CarrilCarroService</text><line style="stroke: #A80036; stroke-width: 1.5;" x1="39" x2="351" y1="92" y2="92"/><line style="stroke: #A80036; stroke-width: 1.5;" x1="39" x2="351" y1="100" y2="100"/><ellipse cx="49" cy="112.418" fill="#84BE84" rx="3" ry="3" style="stroke: #038048; stroke-width: 1.0;"/><text fill="#000000" font-family="sans-serif" font-size="11" font-style="italic" lengthAdjust="spacingAndGlyphs" textLength="288" x="58" y="115.4189">getCarrosSobreCarriles(JuegoId): List&lt;CarroSobreCarril&gt;</text></a><!--class co.com.sofka.cargame.usecase.services.CarroService--><a href="../../usecase/services/CarroService.html" target="_top" xlink:actuate="onRequest" xlink:show="new" xlink:title="../../usecase/services/CarroService.html" xlink:type="simple"><rect fill="#FEFECE" filter="url(#fuj73igzopnoi)" height="61.8359" id="co.com.sofka.cargame.usecase.services.CarroService" style="stroke: #A80036; stroke-width: 1.5;" width="198" x="387" y="60"/><ellipse cx="445.75" cy="76" fill="#B4A7E5" rx="11" ry="11" style="stroke: #A80036; stroke-width: 1.0;"/><path d="M446.7031,72.6406 L446.7031,79.2969 L448.4219,79.2969 Q449.0313,79.2969 449.2969,79.5313 Q449.5625,79.7656 449.5625,80.1563 Q449.5625,80.5313 449.2969,80.7656 Q449.0313,81 448.4219,81 L443.2813,81 Q442.6719,81 442.4063,80.7656 Q442.1406,80.5313 442.1406,80.1406 Q442.1406,79.7656 442.4063,79.5313 Q442.6719,79.2969 443.2813,79.2969 L445,79.2969 L445,72.6406 L443.2813,72.6406 Q442.6719,72.6406 442.4063,72.4063 Q442.1406,72.1719 442.1406,71.7813 Q442.1406,71.4063 442.4063,71.1719 Q442.6719,70.9375 443.2813,70.9375 L448.4219,70.9375 Q449.0313,70.9375 449.2969,71.1719 Q449.5625,71.4063 449.5625,71.7813 Q449.5625,72.1719 449.2969,72.4063 Q449.0313,72.6406 448.4219,72.6406 L446.7031,72.6406 Z "/><text fill="#000000" font-family="sans-serif" font-size="12" font-style="italic" lengthAdjust="spacingAndGlyphs" textLength="72" x="466.25" y="80.9102">CarroService</text><line style="stroke: #A80036; stroke-width: 1.5;" x1="388" x2="584" y1="92" y2="92"/><line style="stroke: #A80036; stroke-width: 1.5;" x1="388" x2="584" y1="100" y2="100"/><ellipse cx="398" cy="112.418" fill="#84BE84" rx="3" ry="3" style="stroke: #038048; stroke-width: 1.0;"/><text fill="#000000" font-family="sans-serif" font-size="11" font-style="italic" lengthAdjust="spacingAndGlyphs" textLength="172" x="407" y="115.4189">getConductorIdPor(CarroId): String</text></a><!--class co.com.sofka.cargame.usecase.services.JuegoService--><a href="../../usecase/services/JuegoService.html" target="_top" xlink:actuate="onRequest" xlink:show="new" xlink:title="../../usecase/services/JuegoService.html" xlink:type="simple"><rect fill="#FEFECE" filter="url(#fuj73igzopnoi)" height="61.8359" id="co.com.sofka.cargame.usecase.services.JuegoService" style="stroke: #A80036; stroke-width: 1.5;" width="181" x="620.5" y="60"/><ellipse cx="669.25" cy="76" fill="#B4A7E5" rx="11" ry="11" style="stroke: #A80036; stroke-width: 1.0;"/><path d="M670.2031,72.6406 L670.2031,79.2969 L671.9219,79.2969 Q672.5313,79.2969 672.7969,79.5313 Q673.0625,79.7656 673.0625,80.1563 Q673.0625,80.5313 672.7969,80.7656 Q672.5313,81 671.9219,81 L666.7813,81 Q666.1719,81 665.9063,80.7656 Q665.6406,80.5313 665.6406,80.1406 Q665.6406,79.7656 665.9063,79.5313 Q666.1719,79.2969 666.7813,79.2969 L668.5,79.2969 L668.5,72.6406 L666.7813,72.6406 Q666.1719,72.6406 665.9063,72.4063 Q665.6406,72.1719 665.6406,71.7813 Q665.6406,71.4063 665.9063,71.1719 Q666.1719,70.9375 666.7813,70.9375 L671.9219,70.9375 Q672.5313,70.9375 672.7969,71.1719 Q673.0625,71.4063 673.0625,71.7813 Q673.0625,72.1719 672.7969,72.4063 Q672.5313,72.6406 671.9219,72.6406 L670.2031,72.6406 Z "/><text fill="#000000" font-family="sans-serif" font-size="12" font-style="italic" lengthAdjust="spacingAndGlyphs" textLength="75" x="689.75" y="80.9102">JuegoService</text><line style="stroke: #A80036; stroke-width: 1.5;" x1="621.5" x2="800.5" y1="92" y2="92"/><line style="stroke: #A80036; stroke-width: 1.5;" x1="621.5" x2="800.5" y1="100" y2="100"/><ellipse cx="631.5" cy="112.418" fill="#84BE84" rx="3" ry="3" style="stroke: #038048; stroke-width: 1.0;"/><text fill="#000000" font-family="sans-serif" font-size="11" font-style="italic" lengthAdjust="spacingAndGlyphs" textLength="155" x="640.5" y="115.4189">getKilometros(JuegoId): Integer</text></a><!--link co.com.sofka.cargame.usecase.services.CarrilCarroService to co.com.sofka.cargame.infra.services.CarrilCarroQueryService--><path d="M193.68,142.19 C193.12,163.26 192.49,187.32 191.98,206.77 " fill="none" id="co.com.sofka.cargame.usecase.services.CarrilCarroService-co.com.sofka.cargame.infra.services.CarrilCarroQueryService" style="stroke: #A80036; stroke-width: 1.0; stroke-dasharray: 7.0,7.0;"/><polygon fill="none" points="186.69,141.84,194.21,122.03,200.68,142.21,186.69,141.84" style="stroke: #A80036; stroke-width: 1.0;"/><!--link co.com.sofka.cargame.infra.services.CarrilCarroQueryService to co.com.sofka.cargame.infra.services.CarrilCarroQueryService.CarroSobreCarrilRecord--><path d="M190.61,298.51 C190.5,313.66 190.38,329.87 190.28,343.87 " fill="none" id="co.com.sofka.cargame.infra.services.CarrilCarroQueryService-co.com.sofka.cargame.infra.services.CarrilCarroQueryService.CarroSobreCarrilRecord" style="stroke: #A80036; stroke-width: 1.0;"/><ellipse cx="190.659" cy="291.2498" fill="#FFFFFF" rx="8" ry="8" style="stroke: #A80036; stroke-width: 1.0;"/><line style="stroke: #A80036; stroke-width: 1.0;" x1="190.5981" x2="190.72" y1="299.2495" y2="283.25"/><line style="stroke: #A80036; stroke-width: 1.0;" x1="182.6593" x2="198.6588" y1="291.1888" y2="291.3107"/><!--link co.com.sofka.cargame.infra.services.CarrilCarroQueryService.CarroSobreCarrilRecord to co.com.sofka.cargame.infra.services.CarrilCarroQueryService.CarroSobreCarrilRecord.CarroAgregadoACarrail--><path d="M157.26,420.38 C148.09,435.42 142.65,452.77 151,468 C160.63,485.57 177.04,499.2 194.07,509.43 " fill="none" id="co.com.sofka.cargame.infra.services.CarrilCarroQueryService.CarroSobreCarrilRecord-co.com.sofka.cargame.infra.services.CarrilCarroQueryService.CarroSobreCarrilRecord.CarroAgregadoACarrail" style="stroke: #A80036; stroke-width: 1.0;"/><polygon fill="#A80036" points="198.4,511.96,192.6464,503.9665,194.0827,509.438,188.6112,510.8743,198.4,511.96" style="stroke: #A80036; stroke-width: 1.0;"/><text fill="#000000" font-family="sans-serif" font-size="13" lengthAdjust="spacingAndGlyphs" textLength="130" x="152" y="464.4951">carroAgregadoACarrail</text><text fill="#000000" font-family="sans-serif" font-size="13" lengthAdjust="spacingAndGlyphs" textLength="5" x="177.9994" y="501.2899">*</text><!--link co.com.sofka.cargame.infra.services.CarrilCarroQueryService.CarroSobreCarrilRecord to co.com.sofka.cargame.infra.services.CarrilCarroQueryService.CarroSobreCarrilRecord.CarroAgregadoACarrail--><path d="M273.2,430.85 C278.61,436.66 283.35,443.04 287,450 C297.51,470.03 286.39,494.42 274.64,511.93 " fill="none" id="co.com.sofka.cargame.infra.services.CarrilCarroQueryService.CarroSobreCarrilRecord-co.com.sofka.cargame.infra.services.CarrilCarroQueryService.CarroSobreCarrilRecord.CarroAgregadoACarrail-1" style="stroke: #A80036; stroke-width: 1.0;"/><ellipse cx="267.872" cy="425.8367" fill="#FFFFFF" rx="8" ry="8" style="stroke: #A80036; stroke-width: 1.0;"/><line style="stroke: #A80036; stroke-width: 1.0;" x1="273.694" x2="262.05" y1="431.3234" y2="420.35"/><line style="stroke: #A80036; stroke-width: 1.0;" x1="262.3853" x2="273.3587" y1="431.6587" y2="420.0147"/><!--link co.com.sofka.cargame.infra.services.CarrilCarroQueryService.CarroSobreCarrilRecord.CarroAgregadoACarrail to co.com.sofka.cargame.infra.services.CarrilCarroQueryService.CarroSobreCarrilRecord.CarroAgregadoACarrail.CarroId--><path d="M248.32,560.16 C243.75,577.51 239.91,601.64 246,622 C248.62,630.77 252.81,639.47 257.57,647.54 " fill="none" id="co.com.sofka.cargame.infra.services.CarrilCarroQueryService.CarroSobreCarrilRecord.CarroAgregadoACarrail-co.com.sofka.cargame.infra.services.CarrilCarroQueryService.CarroSobreCarrilRecord.CarroAgregadoACarrail.CarroId" style="stroke: #A80036; stroke-width: 1.0;"/><polygon fill="#A80036" points="260.27,651.95,258.9835,642.1855,257.6599,647.6854,252.16,646.3617,260.27,651.95" style="stroke: #A80036; stroke-width: 1.0;"/><text fill="#000000" font-family="sans-serif" font-size="13" lengthAdjust="spacingAndGlyphs" textLength="39" x="247" y="618.4951">carroId</text><!--link co.com.sofka.cargame.infra.services.CarrilCarroQueryService.CarroSobreCarrilRecord.CarroAgregadoACarrail to co.com.sofka.cargame.infra.services.CarrilCarroQueryService.CarroSobreCarrilRecord.CarroAgregadoACarrail.CarroId--><path d="M278.98,573.31 C283.93,582.93 288.44,593.55 291,604 C294.76,619.34 295.21,636.7 294.45,651.72 " fill="none" id="co.com.sofka.cargame.infra.services.CarrilCarroQueryService.CarroSobreCarrilRecord.CarroAgregadoACarrail-co.com.sofka.cargame.infra.services.CarrilCarroQueryService.CarroSobreCarrilRecord.CarroAgregadoACarrail.CarroId-1" style="stroke: #A80036; stroke-width: 1.0;"/><ellipse cx="275.49" cy="567.055" fill="#FFFFFF" rx="8" ry="8" style="stroke: #A80036; stroke-width: 1.0;"/><line style="stroke: #A80036; stroke-width: 1.0;" x1="279.39" x2="271.59" y1="574.04" y2="560.07"/><line style="stroke: #A80036; stroke-width: 1.0;" x1="268.505" x2="282.475" y1="570.955" y2="563.155"/><!--link co.com.sofka.cargame.usecase.services.CarroService to co.com.sofka.cargame.infra.services.CarroQueryService--><path d="M486,142.19 C486,163.26 486,187.32 486,206.77 " fill="none" id="co.com.sofka.cargame.usecase.services.CarroService-co.com.sofka.cargame.infra.services.CarroQueryService" style="stroke: #A80036; stroke-width: 1.0; stroke-dasharray: 7.0,7.0;"/><polygon fill="none" points="479,142.03,486,122.03,493,142.03,479,142.03" style="stroke: #A80036; stroke-width: 1.0;"/><!--link co.com.sofka.cargame.infra.services.CarroQueryService to co.com.sofka.cargame.infra.services.CarroQueryService.CarroRecord--><path d="M498.33,298.03 C501.96,313.32 505.85,329.72 509.2,343.87 " fill="none" id="co.com.sofka.cargame.infra.services.CarroQueryService-co.com.sofka.cargame.infra.services.CarroQueryService.CarroRecord" style="stroke: #A80036; stroke-width: 1.0;"/><ellipse cx="496.6734" cy="291.0347" fill="#FFFFFF" rx="8" ry="8" style="stroke: #A80036; stroke-width: 1.0;"/><line style="stroke: #A80036; stroke-width: 1.0;" x1="498.5167" x2="494.83" y1="298.8195" y2="283.25"/><line style="stroke: #A80036; stroke-width: 1.0;" x1="488.8886" x2="504.4581" y1="292.8781" y2="289.1914"/><!--link co.com.sofka.cargame.infra.services.CarroQueryService.CarroRecord to co.com.sofka.cargame.infra.services.CarroQueryService.Cedula--><path d="M537.33,420.18 C548.85,442.35 563.49,470.53 575.4,493.43 " fill="none" id="co.com.sofka.cargame.infra.services.CarroQueryService.CarroRecord-co.com.sofka.cargame.infra.services.CarroQueryService.Cedula" style="stroke: #A80036; stroke-width: 1.0;"/><polygon fill="#A80036" points="577.74,497.94,577.1167,488.1109,575.4242,493.5086,570.0265,491.8161,577.74,497.94" style="stroke: #A80036; stroke-width: 1.0;"/><text fill="#000000" font-family="sans-serif" font-size="13" lengthAdjust="spacingAndGlyphs" textLength="38" x="560" y="464.4951">cedula</text><!--link co.com.sofka.cargame.infra.services.CarroQueryService to co.com.sofka.cargame.infra.services.CarroQueryService.Cedula--><path d="M428.82,294.16 C415.51,308.67 403.14,325.66 396,344 C383.74,375.47 379.05,390.78 396,420 C409.61,443.48 464.77,474.17 513.86,497.95 " fill="none" id="co.com.sofka.cargame.infra.services.CarroQueryService-co.com.sofka.cargame.infra.services.CarroQueryService.Cedula" style="stroke: #A80036; stroke-width: 1.0;"/><ellipse cx="434.036" cy="288.8088" fill="#FFFFFF" rx="8" ry="8" style="stroke: #A80036; stroke-width: 1.0;"/><line style="stroke: #A80036; stroke-width: 1.0;" x1="428.452" x2="439.62" y1="294.5375" y2="283.08"/><line style="stroke: #A80036; stroke-width: 1.0;" x1="428.3072" x2="439.7647" y1="283.2247" y2="294.3928"/><!--link co.com.sofka.cargame.usecase.services.JuegoService to co.com.sofka.cargame.infra.services.JuegoQueryService--><path d="M722.15,141.86 C726.88,163.01 732.3,187.22 736.67,206.77 " fill="none" id="co.com.sofka.cargame.usecase.services.JuegoService-co.com.sofka.cargame.infra.services.JuegoQueryService" style="stroke: #A80036; stroke-width: 1.0; stroke-dasharray: 7.0,7.0;"/><polygon fill="none" points="715.25,143.08,717.72,122.03,728.91,140.02,715.25,143.08" style="stroke: #A80036; stroke-width: 1.0;"/><!--link co.com.sofka.cargame.infra.services.JuegoQueryService to co.com.sofka.cargame.infra.services.JuegoQueryService.JuegoRecord--><path d="M752.78,298.51 C755.02,313.66 757.43,329.87 759.5,343.87 " fill="none" id="co.com.sofka.cargame.infra.services.JuegoQueryService-co.com.sofka.cargame.infra.services.JuegoQueryService.JuegoRecord" style="stroke: #A80036; stroke-width: 1.0;"/><ellipse cx="751.6855" cy="291.1646" fill="#FFFFFF" rx="8" ry="8" style="stroke: #A80036; stroke-width: 1.0;"/><line style="stroke: #A80036; stroke-width: 1.0;" x1="752.851" x2="750.52" y1="299.0793" y2="283.25"/><line style="stroke: #A80036; stroke-width: 1.0;" x1="743.7708" x2="759.6001" y1="292.3301" y2="289.9992"/><text fill="#888888" font-family="sans-serif" font-size="10" lengthAdjust="spacingAndGlyphs" textLength="190" x="366.5" y="780.3809">UMLDoclet 2.0.10, PlantUML 1.2019.08</text><!--
@startuml
    namespace co.com.sofka.cargame.infra.services {

        class CarrilCarroQueryService [[CarrilCarroQueryService.html]] {
            +CarrilCarroQueryService(MongoTemplate)
            +getCarrosSobreCarriles(JuegoId): List<CarroSobreCarril>
        }

        class co.com.sofka.cargame.infra.services.CarrilCarroQueryService.CarroSobreCarrilRecord [[CarrilCarroQueryService.CarroSobreCarrilRecord.html]] {
            +getAggregateRootId(): String
            +setAggregateRootId(String): void
        }

        class co.com.sofka.cargame.infra.services.CarrilCarroQueryService.CarroSobreCarrilRecord.CarroAgregadoACarrail [[CarrilCarroQueryService.CarroSobreCarrilRecord.CarroAgregadoACarrail.html]] {
        }

        class co.com.sofka.cargame.infra.services.CarrilCarroQueryService.CarroSobreCarrilRecord.CarroAgregadoACarrail.CarroId [[CarrilCarroQueryService.CarroSobreCarrilRecord.CarroAgregadoACarrail.CarroId.html]] {
            +getUuid(): String
            +setUuid(String): void
        }

        class CarroQueryService [[CarroQueryService.html]] {
            +CarroQueryService(MongoTemplate)
            +getConductorIdPor(CarroId): String
        }

        class co.com.sofka.cargame.infra.services.CarroQueryService.CarroRecord [[CarroQueryService.CarroRecord.html]] {
            +getNombre(): String
            +setNombre(String): void
        }

        class co.com.sofka.cargame.infra.services.CarroQueryService.Cedula [[CarroQueryService.Cedula.html]] {
            +getUuid(): String
            +setUuid(String): void
        }

        class JuegoQueryService [[JuegoQueryService.html]] {
            +JuegoQueryService(MongoTemplate)
            +getKilometros(JuegoId): Integer
        }

        class co.com.sofka.cargame.infra.services.JuegoQueryService.JuegoRecord [[JuegoQueryService.JuegoRecord.html]] {
            +getPista(): Pista
            +setPista(Pista): void
        }

        co.com.sofka.cargame.usecase.services.CarrilCarroService <|.. CarrilCarroQueryService
        CarrilCarroQueryService +- - co.com.sofka.cargame.infra.services.CarrilCarroQueryService.CarroSobreCarrilRecord
        co.com.sofka.cargame.infra.services.CarrilCarroQueryService.CarroSobreCarrilRecord - -> "*" co.com.sofka.cargame.infra.services.CarrilCarroQueryService.CarroSobreCarrilRecord.CarroAgregadoACarrail: carroAgregadoACarrail
        co.com.sofka.cargame.infra.services.CarrilCarroQueryService.CarroSobreCarrilRecord +- - co.com.sofka.cargame.infra.services.CarrilCarroQueryService.CarroSobreCarrilRecord.CarroAgregadoACarrail
        co.com.sofka.cargame.infra.services.CarrilCarroQueryService.CarroSobreCarrilRecord.CarroAgregadoACarrail - -> co.com.sofka.cargame.infra.services.CarrilCarroQueryService.CarroSobreCarrilRecord.CarroAgregadoACarrail.CarroId: carroId
        co.com.sofka.cargame.infra.services.CarrilCarroQueryService.CarroSobreCarrilRecord.CarroAgregadoACarrail +- - co.com.sofka.cargame.infra.services.CarrilCarroQueryService.CarroSobreCarrilRecord.CarroAgregadoACarrail.CarroId
        co.com.sofka.cargame.usecase.services.CarroService <|.. CarroQueryService
        CarroQueryService +- - co.com.sofka.cargame.infra.services.CarroQueryService.CarroRecord
        co.com.sofka.cargame.infra.services.CarroQueryService.CarroRecord - -> co.com.sofka.cargame.infra.services.CarroQueryService.Cedula: cedula
        CarroQueryService +- - co.com.sofka.cargame.infra.services.CarroQueryService.Cedula
        co.com.sofka.cargame.usecase.services.JuegoService <|.. JuegoQueryService
        JuegoQueryService +- - co.com.sofka.cargame.infra.services.JuegoQueryService.JuegoRecord
    }

    namespace co.com.sofka.cargame.usecase.services {
        interface CarrilCarroService [[../../usecase/services/CarrilCarroService.html]] {
            {abstract} +getCarrosSobreCarriles(JuegoId): List<CarroSobreCarril>
        }
        interface CarroService [[../../usecase/services/CarroService.html]] {
            {abstract} +getConductorIdPor(CarroId): String
        }
        interface JuegoService [[../../usecase/services/JuegoService.html]] {
            {abstract} +getKilometros(JuegoId): Integer
        }
    }

    center footer UMLDoclet 2.0.10, PlantUML 1.2019.08
@enduml

PlantUML version 1.2019.08(Sat Jul 13 14:25:14 COT 2019)
(APACHE source distribution)
Java Runtime: Java(TM) SE Runtime Environment
JVM: Java HotSpot(TM) 64-Bit Server VM
Java Version: 11.0.11+9-LTS-194
Operating System: Windows 10
OS Version: 10.0
Default Encoding: Cp1252
Language: es
Country: CO
--></g></svg>