<?xml version="1.0" encoding="UTF-8" standalone="no"?><svg xmlns="http://www.w3.org/2000/svg" xmlns:xlink="http://www.w3.org/1999/xlink" contentScriptType="application/ecmascript" contentStyleType="text/css" height="203px" preserveAspectRatio="none" style="width:222px;height:203px;" version="1.1" viewBox="0 0 222 203" width="222px" zoomAndPan="magnify"><defs><filter height="300%" id="f577pbzh6wdvx" width="300%" x="-1" y="-1"><feGaussianBlur result="blurOut" stdDeviation="2.0"/><feColorMatrix in="blurOut" result="blurOut2" type="matrix" values="0 0 0 0 0 0 0 0 0 0 0 0 0 0 0 0 0 0 .4 0"/><feOffset dx="4.0" dy="4.0" in="blurOut2" result="blurOut3"/><feBlend in="SourceGraphic" in2="blurOut3" mode="normal"/></filter></defs><g><!--class co.com.sofka.cargame.domain.carril.CarrilEventChange--><a href="CarrilEventChange.html" target="_top" xlink:actuate="onRequest" xlink:show="new" xlink:title="CarrilEventChange.html" xlink:type="simple"><rect fill="#FEFECE" filter="url(#f577pbzh6wdvx)" height="62.0234" id="co.com.sofka.cargame.domain.carril.CarrilEventChange" style="stroke: #A80036; stroke-width: 1.5;" width="205" x="6" y="108"/><ellipse cx="21" cy="128.0938" fill="#ADD1B2" rx="11" ry="11" style="stroke: #A80036; stroke-width: 1.0;"/><path d="M23.7656,123.9688 Q23.9219,123.75 24.1094,123.6406 Q24.2969,123.5313 24.5156,123.5313 Q24.8906,123.5313 25.125,123.7969 Q25.3594,124.0469 25.3594,124.6563 L25.3594,126.1094 Q25.3594,126.7188 25.125,126.9844 Q24.8906,127.25 24.5156,127.25 Q24.1719,127.25 23.9688,127.0469 Q23.7656,126.8594 23.6563,126.3438 Q23.6094,125.9844 23.4219,125.7969 Q23.0938,125.4219 22.4844,125.2031 Q21.875,124.9844 21.25,124.9844 Q20.4844,124.9844 19.8438,125.3125 Q19.2188,125.6406 18.7188,126.3906 Q18.2344,127.1406 18.2344,128.1719 L18.2344,129.2656 Q18.2344,130.5 19.125,131.3281 Q20.0156,132.1406 21.6094,132.1406 Q22.5469,132.1406 23.2031,131.8906 Q23.5938,131.7344 24.0156,131.2969 Q24.2813,131.0313 24.4219,130.9531 Q24.5781,130.875 24.7813,130.875 Q25.1094,130.875 25.3594,131.1406 Q25.625,131.3906 25.625,131.7344 Q25.625,132.0781 25.2813,132.4844 Q24.7813,133.0625 23.9844,133.3906 Q22.9063,133.8438 21.6094,133.8438 Q20.0938,133.8438 18.8906,133.2188 Q17.9063,132.7188 17.2188,131.6563 Q16.5313,130.5781 16.5313,129.2969 L16.5313,128.1406 Q16.5313,126.8125 17.1406,125.6719 Q17.7656,124.5156 18.8594,123.9063 Q19.9531,123.2813 21.1875,123.2813 Q21.9219,123.2813 22.5625,123.4531 Q23.2188,123.6094 23.7656,123.9688 Z "/><text fill="#000000" font-family="sans-serif" font-size="14" lengthAdjust="spacingAndGlyphs" textLength="120" x="61.5" y="127.5332">CarrilEventChange</text><text fill="#000000" font-family="sans-serif" font-size="10" lengthAdjust="spacingAndGlyphs" textLength="173" x="35" y="140.9902">co.com.sofka.cargame.domain.carril</text><line style="stroke: #A80036; stroke-width: 1.5;" x1="7" x2="210" y1="148.1875" y2="148.1875"/><ellipse cx="17" cy="160.6055" fill="#84BE84" rx="3" ry="3" style="stroke: #038048; stroke-width: 1.0;"/><text fill="#000000" font-family="sans-serif" font-size="11" lengthAdjust="spacingAndGlyphs" textLength="122" x="26" y="163.6064">CarrilEventChange(Carril)</text></a><!--class co.com.sofka.domain.generic.EventChange--><rect fill="#FEFECE" filter="url(#f577pbzh6wdvx)" height="40.1875" id="co.com.sofka.domain.generic.EventChange" style="stroke: #A80036; stroke-width: 1.5;" width="167" x="25" y="8"/><ellipse cx="40" cy="28.0938" fill="#A9DCDF" rx="11" ry="11" style="stroke: #A80036; stroke-width: 1.0;"/><path d="M42.1875,29.8594 L38.0469,29.8594 L37.625,30.8906 L38.0469,30.8906 Q38.6563,30.8906 38.9219,31.125 Q39.1875,31.3594 39.1875,31.75 Q39.1875,32.125 38.9219,32.3594 Q38.6563,32.5938 38.0469,32.5938 L35.75,32.5938 Q35.1406,32.5938 34.8906,32.3594 Q34.625,32.125 34.625,31.7344 Q34.625,31.3594 34.9063,31.125 Q35.1719,30.875 35.7969,30.8906 L38.4688,24.2344 L37.3594,24.2344 Q36.75,24.2344 36.4844,24 Q36.2188,23.7656 36.2188,23.375 Q36.2188,23 36.4844,22.7656 Q36.75,22.5313 37.3594,22.5313 L41.0313,22.5313 L44.4219,30.8906 Q45.0156,30.8906 45.2031,31.0313 Q45.5938,31.2969 45.5938,31.75 Q45.5938,32.125 45.3281,32.3594 Q45.0781,32.5938 44.4688,32.5938 L42.1719,32.5938 Q41.5625,32.5938 41.2969,32.3594 Q41.0313,32.125 41.0313,31.7344 Q41.0313,31.3594 41.2969,31.125 Q41.5625,30.8906 42.1719,30.8906 L42.5938,30.8906 L42.1875,29.8594 Z M41.4688,28.1563 L40.1094,24.7813 L38.7344,28.1563 L41.4688,28.1563 Z "/><text fill="#000000" font-family="sans-serif" font-size="14" font-style="italic" lengthAdjust="spacingAndGlyphs" textLength="85" x="79" y="27.5332">EventChange</text><text fill="#000000" font-family="sans-serif" font-size="10" font-style="italic" lengthAdjust="spacingAndGlyphs" textLength="135" x="54" y="40.9902">co.com.sofka.domain.generic</text><!--link co.com.sofka.domain.generic.EventChange to co.com.sofka.cargame.domain.carril.CarrilEventChange--><path d="M108.5,68.37 C108.5,81.38 108.5,95.65 108.5,107.86 " fill="none" id="co.com.sofka.domain.generic.EventChange-co.com.sofka.cargame.domain.carril.CarrilEventChange" style="stroke: #A80036; stroke-width: 1.0;"/><polygon fill="none" points="101.5,68.24,108.5,48.24,115.5,68.24,101.5,68.24" style="stroke: #A80036; stroke-width: 1.0;"/><text fill="#888888" font-family="sans-serif" font-size="10" lengthAdjust="spacingAndGlyphs" textLength="190" x="19.5" y="190.3809">UMLDoclet 2.0.10, PlantUML 1.2019.08</text><!--
@startuml
    set namespaceSeparator none
    hide empty fields
    hide empty methods

    class "<size:14>CarrilEventChange\n<size:10>co.com.sofka.cargame.domain.carril" as co.com.sofka.cargame.domain.carril.CarrilEventChange [[CarrilEventChange.html]] {
        +CarrilEventChange(Carril)
    }

    abstract class "<size:14>EventChange\n<size:10>co.com.sofka.domain.generic" as co.com.sofka.domain.generic.EventChange

    co.com.sofka.domain.generic.EventChange <|- - co.com.sofka.cargame.domain.carril.CarrilEventChange

    center footer UMLDoclet 2.0.10, PlantUML 1.2019.08
@enduml

PlantUML version 1.2019.08(Sat Jul 13 14:25:14 COT 2019)
(APACHE source distribution)
Java Runtime: Java(TM) SE Runtime Environment
JVM: Java HotSpot(TM) 64-Bit Server VM
Java Version: 11.0.11+9-LTS-194
Operating System: Windows 10
OS Version: 10.0
Default Encoding: Cp1252
Language: es
Country: CO
--></g></svg>