<?xml version="1.0" encoding="UTF-8" standalone="no"?><svg xmlns="http://www.w3.org/2000/svg" xmlns:xlink="http://www.w3.org/1999/xlink" contentScriptType="application/ecmascript" contentStyleType="text/css" height="405px" preserveAspectRatio="none" style="width:234px;height:405px;" version="1.1" viewBox="0 0 234 405" width="234px" zoomAndPan="magnify"><defs><filter height="300%" id="f1jmewnx2ncdmj" width="300%" x="-1" y="-1"><feGaussianBlur result="blurOut" stdDeviation="2.0"/><feColorMatrix in="blurOut" result="blurOut2" type="matrix" values="0 0 0 0 0 0 0 0 0 0 0 0 0 0 0 0 0 0 .4 0"/><feOffset dx="4.0" dy="4.0" in="blurOut2" result="blurOut3"/><feBlend in="SourceGraphic" in2="blurOut3" mode="normal"/></filter></defs><g><!--class co.com.sofka.cargame.domain.carril.Carril--><a href="Carril.html" target="_top" xlink:actuate="onRequest" xlink:show="new" xlink:title="Carril.html" xlink:type="simple"><rect fill="#FEFECE" filter="url(#f1jmewnx2ncdmj)" height="263.7266" id="co.com.sofka.cargame.domain.carril.Carril" style="stroke: #A80036; stroke-width: 1.5;" width="217" x="6" y="108"/><ellipse cx="26.4" cy="128.0938" fill="#ADD1B2" rx="11" ry="11" style="stroke: #A80036; stroke-width: 1.0;"/><path d="M29.1656,123.9688 Q29.3219,123.75 29.5094,123.6406 Q29.6969,123.5313 29.9156,123.5313 Q30.2906,123.5313 30.525,123.7969 Q30.7594,124.0469 30.7594,124.6563 L30.7594,126.1094 Q30.7594,126.7188 30.525,126.9844 Q30.2906,127.25 29.9156,127.25 Q29.5719,127.25 29.3688,127.0469 Q29.1656,126.8594 29.0563,126.3438 Q29.0094,125.9844 28.8219,125.7969 Q28.4938,125.4219 27.8844,125.2031 Q27.275,124.9844 26.65,124.9844 Q25.8844,124.9844 25.2438,125.3125 Q24.6188,125.6406 24.1188,126.3906 Q23.6344,127.1406 23.6344,128.1719 L23.6344,129.2656 Q23.6344,130.5 24.525,131.3281 Q25.4156,132.1406 27.0094,132.1406 Q27.9469,132.1406 28.6031,131.8906 Q28.9938,131.7344 29.4156,131.2969 Q29.6813,131.0313 29.8219,130.9531 Q29.9781,130.875 30.1813,130.875 Q30.5094,130.875 30.7594,131.1406 Q31.025,131.3906 31.025,131.7344 Q31.025,132.0781 30.6813,132.4844 Q30.1813,133.0625 29.3844,133.3906 Q28.3063,133.8438 27.0094,133.8438 Q25.4938,133.8438 24.2906,133.2188 Q23.3063,132.7188 22.6188,131.6563 Q21.9313,130.5781 21.9313,129.2969 L21.9313,128.1406 Q21.9313,126.8125 22.5406,125.6719 Q23.1656,124.5156 24.2594,123.9063 Q25.3531,123.2813 26.5875,123.2813 Q27.3219,123.2813 27.9625,123.4531 Q28.6188,123.6094 29.1656,123.9688 Z "/><text fill="#000000" font-family="sans-serif" font-size="14" lengthAdjust="spacingAndGlyphs" textLength="34" x="111.1" y="127.5332">Carril</text><text fill="#000000" font-family="sans-serif" font-size="10" lengthAdjust="spacingAndGlyphs" textLength="173" x="41.6" y="140.9902">co.com.sofka.cargame.domain.carril</text><line style="stroke: #A80036; stroke-width: 1.5;" x1="7" x2="222" y1="148.1875" y2="148.1875"/><polygon fill="none" points="17,155.6055,21,159.6055,17,163.6055,13,159.6055" style="stroke: #B38D22; stroke-width: 1.0;"/><text fill="#000000" font-family="sans-serif" font-size="11" lengthAdjust="spacingAndGlyphs" textLength="75" x="26" y="163.6064">carroId: CarroId</text><polygon fill="none" points="17,169.4414,21,173.4414,17,177.4414,13,173.4414" style="stroke: #B38D22; stroke-width: 1.0;"/><text fill="#000000" font-family="sans-serif" font-size="11" lengthAdjust="spacingAndGlyphs" textLength="77" x="26" y="177.4424">juegoId: JuegoId</text><polygon fill="none" points="17,183.2773,21,187.2773,17,191.2773,13,187.2773" style="stroke: #B38D22; stroke-width: 1.0;"/><text fill="#000000" font-family="sans-serif" font-size="11" lengthAdjust="spacingAndGlyphs" textLength="81" x="26" y="191.2783">postion: Posicion</text><polygon fill="none" points="17,197.1133,21,201.1133,17,205.1133,13,201.1133" style="stroke: #B38D22; stroke-width: 1.0;"/><text fill="#000000" font-family="sans-serif" font-size="11" lengthAdjust="spacingAndGlyphs" textLength="72" x="26" y="205.1143">metros: Integer</text><polygon fill="none" points="17,210.9492,21,214.9492,17,218.9492,13,214.9492" style="stroke: #B38D22; stroke-width: 1.0;"/><text fill="#000000" font-family="sans-serif" font-size="11" lengthAdjust="spacingAndGlyphs" textLength="142" x="26" y="218.9502">desplazamientoFinal: Boolean</text><line style="stroke: #A80036; stroke-width: 1.5;" x1="7" x2="222" y1="225.3672" y2="225.3672"/><ellipse cx="17" cy="237.7852" fill="#84BE84" rx="3" ry="3" style="stroke: #038048; stroke-width: 1.0;"/><text fill="#000000" font-family="sans-serif" font-size="11" lengthAdjust="spacingAndGlyphs" textLength="148" x="26" y="240.7861">Carril(CarrilId, JuegoId, Integer)</text><ellipse cx="17" cy="251.6211" fill="#84BE84" rx="3" ry="3" style="stroke: #038048; stroke-width: 1.0;"/><text fill="#000000" font-family="sans-serif" font-size="11" lengthAdjust="spacingAndGlyphs" text-decoration="underline" textLength="191" x="26" y="254.6221">from(CarrilId, List&lt;DomainEvent&gt;): Carril</text><ellipse cx="17" cy="265.457" fill="#84BE84" rx="3" ry="3" style="stroke: #038048; stroke-width: 1.0;"/><text fill="#000000" font-family="sans-serif" font-size="11" lengthAdjust="spacingAndGlyphs" textLength="140" x="26" y="268.458">aggregarCarro(CarroId): void</text><ellipse cx="17" cy="279.293" fill="#84BE84" rx="3" ry="3" style="stroke: #038048; stroke-width: 1.0;"/><text fill="#000000" font-family="sans-serif" font-size="11" lengthAdjust="spacingAndGlyphs" textLength="105" x="26" y="282.2939">alcazarLaMeta(): void</text><ellipse cx="17" cy="293.1289" fill="#84BE84" rx="3" ry="3" style="stroke: #038048; stroke-width: 1.0;"/><text fill="#000000" font-family="sans-serif" font-size="11" lengthAdjust="spacingAndGlyphs" textLength="124" x="26" y="296.1299">moverCarro(Integer): void</text><ellipse cx="17" cy="306.9648" fill="#84BE84" rx="3" ry="3" style="stroke: #038048; stroke-width: 1.0;"/><text fill="#000000" font-family="sans-serif" font-size="11" lengthAdjust="spacingAndGlyphs" textLength="80" x="26" y="309.9658">metros(): Integer</text><ellipse cx="17" cy="320.8008" fill="#84BE84" rx="3" ry="3" style="stroke: #038048; stroke-width: 1.0;"/><text fill="#000000" font-family="sans-serif" font-size="11" lengthAdjust="spacingAndGlyphs" textLength="118" x="26" y="323.8018">posicionActual(): Integer</text><ellipse cx="17" cy="334.6367" fill="#84BE84" rx="3" ry="3" style="stroke: #038048; stroke-width: 1.0;"/><text fill="#000000" font-family="sans-serif" font-size="11" lengthAdjust="spacingAndGlyphs" textLength="130" x="26" y="337.6377">posicionDeseada(): Integer</text><ellipse cx="17" cy="348.4727" fill="#84BE84" rx="3" ry="3" style="stroke: #038048; stroke-width: 1.0;"/><text fill="#000000" font-family="sans-serif" font-size="11" lengthAdjust="spacingAndGlyphs" textLength="150" x="26" y="351.4736">desplazamientoFinal(): Boolean</text><ellipse cx="17" cy="362.3086" fill="#84BE84" rx="3" ry="3" style="stroke: #038048; stroke-width: 1.0;"/><text fill="#000000" font-family="sans-serif" font-size="11" lengthAdjust="spacingAndGlyphs" textLength="76" x="26" y="365.3096">carroId(): String</text></a><!--class co.com.sofka.domain.generic.AggregateEvent--><rect fill="#FEFECE" filter="url(#f1jmewnx2ncdmj)" height="40.1875" id="co.com.sofka.domain.generic.AggregateEvent" style="stroke: #A80036; stroke-width: 1.5;" width="212" x="8.5" y="8"/><ellipse cx="23.5" cy="28.0938" fill="#A9DCDF" rx="11" ry="11" style="stroke: #A80036; stroke-width: 1.0;"/><path d="M25.6875,29.8594 L21.5469,29.8594 L21.125,30.8906 L21.5469,30.8906 Q22.1563,30.8906 22.4219,31.125 Q22.6875,31.3594 22.6875,31.75 Q22.6875,32.125 22.4219,32.3594 Q22.1563,32.5938 21.5469,32.5938 L19.25,32.5938 Q18.6406,32.5938 18.3906,32.3594 Q18.125,32.125 18.125,31.7344 Q18.125,31.3594 18.4063,31.125 Q18.6719,30.875 19.2969,30.8906 L21.9688,24.2344 L20.8594,24.2344 Q20.25,24.2344 19.9844,24 Q19.7188,23.7656 19.7188,23.375 Q19.7188,23 19.9844,22.7656 Q20.25,22.5313 20.8594,22.5313 L24.5313,22.5313 L27.9219,30.8906 Q28.5156,30.8906 28.7031,31.0313 Q29.0938,31.2969 29.0938,31.75 Q29.0938,32.125 28.8281,32.3594 Q28.5781,32.5938 27.9688,32.5938 L25.6719,32.5938 Q25.0625,32.5938 24.7969,32.3594 Q24.5313,32.125 24.5313,31.7344 Q24.5313,31.3594 24.7969,31.125 Q25.0625,30.8906 25.6719,30.8906 L26.0938,30.8906 L25.6875,29.8594 Z M24.9688,28.1563 L23.6094,24.7813 L22.2344,28.1563 L24.9688,28.1563 Z "/><text fill="#000000" font-family="sans-serif" font-size="14" font-style="italic" lengthAdjust="spacingAndGlyphs" textLength="101" x="54.5" y="27.5332">AggregateEvent</text><text fill="#000000" font-family="sans-serif" font-size="10" font-style="italic" lengthAdjust="spacingAndGlyphs" textLength="135" x="37.5" y="40.9902">co.com.sofka.domain.generic</text><rect fill="#FFFFFF" height="17.0938" style="stroke: #000000; stroke-width: 1.0; stroke-dasharray: 2.0,2.0;" width="43" x="180.5" y="5"/><text fill="#000000" font-family="sans-serif" font-size="12" font-style="italic" lengthAdjust="spacingAndGlyphs" textLength="41" x="181.5" y="18.457">CarrilId</text><!--link co.com.sofka.domain.generic.AggregateEvent to co.com.sofka.cargame.domain.carril.Carril--><path d="M114.5,68.07 C114.5,79.86 114.5,93.51 114.5,107.85 " fill="none" id="co.com.sofka.domain.generic.AggregateEvent-co.com.sofka.cargame.domain.carril.Carril" style="stroke: #A80036; stroke-width: 1.0;"/><polygon fill="none" points="107.5,68.01,114.5,48.01,121.5,68.01,107.5,68.01" style="stroke: #A80036; stroke-width: 1.0;"/><text fill="#888888" font-family="sans-serif" font-size="10" lengthAdjust="spacingAndGlyphs" textLength="190" x="25.5" y="392.3809">UMLDoclet 2.0.10, PlantUML 1.2019.08</text><!--
@startuml
    set namespaceSeparator none
    hide empty fields
    hide empty methods

    class "<size:14>Carril\n<size:10>co.com.sofka.cargame.domain.carril" as co.com.sofka.cargame.domain.carril.Carril [[Carril.html]] {
        #carroId: CarroId
        #juegoId: JuegoId
        #postion: Posicion
        #metros: Integer
        #desplazamientoFinal: Boolean
        +Carril(CarrilId, JuegoId, Integer)
        {static} +from(CarrilId, List<DomainEvent>): Carril
        +aggregarCarro(CarroId): void
        +alcazarLaMeta(): void
        +moverCarro(Integer): void
        +metros(): Integer
        +posicionActual(): Integer
        +posicionDeseada(): Integer
        +desplazamientoFinal(): Boolean
        +carroId(): String
    }

    abstract class "<size:14>AggregateEvent\n<size:10>co.com.sofka.domain.generic" as co.com.sofka.domain.generic.AggregateEvent<CarrilId>

    co.com.sofka.domain.generic.AggregateEvent <|- - co.com.sofka.cargame.domain.carril.Carril

    center footer UMLDoclet 2.0.10, PlantUML 1.2019.08
@enduml

PlantUML version 1.2019.08(Sat Jul 13 14:25:14 COT 2019)
(APACHE source distribution)
Java Runtime: Java(TM) SE Runtime Environment
JVM: Java HotSpot(TM) 64-Bit Server VM
Java Version: 11.0.11+9-LTS-194
Operating System: Windows 10
OS Version: 10.0
Default Encoding: Cp1252
Language: es
Country: CO
--></g></svg>