<?xml version="1.0" encoding="UTF-8" standalone="no"?><svg xmlns="http://www.w3.org/2000/svg" xmlns:xlink="http://www.w3.org/1999/xlink" contentScriptType="application/ecmascript" contentStyleType="text/css" height="664px" preserveAspectRatio="none" style="width:603px;height:664px;" version="1.1" viewBox="0 0 603 664" width="603px" zoomAndPan="magnify"><defs><filter height="300%" id="f1bq0na7gjersr" width="300%" x="-1" y="-1"><feGaussianBlur result="blurOut" stdDeviation="2.0"/><feColorMatrix in="blurOut" result="blurOut2" type="matrix" values="0 0 0 0 0 0 0 0 0 0 0 0 0 0 0 0 0 0 .4 0"/><feOffset dx="4.0" dy="4.0" in="blurOut2" result="blurOut3"/><feBlend in="SourceGraphic" in2="blurOut3" mode="normal"/></filter></defs><g><!--cluster co.com.sofka.cargame.domain.carril--><polygon fill="#FFFFFF" filter="url(#f1bq0na7gjersr)" points="70,171,327,171,334,194.6094,503,194.6094,503,465,70,465,70,171" style="stroke: #000000; stroke-width: 1.5;"/><line style="stroke: #000000; stroke-width: 1.5;" x1="70" x2="334" y1="194.6094" y2="194.6094"/><text fill="#000000" font-family="sans-serif" font-size="14" font-weight="bold" lengthAdjust="spacingAndGlyphs" textLength="251" x="74" y="187.5332">co.com.sofka.cargame.domain.carril</text><!--cluster co.com.sofka.domain.generic--><polygon fill="#FFFFFF" filter="url(#f1bq0na7gjersr)" points="22,24,233,24,240,47.6094,581,47.6094,581,138,22,138,22,24" style="stroke: #000000; stroke-width: 1.5;"/><line style="stroke: #000000; stroke-width: 1.5;" x1="22" x2="240" y1="47.6094" y2="47.6094"/><text fill="#000000" font-family="sans-serif" font-size="14" font-weight="bold" lengthAdjust="spacingAndGlyphs" textLength="205" x="26" y="40.5332">co.com.sofka.domain.generic</text><!--cluster co.com.sofka.cargame.domain.carril.values--><polygon fill="#FFFFFF" filter="url(#f1bq0na7gjersr)" points="104,515,412,515,419,538.6094,422,538.6094,422,615,104,615,104,515" style="stroke: #000000; stroke-width: 1.5;"/><line style="stroke: #000000; stroke-width: 1.5;" x1="104" x2="419" y1="538.6094" y2="538.6094"/><text fill="#000000" font-family="sans-serif" font-size="14" font-weight="bold" lengthAdjust="spacingAndGlyphs" textLength="302" x="108" y="531.5332">co.com.sofka.cargame.domain.carril.values</text><!--class co.com.sofka.cargame.domain.carril.Carril--><a href="Carril.html" target="_top" xlink:actuate="onRequest" xlink:show="new" xlink:title="Carril.html" xlink:type="simple"><rect fill="#FEFECE" filter="url(#f1bq0na7gjersr)" height="241.7031" id="co.com.sofka.cargame.domain.carril.Carril" style="stroke: #A80036; stroke-width: 1.5;" width="217" x="86.5" y="207"/><ellipse cx="175.75" cy="223" fill="#ADD1B2" rx="11" ry="11" style="stroke: #A80036; stroke-width: 1.0;"/><path d="M178.5156,218.875 Q178.6719,218.6563 178.8594,218.5469 Q179.0469,218.4375 179.2656,218.4375 Q179.6406,218.4375 179.875,218.7031 Q180.1094,218.9531 180.1094,219.5625 L180.1094,221.0156 Q180.1094,221.625 179.875,221.8906 Q179.6406,222.1563 179.2656,222.1563 Q178.9219,222.1563 178.7188,221.9531 Q178.5156,221.7656 178.4063,221.25 Q178.3594,220.8906 178.1719,220.7031 Q177.8438,220.3281 177.2344,220.1094 Q176.625,219.8906 176,219.8906 Q175.2344,219.8906 174.5938,220.2188 Q173.9688,220.5469 173.4688,221.2969 Q172.9844,222.0469 172.9844,223.0781 L172.9844,224.1719 Q172.9844,225.4063 173.875,226.2344 Q174.7656,227.0469 176.3594,227.0469 Q177.2969,227.0469 177.9531,226.7969 Q178.3438,226.6406 178.7656,226.2031 Q179.0313,225.9375 179.1719,225.8594 Q179.3281,225.7813 179.5313,225.7813 Q179.8594,225.7813 180.1094,226.0469 Q180.375,226.2969 180.375,226.6406 Q180.375,226.9844 180.0313,227.3906 Q179.5313,227.9688 178.7344,228.2969 Q177.6563,228.75 176.3594,228.75 Q174.8438,228.75 173.6406,228.125 Q172.6563,227.625 171.9688,226.5625 Q171.2813,225.4844 171.2813,224.2031 L171.2813,223.0469 Q171.2813,221.7188 171.8906,220.5781 Q172.5156,219.4219 173.6094,218.8125 Q174.7031,218.1875 175.9375,218.1875 Q176.6719,218.1875 177.3125,218.3594 Q177.9688,218.5156 178.5156,218.875 Z "/><text fill="#000000" font-family="sans-serif" font-size="12" lengthAdjust="spacingAndGlyphs" textLength="30" x="196.25" y="227.9102">Carril</text><line style="stroke: #A80036; stroke-width: 1.5;" x1="87.5" x2="302.5" y1="239" y2="239"/><polygon fill="none" points="97.5,246.418,101.5,250.418,97.5,254.418,93.5,250.418" style="stroke: #B38D22; stroke-width: 1.0;"/><text fill="#000000" font-family="sans-serif" font-size="11" lengthAdjust="spacingAndGlyphs" textLength="75" x="106.5" y="254.4189">carroId: CarroId</text><polygon fill="none" points="97.5,260.2539,101.5,264.2539,97.5,268.2539,93.5,264.2539" style="stroke: #B38D22; stroke-width: 1.0;"/><text fill="#000000" font-family="sans-serif" font-size="11" lengthAdjust="spacingAndGlyphs" textLength="77" x="106.5" y="268.2549">juegoId: JuegoId</text><polygon fill="none" points="97.5,274.0898,101.5,278.0898,97.5,282.0898,93.5,278.0898" style="stroke: #B38D22; stroke-width: 1.0;"/><text fill="#000000" font-family="sans-serif" font-size="11" lengthAdjust="spacingAndGlyphs" textLength="72" x="106.5" y="282.0908">metros: Integer</text><polygon fill="none" points="97.5,287.9258,101.5,291.9258,97.5,295.9258,93.5,291.9258" style="stroke: #B38D22; stroke-width: 1.0;"/><text fill="#000000" font-family="sans-serif" font-size="11" lengthAdjust="spacingAndGlyphs" textLength="142" x="106.5" y="295.9268">desplazamientoFinal: Boolean</text><line style="stroke: #A80036; stroke-width: 1.5;" x1="87.5" x2="302.5" y1="302.3438" y2="302.3438"/><ellipse cx="97.5" cy="314.7617" fill="#84BE84" rx="3" ry="3" style="stroke: #038048; stroke-width: 1.0;"/><text fill="#000000" font-family="sans-serif" font-size="11" lengthAdjust="spacingAndGlyphs" textLength="148" x="106.5" y="317.7627">Carril(CarrilId, JuegoId, Integer)</text><ellipse cx="97.5" cy="328.5977" fill="#84BE84" rx="3" ry="3" style="stroke: #038048; stroke-width: 1.0;"/><text fill="#000000" font-family="sans-serif" font-size="11" lengthAdjust="spacingAndGlyphs" text-decoration="underline" textLength="191" x="106.5" y="331.5986">from(CarrilId, List&lt;DomainEvent&gt;): Carril</text><ellipse cx="97.5" cy="342.4336" fill="#84BE84" rx="3" ry="3" style="stroke: #038048; stroke-width: 1.0;"/><text fill="#000000" font-family="sans-serif" font-size="11" lengthAdjust="spacingAndGlyphs" textLength="140" x="106.5" y="345.4346">aggregarCarro(CarroId): void</text><ellipse cx="97.5" cy="356.2695" fill="#84BE84" rx="3" ry="3" style="stroke: #038048; stroke-width: 1.0;"/><text fill="#000000" font-family="sans-serif" font-size="11" lengthAdjust="spacingAndGlyphs" textLength="105" x="106.5" y="359.2705">alcazarLaMeta(): void</text><ellipse cx="97.5" cy="370.1055" fill="#84BE84" rx="3" ry="3" style="stroke: #038048; stroke-width: 1.0;"/><text fill="#000000" font-family="sans-serif" font-size="11" lengthAdjust="spacingAndGlyphs" textLength="124" x="106.5" y="373.1064">moverCarro(Integer): void</text><ellipse cx="97.5" cy="383.9414" fill="#84BE84" rx="3" ry="3" style="stroke: #038048; stroke-width: 1.0;"/><text fill="#000000" font-family="sans-serif" font-size="11" lengthAdjust="spacingAndGlyphs" textLength="80" x="106.5" y="386.9424">metros(): Integer</text><ellipse cx="97.5" cy="397.7773" fill="#84BE84" rx="3" ry="3" style="stroke: #038048; stroke-width: 1.0;"/><text fill="#000000" font-family="sans-serif" font-size="11" lengthAdjust="spacingAndGlyphs" textLength="118" x="106.5" y="400.7783">posicionActual(): Integer</text><ellipse cx="97.5" cy="411.6133" fill="#84BE84" rx="3" ry="3" style="stroke: #038048; stroke-width: 1.0;"/><text fill="#000000" font-family="sans-serif" font-size="11" lengthAdjust="spacingAndGlyphs" textLength="130" x="106.5" y="414.6143">posicionDeseada(): Integer</text><ellipse cx="97.5" cy="425.4492" fill="#84BE84" rx="3" ry="3" style="stroke: #038048; stroke-width: 1.0;"/><text fill="#000000" font-family="sans-serif" font-size="11" lengthAdjust="spacingAndGlyphs" textLength="150" x="106.5" y="428.4502">desplazamientoFinal(): Boolean</text><ellipse cx="97.5" cy="439.2852" fill="#84BE84" rx="3" ry="3" style="stroke: #038048; stroke-width: 1.0;"/><text fill="#000000" font-family="sans-serif" font-size="11" lengthAdjust="spacingAndGlyphs" textLength="76" x="106.5" y="442.2861">carroId(): String</text></a><!--class co.com.sofka.cargame.domain.carril.CarrilEventChange--><a href="CarrilEventChange.html" target="_top" xlink:actuate="onRequest" xlink:show="new" xlink:title="CarrilEventChange.html" xlink:type="simple"><rect fill="#FEFECE" filter="url(#f1bq0na7gjersr)" height="61.8359" id="co.com.sofka.cargame.domain.carril.CarrilEventChange" style="stroke: #A80036; stroke-width: 1.5;" width="148" x="339" y="297"/><ellipse cx="359.4" cy="313" fill="#ADD1B2" rx="11" ry="11" style="stroke: #A80036; stroke-width: 1.0;"/><path d="M362.1656,308.875 Q362.3219,308.6563 362.5094,308.5469 Q362.6969,308.4375 362.9156,308.4375 Q363.2906,308.4375 363.525,308.7031 Q363.7594,308.9531 363.7594,309.5625 L363.7594,311.0156 Q363.7594,311.625 363.525,311.8906 Q363.2906,312.1563 362.9156,312.1563 Q362.5719,312.1563 362.3688,311.9531 Q362.1656,311.7656 362.0563,311.25 Q362.0094,310.8906 361.8219,310.7031 Q361.4938,310.3281 360.8844,310.1094 Q360.275,309.8906 359.65,309.8906 Q358.8844,309.8906 358.2438,310.2188 Q357.6188,310.5469 357.1188,311.2969 Q356.6344,312.0469 356.6344,313.0781 L356.6344,314.1719 Q356.6344,315.4063 357.525,316.2344 Q358.4156,317.0469 360.0094,317.0469 Q360.9469,317.0469 361.6031,316.7969 Q361.9938,316.6406 362.4156,316.2031 Q362.6813,315.9375 362.8219,315.8594 Q362.9781,315.7813 363.1813,315.7813 Q363.5094,315.7813 363.7594,316.0469 Q364.025,316.2969 364.025,316.6406 Q364.025,316.9844 363.6813,317.3906 Q363.1813,317.9688 362.3844,318.2969 Q361.3063,318.75 360.0094,318.75 Q358.4938,318.75 357.2906,318.125 Q356.3063,317.625 355.6188,316.5625 Q354.9313,315.4844 354.9313,314.2031 L354.9313,313.0469 Q354.9313,311.7188 355.5406,310.5781 Q356.1656,309.4219 357.2594,308.8125 Q358.3531,308.1875 359.5875,308.1875 Q360.3219,308.1875 360.9625,308.3594 Q361.6188,308.5156 362.1656,308.875 Z "/><text fill="#000000" font-family="sans-serif" font-size="12" lengthAdjust="spacingAndGlyphs" textLength="104" x="374.6" y="317.9102">CarrilEventChange</text><line style="stroke: #A80036; stroke-width: 1.5;" x1="340" x2="486" y1="329" y2="329"/><line style="stroke: #A80036; stroke-width: 1.5;" x1="340" x2="486" y1="337" y2="337"/><ellipse cx="350" cy="349.418" fill="#84BE84" rx="3" ry="3" style="stroke: #038048; stroke-width: 1.0;"/><text fill="#000000" font-family="sans-serif" font-size="11" lengthAdjust="spacingAndGlyphs" textLength="122" x="359" y="352.4189">CarrilEventChange(Carril)</text></a><!--class co.com.sofka.domain.generic.AggregateEvent--><rect fill="#FEFECE" filter="url(#f1bq0na7gjersr)" height="48" id="co.com.sofka.domain.generic.AggregateEvent" style="stroke: #A80036; stroke-width: 1.5;" width="220" x="38" y="67"/><ellipse cx="53" cy="83" fill="#A9DCDF" rx="11" ry="11" style="stroke: #A80036; stroke-width: 1.0;"/><path d="M55.1875,84.7656 L51.0469,84.7656 L50.625,85.7969 L51.0469,85.7969 Q51.6563,85.7969 51.9219,86.0313 Q52.1875,86.2656 52.1875,86.6563 Q52.1875,87.0313 51.9219,87.2656 Q51.6563,87.5 51.0469,87.5 L48.75,87.5 Q48.1406,87.5 47.8906,87.2656 Q47.625,87.0313 47.625,86.6406 Q47.625,86.2656 47.9063,86.0313 Q48.1719,85.7813 48.7969,85.7969 L51.4688,79.1406 L50.3594,79.1406 Q49.75,79.1406 49.4844,78.9063 Q49.2188,78.6719 49.2188,78.2813 Q49.2188,77.9063 49.4844,77.6719 Q49.75,77.4375 50.3594,77.4375 L54.0313,77.4375 L57.4219,85.7969 Q58.0156,85.7969 58.2031,85.9375 Q58.5938,86.2031 58.5938,86.6563 Q58.5938,87.0313 58.3281,87.2656 Q58.0781,87.5 57.4688,87.5 L55.1719,87.5 Q54.5625,87.5 54.2969,87.2656 Q54.0313,87.0313 54.0313,86.6406 Q54.0313,86.2656 54.2969,86.0313 Q54.5625,85.7969 55.1719,85.7969 L55.5938,85.7969 L55.1875,84.7656 Z M54.4688,83.0625 L53.1094,79.6875 L51.7344,83.0625 L54.4688,83.0625 Z "/><text fill="#000000" font-family="sans-serif" font-size="12" font-style="italic" lengthAdjust="spacingAndGlyphs" textLength="88" x="67" y="87.9102">AggregateEvent</text><rect fill="#FFFFFF" height="17.0938" style="stroke: #000000; stroke-width: 1.0; stroke-dasharray: 2.0,2.0;" width="98" x="163" y="64"/><text fill="#000000" font-family="sans-serif" font-size="12" font-style="italic" lengthAdjust="spacingAndGlyphs" textLength="96" x="164" y="77.457">T extends Identity</text><line style="stroke: #A80036; stroke-width: 1.5;" x1="39" x2="257" y1="99" y2="99"/><line style="stroke: #A80036; stroke-width: 1.5;" x1="39" x2="257" y1="107" y2="107"/><!--class co.com.sofka.domain.generic.EventChange--><rect fill="#FEFECE" filter="url(#f1bq0na7gjersr)" height="61.8359" id="co.com.sofka.domain.generic.EventChange" style="stroke: #A80036; stroke-width: 1.5;" width="271" x="293.5" y="60"/><ellipse cx="387.25" cy="76" fill="#A9DCDF" rx="11" ry="11" style="stroke: #A80036; stroke-width: 1.0;"/><path d="M389.4375,77.7656 L385.2969,77.7656 L384.875,78.7969 L385.2969,78.7969 Q385.9063,78.7969 386.1719,79.0313 Q386.4375,79.2656 386.4375,79.6563 Q386.4375,80.0313 386.1719,80.2656 Q385.9063,80.5 385.2969,80.5 L383,80.5 Q382.3906,80.5 382.1406,80.2656 Q381.875,80.0313 381.875,79.6406 Q381.875,79.2656 382.1563,79.0313 Q382.4219,78.7813 383.0469,78.7969 L385.7188,72.1406 L384.6094,72.1406 Q384,72.1406 383.7344,71.9063 Q383.4688,71.6719 383.4688,71.2813 Q383.4688,70.9063 383.7344,70.6719 Q384,70.4375 384.6094,70.4375 L388.2813,70.4375 L391.6719,78.7969 Q392.2656,78.7969 392.4531,78.9375 Q392.8438,79.2031 392.8438,79.6563 Q392.8438,80.0313 392.5781,80.2656 Q392.3281,80.5 391.7188,80.5 L389.4219,80.5 Q388.8125,80.5 388.5469,80.2656 Q388.2813,80.0313 388.2813,79.6406 Q388.2813,79.2656 388.5469,79.0313 Q388.8125,78.7969 389.4219,78.7969 L389.8438,78.7969 L389.4375,77.7656 Z M388.7188,76.0625 L387.3594,72.6875 L385.9844,76.0625 L388.7188,76.0625 Z "/><text fill="#000000" font-family="sans-serif" font-size="12" font-style="italic" lengthAdjust="spacingAndGlyphs" textLength="75" x="407.75" y="80.9102">EventChange</text><line style="stroke: #A80036; stroke-width: 1.5;" x1="294.5" x2="563.5" y1="92" y2="92"/><polygon fill="none" points="304.5,99.418,308.5,103.418,304.5,107.418,300.5,103.418" style="stroke: #B38D22; stroke-width: 1.0;"/><text fill="#000000" font-family="sans-serif" font-size="11" lengthAdjust="spacingAndGlyphs" textLength="245" x="313.5" y="107.4189">behaviors: Set&lt;Consumer&lt;? super DomainEvent&gt;&gt;</text><line style="stroke: #A80036; stroke-width: 1.5;" x1="294.5" x2="563.5" y1="113.8359" y2="113.8359"/><!--class co.com.sofka.cargame.domain.carril.values.Posicion--><rect fill="#FEFECE" filter="url(#f1bq0na7gjersr)" height="48" id="co.com.sofka.cargame.domain.carril.values.Posicion" style="stroke: #A80036; stroke-width: 1.5;" width="80" x="155" y="551"/><ellipse cx="170" cy="567" fill="#ADD1B2" rx="11" ry="11" style="stroke: #A80036; stroke-width: 1.0;"/><path d="M172.7656,562.875 Q172.9219,562.6563 173.1094,562.5469 Q173.2969,562.4375 173.5156,562.4375 Q173.8906,562.4375 174.125,562.7031 Q174.3594,562.9531 174.3594,563.5625 L174.3594,565.0156 Q174.3594,565.625 174.125,565.8906 Q173.8906,566.1563 173.5156,566.1563 Q173.1719,566.1563 172.9688,565.9531 Q172.7656,565.7656 172.6563,565.25 Q172.6094,564.8906 172.4219,564.7031 Q172.0938,564.3281 171.4844,564.1094 Q170.875,563.8906 170.25,563.8906 Q169.4844,563.8906 168.8438,564.2188 Q168.2188,564.5469 167.7188,565.2969 Q167.2344,566.0469 167.2344,567.0781 L167.2344,568.1719 Q167.2344,569.4063 168.125,570.2344 Q169.0156,571.0469 170.6094,571.0469 Q171.5469,571.0469 172.2031,570.7969 Q172.5938,570.6406 173.0156,570.2031 Q173.2813,569.9375 173.4219,569.8594 Q173.5781,569.7813 173.7813,569.7813 Q174.1094,569.7813 174.3594,570.0469 Q174.625,570.2969 174.625,570.6406 Q174.625,570.9844 174.2813,571.3906 Q173.7813,571.9688 172.9844,572.2969 Q171.9063,572.75 170.6094,572.75 Q169.0938,572.75 167.8906,572.125 Q166.9063,571.625 166.2188,570.5625 Q165.5313,569.4844 165.5313,568.2031 L165.5313,567.0469 Q165.5313,565.7188 166.1406,564.5781 Q166.7656,563.4219 167.8594,562.8125 Q168.9531,562.1875 170.1875,562.1875 Q170.9219,562.1875 171.5625,562.3594 Q172.2188,562.5156 172.7656,562.875 Z "/><text fill="#000000" font-family="sans-serif" font-size="12" lengthAdjust="spacingAndGlyphs" textLength="48" x="184" y="571.9102">Posicion</text><line style="stroke: #A80036; stroke-width: 1.5;" x1="156" x2="234" y1="583" y2="583"/><line style="stroke: #A80036; stroke-width: 1.5;" x1="156" x2="234" y1="591" y2="591"/><!--link co.com.sofka.domain.generic.AggregateEvent to co.com.sofka.cargame.domain.carril.Carril--><path d="M156.66,135.32 C160.75,155.73 165.84,181.18 170.96,206.81 " fill="none" id="co.com.sofka.domain.generic.AggregateEvent-co.com.sofka.cargame.domain.carril.Carril" style="stroke: #A80036; stroke-width: 1.0;"/><polygon fill="none" points="149.74,136.38,152.68,115.39,163.46,133.63,149.74,136.38" style="stroke: #A80036; stroke-width: 1.0;"/><!--link co.com.sofka.cargame.domain.carril.Carril to co.com.sofka.cargame.domain.carril.values.Posicion--><path d="M195,449.35 C195,485.35 195,521.6 195,545.65 " fill="none" id="co.com.sofka.cargame.domain.carril.Carril-co.com.sofka.cargame.domain.carril.values.Posicion" style="stroke: #A80036; stroke-width: 1.0;"/><polygon fill="#A80036" points="195,550.9,199,541.9,195,545.9,191,541.9,195,550.9" style="stroke: #A80036; stroke-width: 1.0;"/><text fill="#000000" font-family="sans-serif" font-size="13" lengthAdjust="spacingAndGlyphs" textLength="42" x="196" y="495.4951">postion</text><!--link co.com.sofka.domain.generic.EventChange to co.com.sofka.cargame.domain.carril.CarrilEventChange--><path d="M425.57,142.43 C422.37,189.41 417.71,257.89 415.05,296.88 " fill="none" id="co.com.sofka.domain.generic.EventChange-co.com.sofka.cargame.domain.carril.CarrilEventChange" style="stroke: #A80036; stroke-width: 1.0;"/><polygon fill="none" points="418.6,141.72,426.94,122.24,432.57,142.67,418.6,141.72" style="stroke: #A80036; stroke-width: 1.0;"/><text fill="#888888" font-family="sans-serif" font-size="10" lengthAdjust="spacingAndGlyphs" textLength="190" x="212.5" y="651.3809">UMLDoclet 2.0.10, PlantUML 1.2019.08</text><!--
@startuml
    namespace co.com.sofka.cargame.domain.carril {

        class Carril [[Carril.html]] {
            #carroId: CarroId
            #juegoId: JuegoId
            #metros: Integer
            #desplazamientoFinal: Boolean
            +Carril(CarrilId, JuegoId, Integer)
            {static} +from(CarrilId, List<DomainEvent>): Carril
            +aggregarCarro(CarroId): void
            +alcazarLaMeta(): void
            +moverCarro(Integer): void
            +metros(): Integer
            +posicionActual(): Integer
            +posicionDeseada(): Integer
            +desplazamientoFinal(): Boolean
            +carroId(): String
        }

        class CarrilEventChange [[CarrilEventChange.html]] {
            +CarrilEventChange(Carril)
        }

        co.com.sofka.domain.generic.AggregateEvent <|- - Carril
        Carril - -> co.com.sofka.cargame.domain.carril.values.Posicion: postion
        co.com.sofka.domain.generic.EventChange <|- - CarrilEventChange
    }

    namespace co.com.sofka.domain.generic {
        abstract class AggregateEvent<T extends Identity> {
        }
        abstract class EventChange {
            #behaviors: Set<Consumer<? super DomainEvent>>
        }
    }

    center footer UMLDoclet 2.0.10, PlantUML 1.2019.08
@enduml

PlantUML version 1.2019.08(Sat Jul 13 14:25:14 COT 2019)
(APACHE source distribution)
Java Runtime: Java(TM) SE Runtime Environment
JVM: Java HotSpot(TM) 64-Bit Server VM
Java Version: 11.0.11+9-LTS-194
Operating System: Windows 10
OS Version: 10.0
Default Encoding: Cp1252
Language: es
Country: CO
--></g></svg>