<?xml version="1.0" encoding="UTF-8" standalone="no"?><svg xmlns="http://www.w3.org/2000/svg" xmlns:xlink="http://www.w3.org/1999/xlink" contentScriptType="application/ecmascript" contentStyleType="text/css" height="103px" preserveAspectRatio="none" style="width:223px;height:103px;" version="1.1" viewBox="0 0 223 103" width="223px" zoomAndPan="magnify"><defs><filter height="300%" id="f1t7r32bkm5fgz" width="300%" x="-1" y="-1"><feGaussianBlur result="blurOut" stdDeviation="2.0"/><feColorMatrix in="blurOut" result="blurOut2" type="matrix" values="0 0 0 0 0 0 0 0 0 0 0 0 0 0 0 0 0 0 .4 0"/><feOffset dx="4.0" dy="4.0" in="blurOut2" result="blurOut3"/><feBlend in="SourceGraphic" in2="blurOut3" mode="normal"/></filter></defs><g><!--class co.com.sofka.cargame.infra.config.CorsConfiguration--><a href="CorsConfiguration.html" target="_top" xlink:actuate="onRequest" xlink:show="new" xlink:title="CorsConfiguration.html" xlink:type="simple"><rect fill="#FEFECE" filter="url(#f1t7r32bkm5fgz)" height="62.0234" id="co.com.sofka.cargame.infra.config.CorsConfiguration" style="stroke: #A80036; stroke-width: 1.5;" width="206" x="6" y="8"/><ellipse cx="25.5" cy="28.0938" fill="#ADD1B2" rx="11" ry="11" style="stroke: #A80036; stroke-width: 1.0;"/><path d="M28.2656,23.9688 Q28.4219,23.75 28.6094,23.6406 Q28.7969,23.5313 29.0156,23.5313 Q29.3906,23.5313 29.625,23.7969 Q29.8594,24.0469 29.8594,24.6563 L29.8594,26.1094 Q29.8594,26.7188 29.625,26.9844 Q29.3906,27.25 29.0156,27.25 Q28.6719,27.25 28.4688,27.0469 Q28.2656,26.8594 28.1563,26.3438 Q28.1094,25.9844 27.9219,25.7969 Q27.5938,25.4219 26.9844,25.2031 Q26.375,24.9844 25.75,24.9844 Q24.9844,24.9844 24.3438,25.3125 Q23.7188,25.6406 23.2188,26.3906 Q22.7344,27.1406 22.7344,28.1719 L22.7344,29.2656 Q22.7344,30.5 23.625,31.3281 Q24.5156,32.1406 26.1094,32.1406 Q27.0469,32.1406 27.7031,31.8906 Q28.0938,31.7344 28.5156,31.2969 Q28.7813,31.0313 28.9219,30.9531 Q29.0781,30.875 29.2813,30.875 Q29.6094,30.875 29.8594,31.1406 Q30.125,31.3906 30.125,31.7344 Q30.125,32.0781 29.7813,32.4844 Q29.2813,33.0625 28.4844,33.3906 Q27.4063,33.8438 26.1094,33.8438 Q24.5938,33.8438 23.3906,33.2188 Q22.4063,32.7188 21.7188,31.6563 Q21.0313,30.5781 21.0313,29.2969 L21.0313,28.1406 Q21.0313,26.8125 21.6406,25.6719 Q22.2656,24.5156 23.3594,23.9063 Q24.4531,23.2813 25.6875,23.2813 Q26.4219,23.2813 27.0625,23.4531 Q27.7188,23.6094 28.2656,23.9688 Z "/><text fill="#000000" font-family="sans-serif" font-size="14" lengthAdjust="spacingAndGlyphs" textLength="115" x="65" y="27.5332">CorsConfiguration</text><text fill="#000000" font-family="sans-serif" font-size="10" lengthAdjust="spacingAndGlyphs" textLength="164" x="40.5" y="40.9902">co.com.sofka.cargame.infra.config</text><line style="stroke: #A80036; stroke-width: 1.5;" x1="7" x2="211" y1="48.1875" y2="48.1875"/><ellipse cx="17" cy="60.6055" fill="#84BE84" rx="3" ry="3" style="stroke: #038048; stroke-width: 1.0;"/><text fill="#000000" font-family="sans-serif" font-size="11" lengthAdjust="spacingAndGlyphs" textLength="180" x="26" y="63.6064">corsConfigurer(): WebMvcConfigurer</text></a><text fill="#888888" font-family="sans-serif" font-size="10" lengthAdjust="spacingAndGlyphs" textLength="190" x="20" y="90.3809">UMLDoclet 2.0.10, PlantUML 1.2019.08</text><!--
@startuml
    set namespaceSeparator none
    hide empty fields
    hide empty methods

    class "<size:14>CorsConfiguration\n<size:10>co.com.sofka.cargame.infra.config" as co.com.sofka.cargame.infra.config.CorsConfiguration [[CorsConfiguration.html]] {
        +corsConfigurer(): WebMvcConfigurer
    }

    center footer UMLDoclet 2.0.10, PlantUML 1.2019.08
@enduml

PlantUML version 1.2019.08(Sat Jul 13 14:25:14 COT 2019)
(APACHE source distribution)
Java Runtime: Java(TM) SE Runtime Environment
JVM: Java HotSpot(TM) 64-Bit Server VM
Java Version: 11.0.11+9-LTS-194
Operating System: Windows 10
OS Version: 10.0
Default Encoding: Cp1252
Language: es
Country: CO
--></g></svg>