<?xml version="1.0" encoding="UTF-8" standalone="no"?><svg xmlns="http://www.w3.org/2000/svg" xmlns:xlink="http://www.w3.org/1999/xlink" contentScriptType="application/ecmascript" contentStyleType="text/css" height="228px" preserveAspectRatio="none" style="width:817px;height:228px;" version="1.1" viewBox="0 0 817 228" width="817px" zoomAndPan="magnify"><defs><filter height="300%" id="fal3moqlg83lv" width="300%" x="-1" y="-1"><feGaussianBlur result="blurOut" stdDeviation="2.0"/><feColorMatrix in="blurOut" result="blurOut2" type="matrix" values="0 0 0 0 0 0 0 0 0 0 0 0 0 0 0 0 0 0 .4 0"/><feOffset dx="4.0" dy="4.0" in="blurOut2" result="blurOut3"/><feBlend in="SourceGraphic" in2="blurOut3" mode="normal"/></filter></defs><g><!--cluster co.com.sofka.cargame.infra.config--><polygon fill="#FFFFFF" filter="url(#fal3moqlg83lv)" points="22,24,268,24,275,47.6094,795,47.6094,795,179,22,179,22,24" style="stroke: #000000; stroke-width: 1.5;"/><line style="stroke: #000000; stroke-width: 1.5;" x1="22" x2="275" y1="47.6094" y2="47.6094"/><text fill="#000000" font-family="sans-serif" font-size="14" font-weight="bold" lengthAdjust="spacingAndGlyphs" textLength="240" x="26" y="40.5332">co.com.sofka.cargame.infra.config</text><!--class co.com.sofka.cargame.infra.config.CorsConfiguration--><a href="CorsConfiguration.html" target="_top" xlink:actuate="onRequest" xlink:show="new" xlink:title="CorsConfiguration.html" xlink:type="simple"><rect fill="#FEFECE" filter="url(#fal3moqlg83lv)" height="61.8359" id="co.com.sofka.cargame.infra.config.CorsConfiguration" style="stroke: #A80036; stroke-width: 1.5;" width="206" x="573" y="80.5"/><ellipse cx="621.25" cy="96.5" fill="#ADD1B2" rx="11" ry="11" style="stroke: #A80036; stroke-width: 1.0;"/><path d="M624.0156,92.375 Q624.1719,92.1563 624.3594,92.0469 Q624.5469,91.9375 624.7656,91.9375 Q625.1406,91.9375 625.375,92.2031 Q625.6094,92.4531 625.6094,93.0625 L625.6094,94.5156 Q625.6094,95.125 625.375,95.3906 Q625.1406,95.6563 624.7656,95.6563 Q624.4219,95.6563 624.2188,95.4531 Q624.0156,95.2656 623.9063,94.75 Q623.8594,94.3906 623.6719,94.2031 Q623.3438,93.8281 622.7344,93.6094 Q622.125,93.3906 621.5,93.3906 Q620.7344,93.3906 620.0938,93.7188 Q619.4688,94.0469 618.9688,94.7969 Q618.4844,95.5469 618.4844,96.5781 L618.4844,97.6719 Q618.4844,98.9063 619.375,99.7344 Q620.2656,100.5469 621.8594,100.5469 Q622.7969,100.5469 623.4531,100.2969 Q623.8438,100.1406 624.2656,99.7031 Q624.5313,99.4375 624.6719,99.3594 Q624.8281,99.2813 625.0313,99.2813 Q625.3594,99.2813 625.6094,99.5469 Q625.875,99.7969 625.875,100.1406 Q625.875,100.4844 625.5313,100.8906 Q625.0313,101.4688 624.2344,101.7969 Q623.1563,102.25 621.8594,102.25 Q620.3438,102.25 619.1406,101.625 Q618.1563,101.125 617.4688,100.0625 Q616.7813,98.9844 616.7813,97.7031 L616.7813,96.5469 Q616.7813,95.2188 617.3906,94.0781 Q618.0156,92.9219 619.1094,92.3125 Q620.2031,91.6875 621.4375,91.6875 Q622.1719,91.6875 622.8125,91.8594 Q623.4688,92.0156 624.0156,92.375 Z "/><text fill="#000000" font-family="sans-serif" font-size="12" lengthAdjust="spacingAndGlyphs" textLength="101" x="641.75" y="101.4102">CorsConfiguration</text><line style="stroke: #A80036; stroke-width: 1.5;" x1="574" x2="778" y1="112.5" y2="112.5"/><line style="stroke: #A80036; stroke-width: 1.5;" x1="574" x2="778" y1="120.5" y2="120.5"/><ellipse cx="584" cy="132.918" fill="#84BE84" rx="3" ry="3" style="stroke: #038048; stroke-width: 1.0;"/><text fill="#000000" font-family="sans-serif" font-size="11" lengthAdjust="spacingAndGlyphs" textLength="180" x="593" y="135.9189">corsConfigurer(): WebMvcConfigurer</text></a><!--class co.com.sofka.cargame.infra.config.JuegoConfig--><a href="JuegoConfig.html" target="_top" xlink:actuate="onRequest" xlink:show="new" xlink:title="JuegoConfig.html" xlink:type="simple"><rect fill="#FEFECE" filter="url(#fal3moqlg83lv)" height="103.3438" id="co.com.sofka.cargame.infra.config.JuegoConfig" style="stroke: #A80036; stroke-width: 1.5;" width="500" x="38" y="60"/><ellipse cx="248.75" cy="76" fill="#ADD1B2" rx="11" ry="11" style="stroke: #A80036; stroke-width: 1.0;"/><path d="M251.5156,71.875 Q251.6719,71.6563 251.8594,71.5469 Q252.0469,71.4375 252.2656,71.4375 Q252.6406,71.4375 252.875,71.7031 Q253.1094,71.9531 253.1094,72.5625 L253.1094,74.0156 Q253.1094,74.625 252.875,74.8906 Q252.6406,75.1563 252.2656,75.1563 Q251.9219,75.1563 251.7188,74.9531 Q251.5156,74.7656 251.4063,74.25 Q251.3594,73.8906 251.1719,73.7031 Q250.8438,73.3281 250.2344,73.1094 Q249.625,72.8906 249,72.8906 Q248.2344,72.8906 247.5938,73.2188 Q246.9688,73.5469 246.4688,74.2969 Q245.9844,75.0469 245.9844,76.0781 L245.9844,77.1719 Q245.9844,78.4063 246.875,79.2344 Q247.7656,80.0469 249.3594,80.0469 Q250.2969,80.0469 250.9531,79.7969 Q251.3438,79.6406 251.7656,79.2031 Q252.0313,78.9375 252.1719,78.8594 Q252.3281,78.7813 252.5313,78.7813 Q252.8594,78.7813 253.1094,79.0469 Q253.375,79.2969 253.375,79.6406 Q253.375,79.9844 253.0313,80.3906 Q252.5313,80.9688 251.7344,81.2969 Q250.6563,81.75 249.3594,81.75 Q247.8438,81.75 246.6406,81.125 Q245.6563,80.625 244.9688,79.5625 Q244.2813,78.4844 244.2813,77.2031 L244.2813,76.0469 Q244.2813,74.7188 244.8906,73.5781 Q245.5156,72.4219 246.6094,71.8125 Q247.7031,71.1875 248.9375,71.1875 Q249.6719,71.1875 250.3125,71.3594 Q250.9688,71.5156 251.5156,71.875 Z "/><text fill="#000000" font-family="sans-serif" font-size="12" lengthAdjust="spacingAndGlyphs" textLength="70" x="269.25" y="80.9102">JuegoConfig</text><line style="stroke: #A80036; stroke-width: 1.5;" x1="39" x2="537" y1="92" y2="92"/><line style="stroke: #A80036; stroke-width: 1.5;" x1="39" x2="537" y1="100" y2="100"/><ellipse cx="49" cy="112.418" fill="#84BE84" rx="3" ry="3" style="stroke: #038048; stroke-width: 1.0;"/><text fill="#000000" font-family="sans-serif" font-size="11" lengthAdjust="spacingAndGlyphs" textLength="330" x="58" y="115.4189">subscriberEvent(EventStoreRepository, EventBus): SubscriberEvent</text><ellipse cx="49" cy="126.2539" fill="#84BE84" rx="3" ry="3" style="stroke: #038048; stroke-width: 1.0;"/><text fill="#000000" font-family="sans-serif" font-size="11" lengthAdjust="spacingAndGlyphs" textLength="327" x="58" y="129.2549">eventSubscriber(String, EventListenerSubscriber): EventSubscriber</text><ellipse cx="49" cy="140.0898" fill="#84BE84" rx="3" ry="3" style="stroke: #038048; stroke-width: 1.0;"/><text fill="#000000" font-family="sans-serif" font-size="11" lengthAdjust="spacingAndGlyphs" textLength="474" x="58" y="143.0908">serviceBuilder(CarrilCarroQueryService, CarroQueryService, JuegoQueryService): ServiceBuilder</text><ellipse cx="49" cy="153.9258" fill="#84BE84" rx="3" ry="3" style="stroke: #038048; stroke-width: 1.0;"/><text fill="#000000" font-family="sans-serif" font-size="11" lengthAdjust="spacingAndGlyphs" textLength="428" x="58" y="156.9268">useCases(SubscriberEvent, EventStoreRepository, ServiceBuilder): Set&lt;UseCaseWrap&gt;</text></a><text fill="#888888" font-family="sans-serif" font-size="10" lengthAdjust="spacingAndGlyphs" textLength="190" x="319.5" y="215.3809">UMLDoclet 2.0.10, PlantUML 1.2019.08</text><!--
@startuml
    namespace co.com.sofka.cargame.infra.config {

        class CorsConfiguration [[CorsConfiguration.html]] {
            +corsConfigurer(): WebMvcConfigurer
        }

        class JuegoConfig [[JuegoConfig.html]] {
            +subscriberEvent(EventStoreRepository, EventBus): SubscriberEvent
            +eventSubscriber(String, EventListenerSubscriber): EventSubscriber
            +serviceBuilder(CarrilCarroQueryService, CarroQueryService, JuegoQueryService): ServiceBuilder
            +useCases(SubscriberEvent, EventStoreRepository, ServiceBuilder): Set<UseCaseWrap>
        }

    }

    center footer UMLDoclet 2.0.10, PlantUML 1.2019.08
@enduml

PlantUML version 1.2019.08(Sat Jul 13 14:25:14 COT 2019)
(APACHE source distribution)
Java Runtime: Java(TM) SE Runtime Environment
JVM: Java HotSpot(TM) 64-Bit Server VM
Java Version: 11.0.11+9-LTS-194
Operating System: Windows 10
OS Version: 10.0
Default Encoding: Cp1252
Language: es
Country: CO
--></g></svg>