<?xml version="1.0" encoding="UTF-8" standalone="no"?><svg xmlns="http://www.w3.org/2000/svg" xmlns:xlink="http://www.w3.org/1999/xlink" contentScriptType="application/ecmascript" contentStyleType="text/css" height="239px" preserveAspectRatio="none" style="width:223px;height:239px;" version="1.1" viewBox="0 0 223 239" width="223px" zoomAndPan="magnify"><defs><filter height="300%" id="f4apcevxpbklz" width="300%" x="-1" y="-1"><feGaussianBlur result="blurOut" stdDeviation="2.0"/><feColorMatrix in="blurOut" result="blurOut2" type="matrix" values="0 0 0 0 0 0 0 0 0 0 0 0 0 0 0 0 0 0 .4 0"/><feOffset dx="4.0" dy="4.0" in="blurOut2" result="blurOut3"/><feBlend in="SourceGraphic" in2="blurOut3" mode="normal"/></filter></defs><g><!--class co.com.sofka.cargame.domain.Color--><a href="Color.html" target="_top" xlink:actuate="onRequest" xlink:show="new" xlink:title="Color.html" xlink:type="simple"><rect fill="#FEFECE" filter="url(#f4apcevxpbklz)" height="75.8594" id="co.com.sofka.cargame.domain.Color" style="stroke: #A80036; stroke-width: 1.5;" width="178" x="18.5" y="130"/><ellipse cx="33.5" cy="150.0938" fill="#ADD1B2" rx="11" ry="11" style="stroke: #A80036; stroke-width: 1.0;"/><path d="M36.2656,145.9688 Q36.4219,145.75 36.6094,145.6406 Q36.7969,145.5313 37.0156,145.5313 Q37.3906,145.5313 37.625,145.7969 Q37.8594,146.0469 37.8594,146.6563 L37.8594,148.1094 Q37.8594,148.7188 37.625,148.9844 Q37.3906,149.25 37.0156,149.25 Q36.6719,149.25 36.4688,149.0469 Q36.2656,148.8594 36.1563,148.3438 Q36.1094,147.9844 35.9219,147.7969 Q35.5938,147.4219 34.9844,147.2031 Q34.375,146.9844 33.75,146.9844 Q32.9844,146.9844 32.3438,147.3125 Q31.7188,147.6406 31.2188,148.3906 Q30.7344,149.1406 30.7344,150.1719 L30.7344,151.2656 Q30.7344,152.5 31.625,153.3281 Q32.5156,154.1406 34.1094,154.1406 Q35.0469,154.1406 35.7031,153.8906 Q36.0938,153.7344 36.5156,153.2969 Q36.7813,153.0313 36.9219,152.9531 Q37.0781,152.875 37.2813,152.875 Q37.6094,152.875 37.8594,153.1406 Q38.125,153.3906 38.125,153.7344 Q38.125,154.0781 37.7813,154.4844 Q37.2813,155.0625 36.4844,155.3906 Q35.4063,155.8438 34.1094,155.8438 Q32.5938,155.8438 31.3906,155.2188 Q30.4063,154.7188 29.7188,153.6563 Q29.0313,152.5781 29.0313,151.2969 L29.0313,150.1406 Q29.0313,148.8125 29.6406,147.6719 Q30.2656,146.5156 31.3594,145.9063 Q32.4531,145.2813 33.6875,145.2813 Q34.4219,145.2813 35.0625,145.4531 Q35.7188,145.6094 36.2656,145.9688 Z "/><text fill="#000000" font-family="sans-serif" font-size="14" lengthAdjust="spacingAndGlyphs" textLength="34" x="103.5" y="149.5332">Color</text><text fill="#000000" font-family="sans-serif" font-size="10" lengthAdjust="spacingAndGlyphs" textLength="146" x="47.5" y="162.9902">co.com.sofka.cargame.domain</text><line style="stroke: #A80036; stroke-width: 1.5;" x1="19.5" x2="195.5" y1="170.1875" y2="170.1875"/><ellipse cx="29.5" cy="182.6055" fill="#84BE84" rx="3" ry="3" style="stroke: #038048; stroke-width: 1.0;"/><text fill="#000000" font-family="sans-serif" font-size="11" lengthAdjust="spacingAndGlyphs" textLength="61" x="38.5" y="185.6064">Color(String)</text><ellipse cx="29.5" cy="196.4414" fill="#84BE84" rx="3" ry="3" style="stroke: #038048; stroke-width: 1.0;"/><text fill="#000000" font-family="sans-serif" font-size="11" lengthAdjust="spacingAndGlyphs" textLength="68" x="38.5" y="199.4424">value(): String</text></a><!--class co.com.sofka.domain.generic.ValueObject--><rect fill="#FEFECE" filter="url(#f4apcevxpbklz)" height="62.0234" id="co.com.sofka.domain.generic.ValueObject" style="stroke: #A80036; stroke-width: 1.5;" width="203" x="6" y="8"/><ellipse cx="21" cy="28.0938" fill="#B4A7E5" rx="11" ry="11" style="stroke: #A80036; stroke-width: 1.0;"/><path d="M21.9531,24.7344 L21.9531,31.3906 L23.6719,31.3906 Q24.2813,31.3906 24.5469,31.625 Q24.8125,31.8594 24.8125,32.25 Q24.8125,32.625 24.5469,32.8594 Q24.2813,33.0938 23.6719,33.0938 L18.5313,33.0938 Q17.9219,33.0938 17.6563,32.8594 Q17.3906,32.625 17.3906,32.2344 Q17.3906,31.8594 17.6563,31.625 Q17.9219,31.3906 18.5313,31.3906 L20.25,31.3906 L20.25,24.7344 L18.5313,24.7344 Q17.9219,24.7344 17.6563,24.5 Q17.3906,24.2656 17.3906,23.875 Q17.3906,23.5 17.6563,23.2656 Q17.9219,23.0313 18.5313,23.0313 L23.6719,23.0313 Q24.2813,23.0313 24.5469,23.2656 Q24.8125,23.5 24.8125,23.875 Q24.8125,24.2656 24.5469,24.5 Q24.2813,24.7344 23.6719,24.7344 L21.9531,24.7344 Z "/><text fill="#000000" font-family="sans-serif" font-size="14" font-style="italic" lengthAdjust="spacingAndGlyphs" textLength="77" x="64" y="27.5332">ValueObject</text><text fill="#000000" font-family="sans-serif" font-size="10" font-style="italic" lengthAdjust="spacingAndGlyphs" textLength="135" x="35" y="40.9902">co.com.sofka.domain.generic</text><rect fill="#FFFFFF" height="17.0938" style="stroke: #000000; stroke-width: 1.0; stroke-dasharray: 2.0,2.0;" width="34" x="178" y="5"/><text fill="#000000" font-family="sans-serif" font-size="12" font-style="italic" lengthAdjust="spacingAndGlyphs" textLength="32" x="179" y="18.457">String</text><line style="stroke: #A80036; stroke-width: 1.5;" x1="7" x2="208" y1="48.1875" y2="48.1875"/><ellipse cx="17" cy="60.6055" fill="#84BE84" rx="3" ry="3" style="stroke: #038048; stroke-width: 1.0;"/><text fill="#000000" font-family="sans-serif" font-size="11" font-style="italic" lengthAdjust="spacingAndGlyphs" textLength="69" x="26" y="63.6064">value(): String</text><!--link co.com.sofka.domain.generic.ValueObject to co.com.sofka.cargame.domain.Color--><path d="M107.5,90.43 C107.5,103.59 107.5,117.53 107.5,129.86 " fill="none" id="co.com.sofka.domain.generic.ValueObject-co.com.sofka.cargame.domain.Color" style="stroke: #A80036; stroke-width: 1.0; stroke-dasharray: 7.0,7.0;"/><polygon fill="none" points="100.5,90.1,107.5,70.1,114.5,90.1,100.5,90.1" style="stroke: #A80036; stroke-width: 1.0;"/><text fill="#888888" font-family="sans-serif" font-size="10" lengthAdjust="spacingAndGlyphs" textLength="190" x="18.5" y="226.3809">UMLDoclet 2.0.10, PlantUML 1.2019.08</text><!--
@startuml
    set namespaceSeparator none
    hide empty fields
    hide empty methods

    class "<size:14>Color\n<size:10>co.com.sofka.cargame.domain" as co.com.sofka.cargame.domain.Color [[Color.html]] {
        +Color(String)
        +value(): String
    }

    interface "<size:14>ValueObject\n<size:10>co.com.sofka.domain.generic" as co.com.sofka.domain.generic.ValueObject<String> {
        {abstract} +value(): String
    }

    co.com.sofka.domain.generic.ValueObject <|.. co.com.sofka.cargame.domain.Color

    center footer UMLDoclet 2.0.10, PlantUML 1.2019.08
@enduml

PlantUML version 1.2019.08(Sat Jul 13 14:25:14 COT 2019)
(APACHE source distribution)
Java Runtime: Java(TM) SE Runtime Environment
JVM: Java HotSpot(TM) 64-Bit Server VM
Java Version: 11.0.11+9-LTS-194
Operating System: Windows 10
OS Version: 10.0
Default Encoding: Cp1252
Language: es
Country: CO
--></g></svg>