<?xml version="1.0" encoding="UTF-8" standalone="no"?><svg xmlns="http://www.w3.org/2000/svg" xmlns:xlink="http://www.w3.org/1999/xlink" contentScriptType="application/ecmascript" contentStyleType="text/css" height="339px" preserveAspectRatio="none" style="width:295px;height:339px;" version="1.1" viewBox="0 0 295 339" width="295px" zoomAndPan="magnify"><defs><filter height="300%" id="f150kv2pspkx4o" width="300%" x="-1" y="-1"><feGaussianBlur result="blurOut" stdDeviation="2.0"/><feColorMatrix in="blurOut" result="blurOut2" type="matrix" values="0 0 0 0 0 0 0 0 0 0 0 0 0 0 0 0 0 0 .4 0"/><feOffset dx="4.0" dy="4.0" in="blurOut2" result="blurOut3"/><feBlend in="SourceGraphic" in2="blurOut3" mode="normal"/></filter></defs><g><!--cluster co.com.sofka.cargame.domain--><polygon fill="#FFFFFF" filter="url(#f150kv2pspkx4o)" points="46,162,263,162,270,185.6094,273,185.6094,273,290,46,290,46,162" style="stroke: #000000; stroke-width: 1.5;"/><line style="stroke: #000000; stroke-width: 1.5;" x1="46" x2="270" y1="185.6094" y2="185.6094"/><text fill="#000000" font-family="sans-serif" font-size="14" font-weight="bold" lengthAdjust="spacingAndGlyphs" textLength="211" x="50" y="178.5332">co.com.sofka.cargame.domain</text><!--cluster co.com.sofka.domain.generic--><polygon fill="#FFFFFF" filter="url(#f150kv2pspkx4o)" points="22,24,233,24,240,47.6094,243,47.6094,243,138,22,138,22,24" style="stroke: #000000; stroke-width: 1.5;"/><line style="stroke: #000000; stroke-width: 1.5;" x1="22" x2="240" y1="47.6094" y2="47.6094"/><text fill="#000000" font-family="sans-serif" font-size="14" font-weight="bold" lengthAdjust="spacingAndGlyphs" textLength="205" x="26" y="40.5332">co.com.sofka.domain.generic</text><!--class co.com.sofka.cargame.domain.Color--><a href="Color.html" target="_top" xlink:actuate="onRequest" xlink:show="new" xlink:title="Color.html" xlink:type="simple"><rect fill="#FEFECE" filter="url(#f150kv2pspkx4o)" height="75.6719" id="co.com.sofka.cargame.domain.Color" style="stroke: #A80036; stroke-width: 1.5;" width="94" x="85" y="198"/><ellipse cx="114.4" cy="214" fill="#ADD1B2" rx="11" ry="11" style="stroke: #A80036; stroke-width: 1.0;"/><path d="M117.1656,209.875 Q117.3219,209.6563 117.5094,209.5469 Q117.6969,209.4375 117.9156,209.4375 Q118.2906,209.4375 118.525,209.7031 Q118.7594,209.9531 118.7594,210.5625 L118.7594,212.0156 Q118.7594,212.625 118.525,212.8906 Q118.2906,213.1563 117.9156,213.1563 Q117.5719,213.1563 117.3688,212.9531 Q117.1656,212.7656 117.0563,212.25 Q117.0094,211.8906 116.8219,211.7031 Q116.4938,211.3281 115.8844,211.1094 Q115.275,210.8906 114.65,210.8906 Q113.8844,210.8906 113.2438,211.2188 Q112.6188,211.5469 112.1188,212.2969 Q111.6344,213.0469 111.6344,214.0781 L111.6344,215.1719 Q111.6344,216.4063 112.525,217.2344 Q113.4156,218.0469 115.0094,218.0469 Q115.9469,218.0469 116.6031,217.7969 Q116.9938,217.6406 117.4156,217.2031 Q117.6813,216.9375 117.8219,216.8594 Q117.9781,216.7813 118.1813,216.7813 Q118.5094,216.7813 118.7594,217.0469 Q119.025,217.2969 119.025,217.6406 Q119.025,217.9844 118.6813,218.3906 Q118.1813,218.9688 117.3844,219.2969 Q116.3063,219.75 115.0094,219.75 Q113.4938,219.75 112.2906,219.125 Q111.3063,218.625 110.6188,217.5625 Q109.9313,216.4844 109.9313,215.2031 L109.9313,214.0469 Q109.9313,212.7188 110.5406,211.5781 Q111.1656,210.4219 112.2594,209.8125 Q113.3531,209.1875 114.5875,209.1875 Q115.3219,209.1875 115.9625,209.3594 Q116.6188,209.5156 117.1656,209.875 Z "/><text fill="#000000" font-family="sans-serif" font-size="12" lengthAdjust="spacingAndGlyphs" textLength="30" x="131.6" y="218.9102">Color</text><line style="stroke: #A80036; stroke-width: 1.5;" x1="86" x2="178" y1="230" y2="230"/><line style="stroke: #A80036; stroke-width: 1.5;" x1="86" x2="178" y1="238" y2="238"/><ellipse cx="96" cy="250.418" fill="#84BE84" rx="3" ry="3" style="stroke: #038048; stroke-width: 1.0;"/><text fill="#000000" font-family="sans-serif" font-size="11" lengthAdjust="spacingAndGlyphs" textLength="61" x="105" y="253.4189">Color(String)</text><ellipse cx="96" cy="264.2539" fill="#84BE84" rx="3" ry="3" style="stroke: #038048; stroke-width: 1.0;"/><text fill="#000000" font-family="sans-serif" font-size="11" lengthAdjust="spacingAndGlyphs" textLength="68" x="105" y="267.2549">value(): String</text></a><!--class co.com.sofka.domain.generic.ValueObject--><rect fill="#FEFECE" filter="url(#f150kv2pspkx4o)" height="61.8359" id="co.com.sofka.domain.generic.ValueObject" style="stroke: #A80036; stroke-width: 1.5;" width="111" x="76.5" y="60"/><ellipse cx="91.5" cy="76" fill="#B4A7E5" rx="11" ry="11" style="stroke: #A80036; stroke-width: 1.0;"/><path d="M92.4531,72.6406 L92.4531,79.2969 L94.1719,79.2969 Q94.7813,79.2969 95.0469,79.5313 Q95.3125,79.7656 95.3125,80.1563 Q95.3125,80.5313 95.0469,80.7656 Q94.7813,81 94.1719,81 L89.0313,81 Q88.4219,81 88.1563,80.7656 Q87.8906,80.5313 87.8906,80.1406 Q87.8906,79.7656 88.1563,79.5313 Q88.4219,79.2969 89.0313,79.2969 L90.75,79.2969 L90.75,72.6406 L89.0313,72.6406 Q88.4219,72.6406 88.1563,72.4063 Q87.8906,72.1719 87.8906,71.7813 Q87.8906,71.4063 88.1563,71.1719 Q88.4219,70.9375 89.0313,70.9375 L94.1719,70.9375 Q94.7813,70.9375 95.0469,71.1719 Q95.3125,71.4063 95.3125,71.7813 Q95.3125,72.1719 95.0469,72.4063 Q94.7813,72.6406 94.1719,72.6406 L92.4531,72.6406 Z "/><text fill="#000000" font-family="sans-serif" font-size="12" font-style="italic" lengthAdjust="spacingAndGlyphs" textLength="68" x="105.5" y="80.9102">ValueObject</text><rect fill="#FFFFFF" height="17.0938" style="stroke: #000000; stroke-width: 1.0; stroke-dasharray: 2.0,2.0;" width="9" x="181.5" y="57"/><text fill="#000000" font-family="sans-serif" font-size="12" font-style="italic" lengthAdjust="spacingAndGlyphs" textLength="7" x="182.5" y="70.457">T</text><line style="stroke: #A80036; stroke-width: 1.5;" x1="77.5" x2="186.5" y1="92" y2="92"/><line style="stroke: #A80036; stroke-width: 1.5;" x1="77.5" x2="186.5" y1="100" y2="100"/><ellipse cx="87.5" cy="112.418" fill="#84BE84" rx="3" ry="3" style="stroke: #038048; stroke-width: 1.0;"/><text fill="#000000" font-family="sans-serif" font-size="11" font-style="italic" lengthAdjust="spacingAndGlyphs" textLength="47" x="96.5" y="115.4189">value(): T</text><!--link co.com.sofka.domain.generic.ValueObject to co.com.sofka.cargame.domain.Color--><path d="M132,142.5 C132,160.73 132,180.97 132,197.85 " fill="none" id="co.com.sofka.domain.generic.ValueObject-co.com.sofka.cargame.domain.Color" style="stroke: #A80036; stroke-width: 1.0; stroke-dasharray: 7.0,7.0;"/><polygon fill="none" points="125,142.33,132,122.33,139,142.33,125,142.33" style="stroke: #A80036; stroke-width: 1.0;"/><text fill="#888888" font-family="sans-serif" font-size="10" lengthAdjust="spacingAndGlyphs" textLength="190" x="58.5" y="326.3809">UMLDoclet 2.0.10, PlantUML 1.2019.08</text><!--
@startuml
    namespace co.com.sofka.cargame.domain {

        class Color [[Color.html]] {
            +Color(String)
            +value(): String
        }

        co.com.sofka.domain.generic.ValueObject <|.. Color
    }

    namespace co.com.sofka.domain.generic {
        interface ValueObject<T> {
            {abstract} +value(): T
        }
    }

    center footer UMLDoclet 2.0.10, PlantUML 1.2019.08
@enduml

PlantUML version 1.2019.08(Sat Jul 13 14:25:14 COT 2019)
(APACHE source distribution)
Java Runtime: Java(TM) SE Runtime Environment
JVM: Java HotSpot(TM) 64-Bit Server VM
Java Version: 11.0.11+9-LTS-194
Operating System: Windows 10
OS Version: 10.0
Default Encoding: Cp1252
Language: es
Country: CO
--></g></svg>