<?xml version="1.0" encoding="UTF-8" standalone="no"?><svg xmlns="http://www.w3.org/2000/svg" xmlns:xlink="http://www.w3.org/1999/xlink" contentScriptType="application/ecmascript" contentStyleType="text/css" height="117px" preserveAspectRatio="none" style="width:236px;height:117px;" version="1.1" viewBox="0 0 236 117" width="236px" zoomAndPan="magnify"><defs><filter height="300%" id="fwrt09fpqtz03" width="300%" x="-1" y="-1"><feGaussianBlur result="blurOut" stdDeviation="2.0"/><feColorMatrix in="blurOut" result="blurOut2" type="matrix" values="0 0 0 0 0 0 0 0 0 0 0 0 0 0 0 0 0 0 .4 0"/><feOffset dx="4.0" dy="4.0" in="blurOut2" result="blurOut3"/><feBlend in="SourceGraphic" in2="blurOut3" mode="normal"/></filter></defs><g><!--class co.com.sofka.cargame.JuegoController--><a href="JuegoController.html" target="_top" xlink:actuate="onRequest" xlink:show="new" xlink:title="JuegoController.html" xlink:type="simple"><rect fill="#FEFECE" filter="url(#fwrt09fpqtz03)" height="75.8594" id="co.com.sofka.cargame.JuegoController" style="stroke: #A80036; stroke-width: 1.5;" width="219" x="6" y="8"/><ellipse cx="57.75" cy="28.0938" fill="#ADD1B2" rx="11" ry="11" style="stroke: #A80036; stroke-width: 1.0;"/><path d="M60.5156,23.9688 Q60.6719,23.75 60.8594,23.6406 Q61.0469,23.5313 61.2656,23.5313 Q61.6406,23.5313 61.875,23.7969 Q62.1094,24.0469 62.1094,24.6563 L62.1094,26.1094 Q62.1094,26.7188 61.875,26.9844 Q61.6406,27.25 61.2656,27.25 Q60.9219,27.25 60.7188,27.0469 Q60.5156,26.8594 60.4063,26.3438 Q60.3594,25.9844 60.1719,25.7969 Q59.8438,25.4219 59.2344,25.2031 Q58.625,24.9844 58,24.9844 Q57.2344,24.9844 56.5938,25.3125 Q55.9688,25.6406 55.4688,26.3906 Q54.9844,27.1406 54.9844,28.1719 L54.9844,29.2656 Q54.9844,30.5 55.875,31.3281 Q56.7656,32.1406 58.3594,32.1406 Q59.2969,32.1406 59.9531,31.8906 Q60.3438,31.7344 60.7656,31.2969 Q61.0313,31.0313 61.1719,30.9531 Q61.3281,30.875 61.5313,30.875 Q61.8594,30.875 62.1094,31.1406 Q62.375,31.3906 62.375,31.7344 Q62.375,32.0781 62.0313,32.4844 Q61.5313,33.0625 60.7344,33.3906 Q59.6563,33.8438 58.3594,33.8438 Q56.8438,33.8438 55.6406,33.2188 Q54.6563,32.7188 53.9688,31.6563 Q53.2813,30.5781 53.2813,29.2969 L53.2813,28.1406 Q53.2813,26.8125 53.8906,25.6719 Q54.5156,24.5156 55.6094,23.9063 Q56.7031,23.2813 57.9375,23.2813 Q58.6719,23.2813 59.3125,23.4531 Q59.9688,23.6094 60.5156,23.9688 Z "/><text fill="#000000" font-family="sans-serif" font-size="14" lengthAdjust="spacingAndGlyphs" textLength="100" x="81.75" y="27.5332">JuegoController</text><text fill="#000000" font-family="sans-serif" font-size="10" lengthAdjust="spacingAndGlyphs" textLength="107" x="78.25" y="40.9902">co.com.sofka.cargame</text><line style="stroke: #A80036; stroke-width: 1.5;" x1="7" x2="224" y1="48.1875" y2="48.1875"/><ellipse cx="17" cy="60.6055" fill="#84BE84" rx="3" ry="3" style="stroke: #038048; stroke-width: 1.0;"/><text fill="#000000" font-family="sans-serif" font-size="11" lengthAdjust="spacingAndGlyphs" textLength="192" x="26" y="63.6064">crearJuego(CrearJuegoCommand): void</text><ellipse cx="17" cy="74.4414" fill="#84BE84" rx="3" ry="3" style="stroke: #038048; stroke-width: 1.0;"/><text fill="#000000" font-family="sans-serif" font-size="11" lengthAdjust="spacingAndGlyphs" textLength="193" x="26" y="77.4424">iniciarJuego(InicarJuegoCommand): void</text></a><text fill="#888888" font-family="sans-serif" font-size="10" lengthAdjust="spacingAndGlyphs" textLength="190" x="26.5" y="104.3809">UMLDoclet 2.0.10, PlantUML 1.2019.08</text><!--
@startuml
    set namespaceSeparator none
    hide empty fields
    hide empty methods

    class "<size:14>JuegoController\n<size:10>co.com.sofka.cargame" as co.com.sofka.cargame.JuegoController [[JuegoController.html]] {
        +crearJuego(CrearJuegoCommand): void
        +iniciarJuego(InicarJuegoCommand): void
    }

    center footer UMLDoclet 2.0.10, PlantUML 1.2019.08
@enduml

PlantUML version 1.2019.08(Sat Jul 13 14:25:14 COT 2019)
(APACHE source distribution)
Java Runtime: Java(TM) SE Runtime Environment
JVM: Java HotSpot(TM) 64-Bit Server VM
Java Version: 11.0.11+9-LTS-194
Operating System: Windows 10
OS Version: 10.0
Default Encoding: Cp1252
Language: es
Country: CO
--></g></svg>