<?xml version="1.0" encoding="UTF-8" standalone="no"?><svg xmlns="http://www.w3.org/2000/svg" xmlns:xlink="http://www.w3.org/1999/xlink" contentScriptType="application/ecmascript" contentStyleType="text/css" height="201px" preserveAspectRatio="none" style="width:450px;height:201px;" version="1.1" viewBox="0 0 450 201" width="450px" zoomAndPan="magnify"><defs><filter height="300%" id="fofsxrkqw4j6z" width="300%" x="-1" y="-1"><feGaussianBlur result="blurOut" stdDeviation="2.0"/><feColorMatrix in="blurOut" result="blurOut2" type="matrix" values="0 0 0 0 0 0 0 0 0 0 0 0 0 0 0 0 0 0 .4 0"/><feOffset dx="4.0" dy="4.0" in="blurOut2" result="blurOut3"/><feBlend in="SourceGraphic" in2="blurOut3" mode="normal"/></filter></defs><g><!--cluster co.com.sofka.cargame--><polygon fill="#FFFFFF" filter="url(#fofsxrkqw4j6z)" points="22,24,184,24,191,47.6094,428,47.6094,428,152,22,152,22,24" style="stroke: #000000; stroke-width: 1.5;"/><line style="stroke: #000000; stroke-width: 1.5;" x1="22" x2="191" y1="47.6094" y2="47.6094"/><text fill="#000000" font-family="sans-serif" font-size="14" font-weight="bold" lengthAdjust="spacingAndGlyphs" textLength="156" x="26" y="40.5332">co.com.sofka.cargame</text><!--class co.com.sofka.cargame.Application--><a href="Application.html" target="_top" xlink:actuate="onRequest" xlink:show="new" xlink:title="Application.html" xlink:type="simple"><rect fill="#FEFECE" filter="url(#fofsxrkqw4j6z)" height="61.8359" id="co.com.sofka.cargame.Application" style="stroke: #A80036; stroke-width: 1.5;" width="119" x="292.5" y="67"/><ellipse cx="319.65" cy="83" fill="#ADD1B2" rx="11" ry="11" style="stroke: #A80036; stroke-width: 1.0;"/><path d="M322.4156,78.875 Q322.5719,78.6563 322.7594,78.5469 Q322.9469,78.4375 323.1656,78.4375 Q323.5406,78.4375 323.775,78.7031 Q324.0094,78.9531 324.0094,79.5625 L324.0094,81.0156 Q324.0094,81.625 323.775,81.8906 Q323.5406,82.1563 323.1656,82.1563 Q322.8219,82.1563 322.6188,81.9531 Q322.4156,81.7656 322.3063,81.25 Q322.2594,80.8906 322.0719,80.7031 Q321.7438,80.3281 321.1344,80.1094 Q320.525,79.8906 319.9,79.8906 Q319.1344,79.8906 318.4938,80.2188 Q317.8688,80.5469 317.3688,81.2969 Q316.8844,82.0469 316.8844,83.0781 L316.8844,84.1719 Q316.8844,85.4063 317.775,86.2344 Q318.6656,87.0469 320.2594,87.0469 Q321.1969,87.0469 321.8531,86.7969 Q322.2438,86.6406 322.6656,86.2031 Q322.9313,85.9375 323.0719,85.8594 Q323.2281,85.7813 323.4313,85.7813 Q323.7594,85.7813 324.0094,86.0469 Q324.275,86.2969 324.275,86.6406 Q324.275,86.9844 323.9313,87.3906 Q323.4313,87.9688 322.6344,88.2969 Q321.5563,88.75 320.2594,88.75 Q318.7438,88.75 317.5406,88.125 Q316.5563,87.625 315.8688,86.5625 Q315.1813,85.4844 315.1813,84.2031 L315.1813,83.0469 Q315.1813,81.7188 315.7906,80.5781 Q316.4156,79.4219 317.5094,78.8125 Q318.6031,78.1875 319.8375,78.1875 Q320.5719,78.1875 321.2125,78.3594 Q321.8688,78.5156 322.4156,78.875 Z "/><text fill="#000000" font-family="sans-serif" font-size="12" lengthAdjust="spacingAndGlyphs" textLength="60" x="336.35" y="87.9102">Application</text><line style="stroke: #A80036; stroke-width: 1.5;" x1="293.5" x2="410.5" y1="99" y2="99"/><line style="stroke: #A80036; stroke-width: 1.5;" x1="293.5" x2="410.5" y1="107" y2="107"/><ellipse cx="303.5" cy="119.418" fill="#84BE84" rx="3" ry="3" style="stroke: #038048; stroke-width: 1.0;"/><text fill="#000000" font-family="sans-serif" font-size="11" lengthAdjust="spacingAndGlyphs" text-decoration="underline" textLength="93" x="312.5" y="122.4189">main(String...): void</text></a><!--class co.com.sofka.cargame.JuegoController--><a href="JuegoController.html" target="_top" xlink:actuate="onRequest" xlink:show="new" xlink:title="JuegoController.html" xlink:type="simple"><rect fill="#FEFECE" filter="url(#fofsxrkqw4j6z)" height="75.6719" id="co.com.sofka.cargame.JuegoController" style="stroke: #A80036; stroke-width: 1.5;" width="219" x="38.5" y="60"/><ellipse cx="99.75" cy="76" fill="#ADD1B2" rx="11" ry="11" style="stroke: #A80036; stroke-width: 1.0;"/><path d="M102.5156,71.875 Q102.6719,71.6563 102.8594,71.5469 Q103.0469,71.4375 103.2656,71.4375 Q103.6406,71.4375 103.875,71.7031 Q104.1094,71.9531 104.1094,72.5625 L104.1094,74.0156 Q104.1094,74.625 103.875,74.8906 Q103.6406,75.1563 103.2656,75.1563 Q102.9219,75.1563 102.7188,74.9531 Q102.5156,74.7656 102.4063,74.25 Q102.3594,73.8906 102.1719,73.7031 Q101.8438,73.3281 101.2344,73.1094 Q100.625,72.8906 100,72.8906 Q99.2344,72.8906 98.5938,73.2188 Q97.9688,73.5469 97.4688,74.2969 Q96.9844,75.0469 96.9844,76.0781 L96.9844,77.1719 Q96.9844,78.4063 97.875,79.2344 Q98.7656,80.0469 100.3594,80.0469 Q101.2969,80.0469 101.9531,79.7969 Q102.3438,79.6406 102.7656,79.2031 Q103.0313,78.9375 103.1719,78.8594 Q103.3281,78.7813 103.5313,78.7813 Q103.8594,78.7813 104.1094,79.0469 Q104.375,79.2969 104.375,79.6406 Q104.375,79.9844 104.0313,80.3906 Q103.5313,80.9688 102.7344,81.2969 Q101.6563,81.75 100.3594,81.75 Q98.8438,81.75 97.6406,81.125 Q96.6563,80.625 95.9688,79.5625 Q95.2813,78.4844 95.2813,77.2031 L95.2813,76.0469 Q95.2813,74.7188 95.8906,73.5781 Q96.5156,72.4219 97.6094,71.8125 Q98.7031,71.1875 99.9375,71.1875 Q100.6719,71.1875 101.3125,71.3594 Q101.9688,71.5156 102.5156,71.875 Z "/><text fill="#000000" font-family="sans-serif" font-size="12" lengthAdjust="spacingAndGlyphs" textLength="88" x="120.25" y="80.9102">JuegoController</text><line style="stroke: #A80036; stroke-width: 1.5;" x1="39.5" x2="256.5" y1="92" y2="92"/><line style="stroke: #A80036; stroke-width: 1.5;" x1="39.5" x2="256.5" y1="100" y2="100"/><ellipse cx="49.5" cy="112.418" fill="#84BE84" rx="3" ry="3" style="stroke: #038048; stroke-width: 1.0;"/><text fill="#000000" font-family="sans-serif" font-size="11" lengthAdjust="spacingAndGlyphs" textLength="192" x="58.5" y="115.4189">crearJuego(CrearJuegoCommand): void</text><ellipse cx="49.5" cy="126.2539" fill="#84BE84" rx="3" ry="3" style="stroke: #038048; stroke-width: 1.0;"/><text fill="#000000" font-family="sans-serif" font-size="11" lengthAdjust="spacingAndGlyphs" textLength="193" x="58.5" y="129.2549">iniciarJuego(InicarJuegoCommand): void</text></a><text fill="#888888" font-family="sans-serif" font-size="10" lengthAdjust="spacingAndGlyphs" textLength="190" x="136" y="188.3809">UMLDoclet 2.0.10, PlantUML 1.2019.08</text><!--
@startuml
    namespace co.com.sofka.cargame {

        class Application [[Application.html]] {
            {static} +main(String...): void
        }

        class JuegoController [[JuegoController.html]] {
            +crearJuego(CrearJuegoCommand): void
            +iniciarJuego(InicarJuegoCommand): void
        }

    }

    center footer UMLDoclet 2.0.10, PlantUML 1.2019.08
@enduml

PlantUML version 1.2019.08(Sat Jul 13 14:25:14 COT 2019)
(APACHE source distribution)
Java Runtime: Java(TM) SE Runtime Environment
JVM: Java HotSpot(TM) 64-Bit Server VM
Java Version: 11.0.11+9-LTS-194
Operating System: Windows 10
OS Version: 10.0
Default Encoding: Cp1252
Language: es
Country: CO
--></g></svg>