<?xml version="1.0" encoding="UTF-8" standalone="no"?><svg xmlns="http://www.w3.org/2000/svg" xmlns:xlink="http://www.w3.org/1999/xlink" contentScriptType="application/ecmascript" contentStyleType="text/css" height="322px" preserveAspectRatio="none" style="width:465px;height:322px;" version="1.1" viewBox="0 0 465 322" width="465px" zoomAndPan="magnify"><defs><filter height="300%" id="fqgkcymrwb0ls" width="300%" x="-1" y="-1"><feGaussianBlur result="blurOut" stdDeviation="2.0"/><feColorMatrix in="blurOut" result="blurOut2" type="matrix" values="0 0 0 0 0 0 0 0 0 0 0 0 0 0 0 0 0 0 .4 0"/><feOffset dx="4.0" dy="4.0" in="blurOut2" result="blurOut3"/><feBlend in="SourceGraphic" in2="blurOut3" mode="normal"/></filter></defs><g><!--class co.com.sofka.cargame.infra.bus.EventListenerSubscriber--><a href="EventListenerSubscriber.html" target="_top" xlink:actuate="onRequest" xlink:show="new" xlink:title="EventListenerSubscriber.html" xlink:type="simple"><rect fill="#FEFECE" filter="url(#fqgkcymrwb0ls)" height="117.3672" id="co.com.sofka.cargame.infra.bus.EventListenerSubscriber" style="stroke: #A80036; stroke-width: 1.5;" width="448" x="6" y="172"/><ellipse cx="148.25" cy="192.0938" fill="#ADD1B2" rx="11" ry="11" style="stroke: #A80036; stroke-width: 1.0;"/><path d="M151.0156,187.9688 Q151.1719,187.75 151.3594,187.6406 Q151.5469,187.5313 151.7656,187.5313 Q152.1406,187.5313 152.375,187.7969 Q152.6094,188.0469 152.6094,188.6563 L152.6094,190.1094 Q152.6094,190.7188 152.375,190.9844 Q152.1406,191.25 151.7656,191.25 Q151.4219,191.25 151.2188,191.0469 Q151.0156,190.8594 150.9063,190.3438 Q150.8594,189.9844 150.6719,189.7969 Q150.3438,189.4219 149.7344,189.2031 Q149.125,188.9844 148.5,188.9844 Q147.7344,188.9844 147.0938,189.3125 Q146.4688,189.6406 145.9688,190.3906 Q145.4844,191.1406 145.4844,192.1719 L145.4844,193.2656 Q145.4844,194.5 146.375,195.3281 Q147.2656,196.1406 148.8594,196.1406 Q149.7969,196.1406 150.4531,195.8906 Q150.8438,195.7344 151.2656,195.2969 Q151.5313,195.0313 151.6719,194.9531 Q151.8281,194.875 152.0313,194.875 Q152.3594,194.875 152.6094,195.1406 Q152.875,195.3906 152.875,195.7344 Q152.875,196.0781 152.5313,196.4844 Q152.0313,197.0625 151.2344,197.3906 Q150.1563,197.8438 148.8594,197.8438 Q147.3438,197.8438 146.1406,197.2188 Q145.1563,196.7188 144.4688,195.6563 Q143.7813,194.5781 143.7813,193.2969 L143.7813,192.1406 Q143.7813,190.8125 144.3906,189.6719 Q145.0156,188.5156 146.1094,187.9063 Q147.2031,187.2813 148.4375,187.2813 Q149.1719,187.2813 149.8125,187.4531 Q150.4688,187.6094 151.0156,187.9688 Z "/><text fill="#000000" font-family="sans-serif" font-size="14" lengthAdjust="spacingAndGlyphs" textLength="155" x="168.75" y="191.5332">EventListenerSubscriber</text><text fill="#000000" font-family="sans-serif" font-size="10" lengthAdjust="spacingAndGlyphs" textLength="150" x="171.25" y="204.9902">co.com.sofka.cargame.infra.bus</text><line style="stroke: #A80036; stroke-width: 1.5;" x1="7" x2="453" y1="212.1875" y2="212.1875"/><ellipse cx="17" cy="224.6055" fill="#84BE84" rx="3" ry="3" style="stroke: #038048; stroke-width: 1.0;"/><text fill="#000000" font-family="sans-serif" font-size="11" lengthAdjust="spacingAndGlyphs" textLength="422" x="26" y="227.6064">EventListenerSubscriber(Set&lt;UseCaseWrap&gt;, EventStoreRepository, SubscriberEvent)</text><ellipse cx="17" cy="238.4414" fill="#84BE84" rx="3" ry="3" style="stroke: #038048; stroke-width: 1.0;"/><text fill="#000000" font-family="sans-serif" font-size="11" lengthAdjust="spacingAndGlyphs" textLength="155" x="26" y="241.4424">onSubscribe(Subscription): void</text><ellipse cx="17" cy="252.2773" fill="#84BE84" rx="3" ry="3" style="stroke: #038048; stroke-width: 1.0;"/><text fill="#000000" font-family="sans-serif" font-size="11" lengthAdjust="spacingAndGlyphs" textLength="130" x="26" y="255.2783">onNext(DomainEvent): void</text><ellipse cx="17" cy="266.1133" fill="#84BE84" rx="3" ry="3" style="stroke: #038048; stroke-width: 1.0;"/><text fill="#000000" font-family="sans-serif" font-size="11" lengthAdjust="spacingAndGlyphs" textLength="122" x="26" y="269.1143">onError(Throwable): void</text><ellipse cx="17" cy="279.9492" fill="#84BE84" rx="3" ry="3" style="stroke: #038048; stroke-width: 1.0;"/><text fill="#000000" font-family="sans-serif" font-size="11" lengthAdjust="spacingAndGlyphs" textLength="90" x="26" y="282.9502">onComplete(): void</text></a><!--class java.util.concurrent.Flow.Subscriber--><a href="https://docs.oracle.com/en/java/javase/11/docs/api/java.base/java/util/concurrent/Flow.Subscriber.html?is-external=true" target="_top" xlink:actuate="onRequest" xlink:show="new" xlink:title="https://docs.oracle.com/en/java/javase/11/docs/api/java.base/java/util/concurrent/Flow.Subscriber.html?is-external=true" xlink:type="simple"><rect fill="#FEFECE" filter="url(#fqgkcymrwb0ls)" height="103.5313" id="java.util.concurrent.Flow.Subscriber" style="stroke: #A80036; stroke-width: 1.5;" width="212" x="124" y="8"/><ellipse cx="139" cy="28.0938" fill="#B4A7E5" rx="11" ry="11" style="stroke: #A80036; stroke-width: 1.0;"/><path d="M139.9531,24.7344 L139.9531,31.3906 L141.6719,31.3906 Q142.2813,31.3906 142.5469,31.625 Q142.8125,31.8594 142.8125,32.25 Q142.8125,32.625 142.5469,32.8594 Q142.2813,33.0938 141.6719,33.0938 L136.5313,33.0938 Q135.9219,33.0938 135.6563,32.8594 Q135.3906,32.625 135.3906,32.2344 Q135.3906,31.8594 135.6563,31.625 Q135.9219,31.3906 136.5313,31.3906 L138.25,31.3906 L138.25,24.7344 L136.5313,24.7344 Q135.9219,24.7344 135.6563,24.5 Q135.3906,24.2656 135.3906,23.875 Q135.3906,23.5 135.6563,23.2656 Q135.9219,23.0313 136.5313,23.0313 L141.6719,23.0313 Q142.2813,23.0313 142.5469,23.2656 Q142.8125,23.5 142.8125,23.875 Q142.8125,24.2656 142.5469,24.5 Q142.2813,24.7344 141.6719,24.7344 L139.9531,24.7344 Z "/><text fill="#000000" font-family="sans-serif" font-size="14" font-style="italic" lengthAdjust="spacingAndGlyphs" textLength="101" x="153" y="27.5332">Flow.Subscriber</text><text fill="#000000" font-family="sans-serif" font-size="10" font-style="italic" lengthAdjust="spacingAndGlyphs" textLength="89" x="159" y="40.9902">java.util.concurrent</text><rect fill="#FFFFFF" height="17.0938" style="stroke: #000000; stroke-width: 1.0; stroke-dasharray: 2.0,2.0;" width="77" x="262" y="5"/><text fill="#000000" font-family="sans-serif" font-size="12" font-style="italic" lengthAdjust="spacingAndGlyphs" textLength="75" x="263" y="18.457">DomainEvent</text><line style="stroke: #A80036; stroke-width: 1.5;" x1="125" x2="335" y1="48.1875" y2="48.1875"/><ellipse cx="135" cy="60.6055" fill="#84BE84" rx="3" ry="3" style="stroke: #038048; stroke-width: 1.0;"/><text fill="#000000" font-family="sans-serif" font-size="11" font-style="italic" lengthAdjust="spacingAndGlyphs" textLength="161" x="144" y="63.6064">onSubscribe(Subscription): void</text><ellipse cx="135" cy="74.4414" fill="#84BE84" rx="3" ry="3" style="stroke: #038048; stroke-width: 1.0;"/><text fill="#000000" font-family="sans-serif" font-size="11" font-style="italic" lengthAdjust="spacingAndGlyphs" textLength="134" x="144" y="77.4424">onNext(DomainEvent): void</text><ellipse cx="135" cy="88.2773" fill="#84BE84" rx="3" ry="3" style="stroke: #038048; stroke-width: 1.0;"/><text fill="#000000" font-family="sans-serif" font-size="11" font-style="italic" lengthAdjust="spacingAndGlyphs" textLength="123" x="144" y="91.2783">onError(Throwable): void</text><ellipse cx="135" cy="102.1133" fill="#84BE84" rx="3" ry="3" style="stroke: #038048; stroke-width: 1.0;"/><text fill="#000000" font-family="sans-serif" font-size="11" font-style="italic" lengthAdjust="spacingAndGlyphs" textLength="93" x="144" y="105.1143">onComplete(): void</text></a><!--link java.util.concurrent.Flow.Subscriber to co.com.sofka.cargame.infra.bus.EventListenerSubscriber--><path d="M230,132.24 C230,145.46 230,159.12 230,171.88 " fill="none" id="java.util.concurrent.Flow.Subscriber-co.com.sofka.cargame.infra.bus.EventListenerSubscriber" style="stroke: #A80036; stroke-width: 1.0; stroke-dasharray: 7.0,7.0;"/><polygon fill="none" points="223,132.01,230,112.01,237,132.01,223,132.01" style="stroke: #A80036; stroke-width: 1.0;"/><text fill="#888888" font-family="sans-serif" font-size="10" lengthAdjust="spacingAndGlyphs" textLength="190" x="141" y="309.3809">UMLDoclet 2.0.10, PlantUML 1.2019.08</text><!--
@startuml
    set namespaceSeparator none
    hide empty fields
    hide empty methods

    class "<size:14>EventListenerSubscriber\n<size:10>co.com.sofka.cargame.infra.bus" as co.com.sofka.cargame.infra.bus.EventListenerSubscriber [[EventListenerSubscriber.html]] {
        +EventListenerSubscriber(Set<UseCaseWrap>, EventStoreRepository, SubscriberEvent)
        +onSubscribe(Subscription): void
        +onNext(DomainEvent): void
        +onError(Throwable): void
        +onComplete(): void
    }

    interface "<size:14>Flow.Subscriber\n<size:10>java.util.concurrent" as java.util.concurrent.Flow.Subscriber<DomainEvent> [[https://docs.oracle.com/en/java/javase/11/docs/api/java.base/java/util/concurrent/Flow.Subscriber.html?is-external=true]] {
        {abstract} +onSubscribe(Subscription): void
        {abstract} +onNext(DomainEvent): void
        {abstract} +onError(Throwable): void
        {abstract} +onComplete(): void
    }

    java.util.concurrent.Flow.Subscriber <|.. co.com.sofka.cargame.infra.bus.EventListenerSubscriber

    center footer UMLDoclet 2.0.10, PlantUML 1.2019.08
@enduml

PlantUML version 1.2019.08(Sat Jul 13 14:25:14 COT 2019)
(APACHE source distribution)
Java Runtime: Java(TM) SE Runtime Environment
JVM: Java HotSpot(TM) 64-Bit Server VM
Java Version: 11.0.11+9-LTS-194
Operating System: Windows 10
OS Version: 10.0
Default Encoding: Cp1252
Language: es
Country: CO
--></g></svg>