<?xml version="1.0" encoding="UTF-8" standalone="no"?><svg xmlns="http://www.w3.org/2000/svg" xmlns:xlink="http://www.w3.org/1999/xlink" contentScriptType="application/ecmascript" contentStyleType="text/css" height="103px" preserveAspectRatio="none" style="width:208px;height:103px;" version="1.1" viewBox="0 0 208 103" width="208px" zoomAndPan="magnify"><defs><filter height="300%" id="f1kuiqrznuu9j8" width="300%" x="-1" y="-1"><feGaussianBlur result="blurOut" stdDeviation="2.0"/><feColorMatrix in="blurOut" result="blurOut2" type="matrix" values="0 0 0 0 0 0 0 0 0 0 0 0 0 0 0 0 0 0 .4 0"/><feOffset dx="4.0" dy="4.0" in="blurOut2" result="blurOut3"/><feBlend in="SourceGraphic" in2="blurOut3" mode="normal"/></filter></defs><g><!--class co.com.sofka.cargame.infra.bus.EventSubscriber--><a href="EventSubscriber.html" target="_top" xlink:actuate="onRequest" xlink:show="new" xlink:title="EventSubscriber.html" xlink:type="simple"><rect fill="#FEFECE" filter="url(#f1kuiqrznuu9j8)" height="62.0234" id="co.com.sofka.cargame.infra.bus.EventSubscriber" style="stroke: #A80036; stroke-width: 1.5;" width="178" x="6" y="8"/><ellipse cx="21" cy="28.0938" fill="#B4A7E5" rx="11" ry="11" style="stroke: #A80036; stroke-width: 1.0;"/><path d="M21.9531,24.7344 L21.9531,31.3906 L23.6719,31.3906 Q24.2813,31.3906 24.5469,31.625 Q24.8125,31.8594 24.8125,32.25 Q24.8125,32.625 24.5469,32.8594 Q24.2813,33.0938 23.6719,33.0938 L18.5313,33.0938 Q17.9219,33.0938 17.6563,32.8594 Q17.3906,32.625 17.3906,32.2344 Q17.3906,31.8594 17.6563,31.625 Q17.9219,31.3906 18.5313,31.3906 L20.25,31.3906 L20.25,24.7344 L18.5313,24.7344 Q17.9219,24.7344 17.6563,24.5 Q17.3906,24.2656 17.3906,23.875 Q17.3906,23.5 17.6563,23.2656 Q17.9219,23.0313 18.5313,23.0313 L23.6719,23.0313 Q24.2813,23.0313 24.5469,23.2656 Q24.8125,23.5 24.8125,23.875 Q24.8125,24.2656 24.5469,24.5 Q24.2813,24.7344 23.6719,24.7344 L21.9531,24.7344 Z "/><text fill="#000000" font-family="sans-serif" font-size="14" font-style="italic" lengthAdjust="spacingAndGlyphs" textLength="103" x="56.5" y="27.5332">EventSubscriber</text><text fill="#000000" font-family="sans-serif" font-size="10" font-style="italic" lengthAdjust="spacingAndGlyphs" textLength="146" x="35" y="40.9902">co.com.sofka.cargame.infra.bus</text><line style="stroke: #A80036; stroke-width: 1.5;" x1="7" x2="183" y1="48.1875" y2="48.1875"/><ellipse cx="17" cy="60.6055" fill="#84BE84" rx="3" ry="3" style="stroke: #038048; stroke-width: 1.0;"/><text fill="#000000" font-family="sans-serif" font-size="11" font-style="italic" lengthAdjust="spacingAndGlyphs" textLength="149" x="26" y="63.6064">subscribe(String, String): void</text></a><text fill="#888888" font-family="sans-serif" font-size="10" lengthAdjust="spacingAndGlyphs" textLength="190" x="6" y="90.3809">UMLDoclet 2.0.10, PlantUML 1.2019.08</text><!--
@startuml
    set namespaceSeparator none
    hide empty fields
    hide empty methods

    interface "<size:14>EventSubscriber\n<size:10>co.com.sofka.cargame.infra.bus" as co.com.sofka.cargame.infra.bus.EventSubscriber [[EventSubscriber.html]] {
        {abstract} +subscribe(String, String): void
    }

    center footer UMLDoclet 2.0.10, PlantUML 1.2019.08
@enduml

PlantUML version 1.2019.08(Sat Jul 13 14:25:14 COT 2019)
(APACHE source distribution)
Java Runtime: Java(TM) SE Runtime Environment
JVM: Java HotSpot(TM) 64-Bit Server VM
Java Version: 11.0.11+9-LTS-194
Operating System: Windows 10
OS Version: 10.0
Default Encoding: Cp1252
Language: es
Country: CO
--></g></svg>