<?xml version="1.0" encoding="UTF-8" standalone="no"?><svg xmlns="http://www.w3.org/2000/svg" xmlns:xlink="http://www.w3.org/1999/xlink" contentScriptType="application/ecmascript" contentStyleType="text/css" height="239px" preserveAspectRatio="none" style="width:312px;height:239px;" version="1.1" viewBox="0 0 312 239" width="312px" zoomAndPan="magnify"><defs><filter height="300%" id="fj0os4yec7uu9" width="300%" x="-1" y="-1"><feGaussianBlur result="blurOut" stdDeviation="2.0"/><feColorMatrix in="blurOut" result="blurOut2" type="matrix" values="0 0 0 0 0 0 0 0 0 0 0 0 0 0 0 0 0 0 .4 0"/><feOffset dx="4.0" dy="4.0" in="blurOut2" result="blurOut3"/><feBlend in="SourceGraphic" in2="blurOut3" mode="normal"/></filter></defs><g><!--class co.com.sofka.cargame.infra.bus.NATSEventSubscriber--><a href="NATSEventSubscriber.html" target="_top" xlink:actuate="onRequest" xlink:show="new" xlink:title="NATSEventSubscriber.html" xlink:type="simple"><rect fill="#FEFECE" filter="url(#fj0os4yec7uu9)" height="75.8594" id="co.com.sofka.cargame.infra.bus.NATSEventSubscriber" style="stroke: #A80036; stroke-width: 1.5;" width="295" x="6" y="130"/><ellipse cx="74.25" cy="150.0938" fill="#ADD1B2" rx="11" ry="11" style="stroke: #A80036; stroke-width: 1.0;"/><path d="M77.0156,145.9688 Q77.1719,145.75 77.3594,145.6406 Q77.5469,145.5313 77.7656,145.5313 Q78.1406,145.5313 78.375,145.7969 Q78.6094,146.0469 78.6094,146.6563 L78.6094,148.1094 Q78.6094,148.7188 78.375,148.9844 Q78.1406,149.25 77.7656,149.25 Q77.4219,149.25 77.2188,149.0469 Q77.0156,148.8594 76.9063,148.3438 Q76.8594,147.9844 76.6719,147.7969 Q76.3438,147.4219 75.7344,147.2031 Q75.125,146.9844 74.5,146.9844 Q73.7344,146.9844 73.0938,147.3125 Q72.4688,147.6406 71.9688,148.3906 Q71.4844,149.1406 71.4844,150.1719 L71.4844,151.2656 Q71.4844,152.5 72.375,153.3281 Q73.2656,154.1406 74.8594,154.1406 Q75.7969,154.1406 76.4531,153.8906 Q76.8438,153.7344 77.2656,153.2969 Q77.5313,153.0313 77.6719,152.9531 Q77.8281,152.875 78.0313,152.875 Q78.3594,152.875 78.6094,153.1406 Q78.875,153.3906 78.875,153.7344 Q78.875,154.0781 78.5313,154.4844 Q78.0313,155.0625 77.2344,155.3906 Q76.1563,155.8438 74.8594,155.8438 Q73.3438,155.8438 72.1406,155.2188 Q71.1563,154.7188 70.4688,153.6563 Q69.7813,152.5781 69.7813,151.2969 L69.7813,150.1406 Q69.7813,148.8125 70.3906,147.6719 Q71.0156,146.5156 72.1094,145.9063 Q73.2031,145.2813 74.4375,145.2813 Q75.1719,145.2813 75.8125,145.4531 Q76.4688,145.6094 77.0156,145.9688 Z "/><text fill="#000000" font-family="sans-serif" font-size="14" lengthAdjust="spacingAndGlyphs" textLength="140" x="99.75" y="149.5332">NATSEventSubscriber</text><text fill="#000000" font-family="sans-serif" font-size="10" lengthAdjust="spacingAndGlyphs" textLength="150" x="94.75" y="162.9902">co.com.sofka.cargame.infra.bus</text><line style="stroke: #A80036; stroke-width: 1.5;" x1="7" x2="300" y1="170.1875" y2="170.1875"/><ellipse cx="17" cy="182.6055" fill="#84BE84" rx="3" ry="3" style="stroke: #038048; stroke-width: 1.0;"/><text fill="#000000" font-family="sans-serif" font-size="11" lengthAdjust="spacingAndGlyphs" textLength="269" x="26" y="185.6064">NATSEventSubscriber(String, EventListenerSubscriber)</text><ellipse cx="17" cy="196.4414" fill="#84BE84" rx="3" ry="3" style="stroke: #038048; stroke-width: 1.0;"/><text fill="#000000" font-family="sans-serif" font-size="11" lengthAdjust="spacingAndGlyphs" textLength="144" x="26" y="199.4424">subscribe(String, String): void</text></a><!--class co.com.sofka.cargame.infra.bus.EventSubscriber--><a href="EventSubscriber.html" target="_top" xlink:actuate="onRequest" xlink:show="new" xlink:title="EventSubscriber.html" xlink:type="simple"><rect fill="#FEFECE" filter="url(#fj0os4yec7uu9)" height="62.0234" id="co.com.sofka.cargame.infra.bus.EventSubscriber" style="stroke: #A80036; stroke-width: 1.5;" width="178" x="64.5" y="8"/><ellipse cx="79.5" cy="28.0938" fill="#B4A7E5" rx="11" ry="11" style="stroke: #A80036; stroke-width: 1.0;"/><path d="M80.4531,24.7344 L80.4531,31.3906 L82.1719,31.3906 Q82.7813,31.3906 83.0469,31.625 Q83.3125,31.8594 83.3125,32.25 Q83.3125,32.625 83.0469,32.8594 Q82.7813,33.0938 82.1719,33.0938 L77.0313,33.0938 Q76.4219,33.0938 76.1563,32.8594 Q75.8906,32.625 75.8906,32.2344 Q75.8906,31.8594 76.1563,31.625 Q76.4219,31.3906 77.0313,31.3906 L78.75,31.3906 L78.75,24.7344 L77.0313,24.7344 Q76.4219,24.7344 76.1563,24.5 Q75.8906,24.2656 75.8906,23.875 Q75.8906,23.5 76.1563,23.2656 Q76.4219,23.0313 77.0313,23.0313 L82.1719,23.0313 Q82.7813,23.0313 83.0469,23.2656 Q83.3125,23.5 83.3125,23.875 Q83.3125,24.2656 83.0469,24.5 Q82.7813,24.7344 82.1719,24.7344 L80.4531,24.7344 Z "/><text fill="#000000" font-family="sans-serif" font-size="14" font-style="italic" lengthAdjust="spacingAndGlyphs" textLength="103" x="115" y="27.5332">EventSubscriber</text><text fill="#000000" font-family="sans-serif" font-size="10" font-style="italic" lengthAdjust="spacingAndGlyphs" textLength="146" x="93.5" y="40.9902">co.com.sofka.cargame.infra.bus</text><line style="stroke: #A80036; stroke-width: 1.5;" x1="65.5" x2="241.5" y1="48.1875" y2="48.1875"/><ellipse cx="75.5" cy="60.6055" fill="#84BE84" rx="3" ry="3" style="stroke: #038048; stroke-width: 1.0;"/><text fill="#000000" font-family="sans-serif" font-size="11" font-style="italic" lengthAdjust="spacingAndGlyphs" textLength="149" x="84.5" y="63.6064">subscribe(String, String): void</text></a><!--link co.com.sofka.cargame.infra.bus.EventSubscriber to co.com.sofka.cargame.infra.bus.NATSEventSubscriber--><path d="M153.5,90.43 C153.5,103.59 153.5,117.53 153.5,129.86 " fill="none" id="co.com.sofka.cargame.infra.bus.EventSubscriber-co.com.sofka.cargame.infra.bus.NATSEventSubscriber" style="stroke: #A80036; stroke-width: 1.0; stroke-dasharray: 7.0,7.0;"/><polygon fill="none" points="146.5,90.1,153.5,70.1,160.5,90.1,146.5,90.1" style="stroke: #A80036; stroke-width: 1.0;"/><text fill="#888888" font-family="sans-serif" font-size="10" lengthAdjust="spacingAndGlyphs" textLength="190" x="64.5" y="226.3809">UMLDoclet 2.0.10, PlantUML 1.2019.08</text><!--
@startuml
    set namespaceSeparator none
    hide empty fields
    hide empty methods

    class "<size:14>NATSEventSubscriber\n<size:10>co.com.sofka.cargame.infra.bus" as co.com.sofka.cargame.infra.bus.NATSEventSubscriber [[NATSEventSubscriber.html]] {
        +NATSEventSubscriber(String, EventListenerSubscriber)
        +subscribe(String, String): void
    }

    interface "<size:14>EventSubscriber\n<size:10>co.com.sofka.cargame.infra.bus" as co.com.sofka.cargame.infra.bus.EventSubscriber [[EventSubscriber.html]] {
        {abstract} +subscribe(String, String): void
    }

    co.com.sofka.cargame.infra.bus.EventSubscriber <|.. co.com.sofka.cargame.infra.bus.NATSEventSubscriber

    center footer UMLDoclet 2.0.10, PlantUML 1.2019.08
@enduml

PlantUML version 1.2019.08(Sat Jul 13 14:25:14 COT 2019)
(APACHE source distribution)
Java Runtime: Java(TM) SE Runtime Environment
JVM: Java HotSpot(TM) 64-Bit Server VM
Java Version: 11.0.11+9-LTS-194
Operating System: Windows 10
OS Version: 10.0
Default Encoding: Cp1252
Language: es
Country: CO
--></g></svg>