<?xml version="1.0" encoding="UTF-8" standalone="no"?><svg xmlns="http://www.w3.org/2000/svg" xmlns:xlink="http://www.w3.org/1999/xlink" contentScriptType="application/ecmascript" contentStyleType="text/css" height="281px" preserveAspectRatio="none" style="width:234px;height:281px;" version="1.1" viewBox="0 0 234 281" width="234px" zoomAndPan="magnify"><defs><filter height="300%" id="f1tc0gz7dmeth5" width="300%" x="-1" y="-1"><feGaussianBlur result="blurOut" stdDeviation="2.0"/><feColorMatrix in="blurOut" result="blurOut2" type="matrix" values="0 0 0 0 0 0 0 0 0 0 0 0 0 0 0 0 0 0 .4 0"/><feOffset dx="4.0" dy="4.0" in="blurOut2" result="blurOut3"/><feBlend in="SourceGraphic" in2="blurOut3" mode="normal"/></filter></defs><g><!--class co.com.sofka.cargame.infra.bus.NATSEventBus--><a href="NATSEventBus.html" target="_top" xlink:actuate="onRequest" xlink:show="new" xlink:title="NATSEventBus.html" xlink:type="simple"><rect fill="#FEFECE" filter="url(#f1tc0gz7dmeth5)" height="103.5313" id="co.com.sofka.cargame.infra.bus.NATSEventBus" style="stroke: #A80036; stroke-width: 1.5;" width="217" x="6" y="144"/><ellipse cx="36.75" cy="164.0938" fill="#ADD1B2" rx="11" ry="11" style="stroke: #A80036; stroke-width: 1.0;"/><path d="M39.5156,159.9688 Q39.6719,159.75 39.8594,159.6406 Q40.0469,159.5313 40.2656,159.5313 Q40.6406,159.5313 40.875,159.7969 Q41.1094,160.0469 41.1094,160.6563 L41.1094,162.1094 Q41.1094,162.7188 40.875,162.9844 Q40.6406,163.25 40.2656,163.25 Q39.9219,163.25 39.7188,163.0469 Q39.5156,162.8594 39.4063,162.3438 Q39.3594,161.9844 39.1719,161.7969 Q38.8438,161.4219 38.2344,161.2031 Q37.625,160.9844 37,160.9844 Q36.2344,160.9844 35.5938,161.3125 Q34.9688,161.6406 34.4688,162.3906 Q33.9844,163.1406 33.9844,164.1719 L33.9844,165.2656 Q33.9844,166.5 34.875,167.3281 Q35.7656,168.1406 37.3594,168.1406 Q38.2969,168.1406 38.9531,167.8906 Q39.3438,167.7344 39.7656,167.2969 Q40.0313,167.0313 40.1719,166.9531 Q40.3281,166.875 40.5313,166.875 Q40.8594,166.875 41.1094,167.1406 Q41.375,167.3906 41.375,167.7344 Q41.375,168.0781 41.0313,168.4844 Q40.5313,169.0625 39.7344,169.3906 Q38.6563,169.8438 37.3594,169.8438 Q35.8438,169.8438 34.6406,169.2188 Q33.6563,168.7188 32.9688,167.6563 Q32.2813,166.5781 32.2813,165.2969 L32.2813,164.1406 Q32.2813,162.8125 32.8906,161.6719 Q33.5156,160.5156 34.6094,159.9063 Q35.7031,159.2813 36.9375,159.2813 Q37.6719,159.2813 38.3125,159.4531 Q38.9688,159.6094 39.5156,159.9688 Z "/><text fill="#000000" font-family="sans-serif" font-size="14" lengthAdjust="spacingAndGlyphs" textLength="96" x="81.25" y="163.5332">NATSEventBus</text><text fill="#000000" font-family="sans-serif" font-size="10" lengthAdjust="spacingAndGlyphs" textLength="150" x="54.25" y="176.9902">co.com.sofka.cargame.infra.bus</text><line style="stroke: #A80036; stroke-width: 1.5;" x1="7" x2="222" y1="184.1875" y2="184.1875"/><ellipse cx="17" cy="196.6055" fill="#84BE84" rx="3" ry="3" style="stroke: #038048; stroke-width: 1.0;"/><text fill="#000000" font-family="sans-serif" font-size="11" lengthAdjust="spacingAndGlyphs" textLength="191" x="26" y="199.6064">NATSEventBus(String, MongoTemplate)</text><ellipse cx="17" cy="210.4414" fill="#84BE84" rx="3" ry="3" style="stroke: #038048; stroke-width: 1.0;"/><text fill="#000000" font-family="sans-serif" font-size="11" lengthAdjust="spacingAndGlyphs" textLength="130" x="26" y="213.4424">publish(DomainEvent): void</text><ellipse cx="17" cy="224.2773" fill="#84BE84" rx="3" ry="3" style="stroke: #038048; stroke-width: 1.0;"/><text fill="#000000" font-family="sans-serif" font-size="11" lengthAdjust="spacingAndGlyphs" textLength="143" x="26" y="227.2783">publishError(ErrorEvent): void</text><ellipse cx="17" cy="238.1133" fill="#84BE84" rx="3" ry="3" style="stroke: #038048; stroke-width: 1.0;"/><text fill="#000000" font-family="sans-serif" font-size="11" lengthAdjust="spacingAndGlyphs" textLength="191" x="26" y="241.1143">publishToTopic(String, ErrorEvent): void</text></a><!--class co.com.sofka.infraestructure.bus.EventBus--><rect fill="#FEFECE" filter="url(#f1tc0gz7dmeth5)" height="75.8594" id="co.com.sofka.infraestructure.bus.EventBus" style="stroke: #A80036; stroke-width: 1.5;" width="182" x="23.5" y="8"/><ellipse cx="38.5" cy="28.0938" fill="#B4A7E5" rx="11" ry="11" style="stroke: #A80036; stroke-width: 1.0;"/><path d="M39.4531,24.7344 L39.4531,31.3906 L41.1719,31.3906 Q41.7813,31.3906 42.0469,31.625 Q42.3125,31.8594 42.3125,32.25 Q42.3125,32.625 42.0469,32.8594 Q41.7813,33.0938 41.1719,33.0938 L36.0313,33.0938 Q35.4219,33.0938 35.1563,32.8594 Q34.8906,32.625 34.8906,32.2344 Q34.8906,31.8594 35.1563,31.625 Q35.4219,31.3906 36.0313,31.3906 L37.75,31.3906 L37.75,24.7344 L36.0313,24.7344 Q35.4219,24.7344 35.1563,24.5 Q34.8906,24.2656 34.8906,23.875 Q34.8906,23.5 35.1563,23.2656 Q35.4219,23.0313 36.0313,23.0313 L41.1719,23.0313 Q41.7813,23.0313 42.0469,23.2656 Q42.3125,23.5 42.3125,23.875 Q42.3125,24.2656 42.0469,24.5 Q41.7813,24.7344 41.1719,24.7344 L39.4531,24.7344 Z "/><text fill="#000000" font-family="sans-serif" font-size="14" font-style="italic" lengthAdjust="spacingAndGlyphs" textLength="59" x="98" y="27.5332">EventBus</text><text fill="#000000" font-family="sans-serif" font-size="10" font-style="italic" lengthAdjust="spacingAndGlyphs" textLength="150" x="52.5" y="40.9902">co.com.sofka.infraestructure.bus</text><line style="stroke: #A80036; stroke-width: 1.5;" x1="24.5" x2="204.5" y1="48.1875" y2="48.1875"/><ellipse cx="34.5" cy="60.6055" fill="#84BE84" rx="3" ry="3" style="stroke: #038048; stroke-width: 1.0;"/><text fill="#000000" font-family="sans-serif" font-size="11" font-style="italic" lengthAdjust="spacingAndGlyphs" textLength="136" x="43.5" y="63.6064">publish(DomainEvent): void</text><ellipse cx="34.5" cy="74.4414" fill="#84BE84" rx="3" ry="3" style="stroke: #038048; stroke-width: 1.0;"/><text fill="#000000" font-family="sans-serif" font-size="11" font-style="italic" lengthAdjust="spacingAndGlyphs" textLength="148" x="43.5" y="77.4424">publishError(ErrorEvent): void</text><!--link co.com.sofka.infraestructure.bus.EventBus to co.com.sofka.cargame.infra.bus.NATSEventBus--><path d="M114.5,104.58 C114.5,117.57 114.5,131.27 114.5,143.97 " fill="none" id="co.com.sofka.infraestructure.bus.EventBus-co.com.sofka.cargame.infra.bus.NATSEventBus" style="stroke: #A80036; stroke-width: 1.0; stroke-dasharray: 7.0,7.0;"/><polygon fill="none" points="107.5,104.35,114.5,84.35,121.5,104.35,107.5,104.35" style="stroke: #A80036; stroke-width: 1.0;"/><text fill="#888888" font-family="sans-serif" font-size="10" lengthAdjust="spacingAndGlyphs" textLength="190" x="25.5" y="268.3809">UMLDoclet 2.0.10, PlantUML 1.2019.08</text><!--
@startuml
    set namespaceSeparator none
    hide empty fields
    hide empty methods

    class "<size:14>NATSEventBus\n<size:10>co.com.sofka.cargame.infra.bus" as co.com.sofka.cargame.infra.bus.NATSEventBus [[NATSEventBus.html]] {
        +NATSEventBus(String, MongoTemplate)
        +publish(DomainEvent): void
        +publishError(ErrorEvent): void
        +publishToTopic(String, ErrorEvent): void
    }

    interface "<size:14>EventBus\n<size:10>co.com.sofka.infraestructure.bus" as co.com.sofka.infraestructure.bus.EventBus {
        {abstract} +publish(DomainEvent): void
        {abstract} +publishError(ErrorEvent): void
    }

    co.com.sofka.infraestructure.bus.EventBus <|.. co.com.sofka.cargame.infra.bus.NATSEventBus

    center footer UMLDoclet 2.0.10, PlantUML 1.2019.08
@enduml

PlantUML version 1.2019.08(Sat Jul 13 14:25:14 COT 2019)
(APACHE source distribution)
Java Runtime: Java(TM) SE Runtime Environment
JVM: Java HotSpot(TM) 64-Bit Server VM
Java Version: 11.0.11+9-LTS-194
Operating System: Windows 10
OS Version: 10.0
Default Encoding: Cp1252
Language: es
Country: CO
--></g></svg>