<?xml version="1.0" encoding="UTF-8" standalone="no"?><svg xmlns="http://www.w3.org/2000/svg" xmlns:xlink="http://www.w3.org/1999/xlink" contentScriptType="application/ecmascript" contentStyleType="text/css" height="557px" preserveAspectRatio="none" style="width:1016px;height:557px;" version="1.1" viewBox="0 0 1016 557" width="1016px" zoomAndPan="magnify"><defs><filter height="300%" id="flzy63dvxy2hb" width="300%" x="-1" y="-1"><feGaussianBlur result="blurOut" stdDeviation="2.0"/><feColorMatrix in="blurOut" result="blurOut2" type="matrix" values="0 0 0 0 0 0 0 0 0 0 0 0 0 0 0 0 0 0 .4 0"/><feOffset dx="4.0" dy="4.0" in="blurOut2" result="blurOut3"/><feBlend in="SourceGraphic" in2="blurOut3" mode="normal"/></filter></defs><g><!--cluster co.com.sofka.cargame.infra.bus--><polygon fill="#FFFFFF" filter="url(#flzy63dvxy2hb)" points="51.5,203,279.5,203,286.5,226.6094,994.5,226.6094,994.5,508,51.5,508,51.5,203" style="stroke: #000000; stroke-width: 1.5;"/><line style="stroke: #000000; stroke-width: 1.5;" x1="51.5" x2="286.5" y1="226.6094" y2="226.6094"/><text fill="#000000" font-family="sans-serif" font-size="14" font-weight="bold" lengthAdjust="spacingAndGlyphs" textLength="222" x="55.5" y="219.5332">co.com.sofka.cargame.infra.bus</text><!--cluster java.util.concurrent.Flow--><polygon fill="#FFFFFF" filter="url(#flzy63dvxy2hb)" points="181.5,24,361.5,24,368.5,47.6094,401.5,47.6094,401.5,179,181.5,179,181.5,24" style="stroke: #000000; stroke-width: 1.5;"/><line style="stroke: #000000; stroke-width: 1.5;" x1="181.5" x2="368.5" y1="47.6094" y2="47.6094"/><text fill="#000000" font-family="sans-serif" font-size="14" font-weight="bold" lengthAdjust="spacingAndGlyphs" textLength="174" x="185.5" y="40.5332">java.util.concurrent.Flow</text><!--cluster co.com.sofka.infraestructure.bus--><polygon fill="#FFFFFF" filter="url(#flzy63dvxy2hb)" points="735.5,37.5,973.5,37.5,980.5,61.1094,983.5,61.1094,983.5,165.5,735.5,165.5,735.5,37.5" style="stroke: #000000; stroke-width: 1.5;"/><line style="stroke: #000000; stroke-width: 1.5;" x1="735.5" x2="980.5" y1="61.1094" y2="61.1094"/><text fill="#000000" font-family="sans-serif" font-size="14" font-weight="bold" lengthAdjust="spacingAndGlyphs" textLength="232" x="739.5" y="54.0332">co.com.sofka.infraestructure.bus</text><!--class co.com.sofka.cargame.infra.bus.EventListenerSubscriber--><a href="EventListenerSubscriber.html" target="_top" xlink:actuate="onRequest" xlink:show="new" xlink:title="EventListenerSubscriber.html" xlink:type="simple"><rect fill="#FEFECE" filter="url(#flzy63dvxy2hb)" height="117.1797" id="co.com.sofka.cargame.infra.bus.EventListenerSubscriber" style="stroke: #A80036; stroke-width: 1.5;" width="448" x="67.5" y="239"/><ellipse cx="219.75" cy="255" fill="#ADD1B2" rx="11" ry="11" style="stroke: #A80036; stroke-width: 1.0;"/><path d="M222.5156,250.875 Q222.6719,250.6563 222.8594,250.5469 Q223.0469,250.4375 223.2656,250.4375 Q223.6406,250.4375 223.875,250.7031 Q224.1094,250.9531 224.1094,251.5625 L224.1094,253.0156 Q224.1094,253.625 223.875,253.8906 Q223.6406,254.1563 223.2656,254.1563 Q222.9219,254.1563 222.7188,253.9531 Q222.5156,253.7656 222.4063,253.25 Q222.3594,252.8906 222.1719,252.7031 Q221.8438,252.3281 221.2344,252.1094 Q220.625,251.8906 220,251.8906 Q219.2344,251.8906 218.5938,252.2188 Q217.9688,252.5469 217.4688,253.2969 Q216.9844,254.0469 216.9844,255.0781 L216.9844,256.1719 Q216.9844,257.4063 217.875,258.2344 Q218.7656,259.0469 220.3594,259.0469 Q221.2969,259.0469 221.9531,258.7969 Q222.3438,258.6406 222.7656,258.2031 Q223.0313,257.9375 223.1719,257.8594 Q223.3281,257.7813 223.5313,257.7813 Q223.8594,257.7813 224.1094,258.0469 Q224.375,258.2969 224.375,258.6406 Q224.375,258.9844 224.0313,259.3906 Q223.5313,259.9688 222.7344,260.2969 Q221.6563,260.75 220.3594,260.75 Q218.8438,260.75 217.6406,260.125 Q216.6563,259.625 215.9688,258.5625 Q215.2813,257.4844 215.2813,256.2031 L215.2813,255.0469 Q215.2813,253.7188 215.8906,252.5781 Q216.5156,251.4219 217.6094,250.8125 Q218.7031,250.1875 219.9375,250.1875 Q220.6719,250.1875 221.3125,250.3594 Q221.9688,250.5156 222.5156,250.875 Z "/><text fill="#000000" font-family="sans-serif" font-size="12" lengthAdjust="spacingAndGlyphs" textLength="135" x="240.25" y="259.9102">EventListenerSubscriber</text><line style="stroke: #A80036; stroke-width: 1.5;" x1="68.5" x2="514.5" y1="271" y2="271"/><line style="stroke: #A80036; stroke-width: 1.5;" x1="68.5" x2="514.5" y1="279" y2="279"/><ellipse cx="78.5" cy="291.418" fill="#84BE84" rx="3" ry="3" style="stroke: #038048; stroke-width: 1.0;"/><text fill="#000000" font-family="sans-serif" font-size="11" lengthAdjust="spacingAndGlyphs" textLength="422" x="87.5" y="294.4189">EventListenerSubscriber(Set&lt;UseCaseWrap&gt;, EventStoreRepository, SubscriberEvent)</text><ellipse cx="78.5" cy="305.2539" fill="#84BE84" rx="3" ry="3" style="stroke: #038048; stroke-width: 1.0;"/><text fill="#000000" font-family="sans-serif" font-size="11" lengthAdjust="spacingAndGlyphs" textLength="155" x="87.5" y="308.2549">onSubscribe(Subscription): void</text><ellipse cx="78.5" cy="319.0898" fill="#84BE84" rx="3" ry="3" style="stroke: #038048; stroke-width: 1.0;"/><text fill="#000000" font-family="sans-serif" font-size="11" lengthAdjust="spacingAndGlyphs" textLength="130" x="87.5" y="322.0908">onNext(DomainEvent): void</text><ellipse cx="78.5" cy="332.9258" fill="#84BE84" rx="3" ry="3" style="stroke: #038048; stroke-width: 1.0;"/><text fill="#000000" font-family="sans-serif" font-size="11" lengthAdjust="spacingAndGlyphs" textLength="122" x="87.5" y="335.9268">onError(Throwable): void</text><ellipse cx="78.5" cy="346.7617" fill="#84BE84" rx="3" ry="3" style="stroke: #038048; stroke-width: 1.0;"/><text fill="#000000" font-family="sans-serif" font-size="11" lengthAdjust="spacingAndGlyphs" textLength="90" x="87.5" y="349.7627">onComplete(): void</text></a><!--class co.com.sofka.cargame.infra.bus.EventSubscriber--><a href="EventSubscriber.html" target="_top" xlink:actuate="onRequest" xlink:show="new" xlink:title="EventSubscriber.html" xlink:type="simple"><rect fill="#FEFECE" filter="url(#flzy63dvxy2hb)" height="61.8359" id="co.com.sofka.cargame.infra.bus.EventSubscriber" style="stroke: #A80036; stroke-width: 1.5;" width="175" x="551" y="266.5"/><ellipse cx="588.95" cy="282.5" fill="#B4A7E5" rx="11" ry="11" style="stroke: #A80036; stroke-width: 1.0;"/><path d="M589.9031,279.1406 L589.9031,285.7969 L591.6219,285.7969 Q592.2313,285.7969 592.4969,286.0313 Q592.7625,286.2656 592.7625,286.6563 Q592.7625,287.0313 592.4969,287.2656 Q592.2313,287.5 591.6219,287.5 L586.4813,287.5 Q585.8719,287.5 585.6063,287.2656 Q585.3406,287.0313 585.3406,286.6406 Q585.3406,286.2656 585.6063,286.0313 Q585.8719,285.7969 586.4813,285.7969 L588.2,285.7969 L588.2,279.1406 L586.4813,279.1406 Q585.8719,279.1406 585.6063,278.9063 Q585.3406,278.6719 585.3406,278.2813 Q585.3406,277.9063 585.6063,277.6719 Q585.8719,277.4375 586.4813,277.4375 L591.6219,277.4375 Q592.2313,277.4375 592.4969,277.6719 Q592.7625,277.9063 592.7625,278.2813 Q592.7625,278.6719 592.4969,278.9063 Q592.2313,279.1406 591.6219,279.1406 L589.9031,279.1406 Z "/><text fill="#000000" font-family="sans-serif" font-size="12" font-style="italic" lengthAdjust="spacingAndGlyphs" textLength="92" x="608.05" y="287.4102">EventSubscriber</text><line style="stroke: #A80036; stroke-width: 1.5;" x1="552" x2="725" y1="298.5" y2="298.5"/><line style="stroke: #A80036; stroke-width: 1.5;" x1="552" x2="725" y1="306.5" y2="306.5"/><ellipse cx="562" cy="318.918" fill="#84BE84" rx="3" ry="3" style="stroke: #038048; stroke-width: 1.0;"/><text fill="#000000" font-family="sans-serif" font-size="11" font-style="italic" lengthAdjust="spacingAndGlyphs" textLength="149" x="571" y="321.9189">subscribe(String, String): void</text></a><!--class co.com.sofka.cargame.infra.bus.NATSEventBus--><a href="NATSEventBus.html" target="_top" xlink:actuate="onRequest" xlink:show="new" xlink:title="NATSEventBus.html" xlink:type="simple"><rect fill="#FEFECE" filter="url(#flzy63dvxy2hb)" height="103.3438" id="co.com.sofka.cargame.infra.bus.NATSEventBus" style="stroke: #A80036; stroke-width: 1.5;" width="217" x="761" y="246"/><ellipse cx="823.75" cy="262" fill="#ADD1B2" rx="11" ry="11" style="stroke: #A80036; stroke-width: 1.0;"/><path d="M826.5156,257.875 Q826.6719,257.6563 826.8594,257.5469 Q827.0469,257.4375 827.2656,257.4375 Q827.6406,257.4375 827.875,257.7031 Q828.1094,257.9531 828.1094,258.5625 L828.1094,260.0156 Q828.1094,260.625 827.875,260.8906 Q827.6406,261.1563 827.2656,261.1563 Q826.9219,261.1563 826.7188,260.9531 Q826.5156,260.7656 826.4063,260.25 Q826.3594,259.8906 826.1719,259.7031 Q825.8438,259.3281 825.2344,259.1094 Q824.625,258.8906 824,258.8906 Q823.2344,258.8906 822.5938,259.2188 Q821.9688,259.5469 821.4688,260.2969 Q820.9844,261.0469 820.9844,262.0781 L820.9844,263.1719 Q820.9844,264.4063 821.875,265.2344 Q822.7656,266.0469 824.3594,266.0469 Q825.2969,266.0469 825.9531,265.7969 Q826.3438,265.6406 826.7656,265.2031 Q827.0313,264.9375 827.1719,264.8594 Q827.3281,264.7813 827.5313,264.7813 Q827.8594,264.7813 828.1094,265.0469 Q828.375,265.2969 828.375,265.6406 Q828.375,265.9844 828.0313,266.3906 Q827.5313,266.9688 826.7344,267.2969 Q825.6563,267.75 824.3594,267.75 Q822.8438,267.75 821.6406,267.125 Q820.6563,266.625 819.9688,265.5625 Q819.2813,264.4844 819.2813,263.2031 L819.2813,262.0469 Q819.2813,260.7188 819.8906,259.5781 Q820.5156,258.4219 821.6094,257.8125 Q822.7031,257.1875 823.9375,257.1875 Q824.6719,257.1875 825.3125,257.3594 Q825.9688,257.5156 826.5156,257.875 Z "/><text fill="#000000" font-family="sans-serif" font-size="12" lengthAdjust="spacingAndGlyphs" textLength="83" x="844.25" y="266.9102">NATSEventBus</text><line style="stroke: #A80036; stroke-width: 1.5;" x1="762" x2="977" y1="278" y2="278"/><line style="stroke: #A80036; stroke-width: 1.5;" x1="762" x2="977" y1="286" y2="286"/><ellipse cx="772" cy="298.418" fill="#84BE84" rx="3" ry="3" style="stroke: #038048; stroke-width: 1.0;"/><text fill="#000000" font-family="sans-serif" font-size="11" lengthAdjust="spacingAndGlyphs" textLength="191" x="781" y="301.4189">NATSEventBus(String, MongoTemplate)</text><ellipse cx="772" cy="312.2539" fill="#84BE84" rx="3" ry="3" style="stroke: #038048; stroke-width: 1.0;"/><text fill="#000000" font-family="sans-serif" font-size="11" lengthAdjust="spacingAndGlyphs" textLength="130" x="781" y="315.2549">publish(DomainEvent): void</text><ellipse cx="772" cy="326.0898" fill="#84BE84" rx="3" ry="3" style="stroke: #038048; stroke-width: 1.0;"/><text fill="#000000" font-family="sans-serif" font-size="11" lengthAdjust="spacingAndGlyphs" textLength="143" x="781" y="329.0908">publishError(ErrorEvent): void</text><ellipse cx="772" cy="339.9258" fill="#84BE84" rx="3" ry="3" style="stroke: #038048; stroke-width: 1.0;"/><text fill="#000000" font-family="sans-serif" font-size="11" lengthAdjust="spacingAndGlyphs" textLength="191" x="781" y="342.9268">publishToTopic(String, ErrorEvent): void</text></a><!--class co.com.sofka.cargame.infra.bus.NATSEventSubscriber--><a href="NATSEventSubscriber.html" target="_top" xlink:actuate="onRequest" xlink:show="new" xlink:title="NATSEventSubscriber.html" xlink:type="simple"><rect fill="#FEFECE" filter="url(#flzy63dvxy2hb)" height="75.6719" id="co.com.sofka.cargame.infra.bus.NATSEventSubscriber" style="stroke: #A80036; stroke-width: 1.5;" width="295" x="491" y="416"/><ellipse cx="573.75" cy="432" fill="#ADD1B2" rx="11" ry="11" style="stroke: #A80036; stroke-width: 1.0;"/><path d="M576.5156,427.875 Q576.6719,427.6563 576.8594,427.5469 Q577.0469,427.4375 577.2656,427.4375 Q577.6406,427.4375 577.875,427.7031 Q578.1094,427.9531 578.1094,428.5625 L578.1094,430.0156 Q578.1094,430.625 577.875,430.8906 Q577.6406,431.1563 577.2656,431.1563 Q576.9219,431.1563 576.7188,430.9531 Q576.5156,430.7656 576.4063,430.25 Q576.3594,429.8906 576.1719,429.7031 Q575.8438,429.3281 575.2344,429.1094 Q574.625,428.8906 574,428.8906 Q573.2344,428.8906 572.5938,429.2188 Q571.9688,429.5469 571.4688,430.2969 Q570.9844,431.0469 570.9844,432.0781 L570.9844,433.1719 Q570.9844,434.4063 571.875,435.2344 Q572.7656,436.0469 574.3594,436.0469 Q575.2969,436.0469 575.9531,435.7969 Q576.3438,435.6406 576.7656,435.2031 Q577.0313,434.9375 577.1719,434.8594 Q577.3281,434.7813 577.5313,434.7813 Q577.8594,434.7813 578.1094,435.0469 Q578.375,435.2969 578.375,435.6406 Q578.375,435.9844 578.0313,436.3906 Q577.5313,436.9688 576.7344,437.2969 Q575.6563,437.75 574.3594,437.75 Q572.8438,437.75 571.6406,437.125 Q570.6563,436.625 569.9688,435.5625 Q569.2813,434.4844 569.2813,433.2031 L569.2813,432.0469 Q569.2813,430.7188 569.8906,429.5781 Q570.5156,428.4219 571.6094,427.8125 Q572.7031,427.1875 573.9375,427.1875 Q574.6719,427.1875 575.3125,427.3594 Q575.9688,427.5156 576.5156,427.875 Z "/><text fill="#000000" font-family="sans-serif" font-size="12" lengthAdjust="spacingAndGlyphs" textLength="121" x="594.25" y="436.9102">NATSEventSubscriber</text><line style="stroke: #A80036; stroke-width: 1.5;" x1="492" x2="785" y1="448" y2="448"/><line style="stroke: #A80036; stroke-width: 1.5;" x1="492" x2="785" y1="456" y2="456"/><ellipse cx="502" cy="468.418" fill="#84BE84" rx="3" ry="3" style="stroke: #038048; stroke-width: 1.0;"/><text fill="#000000" font-family="sans-serif" font-size="11" lengthAdjust="spacingAndGlyphs" textLength="269" x="511" y="471.4189">NATSEventSubscriber(String, EventListenerSubscriber)</text><ellipse cx="502" cy="482.2539" fill="#84BE84" rx="3" ry="3" style="stroke: #038048; stroke-width: 1.0;"/><text fill="#000000" font-family="sans-serif" font-size="11" lengthAdjust="spacingAndGlyphs" textLength="144" x="511" y="485.2549">subscribe(String, String): void</text></a><!--class java.util.concurrent.Flow.Subscriber--><a href="https://docs.oracle.com/en/java/javase/11/docs/api/java.base/java/util/concurrent/Flow.Subscriber.html?is-external=true" target="_top" xlink:actuate="onRequest" xlink:show="new" xlink:title="https://docs.oracle.com/en/java/javase/11/docs/api/java.base/java/util/concurrent/Flow.Subscriber.html?is-external=true" xlink:type="simple"><rect fill="#FEFECE" filter="url(#flzy63dvxy2hb)" height="103.3438" id="java.util.concurrent.Flow.Subscriber" style="stroke: #A80036; stroke-width: 1.5;" width="187" x="198" y="60"/><ellipse cx="251.25" cy="76" fill="#B4A7E5" rx="11" ry="11" style="stroke: #A80036; stroke-width: 1.0;"/><path d="M252.2031,72.6406 L252.2031,79.2969 L253.9219,79.2969 Q254.5313,79.2969 254.7969,79.5313 Q255.0625,79.7656 255.0625,80.1563 Q255.0625,80.5313 254.7969,80.7656 Q254.5313,81 253.9219,81 L248.7813,81 Q248.1719,81 247.9063,80.7656 Q247.6406,80.5313 247.6406,80.1406 Q247.6406,79.7656 247.9063,79.5313 Q248.1719,79.2969 248.7813,79.2969 L250.5,79.2969 L250.5,72.6406 L248.7813,72.6406 Q248.1719,72.6406 247.9063,72.4063 Q247.6406,72.1719 247.6406,71.7813 Q247.6406,71.4063 247.9063,71.1719 Q248.1719,70.9375 248.7813,70.9375 L253.9219,70.9375 Q254.5313,70.9375 254.7969,71.1719 Q255.0625,71.4063 255.0625,71.7813 Q255.0625,72.1719 254.7969,72.4063 Q254.5313,72.6406 253.9219,72.6406 L252.2031,72.6406 Z "/><text fill="#000000" font-family="sans-serif" font-size="12" font-style="italic" lengthAdjust="spacingAndGlyphs" textLength="61" x="271.75" y="80.9102">Subscriber</text><rect fill="#FFFFFF" height="17.0938" style="stroke: #000000; stroke-width: 1.0; stroke-dasharray: 2.0,2.0;" width="9" x="379" y="57"/><text fill="#000000" font-family="sans-serif" font-size="12" font-style="italic" lengthAdjust="spacingAndGlyphs" textLength="7" x="380" y="70.457">T</text><line style="stroke: #A80036; stroke-width: 1.5;" x1="199" x2="384" y1="92" y2="92"/><line style="stroke: #A80036; stroke-width: 1.5;" x1="199" x2="384" y1="100" y2="100"/><ellipse cx="209" cy="112.418" fill="#84BE84" rx="3" ry="3" style="stroke: #038048; stroke-width: 1.0;"/><text fill="#000000" font-family="sans-serif" font-size="11" font-style="italic" lengthAdjust="spacingAndGlyphs" textLength="161" x="218" y="115.4189">onSubscribe(Subscription): void</text><ellipse cx="209" cy="126.2539" fill="#84BE84" rx="3" ry="3" style="stroke: #038048; stroke-width: 1.0;"/><text fill="#000000" font-family="sans-serif" font-size="11" font-style="italic" lengthAdjust="spacingAndGlyphs" textLength="76" x="218" y="129.2549">onNext(T): void</text><ellipse cx="209" cy="140.0898" fill="#84BE84" rx="3" ry="3" style="stroke: #038048; stroke-width: 1.0;"/><text fill="#000000" font-family="sans-serif" font-size="11" font-style="italic" lengthAdjust="spacingAndGlyphs" textLength="123" x="218" y="143.0908">onError(Throwable): void</text><ellipse cx="209" cy="153.9258" fill="#84BE84" rx="3" ry="3" style="stroke: #038048; stroke-width: 1.0;"/><text fill="#000000" font-family="sans-serif" font-size="11" font-style="italic" lengthAdjust="spacingAndGlyphs" textLength="93" x="218" y="156.9268">onComplete(): void</text></a><!--class co.com.sofka.infraestructure.bus.EventBus--><rect fill="#FEFECE" filter="url(#flzy63dvxy2hb)" height="75.6719" id="co.com.sofka.infraestructure.bus.EventBus" style="stroke: #A80036; stroke-width: 1.5;" width="174" x="782.5" y="73.5"/><ellipse cx="839.25" cy="89.5" fill="#B4A7E5" rx="11" ry="11" style="stroke: #A80036; stroke-width: 1.0;"/><path d="M840.2031,86.1406 L840.2031,92.7969 L841.9219,92.7969 Q842.5313,92.7969 842.7969,93.0313 Q843.0625,93.2656 843.0625,93.6563 Q843.0625,94.0313 842.7969,94.2656 Q842.5313,94.5 841.9219,94.5 L836.7813,94.5 Q836.1719,94.5 835.9063,94.2656 Q835.6406,94.0313 835.6406,93.6406 Q835.6406,93.2656 835.9063,93.0313 Q836.1719,92.7969 836.7813,92.7969 L838.5,92.7969 L838.5,86.1406 L836.7813,86.1406 Q836.1719,86.1406 835.9063,85.9063 Q835.6406,85.6719 835.6406,85.2813 Q835.6406,84.9063 835.9063,84.6719 Q836.1719,84.4375 836.7813,84.4375 L841.9219,84.4375 Q842.5313,84.4375 842.7969,84.6719 Q843.0625,84.9063 843.0625,85.2813 Q843.0625,85.6719 842.7969,85.9063 Q842.5313,86.1406 841.9219,86.1406 L840.2031,86.1406 Z "/><text fill="#000000" font-family="sans-serif" font-size="12" font-style="italic" lengthAdjust="spacingAndGlyphs" textLength="52" x="859.75" y="94.4102">EventBus</text><line style="stroke: #A80036; stroke-width: 1.5;" x1="783.5" x2="955.5" y1="105.5" y2="105.5"/><line style="stroke: #A80036; stroke-width: 1.5;" x1="783.5" x2="955.5" y1="113.5" y2="113.5"/><ellipse cx="793.5" cy="125.918" fill="#84BE84" rx="3" ry="3" style="stroke: #038048; stroke-width: 1.0;"/><text fill="#000000" font-family="sans-serif" font-size="11" font-style="italic" lengthAdjust="spacingAndGlyphs" textLength="136" x="802.5" y="128.9189">publish(DomainEvent): void</text><ellipse cx="793.5" cy="139.7539" fill="#84BE84" rx="3" ry="3" style="stroke: #038048; stroke-width: 1.0;"/><text fill="#000000" font-family="sans-serif" font-size="11" font-style="italic" lengthAdjust="spacingAndGlyphs" textLength="148" x="802.5" y="142.7549">publishError(ErrorEvent): void</text><polygon fill="#FFFFFF" filter="url(#flzy63dvxy2hb)" points="6,84,149,84,156,107.6094,163,107.6094,163,139.2188,6,139.2188,6,84" style="stroke: #000000; stroke-width: 1.5;"/><line style="stroke: #000000; stroke-width: 1.5;" x1="6" x2="156" y1="107.6094" y2="107.6094"/><text fill="#000000" font-family="sans-serif" font-size="14" font-weight="bold" lengthAdjust="spacingAndGlyphs" textLength="137" x="10" y="100.5332">java.util.concurrent</text><!--link java.util.concurrent.Flow.Subscriber to co.com.sofka.cargame.infra.bus.EventListenerSubscriber--><path d="M291.5,183.3 C291.5,201.64 291.5,221.18 291.5,238.76 " fill="none" id="java.util.concurrent.Flow.Subscriber-co.com.sofka.cargame.infra.bus.EventListenerSubscriber" style="stroke: #A80036; stroke-width: 1.0; stroke-dasharray: 7.0,7.0;"/><polygon fill="none" points="284.5,183.27,291.5,163.27,298.5,183.27,284.5,183.27" style="stroke: #A80036; stroke-width: 1.0;"/><!--link co.com.sofka.infraestructure.bus.EventBus to co.com.sofka.cargame.infra.bus.NATSEventBus--><path d="M869.5,169.89 C869.5,194.17 869.5,222.21 869.5,245.72 " fill="none" id="co.com.sofka.infraestructure.bus.EventBus-co.com.sofka.cargame.infra.bus.NATSEventBus" style="stroke: #A80036; stroke-width: 1.0; stroke-dasharray: 7.0,7.0;"/><polygon fill="none" points="862.5,169.74,869.5,149.74,876.5,169.74,862.5,169.74" style="stroke: #A80036; stroke-width: 1.0;"/><!--link co.com.sofka.cargame.infra.bus.EventSubscriber to co.com.sofka.cargame.infra.bus.NATSEventSubscriber--><path d="M638.5,348.7 C638.5,370.55 638.5,395.7 638.5,415.82 " fill="none" id="co.com.sofka.cargame.infra.bus.EventSubscriber-co.com.sofka.cargame.infra.bus.NATSEventSubscriber" style="stroke: #A80036; stroke-width: 1.0; stroke-dasharray: 7.0,7.0;"/><polygon fill="none" points="631.5,348.66,638.5,328.66,645.5,348.66,631.5,348.66" style="stroke: #A80036; stroke-width: 1.0;"/><text fill="#888888" font-family="sans-serif" font-size="10" lengthAdjust="spacingAndGlyphs" textLength="190" x="419.5" y="544.3809">UMLDoclet 2.0.10, PlantUML 1.2019.08</text><!--
@startuml
    namespace co.com.sofka.cargame.infra.bus {

        class EventListenerSubscriber [[EventListenerSubscriber.html]] {
            +EventListenerSubscriber(Set<UseCaseWrap>, EventStoreRepository, SubscriberEvent)
            +onSubscribe(Subscription): void
            +onNext(DomainEvent): void
            +onError(Throwable): void
            +onComplete(): void
        }

        interface EventSubscriber [[EventSubscriber.html]] {
            {abstract} +subscribe(String, String): void
        }

        class NATSEventBus [[NATSEventBus.html]] {
            +NATSEventBus(String, MongoTemplate)
            +publish(DomainEvent): void
            +publishError(ErrorEvent): void
            +publishToTopic(String, ErrorEvent): void
        }

        class NATSEventSubscriber [[NATSEventSubscriber.html]] {
            +NATSEventSubscriber(String, EventListenerSubscriber)
            +subscribe(String, String): void
        }

        java.util.concurrent.Flow.Subscriber <|.. EventListenerSubscriber
        co.com.sofka.infraestructure.bus.EventBus <|.. NATSEventBus
        EventSubscriber <|.. NATSEventSubscriber
    }

    namespace java.util.concurrent {
        interface java.util.concurrent.Flow.Subscriber<T> [[https://docs.oracle.com/en/java/javase/11/docs/api/java.base/java/util/concurrent/Flow.Subscriber.html?is-external=true]] {
            {abstract} +onSubscribe(Subscription): void
            {abstract} +onNext(T): void
            {abstract} +onError(Throwable): void
            {abstract} +onComplete(): void
        }
    }

    namespace co.com.sofka.infraestructure.bus {
        interface EventBus {
            {abstract} +publish(DomainEvent): void
            {abstract} +publishError(ErrorEvent): void
        }
    }

    center footer UMLDoclet 2.0.10, PlantUML 1.2019.08
@enduml

PlantUML version 1.2019.08(Sat Jul 13 14:25:14 COT 2019)
(APACHE source distribution)
Java Runtime: Java(TM) SE Runtime Environment
JVM: Java HotSpot(TM) 64-Bit Server VM
Java Version: 11.0.11+9-LTS-194
Operating System: Windows 10
OS Version: 10.0
Default Encoding: Cp1252
Language: es
Country: CO
--></g></svg>