<?xml version="1.0" encoding="UTF-8" standalone="no"?><svg xmlns="http://www.w3.org/2000/svg" xmlns:xlink="http://www.w3.org/1999/xlink" contentScriptType="application/ecmascript" contentStyleType="text/css" height="225px" preserveAspectRatio="none" style="width:540px;height:225px;" version="1.1" viewBox="0 0 540 225" width="540px" zoomAndPan="magnify"><defs><filter height="300%" id="ffrvovv9vih7n" width="300%" x="-1" y="-1"><feGaussianBlur result="blurOut" stdDeviation="2.0"/><feColorMatrix in="blurOut" result="blurOut2" type="matrix" values="0 0 0 0 0 0 0 0 0 0 0 0 0 0 0 0 0 0 .4 0"/><feOffset dx="4.0" dy="4.0" in="blurOut2" result="blurOut3"/><feBlend in="SourceGraphic" in2="blurOut3" mode="normal"/></filter></defs><g><!--class co.com.sofka.cargame.usecase.MoverCarroUseCase--><a href="MoverCarroUseCase.html" target="_top" xlink:actuate="onRequest" xlink:show="new" xlink:title="MoverCarroUseCase.html" xlink:type="simple"><rect fill="#FEFECE" filter="url(#ffrvovv9vih7n)" height="62.0234" id="co.com.sofka.cargame.usecase.MoverCarroUseCase" style="stroke: #A80036; stroke-width: 1.5;" width="346" x="93" y="130"/><ellipse cx="187.75" cy="150.0938" fill="#ADD1B2" rx="11" ry="11" style="stroke: #A80036; stroke-width: 1.0;"/><path d="M190.5156,145.9688 Q190.6719,145.75 190.8594,145.6406 Q191.0469,145.5313 191.2656,145.5313 Q191.6406,145.5313 191.875,145.7969 Q192.1094,146.0469 192.1094,146.6563 L192.1094,148.1094 Q192.1094,148.7188 191.875,148.9844 Q191.6406,149.25 191.2656,149.25 Q190.9219,149.25 190.7188,149.0469 Q190.5156,148.8594 190.4063,148.3438 Q190.3594,147.9844 190.1719,147.7969 Q189.8438,147.4219 189.2344,147.2031 Q188.625,146.9844 188,146.9844 Q187.2344,146.9844 186.5938,147.3125 Q185.9688,147.6406 185.4688,148.3906 Q184.9844,149.1406 184.9844,150.1719 L184.9844,151.2656 Q184.9844,152.5 185.875,153.3281 Q186.7656,154.1406 188.3594,154.1406 Q189.2969,154.1406 189.9531,153.8906 Q190.3438,153.7344 190.7656,153.2969 Q191.0313,153.0313 191.1719,152.9531 Q191.3281,152.875 191.5313,152.875 Q191.8594,152.875 192.1094,153.1406 Q192.375,153.3906 192.375,153.7344 Q192.375,154.0781 192.0313,154.4844 Q191.5313,155.0625 190.7344,155.3906 Q189.6563,155.8438 188.3594,155.8438 Q186.8438,155.8438 185.6406,155.2188 Q184.6563,154.7188 183.9688,153.6563 Q183.2813,152.5781 183.2813,151.2969 L183.2813,150.1406 Q183.2813,148.8125 183.8906,147.6719 Q184.5156,146.5156 185.6094,145.9063 Q186.7031,145.2813 187.9375,145.2813 Q188.6719,145.2813 189.3125,145.4531 Q189.9688,145.6094 190.5156,145.9688 Z "/><text fill="#000000" font-family="sans-serif" font-size="14" lengthAdjust="spacingAndGlyphs" textLength="132" x="216.25" y="149.5332">MoverCarroUseCase</text><text fill="#000000" font-family="sans-serif" font-size="10" lengthAdjust="spacingAndGlyphs" textLength="148" x="208.25" y="162.9902">co.com.sofka.cargame.usecase</text><line style="stroke: #A80036; stroke-width: 1.5;" x1="94" x2="438" y1="170.1875" y2="170.1875"/><ellipse cx="104" cy="182.6055" fill="#84BE84" rx="3" ry="3" style="stroke: #038048; stroke-width: 1.0;"/><text fill="#000000" font-family="sans-serif" font-size="11" lengthAdjust="spacingAndGlyphs" textLength="320" x="113" y="185.6064">executeUseCase(RequestCommand&lt;MoverCarroCommand&gt;): void</text></a><!--class co.com.sofka.business.generic.UseCase--><rect fill="#FEFECE" filter="url(#ffrvovv9vih7n)" height="62.0234" id="co.com.sofka.business.generic.UseCase" style="stroke: #A80036; stroke-width: 1.5;" width="520" x="6" y="8"/><ellipse cx="21" cy="28.0938" fill="#A9DCDF" rx="11" ry="11" style="stroke: #A80036; stroke-width: 1.0;"/><path d="M23.1875,29.8594 L19.0469,29.8594 L18.625,30.8906 L19.0469,30.8906 Q19.6563,30.8906 19.9219,31.125 Q20.1875,31.3594 20.1875,31.75 Q20.1875,32.125 19.9219,32.3594 Q19.6563,32.5938 19.0469,32.5938 L16.75,32.5938 Q16.1406,32.5938 15.8906,32.3594 Q15.625,32.125 15.625,31.7344 Q15.625,31.3594 15.9063,31.125 Q16.1719,30.875 16.7969,30.8906 L19.4688,24.2344 L18.3594,24.2344 Q17.75,24.2344 17.4844,24 Q17.2188,23.7656 17.2188,23.375 Q17.2188,23 17.4844,22.7656 Q17.75,22.5313 18.3594,22.5313 L22.0313,22.5313 L25.4219,30.8906 Q26.0156,30.8906 26.2031,31.0313 Q26.5938,31.2969 26.5938,31.75 Q26.5938,32.125 26.3281,32.3594 Q26.0781,32.5938 25.4688,32.5938 L23.1719,32.5938 Q22.5625,32.5938 22.2969,32.3594 Q22.0313,32.125 22.0313,31.7344 Q22.0313,31.3594 22.2969,31.125 Q22.5625,30.8906 23.1719,30.8906 L23.5938,30.8906 L23.1875,29.8594 Z M22.4688,28.1563 L21.1094,24.7813 L19.7344,28.1563 L22.4688,28.1563 Z "/><text fill="#000000" font-family="sans-serif" font-size="14" font-style="italic" lengthAdjust="spacingAndGlyphs" textLength="58" x="77.5" y="27.5332">UseCase</text><text fill="#000000" font-family="sans-serif" font-size="10" font-style="italic" lengthAdjust="spacingAndGlyphs" textLength="143" x="35" y="40.9902">co.com.sofka.business.generic</text><rect fill="#FFFFFF" height="17.0938" style="stroke: #000000; stroke-width: 1.0; stroke-dasharray: 2.0,2.0;" width="343" x="186" y="5"/><text fill="#000000" font-family="sans-serif" font-size="12" font-style="italic" lengthAdjust="spacingAndGlyphs" textLength="341" x="187" y="18.457">RequestCommand&lt;MoverCarroCommand&gt;, ResponseEvents</text><line style="stroke: #A80036; stroke-width: 1.5;" x1="7" x2="525" y1="48.1875" y2="48.1875"/><ellipse cx="17" cy="60.6055" fill="#84BE84" rx="3" ry="3" style="stroke: #038048; stroke-width: 1.0;"/><text fill="#000000" font-family="sans-serif" font-size="11" font-style="italic" lengthAdjust="spacingAndGlyphs" textLength="329" x="26" y="63.6064">executeUseCase(RequestCommand&lt;MoverCarroCommand&gt;): void</text><!--link co.com.sofka.business.generic.UseCase to co.com.sofka.cargame.usecase.MoverCarroUseCase--><path d="M266,90.37 C266,103.75 266,117.79 266,129.73 " fill="none" id="co.com.sofka.business.generic.UseCase-co.com.sofka.cargame.usecase.MoverCarroUseCase" style="stroke: #A80036; stroke-width: 1.0;"/><polygon fill="none" points="259,90.28,266,70.28,273,90.28,259,90.28" style="stroke: #A80036; stroke-width: 1.0;"/><text fill="#888888" font-family="sans-serif" font-size="10" lengthAdjust="spacingAndGlyphs" textLength="190" x="177" y="212.3809">UMLDoclet 2.0.10, PlantUML 1.2019.08</text><!--
@startuml
    set namespaceSeparator none
    hide empty fields
    hide empty methods

    class "<size:14>MoverCarroUseCase\n<size:10>co.com.sofka.cargame.usecase" as co.com.sofka.cargame.usecase.MoverCarroUseCase [[MoverCarroUseCase.html]] {
        +executeUseCase(RequestCommand<MoverCarroCommand>): void
    }

    abstract class "<size:14>UseCase\n<size:10>co.com.sofka.business.generic" as co.com.sofka.business.generic.UseCase<RequestCommand<MoverCarroCommand>, ResponseEvents> {
        {abstract} +executeUseCase(RequestCommand<MoverCarroCommand>): void
    }

    co.com.sofka.business.generic.UseCase <|- - co.com.sofka.cargame.usecase.MoverCarroUseCase

    center footer UMLDoclet 2.0.10, PlantUML 1.2019.08
@enduml

PlantUML version 1.2019.08(Sat Jul 13 14:25:14 COT 2019)
(APACHE source distribution)
Java Runtime: Java(TM) SE Runtime Environment
JVM: Java HotSpot(TM) 64-Bit Server VM
Java Version: 11.0.11+9-LTS-194
Operating System: Windows 10
OS Version: 10.0
Default Encoding: Cp1252
Language: es
Country: CO
--></g></svg>