<?xml version="1.0" encoding="UTF-8" standalone="no"?><svg xmlns="http://www.w3.org/2000/svg" xmlns:xlink="http://www.w3.org/1999/xlink" contentScriptType="application/ecmascript" contentStyleType="text/css" height="325px" preserveAspectRatio="none" style="width:1182px;height:325px;" version="1.1" viewBox="0 0 1182 325" width="1182px" zoomAndPan="magnify"><defs><filter height="300%" id="f18atenj1d0axx" width="300%" x="-1" y="-1"><feGaussianBlur result="blurOut" stdDeviation="2.0"/><feColorMatrix in="blurOut" result="blurOut2" type="matrix" values="0 0 0 0 0 0 0 0 0 0 0 0 0 0 0 0 0 0 .4 0"/><feOffset dx="4.0" dy="4.0" in="blurOut2" result="blurOut3"/><feBlend in="SourceGraphic" in2="blurOut3" mode="normal"/></filter></defs><g><!--cluster co.com.sofka.cargame.usecase--><polygon fill="#FFFFFF" filter="url(#f18atenj1d0axx)" points="22,162,247,162,254,185.6094,1160,185.6094,1160,276,22,276,22,162" style="stroke: #000000; stroke-width: 1.5;"/><line style="stroke: #000000; stroke-width: 1.5;" x1="22" x2="254" y1="185.6094" y2="185.6094"/><text fill="#000000" font-family="sans-serif" font-size="14" font-weight="bold" lengthAdjust="spacingAndGlyphs" textLength="219" x="26" y="178.5332">co.com.sofka.cargame.usecase</text><!--cluster co.com.sofka.business.generic--><polygon fill="#FFFFFF" filter="url(#f18atenj1d0axx)" points="382,24,606,24,613,47.6094,800,47.6094,800,138,382,138,382,24" style="stroke: #000000; stroke-width: 1.5;"/><line style="stroke: #000000; stroke-width: 1.5;" x1="382" x2="613" y1="47.6094" y2="47.6094"/><text fill="#000000" font-family="sans-serif" font-size="14" font-weight="bold" lengthAdjust="spacingAndGlyphs" textLength="218" x="386" y="40.5332">co.com.sofka.business.generic</text><!--class co.com.sofka.cargame.usecase.CrearJuegoUseCase--><a href="CrearJuegoUseCase.html" target="_top" xlink:actuate="onRequest" xlink:show="new" xlink:title="CrearJuegoUseCase.html" xlink:type="simple"><rect fill="#FEFECE" filter="url(#f18atenj1d0axx)" height="61.8359" id="co.com.sofka.cargame.usecase.CrearJuegoUseCase" style="stroke: #A80036; stroke-width: 1.5;" width="345" x="798.5" y="198"/><ellipse cx="907.75" cy="214" fill="#ADD1B2" rx="11" ry="11" style="stroke: #A80036; stroke-width: 1.0;"/><path d="M910.5156,209.875 Q910.6719,209.6563 910.8594,209.5469 Q911.0469,209.4375 911.2656,209.4375 Q911.6406,209.4375 911.875,209.7031 Q912.1094,209.9531 912.1094,210.5625 L912.1094,212.0156 Q912.1094,212.625 911.875,212.8906 Q911.6406,213.1563 911.2656,213.1563 Q910.9219,213.1563 910.7188,212.9531 Q910.5156,212.7656 910.4063,212.25 Q910.3594,211.8906 910.1719,211.7031 Q909.8438,211.3281 909.2344,211.1094 Q908.625,210.8906 908,210.8906 Q907.2344,210.8906 906.5938,211.2188 Q905.9688,211.5469 905.4688,212.2969 Q904.9844,213.0469 904.9844,214.0781 L904.9844,215.1719 Q904.9844,216.4063 905.875,217.2344 Q906.7656,218.0469 908.3594,218.0469 Q909.2969,218.0469 909.9531,217.7969 Q910.3438,217.6406 910.7656,217.2031 Q911.0313,216.9375 911.1719,216.8594 Q911.3281,216.7813 911.5313,216.7813 Q911.8594,216.7813 912.1094,217.0469 Q912.375,217.2969 912.375,217.6406 Q912.375,217.9844 912.0313,218.3906 Q911.5313,218.9688 910.7344,219.2969 Q909.6563,219.75 908.3594,219.75 Q906.8438,219.75 905.6406,219.125 Q904.6563,218.625 903.9688,217.5625 Q903.2813,216.4844 903.2813,215.2031 L903.2813,214.0469 Q903.2813,212.7188 903.8906,211.5781 Q904.5156,210.4219 905.6094,209.8125 Q906.7031,209.1875 907.9375,209.1875 Q908.6719,209.1875 909.3125,209.3594 Q909.9688,209.5156 910.5156,209.875 Z "/><text fill="#000000" font-family="sans-serif" font-size="12" lengthAdjust="spacingAndGlyphs" textLength="118" x="928.25" y="218.9102">CrearJuegoUseCase</text><line style="stroke: #A80036; stroke-width: 1.5;" x1="799.5" x2="1142.5" y1="230" y2="230"/><line style="stroke: #A80036; stroke-width: 1.5;" x1="799.5" x2="1142.5" y1="238" y2="238"/><ellipse cx="809.5" cy="250.418" fill="#84BE84" rx="3" ry="3" style="stroke: #038048; stroke-width: 1.0;"/><text fill="#000000" font-family="sans-serif" font-size="11" lengthAdjust="spacingAndGlyphs" textLength="319" x="818.5" y="253.4189">executeUseCase(RequestCommand&lt;CrearJuegoCommand&gt;): void</text></a><!--class co.com.sofka.cargame.usecase.InicarJuegoUseCase--><a href="InicarJuegoUseCase.html" target="_top" xlink:actuate="onRequest" xlink:show="new" xlink:title="InicarJuegoUseCase.html" xlink:type="simple"><rect fill="#FEFECE" filter="url(#f18atenj1d0axx)" height="61.8359" id="co.com.sofka.cargame.usecase.InicarJuegoUseCase" style="stroke: #A80036; stroke-width: 1.5;" width="344" x="419" y="198"/><ellipse cx="528.25" cy="214" fill="#ADD1B2" rx="11" ry="11" style="stroke: #A80036; stroke-width: 1.0;"/><path d="M531.0156,209.875 Q531.1719,209.6563 531.3594,209.5469 Q531.5469,209.4375 531.7656,209.4375 Q532.1406,209.4375 532.375,209.7031 Q532.6094,209.9531 532.6094,210.5625 L532.6094,212.0156 Q532.6094,212.625 532.375,212.8906 Q532.1406,213.1563 531.7656,213.1563 Q531.4219,213.1563 531.2188,212.9531 Q531.0156,212.7656 530.9063,212.25 Q530.8594,211.8906 530.6719,211.7031 Q530.3438,211.3281 529.7344,211.1094 Q529.125,210.8906 528.5,210.8906 Q527.7344,210.8906 527.0938,211.2188 Q526.4688,211.5469 525.9688,212.2969 Q525.4844,213.0469 525.4844,214.0781 L525.4844,215.1719 Q525.4844,216.4063 526.375,217.2344 Q527.2656,218.0469 528.8594,218.0469 Q529.7969,218.0469 530.4531,217.7969 Q530.8438,217.6406 531.2656,217.2031 Q531.5313,216.9375 531.6719,216.8594 Q531.8281,216.7813 532.0313,216.7813 Q532.3594,216.7813 532.6094,217.0469 Q532.875,217.2969 532.875,217.6406 Q532.875,217.9844 532.5313,218.3906 Q532.0313,218.9688 531.2344,219.2969 Q530.1563,219.75 528.8594,219.75 Q527.3438,219.75 526.1406,219.125 Q525.1563,218.625 524.4688,217.5625 Q523.7813,216.4844 523.7813,215.2031 L523.7813,214.0469 Q523.7813,212.7188 524.3906,211.5781 Q525.0156,210.4219 526.1094,209.8125 Q527.2031,209.1875 528.4375,209.1875 Q529.1719,209.1875 529.8125,209.3594 Q530.4688,209.5156 531.0156,209.875 Z "/><text fill="#000000" font-family="sans-serif" font-size="12" lengthAdjust="spacingAndGlyphs" textLength="117" x="548.75" y="218.9102">InicarJuegoUseCase</text><line style="stroke: #A80036; stroke-width: 1.5;" x1="420" x2="762" y1="230" y2="230"/><line style="stroke: #A80036; stroke-width: 1.5;" x1="420" x2="762" y1="238" y2="238"/><ellipse cx="430" cy="250.418" fill="#84BE84" rx="3" ry="3" style="stroke: #038048; stroke-width: 1.0;"/><text fill="#000000" font-family="sans-serif" font-size="11" lengthAdjust="spacingAndGlyphs" textLength="318" x="439" y="253.4189">executeUseCase(RequestCommand&lt;InicarJuegoCommand&gt;): void</text></a><!--class co.com.sofka.cargame.usecase.MoverCarroUseCase--><a href="MoverCarroUseCase.html" target="_top" xlink:actuate="onRequest" xlink:show="new" xlink:title="MoverCarroUseCase.html" xlink:type="simple"><rect fill="#FEFECE" filter="url(#f18atenj1d0axx)" height="61.8359" id="co.com.sofka.cargame.usecase.MoverCarroUseCase" style="stroke: #A80036; stroke-width: 1.5;" width="346" x="38" y="198"/><ellipse cx="148.75" cy="214" fill="#ADD1B2" rx="11" ry="11" style="stroke: #A80036; stroke-width: 1.0;"/><path d="M151.5156,209.875 Q151.6719,209.6563 151.8594,209.5469 Q152.0469,209.4375 152.2656,209.4375 Q152.6406,209.4375 152.875,209.7031 Q153.1094,209.9531 153.1094,210.5625 L153.1094,212.0156 Q153.1094,212.625 152.875,212.8906 Q152.6406,213.1563 152.2656,213.1563 Q151.9219,213.1563 151.7188,212.9531 Q151.5156,212.7656 151.4063,212.25 Q151.3594,211.8906 151.1719,211.7031 Q150.8438,211.3281 150.2344,211.1094 Q149.625,210.8906 149,210.8906 Q148.2344,210.8906 147.5938,211.2188 Q146.9688,211.5469 146.4688,212.2969 Q145.9844,213.0469 145.9844,214.0781 L145.9844,215.1719 Q145.9844,216.4063 146.875,217.2344 Q147.7656,218.0469 149.3594,218.0469 Q150.2969,218.0469 150.9531,217.7969 Q151.3438,217.6406 151.7656,217.2031 Q152.0313,216.9375 152.1719,216.8594 Q152.3281,216.7813 152.5313,216.7813 Q152.8594,216.7813 153.1094,217.0469 Q153.375,217.2969 153.375,217.6406 Q153.375,217.9844 153.0313,218.3906 Q152.5313,218.9688 151.7344,219.2969 Q150.6563,219.75 149.3594,219.75 Q147.8438,219.75 146.6406,219.125 Q145.6563,218.625 144.9688,217.5625 Q144.2813,216.4844 144.2813,215.2031 L144.2813,214.0469 Q144.2813,212.7188 144.8906,211.5781 Q145.5156,210.4219 146.6094,209.8125 Q147.7031,209.1875 148.9375,209.1875 Q149.6719,209.1875 150.3125,209.3594 Q150.9688,209.5156 151.5156,209.875 Z "/><text fill="#000000" font-family="sans-serif" font-size="12" lengthAdjust="spacingAndGlyphs" textLength="116" x="169.25" y="218.9102">MoverCarroUseCase</text><line style="stroke: #A80036; stroke-width: 1.5;" x1="39" x2="383" y1="230" y2="230"/><line style="stroke: #A80036; stroke-width: 1.5;" x1="39" x2="383" y1="238" y2="238"/><ellipse cx="49" cy="250.418" fill="#84BE84" rx="3" ry="3" style="stroke: #038048; stroke-width: 1.0;"/><text fill="#000000" font-family="sans-serif" font-size="11" lengthAdjust="spacingAndGlyphs" textLength="320" x="58" y="253.4189">executeUseCase(RequestCommand&lt;MoverCarroCommand&gt;): void</text></a><!--class co.com.sofka.business.generic.UseCase--><rect fill="#FEFECE" filter="url(#f18atenj1d0axx)" height="61.8359" id="co.com.sofka.business.generic.UseCase" style="stroke: #A80036; stroke-width: 1.5;" width="386" x="398" y="60"/><ellipse cx="413" cy="76" fill="#A9DCDF" rx="11" ry="11" style="stroke: #A80036; stroke-width: 1.0;"/><path d="M415.1875,77.7656 L411.0469,77.7656 L410.625,78.7969 L411.0469,78.7969 Q411.6563,78.7969 411.9219,79.0313 Q412.1875,79.2656 412.1875,79.6563 Q412.1875,80.0313 411.9219,80.2656 Q411.6563,80.5 411.0469,80.5 L408.75,80.5 Q408.1406,80.5 407.8906,80.2656 Q407.625,80.0313 407.625,79.6406 Q407.625,79.2656 407.9063,79.0313 Q408.1719,78.7813 408.7969,78.7969 L411.4688,72.1406 L410.3594,72.1406 Q409.75,72.1406 409.4844,71.9063 Q409.2188,71.6719 409.2188,71.2813 Q409.2188,70.9063 409.4844,70.6719 Q409.75,70.4375 410.3594,70.4375 L414.0313,70.4375 L417.4219,78.7969 Q418.0156,78.7969 418.2031,78.9375 Q418.5938,79.2031 418.5938,79.6563 Q418.5938,80.0313 418.3281,80.2656 Q418.0781,80.5 417.4688,80.5 L415.1719,80.5 Q414.5625,80.5 414.2969,80.2656 Q414.0313,80.0313 414.0313,79.6406 Q414.0313,79.2656 414.2969,79.0313 Q414.5625,78.7969 415.1719,78.7969 L415.5938,78.7969 L415.1875,77.7656 Z M414.4688,76.0625 L413.1094,72.6875 L411.7344,76.0625 L414.4688,76.0625 Z "/><text fill="#000000" font-family="sans-serif" font-size="12" font-style="italic" lengthAdjust="spacingAndGlyphs" textLength="51" x="427" y="80.9102">UseCase</text><rect fill="#FFFFFF" height="17.0938" style="stroke: #000000; stroke-width: 1.0; stroke-dasharray: 2.0,2.0;" width="301" x="486" y="57"/><text fill="#000000" font-family="sans-serif" font-size="12" font-style="italic" lengthAdjust="spacingAndGlyphs" textLength="299" x="487" y="70.457">Q extends RequestValues, P extends ResponseValues</text><line style="stroke: #A80036; stroke-width: 1.5;" x1="399" x2="783" y1="92" y2="92"/><line style="stroke: #A80036; stroke-width: 1.5;" x1="399" x2="783" y1="100" y2="100"/><ellipse cx="409" cy="112.418" fill="#84BE84" rx="3" ry="3" style="stroke: #038048; stroke-width: 1.0;"/><text fill="#000000" font-family="sans-serif" font-size="11" font-style="italic" lengthAdjust="spacingAndGlyphs" textLength="247" x="418" y="115.4189">executeUseCase(Q extends RequestValues): void</text><!--link co.com.sofka.business.generic.UseCase to co.com.sofka.cargame.usecase.CrearJuegoUseCase--><path d="M705.75,128.3 C730.65,136.49 756.78,145.34 781,154 C819.33,167.71 861.57,184.03 896.46,197.86 " fill="none" id="co.com.sofka.business.generic.UseCase-co.com.sofka.cargame.usecase.CrearJuegoUseCase" style="stroke: #A80036; stroke-width: 1.0;"/><polygon fill="none" points="703.39,134.89,686.55,122.03,707.74,121.58,703.39,134.89" style="stroke: #A80036; stroke-width: 1.0;"/><!--link co.com.sofka.business.generic.UseCase to co.com.sofka.cargame.usecase.InicarJuegoUseCase--><path d="M591,142.46 C591,161.1 591,181.63 591,197.9 " fill="none" id="co.com.sofka.business.generic.UseCase-co.com.sofka.cargame.usecase.InicarJuegoUseCase" style="stroke: #A80036; stroke-width: 1.0;"/><polygon fill="none" points="584,142.18,591,122.18,598,142.18,584,142.18" style="stroke: #A80036; stroke-width: 1.0;"/><!--link co.com.sofka.business.generic.UseCase to co.com.sofka.cargame.usecase.MoverCarroUseCase--><path d="M476.88,128.36 C452.11,136.56 426.11,145.38 402,154 C363.49,167.77 321.04,184.1 285.95,197.91 " fill="none" id="co.com.sofka.business.generic.UseCase-co.com.sofka.cargame.usecase.MoverCarroUseCase" style="stroke: #A80036; stroke-width: 1.0;"/><polygon fill="none" points="474.79,121.68,495.97,122.09,479.15,134.98,474.79,121.68" style="stroke: #A80036; stroke-width: 1.0;"/><text fill="#888888" font-family="sans-serif" font-size="10" lengthAdjust="spacingAndGlyphs" textLength="190" x="502" y="312.3809">UMLDoclet 2.0.10, PlantUML 1.2019.08</text><!--
@startuml
    namespace co.com.sofka.cargame.usecase {

        class CrearJuegoUseCase [[CrearJuegoUseCase.html]] {
            +executeUseCase(RequestCommand<CrearJuegoCommand>): void
        }

        class InicarJuegoUseCase [[InicarJuegoUseCase.html]] {
            +executeUseCase(RequestCommand<InicarJuegoCommand>): void
        }

        class MoverCarroUseCase [[MoverCarroUseCase.html]] {
            +executeUseCase(RequestCommand<MoverCarroCommand>): void
        }

        co.com.sofka.business.generic.UseCase <|- - CrearJuegoUseCase
        co.com.sofka.business.generic.UseCase <|- - InicarJuegoUseCase
        co.com.sofka.business.generic.UseCase <|- - MoverCarroUseCase
    }

    namespace co.com.sofka.business.generic {
        abstract class UseCase<Q extends RequestValues, P extends ResponseValues> {
            {abstract} +executeUseCase(Q extends RequestValues): void
        }
    }

    center footer UMLDoclet 2.0.10, PlantUML 1.2019.08
@enduml

PlantUML version 1.2019.08(Sat Jul 13 14:25:14 COT 2019)
(APACHE source distribution)
Java Runtime: Java(TM) SE Runtime Environment
JVM: Java HotSpot(TM) 64-Bit Server VM
Java Version: 11.0.11+9-LTS-194
Operating System: Windows 10
OS Version: 10.0
Default Encoding: Cp1252
Language: es
Country: CO
--></g></svg>