<?xml version="1.0" encoding="UTF-8" standalone="no"?><svg xmlns="http://www.w3.org/2000/svg" xmlns:xlink="http://www.w3.org/1999/xlink" contentScriptType="application/ecmascript" contentStyleType="text/css" height="256px" preserveAspectRatio="none" style="width:326px;height:256px;" version="1.1" viewBox="0 0 326 256" width="326px" zoomAndPan="magnify"><defs><filter height="300%" id="f7jc0d8t4jsm5" width="300%" x="-1" y="-1"><feGaussianBlur result="blurOut" stdDeviation="2.0"/><feColorMatrix in="blurOut" result="blurOut2" type="matrix" values="0 0 0 0 0 0 0 0 0 0 0 0 0 0 0 0 0 0 .4 0"/><feOffset dx="4.0" dy="4.0" in="blurOut2" result="blurOut3"/><feBlend in="SourceGraphic" in2="blurOut3" mode="normal"/></filter></defs><g><!--cluster co.com.sofka.cargame.usecase.model--><polygon fill="#FFFFFF" filter="url(#f7jc0d8t4jsm5)" points="22,24,294,24,301,47.6094,304,47.6094,304,207,22,207,22,24" style="stroke: #000000; stroke-width: 1.5;"/><line style="stroke: #000000; stroke-width: 1.5;" x1="22" x2="301" y1="47.6094" y2="47.6094"/><text fill="#000000" font-family="sans-serif" font-size="14" font-weight="bold" lengthAdjust="spacingAndGlyphs" textLength="266" x="26" y="40.5332">co.com.sofka.cargame.usecase.model</text><!--class co.com.sofka.cargame.usecase.model.CarroSobreCarril--><a href="CarroSobreCarril.html" target="_top" xlink:actuate="onRequest" xlink:show="new" xlink:title="CarroSobreCarril.html" xlink:type="simple"><rect fill="#FEFECE" filter="url(#f7jc0d8t4jsm5)" height="131.0156" id="co.com.sofka.cargame.usecase.model.CarroSobreCarril" style="stroke: #A80036; stroke-width: 1.5;" width="177" x="74.5" y="60"/><ellipse cx="112.45" cy="76" fill="#ADD1B2" rx="11" ry="11" style="stroke: #A80036; stroke-width: 1.0;"/><path d="M115.2156,71.875 Q115.3719,71.6563 115.5594,71.5469 Q115.7469,71.4375 115.9656,71.4375 Q116.3406,71.4375 116.575,71.7031 Q116.8094,71.9531 116.8094,72.5625 L116.8094,74.0156 Q116.8094,74.625 116.575,74.8906 Q116.3406,75.1563 115.9656,75.1563 Q115.6219,75.1563 115.4188,74.9531 Q115.2156,74.7656 115.1063,74.25 Q115.0594,73.8906 114.8719,73.7031 Q114.5438,73.3281 113.9344,73.1094 Q113.325,72.8906 112.7,72.8906 Q111.9344,72.8906 111.2938,73.2188 Q110.6688,73.5469 110.1688,74.2969 Q109.6844,75.0469 109.6844,76.0781 L109.6844,77.1719 Q109.6844,78.4063 110.575,79.2344 Q111.4656,80.0469 113.0594,80.0469 Q113.9969,80.0469 114.6531,79.7969 Q115.0438,79.6406 115.4656,79.2031 Q115.7313,78.9375 115.8719,78.8594 Q116.0281,78.7813 116.2313,78.7813 Q116.5594,78.7813 116.8094,79.0469 Q117.075,79.2969 117.075,79.6406 Q117.075,79.9844 116.7313,80.3906 Q116.2313,80.9688 115.4344,81.2969 Q114.3563,81.75 113.0594,81.75 Q111.5438,81.75 110.3406,81.125 Q109.3563,80.625 108.6688,79.5625 Q107.9813,78.4844 107.9813,77.2031 L107.9813,76.0469 Q107.9813,74.7188 108.5906,73.5781 Q109.2156,72.4219 110.3094,71.8125 Q111.4031,71.1875 112.6375,71.1875 Q113.3719,71.1875 114.0125,71.3594 Q114.6688,71.5156 115.2156,71.875 Z "/><text fill="#000000" font-family="sans-serif" font-size="12" lengthAdjust="spacingAndGlyphs" textLength="94" x="131.55" y="80.9102">CarroSobreCarril</text><line style="stroke: #A80036; stroke-width: 1.5;" x1="75.5" x2="250.5" y1="92" y2="92"/><line style="stroke: #A80036; stroke-width: 1.5;" x1="75.5" x2="250.5" y1="100" y2="100"/><ellipse cx="85.5" cy="112.418" fill="#84BE84" rx="3" ry="3" style="stroke: #038048; stroke-width: 1.0;"/><text fill="#000000" font-family="sans-serif" font-size="11" lengthAdjust="spacingAndGlyphs" textLength="89" x="94.5" y="115.4189">CarroSobreCarril()</text><ellipse cx="85.5" cy="126.2539" fill="#84BE84" rx="3" ry="3" style="stroke: #038048; stroke-width: 1.0;"/><text fill="#000000" font-family="sans-serif" font-size="11" lengthAdjust="spacingAndGlyphs" textLength="151" x="94.5" y="129.2549">CarroSobreCarril(String, String)</text><ellipse cx="85.5" cy="140.0898" fill="#84BE84" rx="3" ry="3" style="stroke: #038048; stroke-width: 1.0;"/><text fill="#000000" font-family="sans-serif" font-size="11" lengthAdjust="spacingAndGlyphs" textLength="92" x="94.5" y="143.0908">getCarroId(): String</text><ellipse cx="85.5" cy="153.9258" fill="#84BE84" rx="3" ry="3" style="stroke: #038048; stroke-width: 1.0;"/><text fill="#000000" font-family="sans-serif" font-size="11" lengthAdjust="spacingAndGlyphs" textLength="112" x="94.5" y="156.9268">setCarroId(String): void</text><ellipse cx="85.5" cy="167.7617" fill="#84BE84" rx="3" ry="3" style="stroke: #038048; stroke-width: 1.0;"/><text fill="#000000" font-family="sans-serif" font-size="11" lengthAdjust="spacingAndGlyphs" textLength="90" x="94.5" y="170.7627">getCarrilId(): String</text><ellipse cx="85.5" cy="181.5977" fill="#84BE84" rx="3" ry="3" style="stroke: #038048; stroke-width: 1.0;"/><text fill="#000000" font-family="sans-serif" font-size="11" lengthAdjust="spacingAndGlyphs" textLength="110" x="94.5" y="184.5986">setCarrilId(String): void</text></a><text fill="#888888" font-family="sans-serif" font-size="10" lengthAdjust="spacingAndGlyphs" textLength="190" x="74" y="243.3809">UMLDoclet 2.0.10, PlantUML 1.2019.08</text><!--
@startuml
    namespace co.com.sofka.cargame.usecase.model {

        class CarroSobreCarril [[CarroSobreCarril.html]] {
            +CarroSobreCarril()
            +CarroSobreCarril(String, String)
            +getCarroId(): String
            +setCarroId(String): void
            +getCarrilId(): String
            +setCarrilId(String): void
        }

    }

    center footer UMLDoclet 2.0.10, PlantUML 1.2019.08
@enduml

PlantUML version 1.2019.08(Sat Jul 13 14:25:14 COT 2019)
(APACHE source distribution)
Java Runtime: Java(TM) SE Runtime Environment
JVM: Java HotSpot(TM) 64-Bit Server VM
Java Version: 11.0.11+9-LTS-194
Operating System: Windows 10
OS Version: 10.0
Default Encoding: Cp1252
Language: es
Country: CO
--></g></svg>