<?xml version="1.0" encoding="UTF-8" standalone="no"?><svg xmlns="http://www.w3.org/2000/svg" xmlns:xlink="http://www.w3.org/1999/xlink" contentScriptType="application/ecmascript" contentStyleType="text/css" height="231px" preserveAspectRatio="none" style="width:255px;height:231px;" version="1.1" viewBox="0 0 255 231" width="255px" zoomAndPan="magnify"><defs><filter height="300%" id="f1oigxsqg33qo2" width="300%" x="-1" y="-1"><feGaussianBlur result="blurOut" stdDeviation="2.0"/><feColorMatrix in="blurOut" result="blurOut2" type="matrix" values="0 0 0 0 0 0 0 0 0 0 0 0 0 0 0 0 0 0 .4 0"/><feOffset dx="4.0" dy="4.0" in="blurOut2" result="blurOut3"/><feBlend in="SourceGraphic" in2="blurOut3" mode="normal"/></filter></defs><g><!--class co.com.sofka.cargame.domain.carril.events.CarrilCreado--><a href="CarrilCreado.html" target="_top" xlink:actuate="onRequest" xlink:show="new" xlink:title="CarrilCreado.html" xlink:type="simple"><rect fill="#FEFECE" filter="url(#f1oigxsqg33qo2)" height="89.6953" id="co.com.sofka.cargame.domain.carril.events.CarrilCreado" style="stroke: #A80036; stroke-width: 1.5;" width="238" x="6" y="108"/><ellipse cx="21" cy="128.0938" fill="#ADD1B2" rx="11" ry="11" style="stroke: #A80036; stroke-width: 1.0;"/><path d="M23.7656,123.9688 Q23.9219,123.75 24.1094,123.6406 Q24.2969,123.5313 24.5156,123.5313 Q24.8906,123.5313 25.125,123.7969 Q25.3594,124.0469 25.3594,124.6563 L25.3594,126.1094 Q25.3594,126.7188 25.125,126.9844 Q24.8906,127.25 24.5156,127.25 Q24.1719,127.25 23.9688,127.0469 Q23.7656,126.8594 23.6563,126.3438 Q23.6094,125.9844 23.4219,125.7969 Q23.0938,125.4219 22.4844,125.2031 Q21.875,124.9844 21.25,124.9844 Q20.4844,124.9844 19.8438,125.3125 Q19.2188,125.6406 18.7188,126.3906 Q18.2344,127.1406 18.2344,128.1719 L18.2344,129.2656 Q18.2344,130.5 19.125,131.3281 Q20.0156,132.1406 21.6094,132.1406 Q22.5469,132.1406 23.2031,131.8906 Q23.5938,131.7344 24.0156,131.2969 Q24.2813,131.0313 24.4219,130.9531 Q24.5781,130.875 24.7813,130.875 Q25.1094,130.875 25.3594,131.1406 Q25.625,131.3906 25.625,131.7344 Q25.625,132.0781 25.2813,132.4844 Q24.7813,133.0625 23.9844,133.3906 Q22.9063,133.8438 21.6094,133.8438 Q20.0938,133.8438 18.8906,133.2188 Q17.9063,132.7188 17.2188,131.6563 Q16.5313,130.5781 16.5313,129.2969 L16.5313,128.1406 Q16.5313,126.8125 17.1406,125.6719 Q17.7656,124.5156 18.8594,123.9063 Q19.9531,123.2813 21.1875,123.2813 Q21.9219,123.2813 22.5625,123.4531 Q23.2188,123.6094 23.7656,123.9688 Z "/><text fill="#000000" font-family="sans-serif" font-size="14" lengthAdjust="spacingAndGlyphs" textLength="81" x="97.5" y="127.5332">CarrilCreado</text><text fill="#000000" font-family="sans-serif" font-size="10" lengthAdjust="spacingAndGlyphs" textLength="206" x="35" y="140.9902">co.com.sofka.cargame.domain.carril.events</text><line style="stroke: #A80036; stroke-width: 1.5;" x1="7" x2="243" y1="148.1875" y2="148.1875"/><ellipse cx="17" cy="160.6055" fill="#84BE84" rx="3" ry="3" style="stroke: #038048; stroke-width: 1.0;"/><text fill="#000000" font-family="sans-serif" font-size="11" lengthAdjust="spacingAndGlyphs" textLength="144" x="26" y="163.6064">CarrilCreado(Integer, JuegoId)</text><ellipse cx="17" cy="174.4414" fill="#84BE84" rx="3" ry="3" style="stroke: #038048; stroke-width: 1.0;"/><text fill="#000000" font-family="sans-serif" font-size="11" lengthAdjust="spacingAndGlyphs" textLength="103" x="26" y="177.4424">getJuegoId(): JuegoId</text><ellipse cx="17" cy="188.2773" fill="#84BE84" rx="3" ry="3" style="stroke: #038048; stroke-width: 1.0;"/><text fill="#000000" font-family="sans-serif" font-size="11" lengthAdjust="spacingAndGlyphs" textLength="95" x="26" y="191.2783">getMetros(): Integer</text></a><!--class co.com.sofka.domain.generic.DomainEvent--><rect fill="#FEFECE" filter="url(#f1oigxsqg33qo2)" height="40.1875" id="co.com.sofka.domain.generic.DomainEvent" style="stroke: #A80036; stroke-width: 1.5;" width="167" x="41.5" y="8"/><ellipse cx="56.5" cy="28.0938" fill="#A9DCDF" rx="11" ry="11" style="stroke: #A80036; stroke-width: 1.0;"/><path d="M58.6875,29.8594 L54.5469,29.8594 L54.125,30.8906 L54.5469,30.8906 Q55.1563,30.8906 55.4219,31.125 Q55.6875,31.3594 55.6875,31.75 Q55.6875,32.125 55.4219,32.3594 Q55.1563,32.5938 54.5469,32.5938 L52.25,32.5938 Q51.6406,32.5938 51.3906,32.3594 Q51.125,32.125 51.125,31.7344 Q51.125,31.3594 51.4063,31.125 Q51.6719,30.875 52.2969,30.8906 L54.9688,24.2344 L53.8594,24.2344 Q53.25,24.2344 52.9844,24 Q52.7188,23.7656 52.7188,23.375 Q52.7188,23 52.9844,22.7656 Q53.25,22.5313 53.8594,22.5313 L57.5313,22.5313 L60.9219,30.8906 Q61.5156,30.8906 61.7031,31.0313 Q62.0938,31.2969 62.0938,31.75 Q62.0938,32.125 61.8281,32.3594 Q61.5781,32.5938 60.9688,32.5938 L58.6719,32.5938 Q58.0625,32.5938 57.7969,32.3594 Q57.5313,32.125 57.5313,31.7344 Q57.5313,31.3594 57.7969,31.125 Q58.0625,30.8906 58.6719,30.8906 L59.0938,30.8906 L58.6875,29.8594 Z M57.9688,28.1563 L56.6094,24.7813 L55.2344,28.1563 L57.9688,28.1563 Z "/><text fill="#000000" font-family="sans-serif" font-size="14" font-style="italic" lengthAdjust="spacingAndGlyphs" textLength="83" x="96.5" y="27.5332">DomainEvent</text><text fill="#000000" font-family="sans-serif" font-size="10" font-style="italic" lengthAdjust="spacingAndGlyphs" textLength="135" x="70.5" y="40.9902">co.com.sofka.domain.generic</text><!--link co.com.sofka.domain.generic.DomainEvent to co.com.sofka.cargame.domain.carril.events.CarrilCreado--><path d="M125,68.25 C125,80.89 125,94.98 125,107.94 " fill="none" id="co.com.sofka.domain.generic.DomainEvent-co.com.sofka.cargame.domain.carril.events.CarrilCreado" style="stroke: #A80036; stroke-width: 1.0;"/><polygon fill="none" points="118,68.22,125,48.22,132,68.22,118,68.22" style="stroke: #A80036; stroke-width: 1.0;"/><text fill="#888888" font-family="sans-serif" font-size="10" lengthAdjust="spacingAndGlyphs" textLength="190" x="36" y="218.3809">UMLDoclet 2.0.10, PlantUML 1.2019.08</text><!--
@startuml
    set namespaceSeparator none
    hide empty fields
    hide empty methods

    class "<size:14>CarrilCreado\n<size:10>co.com.sofka.cargame.domain.carril.events" as co.com.sofka.cargame.domain.carril.events.CarrilCreado [[CarrilCreado.html]] {
        +CarrilCreado(Integer, JuegoId)
        +getJuegoId(): JuegoId
        +getMetros(): Integer
    }

    abstract class "<size:14>DomainEvent\n<size:10>co.com.sofka.domain.generic" as co.com.sofka.domain.generic.DomainEvent

    co.com.sofka.domain.generic.DomainEvent <|- - co.com.sofka.cargame.domain.carril.events.CarrilCreado

    center footer UMLDoclet 2.0.10, PlantUML 1.2019.08
@enduml

PlantUML version 1.2019.08(Sat Jul 13 14:25:14 COT 2019)
(APACHE source distribution)
Java Runtime: Java(TM) SE Runtime Environment
JVM: Java HotSpot(TM) 64-Bit Server VM
Java Version: 11.0.11+9-LTS-194
Operating System: Windows 10
OS Version: 10.0
Default Encoding: Cp1252
Language: es
Country: CO
--></g></svg>