<?xml version="1.0" encoding="UTF-8" standalone="no"?><svg xmlns="http://www.w3.org/2000/svg" xmlns:xlink="http://www.w3.org/1999/xlink" contentScriptType="application/ecmascript" contentStyleType="text/css" height="381px" preserveAspectRatio="none" style="width:929px;height:381px;" version="1.1" viewBox="0 0 929 381" width="929px" zoomAndPan="magnify"><defs><filter height="300%" id="fxwc2e5o1ide8" width="300%" x="-1" y="-1"><feGaussianBlur result="blurOut" stdDeviation="2.0"/><feColorMatrix in="blurOut" result="blurOut2" type="matrix" values="0 0 0 0 0 0 0 0 0 0 0 0 0 0 0 0 0 0 .4 0"/><feOffset dx="4.0" dy="4.0" in="blurOut2" result="blurOut3"/><feBlend in="SourceGraphic" in2="blurOut3" mode="normal"/></filter></defs><g><!--cluster co.com.sofka.cargame.domain.carril.events--><polygon fill="#FFFFFF" filter="url(#fxwc2e5o1ide8)" points="22,190,332,190,339,213.6094,907,213.6094,907,332,22,332,22,190" style="stroke: #000000; stroke-width: 1.5;"/><line style="stroke: #000000; stroke-width: 1.5;" x1="22" x2="339" y1="213.6094" y2="213.6094"/><text fill="#000000" font-family="sans-serif" font-size="14" font-weight="bold" lengthAdjust="spacingAndGlyphs" textLength="304" x="26" y="206.5332">co.com.sofka.cargame.domain.carril.events</text><!--cluster co.com.sofka.domain.generic--><polygon fill="#FFFFFF" filter="url(#fxwc2e5o1ide8)" points="323,24,534,24,541,47.6094,596,47.6094,596,166,323,166,323,24" style="stroke: #000000; stroke-width: 1.5;"/><line style="stroke: #000000; stroke-width: 1.5;" x1="323" x2="541" y1="47.6094" y2="47.6094"/><text fill="#000000" font-family="sans-serif" font-size="14" font-weight="bold" lengthAdjust="spacingAndGlyphs" textLength="205" x="327" y="40.5332">co.com.sofka.domain.generic</text><!--class co.com.sofka.cargame.domain.carril.events.CarrilCreado--><a href="CarrilCreado.html" target="_top" xlink:actuate="onRequest" xlink:show="new" xlink:title="CarrilCreado.html" xlink:type="simple"><rect fill="#FEFECE" filter="url(#fxwc2e5o1ide8)" height="89.5078" id="co.com.sofka.cargame.domain.carril.events.CarrilCreado" style="stroke: #A80036; stroke-width: 1.5;" width="170" x="721" y="226"/><ellipse cx="766.25" cy="242" fill="#ADD1B2" rx="11" ry="11" style="stroke: #A80036; stroke-width: 1.0;"/><path d="M769.0156,237.875 Q769.1719,237.6563 769.3594,237.5469 Q769.5469,237.4375 769.7656,237.4375 Q770.1406,237.4375 770.375,237.7031 Q770.6094,237.9531 770.6094,238.5625 L770.6094,240.0156 Q770.6094,240.625 770.375,240.8906 Q770.1406,241.1563 769.7656,241.1563 Q769.4219,241.1563 769.2188,240.9531 Q769.0156,240.7656 768.9063,240.25 Q768.8594,239.8906 768.6719,239.7031 Q768.3438,239.3281 767.7344,239.1094 Q767.125,238.8906 766.5,238.8906 Q765.7344,238.8906 765.0938,239.2188 Q764.4688,239.5469 763.9688,240.2969 Q763.4844,241.0469 763.4844,242.0781 L763.4844,243.1719 Q763.4844,244.4063 764.375,245.2344 Q765.2656,246.0469 766.8594,246.0469 Q767.7969,246.0469 768.4531,245.7969 Q768.8438,245.6406 769.2656,245.2031 Q769.5313,244.9375 769.6719,244.8594 Q769.8281,244.7813 770.0313,244.7813 Q770.3594,244.7813 770.6094,245.0469 Q770.875,245.2969 770.875,245.6406 Q770.875,245.9844 770.5313,246.3906 Q770.0313,246.9688 769.2344,247.2969 Q768.1563,247.75 766.8594,247.75 Q765.3438,247.75 764.1406,247.125 Q763.1563,246.625 762.4688,245.5625 Q761.7813,244.4844 761.7813,243.2031 L761.7813,242.0469 Q761.7813,240.7188 762.3906,239.5781 Q763.0156,238.4219 764.1094,237.8125 Q765.2031,237.1875 766.4375,237.1875 Q767.1719,237.1875 767.8125,237.3594 Q768.4688,237.5156 769.0156,237.875 Z "/><text fill="#000000" font-family="sans-serif" font-size="12" lengthAdjust="spacingAndGlyphs" textLength="71" x="786.75" y="246.9102">CarrilCreado</text><line style="stroke: #A80036; stroke-width: 1.5;" x1="722" x2="890" y1="258" y2="258"/><line style="stroke: #A80036; stroke-width: 1.5;" x1="722" x2="890" y1="266" y2="266"/><ellipse cx="732" cy="278.418" fill="#84BE84" rx="3" ry="3" style="stroke: #038048; stroke-width: 1.0;"/><text fill="#000000" font-family="sans-serif" font-size="11" lengthAdjust="spacingAndGlyphs" textLength="144" x="741" y="281.4189">CarrilCreado(Integer, JuegoId)</text><ellipse cx="732" cy="292.2539" fill="#84BE84" rx="3" ry="3" style="stroke: #038048; stroke-width: 1.0;"/><text fill="#000000" font-family="sans-serif" font-size="11" lengthAdjust="spacingAndGlyphs" textLength="103" x="741" y="295.2549">getJuegoId(): JuegoId</text><ellipse cx="732" cy="306.0898" fill="#84BE84" rx="3" ry="3" style="stroke: #038048; stroke-width: 1.0;"/><text fill="#000000" font-family="sans-serif" font-size="11" lengthAdjust="spacingAndGlyphs" textLength="95" x="741" y="309.0908">getMetros(): Integer</text></a><!--class co.com.sofka.cargame.domain.carril.events.CarroAgregadoACarrail--><a href="CarroAgregadoACarrail.html" target="_top" xlink:actuate="onRequest" xlink:show="new" xlink:title="CarroAgregadoACarrail.html" xlink:type="simple"><rect fill="#FEFECE" filter="url(#fxwc2e5o1ide8)" height="75.6719" id="co.com.sofka.cargame.domain.carril.events.CarroAgregadoACarrail" style="stroke: #A80036; stroke-width: 1.5;" width="183" x="502.5" y="233"/><ellipse cx="527.85" cy="249" fill="#ADD1B2" rx="11" ry="11" style="stroke: #A80036; stroke-width: 1.0;"/><path d="M530.6156,244.875 Q530.7719,244.6563 530.9594,244.5469 Q531.1469,244.4375 531.3656,244.4375 Q531.7406,244.4375 531.975,244.7031 Q532.2094,244.9531 532.2094,245.5625 L532.2094,247.0156 Q532.2094,247.625 531.975,247.8906 Q531.7406,248.1563 531.3656,248.1563 Q531.0219,248.1563 530.8188,247.9531 Q530.6156,247.7656 530.5063,247.25 Q530.4594,246.8906 530.2719,246.7031 Q529.9438,246.3281 529.3344,246.1094 Q528.725,245.8906 528.1,245.8906 Q527.3344,245.8906 526.6938,246.2188 Q526.0688,246.5469 525.5688,247.2969 Q525.0844,248.0469 525.0844,249.0781 L525.0844,250.1719 Q525.0844,251.4063 525.975,252.2344 Q526.8656,253.0469 528.4594,253.0469 Q529.3969,253.0469 530.0531,252.7969 Q530.4438,252.6406 530.8656,252.2031 Q531.1313,251.9375 531.2719,251.8594 Q531.4281,251.7813 531.6313,251.7813 Q531.9594,251.7813 532.2094,252.0469 Q532.475,252.2969 532.475,252.6406 Q532.475,252.9844 532.1313,253.3906 Q531.6313,253.9688 530.8344,254.2969 Q529.7563,254.75 528.4594,254.75 Q526.9438,254.75 525.7406,254.125 Q524.7563,253.625 524.0688,252.5625 Q523.3813,251.4844 523.3813,250.2031 L523.3813,249.0469 Q523.3813,247.7188 523.9906,246.5781 Q524.6156,245.4219 525.7094,244.8125 Q526.8031,244.1875 528.0375,244.1875 Q528.7719,244.1875 529.4125,244.3594 Q530.0688,244.5156 530.6156,244.875 Z "/><text fill="#000000" font-family="sans-serif" font-size="12" lengthAdjust="spacingAndGlyphs" textLength="128" x="544.15" y="253.9102">CarroAgregadoACarrail</text><line style="stroke: #A80036; stroke-width: 1.5;" x1="503.5" x2="684.5" y1="265" y2="265"/><line style="stroke: #A80036; stroke-width: 1.5;" x1="503.5" x2="684.5" y1="273" y2="273"/><ellipse cx="513.5" cy="285.418" fill="#84BE84" rx="3" ry="3" style="stroke: #038048; stroke-width: 1.0;"/><text fill="#000000" font-family="sans-serif" font-size="11" lengthAdjust="spacingAndGlyphs" textLength="157" x="522.5" y="288.4189">CarroAgregadoACarrail(CarroId)</text><ellipse cx="513.5" cy="299.2539" fill="#84BE84" rx="3" ry="3" style="stroke: #038048; stroke-width: 1.0;"/><text fill="#000000" font-family="sans-serif" font-size="11" lengthAdjust="spacingAndGlyphs" textLength="99" x="522.5" y="302.2549">getCarroId(): CarroId</text></a><!--class co.com.sofka.cargame.domain.carril.events.CarroDesplazado--><a href="CarroDesplazado.html" target="_top" xlink:actuate="onRequest" xlink:show="new" xlink:title="CarroDesplazado.html" xlink:type="simple"><rect fill="#FEFECE" filter="url(#fxwc2e5o1ide8)" height="75.6719" id="co.com.sofka.cargame.domain.carril.events.CarroDesplazado" style="stroke: #A80036; stroke-width: 1.5;" width="158" x="309" y="233"/><ellipse cx="337.05" cy="249" fill="#ADD1B2" rx="11" ry="11" style="stroke: #A80036; stroke-width: 1.0;"/><path d="M339.8156,244.875 Q339.9719,244.6563 340.1594,244.5469 Q340.3469,244.4375 340.5656,244.4375 Q340.9406,244.4375 341.175,244.7031 Q341.4094,244.9531 341.4094,245.5625 L341.4094,247.0156 Q341.4094,247.625 341.175,247.8906 Q340.9406,248.1563 340.5656,248.1563 Q340.2219,248.1563 340.0188,247.9531 Q339.8156,247.7656 339.7063,247.25 Q339.6594,246.8906 339.4719,246.7031 Q339.1438,246.3281 338.5344,246.1094 Q337.925,245.8906 337.3,245.8906 Q336.5344,245.8906 335.8938,246.2188 Q335.2688,246.5469 334.7688,247.2969 Q334.2844,248.0469 334.2844,249.0781 L334.2844,250.1719 Q334.2844,251.4063 335.175,252.2344 Q336.0656,253.0469 337.6594,253.0469 Q338.5969,253.0469 339.2531,252.7969 Q339.6438,252.6406 340.0656,252.2031 Q340.3313,251.9375 340.4719,251.8594 Q340.6281,251.7813 340.8313,251.7813 Q341.1594,251.7813 341.4094,252.0469 Q341.675,252.2969 341.675,252.6406 Q341.675,252.9844 341.3313,253.3906 Q340.8313,253.9688 340.0344,254.2969 Q338.9563,254.75 337.6594,254.75 Q336.1438,254.75 334.9406,254.125 Q333.9563,253.625 333.2688,252.5625 Q332.5813,251.4844 332.5813,250.2031 L332.5813,249.0469 Q332.5813,247.7188 333.1906,246.5781 Q333.8156,245.4219 334.9094,244.8125 Q336.0031,244.1875 337.2375,244.1875 Q337.9719,244.1875 338.6125,244.3594 Q339.2688,244.5156 339.8156,244.875 Z "/><text fill="#000000" font-family="sans-serif" font-size="12" lengthAdjust="spacingAndGlyphs" textLength="97" x="353.95" y="253.9102">CarroDesplazado</text><line style="stroke: #A80036; stroke-width: 1.5;" x1="310" x2="466" y1="265" y2="265"/><line style="stroke: #A80036; stroke-width: 1.5;" x1="310" x2="466" y1="273" y2="273"/><ellipse cx="320" cy="285.418" fill="#84BE84" rx="3" ry="3" style="stroke: #038048; stroke-width: 1.0;"/><text fill="#000000" font-family="sans-serif" font-size="11" lengthAdjust="spacingAndGlyphs" textLength="132" x="329" y="288.4189">CarroDesplazado(Posicion)</text><ellipse cx="320" cy="299.2539" fill="#84BE84" rx="3" ry="3" style="stroke: #038048; stroke-width: 1.0;"/><text fill="#000000" font-family="sans-serif" font-size="11" lengthAdjust="spacingAndGlyphs" textLength="109" x="329" y="302.2549">getPosicion(): Posicion</text></a><!--class co.com.sofka.cargame.domain.carril.events.CarroFinalizoSuRecorrido--><a href="CarroFinalizoSuRecorrido.html" target="_top" xlink:actuate="onRequest" xlink:show="new" xlink:title="CarroFinalizoSuRecorrido.html" xlink:type="simple"><rect fill="#FEFECE" filter="url(#fxwc2e5o1ide8)" height="89.5078" id="co.com.sofka.cargame.domain.carril.events.CarroFinalizoSuRecorrido" style="stroke: #A80036; stroke-width: 1.5;" width="235" x="38.5" y="226"/><ellipse cx="80.95" cy="242" fill="#ADD1B2" rx="11" ry="11" style="stroke: #A80036; stroke-width: 1.0;"/><path d="M83.7156,237.875 Q83.8719,237.6563 84.0594,237.5469 Q84.2469,237.4375 84.4656,237.4375 Q84.8406,237.4375 85.075,237.7031 Q85.3094,237.9531 85.3094,238.5625 L85.3094,240.0156 Q85.3094,240.625 85.075,240.8906 Q84.8406,241.1563 84.4656,241.1563 Q84.1219,241.1563 83.9188,240.9531 Q83.7156,240.7656 83.6063,240.25 Q83.5594,239.8906 83.3719,239.7031 Q83.0438,239.3281 82.4344,239.1094 Q81.825,238.8906 81.2,238.8906 Q80.4344,238.8906 79.7938,239.2188 Q79.1688,239.5469 78.6688,240.2969 Q78.1844,241.0469 78.1844,242.0781 L78.1844,243.1719 Q78.1844,244.4063 79.075,245.2344 Q79.9656,246.0469 81.5594,246.0469 Q82.4969,246.0469 83.1531,245.7969 Q83.5438,245.6406 83.9656,245.2031 Q84.2313,244.9375 84.3719,244.8594 Q84.5281,244.7813 84.7313,244.7813 Q85.0594,244.7813 85.3094,245.0469 Q85.575,245.2969 85.575,245.6406 Q85.575,245.9844 85.2313,246.3906 Q84.7313,246.9688 83.9344,247.2969 Q82.8563,247.75 81.5594,247.75 Q80.0438,247.75 78.8406,247.125 Q77.8563,246.625 77.1688,245.5625 Q76.4813,244.4844 76.4813,243.2031 L76.4813,242.0469 Q76.4813,240.7188 77.0906,239.5781 Q77.7156,238.4219 78.8094,237.8125 Q79.9031,237.1875 81.1375,237.1875 Q81.8719,237.1875 82.5125,237.3594 Q83.1688,237.5156 83.7156,237.875 Z "/><text fill="#000000" font-family="sans-serif" font-size="12" lengthAdjust="spacingAndGlyphs" textLength="142" x="101.05" y="246.9102">CarroFinalizoSuRecorrido</text><line style="stroke: #A80036; stroke-width: 1.5;" x1="39.5" x2="272.5" y1="258" y2="258"/><line style="stroke: #A80036; stroke-width: 1.5;" x1="39.5" x2="272.5" y1="266" y2="266"/><ellipse cx="49.5" cy="278.418" fill="#84BE84" rx="3" ry="3" style="stroke: #038048; stroke-width: 1.0;"/><text fill="#000000" font-family="sans-serif" font-size="11" lengthAdjust="spacingAndGlyphs" textLength="209" x="58.5" y="281.4189">CarroFinalizoSuRecorrido(CarroId, JuegoId)</text><ellipse cx="49.5" cy="292.2539" fill="#84BE84" rx="3" ry="3" style="stroke: #038048; stroke-width: 1.0;"/><text fill="#000000" font-family="sans-serif" font-size="11" lengthAdjust="spacingAndGlyphs" textLength="103" x="58.5" y="295.2549">getJuegoId(): JuegoId</text><ellipse cx="49.5" cy="306.0898" fill="#84BE84" rx="3" ry="3" style="stroke: #038048; stroke-width: 1.0;"/><text fill="#000000" font-family="sans-serif" font-size="11" lengthAdjust="spacingAndGlyphs" textLength="99" x="58.5" y="309.0908">getCarroId(): CarroId</text></a><!--class co.com.sofka.domain.generic.DomainEvent--><rect fill="#FEFECE" filter="url(#fxwc2e5o1ide8)" height="89.5078" id="co.com.sofka.domain.generic.DomainEvent" style="stroke: #A80036; stroke-width: 1.5;" width="107" x="472.5" y="60"/><ellipse cx="487.5" cy="76" fill="#A9DCDF" rx="11" ry="11" style="stroke: #A80036; stroke-width: 1.0;"/><path d="M489.6875,77.7656 L485.5469,77.7656 L485.125,78.7969 L485.5469,78.7969 Q486.1563,78.7969 486.4219,79.0313 Q486.6875,79.2656 486.6875,79.6563 Q486.6875,80.0313 486.4219,80.2656 Q486.1563,80.5 485.5469,80.5 L483.25,80.5 Q482.6406,80.5 482.3906,80.2656 Q482.125,80.0313 482.125,79.6406 Q482.125,79.2656 482.4063,79.0313 Q482.6719,78.7813 483.2969,78.7969 L485.9688,72.1406 L484.8594,72.1406 Q484.25,72.1406 483.9844,71.9063 Q483.7188,71.6719 483.7188,71.2813 Q483.7188,70.9063 483.9844,70.6719 Q484.25,70.4375 484.8594,70.4375 L488.5313,70.4375 L491.9219,78.7969 Q492.5156,78.7969 492.7031,78.9375 Q493.0938,79.2031 493.0938,79.6563 Q493.0938,80.0313 492.8281,80.2656 Q492.5781,80.5 491.9688,80.5 L489.6719,80.5 Q489.0625,80.5 488.7969,80.2656 Q488.5313,80.0313 488.5313,79.6406 Q488.5313,79.2656 488.7969,79.0313 Q489.0625,78.7969 489.6719,78.7969 L490.0938,78.7969 L489.6875,77.7656 Z M488.9688,76.0625 L487.6094,72.6875 L486.2344,76.0625 L488.9688,76.0625 Z "/><text fill="#000000" font-family="sans-serif" font-size="12" font-style="italic" lengthAdjust="spacingAndGlyphs" textLength="75" x="501.5" y="80.9102">DomainEvent</text><line style="stroke: #A80036; stroke-width: 1.5;" x1="473.5" x2="578.5" y1="92" y2="92"/><ellipse cx="483.5" cy="104.418" fill="none" rx="3" ry="3" style="stroke: #038048; stroke-width: 1.0;"/><text fill="#000000" font-family="sans-serif" font-size="11" lengthAdjust="spacingAndGlyphs" textLength="66" x="492.5" y="107.4189">when: Instant</text><ellipse cx="483.5" cy="118.2539" fill="none" rx="3" ry="3" style="stroke: #038048; stroke-width: 1.0;"/><text fill="#000000" font-family="sans-serif" font-size="11" lengthAdjust="spacingAndGlyphs" textLength="49" x="492.5" y="121.2549">uuid: UUID</text><ellipse cx="483.5" cy="132.0898" fill="none" rx="3" ry="3" style="stroke: #038048; stroke-width: 1.0;"/><text fill="#000000" font-family="sans-serif" font-size="11" lengthAdjust="spacingAndGlyphs" textLength="55" x="492.5" y="135.0908">type: String</text><line style="stroke: #A80036; stroke-width: 1.5;" x1="473.5" x2="578.5" y1="141.5078" y2="141.5078"/><!--class co.com.sofka.domain.generic.Incremental--><rect fill="#FEFECE" filter="url(#fxwc2e5o1ide8)" height="48" id="co.com.sofka.domain.generic.Incremental" style="stroke: #A80036; stroke-width: 1.5;" width="98" x="339" y="81"/><ellipse cx="354" cy="97" fill="#B4A7E5" rx="11" ry="11" style="stroke: #A80036; stroke-width: 1.0;"/><path d="M354.9531,93.6406 L354.9531,100.2969 L356.6719,100.2969 Q357.2813,100.2969 357.5469,100.5313 Q357.8125,100.7656 357.8125,101.1563 Q357.8125,101.5313 357.5469,101.7656 Q357.2813,102 356.6719,102 L351.5313,102 Q350.9219,102 350.6563,101.7656 Q350.3906,101.5313 350.3906,101.1406 Q350.3906,100.7656 350.6563,100.5313 Q350.9219,100.2969 351.5313,100.2969 L353.25,100.2969 L353.25,93.6406 L351.5313,93.6406 Q350.9219,93.6406 350.6563,93.4063 Q350.3906,93.1719 350.3906,92.7813 Q350.3906,92.4063 350.6563,92.1719 Q350.9219,91.9375 351.5313,91.9375 L356.6719,91.9375 Q357.2813,91.9375 357.5469,92.1719 Q357.8125,92.4063 357.8125,92.7813 Q357.8125,93.1719 357.5469,93.4063 Q357.2813,93.6406 356.6719,93.6406 L354.9531,93.6406 Z "/><text fill="#000000" font-family="sans-serif" font-size="12" font-style="italic" lengthAdjust="spacingAndGlyphs" textLength="66" x="368" y="101.9102">Incremental</text><line style="stroke: #A80036; stroke-width: 1.5;" x1="340" x2="436" y1="113" y2="113"/><line style="stroke: #A80036; stroke-width: 1.5;" x1="340" x2="436" y1="121" y2="121"/><!--link co.com.sofka.domain.generic.DomainEvent to co.com.sofka.cargame.domain.carril.events.CarrilCreado--><path d="M598.26,131.31 C631.35,144.31 670.36,161.7 703,182 C723.07,194.48 743.26,210.73 760.38,225.85 " fill="none" id="co.com.sofka.domain.generic.DomainEvent-co.com.sofka.cargame.domain.carril.events.CarrilCreado" style="stroke: #A80036; stroke-width: 1.0;"/><polygon fill="none" points="595.75,137.84,579.56,124.17,600.75,124.76,595.75,137.84" style="stroke: #A80036; stroke-width: 1.0;"/><!--link co.com.sofka.domain.generic.DomainEvent to co.com.sofka.cargame.domain.carril.events.CarroAgregadoACarrail--><path d="M552.15,169.06 C561.08,190.59 570.77,213.97 578.58,232.8 " fill="none" id="co.com.sofka.domain.generic.DomainEvent-co.com.sofka.cargame.domain.carril.events.CarroAgregadoACarrail" style="stroke: #A80036; stroke-width: 1.0;"/><polygon fill="none" points="545.6,171.54,544.4,150.38,558.53,166.17,545.6,171.54" style="stroke: #A80036; stroke-width: 1.0;"/><!--link co.com.sofka.domain.generic.Incremental to co.com.sofka.cargame.domain.carril.events.CarroAgregadoACarrail--><path d="M418.65,144.13 C429.16,155.13 441.66,166.24 455,174 C466.93,180.94 472.7,175.75 485,182 C510.81,195.1 536.17,215.04 555.93,232.63 " fill="none" id="co.com.sofka.domain.generic.Incremental-co.com.sofka.cargame.domain.carril.events.CarroAgregadoACarrail" style="stroke: #A80036; stroke-width: 1.0; stroke-dasharray: 7.0,7.0;"/><polygon fill="none" points="413.28,148.63,405.25,129.02,423.76,139.34,413.28,148.63" style="stroke: #A80036; stroke-width: 1.0;"/><!--link co.com.sofka.domain.generic.DomainEvent to co.com.sofka.cargame.domain.carril.events.CarroDesplazado--><path d="M475.68,165.8 C456.82,188.21 435.95,213.01 419.3,232.8 " fill="none" id="co.com.sofka.domain.generic.DomainEvent-co.com.sofka.cargame.domain.carril.events.CarroDesplazado" style="stroke: #A80036; stroke-width: 1.0;"/><polygon fill="none" points="470.42,161.18,488.66,150.38,481.13,170.19,470.42,161.18" style="stroke: #A80036; stroke-width: 1.0;"/><!--link co.com.sofka.domain.generic.Incremental to co.com.sofka.cargame.domain.carril.events.CarroDesplazado--><path d="M388,149.46 C388,175.4 388,208 388,232.75 " fill="none" id="co.com.sofka.domain.generic.Incremental-co.com.sofka.cargame.domain.carril.events.CarroDesplazado" style="stroke: #A80036; stroke-width: 1.0; stroke-dasharray: 7.0,7.0;"/><polygon fill="none" points="381,149.15,388,129.15,395,149.15,381,149.15" style="stroke: #A80036; stroke-width: 1.0;"/><!--link co.com.sofka.domain.generic.DomainEvent to co.com.sofka.cargame.domain.carril.events.CarroFinalizoSuRecorrido--><path d="M474.08,163.05 C468.04,167.36 461.65,171.14 455,174 C421.69,188.34 326.52,170.88 292,182 C262.69,191.44 233.57,208.91 209.84,225.8 " fill="none" id="co.com.sofka.domain.generic.DomainEvent-co.com.sofka.cargame.domain.carril.events.CarroFinalizoSuRecorrido" style="stroke: #A80036; stroke-width: 1.0;"/><polygon fill="none" points="469.75,157.55,489.63,150.22,478.65,168.35,469.75,157.55" style="stroke: #A80036; stroke-width: 1.0;"/><!--link co.com.sofka.domain.generic.Incremental to co.com.sofka.cargame.domain.carril.events.CarroFinalizoSuRecorrido--><path d="M338.66,140.87 C303.66,165.62 256.39,199.03 218.71,225.67 " fill="none" id="co.com.sofka.domain.generic.Incremental-co.com.sofka.cargame.domain.carril.events.CarroFinalizoSuRecorrido" style="stroke: #A80036; stroke-width: 1.0; stroke-dasharray: 7.0,7.0;"/><polygon fill="none" points="334.88,134.98,355.25,129.15,342.96,146.41,334.88,134.98" style="stroke: #A80036; stroke-width: 1.0;"/><text fill="#888888" font-family="sans-serif" font-size="10" lengthAdjust="spacingAndGlyphs" textLength="190" x="375.5" y="368.3809">UMLDoclet 2.0.10, PlantUML 1.2019.08</text><!--
@startuml
    namespace co.com.sofka.cargame.domain.carril.events {

        class CarrilCreado [[CarrilCreado.html]] {
            +CarrilCreado(Integer, JuegoId)
            +getJuegoId(): JuegoId
            +getMetros(): Integer
        }

        class CarroAgregadoACarrail [[CarroAgregadoACarrail.html]] {
            +CarroAgregadoACarrail(CarroId)
            +getCarroId(): CarroId
        }

        class CarroDesplazado [[CarroDesplazado.html]] {
            +CarroDesplazado(Posicion)
            +getPosicion(): Posicion
        }

        class CarroFinalizoSuRecorrido [[CarroFinalizoSuRecorrido.html]] {
            +CarroFinalizoSuRecorrido(CarroId, JuegoId)
            +getJuegoId(): JuegoId
            +getCarroId(): CarroId
        }

        co.com.sofka.domain.generic.DomainEvent <|- - CarrilCreado
        co.com.sofka.domain.generic.DomainEvent <|- - CarroAgregadoACarrail
        co.com.sofka.domain.generic.Incremental <|.. CarroAgregadoACarrail
        co.com.sofka.domain.generic.DomainEvent <|- - CarroDesplazado
        co.com.sofka.domain.generic.Incremental <|.. CarroDesplazado
        co.com.sofka.domain.generic.DomainEvent <|- - CarroFinalizoSuRecorrido
        co.com.sofka.domain.generic.Incremental <|.. CarroFinalizoSuRecorrido
    }

    namespace co.com.sofka.domain.generic {
        abstract class DomainEvent {
            +when: Instant
            +uuid: UUID
            +type: String
        }
        interface Incremental
    }

    center footer UMLDoclet 2.0.10, PlantUML 1.2019.08
@enduml

PlantUML version 1.2019.08(Sat Jul 13 14:25:14 COT 2019)
(APACHE source distribution)
Java Runtime: Java(TM) SE Runtime Environment
JVM: Java HotSpot(TM) 64-Bit Server VM
Java Version: 11.0.11+9-LTS-194
Operating System: Windows 10
OS Version: 10.0
Default Encoding: Cp1252
Language: es
Country: CO
--></g></svg>