<?xml version="1.0" encoding="UTF-8" standalone="no"?><svg xmlns="http://www.w3.org/2000/svg" xmlns:xlink="http://www.w3.org/1999/xlink" contentScriptType="application/ecmascript" contentStyleType="text/css" height="231px" preserveAspectRatio="none" style="width:255px;height:231px;" version="1.1" viewBox="0 0 255 231" width="255px" zoomAndPan="magnify"><defs><filter height="300%" id="f1jirv3wrdvegm" width="300%" x="-1" y="-1"><feGaussianBlur result="blurOut" stdDeviation="2.0"/><feColorMatrix in="blurOut" result="blurOut2" type="matrix" values="0 0 0 0 0 0 0 0 0 0 0 0 0 0 0 0 0 0 .4 0"/><feOffset dx="4.0" dy="4.0" in="blurOut2" result="blurOut3"/><feBlend in="SourceGraphic" in2="blurOut3" mode="normal"/></filter></defs><g><!--class co.com.sofka.cargame.domain.carril.values.CarrilId--><a href="CarrilId.html" target="_top" xlink:actuate="onRequest" xlink:show="new" xlink:title="CarrilId.html" xlink:type="simple"><rect fill="#FEFECE" filter="url(#f1jirv3wrdvegm)" height="89.6953" id="co.com.sofka.cargame.domain.carril.values.CarrilId" style="stroke: #A80036; stroke-width: 1.5;" width="238" x="6" y="108"/><ellipse cx="21" cy="128.0938" fill="#ADD1B2" rx="11" ry="11" style="stroke: #A80036; stroke-width: 1.0;"/><path d="M23.7656,123.9688 Q23.9219,123.75 24.1094,123.6406 Q24.2969,123.5313 24.5156,123.5313 Q24.8906,123.5313 25.125,123.7969 Q25.3594,124.0469 25.3594,124.6563 L25.3594,126.1094 Q25.3594,126.7188 25.125,126.9844 Q24.8906,127.25 24.5156,127.25 Q24.1719,127.25 23.9688,127.0469 Q23.7656,126.8594 23.6563,126.3438 Q23.6094,125.9844 23.4219,125.7969 Q23.0938,125.4219 22.4844,125.2031 Q21.875,124.9844 21.25,124.9844 Q20.4844,124.9844 19.8438,125.3125 Q19.2188,125.6406 18.7188,126.3906 Q18.2344,127.1406 18.2344,128.1719 L18.2344,129.2656 Q18.2344,130.5 19.125,131.3281 Q20.0156,132.1406 21.6094,132.1406 Q22.5469,132.1406 23.2031,131.8906 Q23.5938,131.7344 24.0156,131.2969 Q24.2813,131.0313 24.4219,130.9531 Q24.5781,130.875 24.7813,130.875 Q25.1094,130.875 25.3594,131.1406 Q25.625,131.3906 25.625,131.7344 Q25.625,132.0781 25.2813,132.4844 Q24.7813,133.0625 23.9844,133.3906 Q22.9063,133.8438 21.6094,133.8438 Q20.0938,133.8438 18.8906,133.2188 Q17.9063,132.7188 17.2188,131.6563 Q16.5313,130.5781 16.5313,129.2969 L16.5313,128.1406 Q16.5313,126.8125 17.1406,125.6719 Q17.7656,124.5156 18.8594,123.9063 Q19.9531,123.2813 21.1875,123.2813 Q21.9219,123.2813 22.5625,123.4531 Q23.2188,123.6094 23.7656,123.9688 Z "/><text fill="#000000" font-family="sans-serif" font-size="14" lengthAdjust="spacingAndGlyphs" textLength="45" x="115.5" y="127.5332">CarrilId</text><text fill="#000000" font-family="sans-serif" font-size="10" lengthAdjust="spacingAndGlyphs" textLength="206" x="35" y="140.9902">co.com.sofka.cargame.domain.carril.values</text><line style="stroke: #A80036; stroke-width: 1.5;" x1="7" x2="243" y1="148.1875" y2="148.1875"/><ellipse cx="17" cy="160.6055" fill="#84BE84" rx="3" ry="3" style="stroke: #038048; stroke-width: 1.0;"/><text fill="#000000" font-family="sans-serif" font-size="11" lengthAdjust="spacingAndGlyphs" textLength="69" x="26" y="163.6064">CarrilId(String)</text><ellipse cx="17" cy="174.4414" fill="#84BE84" rx="3" ry="3" style="stroke: #038048; stroke-width: 1.0;"/><text fill="#000000" font-family="sans-serif" font-size="11" lengthAdjust="spacingAndGlyphs" textLength="41" x="26" y="177.4424">CarrilId()</text><ellipse cx="17" cy="188.2773" fill="#84BE84" rx="3" ry="3" style="stroke: #038048; stroke-width: 1.0;"/><text fill="#000000" font-family="sans-serif" font-size="11" lengthAdjust="spacingAndGlyphs" text-decoration="underline" textLength="85" x="26" y="191.2783">of(String): CarrilId</text></a><!--class co.com.sofka.domain.generic.Identity--><rect fill="#FEFECE" filter="url(#f1jirv3wrdvegm)" height="40.1875" id="co.com.sofka.domain.generic.Identity" style="stroke: #A80036; stroke-width: 1.5;" width="172" x="39" y="8"/><ellipse cx="54" cy="28.0938" fill="#ADD1B2" rx="11" ry="11" style="stroke: #A80036; stroke-width: 1.0;"/><path d="M56.7656,23.9688 Q56.9219,23.75 57.1094,23.6406 Q57.2969,23.5313 57.5156,23.5313 Q57.8906,23.5313 58.125,23.7969 Q58.3594,24.0469 58.3594,24.6563 L58.3594,26.1094 Q58.3594,26.7188 58.125,26.9844 Q57.8906,27.25 57.5156,27.25 Q57.1719,27.25 56.9688,27.0469 Q56.7656,26.8594 56.6563,26.3438 Q56.6094,25.9844 56.4219,25.7969 Q56.0938,25.4219 55.4844,25.2031 Q54.875,24.9844 54.25,24.9844 Q53.4844,24.9844 52.8438,25.3125 Q52.2188,25.6406 51.7188,26.3906 Q51.2344,27.1406 51.2344,28.1719 L51.2344,29.2656 Q51.2344,30.5 52.125,31.3281 Q53.0156,32.1406 54.6094,32.1406 Q55.5469,32.1406 56.2031,31.8906 Q56.5938,31.7344 57.0156,31.2969 Q57.2813,31.0313 57.4219,30.9531 Q57.5781,30.875 57.7813,30.875 Q58.1094,30.875 58.3594,31.1406 Q58.625,31.3906 58.625,31.7344 Q58.625,32.0781 58.2813,32.4844 Q57.7813,33.0625 56.9844,33.3906 Q55.9063,33.8438 54.6094,33.8438 Q53.0938,33.8438 51.8906,33.2188 Q50.9063,32.7188 50.2188,31.6563 Q49.5313,30.5781 49.5313,29.2969 L49.5313,28.1406 Q49.5313,26.8125 50.1406,25.6719 Q50.7656,24.5156 51.8594,23.9063 Q52.9531,23.2813 54.1875,23.2813 Q54.9219,23.2813 55.5625,23.4531 Q56.2188,23.6094 56.7656,23.9688 Z "/><text fill="#000000" font-family="sans-serif" font-size="14" lengthAdjust="spacingAndGlyphs" textLength="45" x="115.5" y="27.5332">Identity</text><text fill="#000000" font-family="sans-serif" font-size="10" lengthAdjust="spacingAndGlyphs" textLength="140" x="68" y="40.9902">co.com.sofka.domain.generic</text><!--link co.com.sofka.domain.generic.Identity to co.com.sofka.cargame.domain.carril.values.CarrilId--><path d="M125,68.25 C125,80.89 125,94.98 125,107.94 " fill="none" id="co.com.sofka.domain.generic.Identity-co.com.sofka.cargame.domain.carril.values.CarrilId" style="stroke: #A80036; stroke-width: 1.0;"/><polygon fill="none" points="118,68.22,125,48.22,132,68.22,118,68.22" style="stroke: #A80036; stroke-width: 1.0;"/><text fill="#888888" font-family="sans-serif" font-size="10" lengthAdjust="spacingAndGlyphs" textLength="190" x="36" y="218.3809">UMLDoclet 2.0.10, PlantUML 1.2019.08</text><!--
@startuml
    set namespaceSeparator none
    hide empty fields
    hide empty methods

    class "<size:14>CarrilId\n<size:10>co.com.sofka.cargame.domain.carril.values" as co.com.sofka.cargame.domain.carril.values.CarrilId [[CarrilId.html]] {
        +CarrilId(String)
        +CarrilId()
        {static} +of(String): CarrilId
    }

    class "<size:14>Identity\n<size:10>co.com.sofka.domain.generic" as co.com.sofka.domain.generic.Identity

    co.com.sofka.domain.generic.Identity <|- - co.com.sofka.cargame.domain.carril.values.CarrilId

    center footer UMLDoclet 2.0.10, PlantUML 1.2019.08
@enduml

PlantUML version 1.2019.08(Sat Jul 13 14:25:14 COT 2019)
(APACHE source distribution)
Java Runtime: Java(TM) SE Runtime Environment
JVM: Java HotSpot(TM) 64-Bit Server VM
Java Version: 11.0.11+9-LTS-194
Operating System: Windows 10
OS Version: 10.0
Default Encoding: Cp1252
Language: es
Country: CO
--></g></svg>