<?xml version="1.0" encoding="UTF-8" standalone="no"?><svg xmlns="http://www.w3.org/2000/svg" xmlns:xlink="http://www.w3.org/1999/xlink" contentScriptType="application/ecmascript" contentStyleType="text/css" height="489px" preserveAspectRatio="none" style="width:369px;height:489px;" version="1.1" viewBox="0 0 369 489" width="369px" zoomAndPan="magnify"><defs><filter height="300%" id="f13znhzp0nbzn6" width="300%" x="-1" y="-1"><feGaussianBlur result="blurOut" stdDeviation="2.0"/><feColorMatrix in="blurOut" result="blurOut2" type="matrix" values="0 0 0 0 0 0 0 0 0 0 0 0 0 0 0 0 0 0 .4 0"/><feOffset dx="4.0" dy="4.0" in="blurOut2" result="blurOut3"/><feBlend in="SourceGraphic" in2="blurOut3" mode="normal"/></filter></defs><g><!--cluster co.com.sofka.cargame.domain.carril.values--><polygon fill="#FFFFFF" filter="url(#f13znhzp0nbzn6)" points="22,162,330,162,337,185.6094,347,185.6094,347,440,22,440,22,162" style="stroke: #000000; stroke-width: 1.5;"/><line style="stroke: #000000; stroke-width: 1.5;" x1="22" x2="337" y1="185.6094" y2="185.6094"/><text fill="#000000" font-family="sans-serif" font-size="14" font-weight="bold" lengthAdjust="spacingAndGlyphs" textLength="302" x="26" y="178.5332">co.com.sofka.cargame.domain.carril.values</text><!--cluster co.com.sofka.domain.generic--><polygon fill="#FFFFFF" filter="url(#f13znhzp0nbzn6)" points="58,24,269,24,276,47.6094,307,47.6094,307,138,58,138,58,24" style="stroke: #000000; stroke-width: 1.5;"/><line style="stroke: #000000; stroke-width: 1.5;" x1="58" x2="276" y1="47.6094" y2="47.6094"/><text fill="#000000" font-family="sans-serif" font-size="14" font-weight="bold" lengthAdjust="spacingAndGlyphs" textLength="205" x="62" y="40.5332">co.com.sofka.domain.generic</text><!--class co.com.sofka.cargame.domain.carril.values.CarrilId--><a href="CarrilId.html" target="_top" xlink:actuate="onRequest" xlink:show="new" xlink:title="CarrilId.html" xlink:type="simple"><rect fill="#FEFECE" filter="url(#f13znhzp0nbzn6)" height="89.5078" id="co.com.sofka.cargame.domain.carril.values.CarrilId" style="stroke: #A80036; stroke-width: 1.5;" width="111" x="219.5" y="198"/><ellipse cx="252.05" cy="214" fill="#ADD1B2" rx="11" ry="11" style="stroke: #A80036; stroke-width: 1.0;"/><path d="M254.8156,209.875 Q254.9719,209.6563 255.1594,209.5469 Q255.3469,209.4375 255.5656,209.4375 Q255.9406,209.4375 256.175,209.7031 Q256.4094,209.9531 256.4094,210.5625 L256.4094,212.0156 Q256.4094,212.625 256.175,212.8906 Q255.9406,213.1563 255.5656,213.1563 Q255.2219,213.1563 255.0188,212.9531 Q254.8156,212.7656 254.7063,212.25 Q254.6594,211.8906 254.4719,211.7031 Q254.1438,211.3281 253.5344,211.1094 Q252.925,210.8906 252.3,210.8906 Q251.5344,210.8906 250.8938,211.2188 Q250.2688,211.5469 249.7688,212.2969 Q249.2844,213.0469 249.2844,214.0781 L249.2844,215.1719 Q249.2844,216.4063 250.175,217.2344 Q251.0656,218.0469 252.6594,218.0469 Q253.5969,218.0469 254.2531,217.7969 Q254.6438,217.6406 255.0656,217.2031 Q255.3313,216.9375 255.4719,216.8594 Q255.6281,216.7813 255.8313,216.7813 Q256.1594,216.7813 256.4094,217.0469 Q256.675,217.2969 256.675,217.6406 Q256.675,217.9844 256.3313,218.3906 Q255.8313,218.9688 255.0344,219.2969 Q253.9563,219.75 252.6594,219.75 Q251.1438,219.75 249.9406,219.125 Q248.9563,218.625 248.2688,217.5625 Q247.5813,216.4844 247.5813,215.2031 L247.5813,214.0469 Q247.5813,212.7188 248.1906,211.5781 Q248.8156,210.4219 249.9094,209.8125 Q251.0031,209.1875 252.2375,209.1875 Q252.9719,209.1875 253.6125,209.3594 Q254.2688,209.5156 254.8156,209.875 Z "/><text fill="#000000" font-family="sans-serif" font-size="12" lengthAdjust="spacingAndGlyphs" textLength="40" x="269.95" y="218.9102">CarrilId</text><line style="stroke: #A80036; stroke-width: 1.5;" x1="220.5" x2="329.5" y1="230" y2="230"/><line style="stroke: #A80036; stroke-width: 1.5;" x1="220.5" x2="329.5" y1="238" y2="238"/><ellipse cx="230.5" cy="250.418" fill="#84BE84" rx="3" ry="3" style="stroke: #038048; stroke-width: 1.0;"/><text fill="#000000" font-family="sans-serif" font-size="11" lengthAdjust="spacingAndGlyphs" textLength="69" x="239.5" y="253.4189">CarrilId(String)</text><ellipse cx="230.5" cy="264.2539" fill="#84BE84" rx="3" ry="3" style="stroke: #038048; stroke-width: 1.0;"/><text fill="#000000" font-family="sans-serif" font-size="11" lengthAdjust="spacingAndGlyphs" textLength="41" x="239.5" y="267.2549">CarrilId()</text><ellipse cx="230.5" cy="278.0898" fill="#84BE84" rx="3" ry="3" style="stroke: #038048; stroke-width: 1.0;"/><text fill="#000000" font-family="sans-serif" font-size="11" lengthAdjust="spacingAndGlyphs" text-decoration="underline" textLength="85" x="239.5" y="281.0908">of(String): CarrilId</text></a><!--class co.com.sofka.cargame.domain.carril.values.Posicion--><a href="Posicion.html" target="_top" xlink:actuate="onRequest" xlink:show="new" xlink:title="Posicion.html" xlink:type="simple"><rect fill="#FEFECE" filter="url(#f13znhzp0nbzn6)" height="75.6719" id="co.com.sofka.cargame.domain.carril.values.Posicion" style="stroke: #A80036; stroke-width: 1.5;" width="146" x="38" y="205"/><ellipse cx="82.75" cy="221" fill="#ADD1B2" rx="11" ry="11" style="stroke: #A80036; stroke-width: 1.0;"/><path d="M85.5156,216.875 Q85.6719,216.6563 85.8594,216.5469 Q86.0469,216.4375 86.2656,216.4375 Q86.6406,216.4375 86.875,216.7031 Q87.1094,216.9531 87.1094,217.5625 L87.1094,219.0156 Q87.1094,219.625 86.875,219.8906 Q86.6406,220.1563 86.2656,220.1563 Q85.9219,220.1563 85.7188,219.9531 Q85.5156,219.7656 85.4063,219.25 Q85.3594,218.8906 85.1719,218.7031 Q84.8438,218.3281 84.2344,218.1094 Q83.625,217.8906 83,217.8906 Q82.2344,217.8906 81.5938,218.2188 Q80.9688,218.5469 80.4688,219.2969 Q79.9844,220.0469 79.9844,221.0781 L79.9844,222.1719 Q79.9844,223.4063 80.875,224.2344 Q81.7656,225.0469 83.3594,225.0469 Q84.2969,225.0469 84.9531,224.7969 Q85.3438,224.6406 85.7656,224.2031 Q86.0313,223.9375 86.1719,223.8594 Q86.3281,223.7813 86.5313,223.7813 Q86.8594,223.7813 87.1094,224.0469 Q87.375,224.2969 87.375,224.6406 Q87.375,224.9844 87.0313,225.3906 Q86.5313,225.9688 85.7344,226.2969 Q84.6563,226.75 83.3594,226.75 Q81.8438,226.75 80.6406,226.125 Q79.6563,225.625 78.9688,224.5625 Q78.2813,223.4844 78.2813,222.2031 L78.2813,221.0469 Q78.2813,219.7188 78.8906,218.5781 Q79.5156,217.4219 80.6094,216.8125 Q81.7031,216.1875 82.9375,216.1875 Q83.6719,216.1875 84.3125,216.3594 Q84.9688,216.5156 85.5156,216.875 Z "/><text fill="#000000" font-family="sans-serif" font-size="12" lengthAdjust="spacingAndGlyphs" textLength="48" x="103.25" y="225.9102">Posicion</text><line style="stroke: #A80036; stroke-width: 1.5;" x1="39" x2="183" y1="237" y2="237"/><line style="stroke: #A80036; stroke-width: 1.5;" x1="39" x2="183" y1="245" y2="245"/><ellipse cx="49" cy="257.418" fill="#84BE84" rx="3" ry="3" style="stroke: #038048; stroke-width: 1.0;"/><text fill="#000000" font-family="sans-serif" font-size="11" lengthAdjust="spacingAndGlyphs" textLength="120" x="58" y="260.4189">Posicion(Integer, Integer)</text><ellipse cx="49" cy="271.2539" fill="#84BE84" rx="3" ry="3" style="stroke: #038048; stroke-width: 1.0;"/><text fill="#000000" font-family="sans-serif" font-size="11" lengthAdjust="spacingAndGlyphs" textLength="68" x="58" y="274.2549">value(): Props</text></a><!--class co.com.sofka.cargame.domain.carril.values.Posicion.Props--><a href="Posicion.Props.html" target="_top" xlink:actuate="onRequest" xlink:show="new" xlink:title="Posicion.Props.html" xlink:type="simple"><rect fill="#FEFECE" filter="url(#f13znhzp0nbzn6)" height="75.6719" id="co.com.sofka.cargame.domain.carril.values.Posicion.Props" style="stroke: #A80036; stroke-width: 1.5;" width="114" x="54" y="348"/><ellipse cx="69" cy="364" fill="#B4A7E5" rx="11" ry="11" style="stroke: #A80036; stroke-width: 1.0;"/><path d="M69.9531,360.6406 L69.9531,367.2969 L71.6719,367.2969 Q72.2813,367.2969 72.5469,367.5313 Q72.8125,367.7656 72.8125,368.1563 Q72.8125,368.5313 72.5469,368.7656 Q72.2813,369 71.6719,369 L66.5313,369 Q65.9219,369 65.6563,368.7656 Q65.3906,368.5313 65.3906,368.1406 Q65.3906,367.7656 65.6563,367.5313 Q65.9219,367.2969 66.5313,367.2969 L68.25,367.2969 L68.25,360.6406 L66.5313,360.6406 Q65.9219,360.6406 65.6563,360.4063 Q65.3906,360.1719 65.3906,359.7813 Q65.3906,359.4063 65.6563,359.1719 Q65.9219,358.9375 66.5313,358.9375 L71.6719,358.9375 Q72.2813,358.9375 72.5469,359.1719 Q72.8125,359.4063 72.8125,359.7813 Q72.8125,360.1719 72.5469,360.4063 Q72.2813,360.6406 71.6719,360.6406 L69.9531,360.6406 Z "/><text fill="#000000" font-family="sans-serif" font-size="12" font-style="italic" lengthAdjust="spacingAndGlyphs" textLength="82" x="83" y="368.9102">Posicion.Props</text><line style="stroke: #A80036; stroke-width: 1.5;" x1="55" x2="167" y1="380" y2="380"/><line style="stroke: #A80036; stroke-width: 1.5;" x1="55" x2="167" y1="388" y2="388"/><ellipse cx="65" cy="400.418" fill="#84BE84" rx="3" ry="3" style="stroke: #038048; stroke-width: 1.0;"/><text fill="#000000" font-family="sans-serif" font-size="11" font-style="italic" lengthAdjust="spacingAndGlyphs" textLength="78" x="74" y="403.4189">actual(): Integer</text><ellipse cx="65" cy="414.2539" fill="#84BE84" rx="3" ry="3" style="stroke: #038048; stroke-width: 1.0;"/><text fill="#000000" font-family="sans-serif" font-size="11" font-style="italic" lengthAdjust="spacingAndGlyphs" textLength="75" x="74" y="417.2549">metal(): Integer</text></a><!--class co.com.sofka.domain.generic.Identity--><rect fill="#FEFECE" filter="url(#f13znhzp0nbzn6)" height="48" id="co.com.sofka.domain.generic.Identity" style="stroke: #A80036; stroke-width: 1.5;" width="70" x="221" y="67"/><ellipse cx="236" cy="83" fill="#ADD1B2" rx="11" ry="11" style="stroke: #A80036; stroke-width: 1.0;"/><path d="M238.7656,78.875 Q238.9219,78.6563 239.1094,78.5469 Q239.2969,78.4375 239.5156,78.4375 Q239.8906,78.4375 240.125,78.7031 Q240.3594,78.9531 240.3594,79.5625 L240.3594,81.0156 Q240.3594,81.625 240.125,81.8906 Q239.8906,82.1563 239.5156,82.1563 Q239.1719,82.1563 238.9688,81.9531 Q238.7656,81.7656 238.6563,81.25 Q238.6094,80.8906 238.4219,80.7031 Q238.0938,80.3281 237.4844,80.1094 Q236.875,79.8906 236.25,79.8906 Q235.4844,79.8906 234.8438,80.2188 Q234.2188,80.5469 233.7188,81.2969 Q233.2344,82.0469 233.2344,83.0781 L233.2344,84.1719 Q233.2344,85.4063 234.125,86.2344 Q235.0156,87.0469 236.6094,87.0469 Q237.5469,87.0469 238.2031,86.7969 Q238.5938,86.6406 239.0156,86.2031 Q239.2813,85.9375 239.4219,85.8594 Q239.5781,85.7813 239.7813,85.7813 Q240.1094,85.7813 240.3594,86.0469 Q240.625,86.2969 240.625,86.6406 Q240.625,86.9844 240.2813,87.3906 Q239.7813,87.9688 238.9844,88.2969 Q237.9063,88.75 236.6094,88.75 Q235.0938,88.75 233.8906,88.125 Q232.9063,87.625 232.2188,86.5625 Q231.5313,85.4844 231.5313,84.2031 L231.5313,83.0469 Q231.5313,81.7188 232.1406,80.5781 Q232.7656,79.4219 233.8594,78.8125 Q234.9531,78.1875 236.1875,78.1875 Q236.9219,78.1875 237.5625,78.3594 Q238.2188,78.5156 238.7656,78.875 Z "/><text fill="#000000" font-family="sans-serif" font-size="12" lengthAdjust="spacingAndGlyphs" textLength="38" x="250" y="87.9102">Identity</text><line style="stroke: #A80036; stroke-width: 1.5;" x1="222" x2="290" y1="99" y2="99"/><line style="stroke: #A80036; stroke-width: 1.5;" x1="222" x2="290" y1="107" y2="107"/><!--class co.com.sofka.domain.generic.ValueObject--><rect fill="#FEFECE" filter="url(#f13znhzp0nbzn6)" height="61.8359" id="co.com.sofka.domain.generic.ValueObject" style="stroke: #A80036; stroke-width: 1.5;" width="111" x="74.5" y="60"/><ellipse cx="89.5" cy="76" fill="#B4A7E5" rx="11" ry="11" style="stroke: #A80036; stroke-width: 1.0;"/><path d="M90.4531,72.6406 L90.4531,79.2969 L92.1719,79.2969 Q92.7813,79.2969 93.0469,79.5313 Q93.3125,79.7656 93.3125,80.1563 Q93.3125,80.5313 93.0469,80.7656 Q92.7813,81 92.1719,81 L87.0313,81 Q86.4219,81 86.1563,80.7656 Q85.8906,80.5313 85.8906,80.1406 Q85.8906,79.7656 86.1563,79.5313 Q86.4219,79.2969 87.0313,79.2969 L88.75,79.2969 L88.75,72.6406 L87.0313,72.6406 Q86.4219,72.6406 86.1563,72.4063 Q85.8906,72.1719 85.8906,71.7813 Q85.8906,71.4063 86.1563,71.1719 Q86.4219,70.9375 87.0313,70.9375 L92.1719,70.9375 Q92.7813,70.9375 93.0469,71.1719 Q93.3125,71.4063 93.3125,71.7813 Q93.3125,72.1719 93.0469,72.4063 Q92.7813,72.6406 92.1719,72.6406 L90.4531,72.6406 Z "/><text fill="#000000" font-family="sans-serif" font-size="12" font-style="italic" lengthAdjust="spacingAndGlyphs" textLength="68" x="103.5" y="80.9102">ValueObject</text><rect fill="#FFFFFF" height="17.0938" style="stroke: #000000; stroke-width: 1.0; stroke-dasharray: 2.0,2.0;" width="9" x="179.5" y="57"/><text fill="#000000" font-family="sans-serif" font-size="12" font-style="italic" lengthAdjust="spacingAndGlyphs" textLength="7" x="180.5" y="70.457">T</text><line style="stroke: #A80036; stroke-width: 1.5;" x1="75.5" x2="184.5" y1="92" y2="92"/><line style="stroke: #A80036; stroke-width: 1.5;" x1="75.5" x2="184.5" y1="100" y2="100"/><ellipse cx="85.5" cy="112.418" fill="#84BE84" rx="3" ry="3" style="stroke: #038048; stroke-width: 1.0;"/><text fill="#000000" font-family="sans-serif" font-size="11" font-style="italic" lengthAdjust="spacingAndGlyphs" textLength="47" x="94.5" y="115.4189">value(): T</text><!--link co.com.sofka.domain.generic.Identity to co.com.sofka.cargame.domain.carril.values.CarrilId--><path d="M261.45,135.03 C263.94,154.67 266.88,177.92 269.39,197.71 " fill="none" id="co.com.sofka.domain.generic.Identity-co.com.sofka.cargame.domain.carril.values.CarrilId" style="stroke: #A80036; stroke-width: 1.0;"/><polygon fill="none" points="254.5,135.83,258.93,115.11,268.38,134.07,254.5,135.83" style="stroke: #A80036; stroke-width: 1.0;"/><!--link co.com.sofka.domain.generic.ValueObject to co.com.sofka.cargame.domain.carril.values.Posicion--><path d="M123.62,142.35 C121.04,162.77 118.1,185.93 115.71,204.78 " fill="none" id="co.com.sofka.domain.generic.ValueObject-co.com.sofka.cargame.domain.carril.values.Posicion" style="stroke: #A80036; stroke-width: 1.0; stroke-dasharray: 7.0,7.0;"/><polygon fill="none" points="116.7,141.32,126.16,122.35,130.59,143.08,116.7,141.32" style="stroke: #A80036; stroke-width: 1.0;"/><!--link co.com.sofka.cargame.domain.carril.values.Posicion to co.com.sofka.cargame.domain.carril.values.Posicion.Props--><path d="M111,296.19 C111,313.29 111,331.94 111,347.71 " fill="none" id="co.com.sofka.cargame.domain.carril.values.Posicion-co.com.sofka.cargame.domain.carril.values.Posicion.Props" style="stroke: #A80036; stroke-width: 1.0;"/><ellipse cx="111" cy="289.05" fill="#FFFFFF" rx="8" ry="8" style="stroke: #A80036; stroke-width: 1.0;"/><line style="stroke: #A80036; stroke-width: 1.0;" x1="111" x2="111" y1="297.05" y2="281.05"/><line style="stroke: #A80036; stroke-width: 1.0;" x1="103" x2="119" y1="289.05" y2="289.05"/><text fill="#888888" font-family="sans-serif" font-size="10" lengthAdjust="spacingAndGlyphs" textLength="190" x="95.5" y="476.3809">UMLDoclet 2.0.10, PlantUML 1.2019.08</text><!--
@startuml
    namespace co.com.sofka.cargame.domain.carril.values {

        class CarrilId [[CarrilId.html]] {
            +CarrilId(String)
            +CarrilId()
            {static} +of(String): CarrilId
        }

        class Posicion [[Posicion.html]] {
            +Posicion(Integer, Integer)
            +value(): Props
        }

        interface co.com.sofka.cargame.domain.carril.values.Posicion.Props [[Posicion.Props.html]] {
            {abstract} +actual(): Integer
            {abstract} +metal(): Integer
        }

        co.com.sofka.domain.generic.Identity <|- - CarrilId
        co.com.sofka.domain.generic.ValueObject <|.. Posicion
        Posicion +- - co.com.sofka.cargame.domain.carril.values.Posicion.Props
    }

    namespace co.com.sofka.domain.generic {
        class Identity {
        }
        interface ValueObject<T> {
            {abstract} +value(): T
        }
    }

    center footer UMLDoclet 2.0.10, PlantUML 1.2019.08
@enduml

PlantUML version 1.2019.08(Sat Jul 13 14:25:14 COT 2019)
(APACHE source distribution)
Java Runtime: Java(TM) SE Runtime Environment
JVM: Java HotSpot(TM) 64-Bit Server VM
Java Version: 11.0.11+9-LTS-194
Operating System: Windows 10
OS Version: 10.0
Default Encoding: Cp1252
Language: es
Country: CO
--></g></svg>