<?xml version="1.0" encoding="UTF-8" standalone="no"?><svg xmlns="http://www.w3.org/2000/svg" xmlns:xlink="http://www.w3.org/1999/xlink" contentScriptType="application/ecmascript" contentStyleType="text/css" height="300px" preserveAspectRatio="none" style="width:294px;height:300px;" version="1.1" viewBox="0 0 294 300" width="294px" zoomAndPan="magnify"><defs><filter height="300%" id="f1ehlzbw56orn2" width="300%" x="-1" y="-1"><feGaussianBlur result="blurOut" stdDeviation="2.0"/><feColorMatrix in="blurOut" result="blurOut2" type="matrix" values="0 0 0 0 0 0 0 0 0 0 0 0 0 0 0 0 0 0 .4 0"/><feOffset dx="4.0" dy="4.0" in="blurOut2" result="blurOut3"/><feBlend in="SourceGraphic" in2="blurOut3" mode="normal"/></filter></defs><g><!--class co.com.sofka.cargame.domain.carro.command.AsignarConductorCommand--><a href="AsignarConductorCommand.html" target="_top" xlink:actuate="onRequest" xlink:show="new" xlink:title="AsignarConductorCommand.html" xlink:type="simple"><rect fill="#FEFECE" filter="url(#f1ehlzbw56orn2)" height="158.875" id="co.com.sofka.cargame.domain.carro.command.AsignarConductorCommand" style="stroke: #A80036; stroke-width: 1.5;" width="277" x="6" y="108"/><ellipse cx="30.45" cy="128.0938" fill="#ADD1B2" rx="11" ry="11" style="stroke: #A80036; stroke-width: 1.0;"/><path d="M33.2156,123.9688 Q33.3719,123.75 33.5594,123.6406 Q33.7469,123.5313 33.9656,123.5313 Q34.3406,123.5313 34.575,123.7969 Q34.8094,124.0469 34.8094,124.6563 L34.8094,126.1094 Q34.8094,126.7188 34.575,126.9844 Q34.3406,127.25 33.9656,127.25 Q33.6219,127.25 33.4188,127.0469 Q33.2156,126.8594 33.1063,126.3438 Q33.0594,125.9844 32.8719,125.7969 Q32.5438,125.4219 31.9344,125.2031 Q31.325,124.9844 30.7,124.9844 Q29.9344,124.9844 29.2938,125.3125 Q28.6688,125.6406 28.1688,126.3906 Q27.6844,127.1406 27.6844,128.1719 L27.6844,129.2656 Q27.6844,130.5 28.575,131.3281 Q29.4656,132.1406 31.0594,132.1406 Q31.9969,132.1406 32.6531,131.8906 Q33.0438,131.7344 33.4656,131.2969 Q33.7313,131.0313 33.8719,130.9531 Q34.0281,130.875 34.2313,130.875 Q34.5594,130.875 34.8094,131.1406 Q35.075,131.3906 35.075,131.7344 Q35.075,132.0781 34.7313,132.4844 Q34.2313,133.0625 33.4344,133.3906 Q32.3563,133.8438 31.0594,133.8438 Q29.5438,133.8438 28.3406,133.2188 Q27.3563,132.7188 26.6688,131.6563 Q25.9813,130.5781 25.9813,129.2969 L25.9813,128.1406 Q25.9813,126.8125 26.5906,125.6719 Q27.2156,124.5156 28.3094,123.9063 Q29.4031,123.2813 30.6375,123.2813 Q31.3719,123.2813 32.0125,123.4531 Q32.6688,123.6094 33.2156,123.9688 Z "/><text fill="#000000" font-family="sans-serif" font-size="14" lengthAdjust="spacingAndGlyphs" textLength="178" x="69.55" y="127.5332">AsignarConductorCommand</text><text fill="#000000" font-family="sans-serif" font-size="10" lengthAdjust="spacingAndGlyphs" textLength="224" x="46.55" y="140.9902">co.com.sofka.cargame.domain.carro.command</text><line style="stroke: #A80036; stroke-width: 1.5;" x1="7" x2="282" y1="148.1875" y2="148.1875"/><ellipse cx="17" cy="160.6055" fill="#84BE84" rx="3" ry="3" style="stroke: #038048; stroke-width: 1.0;"/><text fill="#000000" font-family="sans-serif" font-size="11" lengthAdjust="spacingAndGlyphs" textLength="251" x="26" y="163.6064">AsignarConductorCommand(String, Cedula, CarroId)</text><ellipse cx="17" cy="174.4414" fill="#84BE84" rx="3" ry="3" style="stroke: #038048; stroke-width: 1.0;"/><text fill="#000000" font-family="sans-serif" font-size="11" lengthAdjust="spacingAndGlyphs" textLength="143" x="26" y="177.4424">AsignarConductorCommand()</text><ellipse cx="17" cy="188.2773" fill="#84BE84" rx="3" ry="3" style="stroke: #038048; stroke-width: 1.0;"/><text fill="#000000" font-family="sans-serif" font-size="11" lengthAdjust="spacingAndGlyphs" textLength="94" x="26" y="191.2783">getNombre(): String</text><ellipse cx="17" cy="202.1133" fill="#84BE84" rx="3" ry="3" style="stroke: #038048; stroke-width: 1.0;"/><text fill="#000000" font-family="sans-serif" font-size="11" lengthAdjust="spacingAndGlyphs" textLength="114" x="26" y="205.1143">setNombre(String): void</text><ellipse cx="17" cy="215.9492" fill="#84BE84" rx="3" ry="3" style="stroke: #038048; stroke-width: 1.0;"/><text fill="#000000" font-family="sans-serif" font-size="11" lengthAdjust="spacingAndGlyphs" textLength="95" x="26" y="218.9502">getCedula(): Cedula</text><ellipse cx="17" cy="229.7852" fill="#84BE84" rx="3" ry="3" style="stroke: #038048; stroke-width: 1.0;"/><text fill="#000000" font-family="sans-serif" font-size="11" lengthAdjust="spacingAndGlyphs" textLength="115" x="26" y="232.7861">setCedula(Cedula): void</text><ellipse cx="17" cy="243.6211" fill="#84BE84" rx="3" ry="3" style="stroke: #038048; stroke-width: 1.0;"/><text fill="#000000" font-family="sans-serif" font-size="11" lengthAdjust="spacingAndGlyphs" textLength="90" x="26" y="246.6221">getPlaca(): CarroId</text><ellipse cx="17" cy="257.457" fill="#84BE84" rx="3" ry="3" style="stroke: #038048; stroke-width: 1.0;"/><text fill="#000000" font-family="sans-serif" font-size="11" lengthAdjust="spacingAndGlyphs" textLength="110" x="26" y="260.458">setPlaca(CarroId): void</text></a><!--class co.com.sofka.domain.generic.Command--><rect fill="#FEFECE" filter="url(#f1ehlzbw56orn2)" height="40.1875" id="co.com.sofka.domain.generic.Command" style="stroke: #A80036; stroke-width: 1.5;" width="167" x="61" y="8"/><ellipse cx="76" cy="28.0938" fill="#B4A7E5" rx="11" ry="11" style="stroke: #A80036; stroke-width: 1.0;"/><path d="M76.9531,24.7344 L76.9531,31.3906 L78.6719,31.3906 Q79.2813,31.3906 79.5469,31.625 Q79.8125,31.8594 79.8125,32.25 Q79.8125,32.625 79.5469,32.8594 Q79.2813,33.0938 78.6719,33.0938 L73.5313,33.0938 Q72.9219,33.0938 72.6563,32.8594 Q72.3906,32.625 72.3906,32.2344 Q72.3906,31.8594 72.6563,31.625 Q72.9219,31.3906 73.5313,31.3906 L75.25,31.3906 L75.25,24.7344 L73.5313,24.7344 Q72.9219,24.7344 72.6563,24.5 Q72.3906,24.2656 72.3906,23.875 Q72.3906,23.5 72.6563,23.2656 Q72.9219,23.0313 73.5313,23.0313 L78.6719,23.0313 Q79.2813,23.0313 79.5469,23.2656 Q79.8125,23.5 79.8125,23.875 Q79.8125,24.2656 79.5469,24.5 Q79.2813,24.7344 78.6719,24.7344 L76.9531,24.7344 Z "/><text fill="#000000" font-family="sans-serif" font-size="14" font-style="italic" lengthAdjust="spacingAndGlyphs" textLength="64" x="125.5" y="27.5332">Command</text><text fill="#000000" font-family="sans-serif" font-size="10" font-style="italic" lengthAdjust="spacingAndGlyphs" textLength="135" x="90" y="40.9902">co.com.sofka.domain.generic</text><!--link co.com.sofka.domain.generic.Command to co.com.sofka.cargame.domain.carro.command.AsignarConductorCommand--><path d="M144.5,68.47 C144.5,80.54 144.5,94.28 144.5,108 " fill="none" id="co.com.sofka.domain.generic.Command-co.com.sofka.cargame.domain.carro.command.AsignarConductorCommand" style="stroke: #A80036; stroke-width: 1.0; stroke-dasharray: 7.0,7.0;"/><polygon fill="none" points="137.5,68.31,144.5,48.31,151.5,68.31,137.5,68.31" style="stroke: #A80036; stroke-width: 1.0;"/><text fill="#888888" font-family="sans-serif" font-size="10" lengthAdjust="spacingAndGlyphs" textLength="190" x="55.5" y="287.3809">UMLDoclet 2.0.10, PlantUML 1.2019.08</text><!--
@startuml
    set namespaceSeparator none
    hide empty fields
    hide empty methods

    class "<size:14>AsignarConductorCommand\n<size:10>co.com.sofka.cargame.domain.carro.command" as co.com.sofka.cargame.domain.carro.command.AsignarConductorCommand [[AsignarConductorCommand.html]] {
        +AsignarConductorCommand(String, Cedula, CarroId)
        +AsignarConductorCommand()
        +getNombre(): String
        +setNombre(String): void
        +getCedula(): Cedula
        +setCedula(Cedula): void
        +getPlaca(): CarroId
        +setPlaca(CarroId): void
    }

    interface "<size:14>Command\n<size:10>co.com.sofka.domain.generic" as co.com.sofka.domain.generic.Command

    co.com.sofka.domain.generic.Command <|.. co.com.sofka.cargame.domain.carro.command.AsignarConductorCommand

    center footer UMLDoclet 2.0.10, PlantUML 1.2019.08
@enduml

PlantUML version 1.2019.08(Sat Jul 13 14:25:14 COT 2019)
(APACHE source distribution)
Java Runtime: Java(TM) SE Runtime Environment
JVM: Java HotSpot(TM) 64-Bit Server VM
Java Version: 11.0.11+9-LTS-194
Operating System: Windows 10
OS Version: 10.0
Default Encoding: Cp1252
Language: es
Country: CO
--></g></svg>