<?xml version="1.0" encoding="UTF-8" standalone="no"?><svg xmlns="http://www.w3.org/2000/svg" xmlns:xlink="http://www.w3.org/1999/xlink" contentScriptType="application/ecmascript" contentStyleType="text/css" height="245px" preserveAspectRatio="none" style="width:273px;height:245px;" version="1.1" viewBox="0 0 273 245" width="273px" zoomAndPan="magnify"><defs><filter height="300%" id="f16dof46mp225n" width="300%" x="-1" y="-1"><feGaussianBlur result="blurOut" stdDeviation="2.0"/><feColorMatrix in="blurOut" result="blurOut2" type="matrix" values="0 0 0 0 0 0 0 0 0 0 0 0 0 0 0 0 0 0 .4 0"/><feOffset dx="4.0" dy="4.0" in="blurOut2" result="blurOut3"/><feBlend in="SourceGraphic" in2="blurOut3" mode="normal"/></filter></defs><g><!--class co.com.sofka.cargame.domain.carro.command.MoverCarroCommand--><a href="MoverCarroCommand.html" target="_top" xlink:actuate="onRequest" xlink:show="new" xlink:title="MoverCarroCommand.html" xlink:type="simple"><rect fill="#FEFECE" filter="url(#f16dof46mp225n)" height="103.5313" id="co.com.sofka.cargame.domain.carro.command.MoverCarroCommand" style="stroke: #A80036; stroke-width: 1.5;" width="256" x="6" y="108"/><ellipse cx="21" cy="128.0938" fill="#ADD1B2" rx="11" ry="11" style="stroke: #A80036; stroke-width: 1.0;"/><path d="M23.7656,123.9688 Q23.9219,123.75 24.1094,123.6406 Q24.2969,123.5313 24.5156,123.5313 Q24.8906,123.5313 25.125,123.7969 Q25.3594,124.0469 25.3594,124.6563 L25.3594,126.1094 Q25.3594,126.7188 25.125,126.9844 Q24.8906,127.25 24.5156,127.25 Q24.1719,127.25 23.9688,127.0469 Q23.7656,126.8594 23.6563,126.3438 Q23.6094,125.9844 23.4219,125.7969 Q23.0938,125.4219 22.4844,125.2031 Q21.875,124.9844 21.25,124.9844 Q20.4844,124.9844 19.8438,125.3125 Q19.2188,125.6406 18.7188,126.3906 Q18.2344,127.1406 18.2344,128.1719 L18.2344,129.2656 Q18.2344,130.5 19.125,131.3281 Q20.0156,132.1406 21.6094,132.1406 Q22.5469,132.1406 23.2031,131.8906 Q23.5938,131.7344 24.0156,131.2969 Q24.2813,131.0313 24.4219,130.9531 Q24.5781,130.875 24.7813,130.875 Q25.1094,130.875 25.3594,131.1406 Q25.625,131.3906 25.625,131.7344 Q25.625,132.0781 25.2813,132.4844 Q24.7813,133.0625 23.9844,133.3906 Q22.9063,133.8438 21.6094,133.8438 Q20.0938,133.8438 18.8906,133.2188 Q17.9063,132.7188 17.2188,131.6563 Q16.5313,130.5781 16.5313,129.2969 L16.5313,128.1406 Q16.5313,126.8125 17.1406,125.6719 Q17.7656,124.5156 18.8594,123.9063 Q19.9531,123.2813 21.1875,123.2813 Q21.9219,123.2813 22.5625,123.4531 Q23.2188,123.6094 23.7656,123.9688 Z "/><text fill="#000000" font-family="sans-serif" font-size="14" lengthAdjust="spacingAndGlyphs" textLength="139" x="77.5" y="127.5332">MoverCarroCommand</text><text fill="#000000" font-family="sans-serif" font-size="10" lengthAdjust="spacingAndGlyphs" textLength="224" x="35" y="140.9902">co.com.sofka.cargame.domain.carro.command</text><line style="stroke: #A80036; stroke-width: 1.5;" x1="7" x2="261" y1="148.1875" y2="148.1875"/><ellipse cx="17" cy="160.6055" fill="#84BE84" rx="3" ry="3" style="stroke: #038048; stroke-width: 1.0;"/><text fill="#000000" font-family="sans-serif" font-size="11" lengthAdjust="spacingAndGlyphs" textLength="112" x="26" y="163.6064">MoverCarroCommand()</text><ellipse cx="17" cy="174.4414" fill="#84BE84" rx="3" ry="3" style="stroke: #038048; stroke-width: 1.0;"/><text fill="#000000" font-family="sans-serif" font-size="11" lengthAdjust="spacingAndGlyphs" textLength="186" x="26" y="177.4424">MoverCarroCommand(CarroId, CarrilId)</text><ellipse cx="17" cy="188.2773" fill="#84BE84" rx="3" ry="3" style="stroke: #038048; stroke-width: 1.0;"/><text fill="#000000" font-family="sans-serif" font-size="11" lengthAdjust="spacingAndGlyphs" textLength="99" x="26" y="191.2783">getCarroId(): CarroId</text><ellipse cx="17" cy="202.1133" fill="#84BE84" rx="3" ry="3" style="stroke: #038048; stroke-width: 1.0;"/><text fill="#000000" font-family="sans-serif" font-size="11" lengthAdjust="spacingAndGlyphs" textLength="95" x="26" y="205.1143">getCarrilId(): CarrilId</text></a><!--class co.com.sofka.domain.generic.Command--><rect fill="#FEFECE" filter="url(#f16dof46mp225n)" height="40.1875" id="co.com.sofka.domain.generic.Command" style="stroke: #A80036; stroke-width: 1.5;" width="167" x="50.5" y="8"/><ellipse cx="65.5" cy="28.0938" fill="#B4A7E5" rx="11" ry="11" style="stroke: #A80036; stroke-width: 1.0;"/><path d="M66.4531,24.7344 L66.4531,31.3906 L68.1719,31.3906 Q68.7813,31.3906 69.0469,31.625 Q69.3125,31.8594 69.3125,32.25 Q69.3125,32.625 69.0469,32.8594 Q68.7813,33.0938 68.1719,33.0938 L63.0313,33.0938 Q62.4219,33.0938 62.1563,32.8594 Q61.8906,32.625 61.8906,32.2344 Q61.8906,31.8594 62.1563,31.625 Q62.4219,31.3906 63.0313,31.3906 L64.75,31.3906 L64.75,24.7344 L63.0313,24.7344 Q62.4219,24.7344 62.1563,24.5 Q61.8906,24.2656 61.8906,23.875 Q61.8906,23.5 62.1563,23.2656 Q62.4219,23.0313 63.0313,23.0313 L68.1719,23.0313 Q68.7813,23.0313 69.0469,23.2656 Q69.3125,23.5 69.3125,23.875 Q69.3125,24.2656 69.0469,24.5 Q68.7813,24.7344 68.1719,24.7344 L66.4531,24.7344 Z "/><text fill="#000000" font-family="sans-serif" font-size="14" font-style="italic" lengthAdjust="spacingAndGlyphs" textLength="64" x="115" y="27.5332">Command</text><text fill="#000000" font-family="sans-serif" font-size="10" font-style="italic" lengthAdjust="spacingAndGlyphs" textLength="135" x="79.5" y="40.9902">co.com.sofka.domain.generic</text><!--link co.com.sofka.domain.generic.Command to co.com.sofka.cargame.domain.carro.command.MoverCarroCommand--><path d="M134,68.49 C134,80.93 134,94.86 134,107.99 " fill="none" id="co.com.sofka.domain.generic.Command-co.com.sofka.cargame.domain.carro.command.MoverCarroCommand" style="stroke: #A80036; stroke-width: 1.0; stroke-dasharray: 7.0,7.0;"/><polygon fill="none" points="127,68.18,134,48.18,141,68.18,127,68.18" style="stroke: #A80036; stroke-width: 1.0;"/><text fill="#888888" font-family="sans-serif" font-size="10" lengthAdjust="spacingAndGlyphs" textLength="190" x="45" y="232.3809">UMLDoclet 2.0.10, PlantUML 1.2019.08</text><!--
@startuml
    set namespaceSeparator none
    hide empty fields
    hide empty methods

    class "<size:14>MoverCarroCommand\n<size:10>co.com.sofka.cargame.domain.carro.command" as co.com.sofka.cargame.domain.carro.command.MoverCarroCommand [[MoverCarroCommand.html]] {
        +MoverCarroCommand()
        +MoverCarroCommand(CarroId, CarrilId)
        +getCarroId(): CarroId
        +getCarrilId(): CarrilId
    }

    interface "<size:14>Command\n<size:10>co.com.sofka.domain.generic" as co.com.sofka.domain.generic.Command

    co.com.sofka.domain.generic.Command <|.. co.com.sofka.cargame.domain.carro.command.MoverCarroCommand

    center footer UMLDoclet 2.0.10, PlantUML 1.2019.08
@enduml

PlantUML version 1.2019.08(Sat Jul 13 14:25:14 COT 2019)
(APACHE source distribution)
Java Runtime: Java(TM) SE Runtime Environment
JVM: Java HotSpot(TM) 64-Bit Server VM
Java Version: 11.0.11+9-LTS-194
Operating System: Windows 10
OS Version: 10.0
Default Encoding: Cp1252
Language: es
Country: CO
--></g></svg>