<?xml version="1.0" encoding="UTF-8" standalone="no"?><svg xmlns="http://www.w3.org/2000/svg" xmlns:xlink="http://www.w3.org/1999/xlink" contentScriptType="application/ecmascript" contentStyleType="text/css" height="422px" preserveAspectRatio="none" style="width:880px;height:422px;" version="1.1" viewBox="0 0 880 422" width="880px" zoomAndPan="magnify"><defs><filter height="300%" id="f1vnpb0bjqz1d4" width="300%" x="-1" y="-1"><feGaussianBlur result="blurOut" stdDeviation="2.0"/><feColorMatrix in="blurOut" result="blurOut2" type="matrix" values="0 0 0 0 0 0 0 0 0 0 0 0 0 0 0 0 0 0 .4 0"/><feOffset dx="4.0" dy="4.0" in="blurOut2" result="blurOut3"/><feBlend in="SourceGraphic" in2="blurOut3" mode="normal"/></filter></defs><g><!--cluster co.com.sofka.cargame.domain.carro.command--><polygon fill="#FFFFFF" filter="url(#f1vnpb0bjqz1d4)" points="22,148,351,148,358,171.6094,858,171.6094,858,373,22,373,22,148" style="stroke: #000000; stroke-width: 1.5;"/><line style="stroke: #000000; stroke-width: 1.5;" x1="22" x2="358" y1="171.6094" y2="171.6094"/><text fill="#000000" font-family="sans-serif" font-size="14" font-weight="bold" lengthAdjust="spacingAndGlyphs" textLength="323" x="26" y="164.5332">co.com.sofka.cargame.domain.carro.command</text><!--cluster co.com.sofka.domain.generic--><polygon fill="#FFFFFF" filter="url(#f1vnpb0bjqz1d4)" points="297,24,508,24,515,47.6094,518,47.6094,518,124,297,124,297,24" style="stroke: #000000; stroke-width: 1.5;"/><line style="stroke: #000000; stroke-width: 1.5;" x1="297" x2="515" y1="47.6094" y2="47.6094"/><text fill="#000000" font-family="sans-serif" font-size="14" font-weight="bold" lengthAdjust="spacingAndGlyphs" textLength="205" x="301" y="40.5332">co.com.sofka.domain.generic</text><!--class co.com.sofka.cargame.domain.carro.command.AsignarConductorCommand--><a href="AsignarConductorCommand.html" target="_top" xlink:actuate="onRequest" xlink:show="new" xlink:title="AsignarConductorCommand.html" xlink:type="simple"><rect fill="#FEFECE" filter="url(#f1vnpb0bjqz1d4)" height="158.6875" id="co.com.sofka.cargame.domain.carro.command.AsignarConductorCommand" style="stroke: #A80036; stroke-width: 1.5;" width="277" x="564.5" y="191"/><ellipse cx="619.75" cy="207" fill="#ADD1B2" rx="11" ry="11" style="stroke: #A80036; stroke-width: 1.0;"/><path d="M622.5156,202.875 Q622.6719,202.6563 622.8594,202.5469 Q623.0469,202.4375 623.2656,202.4375 Q623.6406,202.4375 623.875,202.7031 Q624.1094,202.9531 624.1094,203.5625 L624.1094,205.0156 Q624.1094,205.625 623.875,205.8906 Q623.6406,206.1563 623.2656,206.1563 Q622.9219,206.1563 622.7188,205.9531 Q622.5156,205.7656 622.4063,205.25 Q622.3594,204.8906 622.1719,204.7031 Q621.8438,204.3281 621.2344,204.1094 Q620.625,203.8906 620,203.8906 Q619.2344,203.8906 618.5938,204.2188 Q617.9688,204.5469 617.4688,205.2969 Q616.9844,206.0469 616.9844,207.0781 L616.9844,208.1719 Q616.9844,209.4063 617.875,210.2344 Q618.7656,211.0469 620.3594,211.0469 Q621.2969,211.0469 621.9531,210.7969 Q622.3438,210.6406 622.7656,210.2031 Q623.0313,209.9375 623.1719,209.8594 Q623.3281,209.7813 623.5313,209.7813 Q623.8594,209.7813 624.1094,210.0469 Q624.375,210.2969 624.375,210.6406 Q624.375,210.9844 624.0313,211.3906 Q623.5313,211.9688 622.7344,212.2969 Q621.6563,212.75 620.3594,212.75 Q618.8438,212.75 617.6406,212.125 Q616.6563,211.625 615.9688,210.5625 Q615.2813,209.4844 615.2813,208.2031 L615.2813,207.0469 Q615.2813,205.7188 615.8906,204.5781 Q616.5156,203.4219 617.6094,202.8125 Q618.7031,202.1875 619.9375,202.1875 Q620.6719,202.1875 621.3125,202.3594 Q621.9688,202.5156 622.5156,202.875 Z "/><text fill="#000000" font-family="sans-serif" font-size="12" lengthAdjust="spacingAndGlyphs" textLength="158" x="640.25" y="211.9102">AsignarConductorCommand</text><line style="stroke: #A80036; stroke-width: 1.5;" x1="565.5" x2="840.5" y1="223" y2="223"/><line style="stroke: #A80036; stroke-width: 1.5;" x1="565.5" x2="840.5" y1="231" y2="231"/><ellipse cx="575.5" cy="243.418" fill="#84BE84" rx="3" ry="3" style="stroke: #038048; stroke-width: 1.0;"/><text fill="#000000" font-family="sans-serif" font-size="11" lengthAdjust="spacingAndGlyphs" textLength="251" x="584.5" y="246.4189">AsignarConductorCommand(String, Cedula, CarroId)</text><ellipse cx="575.5" cy="257.2539" fill="#84BE84" rx="3" ry="3" style="stroke: #038048; stroke-width: 1.0;"/><text fill="#000000" font-family="sans-serif" font-size="11" lengthAdjust="spacingAndGlyphs" textLength="143" x="584.5" y="260.2549">AsignarConductorCommand()</text><ellipse cx="575.5" cy="271.0898" fill="#84BE84" rx="3" ry="3" style="stroke: #038048; stroke-width: 1.0;"/><text fill="#000000" font-family="sans-serif" font-size="11" lengthAdjust="spacingAndGlyphs" textLength="94" x="584.5" y="274.0908">getNombre(): String</text><ellipse cx="575.5" cy="284.9258" fill="#84BE84" rx="3" ry="3" style="stroke: #038048; stroke-width: 1.0;"/><text fill="#000000" font-family="sans-serif" font-size="11" lengthAdjust="spacingAndGlyphs" textLength="114" x="584.5" y="287.9268">setNombre(String): void</text><ellipse cx="575.5" cy="298.7617" fill="#84BE84" rx="3" ry="3" style="stroke: #038048; stroke-width: 1.0;"/><text fill="#000000" font-family="sans-serif" font-size="11" lengthAdjust="spacingAndGlyphs" textLength="95" x="584.5" y="301.7627">getCedula(): Cedula</text><ellipse cx="575.5" cy="312.5977" fill="#84BE84" rx="3" ry="3" style="stroke: #038048; stroke-width: 1.0;"/><text fill="#000000" font-family="sans-serif" font-size="11" lengthAdjust="spacingAndGlyphs" textLength="115" x="584.5" y="315.5986">setCedula(Cedula): void</text><ellipse cx="575.5" cy="326.4336" fill="#84BE84" rx="3" ry="3" style="stroke: #038048; stroke-width: 1.0;"/><text fill="#000000" font-family="sans-serif" font-size="11" lengthAdjust="spacingAndGlyphs" textLength="90" x="584.5" y="329.4346">getPlaca(): CarroId</text><ellipse cx="575.5" cy="340.2695" fill="#84BE84" rx="3" ry="3" style="stroke: #038048; stroke-width: 1.0;"/><text fill="#000000" font-family="sans-serif" font-size="11" lengthAdjust="spacingAndGlyphs" textLength="110" x="584.5" y="343.2705">setPlaca(CarroId): void</text></a><!--class co.com.sofka.cargame.domain.carro.command.CrearCarroCommand--><a href="CrearCarroCommand.html" target="_top" xlink:actuate="onRequest" xlink:show="new" xlink:title="CrearCarroCommand.html" xlink:type="simple"><rect fill="#FEFECE" filter="url(#f1vnpb0bjqz1d4)" height="172.5234" id="co.com.sofka.cargame.domain.carro.command.CrearCarroCommand" style="stroke: #A80036; stroke-width: 1.5;" width="244" x="285" y="184"/><ellipse cx="342.25" cy="200" fill="#ADD1B2" rx="11" ry="11" style="stroke: #A80036; stroke-width: 1.0;"/><path d="M345.0156,195.875 Q345.1719,195.6563 345.3594,195.5469 Q345.5469,195.4375 345.7656,195.4375 Q346.1406,195.4375 346.375,195.7031 Q346.6094,195.9531 346.6094,196.5625 L346.6094,198.0156 Q346.6094,198.625 346.375,198.8906 Q346.1406,199.1563 345.7656,199.1563 Q345.4219,199.1563 345.2188,198.9531 Q345.0156,198.7656 344.9063,198.25 Q344.8594,197.8906 344.6719,197.7031 Q344.3438,197.3281 343.7344,197.1094 Q343.125,196.8906 342.5,196.8906 Q341.7344,196.8906 341.0938,197.2188 Q340.4688,197.5469 339.9688,198.2969 Q339.4844,199.0469 339.4844,200.0781 L339.4844,201.1719 Q339.4844,202.4063 340.375,203.2344 Q341.2656,204.0469 342.8594,204.0469 Q343.7969,204.0469 344.4531,203.7969 Q344.8438,203.6406 345.2656,203.2031 Q345.5313,202.9375 345.6719,202.8594 Q345.8281,202.7813 346.0313,202.7813 Q346.3594,202.7813 346.6094,203.0469 Q346.875,203.2969 346.875,203.6406 Q346.875,203.9844 346.5313,204.3906 Q346.0313,204.9688 345.2344,205.2969 Q344.1563,205.75 342.8594,205.75 Q341.3438,205.75 340.1406,205.125 Q339.1563,204.625 338.4688,203.5625 Q337.7813,202.4844 337.7813,201.2031 L337.7813,200.0469 Q337.7813,198.7188 338.3906,197.5781 Q339.0156,196.4219 340.1094,195.8125 Q341.2031,195.1875 342.4375,195.1875 Q343.1719,195.1875 343.8125,195.3594 Q344.4688,195.5156 345.0156,195.875 Z "/><text fill="#000000" font-family="sans-serif" font-size="12" lengthAdjust="spacingAndGlyphs" textLength="121" x="362.75" y="204.9102">CrearCarroCommand</text><line style="stroke: #A80036; stroke-width: 1.5;" x1="286" x2="528" y1="216" y2="216"/><line style="stroke: #A80036; stroke-width: 1.5;" x1="286" x2="528" y1="224" y2="224"/><ellipse cx="296" cy="236.418" fill="#84BE84" rx="3" ry="3" style="stroke: #038048; stroke-width: 1.0;"/><text fill="#000000" font-family="sans-serif" font-size="11" lengthAdjust="spacingAndGlyphs" textLength="109" x="305" y="239.4189">CrearCarroCommand()</text><ellipse cx="296" cy="250.2539" fill="#84BE84" rx="3" ry="3" style="stroke: #038048; stroke-width: 1.0;"/><text fill="#000000" font-family="sans-serif" font-size="11" lengthAdjust="spacingAndGlyphs" textLength="218" x="305" y="253.2549">CrearCarroCommand(CarroId, JuegoId, Color)</text><ellipse cx="296" cy="264.0898" fill="#84BE84" rx="3" ry="3" style="stroke: #038048; stroke-width: 1.0;"/><text fill="#000000" font-family="sans-serif" font-size="11" lengthAdjust="spacingAndGlyphs" textLength="99" x="305" y="267.0908">getCarroId(): CarroId</text><ellipse cx="296" cy="277.9258" fill="#84BE84" rx="3" ry="3" style="stroke: #038048; stroke-width: 1.0;"/><text fill="#000000" font-family="sans-serif" font-size="11" lengthAdjust="spacingAndGlyphs" textLength="119" x="305" y="280.9268">setCarroId(CarroId): void</text><ellipse cx="296" cy="291.7617" fill="#84BE84" rx="3" ry="3" style="stroke: #038048; stroke-width: 1.0;"/><text fill="#000000" font-family="sans-serif" font-size="11" lengthAdjust="spacingAndGlyphs" textLength="103" x="305" y="294.7627">getJuegoId(): JuegoId</text><ellipse cx="296" cy="305.5977" fill="#84BE84" rx="3" ry="3" style="stroke: #038048; stroke-width: 1.0;"/><text fill="#000000" font-family="sans-serif" font-size="11" lengthAdjust="spacingAndGlyphs" textLength="123" x="305" y="308.5986">setJuegoId(JuegoId): void</text><ellipse cx="296" cy="319.4336" fill="#84BE84" rx="3" ry="3" style="stroke: #038048; stroke-width: 1.0;"/><text fill="#000000" font-family="sans-serif" font-size="11" lengthAdjust="spacingAndGlyphs" textLength="79" x="305" y="322.4346">getColor(): Color</text><ellipse cx="296" cy="333.2695" fill="#84BE84" rx="3" ry="3" style="stroke: #038048; stroke-width: 1.0;"/><text fill="#000000" font-family="sans-serif" font-size="11" lengthAdjust="spacingAndGlyphs" textLength="99" x="305" y="336.2705">setColor(Color): void</text><ellipse cx="296" cy="347.1055" fill="#84BE84" rx="3" ry="3" style="stroke: #038048; stroke-width: 1.0;"/><text fill="#000000" font-family="sans-serif" font-size="11" lengthAdjust="spacingAndGlyphs" textLength="90" x="305" y="350.1064">getPlaca(): CarroId</text></a><!--class co.com.sofka.cargame.domain.carro.command.MoverCarroCommand--><a href="MoverCarroCommand.html" target="_top" xlink:actuate="onRequest" xlink:show="new" xlink:title="MoverCarroCommand.html" xlink:type="simple"><rect fill="#FEFECE" filter="url(#f1vnpb0bjqz1d4)" height="103.3438" id="co.com.sofka.cargame.domain.carro.command.MoverCarroCommand" style="stroke: #A80036; stroke-width: 1.5;" width="212" x="38" y="219"/><ellipse cx="79.1" cy="235" fill="#ADD1B2" rx="11" ry="11" style="stroke: #A80036; stroke-width: 1.0;"/><path d="M81.8656,230.875 Q82.0219,230.6563 82.2094,230.5469 Q82.3969,230.4375 82.6156,230.4375 Q82.9906,230.4375 83.225,230.7031 Q83.4594,230.9531 83.4594,231.5625 L83.4594,233.0156 Q83.4594,233.625 83.225,233.8906 Q82.9906,234.1563 82.6156,234.1563 Q82.2719,234.1563 82.0688,233.9531 Q81.8656,233.7656 81.7563,233.25 Q81.7094,232.8906 81.5219,232.7031 Q81.1938,232.3281 80.5844,232.1094 Q79.975,231.8906 79.35,231.8906 Q78.5844,231.8906 77.9438,232.2188 Q77.3188,232.5469 76.8188,233.2969 Q76.3344,234.0469 76.3344,235.0781 L76.3344,236.1719 Q76.3344,237.4063 77.225,238.2344 Q78.1156,239.0469 79.7094,239.0469 Q80.6469,239.0469 81.3031,238.7969 Q81.6938,238.6406 82.1156,238.2031 Q82.3813,237.9375 82.5219,237.8594 Q82.6781,237.7813 82.8813,237.7813 Q83.2094,237.7813 83.4594,238.0469 Q83.725,238.2969 83.725,238.6406 Q83.725,238.9844 83.3813,239.3906 Q82.8813,239.9688 82.0844,240.2969 Q81.0063,240.75 79.7094,240.75 Q78.1938,240.75 76.9906,240.125 Q76.0063,239.625 75.3188,238.5625 Q74.6313,237.4844 74.6313,236.2031 L74.6313,235.0469 Q74.6313,233.7188 75.2406,232.5781 Q75.8656,231.4219 76.9594,230.8125 Q78.0531,230.1875 79.2875,230.1875 Q80.0219,230.1875 80.6625,230.3594 Q81.3188,230.5156 81.8656,230.875 Z "/><text fill="#000000" font-family="sans-serif" font-size="12" lengthAdjust="spacingAndGlyphs" textLength="122" x="98.9" y="239.9102">MoverCarroCommand</text><line style="stroke: #A80036; stroke-width: 1.5;" x1="39" x2="249" y1="251" y2="251"/><line style="stroke: #A80036; stroke-width: 1.5;" x1="39" x2="249" y1="259" y2="259"/><ellipse cx="49" cy="271.418" fill="#84BE84" rx="3" ry="3" style="stroke: #038048; stroke-width: 1.0;"/><text fill="#000000" font-family="sans-serif" font-size="11" lengthAdjust="spacingAndGlyphs" textLength="112" x="58" y="274.4189">MoverCarroCommand()</text><ellipse cx="49" cy="285.2539" fill="#84BE84" rx="3" ry="3" style="stroke: #038048; stroke-width: 1.0;"/><text fill="#000000" font-family="sans-serif" font-size="11" lengthAdjust="spacingAndGlyphs" textLength="186" x="58" y="288.2549">MoverCarroCommand(CarroId, CarrilId)</text><ellipse cx="49" cy="299.0898" fill="#84BE84" rx="3" ry="3" style="stroke: #038048; stroke-width: 1.0;"/><text fill="#000000" font-family="sans-serif" font-size="11" lengthAdjust="spacingAndGlyphs" textLength="99" x="58" y="302.0908">getCarroId(): CarroId</text><ellipse cx="49" cy="312.9258" fill="#84BE84" rx="3" ry="3" style="stroke: #038048; stroke-width: 1.0;"/><text fill="#000000" font-family="sans-serif" font-size="11" lengthAdjust="spacingAndGlyphs" textLength="95" x="58" y="315.9268">getCarrilId(): CarrilId</text></a><!--class co.com.sofka.domain.generic.Command--><rect fill="#FEFECE" filter="url(#f1vnpb0bjqz1d4)" height="48" id="co.com.sofka.domain.generic.Command" style="stroke: #A80036; stroke-width: 1.5;" width="91" x="361.5" y="60"/><ellipse cx="376.5" cy="76" fill="#B4A7E5" rx="11" ry="11" style="stroke: #A80036; stroke-width: 1.0;"/><path d="M377.4531,72.6406 L377.4531,79.2969 L379.1719,79.2969 Q379.7813,79.2969 380.0469,79.5313 Q380.3125,79.7656 380.3125,80.1563 Q380.3125,80.5313 380.0469,80.7656 Q379.7813,81 379.1719,81 L374.0313,81 Q373.4219,81 373.1563,80.7656 Q372.8906,80.5313 372.8906,80.1406 Q372.8906,79.7656 373.1563,79.5313 Q373.4219,79.2969 374.0313,79.2969 L375.75,79.2969 L375.75,72.6406 L374.0313,72.6406 Q373.4219,72.6406 373.1563,72.4063 Q372.8906,72.1719 372.8906,71.7813 Q372.8906,71.4063 373.1563,71.1719 Q373.4219,70.9375 374.0313,70.9375 L379.1719,70.9375 Q379.7813,70.9375 380.0469,71.1719 Q380.3125,71.4063 380.3125,71.7813 Q380.3125,72.1719 380.0469,72.4063 Q379.7813,72.6406 379.1719,72.6406 L377.4531,72.6406 Z "/><text fill="#000000" font-family="sans-serif" font-size="12" font-style="italic" lengthAdjust="spacingAndGlyphs" textLength="59" x="390.5" y="80.9102">Command</text><line style="stroke: #A80036; stroke-width: 1.5;" x1="362.5" x2="451.5" y1="92" y2="92"/><line style="stroke: #A80036; stroke-width: 1.5;" x1="362.5" x2="451.5" y1="100" y2="100"/><!--link co.com.sofka.domain.generic.Command to co.com.sofka.cargame.domain.carro.command.AsignarConductorCommand--><path d="M471.7,105.53 C496.11,114.51 523.61,126.18 547,140 C571.4,154.41 595.88,172.57 617.97,190.68 " fill="none" id="co.com.sofka.domain.generic.Command-co.com.sofka.cargame.domain.carro.command.AsignarConductorCommand" style="stroke: #A80036; stroke-width: 1.0; stroke-dasharray: 7.0,7.0;"/><polygon fill="none" points="469.05,112.01,452.51,98.76,473.7,98.81,469.05,112.01" style="stroke: #A80036; stroke-width: 1.0;"/><!--link co.com.sofka.domain.generic.Command to co.com.sofka.cargame.domain.carro.command.CrearCarroCommand--><path d="M407,128.49 C407,145.05 407,164.55 407,183.69 " fill="none" id="co.com.sofka.domain.generic.Command-co.com.sofka.cargame.domain.carro.command.CrearCarroCommand" style="stroke: #A80036; stroke-width: 1.0; stroke-dasharray: 7.0,7.0;"/><polygon fill="none" points="400,128.37,407,108.37,414,128.37,400,128.37" style="stroke: #A80036; stroke-width: 1.0;"/><!--link co.com.sofka.domain.generic.Command to co.com.sofka.cargame.domain.carro.command.MoverCarroCommand--><path d="M342.17,104.11 C317.76,112.94 290.49,124.88 268,140 C235.97,161.54 205.88,192.59 183.36,218.89 " fill="none" id="co.com.sofka.domain.generic.Command-co.com.sofka.cargame.domain.carro.command.MoverCarroCommand" style="stroke: #A80036; stroke-width: 1.0; stroke-dasharray: 7.0,7.0;"/><polygon fill="none" points="340.22,97.38,361.41,97.55,344.74,110.63,340.22,97.38" style="stroke: #A80036; stroke-width: 1.0;"/><text fill="#888888" font-family="sans-serif" font-size="10" lengthAdjust="spacingAndGlyphs" textLength="190" x="351" y="409.3809">UMLDoclet 2.0.10, PlantUML 1.2019.08</text><!--
@startuml
    namespace co.com.sofka.cargame.domain.carro.command {

        class AsignarConductorCommand [[AsignarConductorCommand.html]] {
            +AsignarConductorCommand(String, Cedula, CarroId)
            +AsignarConductorCommand()
            +getNombre(): String
            +setNombre(String): void
            +getCedula(): Cedula
            +setCedula(Cedula): void
            +getPlaca(): CarroId
            +setPlaca(CarroId): void
        }

        class CrearCarroCommand [[CrearCarroCommand.html]] {
            +CrearCarroCommand()
            +CrearCarroCommand(CarroId, JuegoId, Color)
            +getCarroId(): CarroId
            +setCarroId(CarroId): void
            +getJuegoId(): JuegoId
            +setJuegoId(JuegoId): void
            +getColor(): Color
            +setColor(Color): void
            +getPlaca(): CarroId
        }

        class MoverCarroCommand [[MoverCarroCommand.html]] {
            +MoverCarroCommand()
            +MoverCarroCommand(CarroId, CarrilId)
            +getCarroId(): CarroId
            +getCarrilId(): CarrilId
        }

        co.com.sofka.domain.generic.Command <|.. AsignarConductorCommand
        co.com.sofka.domain.generic.Command <|.. CrearCarroCommand
        co.com.sofka.domain.generic.Command <|.. MoverCarroCommand
    }

    namespace co.com.sofka.domain.generic {
        interface Command
    }

    center footer UMLDoclet 2.0.10, PlantUML 1.2019.08
@enduml

PlantUML version 1.2019.08(Sat Jul 13 14:25:14 COT 2019)
(APACHE source distribution)
Java Runtime: Java(TM) SE Runtime Environment
JVM: Java HotSpot(TM) 64-Bit Server VM
Java Version: 11.0.11+9-LTS-194
Operating System: Windows 10
OS Version: 10.0
Default Encoding: Cp1252
Language: es
Country: CO
--></g></svg>